<?xml version="1.0" standalone="no"?>
<!DOCTYPE svg PUBLIC "-//W3C//DTD SVG 1.1//EN" "http://www.w3.org/Graphics/SVG/1.1/DTD/svg11.dtd" >
<svg>
<metadata>
Created by FontForge 20120731 at Tue Mar  1 22:19:46 2016
 By ,,,
2015 published by Monotype GmbH
</metadata>
<defs>
<font id="RealTextOT-Extlight" horiz-adv-x="600" >
  <font-face 
    font-family="RealTextOT-Extralight"
    font-weight="300"
    font-stretch="normal"
    units-per-em="1000"
    panose-1="2 11 4 4 2 1 1 1 1 2"
    ascent="800"
    descent="-200"
    x-height="519"
    cap-height="700"
    bbox="-334 -248 1381 953"
    underline-thickness="38"
    underline-position="-46"
    unicode-range="U+000D-1F310"
  />
<missing-glyph 
d="M531 700v-860h-462v860h462zM488 662h-376v-784h376v784z" />
    <glyph glyph-name="f_f" unicode="ff" horiz-adv-x="590" 
d="M527 675q-58 0 -81 -27t-23 -77v-52h172v-33h-172v-486h-42v486h-235v-486h-42v486h-76v33h76v48q0 59 37.5 98t120.5 39q70 0 148 -35q34 41 112 41q50 0 99 -20v-34q-47 19 -94 19zM381 519v53q0 42 12 70q-65 30 -129 30q-118 0 -118 -107v-46h235z" />
    <glyph glyph-name="f_f_i" unicode="ffi" horiz-adv-x="785" 
d="M420 519h277v-519h-42v486h-235v-486h-42v486h-232v-486h-42v486h-77v33h77v48q0 59 37.5 98t120.5 39q71 0 149 -36q42 42 126 42q63 0 120 -23v-34q-56 22 -116 22q-121 0 -121 -104v-52zM378 519v57q0 37 14 64q-68 30 -129 30q-117 0 -117 -105v-46h232z" />
    <glyph glyph-name="f_f_j" unicode="ffj" horiz-adv-x="785" 
d="M420 519h277v-551q0 -72 -39 -106t-96 -34q-20 0 -46 4v34q22 -2 32 -2q52 0 79.5 26t27.5 92v504h-235v-486h-42v486h-232v-486h-42v486h-77v33h77v48q0 59 37.5 98t120.5 39q71 0 149 -36q42 42 126 42q63 0 120 -23v-34q-56 22 -116 22q-121 0 -121 -104v-52zM378 519
v57q0 37 14 64q-68 30 -129 30q-117 0 -117 -105v-46h232z" />
    <glyph glyph-name="f_f_l" unicode="ffl" horiz-adv-x="833" 
d="M757 31q9 0 22 1.5t17 1.5v-34q-28 -5 -52 -5q-97 0 -97 120v545q-56 15 -110 15q-117 0 -117 -104v-52h152v-33h-152v-486h-42v486h-232v-486h-42v486h-77v33h77v48q0 59 37.5 98t120.5 39q71 0 149 -36q40 42 121 42q55 0 115 -17l42 3v-574q0 -49 14 -70t54 -21z
M378 519v57q0 37 14 65q-70 29 -129 29q-117 0 -117 -105v-46h232z" />
    <glyph glyph-name="f_i" unicode="fi" horiz-adv-x="511" 
d="M263 710q63 0 120 -23v-34q-56 22 -116 22q-121 0 -121 -104v-52h277v-519h-42v486h-235v-486h-42v486h-77v33h77v57q0 58 37.5 96t121.5 38z" />
    <glyph glyph-name="f_j" unicode="fj" horiz-adv-x="511" 
d="M263 710q63 0 120 -23v-34q-56 22 -116 22q-121 0 -121 -104v-52h277v-551q0 -72 -39 -106t-96 -34q-20 0 -46 4v34q22 -2 32 -2q52 0 79.5 26t27.5 92v504h-235v-486h-42v486h-77v33h77v57q0 58 37.5 96t121.5 38z" />
    <glyph glyph-name="f_l" unicode="fl" horiz-adv-x="559" 
d="M258 710q55 0 115 -17l42 3v-574q0 -49 14 -70t54 -21q9 0 22 1.5t17 1.5v-34q-28 -5 -52 -5q-97 0 -97 120v545q-56 15 -110 15q-117 0 -117 -104v-52h152v-33h-152v-486h-42v486h-77v33h77v57q0 58 36.5 96t117.5 38z" />
    <glyph glyph-name=".notdef" 
d="M531 700v-860h-462v860h462zM488 662h-376v-784h376v784z" />
    <glyph glyph-name=".null" horiz-adv-x="0" 
 />
    <glyph glyph-name="nonmarkingreturn" horiz-adv-x="333" 
 />
    <glyph glyph-name="CR" unicode="&#xd;" horiz-adv-x="268" 
 />
    <glyph glyph-name="space" unicode=" " horiz-adv-x="268" 
 />
    <glyph glyph-name="exclam" unicode="!" horiz-adv-x="256" 
d="M151 703v-239l-8 -274h-30l-8 274v239h46zM128 59q14 0 23.5 -9.5t9.5 -22.5t-9.5 -23t-23.5 -10t-23.5 10t-9.5 23t9.5 22.5t23.5 9.5z" />
    <glyph glyph-name="quotedbl" unicode="&#x22;" horiz-adv-x="420" 
d="M133 716v-240h-36v240h36zM323 716v-240h-36v240h36z" />
    <glyph glyph-name="numbersign" unicode="#" 
d="M539 470h-88l-38 -261h86v-32h-90l-26 -177h-36l26 177h-176l-26 -177h-36l26 177h-85v32h89l38 261h-87v31h91l26 179h36l-26 -179h176l26 179h36l-26 -179h84v-31zM377 209l38 261h-176l-38 -261h176z" />
    <glyph glyph-name="dollar" unicode="$" horiz-adv-x="608" 
d="M335 834v-123q76 -4 135 -36t94 -81l-33 -24q-28 43 -79 71.5t-118 32.5v-290q129 -24 181.5 -70.5t52.5 -127.5q0 -85 -60.5 -139t-172.5 -58v-137h-36v137q-78 2 -148 30.5t-112 83.5l31 27q80 -99 231 -104v324q-116 22 -171 66.5t-55 119.5q0 77 60 125t164 50v123
h36zM301 389v286q-87 -2 -134.5 -39t-47.5 -98q0 -62 42 -96t140 -53zM334 344v-318q92 2 141 45t49 113q0 65 -41 103t-149 57z" />
    <glyph glyph-name="percent" unicode="%" horiz-adv-x="1014" 
d="M743 712l-433 -724h-36l433 724h36zM230 711q77 0 129.5 -57t52.5 -167q0 -113 -52 -170t-130 -57t-130 57t-52 170q0 110 52 167t130 57zM231 680q-65 0 -105 -49t-40 -144q0 -98 40 -147.5t105 -49.5q64 0 104.5 50t40.5 147q0 95 -40.5 144t-104.5 49zM783 442
q77 0 129 -57t52 -168q0 -113 -51.5 -170t-129.5 -57t-130.5 57t-52.5 170q0 111 52.5 168t130.5 57zM784 411q-65 0 -105.5 -49t-40.5 -144q0 -98 40 -148t106 -50q64 0 104 50t40 147q0 95 -40 144.5t-104 49.5z" />
    <glyph glyph-name="ampersand" unicode="&#x26;" horiz-adv-x="691" 
d="M289 -10q-96 0 -166 56t-70 153q0 126 142 193q-56 51 -78.5 87.5t-22.5 81.5q0 68 48.5 109t125.5 41q76 0 121 -40t45 -98q0 -54 -36 -98t-144 -91l260 -242q46 80 51 221h41q-6 -155 -65 -246q51 -45 78.5 -63.5t53.5 -24.5l-14 -38q-31 8 -59 27.5t-81 69.5
q-82 -98 -230 -98zM230 407q96 41 129.5 78t33.5 87q0 44 -34.5 75t-91.5 31q-62 0 -97 -32.5t-35 -83.5q0 -39 20.5 -72t74.5 -83zM290 28q134 0 202 84l-273 257q-124 -56 -124 -170q0 -77 55 -124t140 -47z" />
    <glyph glyph-name="quotesingle" unicode="'" horiz-adv-x="230" 
d="M133 716v-240h-36v240h36z" />
    <glyph glyph-name="parenleft" unicode="(" horiz-adv-x="268" 
d="M202 780h33q-124 -245 -124 -477q0 -231 124 -476h-33q-136 240 -136 476q0 237 136 477z" />
    <glyph glyph-name="parenright" unicode=")" horiz-adv-x="268" 
d="M33 780h33q136 -240 136 -477q0 -236 -136 -476h-33q124 245 124 476q0 232 -124 477z" />
    <glyph glyph-name="asterisk" unicode="*" horiz-adv-x="459" 
d="M249 716l-6 -155l145 51l12 -38l-148 -38l98 -124l-34 -26l-86 134l-86 -135l-34 23l98 128l-150 38l12 38l146 -51l-7 155h40z" />
    <glyph glyph-name="plus" unicode="+" 
d="M321 480v-170h167v-37h-167v-170h-41v170h-168v37h168v170h41z" />
    <glyph glyph-name="comma" unicode="," horiz-adv-x="241" 
d="M121 58q14 0 23 -9.5t9 -23.5q0 -31 -18 -78.5t-47 -85.5l-22 11q37 63 41 127q-19 8 -19 28q0 13 9.5 22t23.5 9z" />
    <glyph glyph-name="hyphen" unicode="-" horiz-adv-x="360" 
d="M307 324v-37h-254v37h254z" />
    <glyph glyph-name="period" unicode="." horiz-adv-x="241" 
d="M121 59q14 0 23.5 -9.5t9.5 -22.5t-10 -23t-23 -10t-23 10t-10 23t9.5 22.5t23.5 9.5z" />
    <glyph glyph-name="slash" unicode="/" horiz-adv-x="520" 
d="M453 775l-352 -934h-34l352 934h34z" />
    <glyph glyph-name="zero" unicode="0" horiz-adv-x="594" 
d="M296 580q112 0 184.5 -81t72.5 -217q0 -135 -72.5 -213.5t-184.5 -78.5q-111 0 -183.5 78.5t-72.5 213.5q0 136 72.5 217t183.5 81zM297 544q-93 0 -153 -70.5t-60 -191.5q0 -119 60 -188t153 -69t153 68.5t60 188.5q0 121 -60 191.5t-153 70.5z" />
    <glyph glyph-name="one" unicode="1" horiz-adv-x="479" 
d="M79 0v36h168v367h-161v34h46q75 0 97.5 24t27.5 107h32v-532h157v-36h-367z" />
    <glyph glyph-name="two" unicode="2" horiz-adv-x="555" 
d="M284 579q91 0 144 -48t53 -129q0 -91 -86 -177t-264 -189h363v-36h-428v35q198 119 284.5 200.5t86.5 163.5q0 70 -41.5 107t-111.5 37q-78 0 -124.5 -46.5t-48.5 -106.5h-43q3 73 61 131t155 58z" />
    <glyph glyph-name="three" unicode="3" horiz-adv-x="555" 
d="M278 580q99 0 154 -47.5t55 -124.5q0 -67 -39 -111t-102 -49q66 -5 114 -52.5t48 -124.5q0 -99 -67 -156.5t-167 -57.5q-90 0 -154 50t-84 137l41 9q17 -74 67.5 -117t129.5 -43q82 0 136.5 46.5t54.5 132.5q0 74 -47 116t-122 42h-70v33h64q70 0 112.5 37t42.5 106
q0 64 -45.5 101.5t-122.5 37.5q-74 0 -119.5 -37.5t-61.5 -101.5l-40 7q15 71 73.5 119t148.5 48z" />
    <glyph glyph-name="four" unicode="4" horiz-adv-x="593" 
d="M442 568v-532h124v-36h-124v-130h-41v130h-359v37l348 531h52zM400 519l-315 -483h315v483z" />
    <glyph glyph-name="five" unicode="5" horiz-adv-x="588" 
d="M495 568l-6 -36h-326l-33 -254q67 83 183 83q91 0 154 -66t63 -171q0 -118 -66.5 -192.5t-175.5 -74.5q-93 0 -150 47t-77 107l39 12q18 -53 66 -91.5t125 -38.5q88 0 142.5 64.5t54.5 164.5q0 93 -51.5 148.5t-128.5 55.5q-114 0 -186 -99l-37 6l45 335h365z" />
    <glyph glyph-name="six" unicode="6" horiz-adv-x="579" 
d="M312 694q134 0 188 -131l-38 -12q-43 109 -150 109q-191 0 -212 -347q20 57 75 98t131 41q96 0 156.5 -61.5t60.5 -166.5t-63 -170t-166 -65q-104 0 -168.5 72t-64.5 198q0 210 65.5 322.5t185.5 112.5zM299 418q-79 0 -136.5 -57t-57.5 -133q0 -87 51.5 -145.5
t137.5 -58.5q84 0 135.5 55t51.5 145q0 88 -50 141t-132 53z" />
    <glyph glyph-name="seven" unicode="7" horiz-adv-x="470" 
d="M457 568v-36q-126 -160 -193 -314.5t-92 -347.5h-45q25 197 94 350.5t196 311.5h-352v-79h-37v115h429z" />
    <glyph glyph-name="eight" unicode="8" horiz-adv-x="594" 
d="M295 694q108 0 160 -50t52 -117q0 -63 -43 -101.5t-106 -57.5q91 -27 138 -71t47 -115q0 -33 -12.5 -65t-39.5 -61.5t-77.5 -48t-118.5 -18.5q-121 0 -182 58t-61 135q0 75 46.5 124t129.5 65q-143 45 -143 156q0 65 52 116t158 51zM295 661q-85 0 -127.5 -40.5
t-42.5 -93.5q0 -55 40.5 -87t126.5 -54l26 -6q147 47 147 147q0 54 -41.5 94t-128.5 40zM293 351l-22 6q-85 -13 -131 -57t-46 -117q0 -64 52 -111.5t149 -47.5q106 0 156 50t50 111q0 66 -48.5 100t-159.5 66z" />
    <glyph glyph-name="nine" unicode="9" horiz-adv-x="583" 
d="M290 580q104 0 168 -70t64 -195q0 -236 -61 -347.5t-192 -111.5q-142 0 -204 120l36 17q52 -103 169 -103q107 0 157 94t57 275q-18 -62 -73.5 -104t-133.5 -42q-96 0 -157 61.5t-61 167.5q0 107 63.5 172.5t167.5 65.5zM289 545q-84 0 -136 -55.5t-52 -147.5
q0 -88 50 -140.5t132 -52.5q84 0 139 59t55 137q0 86 -51 143t-137 57z" />
    <glyph glyph-name="colon" unicode=":" horiz-adv-x="242" 
d="M121 452q14 0 23.5 -9.5t9.5 -22.5q0 -14 -10 -23.5t-23 -9.5t-23 9.5t-10 23.5q0 13 9.5 22.5t23.5 9.5zM121 59q14 0 23.5 -9.5t9.5 -22.5t-10 -23t-23 -10t-23 10t-10 23t9.5 22.5t23.5 9.5z" />
    <glyph glyph-name="semicolon" unicode=";" horiz-adv-x="242" 
d="M121 58q14 0 23 -9.5t9 -23.5q0 -31 -18 -78.5t-47 -85.5l-22 11q37 63 41 127q-19 8 -19 28q0 13 9.5 22t23.5 9zM121 452q14 0 23.5 -9.5t9.5 -22.5q0 -14 -10 -23.5t-23 -9.5t-23 9.5t-10 23.5q0 13 9.5 22.5t23.5 9.5z" />
    <glyph glyph-name="less" unicode="&#x3c;" 
d="M484 491v-40l-342 -164l342 -164v-40l-369 180v48z" />
    <glyph glyph-name="equal" unicode="=" 
d="M488 424v-38h-376v38h376zM488 220v-37h-376v37h376z" />
    <glyph glyph-name="greater" unicode="&#x3e;" 
d="M116 491l369 -180v-48l-369 -180v40l342 164l-342 164v40z" />
    <glyph glyph-name="question" unicode="?" horiz-adv-x="519" 
d="M269 706q56 0 97.5 -17t63.5 -44t32 -55t10 -56q0 -46 -19 -81t-46 -57.5t-54 -43t-46 -49t-19 -64.5v-49h-42v56q0 37 18.5 67.5t45.5 52.5t54 44.5t45.5 53.5t18.5 68q0 57 -39 97t-119 40q-75 0 -122.5 -41t-64.5 -95l-39 12q17 60 75 110.5t150 50.5zM269 59
q14 0 23.5 -9.5t9.5 -22.5t-10 -23t-23 -10t-23 10t-10 23t9.5 22.5t23.5 9.5z" />
    <glyph glyph-name="at" unicode="@" horiz-adv-x="1031" 
d="M548 711q178 0 287 -106t109 -270q0 -71 -22.5 -139t-69.5 -115.5t-106 -47.5q-17 0 -31 3.5t-24 11t-17.5 15t-12 18.5t-8 20t-4.5 20.5t-2 17.5t-1 15v8q-24 -71 -72.5 -103t-108.5 -32q-77 0 -122.5 53.5t-45.5 139.5q0 131 70.5 212.5t167.5 81.5q48 0 88 -24t52 -81
l14 83h37l-46 -265q-4 -23 -5 -45.5t2.5 -51t21 -46.5t46.5 -18q69 0 114 83t45 188q0 149 -98 246t-258 97q-186 0 -303.5 -120.5t-117.5 -315.5q0 -178 101 -281.5t277 -103.5q89 0 200 36l11 -31q-116 -38 -213 -38q-189 0 -302.5 112.5t-113.5 304.5q0 209 129.5 338.5
t331.5 129.5zM538 478q-85 0 -141 -73.5t-56 -185.5q0 -72 35 -114.5t97 -42.5q70 0 119.5 57t64.5 182q6 53 -2.5 90t-29 55t-41.5 25t-46 7z" />
    <glyph glyph-name="A" unicode="A" 
d="M530 0l-53 155h-356l-53 -155h-45l250 700h56l248 -700h-47zM300 663l-166 -471h330z" />
    <glyph glyph-name="B" unicode="B" horiz-adv-x="628" 
d="M416 378q78 -7 122.5 -56.5t44.5 -123.5q0 -89 -63 -143.5t-181 -54.5h-246v700h216q235 0 235 -170q0 -62 -35 -101.5t-93 -50.5zM312 662h-177v-269h222q64 0 103.5 37t39.5 99q0 133 -188 133zM135 38h207q92 0 144 44t52 118t-48 115.5t-127 41.5h-228v-319z" />
    <glyph glyph-name="C" unicode="C" horiz-adv-x="702" 
d="M362 711q87 0 160.5 -45t110.5 -145l-42 -13q-63 164 -229 164q-111 0 -183 -83t-72 -238q0 -160 72.5 -241.5t181.5 -81.5q183 0 244 178l41 -14q-35 -103 -111.5 -153t-173.5 -50q-54 0 -103.5 19t-94.5 58.5t-72.5 113t-27.5 171.5q0 91 25 162t68 113t95 63.5
t111 21.5z" />
    <glyph glyph-name="D" unicode="D" horiz-adv-x="685" 
d="M93 700h186q153 0 248 -86t95 -254q0 -80 -19 -143.5t-49.5 -103.5t-72 -66t-84.5 -36.5t-90 -10.5h-214v700zM282 661h-146v-622h172q52 0 96.5 15t85.5 49.5t64.5 100t23.5 156.5q0 145 -78.5 223t-217.5 78z" />
    <glyph glyph-name="E" unicode="E" horiz-adv-x="561" 
d="M489 700v-38h-354v-286h333v-37h-333v-301h363v-38h-405v700h396z" />
    <glyph glyph-name="F" unicode="F" horiz-adv-x="528" 
d="M479 700v-38h-344v-298h321v-39h-321v-325h-42v700h386z" />
    <glyph glyph-name="G" unicode="G" horiz-adv-x="724" 
d="M361 711q196 0 269 -177l-39 -15q-64 154 -230 154q-111 0 -182.5 -86t-71.5 -241q0 -159 71.5 -239t181.5 -80q99 0 169 66t70 202v16h-209v37h252v-348h-43v149q-27 -77 -93 -118.5t-149 -41.5q-54 0 -103.5 18.5t-93.5 58t-70.5 112t-26.5 168.5q0 91 25.5 163
t68.5 115t95 65t109 22z" />
    <glyph glyph-name="H" unicode="H" horiz-adv-x="681" 
d="M588 700v-700h-42v346h-411v-346h-42v700h42v-316h411v316h42z" />
    <glyph glyph-name="I" unicode="I" horiz-adv-x="335" 
d="M296 700v-37h-108v-626h108v-37h-258v37h108v626h-108v37h258z" />
    <glyph glyph-name="J" unicode="J" horiz-adv-x="384" 
d="M305 700v-520q0 -91 -39.5 -138t-132.5 -47q-47 0 -101 8v39q39 -7 83 -7q82 0 114.5 35.5t32.5 113.5v516h43z" />
    <glyph glyph-name="K" unicode="K" horiz-adv-x="615" 
d="M536 0l-281 376l-120 -139v-237h-42v700h42v-406l350 406h52l-254 -293l303 -407h-50z" />
    <glyph glyph-name="L" unicode="L" horiz-adv-x="520" 
d="M135 700v-661h348v-39h-390v700h42z" />
    <glyph glyph-name="M" unicode="M" horiz-adv-x="803" 
d="M657 700l86 -700h-42l-82 661l-190 -661h-49l-199 661l-79 -661h-42l83 700h68l194 -651l185 651h67z" />
    <glyph glyph-name="N" unicode="N" horiz-adv-x="684" 
d="M591 700v-700h-46l-411 627v-627h-41v700h44l413 -633v633h41z" />
    <glyph glyph-name="O" unicode="O" horiz-adv-x="741" 
d="M370 711q55 0 106.5 -19.5t98 -59.5t75 -113t28.5 -170q0 -92 -26.5 -163.5t-71 -113t-98 -62.5t-112.5 -21q-54 0 -105.5 19.5t-98 59.5t-75 113t-28.5 170q0 92 26.5 163.5t71 113t97.5 62.5t112 21zM370 673q-113 0 -188 -83.5t-75 -238.5q0 -158 76.5 -241t186.5 -83
q112 0 187.5 83.5t75.5 238.5q0 158 -76 241t-187 83z" />
    <glyph glyph-name="P" unicode="P" horiz-adv-x="606" 
d="M93 700h219q126 0 186 -57.5t60 -149.5q0 -99 -61 -158.5t-182 -59.5h-180v-275h-42v700zM135 312h183q95 0 145 47t50 134q0 78 -48.5 123.5t-147.5 45.5h-182v-350z" />
    <glyph glyph-name="Q" unicode="Q" horiz-adv-x="744" 
d="M370 711q55 0 106.5 -19.5t98 -59.5t75 -113t28.5 -170q0 -211 -135 -306q54 -61 164 -89l-18 -43q-120 35 -179 112q-64 -34 -140 -34q-54 0 -105.5 19.5t-98 59.5t-75 113t-28.5 170q0 92 26.5 163.5t71 113t97.5 62.5t112 21zM370 672q-113 0 -188 -83t-75 -238
q0 -158 76.5 -240.5t186.5 -82.5q112 0 187.5 83t75.5 238q0 158 -76 240.5t-187 82.5z" />
    <glyph glyph-name="R" unicode="R" horiz-adv-x="604" 
d="M93 700h208q123 0 184 -53t61 -141q0 -76 -45 -130t-136 -62l203 -314h-50l-198 309h-184v-309h-43v700zM307 662h-171v-317h188q87 0 133 44t46 116q0 75 -49.5 116t-146.5 41z" />
    <glyph glyph-name="S" unicode="S" horiz-adv-x="614" 
d="M306 -11q-80 0 -154.5 28t-119.5 86l32 27q40 -51 104.5 -77t139.5 -26q98 0 154 43.5t56 113.5q0 69 -47 108.5t-171 58.5q-117 19 -174 61.5t-57 121.5t63.5 128t171.5 49q166 0 254 -118l-34 -25q-74 105 -220 105q-90 0 -141 -38t-51 -101t48 -95.5t167 -52.5
q125 -21 180 -69t55 -131q0 -88 -65.5 -142.5t-190.5 -54.5z" />
    <glyph glyph-name="T" unicode="T" horiz-adv-x="574" 
d="M538 700v-38h-229v-662h-43v662h-229v38h501z" />
    <glyph glyph-name="U" unicode="U" horiz-adv-x="653" 
d="M574 700v-457q0 -49 -13.5 -92.5t-41.5 -80.5t-77.5 -59t-115.5 -22q-67 0 -116.5 22t-76.5 59.5t-39.5 80.5t-12.5 92v457h42v-455q0 -98 50.5 -158t153.5 -60q102 0 153.5 61t51.5 157v455h42z" />
    <glyph glyph-name="V" unicode="V" horiz-adv-x="551" 
d="M528 700l-221 -700h-56l-228 700h47l210 -660l205 660h43z" />
    <glyph glyph-name="W" unicode="W" horiz-adv-x="822" 
d="M794 700l-168 -700h-51l-161 644l-153 -644h-52l-181 700h45l162 -655l155 655h48l162 -654l152 654h42z" />
    <glyph glyph-name="X" unicode="X" horiz-adv-x="595" 
d="M322 379l250 -379h-51l-226 345l-222 -345h-50l246 376l-213 324h50l190 -291l189 291h49z" />
    <glyph glyph-name="Y" unicode="Y" horiz-adv-x="586" 
d="M560 700l-242 -409v-291h-44v291l-248 409h48l223 -370l216 370h47z" />
    <glyph glyph-name="Z" unicode="Z" horiz-adv-x="593" 
d="M537 700v-36l-442 -625h450v-39h-505v34l443 628h-412v38h466z" />
    <glyph glyph-name="bracketleft" unicode="[" horiz-adv-x="300" 
d="M249 790v-34h-138v-891h138v-35h-180v960h180z" />
    <glyph glyph-name="backslash" unicode="\" horiz-adv-x="520" 
d="M100 775l353 -934h-34l-352 934h33z" />
    <glyph glyph-name="bracketright" unicode="]" horiz-adv-x="300" 
d="M51 756v34h180v-960h-180v35h138v891h-138z" />
    <glyph glyph-name="asciicircum" unicode="^" 
d="M320 711l185 -370h-45l-163 333l-161 -333h-44l184 370h44z" />
    <glyph glyph-name="underscore" unicode="_" horiz-adv-x="524" 
d="M526 -65v-38h-528v38h528z" />
    <glyph glyph-name="grave" unicode="`" horiz-adv-x="215" 
d="M86 723l99 -130h-36l-119 130h56z" />
    <glyph glyph-name="a" unicode="a" horiz-adv-x="543" 
d="M272 527q107 0 147.5 -43.5t40.5 -130.5v-198q0 -107 16 -155h-44q-13 47 -13 89q-22 -41 -72 -70t-125 -29q-83 0 -126 40.5t-43 105.5q0 73 52 115.5t163 56.5l150 19v23q0 76 -29.5 110t-117.5 34q-152 0 -157 -127h-41q2 73 52 116.5t147 43.5zM418 294l-137 -18
q-97 -13 -140.5 -45.5t-43.5 -91.5q0 -51 32.5 -82t100.5 -31q83 0 135.5 44t52.5 107v117z" />
    <glyph glyph-name="b" unicode="b" horiz-adv-x="599" 
d="M130 700v-300q20 53 68.5 90t119.5 37q105 0 163.5 -72.5t58.5 -193.5q0 -119 -60.5 -195t-163.5 -76q-73 0 -120.5 34.5t-65.5 84.5v-109h-42v700h42zM312 491q-82 0 -133 -63.5t-51 -173.5q0 -112 50.5 -170t131.5 -58q86 0 136.5 64t50.5 170q0 107 -47.5 169
t-137.5 62z" />
    <glyph glyph-name="c" unicode="c" horiz-adv-x="551" 
d="M296 527q70 0 123.5 -33t78.5 -89l-37 -15q-22 47 -64 74t-98 27q-91 0 -144 -64.5t-53 -169.5q0 -101 51.5 -166t141.5 -65q126 0 175 124l38 -16q-60 -144 -215 -144q-110 0 -172.5 76t-62.5 191q0 119 64.5 194.5t173.5 75.5z" />
    <glyph glyph-name="d" unicode="d" horiz-adv-x="598" 
d="M510 700v-700h-42v118q-22 -53 -70 -90.5t-120 -37.5q-105 0 -162.5 73t-57.5 192q0 120 59.5 196t164.5 76q70 0 118.5 -33t67.5 -84v290h42zM286 491q-88 0 -136 -64.5t-48 -170.5t46 -168t136 -62q82 0 134 63.5t52 173.5q0 112 -50 170t-134 58z" />
    <glyph glyph-name="e" unicode="e" horiz-adv-x="569" 
d="M290 527q106 0 165.5 -76t59.5 -187v-11h-414q1 -102 53.5 -165t145.5 -63q109 0 173 92l33 -20q-75 -108 -207 -108q-113 0 -177 78t-64 195q0 113 61 189t171 76zM289 492q-86 0 -135 -58.5t-52 -146.5h370q-2 89 -50 147t-133 58z" />
    <glyph glyph-name="f" unicode="f" horiz-adv-x="313" 
d="M245 710q50 0 99 -20v-34q-48 19 -94 19q-58 0 -81 -27t-23 -77v-52h172v-33h-172v-486h-42v486h-77v33h77v53q0 138 141 138z" />
    <glyph glyph-name="g" unicode="g" horiz-adv-x="556" 
d="M526 551v-37q-65 0 -101 -42q45 -44 45 -111q0 -75 -54 -117.5t-147 -42.5q-72 0 -123 29q-38 -28 -38 -59q0 -28 21 -44.5t59 -16.5h120q205 0 205 -136q0 -69 -63.5 -108.5t-171.5 -39.5q-230 0 -230 138q0 36 24 68t71 51q-72 16 -72 80q0 44 53 81q-58 46 -58 117
q0 69 53.5 117.5t147.5 48.5q80 0 134 -36q43 60 125 60zM267 495q-75 0 -117.5 -38t-42.5 -95q0 -62 45 -96t115 -34q76 0 119 34t43 96q0 59 -41 96t-121 37zM296 75h-113q-96 -35 -96 -108q0 -109 191 -109q90 0 142 30.5t52 84.5q0 51 -40.5 76.5t-135.5 25.5z" />
    <glyph glyph-name="h" unicode="h" horiz-adv-x="568" 
d="M130 700v-293q20 52 67.5 86t112.5 34q87 0 131.5 -50.5t44.5 -145.5v-331h-42v321q0 170 -142 170q-72 0 -122 -54.5t-50 -155.5v-281h-42v700h42z" />
    <glyph glyph-name="i" unicode="i" horiz-adv-x="218" 
d="M130 519v-519h-42v519h42zM109 708q12 0 20.5 -8.5t8.5 -20.5q0 -13 -8.5 -21.5t-20.5 -8.5t-21 8.5t-9 21.5q0 12 9 20.5t21 8.5z" />
    <glyph glyph-name="j" unicode="j" horiz-adv-x="218" 
d="M130 519v-551q0 -72 -39 -106t-96 -34q-19 0 -45 4v34q20 -2 31 -2q52 0 79.5 26t27.5 92v537h42zM109 708q12 0 20.5 -8.5t8.5 -20.5q0 -13 -8.5 -21.5t-20.5 -8.5t-21 8.5t-9 21.5q0 12 9 20.5t21 8.5z" />
    <glyph glyph-name="k" unicode="k" horiz-adv-x="519" 
d="M130 700v-475l294 294h53l-205 -203l223 -316h-49l-203 287l-113 -111v-176h-42v700h42z" />
    <glyph glyph-name="l" unicode="l" horiz-adv-x="269" 
d="M125 700v-578q0 -50 14.5 -70.5t54.5 -20.5q8 0 20.5 1.5t18.5 1.5v-34q-30 -5 -53 -5q-97 0 -97 120v585h42z" />
    <glyph glyph-name="m" unicode="m" horiz-adv-x="890" 
d="M639 527q168 0 168 -196v-331h-42v309q0 92 -31.5 137t-103.5 45q-70 0 -115.5 -54.5t-45.5 -157.5v-279h-42v294q0 100 -31.5 148.5t-103.5 48.5q-68 0 -115 -55t-47 -157v-279h-42v519h42v-108q19 53 66 84.5t104 31.5q69 0 109 -37t49 -97q20 67 68 100.5t113 33.5z
" />
    <glyph glyph-name="n" unicode="n" horiz-adv-x="568" 
d="M310 527q87 0 131.5 -50.5t44.5 -145.5v-331h-42v317q0 174 -142 174q-72 0 -122 -54.5t-50 -155.5v-281h-42v519h42v-112q21 57 69.5 88.5t110.5 31.5z" />
    <glyph glyph-name="o" unicode="o" horiz-adv-x="595" 
d="M297 527q109 0 174.5 -77.5t65.5 -191.5q0 -119 -63 -193.5t-177 -74.5q-111 0 -175 76t-64 192q0 117 64.5 193t174.5 76zM298 491q-91 0 -143.5 -64t-52.5 -168t52 -168.5t144 -64.5q93 0 144.5 63.5t51.5 169.5q0 101 -53 166.5t-143 65.5z" />
    <glyph glyph-name="p" unicode="p" horiz-adv-x="597" 
d="M319 527q104 0 162 -73t58 -191q0 -120 -59.5 -196.5t-163.5 -76.5q-70 0 -118 33t-68 86v-269h-42v679h42v-118q20 52 69.5 89t119.5 37zM312 491q-82 0 -133 -63t-51 -172q0 -114 50 -172t131 -58q87 0 137 64t50 173q0 105 -47 166.5t-137 61.5z" />
    <glyph glyph-name="q" unicode="q" horiz-adv-x="598" 
d="M282 527q70 0 118.5 -32.5t67.5 -84.5v109h42v-679h-42v279q-22 -53 -70 -91t-120 -38q-105 0 -162.5 73t-57.5 192q0 120 59 196t165 76zM286 491q-88 0 -136 -64.5t-48 -170.5t46 -168t136 -62q82 0 134 63.5t52 173.5q0 112 -50 170t-134 58z" />
    <glyph glyph-name="r" unicode="r" horiz-adv-x="368" 
d="M303 527q20 0 38 -3v-44q-22 3 -36 3q-74 0 -124.5 -56t-50.5 -179v-248h-42v519h42v-126q20 67 67 100.5t106 33.5z" />
    <glyph glyph-name="s" unicode="s" horiz-adv-x="514" 
d="M252 527q121 0 195 -66l-27 -25q-64 56 -168 56q-69 0 -107.5 -26.5t-38.5 -69.5q0 -45 36 -68t126 -37q105 -17 151.5 -49.5t46.5 -102.5q0 -64 -56 -106.5t-156 -42.5q-142 0 -224 84l28 27q72 -75 195 -75q82 0 126 31.5t44 80.5q0 53 -38.5 78t-137.5 40
q-97 15 -140 48t-43 91q0 59 51 95.5t137 36.5z" />
    <glyph glyph-name="t" unicode="t" horiz-adv-x="357" 
d="M146 660v-141h170v-33h-170v-348q0 -54 22.5 -83t78.5 -29q46 0 90 14v-34q-48 -16 -97 -16q-75 0 -105.5 37.5t-30.5 104.5v354h-77v33h77v141h42z" />
    <glyph glyph-name="u" unicode="u" horiz-adv-x="566" 
d="M478 519v-519h-42v107q-23 -53 -69.5 -84.5t-110.5 -31.5q-85 0 -129 48t-44 140v340h42v-331q0 -81 33.5 -120.5t106.5 -39.5t122 52.5t49 153.5v285h42z" />
    <glyph glyph-name="v" unicode="v" horiz-adv-x="491" 
d="M464 519l-194 -519h-50l-194 519h46l173 -475l175 475h44z" />
    <glyph glyph-name="w" unicode="w" horiz-adv-x="768" 
d="M736 519l-159 -519h-50l-143 464l-140 -464h-50l-163 519h46l142 -472l139 472h50l145 -470l139 470h44z" />
    <glyph glyph-name="x" unicode="x" horiz-adv-x="481" 
d="M431 519l-164 -238l191 -281h-49l-169 250l-169 -250h-48l191 279l-164 240h49l142 -208l142 208h48z" />
    <glyph glyph-name="y" unicode="y" horiz-adv-x="483" 
d="M457 519l-182 -533q-26 -77 -61.5 -118.5t-101.5 -41.5q-28 0 -53 5v34q24 -3 46 -3q55 0 82 34t49 104h-13l-197 519h46l179 -485l161 485h45z" />
    <glyph glyph-name="z" unicode="z" horiz-adv-x="465" 
d="M423 519v-34l-335 -449h337v-36h-390v33l336 450h-305v36h357z" />
    <glyph glyph-name="braceleft" unicode="{" horiz-adv-x="300" 
d="M257 790v-35h-9q-84 0 -84 -87v-269q0 -40 -22 -64t-47 -26q25 -2 47 -26t22 -65v-266q0 -87 84 -87h9v-35h-17q-55 0 -86.5 30t-31.5 84v268q0 79 -69 84v26q69 5 69 83v271q0 54 31.5 84t86.5 30h17z" />
    <glyph glyph-name="bar" unicode="|" horiz-adv-x="300" 
d="M166 774v-934h-32v934h32z" />
    <glyph glyph-name="braceright" unicode="}" horiz-adv-x="300" 
d="M43 755v35h17q55 0 86.5 -30t31.5 -84v-271q0 -78 69 -83v-26q-69 -5 -69 -84v-268q0 -54 -31.5 -84t-86.5 -30h-17v35h9q84 0 84 87v266q0 41 22 65t47 26q-25 2 -47 26t-22 64v269q0 87 -84 87h-9z" />
    <glyph glyph-name="asciitilde" unicode="~" 
d="M222 359q39 0 86.5 -29t72.5 -29q53 0 90 55l24 -21q-45 -71 -117 -71q-39 0 -86.5 29.5t-72.5 29.5q-52 0 -90 -55l-24 21q45 70 117 70z" />
    <glyph glyph-name="uni00A0" unicode="&#xa0;" horiz-adv-x="268" 
 />
    <glyph glyph-name="exclamdown" unicode="&#xa1;" horiz-adv-x="256" 
d="M128 525q14 0 23.5 -9.5t9.5 -23.5t-9.5 -23.5t-23.5 -9.5t-23.5 9.5t-9.5 22.5q0 14 9.5 24t23.5 10zM143 335l8 -256v-239h-46v239l8 256h30z" />
    <glyph glyph-name="cent" unicode="&#xa2;" 
d="M489 147l35 -13q-56 -135 -202 -143v-140h-31v139q-103 5 -159.5 80t-56.5 187q0 115 57 189t159 80v142h31v-141q66 -4 117 -37t75 -85l-34 -14q-20 45 -61.5 72t-97.5 31v-471q120 8 168 124zM115 257q0 -100 46 -164.5t132 -69.5v471q-85 -6 -131.5 -70t-46.5 -167z
" />
    <glyph glyph-name="sterling" unicode="&#xa3;" horiz-adv-x="660" 
d="M381 711q73 0 119.5 -38.5t64.5 -98.5l-40 -11q-34 114 -146 114q-71 0 -113.5 -44t-42.5 -112v-168h252v-30h-252v-167q0 -47 -10.5 -73.5t-41.5 -45.5h390v-37h-439l-5 33q41 19 53.5 45.5t12.5 77.5v167h-84v30h84v170q0 79 51.5 133.5t146.5 54.5z" />
    <glyph glyph-name="currency" unicode="&#xa4;" horiz-adv-x="620" 
d="M75 550l100 -102q56 45 134 45q80 0 136 -45l99 101l26 -26l-100 -100q47 -55 47 -139q0 -85 -47 -140l100 -101l-26 -25l-100 100q-55 -44 -134 -44q-80 0 -135 44l-100 -101l-25 25l100 102q-47 57 -47 140t47 138l-101 102zM309 458q-76 0 -121 -46.5t-45 -127.5
q0 -82 45 -129t122 -47t122 47t45 129q0 81 -45.5 127.5t-122.5 46.5z" />
    <glyph glyph-name="yen" unicode="&#xa5;" horiz-adv-x="593" 
d="M564 700l-228 -379h156v-26h-170v-122h170v-26h-170v-147h-43v147h-171v26h171v122h-171v26h156l-234 379h48l224 -366l215 366h47z" />
    <glyph glyph-name="brokenbar" unicode="&#xa6;" horiz-adv-x="300" 
d="M166 774v-369h-32v369h32zM166 209v-369h-32v369h32z" />
    <glyph glyph-name="section" unicode="&#xa7;" 
d="M304 708q111 0 188 -65l-25 -27q-69 57 -161 57q-70 0 -109.5 -28.5t-39.5 -73.5t34.5 -69.5t122.5 -37.5q103 -16 154.5 -52.5t51.5 -102.5q0 -39 -25 -71.5t-75 -67.5q66 -35 66 -105q0 -62 -51.5 -100.5t-138.5 -38.5q-122 0 -202 73l26 25q70 -62 176 -62
q69 0 108.5 28t39.5 73q0 46 -34 69.5t-123 37.5q-103 17 -155 53t-52 102q0 41 24.5 73.5t76.5 65.5q-66 38 -66 105q0 62 51 100.5t138 38.5zM210 450q-47 -32 -67.5 -59t-20.5 -63q0 -51 44 -80t142 -45q51 -9 83 -20q46 35 67 62t21 62q0 50 -44.5 79.5t-141.5 45.5
q-52 9 -83 18z" />
    <glyph glyph-name="dieresis" unicode="&#xa8;" horiz-adv-x="331" 
d="M58 687q12 0 20.5 -8.5t8.5 -20.5t-8.5 -20t-20.5 -8q-11 0 -19.5 8t-8.5 20t8.5 20.5t19.5 8.5zM272 687q12 0 20.5 -8.5t8.5 -20.5t-8.5 -20t-20.5 -8q-11 0 -19.5 8t-8.5 20t8.5 20.5t19.5 8.5z" />
    <glyph glyph-name="copyright" unicode="&#xa9;" horiz-adv-x="900" 
d="M451 711q151 0 255.5 -105t104.5 -257t-104.5 -256t-255.5 -104t-256.5 104t-105.5 256t105.5 257t256.5 105zM451 686q-140 0 -238 -98t-98 -239t97.5 -238t238.5 -97q140 0 236.5 97t96.5 238t-96.5 239t-236.5 98zM451 568q120 0 161 -114l-28 -8q-34 97 -133 97
q-72 0 -114 -50t-42 -144q0 -85 40.5 -138.5t114.5 -53.5q101 0 140 100l27 -10q-19 -49 -61 -82.5t-108 -33.5q-87 0 -135.5 61.5t-48.5 156.5q0 109 54.5 164t132.5 55z" />
    <glyph glyph-name="ordfeminine" unicode="&#xaa;" horiz-adv-x="413" 
d="M207 711q81 0 112.5 -32.5t31.5 -97.5v-154q0 -76 12 -112h-40q-6 17 -11 53q-50 -61 -144 -61q-62 0 -94.5 30.5t-32.5 80.5q0 109 161 129l109 14v17q0 55 -21 79t-83 24q-110 0 -113 -90h-38q2 55 40 87.5t111 32.5zM312 531l-98 -13q-70 -9 -101 -32t-31 -65
q0 -37 23 -59t72 -22q60 0 97.5 31.5t37.5 77.5v82z" />
    <glyph glyph-name="guillemotleft" unicode="&#xab;" horiz-adv-x="465" 
d="M196 467l22 -15l-103 -171l103 -178l-22 -15l-120 171v43zM366 467l22 -15l-103 -171l103 -178l-22 -15l-120 171v43z" />
    <glyph glyph-name="logicalnot" unicode="&#xac;" 
d="M488 310v-218h-41v181h-335v37h376z" />
    <glyph glyph-name="uni00AD" unicode="&#xad;" horiz-adv-x="360" 
d="M307 324v-37h-254v37h254z" />
    <glyph glyph-name="registered" unicode="&#xae;" horiz-adv-x="900" 
d="M451 711q151 0 255.5 -105t104.5 -257t-104.5 -256t-255.5 -104t-256.5 104t-105.5 256t105.5 257t256.5 105zM451 686q-140 0 -238 -98t-98 -239t97.5 -238t238.5 -97q140 0 236.5 97t96.5 238t-96.5 239t-236.5 98zM324 568h136q71 0 109 -32t38 -89q0 -47 -30 -79.5
t-83 -36.5l121 -187h-32l-119 184h-112v-184h-28v424zM460 544h-108v-193h118q51 0 78.5 27t27.5 70q0 45 -30.5 70.5t-85.5 25.5z" />
    <glyph glyph-name="macron" unicode="&#xaf;" horiz-adv-x="350" 
d="M320 674v-33h-290v33h290z" />
    <glyph glyph-name="degree" unicode="&#xb0;" horiz-adv-x="496" 
d="M249 706q70 0 120.5 -46.5t50.5 -124.5t-50.5 -123.5t-120.5 -45.5q-71 0 -122 46t-51 124t51 124t122 46zM249 675q-55 0 -94.5 -36.5t-39.5 -102.5q0 -65 39.5 -102t94.5 -37q54 0 93.5 37t39.5 101q0 66 -39 103t-94 37z" />
    <glyph glyph-name="plusminus" unicode="&#xb1;" 
d="M323 480v-170h167v-37h-167v-151h-41v151h-168v37h168v170h41zM486 63v-37h-376v37h376z" />
    <glyph glyph-name="twosuperior" unicode="&#xb2;" horiz-adv-x="400" 
d="M201 758q65 0 102 -32.5t37 -87.5q0 -65 -62 -135.5t-172 -138.5h243v-34h-298v32q121 82 183 149t62 125q0 43 -25 65.5t-71 22.5q-49 0 -75.5 -26t-28.5 -67h-42q1 52 39.5 89.5t107.5 37.5z" />
    <glyph glyph-name="threesuperior" unicode="&#xb3;" horiz-adv-x="400" 
d="M203 758q67 0 104 -30t37 -79q0 -38 -25 -63t-67 -30q44 -3 74.5 -31t30.5 -73q0 -59 -44.5 -93.5t-112.5 -34.5q-62 0 -103.5 29t-54.5 79l39 9q10 -37 41 -60t79 -23q49 0 81.5 25t32.5 70q0 40 -28.5 63t-74.5 23h-48v31h44q42 0 68 19.5t26 56.5q0 38 -27 58.5
t-72 20.5q-44 0 -72.5 -20.5t-37.5 -56.5l-38 5q10 45 49 75t99 30z" />
    <glyph glyph-name="acute" unicode="&#xb4;" horiz-adv-x="215" 
d="M185 723l-118 -130h-37l101 130h54z" />
    <glyph glyph-name="mu" unicode="&#xb5;" horiz-adv-x="571" 
d="M483 519v-519h-42v148q-12 -78 -57.5 -118t-110.5 -40q-122 0 -143 110v-260h-42v679h42v-331q0 -160 143 -160q71 0 119.5 52.5t48.5 153.5v285h42z" />
    <glyph glyph-name="paragraph" unicode="&#xb6;" horiz-adv-x="612" 
d="M510 700v-860h-25v837h-178v-837h-26v494q-83 2 -136.5 56t-53.5 125q0 79 52.5 132t144.5 53h222z" />
    <glyph glyph-name="periodcentered" unicode="&#xb7;" horiz-adv-x="241" 
d="M121 326q14 0 23.5 -9.5t9.5 -22.5q0 -14 -10 -23.5t-23 -9.5t-23 9.5t-10 23.5q0 13 9.5 22.5t23.5 9.5z" />
    <glyph glyph-name="cedilla" unicode="&#xb8;" horiz-adv-x="273" 
d="M136 -1l-2 -56q53 -2 81.5 -23t28.5 -56q0 -39 -31 -62.5t-85 -23.5q-57 0 -98 25l15 25q32 -21 81 -21q82 0 82 57q0 31 -26.5 43.5t-81.5 13.5l10 78h26z" />
    <glyph glyph-name="onesuperior" unicode="&#xb9;" horiz-adv-x="400" 
d="M87 330v34h110v279h-106v29h27q51 0 67.5 15.5t20.5 62.5h32v-386h100v-34h-251z" />
    <glyph glyph-name="ordmasculine" unicode="&#xba;" horiz-adv-x="453" 
d="M227 711q83 0 132.5 -58t49.5 -145q0 -89 -48 -145t-134 -56q-84 0 -133 57t-49 144q0 89 49 146t133 57zM227 678q-65 0 -103 -46.5t-38 -122.5t37 -122.5t104 -46.5t104 46t37 123q0 75 -38 122t-103 47z" />
    <glyph glyph-name="guillemotright" unicode="&#xbb;" horiz-adv-x="465" 
d="M264 467l121 -165v-43l-121 -171l-21 15l103 178l-103 171zM100 467l121 -165v-43l-121 -171l-21 15l103 178l-103 171z" />
    <glyph glyph-name="onequarter" unicode="&#xbc;" horiz-adv-x="882" 
d="M720 712l-433 -724h-36l433 724h36zM782 420v-285h75v-34h-75v-101h-40v101h-235v35l223 284h52zM742 378l-194 -243h194v243zM87 280v34h110v279h-106v29h27q51 0 67.5 15.5t20.5 62.5h32v-386h100v-34h-251z" />
    <glyph glyph-name="onehalf" unicode="&#xbd;" horiz-adv-x="932" 
d="M720 712l-433 -724h-36l433 724h36zM733 428q65 0 102 -32.5t37 -87.5q0 -65 -62 -135.5t-172 -138.5h243v-34h-298v32q121 82 183 149t62 125q0 43 -25 65.5t-71 22.5q-49 0 -75.5 -26t-28.5 -67h-42q1 52 39.5 89.5t107.5 37.5zM87 280v34h110v279h-106v29h27
q51 0 67.5 15.5t20.5 62.5h32v-386h100v-34h-251z" />
    <glyph glyph-name="threequarters" unicode="&#xbe;" horiz-adv-x="842" 
d="M680 712l-433 -724h-36l433 724h36zM742 420v-285h75v-34h-75v-101h-40v101h-235v35l223 284h52zM702 378l-194 -243h194v243zM203 708q67 0 104 -30t37 -79q0 -38 -25 -63t-67 -30q44 -3 74.5 -31t30.5 -73q0 -59 -44.5 -93.5t-112.5 -34.5q-62 0 -103.5 29t-54.5 79
l39 9q10 -37 41 -60t79 -23q49 0 81.5 25t32.5 70q0 40 -28.5 63t-74.5 23h-48v31h44q42 0 68 19.5t26 56.5q0 38 -27 58.5t-72 20.5q-44 0 -72.5 -20.5t-37.5 -56.5l-38 5q10 45 49 75t99 30z" />
    <glyph glyph-name="questiondown" unicode="&#xbf;" horiz-adv-x="519" 
d="M252 526q14 0 23.5 -9.5t9.5 -22.5q0 -14 -9.5 -23.5t-23.5 -9.5t-23.5 9.5t-9.5 23.5q0 13 9.5 22.5t23.5 9.5zM273 337v-52q0 -37 -18.5 -67.5t-45.5 -52.5t-54 -44.5t-45.5 -53.5t-18.5 -68q0 -57 39 -96.5t119 -39.5q75 0 122.5 41t64.5 95l39 -12
q-17 -60 -75 -110.5t-150 -50.5q-56 0 -97.5 16.5t-63.5 43.5t-32 55t-10 56q0 46 19 81t46 57.5t54 43.5t46 49.5t19 64.5v44h42z" />
    <glyph glyph-name="Agrave" unicode="&#xc0;" 
d="M530 0l-53 155h-356l-53 -155h-45l250 700h56l248 -700h-47zM300 663l-166 -471h330zM229 881l100 -128h-36l-121 128h57z" />
    <glyph glyph-name="Aacute" unicode="&#xc1;" 
d="M530 0l-53 155h-356l-53 -155h-45l250 700h56l248 -700h-47zM300 663l-166 -471h330zM432 881l-120 -128h-37l101 128h56z" />
    <glyph glyph-name="Acircumflex" unicode="&#xc2;" 
d="M530 0l-53 155h-356l-53 -155h-45l250 700h56l248 -700h-47zM300 663l-166 -471h330zM322 889l130 -122h-41l-110 95l-111 -95h-40l130 122h42z" />
    <glyph glyph-name="Atilde" unicode="&#xc3;" 
d="M530 0l-53 155h-356l-53 -155h-45l250 700h56l248 -700h-47zM300 663l-166 -471h330zM239 861q36 0 68.5 -27t56.5 -27q21 0 34.5 11.5t24.5 36.5h29q-9 -36 -32.5 -57.5t-57.5 -21.5q-37 0 -69.5 27.5t-56.5 27.5q-21 0 -34.5 -12.5t-24.5 -38.5h-29q20 81 91 81z" />
    <glyph glyph-name="Adieresis" unicode="&#xc4;" 
d="M530 0l-53 155h-356l-53 -155h-45l250 700h56l248 -700h-47zM300 663l-166 -471h330zM194 847q12 0 20.5 -8.5t8.5 -20.5t-8.5 -20t-20.5 -8q-11 0 -19.5 8t-8.5 20t8.5 20.5t19.5 8.5zM408 847q12 0 20.5 -8.5t8.5 -20.5t-8.5 -20t-20.5 -8q-11 0 -19.5 8t-8.5 20
t8.5 20.5t19.5 8.5z" />
    <glyph glyph-name="Aring" unicode="&#xc5;" 
d="M530 0l-53 155h-356l-53 -155h-45l250 700h56l248 -700h-47zM300 663l-166 -471h330zM301 953q46 0 80.5 -32t34.5 -80q0 -47 -34 -78t-81 -31t-81.5 31t-34.5 78q0 48 34.5 80t81.5 32zM300 926q-35 0 -59.5 -24t-24.5 -61q0 -36 24.5 -59t59.5 -23t59.5 23t24.5 59
q0 37 -24.5 61t-59.5 24z" />
    <glyph glyph-name="AE" unicode="&#xc6;" horiz-adv-x="956" 
d="M857 700v-38h-395l43 -286h340v-37h-334l46 -300h355v-39h-395l-22 153h-351l-85 -153h-46l388 700h456zM421 660l-259 -469h327z" />
    <glyph glyph-name="Ccedilla" unicode="&#xc7;" horiz-adv-x="702" 
d="M362 711q87 0 160.5 -45t110.5 -145l-42 -13q-63 164 -229 164q-111 0 -183 -83t-72 -238q0 -160 72.5 -241.5t181.5 -81.5q183 0 244 178l41 -14q-34 -100 -108 -150.5t-168 -52.5l-1 -46q53 -2 81.5 -23t28.5 -56q0 -39 -31 -62.5t-85 -23.5q-57 0 -98 25l15 25
q32 -21 81 -21q82 0 82 57q0 31 -26.5 43.5t-81.5 13.5l9 69q-52 3 -99 23t-89.5 60.5t-67.5 112t-25 165.5q0 91 25 162t68 113t95 63.5t111 21.5z" />
    <glyph glyph-name="Egrave" unicode="&#xc8;" horiz-adv-x="561" 
d="M489 700v-38h-354v-286h333v-37h-333v-301h363v-38h-405v700h396zM228 881l100 -128h-36l-121 128h57z" />
    <glyph glyph-name="Eacute" unicode="&#xc9;" horiz-adv-x="561" 
d="M489 700v-38h-354v-286h333v-37h-333v-301h363v-38h-405v700h396zM431 881l-120 -128h-37l101 128h56z" />
    <glyph glyph-name="Ecircumflex" unicode="&#xca;" horiz-adv-x="561" 
d="M489 700v-38h-354v-286h333v-37h-333v-301h363v-38h-405v700h396zM321 889l130 -122h-41l-110 95l-111 -95h-40l130 122h42z" />
    <glyph glyph-name="Edieresis" unicode="&#xcb;" horiz-adv-x="561" 
d="M489 700v-38h-354v-286h333v-37h-333v-301h363v-38h-405v700h396zM193 847q12 0 20.5 -8.5t8.5 -20.5t-8.5 -20t-20.5 -8q-11 0 -19.5 8t-8.5 20t8.5 20.5t19.5 8.5zM407 847q12 0 20.5 -8.5t8.5 -20.5t-8.5 -20t-20.5 -8q-11 0 -19.5 8t-8.5 20t8.5 20.5t19.5 8.5z" />
    <glyph glyph-name="Igrave" unicode="&#xcc;" horiz-adv-x="335" 
d="M296 700v-37h-108v-626h108v-37h-258v37h108v626h-108v37h258zM95 881l100 -128h-36l-121 128h57z" />
    <glyph glyph-name="Iacute" unicode="&#xcd;" horiz-adv-x="335" 
d="M296 700v-37h-108v-626h108v-37h-258v37h108v626h-108v37h258zM298 881l-120 -128h-37l101 128h56z" />
    <glyph glyph-name="Icircumflex" unicode="&#xce;" horiz-adv-x="335" 
d="M296 700v-37h-108v-626h108v-37h-258v37h108v626h-108v37h258zM188 889l130 -122h-41l-110 95l-111 -95h-40l130 122h42z" />
    <glyph glyph-name="Idieresis" unicode="&#xcf;" horiz-adv-x="335" 
d="M296 700v-37h-108v-626h108v-37h-258v37h108v626h-108v37h258zM60 847q12 0 20.5 -8.5t8.5 -20.5t-8.5 -20t-20.5 -8q-11 0 -19.5 8t-8.5 20t8.5 20.5t19.5 8.5zM274 847q12 0 20.5 -8.5t8.5 -20.5t-8.5 -20t-20.5 -8q-11 0 -19.5 8t-8.5 20t8.5 20.5t19.5 8.5z" />
    <glyph glyph-name="Eth" unicode="&#xd0;" horiz-adv-x="713" 
d="M121 700h186q153 0 248 -86t95 -254q0 -80 -19 -143.5t-49.5 -103.5t-72 -66t-84.5 -36.5t-90 -10.5h-214v351h-92v30h92v319zM164 39h172q52 0 96.5 15t85.5 49.5t64.5 100t23.5 156.5q0 145 -78.5 223t-217.5 78h-146v-280h222v-30h-222v-312z" />
    <glyph glyph-name="Ntilde" unicode="&#xd1;" horiz-adv-x="684" 
d="M591 700v-700h-46l-411 627v-627h-41v700h44l413 -633v633h41zM280 861q36 0 68.5 -27t56.5 -27q21 0 34.5 11.5t24.5 36.5h29q-9 -36 -32.5 -57.5t-57.5 -21.5q-37 0 -69.5 27.5t-56.5 27.5q-21 0 -34.5 -12.5t-24.5 -38.5h-29q20 81 91 81z" />
    <glyph glyph-name="Ograve" unicode="&#xd2;" horiz-adv-x="741" 
d="M370 711q55 0 106.5 -19.5t98 -59.5t75 -113t28.5 -170q0 -92 -26.5 -163.5t-71 -113t-98 -62.5t-112.5 -21q-54 0 -105.5 19.5t-98 59.5t-75 113t-28.5 170q0 92 26.5 163.5t71 113t97.5 62.5t112 21zM370 673q-113 0 -188 -83.5t-75 -238.5q0 -158 76.5 -241t186.5 -83
q112 0 187.5 83.5t75.5 238.5q0 158 -76 241t-187 83zM298 881l100 -128h-36l-121 128h57z" />
    <glyph glyph-name="Oacute" unicode="&#xd3;" horiz-adv-x="741" 
d="M370 711q55 0 106.5 -19.5t98 -59.5t75 -113t28.5 -170q0 -92 -26.5 -163.5t-71 -113t-98 -62.5t-112.5 -21q-54 0 -105.5 19.5t-98 59.5t-75 113t-28.5 170q0 92 26.5 163.5t71 113t97.5 62.5t112 21zM370 673q-113 0 -188 -83.5t-75 -238.5q0 -158 76.5 -241t186.5 -83
q112 0 187.5 83.5t75.5 238.5q0 158 -76 241t-187 83zM501 881l-120 -128h-37l101 128h56z" />
    <glyph glyph-name="Ocircumflex" unicode="&#xd4;" horiz-adv-x="741" 
d="M370 711q55 0 106.5 -19.5t98 -59.5t75 -113t28.5 -170q0 -92 -26.5 -163.5t-71 -113t-98 -62.5t-112.5 -21q-54 0 -105.5 19.5t-98 59.5t-75 113t-28.5 170q0 92 26.5 163.5t71 113t97.5 62.5t112 21zM370 673q-113 0 -188 -83.5t-75 -238.5q0 -158 76.5 -241t186.5 -83
q112 0 187.5 83.5t75.5 238.5q0 158 -76 241t-187 83zM391 889l130 -122h-41l-110 95l-111 -95h-40l130 122h42z" />
    <glyph glyph-name="Otilde" unicode="&#xd5;" horiz-adv-x="741" 
d="M370 711q55 0 106.5 -19.5t98 -59.5t75 -113t28.5 -170q0 -92 -26.5 -163.5t-71 -113t-98 -62.5t-112.5 -21q-54 0 -105.5 19.5t-98 59.5t-75 113t-28.5 170q0 92 26.5 163.5t71 113t97.5 62.5t112 21zM370 673q-113 0 -188 -83.5t-75 -238.5q0 -158 76.5 -241t186.5 -83
q112 0 187.5 83.5t75.5 238.5q0 158 -76 241t-187 83zM308 861q36 0 68.5 -27t56.5 -27q21 0 34.5 11.5t24.5 36.5h29q-9 -36 -32.5 -57.5t-57.5 -21.5q-37 0 -69.5 27.5t-56.5 27.5q-21 0 -34.5 -12.5t-24.5 -38.5h-29q20 81 91 81z" />
    <glyph glyph-name="Odieresis" unicode="&#xd6;" horiz-adv-x="741" 
d="M370 711q55 0 106.5 -19.5t98 -59.5t75 -113t28.5 -170q0 -92 -26.5 -163.5t-71 -113t-98 -62.5t-112.5 -21q-54 0 -105.5 19.5t-98 59.5t-75 113t-28.5 170q0 92 26.5 163.5t71 113t97.5 62.5t112 21zM370 673q-113 0 -188 -83.5t-75 -238.5q0 -158 76.5 -241t186.5 -83
q112 0 187.5 83.5t75.5 238.5q0 158 -76 241t-187 83zM263 847q12 0 20.5 -8.5t8.5 -20.5t-8.5 -20t-20.5 -8q-11 0 -19.5 8t-8.5 20t8.5 20.5t19.5 8.5zM477 847q12 0 20.5 -8.5t8.5 -20.5t-8.5 -20t-20.5 -8q-11 0 -19.5 8t-8.5 20t8.5 20.5t19.5 8.5z" />
    <glyph glyph-name="multiply" unicode="&#xd7;" 
d="M445 458l27 -27l-147 -146l147 -145l-27 -26l-145 145l-146 -145l-27 26l146 145l-146 146l27 27l146 -146z" />
    <glyph glyph-name="Oslash" unicode="&#xd8;" horiz-adv-x="741" 
d="M660 759l-82 -130q100 -97 100 -280q0 -92 -26.5 -163.5t-71 -113t-98 -62.5t-112.5 -21q-91 0 -167 50l-80 -129h-41l94 149q-113 97 -113 292q0 92 26.5 163.5t71 113t97.5 62.5t112 21q104 0 182 -60l68 108h40zM107 351q0 -170 92 -257l332 522q-69 57 -161 57
q-113 0 -188 -83.5t-75 -238.5zM370 27q112 0 187.5 83.5t75.5 238.5q0 157 -79 244l-330 -520q64 -46 146 -46z" />
    <glyph glyph-name="Ugrave" unicode="&#xd9;" horiz-adv-x="653" 
d="M574 700v-457q0 -49 -13.5 -92.5t-41.5 -80.5t-77.5 -59t-115.5 -22q-67 0 -116.5 22t-76.5 59.5t-39.5 80.5t-12.5 92v457h42v-455q0 -98 50.5 -158t153.5 -60q102 0 153.5 61t51.5 157v455h42zM255 881l100 -128h-36l-121 128h57z" />
    <glyph glyph-name="Uacute" unicode="&#xda;" horiz-adv-x="653" 
d="M574 700v-457q0 -49 -13.5 -92.5t-41.5 -80.5t-77.5 -59t-115.5 -22q-67 0 -116.5 22t-76.5 59.5t-39.5 80.5t-12.5 92v457h42v-455q0 -98 50.5 -158t153.5 -60q102 0 153.5 61t51.5 157v455h42zM458 881l-120 -128h-37l101 128h56z" />
    <glyph glyph-name="Ucircumflex" unicode="&#xdb;" horiz-adv-x="653" 
d="M574 700v-457q0 -49 -13.5 -92.5t-41.5 -80.5t-77.5 -59t-115.5 -22q-67 0 -116.5 22t-76.5 59.5t-39.5 80.5t-12.5 92v457h42v-455q0 -98 50.5 -158t153.5 -60q102 0 153.5 61t51.5 157v455h42zM348 889l130 -122h-41l-110 95l-111 -95h-40l130 122h42z" />
    <glyph glyph-name="Udieresis" unicode="&#xdc;" horiz-adv-x="653" 
d="M574 700v-457q0 -49 -13.5 -92.5t-41.5 -80.5t-77.5 -59t-115.5 -22q-67 0 -116.5 22t-76.5 59.5t-39.5 80.5t-12.5 92v457h42v-455q0 -98 50.5 -158t153.5 -60q102 0 153.5 61t51.5 157v455h42zM220 847q12 0 20.5 -8.5t8.5 -20.5t-8.5 -20t-20.5 -8q-11 0 -19.5 8
t-8.5 20t8.5 20.5t19.5 8.5zM434 847q12 0 20.5 -8.5t8.5 -20.5t-8.5 -20t-20.5 -8q-11 0 -19.5 8t-8.5 20t8.5 20.5t19.5 8.5z" />
    <glyph glyph-name="Yacute" unicode="&#xdd;" horiz-adv-x="586" 
d="M560 700l-242 -409v-291h-44v291l-248 409h48l223 -370l216 370h47zM426 881l-120 -128h-37l101 128h56z" />
    <glyph glyph-name="Thorn" unicode="&#xde;" horiz-adv-x="606" 
d="M135 700v-130h177q126 0 186 -59t60 -152q0 -99 -61.5 -159t-181.5 -60h-180v-140h-42v700h42zM318 533h-183v-355h184q94 0 144.5 47t50.5 134q0 79 -48.5 126.5t-147.5 47.5z" />
    <glyph glyph-name="germandbls" unicode="&#xdf;" horiz-adv-x="582" 
d="M278 710q87 0 130 -41t43 -101q0 -34 -16.5 -62.5t-36 -43.5t-36 -33.5t-16.5 -34.5q0 -17 15 -30.5t37 -22t48.5 -23t48.5 -32t37 -49.5t15 -75q0 -72 -48.5 -122t-142.5 -50q-97 0 -159 58l24 28q53 -50 134 -50q73 0 111 38t38 98q0 44 -20.5 74t-50 45.5t-58.5 28.5
t-49.5 33t-20.5 49q0 23 16.5 44t36 35.5t36 39.5t16.5 56q0 48 -33.5 78t-98.5 30q-77 0 -112.5 -43.5t-35.5 -117.5v-514h-42v514q0 87 47 141.5t143 54.5z" />
    <glyph glyph-name="agrave" unicode="&#xe0;" horiz-adv-x="543" 
d="M272 527q107 0 147.5 -43.5t40.5 -130.5v-198q0 -107 16 -155h-44q-13 47 -13 89q-22 -41 -72 -70t-125 -29q-83 0 -126 40.5t-43 105.5q0 73 52 115.5t163 56.5l150 19v23q0 76 -29.5 110t-117.5 34q-152 0 -157 -127h-41q2 73 52 116.5t147 43.5zM418 294l-137 -18
q-97 -13 -140.5 -45.5t-43.5 -91.5q0 -51 32.5 -82t100.5 -31q83 0 135.5 44t52.5 107v117zM201 724l99 -130h-36l-119 130h56z" />
    <glyph glyph-name="aacute" unicode="&#xe1;" horiz-adv-x="543" 
d="M272 527q107 0 147.5 -43.5t40.5 -130.5v-198q0 -107 16 -155h-44q-13 47 -13 89q-22 -41 -72 -70t-125 -29q-83 0 -126 40.5t-43 105.5q0 73 52 115.5t163 56.5l150 19v23q0 76 -29.5 110t-117.5 34q-152 0 -157 -127h-41q2 73 52 116.5t147 43.5zM418 294l-137 -18
q-97 -13 -140.5 -45.5t-43.5 -91.5q0 -51 32.5 -82t100.5 -31q83 0 135.5 44t52.5 107v117zM400 724l-118 -130h-37l101 130h54z" />
    <glyph glyph-name="acircumflex" unicode="&#xe2;" horiz-adv-x="543" 
d="M272 527q107 0 147.5 -43.5t40.5 -130.5v-198q0 -107 16 -155h-44q-13 47 -13 89q-22 -41 -72 -70t-125 -29q-83 0 -126 40.5t-43 105.5q0 73 52 115.5t163 56.5l150 19v23q0 76 -29.5 110t-117.5 34q-152 0 -157 -127h-41q2 73 52 116.5t147 43.5zM418 294l-137 -18
q-97 -13 -140.5 -45.5t-43.5 -91.5q0 -51 32.5 -82t100.5 -31q83 0 135.5 44t52.5 107v117zM294 726l130 -124h-41l-110 96l-111 -96h-40l130 124h42z" />
    <glyph glyph-name="atilde" unicode="&#xe3;" horiz-adv-x="543" 
d="M272 527q107 0 147.5 -43.5t40.5 -130.5v-198q0 -107 16 -155h-44q-13 47 -13 89q-22 -41 -72 -70t-125 -29q-83 0 -126 40.5t-43 105.5q0 73 52 115.5t163 56.5l150 19v23q0 76 -29.5 110t-117.5 34q-152 0 -157 -127h-41q2 73 52 116.5t147 43.5zM418 294l-137 -18
q-97 -13 -140.5 -45.5t-43.5 -91.5q0 -51 32.5 -82t100.5 -31q83 0 135.5 44t52.5 107v117zM211 701q36 0 68.5 -27t56.5 -27q21 0 34.5 11.5t24.5 36.5h29q-9 -36 -32.5 -57.5t-57.5 -21.5q-37 0 -69.5 27.5t-56.5 27.5q-21 0 -34.5 -12.5t-24.5 -38.5h-29q20 81 91 81z
" />
    <glyph glyph-name="adieresis" unicode="&#xe4;" horiz-adv-x="543" 
d="M272 527q107 0 147.5 -43.5t40.5 -130.5v-198q0 -107 16 -155h-44q-13 47 -13 89q-22 -41 -72 -70t-125 -29q-83 0 -126 40.5t-43 105.5q0 73 52 115.5t163 56.5l150 19v23q0 76 -29.5 110t-117.5 34q-152 0 -157 -127h-41q2 73 52 116.5t147 43.5zM418 294l-137 -18
q-97 -13 -140.5 -45.5t-43.5 -91.5q0 -51 32.5 -82t100.5 -31q83 0 135.5 44t52.5 107v117zM166 688q12 0 20.5 -8.5t8.5 -20.5t-8.5 -20t-20.5 -8q-11 0 -19.5 8t-8.5 20t8.5 20.5t19.5 8.5zM380 688q12 0 20.5 -8.5t8.5 -20.5t-8.5 -20t-20.5 -8q-11 0 -19.5 8t-8.5 20
t8.5 20.5t19.5 8.5z" />
    <glyph glyph-name="aring" unicode="&#xe5;" horiz-adv-x="543" 
d="M272 527q107 0 147.5 -43.5t40.5 -130.5v-198q0 -107 16 -155h-44q-13 47 -13 89q-22 -41 -72 -70t-125 -29q-83 0 -126 40.5t-43 105.5q0 73 52 115.5t163 56.5l150 19v23q0 76 -29.5 110t-117.5 34q-152 0 -157 -127h-41q2 73 52 116.5t147 43.5zM418 294l-137 -18
q-97 -13 -140.5 -45.5t-43.5 -91.5q0 -51 32.5 -82t100.5 -31q83 0 135.5 44t52.5 107v117zM273 809q46 0 80.5 -32t34.5 -80t-34 -78.5t-81 -30.5t-81.5 30.5t-34.5 78.5t34.5 80t81.5 32zM272 781q-35 0 -59.5 -23.5t-24.5 -60.5t24.5 -59.5t59.5 -22.5t59.5 22.5
t24.5 59.5t-24.5 60.5t-59.5 23.5z" />
    <glyph glyph-name="ae" unicode="&#xe6;" horiz-adv-x="917" 
d="M638 527q106 0 165.5 -76t59.5 -187v-11h-414q1 -102 53 -165t145 -63q110 0 171 92l36 -20q-76 -108 -208 -108q-75 0 -128 35.5t-80 95.5q-46 -130 -208 -130q-88 0 -132.5 40t-44.5 106q0 147 215 174l146 19q5 26 13 48q-6 29 -13 46.5t-23 35.5t-45 26.5t-73 8.5
q-154 0 -159 -127h-41q2 74 51 117t149 43q49 0 83.5 -9.5t52.5 -27.5t26.5 -34t14.5 -40q21 45 71 78t117 33zM637 492q-86 0 -135 -59t-52 -148h370q-2 90 -50 148.5t-133 58.5zM411 294l-130 -16q-96 -12 -140 -45.5t-44 -93.5q0 -51 34 -82t103 -31q80 0 130.5 40.5
t56.5 98.5q-11 44 -11 93q0 25 1 36z" />
    <glyph glyph-name="ccedilla" unicode="&#xe7;" horiz-adv-x="551" 
d="M296 527q70 0 123.5 -33t78.5 -89l-37 -15q-22 47 -64 74t-98 27q-91 0 -144 -64.5t-53 -169.5q0 -101 51.5 -166t141.5 -65q126 0 175 124l38 -16q-58 -140 -207 -144l-1 -47q53 -2 81.5 -23t28.5 -56q0 -39 -31 -62.5t-85 -23.5q-57 0 -98 25l15 25q32 -21 81 -21
q82 0 82 57q0 31 -26.5 43.5t-81.5 13.5l9 70q-102 7 -159.5 81.5t-57.5 184.5q0 119 64.5 194.5t173.5 75.5z" />
    <glyph glyph-name="egrave" unicode="&#xe8;" horiz-adv-x="569" 
d="M290 527q106 0 165.5 -76t59.5 -187v-11h-414q1 -102 53.5 -165t145.5 -63q109 0 173 92l33 -20q-75 -108 -207 -108q-113 0 -177 78t-64 195q0 113 61 189t171 76zM289 492q-86 0 -135 -58.5t-52 -146.5h370q-2 89 -50 147t-133 58zM214 723l99 -130h-36l-119 130h56z
" />
    <glyph glyph-name="eacute" unicode="&#xe9;" horiz-adv-x="569" 
d="M290 527q106 0 165.5 -76t59.5 -187v-11h-414q1 -102 53.5 -165t145.5 -63q109 0 173 92l33 -20q-75 -108 -207 -108q-113 0 -177 78t-64 195q0 113 61 189t171 76zM289 492q-86 0 -135 -58.5t-52 -146.5h370q-2 89 -50 147t-133 58zM413 723l-118 -130h-37l101 130h54z
" />
    <glyph glyph-name="ecircumflex" unicode="&#xea;" horiz-adv-x="569" 
d="M290 527q106 0 165.5 -76t59.5 -187v-11h-414q1 -102 53.5 -165t145.5 -63q109 0 173 92l33 -20q-75 -108 -207 -108q-113 0 -177 78t-64 195q0 113 61 189t171 76zM289 492q-86 0 -135 -58.5t-52 -146.5h370q-2 89 -50 147t-133 58zM307 725l130 -124h-41l-110 96
l-111 -96h-40l130 124h42z" />
    <glyph glyph-name="edieresis" unicode="&#xeb;" horiz-adv-x="569" 
d="M290 527q106 0 165.5 -76t59.5 -187v-11h-414q1 -102 53.5 -165t145.5 -63q109 0 173 92l33 -20q-75 -108 -207 -108q-113 0 -177 78t-64 195q0 113 61 189t171 76zM289 492q-86 0 -135 -58.5t-52 -146.5h370q-2 89 -50 147t-133 58zM179 687q12 0 20.5 -8.5t8.5 -20.5
t-8.5 -20t-20.5 -8q-11 0 -19.5 8t-8.5 20t8.5 20.5t19.5 8.5zM393 687q12 0 20.5 -8.5t8.5 -20.5t-8.5 -20t-20.5 -8q-11 0 -19.5 8t-8.5 20t8.5 20.5t19.5 8.5z" />
    <glyph glyph-name="igrave" unicode="&#xec;" horiz-adv-x="218" 
d="M130 519v-519h-42v519h42zM37 724l99 -130h-36l-119 130h56z" />
    <glyph glyph-name="iacute" unicode="&#xed;" horiz-adv-x="218" 
d="M130 519v-519h-42v519h42zM236 724l-118 -130h-37l101 130h54z" />
    <glyph glyph-name="icircumflex" unicode="&#xee;" horiz-adv-x="218" 
d="M130 519v-519h-42v519h42zM130 726l130 -124h-41l-110 96l-111 -96h-40l130 124h42z" />
    <glyph glyph-name="idieresis" unicode="&#xef;" horiz-adv-x="218" 
d="M130 519v-519h-42v519h42zM2 688q12 0 20.5 -8.5t8.5 -20.5t-8.5 -20t-20.5 -8q-11 0 -19.5 8t-8.5 20t8.5 20.5t19.5 8.5zM216 688q12 0 20.5 -8.5t8.5 -20.5t-8.5 -20t-20.5 -8q-11 0 -19.5 8t-8.5 20t8.5 20.5t19.5 8.5z" />
    <glyph glyph-name="eth" unicode="&#xf0;" horiz-adv-x="571" 
d="M388 751l-54 -85q91 -44 135 -141.5t44 -258.5q0 -131 -62 -204t-166 -73q-103 0 -165 65t-62 169q0 107 62 170.5t159 63.5q78 0 127.5 -36.5t68.5 -93.5q-9 124 -47 198.5t-113 110.5l-56 -88h-36l64 100q-60 22 -140 26l7 32q89 -5 152 -29l47 74h35zM286 25
q85 0 133.5 59t48.5 155q0 81 -49.5 131.5t-132.5 50.5q-84 0 -134.5 -54t-50.5 -144t50.5 -144t134.5 -54z" />
    <glyph glyph-name="ntilde" unicode="&#xf1;" horiz-adv-x="568" 
d="M310 527q87 0 131.5 -50.5t44.5 -145.5v-331h-42v317q0 174 -142 174q-72 0 -122 -54.5t-50 -155.5v-281h-42v519h42v-112q21 57 69.5 88.5t110.5 31.5zM243 700q36 0 68.5 -27t56.5 -27q21 0 34.5 11.5t24.5 36.5h29q-9 -36 -32.5 -57.5t-57.5 -21.5q-37 0 -69.5 27.5
t-56.5 27.5q-21 0 -34.5 -12.5t-24.5 -38.5h-29q20 81 91 81z" />
    <glyph glyph-name="ograve" unicode="&#xf2;" horiz-adv-x="595" 
d="M297 527q109 0 174.5 -77.5t65.5 -191.5q0 -119 -63 -193.5t-177 -74.5q-111 0 -175 76t-64 192q0 117 64.5 193t174.5 76zM298 491q-91 0 -143.5 -64t-52.5 -168t52 -168.5t144 -64.5q93 0 144.5 63.5t51.5 169.5q0 101 -53 166.5t-143 65.5zM226 724l99 -130h-36
l-119 130h56z" />
    <glyph glyph-name="oacute" unicode="&#xf3;" horiz-adv-x="595" 
d="M297 527q109 0 174.5 -77.5t65.5 -191.5q0 -119 -63 -193.5t-177 -74.5q-111 0 -175 76t-64 192q0 117 64.5 193t174.5 76zM298 491q-91 0 -143.5 -64t-52.5 -168t52 -168.5t144 -64.5q93 0 144.5 63.5t51.5 169.5q0 101 -53 166.5t-143 65.5zM425 724l-118 -130h-37
l101 130h54z" />
    <glyph glyph-name="ocircumflex" unicode="&#xf4;" horiz-adv-x="595" 
d="M297 527q109 0 174.5 -77.5t65.5 -191.5q0 -119 -63 -193.5t-177 -74.5q-111 0 -175 76t-64 192q0 117 64.5 193t174.5 76zM298 491q-91 0 -143.5 -64t-52.5 -168t52 -168.5t144 -64.5q93 0 144.5 63.5t51.5 169.5q0 101 -53 166.5t-143 65.5zM319 726l130 -124h-41
l-110 96l-111 -96h-40l130 124h42z" />
    <glyph glyph-name="otilde" unicode="&#xf5;" horiz-adv-x="595" 
d="M297 527q109 0 174.5 -77.5t65.5 -191.5q0 -119 -63 -193.5t-177 -74.5q-111 0 -175 76t-64 192q0 117 64.5 193t174.5 76zM298 491q-91 0 -143.5 -64t-52.5 -168t52 -168.5t144 -64.5q93 0 144.5 63.5t51.5 169.5q0 101 -53 166.5t-143 65.5zM236 701q36 0 68.5 -27
t56.5 -27q21 0 34.5 11.5t24.5 36.5h29q-9 -36 -32.5 -57.5t-57.5 -21.5q-37 0 -69.5 27.5t-56.5 27.5q-21 0 -34.5 -12.5t-24.5 -38.5h-29q20 81 91 81z" />
    <glyph glyph-name="odieresis" unicode="&#xf6;" horiz-adv-x="595" 
d="M297 527q109 0 174.5 -77.5t65.5 -191.5q0 -119 -63 -193.5t-177 -74.5q-111 0 -175 76t-64 192q0 117 64.5 193t174.5 76zM298 491q-91 0 -143.5 -64t-52.5 -168t52 -168.5t144 -64.5q93 0 144.5 63.5t51.5 169.5q0 101 -53 166.5t-143 65.5zM191 688q12 0 20.5 -8.5
t8.5 -20.5t-8.5 -20t-20.5 -8q-11 0 -19.5 8t-8.5 20t8.5 20.5t19.5 8.5zM405 688q12 0 20.5 -8.5t8.5 -20.5t-8.5 -20t-20.5 -8q-11 0 -19.5 8t-8.5 20t8.5 20.5t19.5 8.5z" />
    <glyph glyph-name="divide" unicode="&#xf7;" 
d="M300 518q14 0 23.5 -9.5t9.5 -22.5q0 -14 -9.5 -23.5t-23.5 -9.5t-23.5 9.5t-9.5 23.5q0 13 9.5 22.5t23.5 9.5zM488 310v-37h-376v37h376zM300 130q14 0 23.5 -9.5t9.5 -22.5q0 -14 -9.5 -23.5t-23.5 -9.5t-23.5 9.5t-9.5 23.5q0 13 9.5 22.5t23.5 9.5z" />
    <glyph glyph-name="oslash" unicode="&#xf8;" horiz-adv-x="595" 
d="M526 587l-73 -119q84 -76 84 -210q0 -119 -63 -193.5t-177 -74.5q-70 0 -121 31l-67 -108h-40l79 127q-90 75 -90 218q0 117 64.5 193t174.5 76q74 0 129 -38l61 98h39zM298 491q-91 0 -143.5 -64t-52.5 -168q0 -123 68 -185l238 382q-48 35 -110 35zM431 435l-237 -381
q44 -28 103 -28q93 0 144.5 63.5t51.5 169.5q0 111 -62 176z" />
    <glyph glyph-name="ugrave" unicode="&#xf9;" horiz-adv-x="566" 
d="M478 519v-519h-42v107q-23 -53 -69.5 -84.5t-110.5 -31.5q-85 0 -129 48t-44 140v340h42v-331q0 -81 33.5 -120.5t106.5 -39.5t122 52.5t49 153.5v285h42zM206 723l99 -130h-36l-119 130h56z" />
    <glyph glyph-name="uacute" unicode="&#xfa;" horiz-adv-x="566" 
d="M478 519v-519h-42v107q-23 -53 -69.5 -84.5t-110.5 -31.5q-85 0 -129 48t-44 140v340h42v-331q0 -81 33.5 -120.5t106.5 -39.5t122 52.5t49 153.5v285h42zM405 723l-118 -130h-37l101 130h54z" />
    <glyph glyph-name="ucircumflex" unicode="&#xfb;" horiz-adv-x="566" 
d="M478 519v-519h-42v107q-23 -53 -69.5 -84.5t-110.5 -31.5q-85 0 -129 48t-44 140v340h42v-331q0 -81 33.5 -120.5t106.5 -39.5t122 52.5t49 153.5v285h42zM299 725l130 -124h-41l-110 96l-111 -96h-40l130 124h42z" />
    <glyph glyph-name="udieresis" unicode="&#xfc;" horiz-adv-x="566" 
d="M478 519v-519h-42v107q-23 -53 -69.5 -84.5t-110.5 -31.5q-85 0 -129 48t-44 140v340h42v-331q0 -81 33.5 -120.5t106.5 -39.5t122 52.5t49 153.5v285h42zM171 687q12 0 20.5 -8.5t8.5 -20.5t-8.5 -20t-20.5 -8q-11 0 -19.5 8t-8.5 20t8.5 20.5t19.5 8.5zM385 687
q12 0 20.5 -8.5t8.5 -20.5t-8.5 -20t-20.5 -8q-11 0 -19.5 8t-8.5 20t8.5 20.5t19.5 8.5z" />
    <glyph glyph-name="yacute" unicode="&#xfd;" horiz-adv-x="483" 
d="M457 519l-182 -533q-26 -77 -61.5 -118.5t-101.5 -41.5q-28 0 -53 5v34q24 -3 46 -3q55 0 82 34t49 104h-13l-197 519h46l179 -485l161 485h45zM369 723l-118 -130h-37l101 130h54z" />
    <glyph glyph-name="thorn" unicode="&#xfe;" horiz-adv-x="598" 
d="M130 700v-299q20 52 69.5 89t119.5 37q104 0 162.5 -72.5t58.5 -191.5q0 -120 -60 -196.5t-163 -76.5q-71 0 -118.5 33t-68.5 86v-269h-42v860h42zM312 491q-82 0 -133 -63.5t-51 -172.5q0 -113 50 -171t131 -58q87 0 137 64t50 172q0 105 -47 167t-137 62z" />
    <glyph glyph-name="ydieresis" unicode="&#xff;" horiz-adv-x="483" 
d="M457 519l-182 -533q-26 -77 -61.5 -118.5t-101.5 -41.5q-28 0 -53 5v34q24 -3 46 -3q55 0 82 34t49 104h-13l-197 519h46l179 -485l161 485h45zM135 687q12 0 20.5 -8.5t8.5 -20.5t-8.5 -20t-20.5 -8q-11 0 -19.5 8t-8.5 20t8.5 20.5t19.5 8.5zM349 687q12 0 20.5 -8.5
t8.5 -20.5t-8.5 -20t-20.5 -8q-11 0 -19.5 8t-8.5 20t8.5 20.5t19.5 8.5z" />
    <glyph glyph-name="dotlessi" unicode="&#x131;" horiz-adv-x="218" 
d="M130 519v-519h-42v519h42z" />
    <glyph glyph-name="IJ" unicode="&#x132;" horiz-adv-x="729" 
d="M296 700v-37h-108v-626h108v-37h-258v37h108v626h-108v37h258zM650 700v-520q0 -91 -39.5 -138t-132.5 -47q-47 0 -101 8v39q39 -7 83 -7q82 0 114.5 35.5t32.5 113.5v516h43z" />
    <glyph glyph-name="ij" unicode="&#x133;" horiz-adv-x="446" 
d="M358 519v-551q0 -72 -39 -106t-96 -34q-19 0 -45 4v34q20 -2 31 -2q52 0 79.5 26t27.5 92v537h42zM337 708q12 0 20.5 -8.5t8.5 -20.5q0 -13 -8.5 -21.5t-20.5 -8.5t-21 8.5t-9 21.5q0 12 9 20.5t21 8.5zM130 519v-519h-42v519h42zM109 708q12 0 20.5 -8.5t8.5 -20.5
q0 -13 -8.5 -21.5t-20.5 -8.5t-21 8.5t-9 21.5q0 12 9 20.5t21 8.5z" />
    <glyph glyph-name="Lslash" unicode="&#x141;" horiz-adv-x="548" 
d="M157 39h348v-39h-390v328l-86 -47v38l86 47v334h42v-311l203 111v-38l-203 -111v-312z" />
    <glyph glyph-name="lslash" unicode="&#x142;" horiz-adv-x="279" 
d="M203 31q8 0 20.5 1.5t18.5 1.5v-34q-30 -5 -53 -5q-97 0 -97 120v187l-65 -36v38l65 36v360h42v-337l105 58v-37l-105 -58v-204q0 -50 14.5 -70.5t54.5 -20.5z" />
    <glyph glyph-name="OE" unicode="&#x152;" horiz-adv-x="927" 
d="M367 711q52 0 108 -11h379v-38h-337v-286h316v-37h-316v-301h346v-38h-388q-48 -11 -109 -11q-53 0 -103.5 19.5t-96.5 59.5t-74.5 113t-28.5 170q0 92 26.5 163.5t70.5 113t96.5 62.5t110.5 21zM367 674q-110 0 -185 -84t-75 -239q0 -158 76 -241.5t183 -83.5
q56 0 108 14v620q-56 14 -107 14z" />
    <glyph glyph-name="oe" unicode="&#x153;" horiz-adv-x="981" 
d="M708 527q102 0 160.5 -76.5t58.5 -186.5v-11h-402q1 -101 52 -164.5t140 -63.5q110 0 166 92l35 -20q-70 -108 -202 -108q-85 0 -141.5 50.5t-73.5 125.5q-16 -75 -71 -125t-139 -50q-108 0 -170.5 76t-62.5 192q0 117 63 193t170 76q82 0 139.5 -52t71.5 -129
q14 77 68.5 129t137.5 52zM706 492q-82 0 -129.5 -59.5t-50.5 -147.5h357q-3 90 -49.5 148.5t-127.5 58.5zM291 491q-87 0 -138 -64.5t-51 -167.5q0 -104 50.5 -168.5t138.5 -64.5q89 0 140 64t51 169q0 101 -52.5 166.5t-138.5 65.5z" />
    <glyph glyph-name="Scaron" unicode="&#x160;" horiz-adv-x="614" 
d="M306 -11q-80 0 -154.5 28t-119.5 86l32 27q40 -51 104.5 -77t139.5 -26q98 0 154 43.5t56 113.5q0 69 -47 108.5t-171 58.5q-117 19 -174 61.5t-57 121.5t63.5 128t171.5 49q166 0 254 -118l-34 -25q-74 105 -220 105q-90 0 -141 -38t-51 -101t48 -95.5t167 -52.5
q125 -21 180 -69t55 -131q0 -88 -65.5 -142.5t-190.5 -54.5zM460 891l-130 -122h-42l-130 122h40l111 -94l110 94h41z" />
    <glyph glyph-name="scaron" unicode="&#x161;" horiz-adv-x="514" 
d="M252 527q121 0 195 -66l-27 -25q-64 56 -168 56q-69 0 -107.5 -26.5t-38.5 -69.5q0 -45 36 -68t126 -37q105 -17 151.5 -49.5t46.5 -102.5q0 -64 -56 -106.5t-156 -42.5q-142 0 -224 84l28 27q72 -75 195 -75q82 0 126 31.5t44 80.5q0 53 -38.5 78t-137.5 40
q-97 15 -140 48t-43 91q0 59 51 95.5t137 36.5zM403 733l-130 -124h-42l-130 124h40l111 -96l110 96h41z" />
    <glyph glyph-name="Ydieresis" unicode="&#x178;" horiz-adv-x="586" 
d="M560 700l-242 -409v-291h-44v291l-248 409h48l223 -370l216 370h47zM188 847q12 0 20.5 -8.5t8.5 -20.5t-8.5 -20t-20.5 -8q-11 0 -19.5 8t-8.5 20t8.5 20.5t19.5 8.5zM402 847q12 0 20.5 -8.5t8.5 -20.5t-8.5 -20t-20.5 -8q-11 0 -19.5 8t-8.5 20t8.5 20.5t19.5 8.5z
" />
    <glyph glyph-name="Zcaron" unicode="&#x17d;" horiz-adv-x="593" 
d="M537 700v-36l-442 -625h450v-39h-505v34l443 628h-412v38h466zM444 891l-130 -122h-42l-130 122h40l111 -94l110 94h41z" />
    <glyph glyph-name="zcaron" unicode="&#x17e;" horiz-adv-x="465" 
d="M423 519v-34l-335 -449h337v-36h-390v33l336 450h-305v36h357zM385 734l-130 -124h-42l-130 124h40l111 -96l110 96h41z" />
    <glyph glyph-name="longs" unicode="&#x17f;" horiz-adv-x="336" 
d="M245 710q43 0 88 -18v-33q-42 16 -83 16q-58 0 -81 -27t-23 -77v-571h-42v486h-77v33h77v57q0 134 141 134z" />
    <glyph glyph-name="florin" unicode="&#x192;" horiz-adv-x="312" 
d="M255 710q50 0 99 -20v-34q-48 19 -94 19q-58 0 -81 -27t-23 -77v-52h172v-33h-172v-518q0 -72 -39 -106t-96 -34q-19 0 -45 4v34q20 -2 31 -2q52 0 79.5 26t27.5 92v504h-77v33h77v57q0 134 141 134z" />
    <glyph glyph-name="uni02BB" unicode="&#x2bb;" horiz-adv-x="242" 
d="M107 576q-13 0 -22 9t-9 22q0 30 17.5 75t44.5 81l21 -10q-35 -59 -39 -121q18 -8 18 -27q0 -12 -9 -20.5t-22 -8.5z" />
    <glyph glyph-name="uni02BC" unicode="&#x2bc;" horiz-adv-x="242" 
d="M118 728q13 0 22 -9t9 -22q0 -30 -17.5 -75t-44.5 -81l-21 10q35 59 39 121q-18 8 -18 27q0 12 9 20.5t22 8.5z" />
    <glyph glyph-name="circumflex" unicode="&#x2c6;" horiz-adv-x="362" 
d="M202 725l130 -124h-41l-110 96l-111 -96h-40l130 124h42z" />
    <glyph glyph-name="caron" unicode="&#x2c7;" horiz-adv-x="362" 
d="M332 733l-130 -124h-42l-130 124h40l111 -96l110 96h41z" />
    <glyph glyph-name="breve" unicode="&#x2d8;" horiz-adv-x="337" 
d="M278 722h29q-6 -51 -41.5 -87t-97.5 -36t-97 36t-41 87h29q6 -38 34 -65t75 -27q48 0 76 27t34 65z" />
    <glyph glyph-name="dotaccent" unicode="&#x2d9;" horiz-adv-x="119" 
d="M60 707q12 0 20.5 -8.5t8.5 -20.5q0 -13 -8.5 -21.5t-20.5 -8.5t-21 8.5t-9 21.5q0 12 9 20.5t21 8.5z" />
    <glyph glyph-name="ring" unicode="&#x2da;" horiz-adv-x="291" 
d="M146 809q46 0 80.5 -32t34.5 -80t-34 -78.5t-81 -30.5t-81.5 30.5t-34.5 78.5t34.5 80t81.5 32zM145 781q-35 0 -59.5 -23.5t-24.5 -60.5t24.5 -59.5t59.5 -22.5t59.5 22.5t24.5 59.5t-24.5 60.5t-59.5 23.5z" />
    <glyph glyph-name="ogonek" unicode="&#x2db;" horiz-adv-x="261" 
d="M180 12l6 -12q-121 -47 -121 -123q0 -66 81 -66q37 0 75 14l10 -26q-42 -17 -88 -17q-54 0 -84.5 23.5t-30.5 68.5q0 47 41 83.5t111 54.5z" />
    <glyph glyph-name="tilde" unicode="&#x2dc;" horiz-adv-x="364" 
d="M121 701q36 0 68.5 -27t56.5 -27q21 0 34.5 11.5t24.5 36.5h29q-9 -36 -32.5 -57.5t-57.5 -21.5q-37 0 -69.5 27.5t-56.5 27.5q-21 0 -34.5 -12.5t-24.5 -38.5h-29q20 81 91 81z" />
    <glyph glyph-name="hungarumlaut" unicode="&#x2dd;" horiz-adv-x="352" 
d="M165 725l-102 -132h-33l82 132h53zM322 725l-105 -132h-33l85 132h53z" />
    <glyph glyph-name="gravecomb" unicode="&#x300;" horiz-adv-x="1" 
d="M-129 723l99 -130h-36l-119 130h56z" />
    <glyph glyph-name="acutecomb" unicode="&#x301;" horiz-adv-x="1" 
d="M-30 723l-118 -130h-37l101 130h54z" />
    <glyph glyph-name="uni0302" unicode="&#x302;" horiz-adv-x="1" 
d="M-160 725l130 -124h-41l-110 96l-111 -96h-40l130 124h42z" />
    <glyph glyph-name="tildecomb" unicode="&#x303;" horiz-adv-x="1" 
d="M-243 701q36 0 68.5 -27t56.5 -27q21 0 34.5 11.5t24.5 36.5h29q-9 -36 -32.5 -57.5t-57.5 -21.5q-37 0 -69.5 27.5t-56.5 27.5q-21 0 -34.5 -12.5t-24.5 -38.5h-29q20 81 91 81z" />
    <glyph glyph-name="uni0304" unicode="&#x304;" horiz-adv-x="1" 
d="M-30 674v-33h-290v33h290z" />
    <glyph glyph-name="uni0306" unicode="&#x306;" horiz-adv-x="1" 
d="M-59 722h29q-6 -51 -41.5 -87t-97.5 -36t-97 36t-41 87h29q6 -38 34 -65t75 -27q48 0 76 27t34 65z" />
    <glyph glyph-name="uni0307" unicode="&#x307;" horiz-adv-x="1" 
d="M-59 707q12 0 20.5 -8.5t8.5 -20.5q0 -13 -8.5 -21.5t-20.5 -8.5t-21 8.5t-9 21.5q0 12 9 20.5t21 8.5z" />
    <glyph glyph-name="uni0308" unicode="&#x308;" horiz-adv-x="1" 
d="M-273 687q12 0 20.5 -8.5t8.5 -20.5t-8.5 -20t-20.5 -8q-11 0 -19.5 8t-8.5 20t8.5 20.5t19.5 8.5zM-59 687q12 0 20.5 -8.5t8.5 -20.5t-8.5 -20t-20.5 -8q-11 0 -19.5 8t-8.5 20t8.5 20.5t19.5 8.5z" />
    <glyph glyph-name="uni030A" unicode="&#x30a;" horiz-adv-x="1" 
d="M-145 809q46 0 80.5 -32t34.5 -80t-34 -78.5t-81 -30.5t-81.5 30.5t-34.5 78.5t34.5 80t81.5 32zM-146 781q-35 0 -59.5 -23.5t-24.5 -60.5t24.5 -59.5t59.5 -22.5t59.5 22.5t24.5 59.5t-24.5 60.5t-59.5 23.5z" />
    <glyph glyph-name="uni030B" unicode="&#x30b;" horiz-adv-x="1" 
d="M-187 725l-102 -132h-33l82 132h53zM-30 725l-105 -132h-33l85 132h53z" />
    <glyph glyph-name="uni030C" unicode="&#x30c;" horiz-adv-x="1" 
d="M-30 733l-130 -124h-42l-130 124h40l111 -96l110 96h41z" />
    <glyph glyph-name="uni0326" unicode="&#x326;" horiz-adv-x="1" 
d="M-87 -86q11 0 18.5 -8t7.5 -20q0 -24 -14.5 -62.5t-36.5 -71.5l-20 7q31 59 33 105q-15 7 -15 23q0 11 7.5 19t19.5 8z" />
    <glyph glyph-name="uni0327" unicode="&#x327;" horiz-adv-x="1" 
d="M-137 -1l-2 -56q53 -2 81.5 -23t28.5 -56q0 -39 -31 -62.5t-85 -23.5q-57 0 -98 25l15 25q32 -21 81 -21q82 0 82 57q0 31 -26.5 43.5t-81.5 13.5l10 78h26z" />
    <glyph glyph-name="uni0328" unicode="&#x328;" horiz-adv-x="1" 
d="M-81 12l6 -12q-121 -47 -121 -123q0 -66 81 -66q37 0 75 14l10 -26q-42 -17 -88 -17q-54 0 -84.5 23.5t-30.5 68.5q0 47 41 83.5t111 54.5z" />
    <glyph glyph-name="uni0394" unicode="&#x394;" 
d="M329 700l248 -700h-554l250 700h56zM81 37h436l-217 625z" />
    <glyph glyph-name="uni03A9" unicode="&#x3a9;" horiz-adv-x="741" 
d="M370 711q58 0 110.5 -20t98 -60.5t72.5 -112.5t27 -166q0 -250 -175 -313h167v-39h-225v39q85 22 136.5 101.5t51.5 211.5q0 155 -74 237.5t-189 82.5q-113 0 -188 -82t-75 -236q0 -132 52.5 -212.5t136.5 -102.5v-39h-225v39h168q-176 64 -176 314q0 92 26.5 163
t71 112.5t97.5 62t112 20.5z" />
    <glyph glyph-name="uni03BC" unicode="&#x3bc;" horiz-adv-x="571" 
d="M483 519v-519h-42v148q-12 -78 -57.5 -118t-110.5 -40q-122 0 -143 110v-260h-42v679h42v-331q0 -160 143 -160q71 0 119.5 52.5t48.5 153.5v285h42z" />
    <glyph glyph-name="pi" unicode="&#x3c0;" horiz-adv-x="642" 
d="M581 519v-36h-94v-483h-42v483h-249v-483h-42v483h-93v36h520z" />
    <glyph glyph-name="uni1E9E" unicode="&#x1e9e;" horiz-adv-x="675" 
d="M401 -12q-128 0 -211 71l24 31q75 -64 187 -64q77 0 131 44.5t54 118.5q0 77 -46 117t-149 59v36l164 189q-79 84 -207 84q-104 0 -164.5 -55t-60.5 -168v-451h-42v457q0 123 73 189t194 66q155 0 257 -118l-172 -200q93 -21 145.5 -68.5t52.5 -136.5q0 -91 -66 -146
t-164 -55z" />
    <glyph glyph-name="uni2007" unicode="&#x2007;" horiz-adv-x="594" 
 />
    <glyph glyph-name="uni2008" unicode="&#x2008;" horiz-adv-x="241" 
 />
    <glyph glyph-name="uni200B" unicode="&#x200b;" horiz-adv-x="0" 
 />
    <glyph glyph-name="figuredash" unicode="&#x2012;" 
d="M555 312v-37h-509v37h509z" />
    <glyph glyph-name="endash" unicode="&#x2013;" horiz-adv-x="514" 
d="M461 324v-37h-408v37h408z" />
    <glyph glyph-name="emdash" unicode="&#x2014;" horiz-adv-x="614" 
d="M561 324v-37h-508v37h508z" />
    <glyph glyph-name="quoteleft" unicode="&#x2018;" horiz-adv-x="242" 
d="M107 576q-13 0 -22 9t-9 22q0 30 17.5 75t44.5 81l21 -10q-35 -59 -39 -121q18 -8 18 -27q0 -12 -9 -20.5t-22 -8.5z" />
    <glyph glyph-name="quoteright" unicode="&#x2019;" horiz-adv-x="242" 
d="M118 728q13 0 22 -9t9 -22q0 -30 -17.5 -75t-44.5 -81l-21 10q35 59 39 121q-18 8 -18 27q0 12 9 20.5t22 8.5z" />
    <glyph glyph-name="quotesinglbase" unicode="&#x201a;" horiz-adv-x="242" 
d="M118 55q13 0 22 -9t9 -22q0 -30 -17.5 -75t-44.5 -81l-21 10q35 59 39 121q-18 8 -18 27q0 12 9 20.5t22 8.5z" />
    <glyph glyph-name="quotedblleft" unicode="&#x201c;" horiz-adv-x="384" 
d="M249 576q-13 0 -22 9t-9 22q0 30 17.5 75t44.5 81l21 -10q-35 -59 -39 -121q18 -8 18 -27q0 -12 -9 -20.5t-22 -8.5zM107 576q-13 0 -22 9t-9 22q0 30 17.5 75t44.5 81l21 -10q-35 -59 -39 -121q18 -8 18 -27q0 -12 -9 -20.5t-22 -8.5z" />
    <glyph glyph-name="quotedblright" unicode="&#x201d;" horiz-adv-x="384" 
d="M118 728q13 0 22 -9t9 -22q0 -30 -17.5 -75t-44.5 -81l-21 10q35 59 39 121q-18 8 -18 27q0 12 9 20.5t22 8.5zM260 728q13 0 22 -9t9 -22q0 -30 -17.5 -75t-44.5 -81l-21 10q35 59 39 121q-18 8 -18 27q0 12 9 20.5t22 8.5z" />
    <glyph glyph-name="quotedblbase" unicode="&#x201e;" horiz-adv-x="384" 
d="M118 55q13 0 22 -9t9 -22q0 -30 -17.5 -75t-44.5 -81l-21 10q35 59 39 121q-18 8 -18 27q0 12 9 20.5t22 8.5zM260 55q13 0 22 -9t9 -22q0 -30 -17.5 -75t-44.5 -81l-21 10q35 59 39 121q-18 8 -18 27q0 12 9 20.5t22 8.5z" />
    <glyph glyph-name="dagger" unicode="&#x2020;" horiz-adv-x="596" 
d="M318 700v-181h174v-36h-174v-643h-41v643h-173v36h173v181h41z" />
    <glyph glyph-name="daggerdbl" unicode="&#x2021;" horiz-adv-x="596" 
d="M318 700v-196h174v-35h-174v-395h174v-36h-174v-198h-41v198h-173v36h173v395h-173v35h173v196h41z" />
    <glyph glyph-name="bullet" unicode="&#x2022;" horiz-adv-x="302" 
d="M151 390q32 0 55 -22t23 -53q0 -32 -23 -55t-55 -23t-55 23t-23 55q0 31 23 53t55 22z" />
    <glyph glyph-name="uni2023" unicode="&#x2023;" horiz-adv-x="333" 
d="M240 309l-147 -73v147z" />
    <glyph glyph-name="ellipsis" unicode="&#x2026;" horiz-adv-x="720" 
d="M118 53q12 0 21 -8.5t9 -20.5q0 -13 -9 -21.5t-21 -8.5t-21 8.5t-9 21.5q0 12 9 20.5t21 8.5zM360 53q12 0 21 -8.5t9 -20.5q0 -13 -9 -21.5t-21 -8.5t-21 8.5t-9 21.5q0 12 9 20.5t21 8.5zM602 53q12 0 21 -8.5t9 -20.5q0 -13 -9 -21.5t-21 -8.5t-21 8.5t-9 21.5
q0 12 9 20.5t21 8.5z" />
    <glyph glyph-name="perthousand" unicode="&#x2030;" horiz-adv-x="1430" 
d="M743 712l-433 -724h-36l433 724h36zM230 711q77 0 129.5 -57t52.5 -167q0 -113 -52 -170t-130 -57t-130 57t-52 170q0 110 52 167t130 57zM231 680q-65 0 -105 -49t-40 -144q0 -98 40 -147.5t105 -49.5q64 0 104.5 50t40.5 147q0 95 -40.5 144t-104.5 49zM783 442
q77 0 129 -57t52 -168q0 -113 -51.5 -170t-129.5 -57t-130.5 57t-52.5 170q0 111 52.5 168t130.5 57zM1199 442q78 0 130 -57t52 -168q0 -113 -52 -170t-130 -57t-130 57t-52 170q0 110 52.5 167.5t129.5 57.5zM784 411q-65 0 -105.5 -49t-40.5 -144q0 -98 40 -148t106 -50
q64 0 104 50t40 147q0 95 -40 144.5t-104 49.5zM1199 411q-65 0 -105 -49t-40 -144q0 -98 40 -148t105 -50q64 0 104.5 50t40.5 147q0 95 -40.5 144.5t-104.5 49.5z" />
    <glyph glyph-name="guilsinglleft" unicode="&#x2039;" horiz-adv-x="253" 
d="M175 467l22 -15l-103 -171l103 -178l-22 -15l-120 171v43z" />
    <glyph glyph-name="guilsinglright" unicode="&#x203a;" horiz-adv-x="253" 
d="M76 467l121 -165v-43l-121 -171l-21 15l103 178l-103 171z" />
    <glyph glyph-name="uni203D" unicode="&#x203d;" horiz-adv-x="519" 
d="M264 706q58 0 100.5 -16.5t64.5 -44t32.5 -55.5t10.5 -56q0 -46 -19 -81t-46 -57.5t-54 -43t-46 -49t-19 -64.5v-49h-39l-8 274v204q-62 -7 -102 -46t-56 -89l-39 12q17 60 74 110.5t146 50.5zM287 464l-6 -144q14 22 41.5 48.5t49.5 45.5t39 50t17 68q0 54 -34 92
t-107 44v-204zM269 59q14 0 23.5 -9.5t9.5 -22.5t-10 -23t-23 -10t-23 10t-10 23t9.5 22.5t23.5 9.5z" />
    <glyph glyph-name="fraction" unicode="&#x2044;" horiz-adv-x="192" 
d="M330 712l-433 -724h-36l433 724h36z" />
    <glyph glyph-name="uni2070" unicode="&#x2070;" horiz-adv-x="400" 
d="M200 758q75 0 117.5 -55t42.5 -164q0 -107 -42.5 -161t-117.5 -54q-74 0 -117 54.5t-43 160.5q0 109 42.5 164t117.5 55zM200 724q-118 0 -118 -185q0 -90 31 -135.5t87 -45.5t87 45.5t31 135.5q0 185 -118 185z" />
    <glyph glyph-name="uni2074" unicode="&#x2074;" horiz-adv-x="400" 
d="M300 750v-285h75v-34h-75v-101h-40v101h-235v35l223 284h52zM260 708l-194 -243h194v243z" />
    <glyph glyph-name="uni2075" unicode="&#x2075;" horiz-adv-x="400" 
d="M336 750l-6 -34h-210l-20 -137q43 46 115 46q61 0 102.5 -39.5t41.5 -103.5q0 -70 -44.5 -114t-119.5 -44q-63 0 -101.5 28t-52.5 66l37 14q11 -31 41 -53t78 -22q53 0 86.5 35t33.5 88q0 51 -31.5 81t-79.5 30q-69 0 -114 -54l-35 6l30 207h249z" />
    <glyph glyph-name="uni2076" unicode="&#x2076;" horiz-adv-x="400" 
d="M212 758q94 0 130 -80l-35 -12q-28 59 -95 59q-118 0 -130 -191q13 35 48 57.5t83 22.5q61 0 102 -38.5t41 -103.5q0 -66 -42 -107t-111 -41q-71 0 -115 44.5t-44 129.5q0 128 44 194t124 66zM203 581q-51 0 -83 -31.5t-32 -76.5q0 -51 31 -83.5t83 -32.5q49 0 80 31.5
t31 81.5t-30 80.5t-80 30.5z" />
    <glyph glyph-name="uni2077" unicode="&#x2077;" horiz-adv-x="400" 
d="M350 750v-34q-81 -90 -120.5 -178.5t-55.5 -207.5h-45q18 123 59.5 211.5t119.5 174.5h-222v-48h-36v82h300z" />
    <glyph glyph-name="uni2078" unicode="&#x2078;" horiz-adv-x="400" 
d="M198 324q-82 0 -123.5 36t-41.5 83q0 92 108 115q-46 18 -66 41t-20 56q0 39 36 71t107 32q72 0 108 -30.5t36 -71.5q0 -35 -27 -61t-65 -38q65 -19 90.5 -44.5t25.5 -67.5q0 -48 -40 -84.5t-128 -36.5zM196 573l18 -5q39 12 63.5 34.5t24.5 51.5t-25.5 50.5t-77.5 21.5
q-51 0 -77 -21.5t-26 -49.5q0 -32 23.5 -49t76.5 -33zM199 357q65 0 95 26t30 61q0 39 -28.5 57.5t-98.5 37.5l-18 5q-104 -18 -104 -99q0 -36 31.5 -62t92.5 -26z" />
    <glyph glyph-name="uni2079" unicode="&#x2079;" horiz-adv-x="400" 
d="M185 323q-95 0 -136 79l35 15q29 -61 102 -61q122 0 128 198q-13 -33 -46.5 -54.5t-81.5 -21.5q-61 0 -101.5 37.5t-40.5 100.5t43.5 102t111.5 39q71 0 113.5 -43t42.5 -123q0 -268 -170 -268zM196 511q51 0 83.5 31.5t32.5 74.5q0 46 -30.5 76.5t-81.5 30.5
q-50 0 -82 -29.5t-32 -77.5t30 -77t80 -29z" />
    <glyph glyph-name="uni207A" unicode="&#x207a;" horiz-adv-x="384" 
d="M199 645v-108h108v-28h-108v-108h-32v108h-108v28h108v108h32z" />
    <glyph glyph-name="uni207B" unicode="&#x207b;" horiz-adv-x="384" 
d="M307 537v-28h-248v28h248z" />
    <glyph glyph-name="uni207C" unicode="&#x207c;" horiz-adv-x="384" 
d="M307 594v-29h-248v29h248zM307 476v-29h-248v29h248z" />
    <glyph glyph-name="uni2080" unicode="&#x2080;" horiz-adv-x="400" 
d="M200 268q75 0 117.5 -55t42.5 -164q0 -107 -42.5 -161t-117.5 -54q-74 0 -117 54.5t-43 160.5q0 109 42.5 164t117.5 55zM200 234q-118 0 -118 -185q0 -90 31 -135.5t87 -45.5t87 45.5t31 135.5q0 185 -118 185z" />
    <glyph glyph-name="uni2081" unicode="&#x2081;" horiz-adv-x="400" 
d="M87 -160v34h110v279h-106v29h27q51 0 67.5 15.5t20.5 62.5h32v-386h100v-34h-251z" />
    <glyph glyph-name="uni2082" unicode="&#x2082;" horiz-adv-x="400" 
d="M201 268q65 0 102 -32.5t37 -87.5q0 -65 -62 -135.5t-172 -138.5h243v-34h-298v32q121 82 183 149t62 125q0 43 -25 65.5t-71 22.5q-49 0 -75.5 -26t-28.5 -67h-42q1 52 39.5 89.5t107.5 37.5z" />
    <glyph glyph-name="uni2083" unicode="&#x2083;" horiz-adv-x="400" 
d="M203 268q67 0 104 -30t37 -79q0 -38 -25 -63t-67 -30q44 -3 74.5 -31t30.5 -73q0 -59 -44.5 -93.5t-112.5 -34.5q-62 0 -103.5 29t-54.5 79l39 9q10 -37 41 -60t79 -23q49 0 81.5 25t32.5 70q0 40 -28.5 63t-74.5 23h-48v31h44q42 0 68 19.5t26 56.5q0 38 -27 58.5
t-72 20.5q-44 0 -72.5 -20.5t-37.5 -56.5l-38 5q10 45 49 75t99 30z" />
    <glyph glyph-name="uni2084" unicode="&#x2084;" horiz-adv-x="400" 
d="M300 260v-285h75v-34h-75v-101h-40v101h-235v35l223 284h52zM260 218l-194 -243h194v243z" />
    <glyph glyph-name="uni2085" unicode="&#x2085;" horiz-adv-x="400" 
d="M336 260l-6 -34h-210l-20 -137q43 46 115 46q61 0 102.5 -39.5t41.5 -103.5q0 -70 -44.5 -114t-119.5 -44q-63 0 -101.5 28t-52.5 66l37 14q11 -31 41 -53t78 -22q53 0 86.5 35t33.5 88q0 51 -31.5 81t-79.5 30q-69 0 -114 -54l-35 6l30 207h249z" />
    <glyph glyph-name="uni2086" unicode="&#x2086;" horiz-adv-x="400" 
d="M212 268q94 0 130 -80l-35 -12q-28 59 -95 59q-118 0 -130 -191q13 35 48 57.5t83 22.5q61 0 102 -38.5t41 -103.5q0 -66 -42 -107t-111 -41q-71 0 -115 44.5t-44 129.5q0 128 44 194t124 66zM203 91q-51 0 -83 -31.5t-32 -76.5q0 -51 31 -83.5t83 -32.5q49 0 80 31.5
t31 81.5t-30 80.5t-80 30.5z" />
    <glyph glyph-name="uni2087" unicode="&#x2087;" horiz-adv-x="400" 
d="M350 260v-34q-81 -90 -120.5 -178.5t-55.5 -207.5h-45q18 123 59.5 211.5t119.5 174.5h-222v-48h-36v82h300z" />
    <glyph glyph-name="uni2088" unicode="&#x2088;" horiz-adv-x="400" 
d="M198 -166q-82 0 -123.5 36t-41.5 83q0 92 108 115q-46 18 -66 41t-20 56q0 39 36 71t107 32q72 0 108 -30.5t36 -71.5q0 -35 -27 -61t-65 -38q65 -19 90.5 -44.5t25.5 -67.5q0 -48 -40 -84.5t-128 -36.5zM196 83l18 -5q39 12 63.5 34.5t24.5 51.5t-25.5 50.5t-77.5 21.5
q-51 0 -77 -21.5t-26 -49.5q0 -32 23.5 -49t76.5 -33zM199 -133q65 0 95 26t30 61q0 39 -28.5 57.5t-98.5 37.5l-18 5q-104 -18 -104 -99q0 -36 31.5 -62t92.5 -26z" />
    <glyph glyph-name="uni2089" unicode="&#x2089;" horiz-adv-x="400" 
d="M185 -167q-95 0 -136 79l35 15q29 -61 102 -61q122 0 128 198q-13 -33 -46.5 -54.5t-81.5 -21.5q-61 0 -101.5 37.5t-40.5 100.5t43.5 102t111.5 39q71 0 113.5 -43t42.5 -123q0 -268 -170 -268zM196 21q51 0 83.5 31.5t32.5 74.5q0 46 -30.5 76.5t-81.5 30.5
q-50 0 -82 -29.5t-32 -77.5t30 -77t80 -29z" />
    <glyph glyph-name="uni208A" unicode="&#x208a;" horiz-adv-x="366" 
d="M199 155v-108h108v-28h-108v-108h-32v108h-108v28h108v108h32z" />
    <glyph glyph-name="uni208B" unicode="&#x208b;" horiz-adv-x="366" 
d="M307 47v-28h-248v28h248z" />
    <glyph glyph-name="uni208C" unicode="&#x208c;" horiz-adv-x="366" 
d="M307 94v-29h-248v29h248zM307 -24v-29h-248v29h248z" />
    <glyph glyph-name="uni208D" unicode="&#x208d;" horiz-adv-x="300" 
d="M196 289h26q-79 -115 -79 -242q0 -129 79 -242h-27q-40 53 -62.5 118.5t-22.5 123.5t23 123.5t63 118.5z" />
    <glyph glyph-name="uni208E" unicode="&#x208e;" horiz-adv-x="300" 
d="M98 289h26q40 -53 63 -118.5t23 -123.5t-22.5 -123.5t-62.5 -118.5h-27q79 113 79 242q0 127 -79 242z" />
    <glyph glyph-name="Euro" unicode="&#x20ac;" horiz-adv-x="660" 
d="M399 711q120 0 191 -82l-14 -39q-70 84 -177 84q-90 0 -151 -62t-77 -179h335l-9 -27h-329q-2 -18 -2 -58t2 -57h294l-9 -26h-282q12 -120 69.5 -179.5t146.5 -59.5q111 0 174 72v-46q-68 -63 -174 -63q-100 0 -170 66.5t-86 209.5h-85l9 26h73q-2 17 -2 57t2 58h-79
l9 27h73q18 137 92 207.5t176 70.5z" />
    <glyph glyph-name="uni20B9" unicode="&#x20b9;" 
d="M522 700v-31h-178q96 -46 96 -151v-11h82v-29h-85q-14 -71 -72 -105.5t-148 -34.5h-86l330 -338h-48l-330 337v37h129q156 0 181 104h-311v29h315v13q0 66 -49.5 107.5t-135.5 41.5h-130v31h440z" />
    <glyph glyph-name="uni20BA" unicode="&#x20ba;" 
d="M482 213h36q-3 -85 -69.5 -154t-172.5 -69q-60 0 -106 13v356l-94 -50v28l94 50v133l-94 -50v28l94 50v152h42v-129l224 119v-28l-224 -119v-133l224 120v-28l-224 -120v-349q37 -7 70 -7q82 0 139.5 58t60.5 129z" />
    <glyph glyph-name="uni20BD" unicode="&#x20bd;" 
d="M321 295h-180v-108h260v-29h-260v-158h-42v158h-62v29h62v108h-64v36h64v369h219q127 0 186.5 -55t59.5 -146q0 -97 -60.5 -150.5t-182.5 -53.5zM141 662v-331h183q195 0 195 168q0 77 -48 120t-148 43h-182z" />
    <glyph glyph-name="uni2105" unicode="&#x2105;" horiz-adv-x="900" 
d="M683 712l-433 -724h-36l433 724h36zM231 677q41 0 73 -20t47 -53l-24 -10q-29 56 -96 56q-54 0 -86 -38t-32 -97q0 -58 31.5 -96.5t83.5 -38.5q76 0 106 70l24 -9q-37 -87 -130 -87q-68 0 -107 46t-39 115q0 70 40.5 116t108.5 46zM668 316q67 0 108 -46.5t41 -113.5
q0 -72 -39.5 -117t-109.5 -45q-69 0 -109 45.5t-40 116.5q0 69 40.5 114.5t108.5 45.5zM668 289q-54 0 -86 -37.5t-32 -95.5q0 -60 31.5 -98t86.5 -38t86 38t31 98q0 57 -32 95t-85 38z" />
    <glyph glyph-name="uni2113" unicode="&#x2113;" 
d="M377 -12q-57 0 -94 36.5t-37 109.5v124l-78 -87l-14 31l92 103v261q0 74 28 110t77 36q46 0 68 -28t22 -69q0 -39 -12 -79.5t-39.5 -88t-45.5 -74t-56 -79.5v-151q0 -117 96 -117q34 0 61 11v-34q-30 -15 -68 -15zM288 561v-212q36 56 53.5 84.5t39.5 82.5t22 93
q0 71 -51 71q-64 0 -64 -119z" />
    <glyph glyph-name="uni2116" unicode="&#x2116;" horiz-adv-x="1200" 
d="M675 700v-700h-46l-411 627v-627h-41v700h44l413 -633v633h41zM928 373q-69 0 -109 45.5t-40 116.5q0 69 40.5 114.5t108.5 45.5q67 0 108 -46.5t41 -113.5q0 -72 -39.5 -117t-109.5 -45zM928 400q55 0 86 37.5t31 97.5q0 57 -32 95.5t-85 38.5q-54 0 -86 -38t-32 -96
q0 -60 31.5 -97.5t86.5 -37.5zM801 250v28h268v-28h-268z" />
    <glyph glyph-name="uni2117" unicode="&#x2117;" horiz-adv-x="900" 
d="M451 -11q-151 0 -256.5 104t-105.5 256t105.5 257t256.5 105t255.5 -105t104.5 -257t-104.5 -256t-255.5 -104zM451 14q140 0 236.5 97t96.5 238t-96.5 239t-236.5 98t-238 -98t-98 -239t97.5 -238t238.5 -97zM338 135v425h136q71 0 109 -32t38 -90q0 -50 -35 -84.5
t-103 -34.5h-117v-184h-28zM366 342h118q51 0 78.5 27t27.5 71q0 45 -30.5 70t-85.5 25h-108v-193z" />
    <glyph glyph-name="uni2120" unicode="&#x2120;" horiz-adv-x="1200" 
d="M326 707q111 0 168 -73l-24 -19q-49 61 -145 61q-59 0 -92.5 -21.5t-33.5 -57.5t31 -54.5t110 -32.5q86 -15 122.5 -44.5t36.5 -83.5q0 -55 -44.5 -89t-128.5 -34q-127 0 -187 72l25 22q57 -63 163 -63q62 0 99 25.5t37 65.5t-30.5 62t-113.5 35q-79 12 -117.5 40.5
t-38.5 78.5q0 49 44 79.5t119 30.5zM996 700l60 -435h-37l-55 390l-121 -390h-42l-132 389l-51 -389h-36l55 435h54l131 -395l121 395h53z" />
    <glyph glyph-name="trademark" unicode="&#x2122;" horiz-adv-x="1000" 
d="M425 700v-33h-166v-402h-39v402h-160v33h365zM875 700l59 -435h-37l-55 390l-120 -390h-43l-132 389l-51 -389h-36l55 435h54l131 -395l122 395h53z" />
    <glyph glyph-name="Omega" unicode="&#x2126;" horiz-adv-x="751" 
d="M375 711q58 0 110.5 -20t98 -60.5t72.5 -112.5t27 -166q0 -250 -175 -313h167v-39h-225v39q85 22 136.5 101.5t51.5 211.5q0 155 -74 237.5t-189 82.5q-113 0 -188 -82t-75 -236q0 -132 52.5 -212.5t136.5 -102.5v-39h-225v39h168q-176 64 -176 314q0 92 26.5 163
t71 112.5t97.5 62t112 20.5z" />
    <glyph glyph-name="estimated" unicode="&#x212e;" horiz-adv-x="945" 
d="M473 711q163 0 281 -104.5t120 -259.5h-655v-255q34 -36 103.5 -61t148.5 -25q188 0 292 112h25q-116 -129 -317 -129q-170 0 -285 102t-115 254q0 155 117.5 260.5t284.5 105.5zM473 694q-159 0 -254 -89v-241h509v240q-103 90 -255 90z" />
    <glyph glyph-name="uni2150" unicode="&#x2150;" horiz-adv-x="962" 
d="M720 712l-433 -724h-36l433 724h36zM912 420v-34q-81 -90 -120.5 -178.5t-55.5 -207.5h-45q18 123 59.5 211.5t119.5 174.5h-222v-48h-36v82h300zM87 280v34h110v279h-106v29h27q51 0 67.5 15.5t20.5 62.5h32v-386h100v-34h-251z" />
    <glyph glyph-name="uni2151" unicode="&#x2151;" horiz-adv-x="932" 
d="M720 712l-433 -724h-36l433 724h36zM717 -6q-95 0 -136 79l35 15q29 -61 102 -61q122 0 128 198q-13 -33 -46.5 -54.5t-81.5 -21.5q-61 0 -101.5 37.5t-40.5 100.5t43.5 102t111.5 39q71 0 113.5 -43t42.5 -123q0 -268 -170 -268zM728 182q51 0 83.5 31.5t32.5 74.5
q0 46 -30.5 76.5t-81.5 30.5q-50 0 -82 -29.5t-32 -77.5t30 -77t80 -29zM87 280v34h110v279h-106v29h27q51 0 67.5 15.5t20.5 62.5h32v-386h100v-34h-251z" />
    <glyph glyph-name="uni2152" unicode="&#x2152;" horiz-adv-x="1322" 
d="M720 712l-433 -724h-36l433 724h36zM609 0v34h110v279h-106v29h27q51 0 67.5 15.5t20.5 62.5h32v-386h100v-34h-251zM1122 428q75 0 117.5 -55t42.5 -164q0 -107 -42.5 -161t-117.5 -54q-74 0 -117 54.5t-43 160.5q0 109 42.5 164t117.5 55zM1122 394q-118 0 -118 -185
q0 -90 31 -135.5t87 -45.5t87 45.5t31 135.5q0 185 -118 185zM87 280v34h110v279h-106v29h27q51 0 67.5 15.5t20.5 62.5h32v-386h100v-34h-251z" />
    <glyph glyph-name="onethird" unicode="&#x2153;" horiz-adv-x="932" 
d="M720 712l-433 -724h-36l433 724h36zM735 428q67 0 104 -30t37 -79q0 -38 -25 -63t-67 -30q44 -3 74.5 -31t30.5 -73q0 -59 -44.5 -93.5t-112.5 -34.5q-62 0 -103.5 29t-54.5 79l39 9q10 -37 41 -60t79 -23q49 0 81.5 25t32.5 70q0 40 -28.5 63t-74.5 23h-48v31h44
q42 0 68 19.5t26 56.5q0 38 -27 58.5t-72 20.5q-44 0 -72.5 -20.5t-37.5 -56.5l-38 5q10 45 49 75t99 30zM87 280v34h110v279h-106v29h27q51 0 67.5 15.5t20.5 62.5h32v-386h100v-34h-251z" />
    <glyph glyph-name="twothirds" unicode="&#x2154;" horiz-adv-x="932" 
d="M720 712l-433 -724h-36l433 724h36zM735 428q67 0 104 -30t37 -79q0 -38 -25 -63t-67 -30q44 -3 74.5 -31t30.5 -73q0 -59 -44.5 -93.5t-112.5 -34.5q-62 0 -103.5 29t-54.5 79l39 9q10 -37 41 -60t79 -23q49 0 81.5 25t32.5 70q0 40 -28.5 63t-74.5 23h-48v31h44
q42 0 68 19.5t26 56.5q0 38 -27 58.5t-72 20.5q-44 0 -72.5 -20.5t-37.5 -56.5l-38 5q10 45 49 75t99 30zM201 708q65 0 102 -32.5t37 -87.5q0 -65 -62 -135.5t-172 -138.5h243v-34h-298v32q121 82 183 149t62 125q0 43 -25 65.5t-71 22.5q-49 0 -75.5 -26t-28.5 -67h-42
q1 52 39.5 89.5t107.5 37.5z" />
    <glyph glyph-name="uni2155" unicode="&#x2155;" horiz-adv-x="942" 
d="M720 712l-433 -724h-36l433 724h36zM878 420l-6 -34h-210l-20 -137q43 46 115 46q61 0 102.5 -39.5t41.5 -103.5q0 -70 -44.5 -114t-119.5 -44q-63 0 -101.5 28t-52.5 66l37 14q11 -31 41 -53t78 -22q53 0 86.5 35t33.5 88q0 51 -31.5 81t-79.5 30q-69 0 -114 -54l-35 6
l30 207h249zM87 280v34h110v279h-106v29h27q51 0 67.5 15.5t20.5 62.5h32v-386h100v-34h-251z" />
    <glyph glyph-name="uni2156" unicode="&#x2156;" horiz-adv-x="942" 
d="M720 712l-433 -724h-36l433 724h36zM878 420l-6 -34h-210l-20 -137q43 46 115 46q61 0 102.5 -39.5t41.5 -103.5q0 -70 -44.5 -114t-119.5 -44q-63 0 -101.5 28t-52.5 66l37 14q11 -31 41 -53t78 -22q53 0 86.5 35t33.5 88q0 51 -31.5 81t-79.5 30q-69 0 -114 -54l-35 6
l30 207h249zM201 708q65 0 102 -32.5t37 -87.5q0 -65 -62 -135.5t-172 -138.5h243v-34h-298v32q121 82 183 149t62 125q0 43 -25 65.5t-71 22.5q-49 0 -75.5 -26t-28.5 -67h-42q1 52 39.5 89.5t107.5 37.5z" />
    <glyph glyph-name="uni2157" unicode="&#x2157;" horiz-adv-x="902" 
d="M680 712l-433 -724h-36l433 724h36zM838 420l-6 -34h-210l-20 -137q43 46 115 46q61 0 102.5 -39.5t41.5 -103.5q0 -70 -44.5 -114t-119.5 -44q-63 0 -101.5 28t-52.5 66l37 14q11 -31 41 -53t78 -22q53 0 86.5 35t33.5 88q0 51 -31.5 81t-79.5 30q-69 0 -114 -54l-35 6
l30 207h249zM203 708q67 0 104 -30t37 -79q0 -38 -25 -63t-67 -30q44 -3 74.5 -31t30.5 -73q0 -59 -44.5 -93.5t-112.5 -34.5q-62 0 -103.5 29t-54.5 79l39 9q10 -37 41 -60t79 -23q49 0 81.5 25t32.5 70q0 40 -28.5 63t-74.5 23h-48v31h44q42 0 68 19.5t26 56.5
q0 38 -27 58.5t-72 20.5q-44 0 -72.5 -20.5t-37.5 -56.5l-38 5q10 45 49 75t99 30z" />
    <glyph glyph-name="uni2158" unicode="&#x2158;" horiz-adv-x="932" 
d="M710 712l-433 -724h-36l433 724h36zM868 420l-6 -34h-210l-20 -137q43 46 115 46q61 0 102.5 -39.5t41.5 -103.5q0 -70 -44.5 -114t-119.5 -44q-63 0 -101.5 28t-52.5 66l37 14q11 -31 41 -53t78 -22q53 0 86.5 35t33.5 88q0 51 -31.5 81t-79.5 30q-69 0 -114 -54l-35 6
l30 207h249zM300 700v-285h75v-34h-75v-101h-40v101h-235v35l223 284h52zM260 658l-194 -243h194v243z" />
    <glyph glyph-name="uni2159" unicode="&#x2159;" horiz-adv-x="922" 
d="M720 712l-433 -724h-36l433 724h36zM734 428q94 0 130 -80l-35 -12q-28 59 -95 59q-118 0 -130 -191q13 35 48 57.5t83 22.5q61 0 102 -38.5t41 -103.5q0 -66 -42 -107t-111 -41q-71 0 -115 44.5t-44 129.5q0 128 44 194t124 66zM725 251q-51 0 -83 -31.5t-32 -76.5
q0 -51 31 -83.5t83 -32.5q49 0 80 31.5t31 81.5t-30 80.5t-80 30.5zM87 280v34h110v279h-106v29h27q51 0 67.5 15.5t20.5 62.5h32v-386h100v-34h-251z" />
    <glyph glyph-name="uni215A" unicode="&#x215a;" horiz-adv-x="882" 
d="M680 712l-433 -724h-36l433 724h36zM694 428q94 0 130 -80l-35 -12q-28 59 -95 59q-118 0 -130 -191q13 35 48 57.5t83 22.5q61 0 102 -38.5t41 -103.5q0 -66 -42 -107t-111 -41q-71 0 -115 44.5t-44 129.5q0 128 44 194t124 66zM685 251q-51 0 -83 -31.5t-32 -76.5
q0 -51 31 -83.5t83 -32.5q49 0 80 31.5t31 81.5t-30 80.5t-80 30.5zM336 700l-6 -34h-210l-20 -137q43 46 115 46q61 0 102.5 -39.5t41.5 -103.5q0 -70 -44.5 -114t-119.5 -44q-63 0 -101.5 28t-52.5 66l37 14q11 -31 41 -53t78 -22q53 0 86.5 35t33.5 88q0 51 -31.5 81
t-79.5 30q-69 0 -114 -54l-35 6l30 207h249z" />
    <glyph glyph-name="oneeighth" unicode="&#x215b;" horiz-adv-x="932" 
d="M720 712l-433 -724h-36l433 724h36zM730 -6q-82 0 -123.5 36t-41.5 83q0 92 108 115q-46 18 -66 41t-20 56q0 39 36 71t107 32q72 0 108 -30.5t36 -71.5q0 -35 -27 -61t-65 -38q65 -19 90.5 -44.5t25.5 -67.5q0 -48 -40 -84.5t-128 -36.5zM728 243l18 -5q39 12 63.5 34.5
t24.5 51.5t-25.5 50.5t-77.5 21.5q-51 0 -77 -21.5t-26 -49.5q0 -32 23.5 -49t76.5 -33zM731 27q65 0 95 26t30 61q0 39 -28.5 57.5t-98.5 37.5l-18 5q-104 -18 -104 -99q0 -36 31.5 -62t92.5 -26zM87 280v34h110v279h-106v29h27q51 0 67.5 15.5t20.5 62.5h32v-386h100v-34
h-251z" />
    <glyph glyph-name="threeeighths" unicode="&#x215c;" horiz-adv-x="892" 
d="M680 712l-433 -724h-36l433 724h36zM690 -6q-82 0 -123.5 36t-41.5 83q0 92 108 115q-46 18 -66 41t-20 56q0 39 36 71t107 32q72 0 108 -30.5t36 -71.5q0 -35 -27 -61t-65 -38q65 -19 90.5 -44.5t25.5 -67.5q0 -48 -40 -84.5t-128 -36.5zM688 243l18 -5q39 12 63.5 34.5
t24.5 51.5t-25.5 50.5t-77.5 21.5q-51 0 -77 -21.5t-26 -49.5q0 -32 23.5 -49t76.5 -33zM691 27q65 0 95 26t30 61q0 39 -28.5 57.5t-98.5 37.5l-18 5q-104 -18 -104 -99q0 -36 31.5 -62t92.5 -26zM203 708q67 0 104 -30t37 -79q0 -38 -25 -63t-67 -30q44 -3 74.5 -31
t30.5 -73q0 -59 -44.5 -93.5t-112.5 -34.5q-62 0 -103.5 29t-54.5 79l39 9q10 -37 41 -60t79 -23q49 0 81.5 25t32.5 70q0 40 -28.5 63t-74.5 23h-48v31h44q42 0 68 19.5t26 56.5q0 38 -27 58.5t-72 20.5q-44 0 -72.5 -20.5t-37.5 -56.5l-38 5q10 45 49 75t99 30z" />
    <glyph glyph-name="fiveeighths" unicode="&#x215d;" horiz-adv-x="892" 
d="M680 712l-433 -724h-36l433 724h36zM690 -6q-82 0 -123.5 36t-41.5 83q0 92 108 115q-46 18 -66 41t-20 56q0 39 36 71t107 32q72 0 108 -30.5t36 -71.5q0 -35 -27 -61t-65 -38q65 -19 90.5 -44.5t25.5 -67.5q0 -48 -40 -84.5t-128 -36.5zM688 243l18 -5q39 12 63.5 34.5
t24.5 51.5t-25.5 50.5t-77.5 21.5q-51 0 -77 -21.5t-26 -49.5q0 -32 23.5 -49t76.5 -33zM691 27q65 0 95 26t30 61q0 39 -28.5 57.5t-98.5 37.5l-18 5q-104 -18 -104 -99q0 -36 31.5 -62t92.5 -26zM336 700l-6 -34h-210l-20 -137q43 46 115 46q61 0 102.5 -39.5t41.5 -103.5
q0 -70 -44.5 -114t-119.5 -44q-63 0 -101.5 28t-52.5 66l37 14q11 -31 41 -53t78 -22q53 0 86.5 35t33.5 88q0 51 -31.5 81t-79.5 30q-69 0 -114 -54l-35 6l30 207h249z" />
    <glyph glyph-name="seveneighths" unicode="&#x215e;" horiz-adv-x="842" 
d="M630 712l-433 -724h-36l433 724h36zM640 -6q-82 0 -123.5 36t-41.5 83q0 92 108 115q-46 18 -66 41t-20 56q0 39 36 71t107 32q72 0 108 -30.5t36 -71.5q0 -35 -27 -61t-65 -38q65 -19 90.5 -44.5t25.5 -67.5q0 -48 -40 -84.5t-128 -36.5zM638 243l18 -5q39 12 63.5 34.5
t24.5 51.5t-25.5 50.5t-77.5 21.5q-51 0 -77 -21.5t-26 -49.5q0 -32 23.5 -49t76.5 -33zM641 27q65 0 95 26t30 61q0 39 -28.5 57.5t-98.5 37.5l-18 5q-104 -18 -104 -99q0 -36 31.5 -62t92.5 -26zM350 700v-34q-81 -90 -120.5 -178.5t-55.5 -207.5h-45q18 123 59.5 211.5
t119.5 174.5h-222v-48h-36v82h300z" />
    <glyph glyph-name="uni215F" unicode="&#x215f;" horiz-adv-x="582" 
d="M720 712l-433 -724h-36l433 724h36zM87 280v34h110v279h-106v29h27q51 0 67.5 15.5t20.5 62.5h32v-386h100v-34h-251z" />
    <glyph glyph-name="uni2189" unicode="&#x2189;" horiz-adv-x="882" 
d="M670 712l-433 -724h-36l433 724h36zM685 428q67 0 104 -30t37 -79q0 -38 -25 -63t-67 -30q44 -3 74.5 -31t30.5 -73q0 -59 -44.5 -93.5t-112.5 -34.5q-62 0 -103.5 29t-54.5 79l39 9q10 -37 41 -60t79 -23q49 0 81.5 25t32.5 70q0 40 -28.5 63t-74.5 23h-48v31h44
q42 0 68 19.5t26 56.5q0 38 -27 58.5t-72 20.5q-44 0 -72.5 -20.5t-37.5 -56.5l-38 5q10 45 49 75t99 30zM200 708q75 0 117.5 -55t42.5 -164q0 -107 -42.5 -161t-117.5 -54q-74 0 -117 54.5t-43 160.5q0 109 42.5 164t117.5 55zM200 674q-118 0 -118 -185q0 -90 31 -135.5
t87 -45.5t87 45.5t31 135.5q0 185 -118 185z" />
    <glyph glyph-name="arrowleft" unicode="&#x2190;" horiz-adv-x="900" 
d="M399 637l31 -27l-245 -263h596v-36h-596l245 -263l-31 -27l-281 308z" />
    <glyph glyph-name="arrowup" unicode="&#x2191;" horiz-adv-x="900" 
d="M450 663l308 -282l-25 -28l-262 244v-597h-42v597l-263 -244l-24 28z" />
    <glyph glyph-name="arrowright" unicode="&#x2192;" horiz-adv-x="900" 
d="M500 637l281 -308l-281 -308l-31 27l245 263h-596v36h596l-245 263z" />
    <glyph glyph-name="arrowdown" unicode="&#x2193;" horiz-adv-x="900" 
d="M471 626v-597l262 244l25 -28l-308 -282l-308 282l24 28l263 -244v597h42z" />
    <glyph glyph-name="arrowboth" unicode="&#x2194;" horiz-adv-x="1280" 
d="M889 637l281 -308l-281 -308l-30 27l244 263h-928l245 -263l-31 -27l-281 308l281 308l31 -27l-245 -263h928l-244 263z" />
    <glyph glyph-name="arrowupdn" unicode="&#x2195;" horiz-adv-x="900" 
d="M450 881l308 -283l-25 -28l-262 245v-950l262 245l25 -28l-308 -283l-308 283l24 28l263 -245v950l-263 -245l-24 28z" />
    <glyph glyph-name="uni2196" unicode="&#x2196;" horiz-adv-x="900" 
d="M634 591l2 -39l-358 -13l419 -420l-27 -28l-420 420l-13 -358l-40 1l19 418z" />
    <glyph glyph-name="uni2197" unicode="&#x2197;" horiz-adv-x="900" 
d="M267 591l417 -19l19 -418l-40 -1l-13 358l-419 -420l-28 28l420 420l-359 13z" />
    <glyph glyph-name="uni2198" unicode="&#x2198;" horiz-adv-x="900" 
d="M229 543l420 -421l13 359l40 -1l-19 -418l-418 -19l-3 39l359 13l-420 420z" />
    <glyph glyph-name="uni2199" unicode="&#x2199;" horiz-adv-x="900" 
d="M670 543l27 -28l-419 -420l358 -13l-2 -39l-418 19l-19 418l40 1l13 -359z" />
    <glyph glyph-name="partialdiff" unicode="&#x2202;" horiz-adv-x="596" 
d="M135 671v35q206 -7 300.5 -109.5t94.5 -327.5q0 -135 -65 -207.5t-172 -72.5q-105 0 -170 64.5t-65 169.5q0 107 64.5 170.5t162.5 63.5q82 0 133.5 -38.5t70.5 -91.5q-16 177 -97 257.5t-257 86.5zM290 421q-85 0 -137 -54.5t-52 -143.5q0 -91 53.5 -144.5t138.5 -53.5
q86 0 138.5 58.5t52.5 150.5q0 81 -53 134t-141 53z" />
    <glyph glyph-name="emptyset" unicode="&#x2205;" horiz-adv-x="900" 
d="M727 710l-55 -74q65 -50 102 -125.5t37 -161.5q0 -151 -104 -255.5t-256 -104.5q-116 0 -210 65l-47 -64h-35l60 81q-60 51 -94.5 123t-34.5 155q0 151 104.5 256.5t256.5 105.5q109 0 198 -59l43 58h35zM125 349q0 -153 115 -250l389 525q-79 53 -178 53
q-137 0 -231.5 -96t-94.5 -232zM451 23q137 0 230 95t93 231q0 78 -32.5 145.5t-90.5 113.5l-389 -526q85 -59 189 -59z" />
    <glyph glyph-name="Delta" unicode="&#x2206;" 
d="M329 700l248 -700h-554l250 700h56zM81 37h436l-217 625z" />
    <glyph glyph-name="product" unicode="&#x220f;" horiz-adv-x="620" 
d="M570 700v-35h-94v-665h-42v665h-249v-665h-42v665h-93v35h520z" />
    <glyph glyph-name="summation" unicode="&#x2211;" 
d="M530 700v-35h-410l244 -290v-33l-245 -306h411v-36h-459v31l260 327l-260 310v32h459z" />
    <glyph glyph-name="minus" unicode="&#x2212;" 
d="M488 310v-37h-376v37h376z" />
    <glyph glyph-name="uni2215" unicode="&#x2215;" 
d="M534 712l-433 -724h-36l433 724h36z" />
    <glyph glyph-name="uni2219" unicode="&#x2219;" 
d="M300 390q32 0 55 -22t23 -53q0 -32 -23 -55t-55 -23t-55 23t-23 55q0 31 23 53t55 22z" />
    <glyph glyph-name="radical" unicode="&#x221a;" 
d="M665 867v-35h-189l-241 -832h-44l-196 518l44 1l173 -467l233 815h220z" />
    <glyph glyph-name="infinity" unicode="&#x221e;" horiz-adv-x="876" 
d="M626 445q72 0 120.5 -52.5t48.5 -127.5q0 -81 -51 -131.5t-130 -50.5q-64 0 -103.5 36.5t-72.5 108.5q-66 -145 -188 -145q-72 0 -120.5 52t-48.5 128q0 80 50.5 131t128.5 51q65 0 105.5 -35.5t73.5 -106.5q65 142 187 142zM626 411q-56 0 -99.5 -40t-71.5 -108
q28 -70 64 -108t98 -38q56 0 97 40t41 108q0 63 -39 104.5t-90 41.5zM259 410q-56 0 -96.5 -39.5t-40.5 -107.5q0 -64 38.5 -105t89.5 -41q110 0 172 151q-29 69 -65 105.5t-98 36.5z" />
    <glyph glyph-name="integral" unicode="&#x222b;" horiz-adv-x="300" 
d="M271 853q47 0 101 -16v-34q-55 16 -96 16q-107 0 -107 -105v-782q0 -134 -141 -134q-47 0 -101 16v35q48 -16 96 -16q58 0 81.5 27t23.5 77v782q0 58 33.5 96t109.5 38z" />
    <glyph glyph-name="congruent" unicode="&#x2245;" 
d="M492 381v-38h-376v38h376zM492 177v-37h-376v37h376zM222 662q39 0 86.5 -29t72.5 -29q53 0 90 55l24 -21q-45 -71 -117 -71q-39 0 -86.5 29.5t-72.5 29.5q-52 0 -90 -55l-24 21q45 70 117 70z" />
    <glyph glyph-name="approxequal" unicode="&#x2248;" 
d="M222 453q39 0 86.5 -29t72.5 -29q53 0 90 55l24 -21q-45 -71 -117 -71q-39 0 -86.5 29.5t-72.5 29.5q-52 0 -90 -55l-24 21q45 70 117 70zM222 264q39 0 86.5 -29t72.5 -29q53 0 90 55l24 -21q-45 -71 -117 -71q-39 0 -86.5 29.5t-72.5 29.5q-52 0 -90 -55l-24 21
q45 70 117 70z" />
    <glyph glyph-name="uni2259" unicode="&#x2259;" 
d="M318 700l124 -181h-41l-101 149l-104 -149h-41l126 181h37zM488 424v-38h-376v38h376zM488 220v-37h-376v37h376z" />
    <glyph glyph-name="notequal" unicode="&#x2260;" 
d="M488 386h-118l-99 -166h217v-37h-240l-96 -161h-36l97 161h-101v37h123l100 166h-223v38h246l92 152h34l-91 -152h95v-38z" />
    <glyph glyph-name="lessequal" unicode="&#x2264;" 
d="M488 553v-40l-345 -159l345 -161v-40l-376 177v48zM488 37v-37h-376v37h376z" />
    <glyph glyph-name="greaterequal" unicode="&#x2265;" 
d="M112 553l376 -175v-48l-376 -177v40l345 161l-345 159v40zM488 37v-37h-376v37h376z" />
    <glyph glyph-name="dotmath" unicode="&#x22c5;" 
d="M300 326q14 0 23.5 -9.5t9.5 -22.5q0 -14 -9.5 -23.5t-23.5 -9.5t-23.5 9.5t-9.5 23.5q0 13 9.5 22.5t23.5 9.5z" />
    <glyph glyph-name="uni2460" unicode="&#x2460;" horiz-adv-x="900" 
d="M343 159v31h100v254h-96v26h24q47 0 62 14t18 57h29v-351h91v-31h-228zM451 711q151 0 255.5 -105t104.5 -257t-104.5 -256t-255.5 -104t-256.5 104t-105.5 256t105.5 257t256.5 105zM451 681q-138 0 -234 -96.5t-96 -235.5t96 -234.5t234 -95.5t233 95.5t95 234.5
t-95 235.5t-233 96.5z" />
    <glyph glyph-name="uni2461" unicode="&#x2461;" horiz-adv-x="900" 
d="M452 548q59 0 92.5 -30t33.5 -79q0 -60 -56.5 -124t-156.5 -125h221v-31h-271v29q111 76 167 136t56 113q0 39 -22.5 59.5t-64.5 20.5q-45 0 -69 -23.5t-26 -60.5h-38q1 47 36 81t98 34zM451 711q151 0 255.5 -105t104.5 -257t-104.5 -256t-255.5 -104t-256.5 104
t-105.5 256t105.5 257t256.5 105zM451 681q-138 0 -234 -96.5t-96 -235.5t96 -234.5t234 -95.5t233 95.5t95 234.5t-95 235.5t-233 96.5z" />
    <glyph glyph-name="uni2462" unicode="&#x2462;" horiz-adv-x="900" 
d="M454 548q60 0 94 -27.5t34 -71.5q0 -34 -23 -57t-61 -28q40 -2 68 -27.5t28 -66.5q0 -53 -40.5 -84.5t-102.5 -31.5q-57 0 -94.5 26t-49.5 72l36 8q9 -34 37.5 -55t71.5 -21q44 0 73.5 23t29.5 64q0 37 -25.5 57.5t-67.5 20.5h-44v28h40q38 0 62 18t24 51q0 34 -24.5 53
t-65.5 19q-40 0 -66 -19t-34 -51l-35 5q10 41 45.5 68t89.5 27zM451 711q151 0 255.5 -105t104.5 -257t-104.5 -256t-255.5 -104t-256.5 104t-105.5 256t105.5 257t256.5 105zM451 681q-138 0 -234 -96.5t-96 -235.5t96 -234.5t234 -95.5t233 95.5t95 234.5t-95 235.5
t-233 96.5z" />
    <glyph glyph-name="uni2463" unicode="&#x2463;" horiz-adv-x="900" 
d="M526 541v-259h68v-31h-68v-92h-37v92h-213v32l202 258h48zM489 503l-176 -221h176v221zM451 711q151 0 255.5 -105t104.5 -257t-104.5 -256t-255.5 -104t-256.5 104t-105.5 256t105.5 257t256.5 105zM451 681q-138 0 -234 -96.5t-96 -235.5t96 -234.5t234 -95.5t233 95.5
t95 234.5t-95 235.5t-233 96.5z" />
    <glyph glyph-name="uni2464" unicode="&#x2464;" horiz-adv-x="900" 
d="M573 541l-5 -31h-191l-18 -125q39 42 104 42q55 0 93 -36t38 -94q0 -63 -40.5 -103t-108.5 -40q-57 0 -91.5 25.5t-48.5 59.5l34 13q10 -28 37 -48t71 -20q49 0 79 31.5t30 79.5q0 46 -28.5 73.5t-72.5 27.5q-62 0 -103 -49l-32 6l27 188h226zM451 711q151 0 255.5 -105
t104.5 -257t-104.5 -256t-255.5 -104t-256.5 104t-105.5 256t105.5 257t256.5 105zM451 681q-138 0 -234 -96.5t-96 -235.5t96 -234.5t234 -95.5t233 95.5t95 234.5t-95 235.5t-233 96.5z" />
    <glyph glyph-name="uni2465" unicode="&#x2465;" horiz-adv-x="900" 
d="M457 548q85 0 118 -73l-32 -11q-25 54 -86 54q-107 0 -118 -174q12 31 44 52t75 21q55 0 92.5 -35t37.5 -94q0 -60 -38.5 -97t-100.5 -37q-65 0 -105 40.5t-40 117.5q0 117 40 176.5t113 59.5zM449 387q-46 0 -75.5 -28.5t-29.5 -69.5q0 -46 28.5 -75.5t75.5 -29.5
q45 0 73 28t28 74t-27.5 73.5t-72.5 27.5zM451 711q151 0 255.5 -105t104.5 -257t-104.5 -256t-255.5 -104t-256.5 104t-105.5 256t105.5 257t256.5 105zM451 681q-138 0 -234 -96.5t-96 -235.5t96 -234.5t234 -95.5t233 95.5t95 234.5t-95 235.5t-233 96.5z" />
    <glyph glyph-name="uni2466" unicode="&#x2466;" horiz-adv-x="900" 
d="M595 541v-31q-74 -82 -109.5 -162.5t-50.5 -188.5h-41q16 112 54 192.5t109 158.5h-202v-44h-33v75h273zM451 711q151 0 255.5 -105t104.5 -257t-104.5 -256t-255.5 -104t-256.5 104t-105.5 256t105.5 257t256.5 105zM451 681q-138 0 -234 -96.5t-96 -235.5t96 -234.5
t234 -95.5t233 95.5t95 234.5t-95 235.5t-233 96.5z" />
    <glyph glyph-name="uni2467" unicode="&#x2467;" horiz-adv-x="900" 
d="M449 154q-75 0 -112.5 32.5t-37.5 75.5q0 41 26 68t72 36q-78 31 -78 88q0 36 32.5 65t97.5 29q66 0 98.5 -28t32.5 -65q0 -31 -25 -55t-59 -35q59 -17 82.5 -40t23.5 -61q0 -44 -36.5 -77t-116.5 -33zM447 380l17 -5q35 11 57.5 31.5t22.5 47.5q0 26 -23.5 45.5
t-70.5 19.5q-46 0 -70 -19.5t-24 -45.5q0 -28 21.5 -44t69.5 -30zM450 184q59 0 86.5 23.5t27.5 55.5q0 36 -26 52.5t-90 33.5l-16 5q-95 -16 -95 -90q0 -33 29 -56.5t84 -23.5zM451 711q151 0 255.5 -105t104.5 -257t-104.5 -256t-255.5 -104t-256.5 104t-105.5 256
t105.5 257t256.5 105zM451 681q-138 0 -234 -96.5t-96 -235.5t96 -234.5t234 -95.5t233 95.5t95 234.5t-95 235.5t-233 96.5z" />
    <glyph glyph-name="uni2468" unicode="&#x2468;" horiz-adv-x="900" 
d="M438 154q-87 0 -123 71l31 14q28 -55 93 -55q111 0 116 180q-11 -30 -41.5 -50t-74.5 -20q-56 0 -92.5 34t-36.5 92q0 57 39.5 92.5t101.5 35.5q65 0 103.5 -39t38.5 -112q0 -243 -155 -243zM448 324q47 0 76.5 28.5t29.5 68.5q0 42 -28 69.5t-74 27.5t-75 -27t-29 -70
q0 -44 27.5 -70.5t72.5 -26.5zM451 711q151 0 255.5 -105t104.5 -257t-104.5 -256t-255.5 -104t-256.5 104t-105.5 256t105.5 257t256.5 105zM451 681q-138 0 -234 -96.5t-96 -235.5t96 -234.5t234 -95.5t233 95.5t95 234.5t-95 235.5t-233 96.5z" />
    <glyph glyph-name="uni24EA" unicode="&#x24ea;" horiz-adv-x="900" 
d="M451 548q68 0 106.5 -50t38.5 -149q0 -97 -38.5 -146t-106.5 -49t-107 49t-39 146q0 99 39 149t107 50zM451 517q-107 0 -107 -168q0 -165 107 -165q51 0 79 41.5t28 123.5q0 168 -107 168zM451 711q151 0 255.5 -105t104.5 -257t-104.5 -256t-255.5 -104t-256.5 104
t-105.5 256t105.5 257t256.5 105zM451 681q-138 0 -234 -96.5t-96 -235.5t96 -234.5t234 -95.5t233 95.5t95 234.5t-95 235.5t-233 96.5z" />
    <glyph glyph-name="uni24FF" unicode="&#x24ff;" horiz-adv-x="900" 
d="M451 -11q-151 0 -256.5 104t-105.5 256t105.5 257t256.5 105t255.5 -105t104.5 -257t-104.5 -256t-255.5 -104zM451 154q68 0 106.5 49t38.5 147t-39 148t-106 50q-68 0 -107 -50t-39 -148t39 -147t107 -49zM450 185q-51 0 -79 41.5t-28 123.5q0 167 107 167t107 -167
q0 -165 -107 -165z" />
    <glyph glyph-name="filledbox" unicode="&#x25a0;" 
d="M110 454h379v-379h-379v379z" />
    <glyph glyph-name="uni25A1" unicode="&#x25a1;" 
d="M109 454h380v-379h-380v379zM145 418v-307h308v307h-308z" />
    <glyph glyph-name="uni25B3" unicode="&#x25b3;" horiz-adv-x="900" 
d="M100 0l352 709l348 -709h-700zM163 37h574l-285 585z" />
    <glyph glyph-name="uni25B4" unicode="&#x25b4;" 
d="M299 454l190 -379h-379z" />
    <glyph glyph-name="uni25B8" unicode="&#x25b8;" 
d="M489 264l-379 -189v379z" />
    <glyph glyph-name="uni25BD" unicode="&#x25bd;" horiz-adv-x="900" 
d="M452 -9l-352 709h700zM737 663h-574l289 -585z" />
    <glyph glyph-name="uni25BE" unicode="&#x25be;" 
d="M299 75l-189 379h379z" />
    <glyph glyph-name="uni25C2" unicode="&#x25c2;" 
d="M110 264l379 190v-379z" />
    <glyph glyph-name="uni25C6" unicode="&#x25c6;" 
d="M300 539l260 -273l-260 -278l-260 278z" />
    <glyph glyph-name="uni25C7" unicode="&#x25c7;" 
d="M300 539l260 -273l-260 -278l-260 278zM300 488l-212 -222l212 -228l212 228z" />
    <glyph glyph-name="lozenge" unicode="&#x25ca;" 
d="M326 700l213 -340l-213 -360h-51l-214 359l214 341h51zM300 673l-195 -314l195 -332l195 332z" />
    <glyph glyph-name="circle" unicode="&#x25cb;" 
d="M301 27q-100 0 -170 70.5t-70 171.5q0 100 70 170.5t170 70.5q99 0 168.5 -70.5t69.5 -170.5q0 -101 -69 -171.5t-169 -70.5zM301 63q84 0 142 59.5t58 146.5t-58 146t-142 59t-142 -59t-58 -146t58 -146.5t142 -59.5z" />
    <glyph glyph-name="uni25CF" unicode="&#x25cf;" 
d="M301 27q-101 0 -171.5 70.5t-70.5 171.5q0 100 71 170.5t171 70.5t170.5 -70.5t70.5 -170.5t-70.5 -171t-170.5 -71z" />
    <glyph glyph-name="uni2605" unicode="&#x2605;" horiz-adv-x="900" 
d="M611 267l79 -277l-242 177l-242 -177l80 280l-201 195l266 -29l94 277l96 -278l273 29z" />
    <glyph glyph-name="uni2610" unicode="&#x2610;" horiz-adv-x="900" 
d="M100 0v700h700v-700h-700zM138 38h625v624h-625v-624z" />
    <glyph glyph-name="uni2611" unicode="&#x2611;" horiz-adv-x="900" 
d="M100 0v700h700v-700h-700zM138 38h625v624h-625v-624zM569 537h30l-178 -362h-29l-75 159h30l60 -129z" />
    <glyph glyph-name="uni2612" unicode="&#x2612;" horiz-adv-x="900" 
d="M100 0v700h700v-700h-700zM138 38h625v624h-625v-624zM639 565l-162 -212l87 -178h-36l-74 153l-148 -197h-39l172 227l-86 175h35l74 -150l139 182h38z" />
    <glyph glyph-name="uni2620" unicode="&#x2620;" 
d="M300 129q-41 0 -72 10l-33 65q-17 10 -23.5 17t-9.5 21v42q-31 35 -31 102q0 66 48.5 109.5t120.5 43.5t120.5 -43.5t48.5 -109.5q0 -67 -31 -102v-42q-3 -14 -9.5 -21t-23.5 -17l-33 -65q-31 -10 -72 -10zM138 231l-57 28q-30 -19 -49 -19q-11 0 -19 7t-8 20q0 31 36 35
l3 7q-13 11 -13 29q0 13 8.5 21t23.5 8q36 0 41 -58l34 -20v-58zM462 231v58l34 20q5 58 41 58q15 0 23.5 -8t8.5 -21q0 -18 -13 -29l3 -7q36 -4 36 -35q0 -13 -8 -20t-19 -7q-19 0 -49 19zM219 285q17 0 28.5 10.5t11.5 26.5q0 17 -11.5 28t-28.5 11q-16 0 -27.5 -11
t-11.5 -28q0 -16 11.5 -26.5t27.5 -10.5zM381 285q16 0 27.5 10.5t11.5 26.5q0 17 -11.5 28t-27.5 11q-17 0 -28.5 -11t-11.5 -28q0 -16 11.5 -26.5t28.5 -10.5zM265 235v-29q7 0 18 3.5t17 3.5t17 -3.5t18 -3.5v29q-16 45 -35 45t-35 -45zM90 32q-15 0 -23.5 8t-8.5 21
q0 18 13 29l-3 7q-36 4 -36 35q0 13 8 20t19 7q19 0 49 -19l71 38l25 -47l-73 -41q-5 -58 -41 -58zM510 32q-36 0 -41 58l-73 41l25 47l71 -38q30 19 49 19q11 0 19 -7t8 -20q0 -31 -36 -35l-3 -7q13 -11 13 -29q0 -13 -8.5 -21t-23.5 -8z" />
    <glyph glyph-name="smileface" unicode="&#x263a;" 
d="M301 -7q-111 0 -188 78t-77 190q0 111 77 188.5t188 77.5q110 0 187 -78t77 -188q0 -112 -77 -190t-187 -78zM301 26q95 0 161 67.5t66 167.5q0 99 -66 166t-161 67q-96 0 -162 -67t-66 -166q0 -100 66 -167.5t162 -67.5zM218 296q-19 0 -32 12.5t-13 31.5q0 18 13 30
t32 12t32 -12t13 -30q0 -19 -13 -31.5t-32 -12.5zM378 296q-19 0 -32 12.5t-13 31.5q0 18 13 30t32 12t32 -12t13 -30q0 -19 -13 -31.5t-32 -12.5zM301 103q-58 0 -100 37.5t-48 88.5h35q7 -38 36.5 -64.5t76.5 -26.5q45 0 74 26.5t37 64.5h35q-6 -51 -47.5 -88.5
t-98.5 -37.5z" />
    <glyph glyph-name="invsmileface" unicode="&#x263b;" 
d="M301 -7q-111 0 -188 78t-77 190q0 111 77 188.5t188 77.5q110 0 187 -78t77 -188q0 -112 -77 -190t-187 -78zM213 302q20 0 32.5 12.5t12.5 31.5q0 18 -13 30t-32 12t-32 -12t-13 -30q0 -19 12.5 -31.5t32.5 -12.5zM387 302q20 0 32.5 12.5t12.5 31.5q0 18 -13 30t-32 12
t-32 -12t-13 -30q0 -19 12.5 -31.5t32.5 -12.5zM301 91q57 0 98.5 37t47.5 89h-35q-8 -38 -37 -64.5t-74 -26.5q-47 0 -76.5 26.5t-36.5 64.5h-35q6 -52 48 -89t100 -37z" />
    <glyph glyph-name="sun" unicode="&#x263c;" 
d="M316 528v-103q51 -4 90 -37l74 74l22 -23l-73 -73q34 -41 37 -92h102v-31h-101q-4 -52 -37 -92l72 -72l-22 -22l-73 72q-38 -34 -91 -38v-102h-32v102q-49 6 -91 38l-72 -72l-22 22l73 73q-32 39 -37 91h-101v31h101q5 51 38 91l-74 74l22 23l74 -75q39 33 89 37v104h32z
M300 394q-56 0 -94.5 -39t-38.5 -97t38.5 -97.5t94.5 -39.5t94.5 39.5t38.5 97.5t-38.5 97t-94.5 39z" />
    <glyph glyph-name="female" unicode="&#x2640;" 
d="M318 227v-86h101v-31h-101v-110h-34v110h-100v31h100v86q-58 6 -96 48.5t-38 101.5q0 63 43.5 107t106.5 44t106.5 -44t43.5 -107q0 -59 -37.5 -101t-94.5 -49zM182 377q0 -51 34 -85.5t84 -34.5q49 0 83 34.5t34 85.5q0 50 -34 85t-83 35t-83.5 -35t-34.5 -85z" />
    <glyph glyph-name="male" unicode="&#x2642;" 
d="M506 519l31 -233l-30 -3l-25 187l-172 -205q52 -45 52 -115q0 -64 -43.5 -107.5t-106.5 -43.5t-106.5 44t-43.5 107t43.5 107t106.5 44q40 0 71 -18l173 206l-195 -10v30zM329 150q0 50 -34 85t-83 35t-83.5 -35t-34.5 -85q0 -51 34 -85.5t84 -34.5q49 0 83 34.5t34 85.5
z" />
    <glyph glyph-name="spade" unicode="&#x2660;" 
d="M80 0l20 45q97 0 139.5 29.5t42.5 125.5q-39 -64 -114 -64q-45 0 -71.5 26t-26.5 72q0 34 13.5 66t50.5 74.5t67.5 72t98.5 92.5q68 -63 98.5 -92.5t67.5 -72t50.5 -74.5t13.5 -66q0 -46 -26.5 -72t-71.5 -26q-75 0 -114 64q0 -96 42.5 -125.5t139.5 -29.5l20 -45h-440z
" />
    <glyph glyph-name="club" unicode="&#x2663;" 
d="M80 0l20 45q97 0 139.5 29.5t42.5 125.5q-40 -66 -108 -66q-49 0 -81.5 32t-32.5 82q0 48 30 78t77 30q34 0 67 -14q-54 44 -54 99q0 48 33 77t87 29t87 -29t33 -77q0 -55 -54 -99q33 14 67 14q47 0 77 -30t30 -78q0 -50 -32.5 -82t-81.5 -32q-69 0 -108 66
q0 -96 42.5 -125.5t139.5 -29.5l20 -45h-440z" />
    <glyph glyph-name="heart" unicode="&#x2665;" 
d="M434 539q56 0 91 -33.5t35 -90.5q0 -29 -6.5 -55t-27 -57t-34.5 -51t-55 -60t-60.5 -58t-76.5 -70q-140 128 -181 175q-79 92 -79 176q0 57 35 90.5t91 33.5q49 0 79 -23t55 -69q25 46 55 69t79 23z" />
    <glyph glyph-name="diamond" unicode="&#x2666;" 
d="M300 539l220 -273l-220 -278l-220 278z" />
    <glyph glyph-name="musicalnote" unicode="&#x266a;" 
d="M337 519l47 -31q50 -33 71.5 -58t21.5 -62q0 -27 -17 -63l-18 7q4 28 4 39q0 35 -17 58t-59 50l-33 22v-384q0 -46 -32 -76.5t-86 -30.5q-45 0 -74 18.5t-29 54.5q0 37 31 62t82 25q40 0 74 -18v387h34z" />
    <glyph glyph-name="musicalnotedbl" unicode="&#x266b;" 
d="M559 578v-428q0 -49 -33 -81t-91 -32q-43 0 -69 19.5t-26 52.5q0 36 35 62.5t89 26.5q36 0 60 -13v345l-265 -68v-360q0 -49 -31.5 -80.5t-91.5 -31.5q-43 0 -69 19t-26 52q0 38 33.5 63.5t84.5 25.5q42 0 66 -13v354z" />
    <glyph glyph-name="uni2713" unicode="&#x2713;" 
d="M456 568h42l-253 -516h-42l-107 226h43l85 -183z" />
    <glyph glyph-name="uni2717" unicode="&#x2717;" 
d="M552 568l-202 -266l109 -222h-45l-93 191l-185 -246h-48l214 284l-107 219h44l92 -188l174 228h47z" />
    <glyph glyph-name="uni2776" unicode="&#x2776;" horiz-adv-x="900" 
d="M451 -11q-151 0 -256.5 104t-105.5 256t105.5 257t256.5 105t255.5 -105t104.5 -257t-104.5 -256t-255.5 -104zM343 159h228v31h-91v351h-29q-14 -70 -104 -71v-30q69 2 96 37v-287h-100v-31z" />
    <glyph glyph-name="uni2777" unicode="&#x2777;" horiz-adv-x="900" 
d="M451 -11q-151 0 -256.5 104t-105.5 256t105.5 257t256.5 105t255.5 -105t104.5 -257t-104.5 -256t-255.5 -104zM315 159h271v31h-221q99 61 155.5 125.5t56.5 123.5q0 50 -33 79.5t-92 29.5q-63 0 -98 -34t-36 -81h38q1 37 25.5 60.5t69.5 23.5q41 0 63.5 -20.5
t22.5 -59.5q0 -98 -222 -248v-30z" />
    <glyph glyph-name="uni2778" unicode="&#x2778;" horiz-adv-x="900" 
d="M451 -11q-151 0 -256.5 104t-105.5 256t105.5 257t256.5 105t255.5 -105t104.5 -257t-104.5 -256t-255.5 -104zM451 154q62 0 102.5 31.5t40.5 84.5q0 41 -28 66.5t-68 28.5q38 5 61 27.5t23 56.5q0 45 -34 72t-95 27q-54 0 -89.5 -27t-44.5 -68l35 -5q18 70 100 70
q41 0 65 -18.5t24 -53.5q0 -33 -23.5 -51t-61.5 -18h-40v-27h44q41 0 67 -21t26 -58q0 -41 -29.5 -63.5t-74.5 -22.5q-43 0 -71.5 20.5t-37.5 54.5l-35 -8q12 -46 50 -72t94 -26z" />
    <glyph glyph-name="uni2779" unicode="&#x2779;" horiz-adv-x="900" 
d="M451 -11q-151 0 -256.5 104t-105.5 256t105.5 257t256.5 105t255.5 -105t104.5 -257t-104.5 -256t-255.5 -104zM488 159h36v92h69v31h-69v259h-46l-203 -258v-32h213v-92zM313 282l175 220v-220h-175z" />
    <glyph glyph-name="uni277A" unicode="&#x277a;" horiz-adv-x="900" 
d="M451 -11q-151 0 -256.5 104t-105.5 256t105.5 257t256.5 105t255.5 -105t104.5 -257t-104.5 -256t-255.5 -104zM446 154q68 0 108.5 40t40.5 104q0 58 -38 93.5t-93 35.5q-66 0 -105 -42l19 125h191l5 31h-227l-27 -188l32 -6q41 49 104 49q43 0 72 -27.5t29 -72.5
q0 -48 -30.5 -80t-78.5 -32q-44 0 -71.5 20t-37.5 48l-33 -13q13 -34 48 -59.5t92 -25.5z" />
    <glyph glyph-name="uni277B" unicode="&#x277b;" horiz-adv-x="900" 
d="M451 -11q-151 0 -256.5 104t-105.5 256t105.5 257t256.5 105t255.5 -105t104.5 -257t-104.5 -256t-255.5 -104zM448 154q63 0 101 37t38 97q0 59 -37 94.5t-93 35.5q-43 0 -74.5 -21t-43.5 -52q11 174 117 174q61 0 87 -55l32 12q-34 72 -119 72q-73 0 -112.5 -59.5
t-39.5 -176.5q0 -77 39.5 -117.5t104.5 -40.5zM449 183q-47 0 -75.5 30t-28.5 76q0 41 29.5 69.5t75.5 28.5q44 0 72 -27.5t28 -72.5q0 -46 -28 -75t-73 -29z" />
    <glyph glyph-name="uni277C" unicode="&#x277c;" horiz-adv-x="900" 
d="M451 -11q-151 0 -256.5 104t-105.5 256t105.5 257t256.5 105t255.5 -105t104.5 -257t-104.5 -256t-255.5 -104zM394 159h41q15 108 50.5 188.5t108.5 163.5v30h-272v-74h33v43h202q-71 -78 -109 -158.5t-54 -192.5z" />
    <glyph glyph-name="uni277D" unicode="&#x277d;" horiz-adv-x="900" 
d="M451 -11q-151 0 -256.5 104t-105.5 256t105.5 257t256.5 105t255.5 -105t104.5 -257t-104.5 -256t-255.5 -104zM449 154q80 0 116.5 32.5t36.5 76.5q0 39 -23.5 62t-82.5 40q35 12 59 35.5t24 55.5q0 36 -32.5 64t-97.5 28t-97.5 -29t-32.5 -65q0 -57 78 -87
q-98 -21 -98 -105q0 -43 37.5 -75.5t112.5 -32.5zM464 375l-17 5q-49 15 -70 30.5t-21 43.5q0 26 24 45.5t70 19.5q47 0 70.5 -19.5t23.5 -45.5t-22.5 -47t-57.5 -32zM449 183q-54 0 -83 24t-29 56q0 75 95 91l18 -5q64 -18 89 -34.5t25 -51.5q0 -32 -27.5 -56t-87.5 -24z
" />
    <glyph glyph-name="uni277E" unicode="&#x277e;" horiz-adv-x="900" 
d="M451 -11q-151 0 -256.5 104t-105.5 256t105.5 257t256.5 105t255.5 -105t104.5 -257t-104.5 -256t-255.5 -104zM438 154q155 0 155 244q0 72 -38.5 111t-103.5 39q-62 0 -101.5 -35.5t-39.5 -92.5q0 -58 36.5 -92t92.5 -34q44 0 74.5 20t42.5 50q-6 -181 -117 -181
q-65 0 -93 56l-32 -14q38 -71 124 -71zM448 325q-45 0 -72.5 26.5t-27.5 69.5t29 70t74 27q47 0 74.5 -27.5t27.5 -69.5q0 -39 -29.5 -67.5t-75.5 -28.5z" />
    <glyph glyph-name="fi" unicode="&#xfb01;" horiz-adv-x="511" 
d="M263 710q63 0 120 -23v-34q-56 22 -116 22q-121 0 -121 -104v-52h277v-519h-42v486h-235v-486h-42v486h-77v33h77v57q0 58 37.5 96t121.5 38z" />
    <glyph glyph-name="fl" unicode="&#xfb02;" horiz-adv-x="559" 
d="M258 710q55 0 115 -17l42 3v-574q0 -49 14 -70t54 -21q9 0 22 1.5t17 1.5v-34q-28 -5 -52 -5q-97 0 -97 120v545q-56 15 -110 15q-117 0 -117 -104v-52h152v-33h-152v-486h-42v486h-77v33h77v57q0 58 36.5 96t117.5 38z" />
    <glyph glyph-name="uniFEFF" unicode="&#xfeff;" horiz-adv-x="0" 
 />
    <glyph glyph-name="u1F310" unicode="&#x1f310;" horiz-adv-x="900" 
d="M450 704q147 0 251.5 -104t104.5 -252q0 -147 -104.5 -251.5t-251.5 -104.5q-148 0 -252.5 104.5t-104.5 251.5q0 148 104.5 252t252.5 104zM700 560q-81 98 -207 115q74 -62 115 -164q46 18 92 49zM406 675q-124 -17 -206 -115q43 -30 92 -49q38 99 114 164zM465 666
v-181q60 1 116 17q-42 106 -116 164zM434 485v181q-76 -61 -115 -164q54 -16 115 -17zM639 362h137q-4 98 -60 177q-47 -32 -100 -52q20 -57 23 -125zM124 362h137q3 67 22 125q-48 17 -99 52q-56 -81 -60 -177zM465 460v-98h146q-3 61 -21 116q-59 -17 -125 -18zM434 362
v98q-67 1 -124 18q-17 -59 -20 -116h144zM261 334h-137q5 -98 59 -176q48 32 100 52q-19 56 -22 124zM434 334h-144q3 -57 20 -116q57 17 124 18v98zM465 334v-98q66 -1 125 -18q18 57 21 116h-146zM776 334h-137q-3 -66 -22 -124q53 -20 99 -52q56 79 60 176zM465 210v-179
q75 60 116 162q-51 15 -116 17zM434 31v179q-64 -2 -115 -17q40 -103 115 -162zM200 137q81 -98 207 -115q-76 63 -115 163q-44 -17 -92 -48zM493 22q126 17 207 114q-47 32 -93 49q-38 -100 -114 -163z" />
    <glyph glyph-name="f_f.alt001" horiz-adv-x="621" 
d="M526 675q-58 0 -81 -27t-23 -77v-52h172v-33h-172v-486h-42v486h-234v-486h-42v486h-77v33h77v48q0 59 37.5 98t120.5 39q70 0 147 -35q34 41 112 41q43 0 88 -18v-33q-42 16 -83 16zM380 519v57q0 38 11 65q-69 29 -128 29q-117 0 -117 -105v-46h234z" />
    <glyph glyph-name="f.alt001" horiz-adv-x="345" 
d="M245 710q43 0 88 -18v-33q-42 16 -83 16q-58 0 -81 -27t-23 -77v-52h172v-33h-172v-486h-42v486h-77v33h77v57q0 134 141 134z" />
    <glyph glyph-name="j.alt001" horiz-adv-x="218" 
d="M2 -172q-27 0 -42 3v34q11 -1 31 -1q97 0 97 115v540h42v-551q0 -72 -37.5 -106t-90.5 -34zM109 708q12 0 20.5 -8.5t8.5 -20.5q0 -13 -8.5 -21.5t-20.5 -8.5t-21 8.5t-9 21.5q0 12 9 20.5t21 8.5z" />
    <glyph glyph-name="caron.alt001" horiz-adv-x="104" 
d="M136 724l-70 -139h-28l52 139h46z" />
    <glyph glyph-name="j.ss01.alt001" horiz-adv-x="218" 
d="M2 -172q-27 0 -42 3v34q11 -1 31 -1q97 0 97 115v540h42v-551q0 -72 -37.5 -106t-90.5 -34zM134 703v-48h-51v48h51z" />
    <glyph glyph-name="parenleft.numr" horiz-adv-x="300" 
d="M196 747h26q-79 -115 -79 -242q0 -129 79 -242h-27q-40 53 -62.5 118.5t-22.5 123.5t23 123.5t63 118.5z" />
    <glyph glyph-name="parenright.numr" horiz-adv-x="300" 
d="M98 747h26q40 -53 63 -118.5t23 -123.5t-22.5 -123.5t-62.5 -118.5h-27q79 113 79 242q0 127 -79 242z" />
    <glyph glyph-name="plus.numr" horiz-adv-x="384" 
d="M199 615v-108h108v-28h-108v-108h-32v108h-108v28h108v108h32z" />
    <glyph glyph-name="zero.numr" horiz-adv-x="400" 
d="M200 708q75 0 117.5 -55t42.5 -164q0 -107 -42.5 -161t-117.5 -54q-74 0 -117 54.5t-43 160.5q0 109 42.5 164t117.5 55zM200 674q-118 0 -118 -185q0 -90 31 -135.5t87 -45.5t87 45.5t31 135.5q0 185 -118 185z" />
    <glyph glyph-name="one.numr" horiz-adv-x="400" 
d="M87 280v34h110v279h-106v29h27q51 0 67.5 15.5t20.5 62.5h32v-386h100v-34h-251z" />
    <glyph glyph-name="two.numr" horiz-adv-x="400" 
d="M201 708q65 0 102 -32.5t37 -87.5q0 -65 -62 -135.5t-172 -138.5h243v-34h-298v32q121 82 183 149t62 125q0 43 -25 65.5t-71 22.5q-49 0 -75.5 -26t-28.5 -67h-42q1 52 39.5 89.5t107.5 37.5z" />
    <glyph glyph-name="three.numr" horiz-adv-x="400" 
d="M203 708q67 0 104 -30t37 -79q0 -38 -25 -63t-67 -30q44 -3 74.5 -31t30.5 -73q0 -59 -44.5 -93.5t-112.5 -34.5q-62 0 -103.5 29t-54.5 79l39 9q10 -37 41 -60t79 -23q49 0 81.5 25t32.5 70q0 40 -28.5 63t-74.5 23h-48v31h44q42 0 68 19.5t26 56.5q0 38 -27 58.5
t-72 20.5q-44 0 -72.5 -20.5t-37.5 -56.5l-38 5q10 45 49 75t99 30z" />
    <glyph glyph-name="four.numr" horiz-adv-x="400" 
d="M300 700v-285h75v-34h-75v-101h-40v101h-235v35l223 284h52zM260 658l-194 -243h194v243z" />
    <glyph glyph-name="five.numr" horiz-adv-x="400" 
d="M336 700l-6 -34h-210l-20 -137q43 46 115 46q61 0 102.5 -39.5t41.5 -103.5q0 -70 -44.5 -114t-119.5 -44q-63 0 -101.5 28t-52.5 66l37 14q11 -31 41 -53t78 -22q53 0 86.5 35t33.5 88q0 51 -31.5 81t-79.5 30q-69 0 -114 -54l-35 6l30 207h249z" />
    <glyph glyph-name="six.numr" horiz-adv-x="400" 
d="M212 708q94 0 130 -80l-35 -12q-28 59 -95 59q-118 0 -130 -191q13 35 48 57.5t83 22.5q61 0 102 -38.5t41 -103.5q0 -66 -42 -107t-111 -41q-71 0 -115 44.5t-44 129.5q0 128 44 194t124 66zM203 531q-51 0 -83 -31.5t-32 -76.5q0 -51 31 -83.5t83 -32.5q49 0 80 31.5
t31 81.5t-30 80.5t-80 30.5z" />
    <glyph glyph-name="seven.numr" horiz-adv-x="400" 
d="M350 700v-34q-81 -90 -120.5 -178.5t-55.5 -207.5h-45q18 123 59.5 211.5t119.5 174.5h-222v-48h-36v82h300z" />
    <glyph glyph-name="eight.numr" horiz-adv-x="400" 
d="M198 274q-82 0 -123.5 36t-41.5 83q0 92 108 115q-46 18 -66 41t-20 56q0 39 36 71t107 32q72 0 108 -30.5t36 -71.5q0 -35 -27 -61t-65 -38q65 -19 90.5 -44.5t25.5 -67.5q0 -48 -40 -84.5t-128 -36.5zM196 523l18 -5q39 12 63.5 34.5t24.5 51.5t-25.5 50.5t-77.5 21.5
q-51 0 -77 -21.5t-26 -49.5q0 -32 23.5 -49t76.5 -33zM199 307q65 0 95 26t30 61q0 39 -28.5 57.5t-98.5 37.5l-18 5q-104 -18 -104 -99q0 -36 31.5 -62t92.5 -26z" />
    <glyph glyph-name="nine.numr" horiz-adv-x="400" 
d="M185 273q-95 0 -136 79l35 15q29 -61 102 -61q122 0 128 198q-13 -33 -46.5 -54.5t-81.5 -21.5q-61 0 -101.5 37.5t-40.5 100.5t43.5 102t111.5 39q71 0 113.5 -43t42.5 -123q0 -268 -170 -268zM196 461q51 0 83.5 31.5t32.5 74.5q0 46 -30.5 76.5t-81.5 30.5
q-50 0 -82 -29.5t-32 -77.5t30 -77t80 -29z" />
    <glyph glyph-name="equal.numr" horiz-adv-x="384" 
d="M307 564v-29h-248v29h248zM307 446v-29h-248v29h248z" />
    <glyph glyph-name="minus.numr" horiz-adv-x="384" 
d="M307 507v-28h-248v28h248z" />
    <glyph glyph-name="parenleft.dnom" horiz-adv-x="300" 
d="M196 449h26q-79 -115 -79 -242q0 -129 79 -242h-27q-40 53 -62.5 118.5t-22.5 123.5t23 123.5t63 118.5z" />
    <glyph glyph-name="parenright.dnom" horiz-adv-x="300" 
d="M78 449h26q40 -53 63 -118.5t23 -123.5t-22.5 -123.5t-62.5 -118.5h-27q79 113 79 242q0 127 -79 242z" />
    <glyph glyph-name="plus.dnom" horiz-adv-x="366" 
d="M199 315v-108h108v-28h-108v-108h-32v108h-108v28h108v108h32z" />
    <glyph glyph-name="zero.dnom" horiz-adv-x="400" 
d="M200 428q75 0 117.5 -55t42.5 -164q0 -107 -42.5 -161t-117.5 -54q-74 0 -117 54.5t-43 160.5q0 109 42.5 164t117.5 55zM200 394q-118 0 -118 -185q0 -90 31 -135.5t87 -45.5t87 45.5t31 135.5q0 185 -118 185z" />
    <glyph glyph-name="one.dnom" horiz-adv-x="400" 
d="M87 0v34h110v279h-106v29h27q51 0 67.5 15.5t20.5 62.5h32v-386h100v-34h-251z" />
    <glyph glyph-name="two.dnom" horiz-adv-x="400" 
d="M201 428q65 0 102 -32.5t37 -87.5q0 -65 -62 -135.5t-172 -138.5h243v-34h-298v32q121 82 183 149t62 125q0 43 -25 65.5t-71 22.5q-49 0 -75.5 -26t-28.5 -67h-42q1 52 39.5 89.5t107.5 37.5z" />
    <glyph glyph-name="three.dnom" horiz-adv-x="400" 
d="M203 428q67 0 104 -30t37 -79q0 -38 -25 -63t-67 -30q44 -3 74.5 -31t30.5 -73q0 -59 -44.5 -93.5t-112.5 -34.5q-62 0 -103.5 29t-54.5 79l39 9q10 -37 41 -60t79 -23q49 0 81.5 25t32.5 70q0 40 -28.5 63t-74.5 23h-48v31h44q42 0 68 19.5t26 56.5q0 38 -27 58.5
t-72 20.5q-44 0 -72.5 -20.5t-37.5 -56.5l-38 5q10 45 49 75t99 30z" />
    <glyph glyph-name="four.dnom" horiz-adv-x="400" 
d="M300 420v-285h75v-34h-75v-101h-40v101h-235v35l223 284h52zM260 378l-194 -243h194v243z" />
    <glyph glyph-name="five.dnom" horiz-adv-x="400" 
d="M336 420l-6 -34h-210l-20 -137q43 46 115 46q61 0 102.5 -39.5t41.5 -103.5q0 -70 -44.5 -114t-119.5 -44q-63 0 -101.5 28t-52.5 66l37 14q11 -31 41 -53t78 -22q53 0 86.5 35t33.5 88q0 51 -31.5 81t-79.5 30q-69 0 -114 -54l-35 6l30 207h249z" />
    <glyph glyph-name="six.dnom" horiz-adv-x="400" 
d="M212 428q94 0 130 -80l-35 -12q-28 59 -95 59q-118 0 -130 -191q13 35 48 57.5t83 22.5q61 0 102 -38.5t41 -103.5q0 -66 -42 -107t-111 -41q-71 0 -115 44.5t-44 129.5q0 128 44 194t124 66zM203 251q-51 0 -83 -31.5t-32 -76.5q0 -51 31 -83.5t83 -32.5q49 0 80 31.5
t31 81.5t-30 80.5t-80 30.5z" />
    <glyph glyph-name="seven.dnom" horiz-adv-x="400" 
d="M350 420v-34q-81 -90 -120.5 -178.5t-55.5 -207.5h-45q18 123 59.5 211.5t119.5 174.5h-222v-48h-36v82h300z" />
    <glyph glyph-name="eight.dnom" horiz-adv-x="400" 
d="M198 -6q-82 0 -123.5 36t-41.5 83q0 92 108 115q-46 18 -66 41t-20 56q0 39 36 71t107 32q72 0 108 -30.5t36 -71.5q0 -35 -27 -61t-65 -38q65 -19 90.5 -44.5t25.5 -67.5q0 -48 -40 -84.5t-128 -36.5zM196 243l18 -5q39 12 63.5 34.5t24.5 51.5t-25.5 50.5t-77.5 21.5
q-51 0 -77 -21.5t-26 -49.5q0 -32 23.5 -49t76.5 -33zM199 27q65 0 95 26t30 61q0 39 -28.5 57.5t-98.5 37.5l-18 5q-104 -18 -104 -99q0 -36 31.5 -62t92.5 -26z" />
    <glyph glyph-name="nine.dnom" horiz-adv-x="400" 
d="M185 -6q-95 0 -136 79l35 15q29 -61 102 -61q122 0 128 198q-13 -33 -46.5 -54.5t-81.5 -21.5q-61 0 -101.5 37.5t-40.5 100.5t43.5 102t111.5 39q71 0 113.5 -43t42.5 -123q0 -268 -170 -268zM196 182q51 0 83.5 31.5t32.5 74.5q0 46 -30.5 76.5t-81.5 30.5
q-50 0 -82 -29.5t-32 -77.5t30 -77t80 -29z" />
    <glyph glyph-name="equal.dnom" horiz-adv-x="384" 
d="M307 264v-29h-248v29h248zM307 146v-29h-248v29h248z" />
    <glyph glyph-name="minus.dnom" horiz-adv-x="366" 
d="M307 207v-28h-248v28h248z" />
    <glyph glyph-name="space.frac" horiz-adv-x="53" 
 />
    <glyph glyph-name="uni0394.osf" horiz-adv-x="594" 
d="M326 700l248 -700h-554l250 700h56zM78 37h436l-217 625z" />
    <glyph glyph-name="numbersign.tf" 
d="M539 470h-88l-35 -241h86v-32h-91l-28 -197h-36l28 197h-176l-28 -197h-36l28 197h-84v32h89l35 241h-87v31h91l29 199h36l-29 -199h176l29 199h36l-29 -199h84v-31zM380 229l35 241h-176l-35 -241h176z" />
    <glyph glyph-name="dollar.tf" 
d="M330 835v-124q132 -10 197 -114l-27 -21q-25 42 -70.5 70t-101.5 32v-297q111 -25 157 -69t46 -126q0 -85 -52.5 -138.5t-148.5 -58.5v-138h-36v138q-157 9 -226 111l31 22q65 -91 196 -100v331q-100 22 -147 65t-47 118q0 77 51.5 124t141.5 51v124h36zM295 389v291
q-74 -4 -115.5 -42.5t-41.5 -99.5q0 -62 36.5 -95.5t120.5 -53.5zM328 345v-323q79 4 121.5 48t42.5 114q0 64 -36.5 103t-127.5 58z" />
    <glyph glyph-name="zero.tf" 
d="M301 712q110 0 173 -91t63 -274q0 -179 -63 -269t-173 -90q-111 0 -174.5 90t-63.5 269q0 183 63.5 274t174.5 91zM301 676q-92 0 -143 -81t-51 -248q0 -161 51.5 -242t142.5 -81q92 0 143 80.5t51 242.5q0 167 -51 248t-143 81z" />
    <glyph glyph-name="one.tf" 
d="M137 0v36h168v499h-161v34h46q75 0 97.5 23.5t27.5 107.5h32v-664h157v-36h-367z" />
    <glyph glyph-name="two.tf" 
d="M306 710q94 0 147.5 -52.5t53.5 -142.5q0 -110 -99 -236t-268 -243h383v-36h-439v35q380 281 380 477q0 78 -41.5 120t-117.5 42q-81 0 -126 -47t-46 -115h-43q2 79 59 138.5t157 59.5z" />
    <glyph glyph-name="three.tf" 
d="M303 711q99 0 153 -48.5t54 -130.5q0 -66 -38.5 -108.5t-101.5 -48.5q66 -5 113 -52.5t47 -123.5q0 -97 -66.5 -153.5t-165.5 -56.5q-91 0 -152 47t-81 127l41 10q17 -66 67.5 -107t126.5 -41q80 0 133 46t53 129q0 73 -46 115t-119 42h-73v32h69q67 0 108.5 37t41.5 104
q0 69 -44.5 108t-118.5 39q-71 0 -117 -38.5t-61 -101.5l-40 6q14 72 71 120t146 48z" />
    <glyph glyph-name="four.tf" 
d="M438 700v-484h122v-36h-122v-180h-40v180h-363v38l352 482h51zM397 654l-318 -438h318v438z" />
    <glyph glyph-name="five.tf" 
d="M498 700l-6 -36h-326l-33 -254q67 84 183 84q91 0 154 -66t63 -172q0 -119 -66.5 -193.5t-175.5 -74.5q-93 0 -149.5 47t-77.5 107l39 12q18 -52 66 -91t125 -39q88 0 142.5 64.5t54.5 165.5q0 93 -51.5 148.5t-128.5 55.5q-115 0 -186 -98l-37 5l45 335h365z" />
    <glyph glyph-name="six.tf" 
d="M320 711q136 0 191 -128l-38 -12q-45 106 -154 106q-190 0 -209 -353q19 59 73.5 97.5t131.5 38.5q96 0 156.5 -62.5t60.5 -170.5q0 -107 -61.5 -172.5t-164.5 -65.5q-104 0 -168.5 72.5t-64.5 204.5q0 221 64 333t183 112zM307 424q-84 0 -137 -53.5t-53 -133.5
q0 -93 51 -153t137 -60q83 0 133.5 55t50.5 148q0 91 -50 144t-132 53z" />
    <glyph glyph-name="seven.tf" 
d="M534 701v-36q-126 -155 -188 -309.5t-87 -354.5h-46q27 206 90.5 359.5t185.5 303.5h-362v-80h-37v117h444z" />
    <glyph glyph-name="eight.tf" 
d="M298 711q104 0 155 -50.5t51 -117.5q0 -64 -42.5 -105.5t-103.5 -59.5q92 -29 137 -74.5t45 -119.5q0 -34 -12.5 -66t-39 -62t-75.5 -48.5t-115 -18.5q-118 0 -178 58t-60 135q0 79 45 130.5t125 66.5q-137 46 -137 164q0 65 51 116.5t154 51.5zM298 677
q-82 0 -122.5 -40.5t-40.5 -94.5q0 -114 160 -147l26 -5q61 20 101 59t40 93q0 55 -40 95t-124 40zM297 359l-24 6q-81 -13 -125.5 -60t-44.5 -122q0 -64 50.5 -111t144.5 -47q103 0 151.5 49.5t48.5 112.5q0 70 -49 107.5t-152 64.5z" />
    <glyph glyph-name="nine.tf" 
d="M301 711q104 0 166.5 -69t62.5 -190q0 -235 -61.5 -349t-188.5 -114q-144 0 -202 118l37 16q47 -100 165 -100q198 0 209 371q-17 -59 -70 -98t-131 -39q-95 0 -155.5 59t-60.5 164q0 102 63.5 166.5t165.5 64.5zM302 676q-83 0 -135 -54.5t-52 -141.5t49 -137t131 -50
q84 0 137.5 55.5t53.5 132.5q0 83 -49.5 139t-134.5 56z" />
    <glyph glyph-name="cent.tf" 
d="M491 147l35 -13q-56 -135 -202 -143v-140h-31v139q-103 5 -159.5 80t-56.5 187q0 115 57 189t159 80v142h31v-141q66 -4 117 -37t75 -85l-34 -14q-20 45 -61.5 72t-97.5 31v-471q120 8 168 124zM117 257q0 -100 46 -164.5t132 -69.5v471q-85 -6 -131.5 -70t-46.5 -167z
" />
    <glyph glyph-name="sterling.tf" 
d="M344 711q133 0 173 -137l-39 -10q-33 113 -135 113q-65 0 -105 -44t-40 -112v-168h231v-30h-231v-167q0 -46 -10.5 -73.5t-40.5 -46.5h368v-36h-418l-4 33q41 19 53.5 45.5t12.5 77.5v167h-84v30h83v170q0 79 49.5 133.5t136.5 54.5z" />
    <glyph glyph-name="yen.tf" 
d="M543 700l-209 -379h154v-26h-164v-122h164v-26h-164v-147h-41v147h-165v26h165v122h-165v26h155l-216 379h44l203 -366l195 366h44z" />
    <glyph glyph-name="uni0394.tf" 
d="M329 700l240 -700h-538l242 700h56zM90 37h420l-210 623z" />
    <glyph glyph-name="uni2007.tf" 
 />
    <glyph glyph-name="figuredash.tf" 
d="M555 352v-37h-509v37h509z" />
    <glyph glyph-name="Euro.tf" horiz-adv-x="590" 
d="M380 711q109 0 176 -82l-14 -38q-64 86 -162 86q-81 0 -137 -63t-70 -181h306l-9 -27h-299q-2 -19 -2 -64q0 -35 1 -51h269l-9 -26h-257q11 -121 63.5 -181.5t132.5 -60.5q100 0 159 71v-42q-61 -63 -160 -63q-91 0 -155 66.5t-80 209.5h-77l9 26h65q-1 16 -1 51
q0 45 2 64h-73l9 27h67q17 137 84.5 207.5t161.5 70.5z" />
    <glyph glyph-name="dollar.lf" horiz-adv-x="682" 
d="M372 831v-123q76 -4 135 -35.5t94 -81.5l-33 -24q-65 98 -197 104v-289q129 -24 181.5 -69.5t52.5 -126.5q0 -85 -60.5 -139t-172.5 -58v-137h-36v137q-78 2 -148 30.5t-112 83.5l31 27q80 -99 231 -104v323q-116 21 -171 65.5t-55 120.5t60 123.5t164 49.5v123h36z
M338 388v285q-87 -2 -134.5 -39t-47.5 -98q0 -62 42 -95.5t140 -52.5zM371 343v-317q92 2 141 45t49 113q0 64 -41 101.5t-149 57.5z" />
    <glyph glyph-name="zero.lf" horiz-adv-x="593" 
d="M297 -11q-114 0 -185.5 90.5t-71.5 262.5q0 173 71 262.5t186 89.5q114 0 185 -89.5t71 -262.5q0 -172 -71 -262.5t-185 -90.5zM298 25q95 0 154 81.5t59 235.5q0 157 -58.5 237t-154.5 80t-155 -80t-59 -237q0 -154 59.5 -235.5t154.5 -81.5z" />
    <glyph glyph-name="one.lf" horiz-adv-x="469" 
d="M89 0v36h168v483h-161v34h46q75 0 97.5 23.5t27.5 107.5h32v-648h157v-36h-367z" />
    <glyph glyph-name="two.lf" horiz-adv-x="609" 
d="M313 694q95 0 150 -54.5t55 -144.5q0 -108 -97.5 -221t-277.5 -238h389v-36h-445v35q196 142 292 249.5t96 210.5q0 75 -44 119.5t-119 44.5q-84 0 -130 -49t-49 -126h-42q2 88 59.5 149t162.5 61z" />
    <glyph glyph-name="three.lf" horiz-adv-x="603" 
d="M310 694q99 0 154 -49.5t55 -127.5q0 -63 -40 -105.5t-106 -48.5q69 -5 118 -50.5t49 -116.5q0 -94 -67.5 -150.5t-168.5 -56.5q-95 0 -157.5 47.5t-82.5 128.5l41 10q17 -68 68.5 -109t130.5 -41q83 0 138 45.5t55 125.5q0 68 -48 108.5t-122 40.5h-75v34h70
q69 0 111.5 36t42.5 101t-45 104t-121 39q-74 0 -121.5 -39.5t-62.5 -101.5l-41 8q15 70 74.5 119t150.5 49z" />
    <glyph glyph-name="four.lf" horiz-adv-x="633" 
d="M453 684v-468h124v-36h-124v-180h-41v180h-367v38l356 466h52zM412 640l-324 -424h324v424z" />
    <glyph glyph-name="five.lf" horiz-adv-x="610" 
d="M298 -11q-93 0 -150 47t-77 107l39 12q18 -53 66 -91.5t125 -38.5q87 0 142 63t55 158q0 93 -51.5 148.5t-128.5 55.5q-115 0 -186 -99l-37 6l45 327h365l-6 -36h-326l-34 -246q67 83 184 83q91 0 154 -66t63 -171q0 -113 -66.5 -186t-175.5 -73z" />
    <glyph glyph-name="six.lf" horiz-adv-x="551" 
d="M307 694q134 0 188 -131l-38 -12q-43 109 -150 109q-191 0 -212 -347q20 57 75 98t131 41q96 0 156.5 -61.5t60.5 -166.5t-63 -170t-166 -65q-104 0 -168.5 72t-64.5 198q0 210 65.5 322.5t185.5 112.5zM294 418q-79 0 -136.5 -57t-57.5 -133q0 -87 51.5 -145.5
t137.5 -58.5q84 0 135.5 55t51.5 145q0 88 -50 141t-132 53z" />
    <glyph glyph-name="seven.lf" horiz-adv-x="500" 
d="M477 684v-37q-129 -155 -190.5 -302.5t-86.5 -344.5h-46q27 203 89.5 348.5t188.5 298.5h-346v-79h-37v116h428z" />
    <glyph glyph-name="eight.lf" horiz-adv-x="584" 
d="M290 694q108 0 160 -50t52 -117q0 -63 -43 -101.5t-106 -57.5q91 -27 138 -71t47 -115q0 -33 -12.5 -65t-39.5 -61.5t-77.5 -48t-118.5 -18.5q-121 0 -182 58t-61 135q0 75 46.5 124t129.5 65q-143 45 -143 156q0 65 52 116t158 51zM290 661q-85 0 -127.5 -40.5
t-42.5 -93.5q0 -55 40.5 -87t126.5 -54l26 -6q147 47 147 147q0 54 -41.5 94t-128.5 40zM288 351l-22 6q-85 -13 -131 -57t-46 -117q0 -64 52 -111.5t149 -47.5q106 0 156 50t50 111q0 66 -48.5 100t-159.5 66z" />
    <glyph glyph-name="nine.lf" horiz-adv-x="605" 
d="M300 712q104 0 168 -70.5t64 -195.5q0 -458 -253 -458q-142 0 -204 119l36 17q52 -101 169 -101q199 0 213 367q-18 -62 -73 -104t-133 -42q-96 0 -157 61.5t-61 167.5q0 107 63.5 173t167.5 66zM299 677q-84 0 -136 -56t-52 -148q0 -88 50 -140.5t132 -52.5
q83 0 138.5 59.5t55.5 136.5q0 86 -51 143.5t-137 57.5z" />
    <glyph glyph-name="cent.lf" horiz-adv-x="622" 
d="M502 147l35 -13q-56 -135 -202 -143v-140h-31v139q-103 5 -159.5 80t-56.5 187q0 115 57 189t159 80v142h31v-141q66 -4 117 -37t75 -85l-34 -14q-20 45 -61.5 72t-97.5 31v-471q120 8 168 124zM128 257q0 -100 46 -164.5t132 -69.5v471q-85 -6 -131.5 -70t-46.5 -167z
" />
    <glyph glyph-name="sterling.lf" horiz-adv-x="682" 
d="M391 711q73 0 119.5 -38.5t64.5 -98.5l-41 -12q-32 115 -145 115q-71 0 -113.5 -44t-42.5 -112v-171h252v-27h-252v-167q0 -47 -11.5 -72.5t-47.5 -46.5h397v-37h-439l-5 33q41 19 53.5 45.5t12.5 77.5v167h-84v27h84v173q0 79 51.5 133.5t146.5 54.5z" />
    <glyph glyph-name="yen.lf" horiz-adv-x="615" 
d="M574 700l-228 -379h156v-26h-170v-122h170v-26h-170v-147h-43v147h-171v26h171v122h-171v26h156l-234 379h48l224 -366l215 366h47z" />
    <glyph glyph-name="uni0394.lf" 
d="M313 680l248 -680h-554l250 680h56zM65 37h436l-217 608z" />
    <glyph glyph-name="figuredash.lf" 
d="M555 352v-37h-509v37h509z" />
    <glyph glyph-name="Euro.lf" horiz-adv-x="682" 
d="M409 711q120 0 191 -82l-14 -39q-70 84 -177 84q-90 0 -151 -62t-77 -179h335l-9 -27h-329q-2 -18 -2 -58t2 -57h294l-9 -26h-282q12 -120 69.5 -179.5t146.5 -59.5q111 0 174 72v-46q-68 -63 -174 -63q-100 0 -170 66.5t-86 209.5h-85l9 26h73q-2 17 -2 57t2 58h-79
l9 27h73q18 137 92 207.5t176 70.5z" />
    <glyph glyph-name="dollar.tosf" 
d="M330 835v-124q132 -10 197 -114l-27 -21q-25 42 -70.5 70t-101.5 32v-297q111 -25 157 -69t46 -126q0 -85 -52.5 -138.5t-148.5 -58.5v-138h-36v138q-157 9 -226 111l31 22q65 -91 196 -100v331q-100 22 -147 65t-47 118q0 77 51.5 124t141.5 51v124h36zM295 389v291
q-74 -4 -115.5 -42.5t-41.5 -99.5q0 -62 36.5 -95.5t120.5 -53.5zM328 345v-323q79 4 121.5 48t42.5 114q0 64 -36.5 103t-127.5 58z" />
    <glyph glyph-name="zero.tosf" 
d="M300 580q109 0 180.5 -80.5t71.5 -216.5q0 -135 -71 -214t-181 -79t-181.5 79t-71.5 214q0 136 71.5 216.5t181.5 80.5zM300 544q-92 0 -151 -70.5t-59 -190.5q0 -119 59 -188.5t151 -69.5q91 0 149.5 69t58.5 189t-59 190.5t-149 70.5z" />
    <glyph glyph-name="one.tosf" 
d="M137 0v36h168v367h-161v34h46q75 0 97.5 24t27.5 107h32v-532h157v-36h-367z" />
    <glyph glyph-name="two.tosf" 
d="M304 579q91 0 144 -48t53 -129q0 -91 -86 -177t-264 -189h363v-36h-428v35q198 119 284.5 200.5t86.5 163.5q0 70 -41.5 107t-111.5 37q-78 0 -124.5 -46.5t-48.5 -106.5h-43q3 73 61 131t155 58z" />
    <glyph glyph-name="three.tosf" 
d="M306 580q99 0 154 -47.5t55 -124.5q0 -67 -39 -111t-102 -49q66 -5 114 -52.5t48 -124.5q0 -99 -67 -156.5t-167 -57.5q-90 0 -154 50t-84 137l41 9q17 -74 67.5 -117t129.5 -43q82 0 136.5 46.5t54.5 132.5q0 74 -47 116t-122 42h-70v33h64q70 0 112.5 37t42.5 106
q0 64 -45.5 101.5t-122.5 37.5q-74 0 -119.5 -37.5t-61.5 -101.5l-40 7q15 71 73.5 119t148.5 48z" />
    <glyph glyph-name="four.tosf" 
d="M438 568v-532h124v-36h-124v-130h-41v130h-359v37l348 531h52zM396 519l-315 -483h315v483z" />
    <glyph glyph-name="five.tosf" 
d="M503 568l-6 -36h-326l-33 -254q67 83 183 83q91 0 154 -66t63 -171q0 -118 -66.5 -192.5t-175.5 -74.5q-93 0 -150 47t-77 107l39 12q18 -53 66 -91.5t125 -38.5q88 0 142.5 64.5t54.5 164.5q0 93 -51.5 148.5t-128.5 55.5q-114 0 -186 -99l-37 6l45 335h365z" />
    <glyph glyph-name="six.tosf" 
d="M315 694q134 0 188 -131l-38 -12q-43 109 -150 109q-191 0 -212 -347q20 57 75 98t131 41q96 0 156.5 -61.5t60.5 -166.5t-63 -170t-166 -65q-104 0 -168.5 72t-64.5 198q0 210 65.5 322.5t185.5 112.5zM302 418q-79 0 -136.5 -57t-57.5 -133q0 -87 51.5 -145.5
t137.5 -58.5q84 0 135.5 55t51.5 145q0 88 -50 141t-132 53z" />
    <glyph glyph-name="seven.tosf" 
d="M524 568v-36q-126 -160 -193 -314.5t-92 -347.5h-45q25 197 94 350.5t196 311.5h-352v-79h-37v115h429z" />
    <glyph glyph-name="eight.tosf" 
d="M298 694q105 0 153.5 -50.5t48.5 -118.5q0 -117 -142 -160q91 -27 134.5 -69t43.5 -113q0 -33 -11.5 -65t-37 -62t-74.5 -48.5t-115 -18.5q-118 0 -176 58t-58 134q0 75 44 123.5t126 64.5q-71 23 -104 61t-33 95q0 29 10 56.5t32 54t63 42.5t96 16zM298 661
q-83 0 -121.5 -41.5t-38.5 -94.5q0 -57 37.5 -89t119.5 -53l26 -6q138 45 138 148q0 55 -38 95.5t-123 40.5zM297 348l-22 6q-169 -26 -169 -173q0 -63 48.5 -110t143.5 -47q103 0 149.5 49.5t46.5 109.5q0 67 -46.5 103t-150.5 62z" />
    <glyph glyph-name="nine.tosf" 
d="M299 580q104 0 168 -70t64 -195q0 -236 -61 -347.5t-192 -111.5q-142 0 -204 120l36 17q52 -103 169 -103q107 0 157 94t57 275q-18 -62 -73.5 -104t-133.5 -42q-96 0 -157 61.5t-61 167.5q0 107 63.5 172.5t167.5 65.5zM298 545q-84 0 -136 -55.5t-52 -147.5
q0 -88 50 -140.5t132 -52.5q84 0 139 59t55 137q0 86 -51 143t-137 57z" />
    <glyph glyph-name="cent.tosf" 
d="M489 147l35 -13q-56 -135 -202 -143v-140h-31v139q-103 5 -159.5 80t-56.5 187q0 115 57 189t159 80v142h31v-141q66 -4 117 -37t75 -85l-34 -14q-20 45 -61.5 72t-97.5 31v-471q120 8 168 124zM115 257q0 -100 46 -164.5t132 -69.5v471q-85 -6 -131.5 -70t-46.5 -167z
" />
    <glyph glyph-name="sterling.tosf" 
d="M344 711q133 0 173 -137l-39 -10q-33 113 -135 113q-65 0 -105 -44t-40 -112v-168h231v-30h-231v-167q0 -46 -10.5 -73.5t-40.5 -46.5h368v-36h-418l-4 33q41 19 53.5 45.5t12.5 77.5v167h-84v30h83v170q0 79 49.5 133.5t136.5 54.5z" />
    <glyph glyph-name="yen.tosf" 
d="M543 700l-209 -379h154v-26h-164v-122h164v-26h-164v-147h-41v147h-165v26h165v122h-165v26h155l-216 379h44l203 -366l195 366h44z" />
    <glyph glyph-name="uni0394.tosf" 
d="M329 680l240 -680h-538l242 680h56zM90 37h420l-210 605z" />
    <glyph glyph-name="uni2007.tosf" 
 />
    <glyph glyph-name="figuredash.tosf" 
d="M555 312v-37h-509v37h509z" />
    <glyph glyph-name="Euro.tosf" 
d="M385 711q109 0 176 -82l-14 -38q-64 86 -162 86q-81 0 -137 -63t-70 -181h306l-9 -27h-299q-2 -19 -2 -64q0 -35 1 -51h269l-9 -26h-257q11 -121 63.5 -181.5t132.5 -60.5q100 0 159 71v-42q-61 -63 -160 -63q-91 0 -155 66.5t-80 209.5h-77l9 26h65q-1 16 -1 51
q0 45 2 64h-73l9 27h67q17 137 84.5 207.5t161.5 70.5z" />
    <glyph glyph-name="numbersign.sc" 
d="M525 365h-89l-23 -156h86v-32h-90l-26 -177h-36l26 177h-176l-26 -177h-36l26 177h-85v32h89l23 156h-86v32h90l26 177h36l-26 -177h176l26 177h36l-26 -177h85v-32zM377 209l23 156h-176l-23 -156h176z" />
    <glyph glyph-name="dollar.sc" horiz-adv-x="547" 
d="M304 680v-103q131 -7 202 -99l-33 -24q-56 80 -170 87v-227q115 -21 161 -58.5t46 -103.5q0 -69 -53.5 -113.5t-152.5 -48.5v-115h-34v115q-70 2 -131.5 26.5t-99.5 71.5l30 26q69 -81 202 -88v255q-104 18 -152 54t-48 98q0 64 53 103.5t146 40.5v103h34zM271 319v223
q-75 -1 -116.5 -30t-41.5 -77t35.5 -73.5t122.5 -42.5zM302 275v-249q79 2 121 36t42 88q0 50 -35 79t-128 46z" />
    <glyph glyph-name="percent.sc" horiz-adv-x="1012" 
d="M703 586l-356 -597h-36l357 597h35zM237 584q69 0 120.5 -52.5t51.5 -141.5q0 -91 -51 -144t-121 -53q-71 0 -123 53t-52 144q0 89 52 141.5t123 52.5zM237 555q-60 0 -99.5 -44.5t-39.5 -120.5q0 -78 39.5 -122.5t99.5 -44.5q59 0 98 44.5t39 122.5q0 76 -39.5 120.5
t-97.5 44.5zM777 381q70 0 121.5 -52.5t51.5 -141.5q0 -91 -51.5 -144t-121.5 -53t-122 53t-52 144q0 89 52 141.5t122 52.5zM776 352q-60 0 -99 -44.5t-39 -120.5q0 -78 39.5 -122.5t98.5 -44.5t98.5 44.5t39.5 122.5q0 76 -39.5 120.5t-98.5 44.5z" />
    <glyph glyph-name="a.sc" horiz-adv-x="538" 
d="M469 0l-46 123h-310l-46 -123h-44l219 568h55l218 -568h-46zM269 535l-143 -376h283z" />
    <glyph glyph-name="b.sc" horiz-adv-x="571" 
d="M385 307q65 -7 103 -46.5t38 -98.5q0 -73 -55.5 -117.5t-159.5 -44.5h-218v568h191q208 0 208 -140q0 -48 -29.5 -79.5t-77.5 -41.5zM289 532h-154v-211h192q55 0 89 29t34 77q0 105 -161 105zM135 37h181q78 0 122 34t44 92q0 59 -40.5 91.5t-108.5 32.5h-198v-250z" />
    <glyph glyph-name="c.sc" horiz-adv-x="635" 
d="M327 578q77 0 142 -37t98 -120l-41 -11q-55 130 -199 130q-96 0 -158.5 -66.5t-62.5 -188.5q0 -127 63 -192t157 -65q157 0 212 143l41 -13q-31 -84 -99 -125.5t-154 -41.5q-47 0 -91 15t-84 47.5t-64 92t-24 139.5q0 145 77 219t187 74z" />
    <glyph glyph-name="d.sc" horiz-adv-x="623" 
d="M93 568h166q134 0 217.5 -69.5t83.5 -206.5q0 -65 -16.5 -116.5t-43 -84t-63.5 -53.5t-74.5 -29.5t-78.5 -8.5h-191v568zM261 530h-126v-492h149q45 0 83.5 12t73.5 39t55.5 79t20.5 124q0 114 -67.5 176t-188.5 62z" />
    <glyph glyph-name="e.sc" horiz-adv-x="516" 
d="M444 568v-36h-309v-224h291v-36h-291v-235h317v-37h-359v568h351z" />
    <glyph glyph-name="f.sc" horiz-adv-x="485" 
d="M435 568v-36h-300v-234h280v-37h-280v-261h-42v568h342z" />
    <glyph glyph-name="g.sc" horiz-adv-x="657" 
d="M327 578q172 0 236 -144l-39 -15q-53 122 -198 122q-96 0 -158 -68.5t-62 -191.5q0 -126 62 -190t158 -64q86 0 146 52.5t60 158.5v12h-182v36h224v-286h-42v101q-26 -51 -83 -80.5t-126 -29.5q-38 0 -73.5 9t-70 30.5t-60 53.5t-41 83t-15.5 114q0 145 77.5 221
t186.5 76z" />
    <glyph glyph-name="h.sc" horiz-adv-x="625" 
d="M531 568v-568h-41v278h-355v-278h-42v568h42v-253h355v253h41z" />
    <glyph glyph-name="i.sc" horiz-adv-x="300" 
d="M262 568v-36h-91v-495h91v-37h-224v37h91v495h-91v36h224z" />
    <glyph glyph-name="j.sc" horiz-adv-x="356" 
d="M276 568v-419q0 -75 -34.5 -114t-118.5 -39q-29 0 -89 6v37q40 -5 72 -5q72 0 100 27.5t28 90.5v416h42z" />
    <glyph glyph-name="k.sc" horiz-adv-x="560" 
d="M482 0l-243 301l-104 -110v-191h-42v568h42v-323l304 323h51l-223 -238l265 -330h-50z" />
    <glyph glyph-name="l.sc" horiz-adv-x="476" 
d="M135 568v-530h303v-38h-345v568h42z" />
    <glyph glyph-name="m.sc" horiz-adv-x="721" 
d="M587 568l74 -568h-40l-71 525l-163 -525h-48l-171 525l-68 -525h-40l71 568h65l167 -522l161 522h63z" />
    <glyph glyph-name="n.sc" horiz-adv-x="627" 
d="M534 568v-568h-45l-356 497v-497h-40v568h43l357 -503v503h41z" />
    <glyph glyph-name="o.sc" horiz-adv-x="669" 
d="M334 578q48 0 93.5 -15.5t87 -48.5t66.5 -92.5t25 -138.5q0 -75 -23.5 -132.5t-62.5 -91.5t-86.5 -51t-99.5 -17q-48 0 -93.5 15.5t-86.5 48t-66 92t-25 138.5q0 75 23 133t62.5 92t86.5 51t99 17zM334 541q-98 0 -163 -66.5t-65 -189.5q0 -125 66 -191t162 -66
q97 0 162.5 66.5t65.5 188.5q0 126 -66 192t-162 66z" />
    <glyph glyph-name="p.sc" horiz-adv-x="553" 
d="M93 568h195q111 0 163.5 -47t52.5 -122q0 -81 -53.5 -129.5t-159.5 -48.5h-156v-221h-42v568zM135 257h159q80 0 123.5 37t43.5 105q0 61 -41.5 97t-127.5 36h-157v-275z" />
    <glyph glyph-name="q.sc" horiz-adv-x="691" 
d="M334 578q48 0 93.5 -15.5t87 -48.5t66.5 -92.5t25 -138.5q0 -169 -116 -244q47 -47 143 -70l-18 -42q-103 28 -157 91q-57 -27 -124 -27q-48 0 -93.5 15.5t-86.5 48t-66 92t-25 138.5q0 75 23 133t62.5 92t86.5 51t99 17zM334 540q-98 0 -163 -66t-65 -189
q0 -125 66 -191t162 -66q97 0 162.5 66.5t65.5 188.5q0 125 -66 191t-162 66z" />
    <glyph glyph-name="r.sc" horiz-adv-x="552" 
d="M93 568h185q109 0 163 -43.5t54 -115.5q0 -61 -39.5 -104.5t-118.5 -50.5l179 -254h-50l-173 248h-158v-248h-42v568zM283 532h-148v-249h162q75 0 115 34t40 92q0 59 -43 91t-126 32z" />
    <glyph glyph-name="s.sc" horiz-adv-x="553" 
d="M274 578q147 0 224 -98l-34 -23q-64 84 -190 84q-78 0 -122 -29t-44 -78q0 -50 41.5 -75.5t145.5 -41.5q111 -18 159 -57t48 -108q0 -73 -58 -117t-168 -44q-72 0 -137.5 23t-106.5 72l33 25q73 -84 212 -84q84 0 132.5 34t48.5 90q0 55 -41 84.5t-150 45.5
q-102 15 -152 51t-50 100q0 66 56 106t153 40z" />
    <glyph glyph-name="t.sc" horiz-adv-x="515" 
d="M479 568v-37h-200v-531h-42v531h-200v37h442z" />
    <glyph glyph-name="u.sc" horiz-adv-x="597" 
d="M517 568v-369q0 -86 -53.5 -147t-165.5 -61q-60 0 -104 18t-67.5 49t-34.5 66t-11 75v369h42v-368q0 -78 43.5 -125t132.5 -47q87 0 131.5 48t44.5 124v368h42z" />
    <glyph glyph-name="v.sc" horiz-adv-x="494" 
d="M472 568l-195 -568h-54l-200 568h46l182 -527l178 527h43z" />
    <glyph glyph-name="w.sc" horiz-adv-x="761" 
d="M704 568l-147 -568h-49l-139 512l-132 -512h-51l-158 568h44l139 -522l134 522h47l140 -521l131 521h41z" />
    <glyph glyph-name="x.sc" horiz-adv-x="535" 
d="M292 308l220 -308h-51l-195 275l-1 1v-1l-193 -275h-49l217 305l-188 263h50l165 -230l162 230h49z" />
    <glyph glyph-name="y.sc" horiz-adv-x="527" 
d="M500 568l-213 -333v-235h-42v235l-219 333h48l193 -294l187 294h46z" />
    <glyph glyph-name="z.sc" horiz-adv-x="534" 
d="M479 568v-34l-384 -496h391v-38h-446v33l385 498h-358v37h412z" />
    <glyph glyph-name="cent.sc" 
d="M510 171l40 -13q-29 -81 -90 -122t-141 -45v-140h-37v141q-44 4 -83.5 21t-74 50t-54.5 90t-20 132q0 137 66 210.5t166 81.5v141h37v-140q71 -3 130.5 -40.5t90.5 -116.5l-40 -11q-51 124 -182 131v-514q143 6 192 144zM93 285q0 -120 53 -185t138 -72v512
q-86 -8 -138.5 -73.5t-52.5 -181.5z" />
    <glyph glyph-name="sterling.sc" horiz-adv-x="604" 
d="M348 577q66 0 108 -33t59 -83l-40 -11q-29 93 -128 93q-63 0 -100 -35t-37 -91v-125h223v-29h-223v-126q0 -39 -9.5 -61.5t-36.5 -38.5h346v-37h-395l-5 33q37 16 48.5 38t11.5 65v127h-76v29h76v127q0 67 46 112.5t132 45.5z" />
    <glyph glyph-name="yen.sc" horiz-adv-x="533" 
d="M505 568l-200 -307h139v-26h-153v-93h153v-26h-153v-116h-42v116h-154v26h154v93h-154v26h140l-206 307h48l194 -297l187 297h47z" />
    <glyph glyph-name="section.sc" horiz-adv-x="620" 
d="M337 575q100 0 175 -61l-27 -25q-64 52 -150 52q-65 0 -99.5 -24.5t-34.5 -64.5t30.5 -61t113.5 -35q96 -16 143.5 -49.5t47.5 -93.5q0 -36 -23.5 -65.5t-71.5 -64.5q61 -31 61 -96q0 -56 -48 -91.5t-130 -35.5q-115 0 -190 67l27 25q65 -57 165 -57q64 0 99 24.5
t35 64.5t-30.5 61t-113.5 35q-96 16 -144 49t-48 93q0 38 23 68t74 62q-62 32 -62 96q0 57 47.5 92t130.5 35zM250 339q-46 -31 -65.5 -56t-19.5 -57q0 -46 41.5 -71t131.5 -41q36 -6 74 -18q44 32 64 57t20 57q0 45 -41 70.5t-131 41.5q-43 7 -74 17z" />
    <glyph glyph-name="degree.sc" horiz-adv-x="496" 
d="M249 643q70 0 120.5 -46.5t50.5 -124.5t-50.5 -123.5t-120.5 -45.5q-71 0 -122 46t-51 124t51 124t122 46zM249 612q-55 0 -94.5 -36.5t-39.5 -102.5q0 -65 39.5 -102t94.5 -37q54 0 93.5 37t39.5 101q0 66 -39 103t-94 37z" />
    <glyph glyph-name="germandbls.sc" horiz-adv-x="1116" 
d="M274 578q147 0 224 -98l-34 -23q-64 84 -190 84q-78 0 -122 -29t-44 -78q0 -50 41.5 -75.5t145.5 -41.5q111 -18 159 -57t48 -108q0 -73 -58 -117t-168 -44q-72 0 -137.5 23t-106.5 72l33 25q73 -84 212 -84q84 0 132.5 34t48.5 90q0 55 -41 84.5t-150 45.5
q-102 15 -152 51t-50 100q0 66 56 106t153 40zM837 578q147 0 224 -98l-34 -23q-64 84 -190 84q-78 0 -122 -29t-44 -78q0 -50 41.5 -75.5t145.5 -41.5q111 -18 159 -57t48 -108q0 -73 -58 -117t-168 -44q-72 0 -137.5 23t-106.5 72l33 25q73 -84 212 -84q84 0 132.5 34
t48.5 90q0 55 -41 84.5t-150 45.5q-102 15 -152 51t-50 100q0 66 56 106t153 40z" />
    <glyph glyph-name="agrave.sc" horiz-adv-x="538" 
d="M469 0l-46 123h-310l-46 -123h-44l219 568h55l218 -568h-46zM269 535l-143 -376h283zM197 773l99 -130h-36l-119 130h56z" />
    <glyph glyph-name="aacute.sc" horiz-adv-x="538" 
d="M469 0l-46 123h-310l-46 -123h-44l219 568h55l218 -568h-46zM269 535l-143 -376h283zM396 773l-118 -130h-37l101 130h54z" />
    <glyph glyph-name="acircumflex.sc" horiz-adv-x="538" 
d="M469 0l-46 123h-310l-46 -123h-44l219 568h55l218 -568h-46zM269 535l-143 -376h283zM290 775l130 -124h-41l-110 96l-111 -96h-40l130 124h42z" />
    <glyph glyph-name="atilde.sc" horiz-adv-x="538" 
d="M469 0l-46 123h-310l-46 -123h-44l219 568h55l218 -568h-46zM269 535l-143 -376h283zM207 750q36 0 68.5 -27t56.5 -27q21 0 34.5 11.5t24.5 36.5h29q-9 -36 -32.5 -57.5t-57.5 -21.5q-37 0 -69.5 27.5t-56.5 27.5q-21 0 -34.5 -12.5t-24.5 -38.5h-29q20 81 91 81z" />
    <glyph glyph-name="adieresis.sc" horiz-adv-x="538" 
d="M469 0l-46 123h-310l-46 -123h-44l219 568h55l218 -568h-46zM269 535l-143 -376h283zM162 737q12 0 20.5 -8.5t8.5 -20.5t-8.5 -20t-20.5 -8q-11 0 -19.5 8t-8.5 20t8.5 20.5t19.5 8.5zM376 737q12 0 20.5 -8.5t8.5 -20.5t-8.5 -20t-20.5 -8q-11 0 -19.5 8t-8.5 20
t8.5 20.5t19.5 8.5z" />
    <glyph glyph-name="aring.sc" horiz-adv-x="538" 
d="M469 0l-46 123h-310l-46 -123h-44l219 568h55l218 -568h-46zM269 535l-143 -376h283zM269 858q46 0 80.5 -32t34.5 -80t-34 -78.5t-81 -30.5t-81.5 30.5t-34.5 78.5t34.5 80t81.5 32zM268 830q-35 0 -59.5 -23.5t-24.5 -60.5t24.5 -59.5t59.5 -22.5t59.5 22.5t24.5 59.5
t-24.5 60.5t-59.5 23.5z" />
    <glyph glyph-name="ae.sc" horiz-adv-x="849" 
d="M757 568v-36h-345l37 -224h297v-36h-291l39 -234h312v-38h-350l-19 122h-306l-72 -122h-46l340 568h404zM372 529l-222 -371h281z" />
    <glyph glyph-name="ccedilla.sc" horiz-adv-x="635" 
d="M327 578q77 0 142 -37t98 -120l-41 -11q-55 130 -199 130q-96 0 -158.5 -66.5t-62.5 -188.5q0 -127 63 -192t157 -65q157 0 212 143l41 -13q-31 -82 -97 -123.5t-149 -43.5l-1 -48q53 -2 81.5 -23t28.5 -56q0 -39 -31 -62.5t-85 -23.5q-57 0 -98 25l15 25q32 -21 81 -21
q82 0 82 57q0 31 -26.5 43.5t-81.5 13.5l9 71q-45 3 -86 20t-78 49.5t-58.5 90t-21.5 133.5q0 145 77 219t187 74z" />
    <glyph glyph-name="egrave.sc" horiz-adv-x="516" 
d="M444 568v-36h-309v-224h291v-36h-291v-235h317v-37h-359v568h351zM204 773l99 -130h-36l-119 130h56z" />
    <glyph glyph-name="eacute.sc" horiz-adv-x="516" 
d="M444 568v-36h-309v-224h291v-36h-291v-235h317v-37h-359v568h351zM403 773l-118 -130h-37l101 130h54z" />
    <glyph glyph-name="ecircumflex.sc" horiz-adv-x="516" 
d="M444 568v-36h-309v-224h291v-36h-291v-235h317v-37h-359v568h351zM297 775l130 -124h-41l-110 96l-111 -96h-40l130 124h42z" />
    <glyph glyph-name="edieresis.sc" horiz-adv-x="516" 
d="M444 568v-36h-309v-224h291v-36h-291v-235h317v-37h-359v568h351zM169 737q12 0 20.5 -8.5t8.5 -20.5t-8.5 -20t-20.5 -8q-11 0 -19.5 8t-8.5 20t8.5 20.5t19.5 8.5zM383 737q12 0 20.5 -8.5t8.5 -20.5t-8.5 -20t-20.5 -8q-11 0 -19.5 8t-8.5 20t8.5 20.5t19.5 8.5z" />
    <glyph glyph-name="igrave.sc" horiz-adv-x="300" 
d="M262 568v-36h-91v-495h91v-37h-224v37h91v495h-91v36h224zM78 773l99 -130h-36l-119 130h56z" />
    <glyph glyph-name="iacute.sc" horiz-adv-x="300" 
d="M262 568v-36h-91v-495h91v-37h-224v37h91v495h-91v36h224zM277 773l-118 -130h-37l101 130h54z" />
    <glyph glyph-name="icircumflex.sc" horiz-adv-x="300" 
d="M262 568v-36h-91v-495h91v-37h-224v37h91v495h-91v36h224zM171 775l130 -124h-41l-110 96l-111 -96h-40l130 124h42z" />
    <glyph glyph-name="idieresis.sc" horiz-adv-x="300" 
d="M262 568v-36h-91v-495h91v-37h-224v37h91v495h-91v36h224zM43 737q12 0 20.5 -8.5t8.5 -20.5t-8.5 -20t-20.5 -8q-11 0 -19.5 8t-8.5 20t8.5 20.5t19.5 8.5zM257 737q12 0 20.5 -8.5t8.5 -20.5t-8.5 -20t-20.5 -8q-11 0 -19.5 8t-8.5 20t8.5 20.5t19.5 8.5z" />
    <glyph glyph-name="eth.sc" horiz-adv-x="647" 
d="M117 568h166q134 0 217.5 -69.5t83.5 -206.5q0 -65 -16.5 -116.5t-43 -84t-63.5 -53.5t-74.5 -29.5t-78.5 -8.5h-191v281h-91v33h91v254zM159 38h149q45 0 83.5 12t73.5 39t55.5 79t20.5 124q0 114 -67.5 176t-188.5 62h-126v-216h189v-33h-189v-243z" />
    <glyph glyph-name="ntilde.sc" horiz-adv-x="627" 
d="M534 568v-568h-45l-356 497v-497h-40v568h43l357 -503v503h41zM252 750q36 0 68.5 -27t56.5 -27q21 0 34.5 11.5t24.5 36.5h29q-9 -36 -32.5 -57.5t-57.5 -21.5q-37 0 -69.5 27.5t-56.5 27.5q-21 0 -34.5 -12.5t-24.5 -38.5h-29q20 81 91 81z" />
    <glyph glyph-name="ograve.sc" horiz-adv-x="669" 
d="M334 578q48 0 93.5 -15.5t87 -48.5t66.5 -92.5t25 -138.5q0 -75 -23.5 -132.5t-62.5 -91.5t-86.5 -51t-99.5 -17q-48 0 -93.5 15.5t-86.5 48t-66 92t-25 138.5q0 75 23 133t62.5 92t86.5 51t99 17zM334 541q-98 0 -163 -66.5t-65 -189.5q0 -125 66 -191t162 -66
q97 0 162.5 66.5t65.5 188.5q0 126 -66 192t-162 66zM263 773l99 -130h-36l-119 130h56z" />
    <glyph glyph-name="oacute.sc" horiz-adv-x="669" 
d="M334 578q48 0 93.5 -15.5t87 -48.5t66.5 -92.5t25 -138.5q0 -75 -23.5 -132.5t-62.5 -91.5t-86.5 -51t-99.5 -17q-48 0 -93.5 15.5t-86.5 48t-66 92t-25 138.5q0 75 23 133t62.5 92t86.5 51t99 17zM334 541q-98 0 -163 -66.5t-65 -189.5q0 -125 66 -191t162 -66
q97 0 162.5 66.5t65.5 188.5q0 126 -66 192t-162 66zM462 773l-118 -130h-37l101 130h54z" />
    <glyph glyph-name="ocircumflex.sc" horiz-adv-x="669" 
d="M334 578q48 0 93.5 -15.5t87 -48.5t66.5 -92.5t25 -138.5q0 -75 -23.5 -132.5t-62.5 -91.5t-86.5 -51t-99.5 -17q-48 0 -93.5 15.5t-86.5 48t-66 92t-25 138.5q0 75 23 133t62.5 92t86.5 51t99 17zM334 541q-98 0 -163 -66.5t-65 -189.5q0 -125 66 -191t162 -66
q97 0 162.5 66.5t65.5 188.5q0 126 -66 192t-162 66zM356 775l130 -124h-41l-110 96l-111 -96h-40l130 124h42z" />
    <glyph glyph-name="otilde.sc" horiz-adv-x="669" 
d="M334 578q48 0 93.5 -15.5t87 -48.5t66.5 -92.5t25 -138.5q0 -75 -23.5 -132.5t-62.5 -91.5t-86.5 -51t-99.5 -17q-48 0 -93.5 15.5t-86.5 48t-66 92t-25 138.5q0 75 23 133t62.5 92t86.5 51t99 17zM334 541q-98 0 -163 -66.5t-65 -189.5q0 -125 66 -191t162 -66
q97 0 162.5 66.5t65.5 188.5q0 126 -66 192t-162 66zM273 750q36 0 68.5 -27t56.5 -27q21 0 34.5 11.5t24.5 36.5h29q-9 -36 -32.5 -57.5t-57.5 -21.5q-37 0 -69.5 27.5t-56.5 27.5q-21 0 -34.5 -12.5t-24.5 -38.5h-29q20 81 91 81z" />
    <glyph glyph-name="odieresis.sc" horiz-adv-x="669" 
d="M334 578q48 0 93.5 -15.5t87 -48.5t66.5 -92.5t25 -138.5q0 -75 -23.5 -132.5t-62.5 -91.5t-86.5 -51t-99.5 -17q-48 0 -93.5 15.5t-86.5 48t-66 92t-25 138.5q0 75 23 133t62.5 92t86.5 51t99 17zM334 541q-98 0 -163 -66.5t-65 -189.5q0 -125 66 -191t162 -66
q97 0 162.5 66.5t65.5 188.5q0 126 -66 192t-162 66zM228 737q12 0 20.5 -8.5t8.5 -20.5t-8.5 -20t-20.5 -8q-11 0 -19.5 8t-8.5 20t8.5 20.5t19.5 8.5zM442 737q12 0 20.5 -8.5t8.5 -20.5t-8.5 -20t-20.5 -8q-11 0 -19.5 8t-8.5 20t8.5 20.5t19.5 8.5z" />
    <glyph glyph-name="oslash.sc" horiz-adv-x="669" 
d="M591 625l-74 -113q89 -79 89 -228q0 -75 -23 -133t-62.5 -92.5t-86.5 -51.5t-99 -17q-80 0 -146 40l-71 -106h-40l83 125q-98 79 -98 236q0 75 23 133t62.5 92t86.5 51t100 17q87 0 154 -46l63 93h39zM334 541q-98 0 -163 -66.5t-65 -189.5q0 -135 78 -203l285 417
q-56 42 -135 42zM494 479l-284 -416q54 -35 125 -35q97 0 162.5 66.5t65.5 188.5q0 125 -69 196z" />
    <glyph glyph-name="ugrave.sc" horiz-adv-x="597" 
d="M517 568v-369q0 -86 -53.5 -147t-165.5 -61q-60 0 -104 18t-67.5 49t-34.5 66t-11 75v369h42v-368q0 -78 43.5 -125t132.5 -47q87 0 131.5 48t44.5 124v368h42zM226 773l99 -130h-36l-119 130h56z" />
    <glyph glyph-name="uacute.sc" horiz-adv-x="597" 
d="M517 568v-369q0 -86 -53.5 -147t-165.5 -61q-60 0 -104 18t-67.5 49t-34.5 66t-11 75v369h42v-368q0 -78 43.5 -125t132.5 -47q87 0 131.5 48t44.5 124v368h42zM425 773l-118 -130h-37l101 130h54z" />
    <glyph glyph-name="ucircumflex.sc" horiz-adv-x="597" 
d="M517 568v-369q0 -86 -53.5 -147t-165.5 -61q-60 0 -104 18t-67.5 49t-34.5 66t-11 75v369h42v-368q0 -78 43.5 -125t132.5 -47q87 0 131.5 48t44.5 124v368h42zM319 775l130 -124h-41l-110 96l-111 -96h-40l130 124h42z" />
    <glyph glyph-name="udieresis.sc" horiz-adv-x="597" 
d="M517 568v-369q0 -86 -53.5 -147t-165.5 -61q-60 0 -104 18t-67.5 49t-34.5 66t-11 75v369h42v-368q0 -78 43.5 -125t132.5 -47q87 0 131.5 48t44.5 124v368h42zM191 737q12 0 20.5 -8.5t8.5 -20.5t-8.5 -20t-20.5 -8q-11 0 -19.5 8t-8.5 20t8.5 20.5t19.5 8.5zM405 737
q12 0 20.5 -8.5t8.5 -20.5t-8.5 -20t-20.5 -8q-11 0 -19.5 8t-8.5 20t8.5 20.5t19.5 8.5z" />
    <glyph glyph-name="yacute.sc" horiz-adv-x="527" 
d="M500 568l-213 -333v-235h-42v235l-219 333h48l193 -294l187 294h46zM392 773l-118 -130h-37l101 130h54z" />
    <glyph glyph-name="thorn.sc" horiz-adv-x="553" 
d="M135 568v-104h153q111 0 163.5 -48.5t52.5 -123.5q0 -81 -53.5 -130t-159.5 -49h-156v-113h-42v568h42zM293 427h-158v-278h159q80 0 123.5 37t43.5 105q0 62 -41.5 99t-126.5 37z" />
    <glyph glyph-name="ydieresis.sc" horiz-adv-x="527" 
d="M500 568l-213 -333v-235h-42v235l-219 333h48l193 -294l187 294h46zM158 737q12 0 20.5 -8.5t8.5 -20.5t-8.5 -20t-20.5 -8q-11 0 -19.5 8t-8.5 20t8.5 20.5t19.5 8.5zM372 737q12 0 20.5 -8.5t8.5 -20.5t-8.5 -20t-20.5 -8q-11 0 -19.5 8t-8.5 20t8.5 20.5t19.5 8.5z
" />
    <glyph glyph-name="dotlessi.sc" horiz-adv-x="300" 
d="M262 568v-36h-91v-495h91v-37h-224v37h91v495h-91v36h224z" />
    <glyph glyph-name="ij.sc" horiz-adv-x="666" 
d="M262 568v-36h-91v-495h91v-37h-224v37h91v495h-91v36h224zM586 568v-419q0 -75 -34.5 -114t-118.5 -39q-29 0 -89 6v37q40 -5 72 -5q72 0 100 27.5t28 90.5v416h42z" />
    <glyph glyph-name="lslash.sc" horiz-adv-x="505" 
d="M154 38h303v-38h-345v268l-86 -44v37l86 44v263h42v-242l166 85v-37l-166 -85v-251z" />
    <glyph glyph-name="oe.sc" horiz-adv-x="835" 
d="M333 578q42 0 95 -10h336v-36h-295v-224h277v-36h-277v-235h303v-37h-344q-45 -9 -96 -9q-47 0 -92 15.5t-86 48t-66 92t-25 138.5q0 75 23.5 133t62.5 92t86 51t98 17zM332 541q-96 0 -161 -67t-65 -189q0 -125 66 -191t160 -66q51 0 95 12v489q-48 12 -95 12z" />
    <glyph glyph-name="scaron.sc" horiz-adv-x="553" 
d="M274 578q147 0 224 -98l-34 -23q-64 84 -190 84q-78 0 -122 -29t-44 -78q0 -50 41.5 -75.5t145.5 -41.5q111 -18 159 -57t48 -108q0 -73 -58 -117t-168 -44q-72 0 -137.5 23t-106.5 72l33 25q73 -84 212 -84q84 0 132.5 34t48.5 90q0 55 -41 84.5t-150 45.5
q-102 15 -152 51t-50 100q0 66 56 106t153 40zM429 783l-130 -124h-42l-130 124h40l111 -96l110 96h41z" />
    <glyph glyph-name="zcaron.sc" horiz-adv-x="534" 
d="M479 568v-34l-384 -496h391v-38h-446v33l385 498h-358v37h412zM414 783l-130 -124h-42l-130 124h40l111 -96l110 96h41z" />
    <glyph glyph-name="longs.sc" horiz-adv-x="553" 
d="M274 578q147 0 224 -98l-34 -23q-64 84 -190 84q-78 0 -122 -29t-44 -78q0 -50 41.5 -75.5t145.5 -41.5q111 -18 159 -57t48 -108q0 -73 -58 -117t-168 -44q-72 0 -137.5 23t-106.5 72l33 25q73 -84 212 -84q84 0 132.5 34t48.5 90q0 55 -41 84.5t-150 45.5
q-102 15 -152 51t-50 100q0 66 56 106t153 40z" />
    <glyph glyph-name="florin.sc" horiz-adv-x="343" 
d="M250 575q50 0 99 -20v-34q-50 20 -94 20q-58 0 -81 -27t-23 -77v-53h172v-33h-172v-383q0 -72 -39 -106t-96 -34q-19 0 -45 4v34q20 -2 31 -2q52 0 79.5 26t27.5 92v369h-77v33h77v58q0 133 141 133z" />
    <glyph glyph-name="uni0394.sc" horiz-adv-x="538" 
d="M297 568l218 -568h-492l219 568h55zM268 532l-188 -496h375z" />
    <glyph glyph-name="uni03A9.sc" horiz-adv-x="671" 
d="M335 578q51 0 98 -16.5t87 -49.5t63.5 -90.5t23.5 -131.5q0 -106 -44 -167.5t-114 -84.5h151v-38h-203v38q74 20 120 84t46 168q0 120 -64.5 185t-163.5 65q-98 0 -163 -65t-65 -185q0 -104 46.5 -168t120.5 -84v-38h-203v38h151q-70 23 -114 85t-44 167q0 73 23 130
t62.5 90.5t86.5 50.5t99 17z" />
    <glyph glyph-name="uni1E9E.sc" horiz-adv-x="602" 
d="M359 -10q-108 0 -180 56l22 30q66 -49 157 -49q66 0 110.5 34.5t44.5 94.5t-39.5 91.5t-126.5 46.5v33l140 151q-68 64 -176 64q-87 0 -137.5 -43.5t-50.5 -133.5v-365h-42v371q0 99 63 153t167 54q136 0 225 -96l-148 -161q169 -36 169 -165q0 -76 -56.5 -121
t-141.5 -45z" />
    <glyph glyph-name="figuredash.sc" 
d="M555 312v-37h-509v37h509z" />
    <glyph glyph-name="dagger.sc" horiz-adv-x="620" 
d="M318 568v-175h174v-35h-174v-358h-41v358h-173v35h173v175h41z" />
    <glyph glyph-name="daggerdbl.sc" horiz-adv-x="620" 
d="M318 568v-159h174v-36h-174v-175h174v-36h-174v-162h-41v162h-173v36h173v175h-173v36h173v159h41z" />
    <glyph glyph-name="perthousand.sc" horiz-adv-x="1426" 
d="M703 586l-356 -597h-36l357 597h35zM237 584q69 0 120.5 -52.5t51.5 -141.5q0 -91 -51 -144t-121 -53q-71 0 -123 53t-52 144q0 89 52 141.5t123 52.5zM237 555q-60 0 -99.5 -44.5t-39.5 -120.5q0 -78 39.5 -122.5t99.5 -44.5q59 0 98 44.5t39 122.5q0 76 -39.5 120.5
t-97.5 44.5zM777 381q70 0 121.5 -52.5t51.5 -141.5q0 -91 -51.5 -144t-121.5 -53t-122 53t-52 144q0 89 52 141.5t122 52.5zM1189 381q70 0 121.5 -52.5t51.5 -141.5q0 -91 -51.5 -144t-121.5 -53t-122 53t-52 144q0 89 52 141.5t122 52.5zM776 352q-60 0 -99 -44.5
t-39 -120.5q0 -78 39.5 -122.5t98.5 -44.5t98.5 44.5t39.5 122.5q0 76 -39.5 120.5t-98.5 44.5zM1189 352q-60 0 -99 -44.5t-39 -120.5q0 -78 39.5 -122.5t98.5 -44.5t98.5 44.5t39.5 122.5q0 76 -39.5 120.5t-98.5 44.5z" />
    <glyph glyph-name="Euro.sc" horiz-adv-x="598" 
d="M363 577q106 0 170 -68l-14 -38q-61 70 -156 70q-78 0 -130.5 -48t-66.5 -138h295l-9 -26h-289q-2 -14 -2 -45t2 -45h259l-8 -26h-248q11 -93 60.5 -140t125.5 -47q95 0 155 60v-44q-60 -52 -155 -52q-88 0 -150 54.5t-77 168.5h-76l9 26h64q-2 28 -2 45t2 45h-70l9 26
h65q17 108 82 165t155 57z" />
    <glyph glyph-name="partialdiff.sc" horiz-adv-x="588" 
d="M143 538v34q193 -5 280.5 -84.5t87.5 -261.5q0 -114 -62 -175t-158 -61q-94 0 -154.5 54t-60.5 141q0 89 59.5 142t148.5 53q73 0 119 -29.5t65 -73.5q-14 138 -89 197t-236 64zM291 345q-78 0 -124.5 -43.5t-46.5 -116.5t47.5 -116t124.5 -43t125 47.5t48 122.5
q0 64 -49 106.5t-125 42.5z" />
    <glyph glyph-name="product.sc" 
d="M536 568v-34h-70v-560h-42v560h-248v-560h-42v560h-70v34h472z" />
    <glyph glyph-name="summation.sc" 
d="M532 568v-34h-402l231 -222v-33l-232 -244h403v-35h-456v30l249 265l-249 242v31h456z" />
    <glyph glyph-name="radical.sc" 
d="M659 700v-35h-189l-246 -665h-43l-186 418l44 1l163 -376l239 657h218z" />
    <glyph glyph-name="integral.sc" horiz-adv-x="300" 
d="M271 733q47 0 101 -16v-34q-55 16 -96 16q-107 0 -107 -105v-662q0 -134 -141 -134q-47 0 -101 16v35q48 -16 96 -16q58 0 81.5 27t23.5 77v662q0 58 33.5 96t109.5 38z" />
    <glyph glyph-name="lozenge.sc" 
d="M326 568l213 -279l-213 -289h-51l-214 288l214 280h51zM300 546l-195 -257l195 -266l195 266z" />
    <glyph glyph-name="fi.sc" horiz-adv-x="795" 
d="M435 568v-36h-300v-234h280v-37h-280v-261h-42v568h342zM757 568v-36h-91v-495h91v-37h-224v37h91v495h-91v36h224z" />
    <glyph glyph-name="fl.sc" horiz-adv-x="971" 
d="M435 568v-36h-300v-234h280v-37h-280v-261h-42v568h342zM630 568v-530h303v-38h-345v568h42z" />
    <glyph glyph-name="dollar.tf.sc" 
d="M304 680v-103q131 -7 202 -99l-33 -24q-56 80 -170 87v-227q115 -21 161 -58.5t46 -103.5q0 -69 -53.5 -113.5t-152.5 -48.5v-115h-34v115q-70 2 -131.5 26.5t-99.5 71.5l30 26q69 -81 202 -88v255q-104 18 -152 54t-48 98q0 64 53 103.5t146 40.5v103h34zM271 319v223
q-75 -1 -116.5 -30t-41.5 -77t35.5 -73.5t122.5 -42.5zM302 275v-249q79 2 121 36t42 88q0 50 -35 79t-128 46z" />
    <glyph glyph-name="zero.tf.sc" 
d="M300 580q109 0 180.5 -80.5t71.5 -216.5q0 -135 -71 -214t-181 -79t-181.5 79t-71.5 214q0 136 71.5 216.5t181.5 80.5zM300 544q-92 0 -151 -70.5t-59 -190.5q0 -119 59 -188.5t151 -69.5q91 0 149.5 69t58.5 189t-59 190.5t-149 70.5z" />
    <glyph glyph-name="one.tf.sc" 
d="M137 0v36h168v367h-161v34h46q75 0 97.5 24t27.5 107h32v-532h157v-36h-367z" />
    <glyph glyph-name="two.tf.sc" 
d="M304 579q91 0 144 -48t53 -129q0 -91 -86 -177t-264 -189h363v-36h-428v35q198 119 284.5 200.5t86.5 163.5q0 70 -41.5 107t-111.5 37q-78 0 -124.5 -46.5t-48.5 -106.5h-43q3 73 61 131t155 58z" />
    <glyph glyph-name="three.tf.sc" 
d="M326 579q96 0 147 -40.5t51 -103.5q0 -48 -31 -85.5t-83 -44.5q59 -5 98 -40t39 -97q0 -80 -63.5 -129t-161.5 -49q-94 0 -155.5 45.5t-81.5 126.5l41 9q17 -68 66 -106.5t130 -38.5q79 0 129.5 38t50.5 103q0 60 -39.5 90t-106.5 30h-79v34h74q60 0 95.5 31t35.5 82
q0 49 -40 79.5t-116 30.5q-74 0 -120 -35.5t-60 -93.5l-41 7q14 67 72.5 112t148.5 45z" />
    <glyph glyph-name="four.tf.sc" 
d="M448 568v-407h112v-35h-112v-126h-41v126h-334v35l323 407h52zM407 524l-288 -363h288v363z" />
    <glyph glyph-name="five.tf.sc" 
d="M496 568l-6 -35h-293l-30 -195q68 68 172 68q76 0 133 -55t57 -142q0 -97 -61.5 -158t-158.5 -61q-87 0 -139 39t-71 91l41 11q17 -45 58.5 -75t111.5 -30q77 0 126.5 51t49.5 130q0 75 -46.5 120t-112.5 45q-101 0 -168 -82l-38 5l41 273h334z" />
    <glyph glyph-name="six.tf.sc" 
d="M333 580q125 0 179 -109l-38 -12q-20 40 -57 63.5t-84 23.5q-90 0 -137 -65.5t-56 -197.5q21 48 70 79.5t118 31.5q91 0 150 -57.5t59 -143.5q0 -87 -60 -145t-159 -58q-98 0 -159 61t-61 172q0 357 235 357zM320 359q-77 0 -127 -47.5t-50 -114.5q0 -74 47.5 -122.5
t126.5 -48.5q81 0 128.5 47t47.5 120q0 71 -46.5 118.5t-126.5 47.5z" />
    <glyph glyph-name="seven.tf.sc" 
d="M538 568v-33q-114 -128 -173 -252t-85 -283h-50q31 168 91 291t171 242h-327v-58h-36v93h409z" />
    <glyph glyph-name="eight.tf.sc" 
d="M313 575q101 0 149.5 -40t48.5 -98q0 -49 -35 -81.5t-93 -46.5q86 -23 126 -59.5t40 -95.5q0 -69 -56.5 -116.5t-178.5 -47.5q-115 0 -173.5 47.5t-58.5 116.5q0 63 40 104.5t114 53.5q-118 37 -118 125q0 55 47 96.5t148 41.5zM313 541q-81 0 -117.5 -30t-36.5 -74
t35 -69t116 -41l29 -6q130 33 130 116q0 44 -36.5 74t-119.5 30zM312 290l-29 7q-158 -21 -158 -141q0 -56 48 -93.5t142 -37.5q100 0 146 37.5t46 92.5q0 54 -43.5 81.5t-151.5 53.5z" />
    <glyph glyph-name="nine.tf.sc" 
d="M303 -10q-65 0 -116 28t-78 81l39 13q20 -40 61.5 -63.5t93.5 -23.5q89 0 134.5 65t54.5 197q-21 -48 -70 -79t-118 -31q-91 0 -150 57t-59 143q0 87 60 145t159 58q97 0 158.5 -61t61.5 -172q0 -357 -231 -357zM312 211q77 0 127 47.5t50 114.5q0 74 -47.5 122.5
t-127.5 48.5t-127.5 -47t-47.5 -120q0 -71 46 -118.5t127 -47.5z" />
    <glyph glyph-name="cent.tf.sc" 
d="M505 171l40 -13q-29 -81 -90 -122t-141 -45v-140h-37v141q-44 4 -83.5 21t-74 50t-54.5 90t-20 132q0 137 66 210.5t166 81.5v141h37v-140q71 -3 130.5 -40.5t90.5 -116.5l-40 -11q-51 124 -182 131v-514q143 6 192 144zM88 285q0 -120 53 -185t138 -72v512
q-86 -8 -138.5 -73.5t-52.5 -181.5z" />
    <glyph glyph-name="sterling.tf.sc" 
d="M348 577q66 0 108 -33t59 -83l-40 -11q-29 93 -128 93q-63 0 -100 -35t-37 -91v-125h223v-29h-223v-126q0 -39 -9.5 -61.5t-36.5 -38.5h346v-37h-395l-5 33q37 16 48.5 38t11.5 65v127h-76v29h76v127q0 67 46 112.5t132 45.5z" />
    <glyph glyph-name="yen.tf.sc" 
d="M535 568l-200 -307h139v-26h-153v-93h153v-26h-153v-116h-42v116h-154v26h154v93h-154v26h140l-206 307h48l194 -297l187 297h47z" />
    <glyph glyph-name="figuredash.tf.sc" 
d="M555 312v-37h-509v37h509z" />
    <glyph glyph-name="Euro.tf.sc" 
d="M363 577q106 0 170 -68l-14 -38q-61 70 -156 70q-78 0 -130.5 -48t-66.5 -138h295l-9 -26h-289q-2 -14 -2 -45t2 -45h259l-8 -26h-248q11 -93 60.5 -140t125.5 -47q95 0 155 60v-44q-60 -52 -155 -52q-88 0 -150 54.5t-77 168.5h-76l9 26h64q-2 28 -2 45t2 45h-70l9 26
h65q17 108 82 165t155 57z" />
    <glyph glyph-name="dollar.lf.sc" horiz-adv-x="622" 
d="M315 680v-103q131 -7 202 -99l-33 -24q-56 80 -170 87v-227q115 -21 161 -58.5t46 -103.5q0 -69 -53.5 -113.5t-152.5 -48.5v-115h-34v115q-70 2 -131.5 26.5t-99.5 71.5l30 26q69 -81 202 -88v255q-104 18 -152 54t-48 98q0 64 53 103.5t146 40.5v103h34zM282 319v223
q-75 -1 -116.5 -30t-41.5 -77t35.5 -73.5t122.5 -42.5zM313 275v-249q79 2 121 36t42 88q0 50 -35 79t-128 46z" />
    <glyph glyph-name="zero.lf.sc" horiz-adv-x="584" 
d="M291 580q112 0 184.5 -81t72.5 -217q0 -135 -72.5 -213.5t-184.5 -78.5q-111 0 -183.5 78.5t-72.5 213.5q0 136 72.5 217t183.5 81zM292 544q-93 0 -153 -70.5t-60 -191.5q0 -119 60 -188t153 -69t153 68.5t60 188.5q0 121 -60 191.5t-153 70.5z" />
    <glyph glyph-name="one.lf.sc" horiz-adv-x="469" 
d="M90 0v36h168v367h-161v34h46q75 0 97.5 24t27.5 107h32v-532h157v-36h-367z" />
    <glyph glyph-name="two.lf.sc" horiz-adv-x="545" 
d="M279 579q91 0 144 -48t53 -129q0 -91 -86 -177t-264 -189h363v-36h-428v35q198 119 284.5 200.5t86.5 163.5q0 70 -41.5 107t-111.5 37q-78 0 -124.5 -46.5t-48.5 -106.5h-43q3 73 61 131t155 58z" />
    <glyph glyph-name="three.lf.sc" horiz-adv-x="603" 
d="M308 579q96 0 147 -40.5t51 -103.5q0 -48 -31 -85.5t-83 -44.5q59 -5 98 -40t39 -97q0 -80 -63.5 -129t-161.5 -49q-94 0 -155.5 45.5t-81.5 126.5l41 9q17 -68 66 -106.5t130 -38.5q79 0 129.5 38t50.5 103q0 60 -39.5 90t-106.5 30h-79v34h74q60 0 95.5 31t35.5 82
q0 49 -40 79.5t-116 30.5q-74 0 -120 -35.5t-60 -93.5l-41 7q14 67 72.5 112t148.5 45z" />
    <glyph glyph-name="four.lf.sc" horiz-adv-x="593" 
d="M429 568v-407h112v-35h-112v-126h-41v126h-334v35l323 407h52zM388 524l-288 -363h288v363z" />
    <glyph glyph-name="five.lf.sc" horiz-adv-x="562" 
d="M466 568l-6 -35h-293l-30 -195q68 68 172 68q76 0 133 -55t57 -142q0 -97 -61.5 -158t-158.5 -61q-87 0 -139 39t-71 91l41 11q17 -45 58.5 -75t111.5 -30q77 0 126.5 51t49.5 130q0 75 -46.5 120t-112.5 45q-101 0 -168 -82l-38 5l41 273h334z" />
    <glyph glyph-name="six.lf.sc" horiz-adv-x="570" 
d="M303 580q125 0 179 -109l-38 -12q-20 40 -57 63.5t-84 23.5q-90 0 -137 -65.5t-56 -197.5q21 48 70 79.5t118 31.5q91 0 150 -57.5t59 -143.5q0 -87 -60 -145t-159 -58q-98 0 -159 61t-61 172q0 357 235 357zM290 359q-77 0 -127 -47.5t-50 -114.5q0 -74 47.5 -122.5
t126.5 -48.5q81 0 128.5 47t47.5 120q0 71 -46.5 118.5t-126.5 47.5z" />
    <glyph glyph-name="seven.lf.sc" horiz-adv-x="484" 
d="M449 568v-33q-114 -128 -173 -252t-85 -283h-50q31 168 91 291t171 242h-327v-58h-36v93h409z" />
    <glyph glyph-name="eight.lf.sc" horiz-adv-x="569" 
d="M282 575q101 0 149.5 -40t48.5 -98q0 -49 -35 -81.5t-93 -46.5q86 -23 126 -59.5t40 -95.5q0 -69 -56.5 -116.5t-178.5 -47.5q-115 0 -173.5 47.5t-58.5 116.5q0 63 40 104.5t114 53.5q-118 37 -118 125q0 55 47 96.5t148 41.5zM282 541q-81 0 -117.5 -30t-36.5 -74
t35 -69t116 -41l29 -6q130 33 130 116q0 44 -36.5 74t-119.5 30zM281 290l-29 7q-158 -21 -158 -141q0 -56 48 -93.5t142 -37.5q100 0 146 37.5t46 92.5q0 54 -43.5 81.5t-151.5 53.5z" />
    <glyph glyph-name="nine.lf.sc" horiz-adv-x="570" 
d="M270 -10q-65 0 -116 28t-78 81l39 13q20 -40 61.5 -63.5t93.5 -23.5q89 0 134.5 65t54.5 197q-21 -48 -70 -79t-118 -31q-91 0 -150 57t-59 143q0 87 60 145t159 58q97 0 158.5 -61t61.5 -172q0 -357 -231 -357zM279 211q77 0 127 47.5t50 114.5q0 74 -47.5 122.5
t-127.5 48.5q-81 0 -128 -47t-47 -120q0 -71 46 -118.5t127 -47.5z" />
    <glyph glyph-name="cent.lf.sc" horiz-adv-x="622" 
d="M516 171l40 -13q-29 -81 -90 -122t-141 -45v-140h-37v141q-44 4 -83.5 21t-74 50t-54.5 90t-20 132q0 137 66 210.5t166 81.5v141h37v-140q71 -3 130.5 -40.5t90.5 -116.5l-40 -11q-51 124 -182 131v-514q143 6 192 144zM99 285q0 -120 53 -185t138 -72v512
q-86 -8 -138.5 -73.5t-52.5 -181.5z" />
    <glyph glyph-name="sterling.lf.sc" horiz-adv-x="622" 
d="M359 577q66 0 108 -33t59 -83l-40 -11q-29 93 -128 93q-63 0 -100 -35t-37 -91v-125h223v-29h-223v-126q0 -39 -9.5 -61.5t-36.5 -38.5h346v-37h-395l-5 33q37 16 48.5 38t11.5 65v127h-76v29h76v127q0 67 46 112.5t132 45.5z" />
    <glyph glyph-name="yen.lf.sc" horiz-adv-x="622" 
d="M546 568l-200 -307h139v-26h-153v-93h153v-26h-153v-116h-42v116h-154v26h154v93h-154v26h140l-206 307h48l194 -297l187 297h47z" />
    <glyph glyph-name="figuredash.lf.sc" 
d="M555 312v-37h-509v37h509z" />
    <glyph glyph-name="Euro.lf.sc" horiz-adv-x="622" 
d="M374 577q106 0 170 -68l-14 -38q-61 70 -156 70q-78 0 -130.5 -48t-66.5 -138h295l-9 -26h-289q-2 -14 -2 -45t2 -45h259l-8 -26h-248q11 -93 60.5 -140t125.5 -47q95 0 155 60v-44q-60 -52 -155 -52q-88 0 -150 54.5t-77 168.5h-76l9 26h64q-2 28 -2 45t2 45h-70l9 26
h65q17 108 82 165t155 57z" />
    <glyph glyph-name="parenleft.case" horiz-adv-x="268" 
d="M202 826h33q-124 -245 -124 -477q0 -231 124 -476h-33q-136 240 -136 476q0 237 136 477z" />
    <glyph glyph-name="parenright.case" horiz-adv-x="268" 
d="M33 826h33q136 -240 136 -477q0 -236 -136 -476h-33q124 245 124 476q0 232 -124 477z" />
    <glyph glyph-name="hyphen.case" horiz-adv-x="360" 
d="M307 368v-37h-254v37h254z" />
    <glyph glyph-name="at.case" horiz-adv-x="1031" 
d="M548 811q178 0 287 -106t109 -270q0 -71 -22.5 -139t-69.5 -115.5t-106 -47.5q-17 0 -31 3.5t-24 11t-17.5 15t-12 18.5t-8 20t-4.5 20.5t-2 17.5t-1 15v8q-24 -71 -72.5 -103t-108.5 -32q-77 0 -122.5 53.5t-45.5 139.5q0 131 70.5 212.5t167.5 81.5q48 0 88 -24t52 -81
l14 83h37l-46 -265q-4 -23 -5 -45.5t2.5 -51t21 -46.5t46.5 -18q69 0 114 83t45 188q0 149 -98 246t-258 97q-186 0 -303.5 -120.5t-117.5 -315.5q0 -178 101 -281.5t277 -103.5q89 0 200 36l11 -31q-116 -38 -213 -38q-189 0 -302.5 112.5t-113.5 304.5q0 209 129.5 338.5
t331.5 129.5zM538 578q-85 0 -141 -73.5t-56 -185.5q0 -72 35 -114.5t97 -42.5q70 0 119.5 57t64.5 182q6 53 -2.5 90t-29 55t-41.5 25t-46 7z" />
    <glyph glyph-name="bracketleft.case" horiz-adv-x="300" 
d="M249 836v-34h-138v-891h138v-35h-180v960h180z" />
    <glyph glyph-name="bracketright.case" horiz-adv-x="300" 
d="M51 802v34h180v-960h-180v35h138v891h-138z" />
    <glyph glyph-name="braceleft.case" horiz-adv-x="300" 
d="M257 836v-35h-9q-84 0 -84 -87v-269q0 -40 -22 -64t-47 -26q25 -2 47 -26t22 -65v-266q0 -87 84 -87h9v-35h-17q-55 0 -86.5 30t-31.5 84v268q0 79 -69 84v26q69 5 69 83v271q0 54 31.5 84t86.5 30h17z" />
    <glyph glyph-name="braceright.case" horiz-adv-x="300" 
d="M43 801v35h17q55 0 86.5 -30t31.5 -84v-271q0 -78 69 -83v-26q-69 -5 -69 -84v-268q0 -54 -31.5 -84t-86.5 -30h-17v35h9q84 0 84 87v266q0 41 22 65t47 26q-25 2 -47 26t-22 64v269q0 87 -84 87h-9z" />
    <glyph glyph-name="exclamdown.case" horiz-adv-x="256" 
d="M128 709q14 0 23.5 -9.5t9.5 -23.5q0 -13 -9.5 -22.5t-23.5 -9.5t-23.5 9.5t-9.5 22.5q0 14 9.5 23.5t23.5 9.5zM143 513l8 -274v-239h-46v239l8 274h30z" />
    <glyph glyph-name="guillemotleft.case" horiz-adv-x="465" 
d="M196 539l22 -15l-103 -171l103 -178l-22 -15l-120 171v43zM366 539l22 -15l-103 -171l103 -178l-22 -15l-120 171v43z" />
    <glyph glyph-name="uni00AD.case" horiz-adv-x="360" 
d="M307 368v-37h-254v37h254z" />
    <glyph glyph-name="guillemotright.case" horiz-adv-x="465" 
d="M264 539l121 -165v-43l-121 -171l-21 15l103 178l-103 171zM100 539l121 -165v-43l-121 -171l-21 15l103 178l-103 171z" />
    <glyph glyph-name="questiondown.case" horiz-adv-x="519" 
d="M251 711q14 0 23.5 -9.5t9.5 -23.5t-10 -23.5t-23 -9.5t-23 9.5t-10 23.5t10 23.5t23 9.5zM273 500v-52q0 -37 -18.5 -67.5t-45.5 -52.5t-53.5 -44t-45 -53t-18.5 -68q0 -57 38.5 -97t118.5 -40q75 0 122.5 40.5t64.5 95.5l39 -12q-16 -60 -74.5 -110.5t-150.5 -50.5
q-56 0 -97.5 16.5t-63.5 43.5t-32 55t-10 56q0 46 19 81t46 57.5t54 43.5t46 49.5t19 64.5v44h42z" />
    <glyph glyph-name="gravecomb.case" horiz-adv-x="1" 
d="M-130 881l100 -128h-36l-121 128h57z" />
    <glyph glyph-name="acutecomb.case" horiz-adv-x="1" 
d="M-30 881l-120 -128h-37l101 128h56z" />
    <glyph glyph-name="uni0302.case" horiz-adv-x="1" 
d="M-160 889l130 -122h-41l-110 95l-111 -95h-40l130 122h42z" />
    <glyph glyph-name="tildecomb.case" horiz-adv-x="1" 
d="M-243 861q36 0 68.5 -27t56.5 -27q21 0 34.5 11.5t24.5 36.5h29q-9 -36 -32.5 -57.5t-57.5 -21.5q-37 0 -69.5 27.5t-56.5 27.5q-21 0 -34.5 -12.5t-24.5 -38.5h-29q20 81 91 81z" />
    <glyph glyph-name="uni0304.case" horiz-adv-x="1" 
d="M-30 834v-33h-290v33h290z" />
    <glyph glyph-name="uni0306.case" horiz-adv-x="1" 
d="M-59 880h29q-6 -50 -41.5 -85.5t-97.5 -35.5t-97 35t-41 86h29q6 -38 34 -64t75 -26q48 0 76 26t34 64z" />
    <glyph glyph-name="uni0307.case" horiz-adv-x="1" 
d="M-59 867q12 0 20.5 -8.5t8.5 -20.5q0 -13 -8.5 -21.5t-20.5 -8.5t-21 8.5t-9 21.5q0 12 9 20.5t21 8.5z" />
    <glyph glyph-name="uni0308.case" horiz-adv-x="1" 
d="M-273 847q12 0 20.5 -8.5t8.5 -20.5t-8.5 -20t-20.5 -8q-11 0 -19.5 8t-8.5 20t8.5 20.5t19.5 8.5zM-59 847q12 0 20.5 -8.5t8.5 -20.5t-8.5 -20t-20.5 -8q-11 0 -19.5 8t-8.5 20t8.5 20.5t19.5 8.5z" />
    <glyph glyph-name="uni030A.case" horiz-adv-x="1" 
d="M-145 953q46 0 80.5 -32t34.5 -80q0 -47 -34 -78t-81 -31t-81.5 31t-34.5 78q0 48 34.5 80t81.5 32zM-146 926q-35 0 -59.5 -24t-24.5 -61q0 -36 24.5 -59t59.5 -23t59.5 23t24.5 59q0 37 -24.5 61t-59.5 24z" />
    <glyph glyph-name="uni030B.case" horiz-adv-x="1" 
d="M-186 881l-104 -128h-31l84 128h51zM-30 881l-106 -128h-31l86 128h51z" />
    <glyph glyph-name="uni030C.case" horiz-adv-x="1" 
d="M-30 891l-130 -122h-42l-130 122h40l111 -94l110 94h41z" />
    <glyph glyph-name="endash.case" horiz-adv-x="514" 
d="M461 368v-37h-408v37h408z" />
    <glyph glyph-name="emdash.case" horiz-adv-x="614" 
d="M561 368v-37h-508v37h508z" />
    <glyph glyph-name="guilsinglleft.case" horiz-adv-x="253" 
d="M175 539l22 -15l-103 -171l103 -178l-22 -15l-120 171v43z" />
    <glyph glyph-name="guilsinglright.case" horiz-adv-x="253" 
d="M76 539l121 -165v-43l-121 -171l-21 15l103 178l-103 171z" />
    <glyph glyph-name="zero.zero" horiz-adv-x="594" 
d="M296 580q112 0 184.5 -81t72.5 -217q0 -135 -72.5 -213.5t-184.5 -78.5q-111 0 -183.5 78.5t-72.5 213.5q0 136 72.5 217t183.5 81zM84 282q0 -118 61 -189l288 399q-57 52 -136 52q-93 0 -153 -70.5t-60 -191.5zM297 25q93 0 153 68.5t60 188.5q0 117 -57 188l-287 -398
q55 -47 131 -47z" />
    <glyph glyph-name="zero.tf.zero" 
d="M301 712q110 0 173 -91t63 -274q0 -179 -63 -269t-173 -90q-111 0 -174.5 90t-63.5 269q0 183 63.5 274t174.5 91zM301 676q-92 0 -143 -81t-51 -248q0 -149 39 -229l291 495q-48 63 -136 63zM301 24q92 0 143 80.5t51 242.5q0 158 -40 236l-291 -495q48 -64 137 -64z
" />
    <glyph glyph-name="zero.lf.zero" horiz-adv-x="593" 
d="M297 694q114 0 185 -89.5t71 -262.5q0 -172 -71 -262.5t-185 -90.5t-185.5 90.5t-71.5 262.5q0 173 71 262.5t186 89.5zM298 659q-96 0 -155 -80t-59 -237q0 -149 57 -231l288 496q-53 52 -131 52zM298 25q95 0 154 81.5t59 235.5q0 155 -60 239l-290 -496
q55 -60 137 -60z" />
    <glyph glyph-name="zero.tosf.zero" 
d="M300 580q109 0 180.5 -80.5t71.5 -216.5q0 -135 -71 -214t-181 -79t-181.5 79t-71.5 214q0 136 71.5 216.5t181.5 80.5zM90 283q0 -134 73 -205l249 431q-49 35 -112 35q-92 0 -151 -70.5t-59 -190.5zM300 25q91 0 149.5 69t58.5 189q0 136 -74 207l-248 -431
q51 -34 114 -34z" />
    <glyph glyph-name="zero.tf.sc.zero" 
d="M300 580q109 0 180.5 -80.5t71.5 -216.5q0 -135 -71 -214t-181 -79t-181.5 79t-71.5 214q0 136 71.5 216.5t181.5 80.5zM90 283q0 -134 73 -205l249 431q-49 35 -112 35q-92 0 -151 -70.5t-59 -190.5zM300 25q91 0 149.5 69t58.5 189q0 136 -74 207l-248 -431
q51 -34 114 -34z" />
    <glyph glyph-name="zero.lf.sc.zero" horiz-adv-x="594" 
d="M296 580q112 0 184.5 -81t72.5 -217q0 -135 -72.5 -213.5t-184.5 -78.5q-111 0 -183.5 78.5t-72.5 213.5q0 136 72.5 217t183.5 81zM84 282q0 -118 61 -189l288 399q-57 52 -136 52q-93 0 -153 -70.5t-60 -191.5zM297 25q93 0 153 68.5t60 188.5q0 117 -57 188l-287 -398
q55 -47 131 -47z" />
    <glyph glyph-name="exclam.ss01" horiz-adv-x="256" 
d="M151 703v-239l-8 -274h-30l-8 274v239h46zM155 54v-54h-55v54h55z" />
    <glyph glyph-name="comma.ss01" horiz-adv-x="241" 
d="M148 54v-54l-48 -133h-27l36 133h-17v54h56z" />
    <glyph glyph-name="period.ss01" horiz-adv-x="241" 
d="M148 54v-54h-55v54h55z" />
    <glyph glyph-name="colon.ss01" horiz-adv-x="241" 
d="M148 54v-54h-55v54h55zM148 447v-54h-55v54h55z" />
    <glyph glyph-name="semicolon.ss01" horiz-adv-x="246" 
d="M148 54v-54l-48 -133h-27l36 133h-17v54h56zM148 421v-54h-55v54h55z" />
    <glyph glyph-name="question.ss01" horiz-adv-x="519" 
d="M269 706q56 0 97.5 -17t63.5 -44t32 -55t10 -56q0 -46 -19 -81t-46 -57.5t-54 -43t-46 -49t-19 -64.5v-49h-42v56q0 37 18.5 67.5t45 52.5t53.5 44.5t45.5 53.5t18.5 68q0 57 -39 97t-119 40q-75 0 -122.5 -41t-64.5 -95l-39 12q17 60 75 110.5t151 50.5zM295 54v-54h-55
v54h55z" />
    <glyph glyph-name="i.ss01" horiz-adv-x="218" 
d="M130 519v-519h-42v519h42zM134 703v-48h-51v48h51z" />
    <glyph glyph-name="j.ss01" horiz-adv-x="218" 
d="M130 519v-551q0 -72 -39 -106t-96 -34q-19 0 -45 4v34q20 -2 31 -2q52 0 79.5 26t27.5 92v537h42zM134 703v-48h-51v48h51z" />
    <glyph glyph-name="exclamdown.ss01" horiz-adv-x="256" 
d="M155 519v-55h-55v55h55zM143 335l8 -256v-239h-46v239l8 256h30z" />
    <glyph glyph-name="periodcentered.ss01" horiz-adv-x="241" 
d="M148 320v-54h-55v54h55z" />
    <glyph glyph-name="questiondown.ss01" horiz-adv-x="519" 
d="M279 519v-55h-55v55h55zM273 337v-52q0 -37 -18.5 -67.5t-45.5 -52.5t-53.5 -44.5t-45 -53.5t-18.5 -68q0 -57 38.5 -96.5t118.5 -39.5q75 0 122.5 41t64.5 95l39 -12q-17 -60 -75 -110.5t-150 -50.5q-56 0 -97.5 16.5t-63.5 43.5t-32 55t-10 56q0 46 19 81t46 57.5
t54 43.5t46 49.5t19 64.5v44h42z" />
    <glyph glyph-name="Adieresis.ss01" 
d="M530 0l-53 155h-356l-53 -155h-45l250 700h56l248 -700h-47zM300 663l-166 -471h330zM219 836v-46h-49v46h49zM433 836v-46h-49v46h49z" />
    <glyph glyph-name="Edieresis.ss01" horiz-adv-x="561" 
d="M489 700v-38h-354v-286h333v-37h-333v-301h363v-38h-405v700h396zM218 836v-46h-49v46h49zM432 836v-46h-49v46h49z" />
    <glyph glyph-name="Idieresis.ss01" horiz-adv-x="335" 
d="M296 700v-37h-108v-626h108v-37h-258v37h108v626h-108v37h258zM85 836v-46h-49v46h49zM299 836v-46h-49v46h49z" />
    <glyph glyph-name="Odieresis.ss01" horiz-adv-x="741" 
d="M370 711q55 0 106.5 -19.5t98 -59.5t75 -113t28.5 -170q0 -92 -26.5 -163.5t-71 -113t-98 -62.5t-112.5 -21q-54 0 -105.5 19.5t-98 59.5t-75 113t-28.5 170q0 92 26.5 163.5t71 113t97.5 62.5t112 21zM370 673q-113 0 -188 -83.5t-75 -238.5q0 -158 76.5 -241t186.5 -83
q112 0 187.5 83.5t75.5 238.5q0 158 -76 241t-187 83zM288 836v-46h-49v46h49zM502 836v-46h-49v46h49z" />
    <glyph glyph-name="Udieresis.ss01" horiz-adv-x="653" 
d="M574 700v-457q0 -49 -13.5 -92.5t-41.5 -80.5t-77.5 -59t-115.5 -22q-67 0 -116.5 22t-76.5 59.5t-39.5 80.5t-12.5 92v457h42v-455q0 -98 50.5 -158t153.5 -60q102 0 153.5 61t51.5 157v455h42zM245 836v-46h-49v46h49zM459 836v-46h-49v46h49z" />
    <glyph glyph-name="adieresis.ss01" horiz-adv-x="543" 
d="M272 527q107 0 147.5 -43.5t40.5 -130.5v-198q0 -107 16 -155h-44q-13 47 -13 89q-22 -41 -72 -70t-125 -29q-83 0 -126 40.5t-43 105.5q0 73 52 115.5t163 56.5l150 19v23q0 76 -29.5 110t-117.5 34q-152 0 -157 -127h-41q2 73 52 116.5t147 43.5zM418 294l-137 -18
q-97 -13 -140.5 -45.5t-43.5 -91.5q0 -51 32.5 -82t100.5 -31q83 0 135.5 44t52.5 107v117zM191 682v-47h-49v47h49zM405 682v-47h-49v47h49z" />
    <glyph glyph-name="edieresis.ss01" horiz-adv-x="569" 
d="M290 527q106 0 165.5 -76t59.5 -187v-11h-414q1 -102 53.5 -165t145.5 -63q109 0 173 92l33 -20q-75 -108 -207 -108q-113 0 -177 78t-64 195q0 113 61 189t171 76zM289 492q-86 0 -135 -58.5t-52 -146.5h370q-2 89 -50 147t-133 58zM204 681v-47h-49v47h49zM418 681v-47
h-49v47h49z" />
    <glyph glyph-name="idieresis.ss01" horiz-adv-x="218" 
d="M130 519v-519h-42v519h42zM27 682v-47h-49v47h49zM241 682v-47h-49v47h49z" />
    <glyph glyph-name="odieresis.ss01" horiz-adv-x="595" 
d="M297 527q109 0 174.5 -77.5t65.5 -191.5q0 -119 -63 -193.5t-177 -74.5q-111 0 -175 76t-64 192q0 117 64.5 193t174.5 76zM298 491q-91 0 -143.5 -64t-52.5 -168t52 -168.5t144 -64.5q93 0 144.5 63.5t51.5 169.5q0 101 -53 166.5t-143 65.5zM216 682v-47h-49v47h49z
M430 682v-47h-49v47h49z" />
    <glyph glyph-name="divide.ss01" 
d="M327 146v-54h-55v54h55zM327 492v-54h-55v54h55zM488 310v-37h-376v37h376z" />
    <glyph glyph-name="udieresis.ss01" horiz-adv-x="566" 
d="M478 519v-519h-42v107q-23 -53 -69.5 -84.5t-110.5 -31.5q-85 0 -129 48t-44 140v340h42v-331q0 -81 33.5 -120.5t106.5 -39.5t122 52.5t49 153.5v285h42zM196 681v-47h-49v47h49zM410 681v-47h-49v47h49z" />
    <glyph glyph-name="ydieresis.ss01" horiz-adv-x="483" 
d="M457 519l-182 -533q-26 -77 -61.5 -118.5t-101.5 -41.5q-28 0 -53 5v34q24 -3 46 -3q55 0 82 34t49 104h-13l-197 519h46l179 -485l161 485h45zM160 681v-47h-49v47h49zM374 681v-47h-49v47h49z" />
    <glyph glyph-name="ij.ss01" horiz-adv-x="446" 
d="M358 519v-551q0 -72 -39 -106t-96 -34q-19 0 -45 4v34q20 -2 31 -2q52 0 79.5 26t27.5 92v537h42zM362 703v-48h-51v48h51zM130 519v-519h-42v519h42zM134 703v-48h-51v48h51z" />
    <glyph glyph-name="Ydieresis.ss01" horiz-adv-x="586" 
d="M560 700l-242 -409v-291h-44v291l-248 409h48l223 -370l216 370h47zM213 836v-46h-49v46h49zM427 836v-46h-49v46h49z" />
    <glyph glyph-name="uni02BB.ss01" horiz-adv-x="242" 
d="M83 581v51l46 127h26l-35 -127h16v-51h-53z" />
    <glyph glyph-name="uni02BC.ss01" horiz-adv-x="242" 
d="M145 726v-51l-46 -127h-26l35 127h-16v51h53z" />
    <glyph glyph-name="uni0307.ss01" horiz-adv-x="1" 
d="M-30 703v-48h-51v48h51z" />
    <glyph glyph-name="uni0308.ss01" horiz-adv-x="1" 
d="M-244 682v-47h-49v47h49zM-30 682v-47h-49v47h49z" />
    <glyph glyph-name="uni0326.ss01" horiz-adv-x="1" 
d="M-30 -78v-45l-34 -106h-22l24 106h-15v45h47z" />
    <glyph glyph-name="quoteleft.ss01" horiz-adv-x="242" 
d="M83 581v51l46 127h26l-35 -127h16v-51h-53z" />
    <glyph glyph-name="quoteright.ss01" horiz-adv-x="242" 
d="M145 726v-51l-46 -127h-26l35 127h-16v51h53z" />
    <glyph glyph-name="quotesinglbase.ss01" horiz-adv-x="242" 
d="M145 51v-51l-46 -127h-26l35 127h-16v51h53z" />
    <glyph glyph-name="quotedblleft.ss01" horiz-adv-x="383" 
d="M225 581v51l46 127h26l-35 -127h16v-51h-53zM83 581v51l46 127h26l-35 -127h16v-51h-53z" />
    <glyph glyph-name="quotedblright.ss01" horiz-adv-x="383" 
d="M145 726v-51l-46 -127h-26l35 127h-16v51h53zM285 726v-51l-46 -127h-26l35 127h-16v51h53z" />
    <glyph glyph-name="quotedblbase.ss01" horiz-adv-x="383" 
d="M145 51v-51l-46 -127h-26l35 127h-16v51h53zM285 51v-51l-46 -127h-26l35 127h-16v51h53z" />
    <glyph glyph-name="bullet.ss01" horiz-adv-x="311" 
d="M221 376v-129h-131v129h131z" />
    <glyph glyph-name="ellipsis.ss01" horiz-adv-x="714" 
d="M148 54v-54h-55v54h55zM384 54v-54h-55v54h55zM621 54v-54h-55v54h55z" />
    <glyph glyph-name="uni203D.ss01" horiz-adv-x="519" 
d="M264 706q58 0 100.5 -16.5t64.5 -44t32.5 -55.5t10.5 -56q0 -46 -19 -81t-46 -57.5t-54 -43t-46 -49t-19 -64.5v-49h-39l-8 274v204q-62 -7 -102 -46t-56 -89l-39 12q17 60 74 110.5t146 50.5zM287 464l-6 -144q14 22 41.5 48.5t49.5 45.5t39 50t17 68q0 54 -34 92
t-107 44v-204zM241 0v54h55v-54h-55z" />
    <glyph glyph-name="uni2219.ss01" 
d="M365 376v-129h-131v129h131z" />
    <glyph glyph-name="dotmath.ss01" 
d="M327 320v-54h-55v54h55z" />
    <glyph glyph-name="adieresis.sc.ss01" horiz-adv-x="538" 
d="M469 0l-46 123h-310l-46 -123h-44l219 568h55l218 -568h-46zM269 535l-143 -376h283zM187 731v-47h-49v47h49zM401 731v-47h-49v47h49z" />
    <glyph glyph-name="edieresis.sc.ss01" horiz-adv-x="516" 
d="M444 568v-36h-309v-224h291v-36h-291v-235h317v-37h-359v568h351zM194 731v-47h-49v47h49zM408 731v-47h-49v47h49z" />
    <glyph glyph-name="idieresis.sc.ss01" horiz-adv-x="300" 
d="M262 568v-36h-91v-495h91v-37h-224v37h91v495h-91v36h224zM68 731v-47h-49v47h49zM282 731v-47h-49v47h49z" />
    <glyph glyph-name="odieresis.sc.ss01" horiz-adv-x="669" 
d="M334 578q48 0 93.5 -15.5t87 -48.5t66.5 -92.5t25 -138.5q0 -75 -23.5 -132.5t-62.5 -91.5t-86.5 -51t-99.5 -17q-48 0 -93.5 15.5t-86.5 48t-66 92t-25 138.5q0 75 23 133t62.5 92t86.5 51t99 17zM334 541q-98 0 -163 -66.5t-65 -189.5q0 -125 66 -191t162 -66
q97 0 162.5 66.5t65.5 188.5q0 126 -66 192t-162 66zM253 731v-47h-49v47h49zM467 731v-47h-49v47h49z" />
    <glyph glyph-name="udieresis.sc.ss01" horiz-adv-x="597" 
d="M517 568v-369q0 -86 -53.5 -147t-165.5 -61q-60 0 -104 18t-67.5 49t-34.5 66t-11 75v369h42v-368q0 -78 43.5 -125t132.5 -47q87 0 131.5 48t44.5 124v368h42zM216 731v-47h-49v47h49zM430 731v-47h-49v47h49z" />
    <glyph glyph-name="ydieresis.sc.ss01" horiz-adv-x="527" 
d="M500 568l-213 -333v-235h-42v235l-219 333h48l193 -294l187 294h46zM183 731v-47h-49v47h49zM397 731v-47h-49v47h49z" />
    <glyph glyph-name="exclamdown.case.ss01" horiz-adv-x="256" 
d="M155 700v-54h-55v54h55zM143 513l8 -274v-239h-46v239l8 274h30z" />
    <glyph glyph-name="questiondown.case.ss01" horiz-adv-x="519" 
d="M279 700v-54h-55v54h55zM273 500v-52q0 -37 -18.5 -67.5t-45.5 -52.5t-53.5 -44t-45 -53t-18.5 -68q0 -57 38.5 -97t118.5 -40q75 0 122.5 40.5t64.5 95.5l39 -12q-16 -60 -74.5 -110.5t-150.5 -50.5q-56 0 -97.5 16.5t-63.5 43.5t-32 55t-10 56q0 46 19 81t46 57.5
t54 43.5t46 49.5t19 64.5v44h42z" />
    <glyph glyph-name="uni0307.case.ss01" horiz-adv-x="1" 
d="M-30 846v-48h-51v48h51z" />
    <glyph glyph-name="uni0308.case.ss01" horiz-adv-x="1" 
d="M-244 836v-46h-49v46h49zM-30 836v-46h-49v46h49z" />
    <glyph glyph-name="one.ss02" horiz-adv-x="479" 
d="M256 0v403h-161v34h46q74 0 96.5 24t27.5 107h33v-568h-42z" />
    <glyph glyph-name="onesuperior.ss02" horiz-adv-x="400" 
d="M209 330v313h-106v29h27q51 0 67.5 15.5t19.5 62.5h33v-420h-41z" />
    <glyph glyph-name="onequarter.ss02" horiz-adv-x="842" 
d="M680 712l-433 -724h-36l433 724h36zM742 420v-285h75v-34h-75v-101h-40v101h-235v35l223 284h52zM702 378l-194 -243h194v243zM209 280v313h-106v29h27q51 0 67.5 15.5t19.5 62.5h33v-420h-41z" />
    <glyph glyph-name="onehalf.ss02" horiz-adv-x="892" 
d="M680 712l-433 -724h-36l433 724h36zM693 428q65 0 102 -32.5t37 -87.5q0 -65 -62 -135.5t-172 -138.5h243v-34h-298v32q121 82 183 149t62 125q0 43 -25 65.5t-71 22.5q-49 0 -75.5 -26t-28.5 -67h-42q1 52 39.5 89.5t107.5 37.5zM209 280v313h-106v29h27q51 0 67.5 15.5
t19.5 62.5h33v-420h-41z" />
    <glyph glyph-name="uni2081.ss02" horiz-adv-x="400" 
d="M209 -160v313h-106v29h27q51 0 67.5 15.5t19.5 62.5h33v-420h-41z" />
    <glyph glyph-name="uni2150.ss02" horiz-adv-x="922" 
d="M680 712l-433 -724h-36l433 724h36zM872 420v-34q-81 -90 -120.5 -178.5t-55.5 -207.5h-45q18 123 59.5 211.5t119.5 174.5h-222v-48h-36v82h300zM209 280v313h-106v29h27q51 0 67.5 15.5t19.5 62.5h33v-420h-41z" />
    <glyph glyph-name="uni2151.ss02" horiz-adv-x="892" 
d="M680 712l-433 -724h-36l433 724h36zM677 -6q-95 0 -136 79l35 15q29 -61 102 -61q122 0 128 198q-13 -33 -46.5 -54.5t-81.5 -21.5q-61 0 -101.5 37.5t-40.5 100.5t43.5 102t111.5 39q71 0 113.5 -43t42.5 -123q0 -268 -170 -268zM688 182q51 0 83.5 31.5t32.5 74.5
q0 46 -30.5 76.5t-81.5 30.5q-50 0 -82 -29.5t-32 -77.5t30 -77t80 -29zM209 280v313h-106v29h27q51 0 67.5 15.5t19.5 62.5h33v-420h-41z" />
    <glyph glyph-name="uni2152.ss02" horiz-adv-x="1315" 
d="M675 712l-433 -724h-36l433 724h36zM703 0v313h-106v29h27q51 0 67.5 15.5t19.5 62.5h33v-420h-41zM1054 428q75 0 117.5 -55t42.5 -164q0 -107 -42.5 -161t-117.5 -54q-74 0 -117 54.5t-43 160.5q0 109 42.5 164t117.5 55zM1054 394q-118 0 -118 -185q0 -90 31 -135.5
t87 -45.5t87 45.5t31 135.5q0 185 -118 185zM194 280v313h-106v29h27q51 0 67.5 15.5t19.5 62.5h33v-420h-41z" />
    <glyph glyph-name="onethird.ss02" horiz-adv-x="892" 
d="M680 712l-433 -724h-36l433 724h36zM695 428q67 0 104 -30t37 -79q0 -38 -25 -63t-67 -30q44 -3 74.5 -31t30.5 -73q0 -59 -44.5 -93.5t-112.5 -34.5q-62 0 -103.5 29t-54.5 79l39 9q10 -37 41 -60t79 -23q49 0 81.5 25t32.5 70q0 40 -28.5 63t-74.5 23h-48v31h44
q42 0 68 19.5t26 56.5q0 38 -27 58.5t-72 20.5q-44 0 -72.5 -20.5t-37.5 -56.5l-38 5q10 45 49 75t99 30zM209 280v313h-106v29h27q51 0 67.5 15.5t19.5 62.5h33v-420h-41z" />
    <glyph glyph-name="uni2155.ss02" horiz-adv-x="902" 
d="M680 712l-433 -724h-36l433 724h36zM838 420l-6 -34h-210l-20 -137q43 46 115 46q61 0 102.5 -39.5t41.5 -103.5q0 -70 -44.5 -114t-119.5 -44q-63 0 -101.5 28t-52.5 66l37 14q11 -31 41 -53t78 -22q53 0 86.5 35t33.5 88q0 51 -31.5 81t-79.5 30q-69 0 -114 -54l-35 6
l30 207h249zM209 280v313h-106v29h27q51 0 67.5 15.5t19.5 62.5h33v-420h-41z" />
    <glyph glyph-name="uni2159.ss02" horiz-adv-x="882" 
d="M680 712l-433 -724h-36l433 724h36zM694 428q94 0 130 -80l-35 -12q-28 59 -95 59q-118 0 -130 -191q13 35 48 57.5t83 22.5q61 0 102 -38.5t41 -103.5q0 -66 -42 -107t-111 -41q-71 0 -115 44.5t-44 129.5q0 128 44 194t124 66zM685 251q-51 0 -83 -31.5t-32 -76.5
q0 -51 31 -83.5t83 -32.5q49 0 80 31.5t31 81.5t-30 80.5t-80 30.5zM209 280v313h-106v29h27q51 0 67.5 15.5t19.5 62.5h33v-420h-41z" />
    <glyph glyph-name="oneeighth.ss02" horiz-adv-x="892" 
d="M680 712l-433 -724h-36l433 724h36zM690 -6q-82 0 -123.5 36t-41.5 83q0 92 108 115q-46 18 -66 41t-20 56q0 39 36 71t107 32q72 0 108 -30.5t36 -71.5q0 -35 -27 -61t-65 -38q65 -19 90.5 -44.5t25.5 -67.5q0 -48 -40 -84.5t-128 -36.5zM688 243l18 -5q39 12 63.5 34.5
t24.5 51.5t-25.5 50.5t-77.5 21.5q-51 0 -77 -21.5t-26 -49.5q0 -32 23.5 -49t76.5 -33zM691 27q65 0 95 26t30 61q0 39 -28.5 57.5t-98.5 37.5l-18 5q-104 -18 -104 -99q0 -36 31.5 -62t92.5 -26zM209 280v313h-106v29h27q51 0 67.5 15.5t19.5 62.5h33v-420h-41z" />
    <glyph glyph-name="uni215F.ss02" horiz-adv-x="542" 
d="M680 712l-433 -724h-36l433 724h36zM209 280v313h-106v29h27q51 0 67.5 15.5t19.5 62.5h33v-420h-41z" />
    <glyph glyph-name="uni2460.ss02" horiz-adv-x="900" 
d="M444 159v285h-96v26h24q47 0 62 14t17 57h30v-382h-37zM451 711q151 0 255.5 -105t104.5 -257t-104.5 -256t-255.5 -104t-256.5 104t-105.5 256t105.5 257t256.5 105zM451 681q-138 0 -234 -96.5t-96 -235.5t96 -234.5t234 -95.5t233 95.5t95 234.5t-95 235.5t-233 96.5z
" />
    <glyph glyph-name="uni2776.ss02" horiz-adv-x="900" 
d="M451 -11q-151 0 -256.5 104t-105.5 256t105.5 257t256.5 105t255.5 -105t104.5 -257t-104.5 -256t-255.5 -104zM443 159h38v382h-30q-14 -70 -104 -71v-30q71 2 96 37v-318z" />
    <glyph glyph-name="one.numr.ss02" horiz-adv-x="400" 
d="M209 280v313h-106v29h27q51 0 67.5 15.5t19.5 62.5h33v-420h-41z" />
    <glyph glyph-name="one.dnom.ss02" horiz-adv-x="400" 
d="M209 0v313h-106v29h27q51 0 67.5 15.5t19.5 62.5h33v-420h-41z" />
    <glyph glyph-name="one.tf.ss02" 
d="M321 0v535h-161v34h46q74 0 97 24t27 107h33v-700h-42z" />
    <glyph glyph-name="one.lf.ss02" horiz-adv-x="469" 
d="M266 0v519h-161v34h46q74 0 97 24t27 107h33v-684h-42z" />
    <glyph glyph-name="one.tosf.ss02" 
d="M321 0v403h-161v34h46q74 0 96.5 24t27.5 107h33v-568h-42z" />
    <glyph glyph-name="one.tf.sc.ss02" 
d="M321 0v403h-161v34h46q74 0 96.5 24t27.5 107h33v-568h-42z" />
    <glyph glyph-name="one.lf.sc.ss02" horiz-adv-x="479" 
d="M272 0v403h-161v34h46q74 0 96.5 24t27.5 107h33v-568h-42z" />
    <glyph glyph-name="circle.comp" horiz-adv-x="900" 
d="M451 711q151 0 255.5 -105t104.5 -257t-104.5 -256t-255.5 -104t-256.5 104t-105.5 256t105.5 257t256.5 105zM451 681q-138 0 -234 -96.5t-96 -235.5t96 -234.5t234 -95.5t233 95.5t95 234.5t-95 235.5t-233 96.5z" />
    </font>
</defs>
</svg>
