<?xml version="1.0" standalone="no"?>
<!DOCTYPE svg PUBLIC "-//W3C//DTD SVG 1.1//EN" "http://www.w3.org/Graphics/SVG/1.1/DTD/svg11.dtd" >
<svg>
<metadata>
Created by FontForge 20120731 at Tue Mar  1 22:19:51 2016
 By ,,,
2015 published by Monotype GmbH
</metadata>
<defs>
<font id="RealTextOT-Light" horiz-adv-x="600" >
  <font-face 
    font-family="RealTextOT-Light"
    font-weight="350"
    font-stretch="normal"
    units-per-em="1000"
    panose-1="2 11 5 4 2 1 1 1 1 2"
    ascent="800"
    descent="-200"
    x-height="520"
    cap-height="700"
    bbox="-352 -262 1384 955"
    underline-thickness="54"
    underline-position="-37"
    unicode-range="U+000D-1F310"
  />
<missing-glyph 
d="M531 700v-860h-462v860h462zM469 646h-339v-752h339v752z" />
    <glyph glyph-name="f_f" unicode="ff" 
d="M535 662q-52 0 -73.5 -23t-21.5 -70v-49h162v-46h-162v-474h-60v474h-221v-474h-60v474h-75v46h75v49q0 58 39.5 97.5t123.5 39.5q74 0 151 -36q38 40 115 40q52 0 99 -18v-48q-46 18 -92 18zM380 520v52q0 32 9 59q-63 30 -125 30q-105 0 -105 -96v-45h221z" />
    <glyph glyph-name="f_f_i" unicode="ffi" horiz-adv-x="802" 
d="M438 520h281v-520h-60v474h-221v-474h-60v474h-219v-474h-60v474h-75v46h75v49q0 58 39.5 97.5t123.5 39.5q75 0 153 -37q43 41 129 41q62 0 123 -23v-49q-58 24 -116 24q-113 0 -113 -93v-49zM378 520v57q0 29 10 53q-64 28 -123 28q-106 0 -106 -93v-45h219z" />
    <glyph glyph-name="f_f_j" unicode="ffj" horiz-adv-x="803" 
d="M438 520h281v-550q0 -74 -40 -109t-98 -35q-21 0 -49 4v48q22 -2 28 -2q51 0 75 24.5t24 88.5v485h-221v-474h-60v474h-219v-474h-60v474h-75v46h75v49q0 58 39.5 97.5t123.5 39.5q75 0 153 -37q43 41 129 41q62 0 123 -23v-49q-58 24 -116 24q-113 0 -113 -93v-49z
M378 520v57q0 29 10 53q-64 28 -123 28q-106 0 -106 -93v-45h219z" />
    <glyph glyph-name="f_f_l" unicode="ffl" horiz-adv-x="842" 
d="M773 46q13 0 34 3v-49q-28 -5 -52 -5q-103 0 -103 122v530q-58 15 -107 15q-107 0 -107 -93v-49h140v-46h-140v-474h-60v474h-219v-474h-60v474h-75v46h75v49q0 58 39.5 97.5t123.5 39.5q75 0 153 -37q41 41 123 41q54 0 114 -16l60 3v-570q0 -45 12 -63t49 -18zM378 520
v57q0 29 10 53q-64 28 -123 28q-106 0 -106 -93v-45h219z" />
    <glyph glyph-name="f_i" unicode="fi" horiz-adv-x="523" 
d="M265 710q62 0 123 -23v-49q-58 24 -116 24q-113 0 -113 -93v-49h281v-520h-60v474h-221v-474h-60v474h-75v46h75v57q0 57 40.5 95t125.5 38z" />
    <glyph glyph-name="f_j" unicode="fj" horiz-adv-x="524" 
d="M265 710q62 0 123 -23v-49q-58 24 -116 24q-113 0 -113 -93v-49h281v-550q0 -74 -40 -109t-98 -35q-21 0 -49 4v48q22 -2 28 -2q51 0 75 24.5t24 88.5v485h-221v-474h-60v474h-75v46h75v57q0 57 40.5 95t125.5 38z" />
    <glyph glyph-name="f_l" unicode="fl" horiz-adv-x="563" 
d="M259 710q54 0 114 -16l60 3v-570q0 -45 12 -63t49 -18q13 0 34 3v-49q-28 -5 -52 -5q-103 0 -103 122v530q-58 15 -107 15q-107 0 -107 -93v-49h140v-46h-140v-474h-60v474h-75v46h75v57q0 57 39.5 95t120.5 38z" />
    <glyph glyph-name=".notdef" 
d="M531 700v-860h-462v860h462zM469 646h-339v-752h339v752z" />
    <glyph glyph-name=".null" horiz-adv-x="0" 
 />
    <glyph glyph-name="nonmarkingreturn" horiz-adv-x="333" 
 />
    <glyph glyph-name="CR" unicode="&#xd;" horiz-adv-x="266" 
 />
    <glyph glyph-name="space" unicode=" " horiz-adv-x="266" 
 />
    <glyph glyph-name="exclam" unicode="!" horiz-adv-x="256" 
d="M160 703v-233l-11 -274h-43l-11 274v233h65zM128 81q18 0 31.5 -13t13.5 -31q0 -19 -13.5 -32t-31.5 -13t-31.5 13t-13.5 32q0 18 13.5 31t31.5 13z" />
    <glyph glyph-name="quotedbl" unicode="&#x22;" horiz-adv-x="420" 
d="M142 716v-260h-53v260h53zM332 716v-260h-53v260h53z" />
    <glyph glyph-name="numbersign" unicode="#" 
d="M543 462h-89l-36 -247h84v-45h-90l-25 -170h-51l25 170h-156l-25 -170h-51l25 170h-82v45h88l36 247h-84v45h90l25 173h51l-25 -173h156l25 173h51l-25 -173h83v-45zM367 215l36 247h-156l-36 -247h156z" />
    <glyph glyph-name="dollar" unicode="$" horiz-adv-x="624" 
d="M348 834v-122q149 -10 229 -118l-48 -34q-25 39 -72 67t-111 33v-271q131 -25 184 -71.5t53 -128.5q0 -86 -61 -141.5t-174 -59.5v-136h-48v136q-77 3 -146.5 32.5t-112.5 85.5l45 38q75 -95 216 -103v300q-117 22 -171 69t-54 122q0 79 60 128t163 53v121h48zM302 398
v263q-78 -3 -120.5 -37t-42.5 -90t36 -86.5t127 -49.5zM346 334v-294q83 4 128 43t45 103q0 59 -36 93.5t-137 54.5z" />
    <glyph glyph-name="percent" unicode="%" horiz-adv-x="1014" 
d="M231 712q78 0 131 -57t53 -168q0 -113 -53 -170.5t-131 -57.5t-131 57.5t-53 170.5q0 111 53 168t131 57zM749 712l-433 -724h-52l433 724h52zM231 669q-60 0 -95.5 -46t-35.5 -136q0 -92 35.5 -138t95.5 -46t95 46t35 138q0 90 -35.5 136t-94.5 46zM784 443
q77 0 130 -57.5t53 -168.5q0 -114 -52.5 -171t-130.5 -57q-79 0 -132 57t-53 171q0 111 53.5 168.5t131.5 57.5zM783 399q-60 0 -95.5 -46t-35.5 -135q0 -92 35.5 -138.5t95.5 -46.5t95 46t35 137t-35.5 137t-94.5 46z" />
    <glyph glyph-name="ampersand" unicode="&#x26;" horiz-adv-x="693" 
d="M290 -10q-99 0 -171 55.5t-72 155.5q0 127 142 194q-54 50 -76 85t-22 79q0 71 51 112.5t130 41.5q78 0 125 -40.5t47 -99.5q0 -55 -35 -98.5t-138 -90.5l241 -225q38 75 42 205h58q-4 -153 -61 -242q74 -65 129 -79l-20 -53q-36 9 -65.5 28t-76.5 63q-84 -91 -228 -91z
M239 416q85 38 116.5 72t31.5 82q0 40 -32 68t-83 28q-56 0 -88.5 -29.5t-32.5 -75.5q0 -37 19 -67.5t69 -77.5zM293 43q125 0 189 72l-260 247q-114 -54 -114 -161q0 -72 51 -115t134 -43z" />
    <glyph glyph-name="quotesingle" unicode="'" horiz-adv-x="230" 
d="M142 716v-260h-53v260h53z" />
    <glyph glyph-name="parenleft" unicode="(" horiz-adv-x="272" 
d="M195 780h47q-61 -124 -90 -235.5t-29 -241.5t29 -241t90 -235h-47q-136 240 -136 476q0 237 136 477z" />
    <glyph glyph-name="parenright" unicode=")" horiz-adv-x="272" 
d="M30 780h47q136 -240 136 -477q0 -236 -136 -476h-47q61 124 90 235t29 241t-29 241.5t-90 235.5z" />
    <glyph glyph-name="asterisk" unicode="*" horiz-adv-x="459" 
d="M257 716l-9 -153l143 54l17 -55l-147 -35l101 -119l-49 -35l-83 131l-81 -133l-49 33l99 123l-149 35l18 55l142 -54l-10 153h57z" />
    <glyph glyph-name="plus" unicode="+" 
d="M329 484v-165h163v-54h-163v-165h-59v165h-162v54h162v165h59z" />
    <glyph glyph-name="comma" unicode="," horiz-adv-x="252" 
d="M126 81q19 0 32 -13.5t13 -32.5q0 -38 -21 -89t-56 -94l-32 15q36 62 43 132q-24 13 -24 38q0 18 13 31t32 13z" />
    <glyph glyph-name="hyphen" unicode="-" horiz-adv-x="360" 
d="M307 332v-54h-255v54h255z" />
    <glyph glyph-name="period" unicode="." horiz-adv-x="252" 
d="M126 81q18 0 31.5 -13t13.5 -31q0 -19 -13.5 -32t-31.5 -13t-31.5 13t-13.5 32q0 18 13.5 31t31.5 13z" />
    <glyph glyph-name="slash" unicode="/" horiz-adv-x="520" 
d="M460 775l-352 -935h-49l352 935h49z" />
    <glyph glyph-name="zero" unicode="0" horiz-adv-x="599" 
d="M300 583q114 0 187.5 -81t73.5 -218q0 -136 -73 -215.5t-188 -79.5t-188 79.5t-73 215.5q0 137 73.5 218t187.5 81zM299 533q-89 0 -144 -67t-55 -182q0 -114 55 -179t144 -65t144 64.5t55 179.5q0 114 -55.5 181.5t-143.5 67.5z" />
    <glyph glyph-name="one" unicode="1" horiz-adv-x="479" 
d="M73 0v51h166v338h-162v47h40q77 0 103 27.5t33 106.5h46v-519h152v-51h-378z" />
    <glyph glyph-name="two" unicode="2" horiz-adv-x="560" 
d="M287 581q93 0 147.5 -49t54.5 -130q0 -91 -79.5 -171.5t-254.5 -179.5h346v-51h-437v49q201 123 281.5 198t80.5 152q0 63 -38 97.5t-101 34.5q-73 0 -116 -43.5t-44 -101.5h-62q3 76 62 135.5t160 59.5z" />
    <glyph glyph-name="three" unicode="3" horiz-adv-x="561" 
d="M281 583q102 0 157.5 -48.5t55.5 -127.5q0 -65 -37.5 -107.5t-97.5 -50.5q63 -6 109.5 -53.5t46.5 -122.5q0 -100 -67.5 -158.5t-170.5 -58.5q-92 0 -157.5 50t-85.5 138l58 14q15 -70 63 -110.5t122 -40.5q77 0 126.5 43t49.5 123q0 70 -43 110t-113 40h-73v46h65
q63 0 103.5 34t40.5 101q0 61 -42 96t-111 35q-68 0 -111 -35.5t-58 -96.5l-58 10q14 73 74.5 121.5t153.5 48.5z" />
    <glyph glyph-name="four" unicode="4" horiz-adv-x="598" 
d="M452 570v-519h120v-51h-120v-130h-59v130h-350v53l334 517h75zM393 500l-288 -449h288v449z" />
    <glyph glyph-name="five" unicode="5" horiz-adv-x="588" 
d="M499 569l-8 -50h-318l-30 -232q66 75 172 75q92 0 155.5 -66t63.5 -171q0 -120 -67 -194.5t-179 -74.5q-94 0 -152.5 47.5t-79.5 108.5l55 17q15 -49 61.5 -85.5t117.5 -36.5q83 0 133.5 60t50.5 155q0 87 -48 138t-121 51q-107 0 -173 -91l-52 7l46 342h373z" />
    <glyph glyph-name="six" unicode="6" horiz-adv-x="582" 
d="M311 695q139 0 195 -135l-53 -17q-40 103 -142 103q-179 0 -197 -318q24 54 76 89.5t119 35.5q96 0 157 -62t61 -168q0 -104 -64 -169.5t-168 -65.5q-107 0 -173 74.5t-66 212.5q0 201 67.5 310.5t187.5 109.5zM298 403q-75 0 -126.5 -52.5t-51.5 -124.5q0 -80 48 -134
t126 -54t125.5 50.5t47.5 134.5q0 81 -46 130.5t-123 49.5z" />
    <glyph glyph-name="seven" unicode="7" horiz-adv-x="478" 
d="M466 570v-51q-125 -157 -191.5 -307.5t-90.5 -341.5h-63q24 198 93.5 347t194.5 301h-332v-79h-53v131h442z" />
    <glyph glyph-name="eight" unicode="8" horiz-adv-x="594" 
d="M295 695q108 0 162 -51.5t54 -120.5q0 -108 -137 -153q173 -55 173 -183q0 -34 -13 -67t-40 -63.5t-78.5 -49.5t-120.5 -19q-124 0 -186 59.5t-62 138.5q0 69 43 116.5t118 65.5q-128 47 -128 155q0 67 54 119.5t161 52.5zM295 647q-76 0 -116 -36.5t-40 -88.5
q0 -51 37.5 -79.5t118.5 -50.5l28 -7q129 50 129 137q0 51 -39 88t-118 37zM288 343l-23 7q-158 -31 -158 -162q0 -61 49 -105.5t139 -44.5q99 0 145.5 47t46.5 105q0 62 -45.5 91.5t-153.5 61.5z" />
    <glyph glyph-name="nine" unicode="9" horiz-adv-x="583" 
d="M289 583q107 0 173 -72.5t66 -211.5q0 -227 -63.5 -335.5t-194.5 -108.5q-147 0 -211 124l51 23q49 -97 160 -97q188 0 201 338q-23 -57 -75.5 -93.5t-122.5 -36.5q-95 0 -157 63t-62 169q0 107 65 172.5t170 65.5zM290 533q-77 0 -126 -50.5t-49 -137.5q0 -81 46 -131
t124 -50q76 0 126.5 55t50.5 128q0 83 -47 134.5t-125 51.5z" />
    <glyph glyph-name="colon" unicode=":" horiz-adv-x="252" 
d="M126 467q18 0 31.5 -13t13.5 -31q0 -19 -13.5 -32t-31.5 -13t-31.5 13t-13.5 32q0 18 13.5 31t31.5 13zM126 81q18 0 31.5 -13t13.5 -31q0 -19 -13.5 -32t-31.5 -13t-31.5 13t-13.5 32q0 18 13.5 31t31.5 13z" />
    <glyph glyph-name="semicolon" unicode=";" horiz-adv-x="252" 
d="M126 81q19 0 32 -13.5t13 -32.5q0 -38 -21 -89t-56 -94l-32 15q36 62 43 132q-24 13 -24 38q0 18 13 31t32 13zM126 467q18 0 31.5 -13t13.5 -31q0 -19 -13.5 -32t-31.5 -13t-31.5 13t-13.5 32q0 18 13.5 31t31.5 13z" />
    <glyph glyph-name="less" unicode="&#x3c;" 
d="M486 500v-58l-333 -153l333 -154v-58l-372 177v70z" />
    <glyph glyph-name="equal" unicode="=" 
d="M492 433v-54h-384v54h384zM492 227v-53h-384v53h384z" />
    <glyph glyph-name="greater" unicode="&#x3e;" 
d="M114 500l372 -176v-70l-372 -177v58l333 154l-333 153v58z" />
    <glyph glyph-name="question" unicode="?" horiz-adv-x="519" 
d="M268 708q57 0 100.5 -17.5t66 -45t33 -56.5t10.5 -57q0 -48 -19 -83.5t-46 -57.5t-54 -42t-46 -47.5t-19 -62.5v-43h-60v54q0 37 18.5 67.5t45 52l53 43t45 51t18.5 65.5q0 55 -36.5 91t-107.5 36q-70 0 -113.5 -38t-61.5 -92l-56 17q17 61 76 113t153 52zM265 81
q18 0 31.5 -13t13.5 -31q0 -19 -13.5 -32t-31.5 -13t-31.5 13t-13.5 32q0 18 13.5 31t31.5 13z" />
    <glyph glyph-name="at" unicode="@" horiz-adv-x="1031" 
d="M547 713q180 0 291 -106.5t111 -271.5q0 -72 -22.5 -140t-71 -116.5t-111.5 -48.5q-14 0 -26.5 3t-22 7t-17.5 11t-13 13.5t-9.5 16t-7 15.5t-4.5 16t-2.5 14l-1.5 12l-1 9q-23 -62 -71 -91.5t-107 -29.5q-78 0 -124.5 54t-46.5 141q0 130 71 212t170 82q46 0 84.5 -21.5
t51.5 -72.5l12 71h53l-48 -282q-2 -26 -3.5 -55.5t14.5 -54t48 -24.5q66 0 107.5 79t41.5 183q0 144 -95.5 237t-250.5 93q-181 0 -294 -116.5t-113 -305.5q0 -170 98.5 -272t265.5 -102q98 0 200 35l16 -44q-117 -39 -217 -39q-189 0 -304.5 114.5t-115.5 306.5
q0 209 130.5 338.5t334.5 129.5zM535 464q-82 0 -133 -70.5t-51 -173.5q0 -67 32 -105.5t89 -38.5q67 0 115 56t59 174q7 87 -26 122.5t-85 35.5z" />
    <glyph glyph-name="A" unicode="A" horiz-adv-x="606" 
d="M520 0l-49 146h-339l-49 -146h-64l245 700h80l244 -700h-68zM302 648l-152 -448h303z" />
    <glyph glyph-name="B" unicode="B" horiz-adv-x="629" 
d="M427 378q76 -10 119 -58t43 -121q0 -90 -63 -144.5t-183 -54.5h-254v700h220q242 0 242 -173q0 -60 -34 -98.5t-90 -50.5zM315 646h-165v-247h202q61 0 98.5 33t37.5 92q0 122 -173 122zM150 54h196q83 0 130.5 39.5t47.5 107.5q0 73 -45 110t-119 37h-210v-294z" />
    <glyph glyph-name="C" unicode="C" horiz-adv-x="704" 
d="M365 713q88 0 163 -45.5t112 -147.5l-61 -17q-57 154 -215 154q-107 0 -174.5 -80t-67.5 -226q0 -151 67 -229.5t175 -78.5q173 0 229 169l60 -20q-35 -103 -113 -154t-176 -51q-55 0 -106 19t-97 59t-74 113.5t-28 172.5q0 93 26 164.5t70 113.5t97 63t113 21z" />
    <glyph glyph-name="D" unicode="D" horiz-adv-x="685" 
d="M89 700h194q153 0 248.5 -86t95.5 -254q0 -100 -28 -173t-75.5 -112t-100 -57t-112.5 -18h-222v700zM284 645h-135v-590h161q49 0 90.5 14t80 46.5t60.5 95t22 149.5q0 134 -73 209.5t-206 75.5z" />
    <glyph glyph-name="E" unicode="E" horiz-adv-x="565" 
d="M497 700v-54h-347v-262h326v-54h-326v-276h356v-54h-417v700h408z" />
    <glyph glyph-name="F" unicode="F" horiz-adv-x="532" 
d="M486 700v-54h-336v-275h313v-55h-313v-316h-61v700h397z" />
    <glyph glyph-name="G" unicode="G" horiz-adv-x="725" 
d="M364 713q200 0 272 -180l-55 -22q-60 148 -218 148q-108 0 -174.5 -82.5t-66.5 -230.5q0 -150 66.5 -227.5t174.5 -77.5q95 0 160 60t65 179v22h-199v54h259v-356h-60v125q-30 -66 -91.5 -102t-137.5 -36q-44 0 -84.5 11t-80.5 37.5t-69.5 66.5t-47.5 103t-18 141
q0 93 26 165.5t70 115t97 64.5t112 22z" />
    <glyph glyph-name="H" unicode="H" horiz-adv-x="686" 
d="M598 700v-700h-61v337h-387v-337h-61v700h61v-309h387v309h61z" />
    <glyph glyph-name="I" unicode="I" horiz-adv-x="344" 
d="M307 700v-53h-104v-594h104v-53h-269v53h104v594h-104v53h269z" />
    <glyph glyph-name="J" unicode="J" horiz-adv-x="386" 
d="M309 700v-513q0 -94 -40.5 -143t-138.5 -49q-42 0 -101 7v55q50 -6 74 -6q83 0 114 32.5t31 109.5v507h61z" />
    <glyph glyph-name="K" unicode="K" horiz-adv-x="625" 
d="M532 0l-266 364l-116 -134v-230h-61v700h61v-388l333 388h74l-251 -291l298 -409h-72z" />
    <glyph glyph-name="L" unicode="L" horiz-adv-x="520" 
d="M150 700v-645h338v-55h-399v700h61z" />
    <glyph glyph-name="M" unicode="M" horiz-adv-x="810" 
d="M677 700l76 -700h-60l-71 644l-181 -644h-69l-187 644l-68 -644h-60l74 700h98l179 -628l171 628h98z" />
    <glyph glyph-name="N" unicode="N" horiz-adv-x="686" 
d="M598 700v-700h-66l-384 595v-595h-59v700h63l386 -604v604h60z" />
    <glyph glyph-name="O" unicode="O" horiz-adv-x="743" 
d="M372 713q55 0 107.5 -19t100 -59.5t76.5 -114t29 -171.5q0 -93 -27 -165t-72.5 -113.5t-99.5 -62.5t-114 -21q-55 0 -107.5 19t-100 59.5t-76.5 114t-29 171.5q0 93 27 165t72.5 113.5t99.5 62.5t114 21zM371 659q-108 0 -178.5 -80.5t-70.5 -227.5q0 -149 70 -229.5
t179 -80.5q107 0 178.5 81t71.5 227q0 148 -70.5 229t-179.5 81z" />
    <glyph glyph-name="P" unicode="P" horiz-adv-x="608" 
d="M89 700h228q126 0 187 -59.5t61 -151.5q0 -100 -62 -160.5t-183 -60.5h-170v-268h-61v700zM150 321h175q83 0 129.5 43t46.5 125q0 72 -44.5 114.5t-132.5 42.5h-174v-325z" />
    <glyph glyph-name="Q" unicode="Q" horiz-adv-x="746" 
d="M372 713q55 0 107.5 -19t100 -59.5t76.5 -114t29 -171.5q0 -205 -133 -303q57 -57 159 -80l-25 -62q-119 35 -180 115q-66 -32 -134 -32q-55 0 -107.5 19t-100 59.5t-76.5 114t-29 171.5q0 93 27 165t72.5 113.5t99.5 62.5t114 21zM371 657q-109 0 -179 -80t-70 -226
q0 -148 70 -228t179 -80q108 0 179 80t71 226q0 148 -70.5 228t-179.5 80z" />
    <glyph glyph-name="R" unicode="R" horiz-adv-x="610" 
d="M89 700h219q123 0 185 -55t62 -143q0 -74 -43.5 -127t-129.5 -65l198 -310h-71l-190 301h-170v-301h-60v700zM314 646h-165v-293h177q78 0 121.5 39.5t43.5 109.5q0 69 -45.5 106.5t-131.5 37.5z" />
    <glyph glyph-name="S" unicode="S" horiz-adv-x="620" 
d="M309 -13q-82 0 -157.5 29.5t-122.5 89.5l44 38q86 -103 237 -103q91 0 144 40t53 105t-44 101t-167 56q-116 19 -173.5 63t-57.5 123q0 82 65.5 133t174.5 51q172 0 260 -121l-47 -34q-74 101 -213 101q-83 0 -130.5 -35t-47.5 -93t45 -88t163 -50q126 -21 181 -70
t55 -134q0 -90 -67.5 -146t-194.5 -56z" />
    <glyph glyph-name="T" unicode="T" horiz-adv-x="572" 
d="M538 700v-54h-222v-646h-60v646h-222v54h504z" />
    <glyph glyph-name="U" unicode="U" horiz-adv-x="657" 
d="M581 700v-456q0 -49 -13.5 -93t-41.5 -81.5t-79 -60t-119 -22.5q-70 0 -121 22.5t-78 61t-39.5 81.5t-12.5 92v456h61v-454q0 -95 47.5 -150t143.5 -55q94 0 142.5 55.5t48.5 149.5v454h61z" />
    <glyph glyph-name="V" unicode="V" horiz-adv-x="558" 
d="M540 700l-218 -700h-80l-223 700h66l198 -644l195 644h62z" />
    <glyph glyph-name="W" unicode="W" horiz-adv-x="825" 
d="M802 700l-163 -700h-72l-150 620l-142 -620h-75l-176 700h64l150 -636l145 636h69l151 -634l139 634h60z" />
    <glyph glyph-name="X" unicode="X" horiz-adv-x="607" 
d="M339 380l250 -380h-74l-214 330l-210 -330h-72l244 376l-211 324h72l178 -277l175 277h71z" />
    <glyph glyph-name="Y" unicode="Y" horiz-adv-x="591" 
d="M571 700l-242 -412v-288h-61v287l-247 413h69l209 -356l205 356h67z" />
    <glyph glyph-name="Z" unicode="Z" horiz-adv-x="593" 
d="M542 700v-52l-427 -593h434v-55h-513v49l429 597h-399v54h476z" />
    <glyph glyph-name="bracketleft" unicode="[" horiz-adv-x="300" 
d="M255 790v-49h-131v-862h131v-50h-191v961h191z" />
    <glyph glyph-name="backslash" unicode="\" horiz-adv-x="520" 
d="M107 775l353 -935h-49l-352 935h48z" />
    <glyph glyph-name="bracketright" unicode="]" horiz-adv-x="300" 
d="M45 741v49h191v-961h-191v50h131v862h-131z" />
    <glyph glyph-name="asciicircum" unicode="^" 
d="M330 713l184 -372h-65l-152 319l-151 -319h-62l184 372h62z" />
    <glyph glyph-name="underscore" unicode="_" horiz-adv-x="535" 
d="M537 -64v-54h-539v54h539z" />
    <glyph glyph-name="grave" unicode="`" horiz-adv-x="236" 
d="M109 725l97 -132h-52l-124 132h79z" />
    <glyph glyph-name="a" unicode="a" horiz-adv-x="544" 
d="M272 529q108 0 150.5 -43t42.5 -128v-216q0 -95 17 -142h-62q-12 38 -14 79q-24 -39 -72 -64t-113 -25q-83 0 -127.5 41.5t-44.5 108.5q0 72 50.5 114t162.5 57l143 19v23q0 70 -27 99.5t-107 29.5q-140 0 -143 -114h-59q2 76 54 118.5t149 42.5zM405 284l-126 -17
q-89 -12 -128.5 -41t-39.5 -83q0 -46 29.5 -74t91.5 -28q75 0 124 41t49 101v101z" />
    <glyph glyph-name="b" unicode="b" horiz-adv-x="599" 
d="M144 700v-282q24 49 69.5 80t107.5 31q105 0 165 -73.5t60 -194.5q0 -117 -61.5 -194t-163.5 -77q-68 0 -112.5 29.5t-64.5 74.5v-94h-60v700h60zM311 478q-76 0 -123 -59.5t-47 -163.5q0 -105 47 -159.5t122 -54.5q79 0 126 59.5t47 159.5q0 101 -44 159.5t-128 58.5z
" />
    <glyph glyph-name="c" unicode="c" horiz-adv-x="552" 
d="M296 529q73 0 127.5 -34.5t80.5 -91.5l-53 -22q-44 97 -152 97q-84 0 -133.5 -60t-49.5 -159q0 -97 48 -157.5t132 -60.5q66 0 104 31.5t61 86.5l53 -23q-61 -146 -220 -146q-113 0 -176.5 75.5t-63.5 192.5q0 119 65.5 195t176.5 76z" />
    <glyph glyph-name="d" unicode="d" horiz-adv-x="599" 
d="M515 700v-700h-60v101q-24 -48 -70 -79.5t-108 -31.5q-105 0 -164 74t-59 193t60.5 195.5t165.5 76.5q64 0 109 -28.5t66 -74.5v274h60zM288 478q-82 0 -127 -59.5t-45 -160.5t43.5 -159t126.5 -58q77 0 124.5 58.5t47.5 163.5t-47 160t-123 55z" />
    <glyph glyph-name="e" unicode="e" horiz-adv-x="567" 
d="M290 529q107 0 167.5 -76t60.5 -190v-15h-402q1 -95 49.5 -152t134.5 -57q104 0 161 89l50 -27q-74 -112 -213 -112q-114 0 -179 77.5t-65 195.5q0 116 62 191.5t174 75.5zM289 480q-79 0 -124 -51.5t-49 -132.5h340q-4 82 -47.5 133t-119.5 51z" />
    <glyph glyph-name="f" unicode="f" horiz-adv-x="319" 
d="M247 710q52 0 99 -18v-48q-46 18 -92 18q-52 0 -73.5 -23t-21.5 -70v-49h162v-46h-162v-474h-60v474h-75v46h75v52q0 62 34.5 100t113.5 38z" />
    <glyph glyph-name="g" unicode="g" horiz-adv-x="554" 
d="M528 553v-54q-60 0 -95 -32q40 -41 40 -106q0 -75 -55 -118.5t-150 -43.5q-67 0 -116 26q-32 -27 -32 -53t19.5 -41.5t56.5 -15.5h116q107 0 155.5 -37.5t48.5 -101.5q0 -70 -64 -111t-175 -41q-233 0 -233 140q0 75 89 114q-65 21 -65 83q0 46 52 83q-59 46 -59 117
q0 70 54.5 119t150.5 49q81 0 134 -34q44 58 128 58zM267 484q-70 0 -108.5 -34.5t-38.5 -87.5q0 -56 40 -87t106 -31q71 0 110 31t39 87q0 54 -37.5 88t-110.5 34zM293 66h-113q-81 -35 -81 -96q0 -99 178 -99q84 0 132 27.5t48 74.5q0 48 -37 70.5t-127 22.5z" />
    <glyph glyph-name="h" unicode="h" horiz-adv-x="570" 
d="M144 700v-278q23 48 68 77.5t104 29.5q87 0 131.5 -51t44.5 -146v-332h-60v317q0 79 -29.5 120t-98.5 41q-68 0 -114 -51t-46 -142v-285h-60v700h60z" />
    <glyph glyph-name="i" unicode="i" horiz-adv-x="227" 
d="M144 520v-520h-60v520h60zM114 712q16 0 28.5 -12t12.5 -29q0 -16 -12 -28t-29 -12t-29 12t-12 28q0 17 12.5 29t28.5 12z" />
    <glyph glyph-name="j" unicode="j" horiz-adv-x="227" 
d="M144 520v-550q0 -74 -40 -109t-98 -35q-21 0 -49 4v48q22 -2 28 -2q51 0 75 24.5t24 88.5v531h60zM114 712q16 0 28.5 -12t12.5 -29q0 -16 -12 -28t-29 -12t-29 12t-12 28q0 17 12.5 29t28.5 12z" />
    <glyph glyph-name="k" unicode="k" horiz-adv-x="528" 
d="M144 700v-455l276 275h75l-206 -203l221 -317h-70l-192 278l-104 -103v-175h-60v700h60z" />
    <glyph glyph-name="l" unicode="l" horiz-adv-x="269" 
d="M139 700v-573q0 -45 12 -63t49 -18q13 0 35 3v-49q-30 -5 -53 -5q-103 0 -103 122v583h60z" />
    <glyph glyph-name="m" unicode="m" horiz-adv-x="884" 
d="M636 529q84 0 127 -51t43 -146v-332h-60v300q0 91 -27.5 134.5t-94.5 43.5q-64 0 -106.5 -51t-42.5 -143v-284h-60v289q0 97 -27 143t-94 46q-63 0 -106.5 -51.5t-43.5 -142.5v-284h-60v520h60v-93q22 48 65.5 75t95.5 27q65 0 103.5 -32.5t50.5 -87.5q24 61 70.5 90.5
t106.5 29.5z" />
    <glyph glyph-name="n" unicode="n" horiz-adv-x="570" 
d="M316 529q87 0 131.5 -51t44.5 -146v-332h-60v312q0 82 -29.5 124t-98.5 42q-68 0 -114 -51t-46 -142v-285h-60v520h60v-98q24 52 69.5 79.5t102.5 27.5z" />
    <glyph glyph-name="o" unicode="o" horiz-adv-x="595" 
d="M298 529q110 0 177 -77.5t67 -192.5q0 -120 -64.5 -195t-179.5 -75q-113 0 -178.5 76t-65.5 194t66 194t178 76zM297 478q-83 0 -132 -60t-49 -158q0 -100 48 -160t133 -60q86 0 134 59.5t48 160.5q0 97 -49 157.5t-133 60.5z" />
    <glyph glyph-name="p" unicode="p" horiz-adv-x="598" 
d="M322 529q103 0 162.5 -73.5t59.5 -192.5q0 -120 -60 -196.5t-165 -76.5q-64 0 -109 28t-66 76v-254h-60v680h60v-100q24 47 70 78t108 31zM312 478q-77 0 -124 -59t-47 -162q0 -107 46.5 -161.5t121.5 -54.5q80 0 126.5 59.5t46.5 162.5q0 98 -43.5 156.5t-126.5 58.5z
" />
    <glyph glyph-name="q" unicode="q" horiz-adv-x="599" 
d="M279 529q65 0 110.5 -28t65.5 -74v93h60v-680h-60v261q-24 -48 -70 -79.5t-108 -31.5q-105 0 -164 74t-59 193q0 120 60 196t165 76zM288 478q-82 0 -127 -59.5t-45 -160.5t43.5 -159t126.5 -58q77 0 124.5 58.5t47.5 163.5t-47 160t-123 55z" />
    <glyph glyph-name="r" unicode="r" horiz-adv-x="370" 
d="M308 529q20 0 38 -3v-62q-17 2 -35 2q-73 0 -120 -51.5t-47 -167.5v-247h-60v520h60v-114q22 61 66 92t98 31z" />
    <glyph glyph-name="s" unicode="s" horiz-adv-x="513" 
d="M253 529q124 0 200 -70l-37 -36q-65 57 -163 57q-63 0 -98 -24t-35 -63q0 -41 33 -61.5t120 -34.5q103 -17 150 -50.5t47 -104.5q0 -66 -57 -109t-160 -43q-146 0 -227 86l39 38q70 -73 187 -73q76 0 116 27.5t40 71.5q0 47 -35.5 70t-131.5 38q-94 14 -137.5 49
t-43.5 94q0 62 52.5 100t140.5 38z" />
    <glyph glyph-name="t" unicode="t" horiz-adv-x="357" 
d="M159 660v-140h160v-46h-160v-336q0 -48 20.5 -72.5t70.5 -24.5q44 0 87 13v-49q-51 -15 -99 -15q-139 0 -139 140v344h-75v46h75v140h60z" />
    <glyph glyph-name="u" unicode="u" horiz-adv-x="567" 
d="M484 520v-520h-60v92q-24 -47 -68.5 -74.5t-102.5 -27.5q-84 0 -129 47.5t-45 137.5v345h60v-332q0 -74 30 -109.5t96 -35.5q69 0 114 48t45 139v290h60z" />
    <glyph glyph-name="v" unicode="v" horiz-adv-x="492" 
d="M471 520l-190 -520h-71l-189 520h66l159 -458l163 458h62z" />
    <glyph glyph-name="w" unicode="w" horiz-adv-x="767" 
d="M741 520l-156 -520h-72l-129 442l-129 -442h-71l-158 520h66l129 -453l128 453h69l132 -452l129 452h62z" />
    <glyph glyph-name="x" unicode="x" horiz-adv-x="490" 
d="M445 520l-162 -237l189 -283h-70l-157 237l-156 -237h-70l189 280l-163 240h71l130 -195l130 195h69z" />
    <glyph glyph-name="y" unicode="y" horiz-adv-x="486" 
d="M466 520l-179 -540q-25 -76 -61.5 -116t-107.5 -40q-29 0 -56 5v49q23 -4 45 -4q54 0 79.5 30.5t45.5 95.5h-19l-192 520h66l166 -472l150 472h63z" />
    <glyph glyph-name="z" unicode="z" horiz-adv-x="465" 
d="M426 520v-48l-320 -420h323v-52h-398v46l321 423h-290v51h364z" />
    <glyph glyph-name="braceleft" unicode="{" horiz-adv-x="300" 
d="M264 790v-49h-10q-81 0 -81 -84v-252q0 -43 -23.5 -68t-50.5 -28q27 -3 50.5 -28.5t23.5 -67.5v-250q0 -84 81 -84h10v-49h-22q-60 0 -94.5 33t-34.5 89v252q0 43 -15.5 62.5t-49.5 23.5v38q34 4 49.5 23t15.5 63v254q0 56 34.5 89t94.5 33h22z" />
    <glyph glyph-name="bar" unicode="|" horiz-adv-x="300" 
d="M172 774v-934h-45v934h45z" />
    <glyph glyph-name="braceright" unicode="}" horiz-adv-x="300" 
d="M36 741v49h22q60 0 94.5 -33t34.5 -89v-254q0 -44 15.5 -63t49.5 -23v-38q-34 -4 -49.5 -23.5t-15.5 -62.5v-252q0 -56 -34.5 -89t-94.5 -33h-22v49h10q81 0 81 84v250q0 42 23.5 67.5t50.5 28.5q-27 3 -50.5 28t-23.5 68v252q0 84 -81 84h-10z" />
    <glyph glyph-name="asciitilde" unicode="~" 
d="M220 368q42 0 92 -29.5t72 -29.5q51 0 86 54l34 -29q-46 -77 -124 -77q-42 0 -92 29t-72 29q-51 0 -86 -54l-34 29q45 78 124 78z" />
    <glyph glyph-name="uni00A0" unicode="&#xa0;" horiz-adv-x="266" 
 />
    <glyph glyph-name="exclamdown" unicode="&#xa1;" horiz-adv-x="256" 
d="M128 527q18 0 31.5 -13t13.5 -32q0 -18 -13.5 -31t-31.5 -13t-31.5 13t-13.5 31t13.5 31.5t31.5 13.5zM149 326l11 -253v-233h-65v233l11 253h43z" />
    <glyph glyph-name="cent" unicode="&#xa2;" 
d="M479 154l49 -18q-55 -135 -202 -145v-140h-41v140q-102 7 -157.5 81.5t-55.5 185.5q0 113 56 187t157 83v140h41v-139q67 -4 118 -38.5t75 -87.5l-47 -20q-42 92 -148 98v-443q112 8 155 116zM130 259q0 -96 40 -155t117 -66v443q-76 -7 -116.5 -66t-40.5 -156z" />
    <glyph glyph-name="sterling" unicode="&#xa3;" horiz-adv-x="660" 
d="M378 713q75 0 123 -39.5t67 -100.5l-57 -16q-30 106 -135 106q-64 0 -103 -40t-39 -103v-163h241v-39h-241v-146q0 -47 -10 -73t-40 -46h373v-53h-439l-7 47q41 18 53.5 44.5t12.5 78.5v148h-84v39h84v166q0 80 52 135t149 55z" />
    <glyph glyph-name="currency" unicode="&#xa4;" horiz-adv-x="620" 
d="M77 556l101 -102q57 42 132 42q78 0 132 -42l100 101l36 -37l-99 -100q43 -54 43 -135q0 -82 -43 -136l99 -100l-36 -36l-101 100q-54 -41 -130 -41q-78 0 -133 41l-100 -101l-36 36l100 101q-43 54 -43 136q0 81 42 135l-100 101zM309 447q-71 0 -112.5 -43.5
t-41.5 -120.5t41.5 -120.5t113.5 -43.5t113.5 43.5t41.5 120.5q0 76 -42 120t-114 44z" />
    <glyph glyph-name="yen" unicode="&#xa5;" horiz-adv-x="613" 
d="M581 700l-221 -368h147v-37h-168v-106h168v-38h-168v-151h-61v151h-169v38h169v106h-169v37h148l-226 368h69l210 -350l204 350h67z" />
    <glyph glyph-name="brokenbar" unicode="&#xa6;" horiz-adv-x="300" 
d="M172 774v-369h-45v369h45zM172 209v-369h-45v369h45z" />
    <glyph glyph-name="section" unicode="&#xa7;" 
d="M304 709q116 0 194 -69l-36 -38q-67 58 -158 58q-62 0 -98.5 -25.5t-36.5 -65.5q0 -42 32.5 -64t116.5 -35q102 -16 153.5 -53t51.5 -105q0 -38 -23.5 -69.5t-71.5 -67.5q63 -35 63 -107q0 -64 -53.5 -103.5t-141.5 -39.5q-123 0 -205 75l36 37q69 -62 169 -62
q63 0 99 25t36 66q0 42 -32 63.5t-117 34.5q-102 17 -153.5 54t-51.5 105q0 39 23 71t72 66q-63 37 -63 106q0 65 53 104t142 39zM212 441q-42 -32 -59 -57t-17 -58q0 -46 41 -73t135 -43q44 -7 76 -17q41 36 58 60t17 56q0 45 -41 72.5t-135 43.5q-49 8 -75 16z" />
    <glyph glyph-name="dieresis" unicode="&#xa8;" horiz-adv-x="353" 
d="M69 697q16 0 28 -11.5t12 -27.5t-12 -27.5t-28 -11.5t-27.5 11.5t-11.5 27.5t11.5 27.5t27.5 11.5zM283 697q16 0 28 -11.5t12 -27.5t-12 -27.5t-28 -11.5t-27.5 11.5t-11.5 27.5t11.5 27.5t27.5 11.5z" />
    <glyph glyph-name="copyright" unicode="&#xa9;" horiz-adv-x="900" 
d="M451 713q151 0 256 -106t105 -258t-105 -257t-256 -105q-152 0 -258 105t-106 257t106 258t258 106zM451 677q-136 0 -231 -95.5t-95 -232.5t94.5 -231.5t231.5 -94.5q136 0 230 94.5t94 231.5t-94 232.5t-230 95.5zM450 569q123 0 165 -117l-40 -11q-31 92 -125 92
q-67 0 -106 -47.5t-39 -136.5q0 -81 37.5 -131.5t106.5 -50.5q98 0 133 96l39 -14q-49 -119 -173 -119q-88 0 -137 62.5t-49 156.5q0 111 55.5 165.5t132.5 54.5z" />
    <glyph glyph-name="ordfeminine" unicode="&#xaa;" horiz-adv-x="415" 
d="M207 712q82 0 115.5 -32t33.5 -95v-167q0 -68 12 -104h-55q-10 30 -10 50q-48 -58 -137 -58q-62 0 -95.5 31.5t-33.5 82.5q0 110 160 130l105 13v18q0 49 -19.5 70t-76.5 21q-98 0 -101 -81h-53q2 58 42 89.5t113 31.5zM302 523l-89 -11q-64 -8 -92 -29t-28 -59
q0 -33 21 -53t64 -20q54 0 89 29.5t35 72.5v70z" />
    <glyph glyph-name="guillemotleft" unicode="&#xab;" horiz-adv-x="465" 
d="M189 471l32 -22l-99 -169l99 -174l-32 -21l-123 164v62zM368 471l32 -22l-99 -169l99 -174l-32 -21l-123 164v62z" />
    <glyph glyph-name="logicalnot" unicode="&#xac;" 
d="M492 319v-227h-60v173h-324v54h384z" />
    <glyph glyph-name="uni00AD" unicode="&#xad;" horiz-adv-x="360" 
d="M307 332v-54h-255v54h255z" />
    <glyph glyph-name="registered" unicode="&#xae;" horiz-adv-x="900" 
d="M451 713q151 0 256 -106t105 -258t-105 -257t-256 -105q-152 0 -258 105t-106 257t106 258t258 106zM451 677q-136 0 -231 -95.5t-95 -232.5t94.5 -231.5t231.5 -94.5q136 0 230 94.5t94 231.5t-94 232.5t-230 95.5zM319 569h143q70 0 108.5 -32.5t38.5 -90.5
q0 -46 -29.5 -78.5t-76.5 -37.5l115 -184h-45l-112 179h-102v-179h-40v423zM464 535h-105v-176h111q45 0 71 23.5t26 64.5q0 42 -27.5 65t-75.5 23z" />
    <glyph glyph-name="macron" unicode="&#xaf;" horiz-adv-x="361" 
d="M331 679v-45h-301v45h301z" />
    <glyph glyph-name="degree" unicode="&#xb0;" horiz-adv-x="497" 
d="M249 708q72 0 124 -47t52 -127q0 -79 -52 -125.5t-124 -46.5t-124.5 47t-52.5 126t52.5 126t124.5 47zM249 663q-50 0 -86 -33.5t-36 -94.5q0 -60 36 -94t86 -34t85.5 33.5t35.5 93.5q0 61 -36 95t-85 34z" />
    <glyph glyph-name="plusminus" unicode="&#xb1;" 
d="M331 484v-165h163v-54h-163v-139h-59v139h-162v54h162v165h59zM488 72v-54h-383v54h383z" />
    <glyph glyph-name="twosuperior" unicode="&#xb2;" horiz-adv-x="400" 
d="M202 759q66 0 104.5 -33.5t38.5 -88.5q0 -126 -221 -261h230v-46h-308v45q120 81 178.5 143t58.5 116q0 38 -21.5 58.5t-62.5 20.5q-43 0 -66.5 -24.5t-25.5 -63.5h-58q1 56 40.5 95t112.5 39z" />
    <glyph glyph-name="threesuperior" unicode="&#xb3;" horiz-adv-x="400" 
d="M203 759q69 0 108 -30.5t39 -79.5q0 -38 -25 -63t-67 -30q45 -4 75 -31.5t30 -72.5q0 -59 -45.5 -94t-116.5 -35q-64 0 -107 29.5t-57 81.5l54 12q9 -35 37.5 -55.5t72.5 -20.5t72.5 22t28.5 62q0 37 -25.5 57.5t-67.5 20.5h-48v42h43q37 0 61.5 17.5t24.5 51.5t-24 52.5
t-64 18.5t-66 -19t-34 -52l-54 9q12 47 53 77t102 30z" />
    <glyph glyph-name="acute" unicode="&#xb4;" horiz-adv-x="236" 
d="M206 725l-123 -132h-53l97 132h79z" />
    <glyph glyph-name="mu" unicode="&#xb5;" horiz-adv-x="572" 
d="M489 520v-520h-60v120q-15 -65 -56 -98.5t-101 -33.5q-102 0 -128 88v-236h-60v680h60v-332q0 -146 128 -146q68 0 112.5 48.5t44.5 139.5v290h60z" />
    <glyph glyph-name="paragraph" unicode="&#xb6;" horiz-adv-x="609" 
d="M517 700v-860h-36v827h-164v-827h-37v491q-84 2 -138.5 56t-54.5 126q0 80 54 133.5t149 53.5h227z" />
    <glyph glyph-name="periodcentered" unicode="&#xb7;" horiz-adv-x="252" 
d="M126 338q18 0 31.5 -13t13.5 -31q0 -19 -13.5 -32t-31.5 -13t-31.5 13t-13.5 32q0 18 13.5 31t31.5 13z" />
    <glyph glyph-name="cedilla" unicode="&#xb8;" horiz-adv-x="278" 
d="M143 3l-1 -56q52 -4 80 -25.5t28 -55.5q0 -42 -32.5 -66t-85.5 -24q-61 0 -102 25l19 33q31 -20 77 -20q74 0 74 52q0 51 -107 51l13 86h37z" />
    <glyph glyph-name="onesuperior" unicode="&#xb9;" horiz-adv-x="400" 
d="M82 330v46h110v258h-107v40h24q53 0 71 15.5t22 60.5h47v-374h96v-46h-263z" />
    <glyph glyph-name="ordmasculine" unicode="&#xba;" horiz-adv-x="455" 
d="M227 712q85 0 136 -58t51 -145q0 -91 -49.5 -147t-137.5 -56q-86 0 -136 57t-50 146t50.5 146t135.5 57zM227 667q-60 0 -95 -42.5t-35 -114.5t34.5 -115.5t95.5 -43.5q62 0 96.5 43t34.5 116q0 71 -35.5 114t-95.5 43z" />
    <glyph glyph-name="guillemotright" unicode="&#xbb;" horiz-adv-x="465" 
d="M273 471l124 -160v-62l-124 -164l-31 21l99 174l-99 169zM99 471l124 -160v-62l-124 -164l-31 21l99 174l-99 169z" />
    <glyph glyph-name="onequarter" unicode="&#xbc;" horiz-adv-x="897" 
d="M735 712l-433 -724h-52l433 724h52zM804 420v-280h71v-46h-71v-94h-56v94h-229v48l212 278h73zM748 361l-172 -221h172v221zM82 280v46h110v258h-107v40h24q53 0 71 15.5t22 60.5h47v-374h96v-46h-263z" />
    <glyph glyph-name="onehalf" unicode="&#xbd;" horiz-adv-x="947" 
d="M735 712l-433 -724h-52l433 724h52zM749 429q66 0 104.5 -33.5t38.5 -88.5q0 -126 -221 -261h230v-46h-308v45q120 81 178.5 143t58.5 116q0 38 -21.5 58.5t-62.5 20.5q-43 0 -66.5 -24.5t-25.5 -63.5h-58q1 56 40.5 95t112.5 39zM82 280v46h110v258h-107v40h24
q53 0 71 15.5t22 60.5h47v-374h96v-46h-263z" />
    <glyph glyph-name="threequarters" unicode="&#xbe;" horiz-adv-x="857" 
d="M695 712l-433 -724h-52l433 724h52zM764 420v-280h71v-46h-71v-94h-56v94h-229v48l212 278h73zM708 361l-172 -221h172v221zM203 709q69 0 108 -30.5t39 -79.5q0 -38 -25 -63t-67 -30q45 -4 75 -31.5t30 -72.5q0 -59 -45.5 -94t-116.5 -35q-64 0 -107 29.5t-57 81.5
l54 12q9 -35 37.5 -55.5t72.5 -20.5t72.5 22t28.5 62q0 37 -25.5 57.5t-67.5 20.5h-48v42h43q37 0 61.5 17.5t24.5 51.5t-24 52.5t-64 18.5t-66 -19t-34 -52l-54 9q12 47 53 77t102 30z" />
    <glyph glyph-name="questiondown" unicode="&#xbf;" horiz-adv-x="519" 
d="M253 528q18 0 31.5 -13t13.5 -31q0 -19 -13.5 -32t-31.5 -13t-31.5 13t-13.5 31q0 19 13.5 32t31.5 13zM285 330v-47q0 -37 -18.5 -67.5t-45.5 -52t-53.5 -43t-45 -51t-18.5 -65.5q0 -55 37 -91t108 -36q70 0 113.5 38t61.5 91l56 -17q-17 -61 -76 -113t-153 -52
q-58 0 -101 17.5t-65.5 45.5t-33 56.5t-10.5 57.5q0 47 19 83t46 57.5t54 41.5t46 47.5t19 62.5v37h60z" />
    <glyph glyph-name="Agrave" unicode="&#xc0;" horiz-adv-x="606" 
d="M520 0l-49 146h-339l-49 -146h-64l245 700h80l244 -700h-68zM302 648l-152 -448h303zM243 883l97 -130h-52l-127 130h82z" />
    <glyph glyph-name="Aacute" unicode="&#xc1;" horiz-adv-x="606" 
d="M520 0l-49 146h-339l-49 -146h-64l245 700h80l244 -700h-68zM302 648l-152 -448h303zM450 883l-126 -130h-53l97 130h82z" />
    <glyph glyph-name="Acircumflex" unicode="&#xc2;" horiz-adv-x="606" 
d="M520 0l-49 146h-339l-49 -146h-64l245 700h80l244 -700h-68zM302 648l-152 -448h303zM334 888l131 -125h-57l-104 87l-103 -87h-58l132 125h59z" />
    <glyph glyph-name="Atilde" unicode="&#xc3;" horiz-adv-x="606" 
d="M520 0l-49 146h-339l-49 -146h-64l245 700h80l244 -700h-68zM302 648l-152 -448h303zM242 866q38 0 72 -27t54 -27q35 0 54 47h39q-9 -40 -34 -65t-62 -25q-30 0 -52 13.5t-39 27t-35 13.5q-36 0 -55 -47h-38q9 41 33.5 65.5t62.5 24.5z" />
    <glyph glyph-name="Adieresis" unicode="&#xc4;" horiz-adv-x="606" 
d="M520 0l-49 146h-339l-49 -146h-64l245 700h80l244 -700h-68zM302 648l-152 -448h303zM197 857q16 0 28 -11.5t12 -27.5t-12 -27.5t-28 -11.5t-27.5 11.5t-11.5 27.5t11.5 27.5t27.5 11.5zM411 857q16 0 28 -11.5t12 -27.5t-12 -27.5t-28 -11.5t-27.5 11.5t-11.5 27.5
t11.5 27.5t27.5 11.5z" />
    <glyph glyph-name="Aring" unicode="&#xc5;" horiz-adv-x="606" 
d="M520 0l-49 146h-339l-49 -146h-64l245 700h80l244 -700h-68zM302 648l-152 -448h303zM304 955q47 0 81.5 -32t34.5 -80t-34.5 -79.5t-81.5 -31.5q-48 0 -82.5 31.5t-34.5 79.5t34.5 80t82.5 32zM304 919q-31 0 -53 -21t-22 -55q0 -33 22 -53.5t53 -20.5t52.5 20.5
t21.5 53.5t-22 54.5t-52 21.5z" />
    <glyph glyph-name="AE" unicode="&#xc6;" horiz-adv-x="952" 
d="M859 700v-54h-386l41 -262h331v-54h-323l43 -275h348v-55h-404l-21 144h-337l-77 -144h-66l377 700h474zM415 643l-238 -446h303z" />
    <glyph glyph-name="Ccedilla" unicode="&#xc7;" horiz-adv-x="704" 
d="M365 713q88 0 163 -45.5t112 -147.5l-61 -17q-57 154 -215 154q-107 0 -174.5 -80t-67.5 -226q0 -151 67 -229.5t175 -78.5q173 0 229 169l60 -20q-34 -99 -108 -150t-168 -55v-40q52 -4 80 -25.5t28 -55.5q0 -42 -32.5 -66t-85.5 -24q-61 0 -102 25l19 33q31 -20 77 -20
q74 0 74 52q0 51 -107 51l10 71q-41 3 -79 16.5t-75 41.5t-64.5 68t-44 101t-16.5 136q0 93 26 164.5t70 113.5t97 63t113 21z" />
    <glyph glyph-name="Egrave" unicode="&#xc8;" horiz-adv-x="565" 
d="M497 700v-54h-347v-262h326v-54h-326v-276h356v-54h-417v700h408zM238 883l97 -130h-52l-127 130h82z" />
    <glyph glyph-name="Eacute" unicode="&#xc9;" horiz-adv-x="565" 
d="M497 700v-54h-347v-262h326v-54h-326v-276h356v-54h-417v700h408zM445 883l-126 -130h-53l97 130h82z" />
    <glyph glyph-name="Ecircumflex" unicode="&#xca;" horiz-adv-x="565" 
d="M497 700v-54h-347v-262h326v-54h-326v-276h356v-54h-417v700h408zM329 888l131 -125h-57l-104 87l-103 -87h-58l132 125h59z" />
    <glyph glyph-name="Edieresis" unicode="&#xcb;" horiz-adv-x="565" 
d="M497 700v-54h-347v-262h326v-54h-326v-276h356v-54h-417v700h408zM192 857q16 0 28 -11.5t12 -27.5t-12 -27.5t-28 -11.5t-27.5 11.5t-11.5 27.5t11.5 27.5t27.5 11.5zM406 857q16 0 28 -11.5t12 -27.5t-12 -27.5t-28 -11.5t-27.5 11.5t-11.5 27.5t11.5 27.5t27.5 11.5z
" />
    <glyph glyph-name="Igrave" unicode="&#xcc;" horiz-adv-x="344" 
d="M307 700v-53h-104v-594h104v-53h-269v53h104v594h-104v53h269zM111 883l97 -130h-52l-127 130h82z" />
    <glyph glyph-name="Iacute" unicode="&#xcd;" horiz-adv-x="344" 
d="M307 700v-53h-104v-594h104v-53h-269v53h104v594h-104v53h269zM318 883l-126 -130h-53l97 130h82z" />
    <glyph glyph-name="Icircumflex" unicode="&#xce;" horiz-adv-x="344" 
d="M307 700v-53h-104v-594h104v-53h-269v53h104v594h-104v53h269zM202 888l131 -125h-57l-104 87l-103 -87h-58l132 125h59z" />
    <glyph glyph-name="Idieresis" unicode="&#xcf;" horiz-adv-x="344" 
d="M307 700v-53h-104v-594h104v-53h-269v53h104v594h-104v53h269zM65 857q16 0 28 -11.5t12 -27.5t-12 -27.5t-28 -11.5t-27.5 11.5t-11.5 27.5t11.5 27.5t27.5 11.5zM279 857q16 0 28 -11.5t12 -27.5t-12 -27.5t-28 -11.5t-27.5 11.5t-11.5 27.5t11.5 27.5t27.5 11.5z" />
    <glyph glyph-name="Eth" unicode="&#xd0;" horiz-adv-x="712" 
d="M116 700h194q153 0 248.5 -86t95.5 -254q0 -100 -28 -173t-75.5 -112t-100 -57t-112.5 -18h-222v345h-89v42h89v313zM176 55h161q49 0 90.5 14t80 46.5t60.5 95t22 149.5q0 134 -73 209.5t-206 75.5h-135v-258h211v-42h-211v-290z" />
    <glyph glyph-name="Ntilde" unicode="&#xd1;" horiz-adv-x="686" 
d="M598 700v-700h-66l-384 595v-595h-59v700h63l386 -604v604h60zM281 866q29 0 51 -13.5t39.5 -27t35.5 -13.5q35 0 54 47h39q-9 -40 -34 -65t-62 -25q-30 0 -52 13.5t-39 27t-35 13.5q-36 0 -55 -47h-38q9 41 33.5 65.5t62.5 24.5z" />
    <glyph glyph-name="Ograve" unicode="&#xd2;" horiz-adv-x="743" 
d="M372 713q55 0 107.5 -19t100 -59.5t76.5 -114t29 -171.5q0 -93 -27 -165t-72.5 -113.5t-99.5 -62.5t-114 -21q-55 0 -107.5 19t-100 59.5t-76.5 114t-29 171.5q0 93 27 165t72.5 113.5t99.5 62.5t114 21zM371 659q-108 0 -178.5 -80.5t-70.5 -227.5q0 -149 70 -229.5
t179 -80.5q107 0 178.5 81t71.5 227q0 148 -70.5 229t-179.5 81zM310 883l97 -130h-52l-127 130h82z" />
    <glyph glyph-name="Oacute" unicode="&#xd3;" horiz-adv-x="743" 
d="M372 713q55 0 107.5 -19t100 -59.5t76.5 -114t29 -171.5q0 -93 -27 -165t-72.5 -113.5t-99.5 -62.5t-114 -21q-55 0 -107.5 19t-100 59.5t-76.5 114t-29 171.5q0 93 27 165t72.5 113.5t99.5 62.5t114 21zM371 659q-108 0 -178.5 -80.5t-70.5 -227.5q0 -149 70 -229.5
t179 -80.5q107 0 178.5 81t71.5 227q0 148 -70.5 229t-179.5 81zM517 883l-126 -130h-53l97 130h82z" />
    <glyph glyph-name="Ocircumflex" unicode="&#xd4;" horiz-adv-x="743" 
d="M372 713q55 0 107.5 -19t100 -59.5t76.5 -114t29 -171.5q0 -93 -27 -165t-72.5 -113.5t-99.5 -62.5t-114 -21q-55 0 -107.5 19t-100 59.5t-76.5 114t-29 171.5q0 93 27 165t72.5 113.5t99.5 62.5t114 21zM371 659q-108 0 -178.5 -80.5t-70.5 -227.5q0 -149 70 -229.5
t179 -80.5q107 0 178.5 81t71.5 227q0 148 -70.5 229t-179.5 81zM401 888l131 -125h-57l-104 87l-103 -87h-58l132 125h59z" />
    <glyph glyph-name="Otilde" unicode="&#xd5;" horiz-adv-x="743" 
d="M372 713q55 0 107.5 -19t100 -59.5t76.5 -114t29 -171.5q0 -93 -27 -165t-72.5 -113.5t-99.5 -62.5t-114 -21q-55 0 -107.5 19t-100 59.5t-76.5 114t-29 171.5q0 93 27 165t72.5 113.5t99.5 62.5t114 21zM371 659q-108 0 -178.5 -80.5t-70.5 -227.5q0 -149 70 -229.5
t179 -80.5q107 0 178.5 81t71.5 227q0 148 -70.5 229t-179.5 81zM309 866q29 0 51 -13.5t39.5 -27t35.5 -13.5q35 0 54 47h39q-9 -40 -34 -65t-62 -25q-30 0 -52 13.5t-39 27t-35 13.5q-36 0 -55 -47h-38q9 41 33.5 65.5t62.5 24.5z" />
    <glyph glyph-name="Odieresis" unicode="&#xd6;" horiz-adv-x="743" 
d="M372 713q55 0 107.5 -19t100 -59.5t76.5 -114t29 -171.5q0 -93 -27 -165t-72.5 -113.5t-99.5 -62.5t-114 -21q-55 0 -107.5 19t-100 59.5t-76.5 114t-29 171.5q0 93 27 165t72.5 113.5t99.5 62.5t114 21zM371 659q-108 0 -178.5 -80.5t-70.5 -227.5q0 -149 70 -229.5
t179 -80.5q107 0 178.5 81t71.5 227q0 148 -70.5 229t-179.5 81zM264 857q16 0 28 -11.5t12 -27.5t-12 -27.5t-28 -11.5t-27.5 11.5t-11.5 27.5t11.5 27.5t27.5 11.5zM478 857q16 0 28 -11.5t12 -27.5t-12 -27.5t-28 -11.5t-27.5 11.5t-11.5 27.5t11.5 27.5t27.5 11.5z" />
    <glyph glyph-name="multiply" unicode="&#xd7;" 
d="M446 466l37 -38l-146 -145l146 -145l-37 -38l-146 145l-145 -145l-38 38l146 145l-146 145l38 38l145 -145z" />
    <glyph glyph-name="Oslash" unicode="&#xd8;" horiz-adv-x="743" 
d="M667 759l-81 -131q99 -97 99 -279q0 -93 -27 -165t-72.5 -113.5t-99.5 -62.5t-114 -21q-91 0 -166 47l-76 -124h-55l96 150q-112 96 -112 291q0 93 27 165t72.5 113.5t99.5 62.5t114 21q99 0 178 -55l64 101h53zM122 351q0 -159 82 -241l316 498q-64 50 -149 50
q-108 0 -178.5 -80t-70.5 -227zM371 42q107 0 178.5 80.5t71.5 226.5q0 147 -71 229l-314 -496q58 -40 135 -40z" />
    <glyph glyph-name="Ugrave" unicode="&#xd9;" horiz-adv-x="657" 
d="M581 700v-456q0 -49 -13.5 -93t-41.5 -81.5t-79 -60t-119 -22.5q-70 0 -121 22.5t-78 61t-39.5 81.5t-12.5 92v456h61v-454q0 -95 47.5 -150t143.5 -55q94 0 142.5 55.5t48.5 149.5v454h61zM267 883l97 -130h-52l-127 130h82z" />
    <glyph glyph-name="Uacute" unicode="&#xda;" horiz-adv-x="657" 
d="M581 700v-456q0 -49 -13.5 -93t-41.5 -81.5t-79 -60t-119 -22.5q-70 0 -121 22.5t-78 61t-39.5 81.5t-12.5 92v456h61v-454q0 -95 47.5 -150t143.5 -55q94 0 142.5 55.5t48.5 149.5v454h61zM474 883l-126 -130h-53l97 130h82z" />
    <glyph glyph-name="Ucircumflex" unicode="&#xdb;" horiz-adv-x="657" 
d="M581 700v-456q0 -49 -13.5 -93t-41.5 -81.5t-79 -60t-119 -22.5q-70 0 -121 22.5t-78 61t-39.5 81.5t-12.5 92v456h61v-454q0 -95 47.5 -150t143.5 -55q94 0 142.5 55.5t48.5 149.5v454h61zM358 888l131 -125h-57l-104 87l-103 -87h-58l132 125h59z" />
    <glyph glyph-name="Udieresis" unicode="&#xdc;" horiz-adv-x="657" 
d="M581 700v-456q0 -49 -13.5 -93t-41.5 -81.5t-79 -60t-119 -22.5q-70 0 -121 22.5t-78 61t-39.5 81.5t-12.5 92v456h61v-454q0 -95 47.5 -150t143.5 -55q94 0 142.5 55.5t48.5 149.5v454h61zM221 857q16 0 28 -11.5t12 -27.5t-12 -27.5t-28 -11.5t-27.5 11.5t-11.5 27.5
t11.5 27.5t27.5 11.5zM435 857q16 0 28 -11.5t12 -27.5t-12 -27.5t-28 -11.5t-27.5 11.5t-11.5 27.5t11.5 27.5t27.5 11.5z" />
    <glyph glyph-name="Yacute" unicode="&#xdd;" horiz-adv-x="591" 
d="M571 700l-242 -412v-288h-61v287l-247 413h69l209 -356l205 356h67zM443 883l-126 -130h-53l97 130h82z" />
    <glyph glyph-name="Thorn" unicode="&#xde;" horiz-adv-x="608" 
d="M150 700v-126h167q125 0 186.5 -61t61.5 -154q0 -99 -62.5 -160.5t-182.5 -61.5h-170v-137h-61v700h61zM323 520h-173v-330h174q83 0 129.5 43.5t46.5 125.5q0 72 -45 116.5t-132 44.5z" />
    <glyph glyph-name="germandbls" unicode="&#xdf;" horiz-adv-x="582" 
d="M277 710q89 0 134 -41t45 -102q0 -34 -16.5 -62t-36 -43t-36 -33.5t-16.5 -34.5q0 -17 15 -30.5t37 -22t48.5 -22.5t48.5 -31.5t37 -50.5t15 -76q0 -71 -48.5 -121t-142.5 -50q-97 0 -161 58l33 38q51 -45 126 -45q64 0 98 33t34 87q0 41 -20.5 68.5t-49.5 42.5
t-58.5 28.5t-50 35t-20.5 53.5q0 25 16.5 47.5t36 37t36 39t16.5 52.5q0 44 -32 70t-88 26q-68 0 -100.5 -39t-32.5 -106v-516h-60v516q0 86 49 140t144 54z" />
    <glyph glyph-name="agrave" unicode="&#xe0;" horiz-adv-x="544" 
d="M272 529q108 0 150.5 -43t42.5 -128v-216q0 -95 17 -142h-62q-12 38 -14 79q-24 -39 -72 -64t-113 -25q-83 0 -127.5 41.5t-44.5 108.5q0 72 50.5 114t162.5 57l143 19v23q0 70 -27 99.5t-107 29.5q-140 0 -143 -114h-59q2 76 54 118.5t149 42.5zM405 284l-126 -17
q-89 -12 -128.5 -41t-39.5 -83q0 -46 29.5 -74t91.5 -28q75 0 124 41t49 101v101zM211 726l97 -132h-52l-124 132h79z" />
    <glyph glyph-name="aacute" unicode="&#xe1;" horiz-adv-x="544" 
d="M272 529q108 0 150.5 -43t42.5 -128v-216q0 -95 17 -142h-62q-12 38 -14 79q-24 -39 -72 -64t-113 -25q-83 0 -127.5 41.5t-44.5 108.5q0 72 50.5 114t162.5 57l143 19v23q0 70 -27 99.5t-107 29.5q-140 0 -143 -114h-59q2 76 54 118.5t149 42.5zM405 284l-126 -17
q-89 -12 -128.5 -41t-39.5 -83q0 -46 29.5 -74t91.5 -28q75 0 124 41t49 101v101zM415 726l-123 -132h-53l97 132h79z" />
    <glyph glyph-name="acircumflex" unicode="&#xe2;" horiz-adv-x="544" 
d="M272 529q108 0 150.5 -43t42.5 -128v-216q0 -95 17 -142h-62q-12 38 -14 79q-24 -39 -72 -64t-113 -25q-83 0 -127.5 41.5t-44.5 108.5q0 72 50.5 114t162.5 57l143 19v23q0 70 -27 99.5t-107 29.5q-140 0 -143 -114h-59q2 76 54 118.5t149 42.5zM405 284l-126 -17
q-89 -12 -128.5 -41t-39.5 -83q0 -46 29.5 -74t91.5 -28q75 0 124 41t49 101v101zM304 728l131 -128h-57l-104 89l-103 -89h-58l132 128h59z" />
    <glyph glyph-name="atilde" unicode="&#xe3;" horiz-adv-x="544" 
d="M272 529q108 0 150.5 -43t42.5 -128v-216q0 -95 17 -142h-62q-12 38 -14 79q-24 -39 -72 -64t-113 -25q-83 0 -127.5 41.5t-44.5 108.5q0 72 50.5 114t162.5 57l143 19v23q0 70 -27 99.5t-107 29.5q-140 0 -143 -114h-59q2 76 54 118.5t149 42.5zM405 284l-126 -17
q-89 -12 -128.5 -41t-39.5 -83q0 -46 29.5 -74t91.5 -28q75 0 124 41t49 101v101zM212 706q38 0 72 -27t54 -27q35 0 54 47h39q-9 -40 -34 -65t-62 -25q-30 0 -52 13.5t-39 27t-35 13.5q-36 0 -55 -47h-38q9 41 33.5 65.5t62.5 24.5z" />
    <glyph glyph-name="adieresis" unicode="&#xe4;" horiz-adv-x="544" 
d="M272 529q108 0 150.5 -43t42.5 -128v-216q0 -95 17 -142h-62q-12 38 -14 79q-24 -39 -72 -64t-113 -25q-83 0 -127.5 41.5t-44.5 108.5q0 72 50.5 114t162.5 57l143 19v23q0 70 -27 99.5t-107 29.5q-140 0 -143 -114h-59q2 76 54 118.5t149 42.5zM405 284l-126 -17
q-89 -12 -128.5 -41t-39.5 -83q0 -46 29.5 -74t91.5 -28q75 0 124 41t49 101v101zM167 698q16 0 28 -11.5t12 -27.5t-12 -27.5t-28 -11.5t-27.5 11.5t-11.5 27.5t11.5 27.5t27.5 11.5zM381 698q16 0 28 -11.5t12 -27.5t-12 -27.5t-28 -11.5t-27.5 11.5t-11.5 27.5t11.5 27.5
t27.5 11.5z" />
    <glyph glyph-name="aring" unicode="&#xe5;" horiz-adv-x="544" 
d="M272 529q108 0 150.5 -43t42.5 -128v-216q0 -95 17 -142h-62q-12 38 -14 79q-24 -39 -72 -64t-113 -25q-83 0 -127.5 41.5t-44.5 108.5q0 72 50.5 114t162.5 57l143 19v23q0 70 -27 99.5t-107 29.5q-140 0 -143 -114h-59q2 76 54 118.5t149 42.5zM405 284l-126 -17
q-89 -12 -128.5 -41t-39.5 -83q0 -46 29.5 -74t91.5 -28q75 0 124 41t49 101v101zM274 810q47 0 81.5 -32.5t34.5 -80.5t-34.5 -79.5t-81.5 -31.5q-48 0 -82.5 31.5t-34.5 79.5t34.5 80.5t82.5 32.5zM274 773q-31 0 -53 -21t-22 -55q0 -33 22 -53.5t53 -20.5t52.5 20.5
t21.5 53.5t-22 54.5t-52 21.5z" />
    <glyph glyph-name="ae" unicode="&#xe6;" horiz-adv-x="909" 
d="M632 529q107 0 167.5 -76t60.5 -190v-15h-402q2 -95 49.5 -152t133.5 -57q103 0 161 88l50 -26q-74 -112 -212 -112q-74 0 -126.5 33t-80.5 90q-50 -122 -207 -122q-86 0 -131.5 41.5t-45.5 108.5q0 147 213 173l144 18q3 22 12 49q-12 52 -41 77t-105 25
q-141 0 -144 -114h-59q2 77 53.5 119t150.5 42q48 0 81.5 -8.5t52 -25t27.5 -31t16 -35.5q21 39 69.5 69.5t112.5 30.5zM631 480q-79 0 -124 -52t-49 -134h340q-4 83 -47.5 134.5t-119.5 51.5zM402 284l-123 -15q-88 -11 -128 -41t-40 -85q0 -46 30.5 -74t92.5 -28
q72 0 121.5 37.5t55.5 89.5q-10 40 -10 85q0 21 1 31z" />
    <glyph glyph-name="ccedilla" unicode="&#xe7;" horiz-adv-x="552" 
d="M296 529q73 0 127.5 -34.5t80.5 -91.5l-53 -22q-44 97 -152 97q-84 0 -133.5 -60t-49.5 -159q0 -97 48 -157.5t132 -60.5q66 0 104 31.5t61 86.5l53 -23q-58 -138 -206 -145l-1 -44q52 -4 80 -25.5t28 -55.5q0 -42 -32.5 -66t-85.5 -24q-61 0 -102 25l19 33
q31 -20 77 -20q74 0 74 52q0 51 -107 51l11 74q-101 9 -158 83t-57 184q0 119 65.5 195t176.5 76z" />
    <glyph glyph-name="egrave" unicode="&#xe8;" horiz-adv-x="567" 
d="M290 529q107 0 167.5 -76t60.5 -190v-15h-402q1 -95 49.5 -152t134.5 -57q104 0 161 89l50 -27q-74 -112 -213 -112q-114 0 -179 77.5t-65 195.5q0 116 62 191.5t174 75.5zM289 480q-79 0 -124 -51.5t-49 -132.5h340q-4 82 -47.5 133t-119.5 51zM223 725l97 -132h-52
l-124 132h79z" />
    <glyph glyph-name="eacute" unicode="&#xe9;" horiz-adv-x="567" 
d="M290 529q107 0 167.5 -76t60.5 -190v-15h-402q1 -95 49.5 -152t134.5 -57q104 0 161 89l50 -27q-74 -112 -213 -112q-114 0 -179 77.5t-65 195.5q0 116 62 191.5t174 75.5zM289 480q-79 0 -124 -51.5t-49 -132.5h340q-4 82 -47.5 133t-119.5 51zM427 725l-123 -132h-53
l97 132h79z" />
    <glyph glyph-name="ecircumflex" unicode="&#xea;" horiz-adv-x="567" 
d="M290 529q107 0 167.5 -76t60.5 -190v-15h-402q1 -95 49.5 -152t134.5 -57q104 0 161 89l50 -27q-74 -112 -213 -112q-114 0 -179 77.5t-65 195.5q0 116 62 191.5t174 75.5zM289 480q-79 0 -124 -51.5t-49 -132.5h340q-4 82 -47.5 133t-119.5 51zM316 727l131 -128h-57
l-104 89l-103 -89h-58l132 128h59z" />
    <glyph glyph-name="edieresis" unicode="&#xeb;" horiz-adv-x="567" 
d="M290 529q107 0 167.5 -76t60.5 -190v-15h-402q1 -95 49.5 -152t134.5 -57q104 0 161 89l50 -27q-74 -112 -213 -112q-114 0 -179 77.5t-65 195.5q0 116 62 191.5t174 75.5zM289 480q-79 0 -124 -51.5t-49 -132.5h340q-4 82 -47.5 133t-119.5 51zM179 697q16 0 28 -11.5
t12 -27.5t-12 -27.5t-28 -11.5t-27.5 11.5t-11.5 27.5t11.5 27.5t27.5 11.5zM393 697q16 0 28 -11.5t12 -27.5t-12 -27.5t-28 -11.5t-27.5 11.5t-11.5 27.5t11.5 27.5t27.5 11.5z" />
    <glyph glyph-name="igrave" unicode="&#xec;" horiz-adv-x="227" 
d="M144 520v-520h-60v520h60zM51 726l97 -132h-52l-124 132h79z" />
    <glyph glyph-name="iacute" unicode="&#xed;" horiz-adv-x="227" 
d="M144 520v-520h-60v520h60zM255 726l-123 -132h-53l97 132h79z" />
    <glyph glyph-name="icircumflex" unicode="&#xee;" horiz-adv-x="227" 
d="M144 520v-520h-60v520h60zM144 728l131 -128h-57l-104 89l-103 -89h-58l132 128h59z" />
    <glyph glyph-name="idieresis" unicode="&#xef;" horiz-adv-x="227" 
d="M144 520v-520h-60v520h60zM7 698q16 0 28 -11.5t12 -27.5t-12 -27.5t-28 -11.5t-27.5 11.5t-11.5 27.5t11.5 27.5t27.5 11.5zM221 698q16 0 28 -11.5t12 -27.5t-12 -27.5t-28 -11.5t-27.5 11.5t-11.5 27.5t11.5 27.5t27.5 11.5z" />
    <glyph glyph-name="eth" unicode="&#xf0;" horiz-adv-x="575" 
d="M400 753l-56 -88q177 -85 177 -384q0 -142 -64 -218t-170 -76t-169.5 65.5t-63.5 171.5t62.5 169.5t159.5 63.5q70 0 119 -32t69 -85q-13 213 -147 283l-52 -82h-51l63 98q-54 19 -135 24l10 45q86 -5 152 -27l46 72h50zM286 38q78 0 123 54t45 143q0 76 -45.5 123.5
t-123.5 47.5q-80 0 -125.5 -50t-45.5 -132q0 -86 47 -136t125 -50z" />
    <glyph glyph-name="ntilde" unicode="&#xf1;" horiz-adv-x="570" 
d="M316 529q87 0 131.5 -51t44.5 -146v-332h-60v312q0 82 -29.5 124t-98.5 42q-68 0 -114 -51t-46 -142v-285h-60v520h60v-98q24 52 69.5 79.5t102.5 27.5zM244 705q38 0 72 -27t54 -27q35 0 54 47h39q-9 -40 -34 -65t-62 -25q-30 0 -52 13.5t-39 27t-35 13.5q-36 0 -55 -47
h-38q9 41 33.5 65.5t62.5 24.5z" />
    <glyph glyph-name="ograve" unicode="&#xf2;" horiz-adv-x="595" 
d="M298 529q110 0 177 -77.5t67 -192.5q0 -120 -64.5 -195t-179.5 -75q-113 0 -178.5 76t-65.5 194t66 194t178 76zM297 478q-83 0 -132 -60t-49 -158q0 -100 48 -160t133 -60q86 0 134 59.5t48 160.5q0 97 -49 157.5t-133 60.5zM234 726l97 -132h-52l-124 132h79z" />
    <glyph glyph-name="oacute" unicode="&#xf3;" horiz-adv-x="595" 
d="M298 529q110 0 177 -77.5t67 -192.5q0 -120 -64.5 -195t-179.5 -75q-113 0 -178.5 76t-65.5 194t66 194t178 76zM297 478q-83 0 -132 -60t-49 -158q0 -100 48 -160t133 -60q86 0 134 59.5t48 160.5q0 97 -49 157.5t-133 60.5zM438 726l-123 -132h-53l97 132h79z" />
    <glyph glyph-name="ocircumflex" unicode="&#xf4;" horiz-adv-x="595" 
d="M298 529q110 0 177 -77.5t67 -192.5q0 -120 -64.5 -195t-179.5 -75q-113 0 -178.5 76t-65.5 194t66 194t178 76zM297 478q-83 0 -132 -60t-49 -158q0 -100 48 -160t133 -60q86 0 134 59.5t48 160.5q0 97 -49 157.5t-133 60.5zM327 728l131 -128h-57l-104 89l-103 -89h-58
l132 128h59z" />
    <glyph glyph-name="otilde" unicode="&#xf5;" horiz-adv-x="595" 
d="M298 529q110 0 177 -77.5t67 -192.5q0 -120 -64.5 -195t-179.5 -75q-113 0 -178.5 76t-65.5 194t66 194t178 76zM297 478q-83 0 -132 -60t-49 -158q0 -100 48 -160t133 -60q86 0 134 59.5t48 160.5q0 97 -49 157.5t-133 60.5zM235 706q29 0 51 -13.5t39.5 -27t35.5 -13.5
q35 0 54 47h39q-9 -40 -34 -65t-62 -25q-30 0 -52 13.5t-39 27t-35 13.5q-36 0 -55 -47h-38q9 41 33.5 65.5t62.5 24.5z" />
    <glyph glyph-name="odieresis" unicode="&#xf6;" horiz-adv-x="595" 
d="M298 529q110 0 177 -77.5t67 -192.5q0 -120 -64.5 -195t-179.5 -75q-113 0 -178.5 76t-65.5 194t66 194t178 76zM297 478q-83 0 -132 -60t-49 -158q0 -100 48 -160t133 -60q86 0 134 59.5t48 160.5q0 97 -49 157.5t-133 60.5zM190 698q16 0 28 -11.5t12 -27.5t-12 -27.5
t-28 -11.5t-27.5 11.5t-11.5 27.5t11.5 27.5t27.5 11.5zM404 698q16 0 28 -11.5t12 -27.5t-12 -27.5t-28 -11.5t-27.5 11.5t-11.5 27.5t11.5 27.5t27.5 11.5z" />
    <glyph glyph-name="divide" unicode="&#xf7;" 
d="M300 527q18 0 31.5 -13t13.5 -31q0 -19 -13.5 -32t-31.5 -13t-31.5 13t-13.5 32q0 18 13.5 31t31.5 13zM492 319v-54h-383v54h383zM300 145q18 0 31.5 -13t13.5 -31q0 -19 -13.5 -32t-31.5 -13t-31.5 13t-13.5 32q0 18 13.5 31t31.5 13z" />
    <glyph glyph-name="oslash" unicode="&#xf8;" horiz-adv-x="595" 
d="M531 590l-72 -122q83 -77 83 -209q0 -120 -64.5 -195t-179.5 -75q-66 0 -117 28l-62 -102h-55l79 127q-89 75 -89 217q0 118 66 194t178 76q69 0 123 -34l58 95h52zM297 478q-83 0 -132 -60t-49 -158q0 -109 58 -169l220 358q-42 29 -97 29zM426 420l-220 -356
q40 -24 91 -24q86 0 134 59.5t48 160.5t-53 160z" />
    <glyph glyph-name="ugrave" unicode="&#xf9;" horiz-adv-x="567" 
d="M484 520v-520h-60v92q-24 -47 -68.5 -74.5t-102.5 -27.5q-84 0 -129 47.5t-45 137.5v345h60v-332q0 -74 30 -109.5t96 -35.5q69 0 114 48t45 139v290h60zM217 725l97 -132h-52l-124 132h79z" />
    <glyph glyph-name="uacute" unicode="&#xfa;" horiz-adv-x="567" 
d="M484 520v-520h-60v92q-24 -47 -68.5 -74.5t-102.5 -27.5q-84 0 -129 47.5t-45 137.5v345h60v-332q0 -74 30 -109.5t96 -35.5q69 0 114 48t45 139v290h60zM421 725l-123 -132h-53l97 132h79z" />
    <glyph glyph-name="ucircumflex" unicode="&#xfb;" horiz-adv-x="567" 
d="M484 520v-520h-60v92q-24 -47 -68.5 -74.5t-102.5 -27.5q-84 0 -129 47.5t-45 137.5v345h60v-332q0 -74 30 -109.5t96 -35.5q69 0 114 48t45 139v290h60zM310 727l131 -128h-57l-104 89l-103 -89h-58l132 128h59z" />
    <glyph glyph-name="udieresis" unicode="&#xfc;" horiz-adv-x="567" 
d="M484 520v-520h-60v92q-24 -47 -68.5 -74.5t-102.5 -27.5q-84 0 -129 47.5t-45 137.5v345h60v-332q0 -74 30 -109.5t96 -35.5q69 0 114 48t45 139v290h60zM173 697q16 0 28 -11.5t12 -27.5t-12 -27.5t-28 -11.5t-27.5 11.5t-11.5 27.5t11.5 27.5t27.5 11.5zM387 697
q16 0 28 -11.5t12 -27.5t-12 -27.5t-28 -11.5t-27.5 11.5t-11.5 27.5t11.5 27.5t27.5 11.5z" />
    <glyph glyph-name="yacute" unicode="&#xfd;" horiz-adv-x="486" 
d="M466 520l-179 -540q-25 -76 -61.5 -116t-107.5 -40q-29 0 -56 5v49q23 -4 45 -4q54 0 79.5 30.5t45.5 95.5h-19l-192 520h66l166 -472l150 472h63zM384 725l-123 -132h-53l97 132h79z" />
    <glyph glyph-name="thorn" unicode="&#xfe;" horiz-adv-x="599" 
d="M144 700v-280q24 47 70.5 78t107.5 31q104 0 163.5 -73.5t59.5 -193.5q0 -118 -60.5 -195t-162.5 -77q-132 0 -178 104v-254h-60v860h60zM311 478q-76 0 -123 -59t-47 -163q0 -106 47 -160.5t122 -54.5q79 0 126 59.5t47 160.5t-44 159t-128 58z" />
    <glyph glyph-name="ydieresis" unicode="&#xff;" horiz-adv-x="486" 
d="M466 520l-179 -540q-25 -76 -61.5 -116t-107.5 -40q-29 0 -56 5v49q23 -4 45 -4q54 0 79.5 30.5t45.5 95.5h-19l-192 520h66l166 -472l150 472h63zM136 697q16 0 28 -11.5t12 -27.5t-12 -27.5t-28 -11.5t-27.5 11.5t-11.5 27.5t11.5 27.5t27.5 11.5zM350 697
q16 0 28 -11.5t12 -27.5t-12 -27.5t-28 -11.5t-27.5 11.5t-11.5 27.5t11.5 27.5t27.5 11.5z" />
    <glyph glyph-name="dotlessi" unicode="&#x131;" horiz-adv-x="227" 
d="M144 520v-520h-60v520h60z" />
    <glyph glyph-name="IJ" unicode="&#x132;" horiz-adv-x="744" 
d="M307 700v-53h-104v-594h104v-53h-269v53h104v594h-104v53h269zM667 700v-513q0 -94 -40.5 -143t-138.5 -49q-42 0 -101 7v55q50 -6 74 -6q83 0 114 32.5t31 109.5v507h61z" />
    <glyph glyph-name="ij" unicode="&#x133;" horiz-adv-x="468" 
d="M385 520v-550q0 -74 -40 -109t-98 -35q-21 0 -49 4v48q22 -2 28 -2q51 0 75 24.5t24 88.5v531h60zM355 712q17 0 29 -12t12 -29q0 -16 -12 -28t-29 -12t-29 12t-12 28q0 17 12 29t29 12zM144 520v-520h-60v520h60zM114 712q16 0 28.5 -12t12.5 -29q0 -16 -12 -28t-29 -12
t-29 12t-12 28q0 17 12.5 29t28.5 12z" />
    <glyph glyph-name="Lslash" unicode="&#x141;" horiz-adv-x="549" 
d="M173 55h338v-55h-399v314l-85 -46v50l85 46v336h61v-303l198 108v-51l-198 -107v-292z" />
    <glyph glyph-name="lslash" unicode="&#x142;" horiz-adv-x="278" 
d="M245 379l-97 -54v-198q0 -45 12 -63t49 -18q13 0 35 3v-49q-30 -5 -53 -5q-103 0 -103 122v175l-64 -35v50l64 36v357h60v-324l97 54v-51z" />
    <glyph glyph-name="OE" unicode="&#x152;" horiz-adv-x="940" 
d="M369 713q52 0 111 -13h393v-54h-333v-262h312v-54h-312v-276h342v-54h-401q-51 -13 -112 -13q-43 0 -84.5 11t-83 38.5t-72.5 68t-50.5 104t-19.5 142.5q0 93 27 165t72 113.5t98.5 62.5t112.5 21zM369 659q-107 0 -177 -81t-70 -227q0 -148 70 -229t177 -81q62 0 109 17
v585q-51 16 -109 16z" />
    <glyph glyph-name="oe" unicode="&#x153;" horiz-adv-x="976" 
d="M704 529q104 0 163.5 -76.5t59.5 -189.5v-15h-394q2 -95 49 -152t131 -57q103 0 156 88l51 -26q-71 -112 -209 -112q-81 0 -136 44.5t-76 113.5q-20 -69 -74 -113.5t-133 -44.5q-110 0 -174 76t-64 194t64.5 194t173.5 76q79 0 134 -45.5t75 -116.5q18 71 71.5 116.5
t131.5 45.5zM700 480q-75 0 -118 -52t-48 -134h330q-5 83 -47.5 134.5t-116.5 51.5zM292 478q-81 0 -128.5 -60t-47.5 -158q0 -99 46.5 -159.5t129.5 -60.5q84 0 131 60t47 160q0 97 -49 157.5t-129 60.5z" />
    <glyph glyph-name="Scaron" unicode="&#x160;" horiz-adv-x="620" 
d="M309 -13q-82 0 -157.5 29.5t-122.5 89.5l44 38q86 -103 237 -103q91 0 144 40t53 105t-44 101t-167 56q-116 19 -173.5 63t-57.5 123q0 82 65.5 133t174.5 51q172 0 260 -121l-47 -34q-74 101 -213 101q-83 0 -130.5 -35t-47.5 -93t45 -88t163 -50q126 -21 181 -70
t55 -134q0 -90 -67.5 -146t-194.5 -56zM471 893l-131 -126h-59l-132 126h58l103 -87l104 87h57z" />
    <glyph glyph-name="scaron" unicode="&#x161;" horiz-adv-x="513" 
d="M253 529q124 0 200 -70l-37 -36q-65 57 -163 57q-63 0 -98 -24t-35 -63q0 -41 33 -61.5t120 -34.5q103 -17 150 -50.5t47 -104.5q0 -66 -57 -109t-160 -43q-146 0 -227 86l39 38q70 -73 187 -73q76 0 116 27.5t40 71.5q0 47 -35.5 70t-131.5 38q-94 14 -137.5 49
t-43.5 94q0 62 52.5 100t140.5 38zM414 735l-131 -128h-59l-132 128h58l103 -89l104 89h57z" />
    <glyph glyph-name="Ydieresis" unicode="&#x178;" horiz-adv-x="591" 
d="M571 700l-242 -412v-288h-61v287l-247 413h69l209 -356l205 356h67zM190 857q16 0 28 -11.5t12 -27.5t-12 -27.5t-28 -11.5t-27.5 11.5t-11.5 27.5t11.5 27.5t27.5 11.5zM404 857q16 0 28 -11.5t12 -27.5t-12 -27.5t-28 -11.5t-27.5 11.5t-11.5 27.5t11.5 27.5t27.5 11.5
z" />
    <glyph glyph-name="Zcaron" unicode="&#x17d;" horiz-adv-x="593" 
d="M542 700v-52l-427 -593h434v-55h-513v49l429 597h-399v54h476zM455 893l-131 -126h-59l-132 126h58l103 -87l104 87h57z" />
    <glyph glyph-name="zcaron" unicode="&#x17e;" horiz-adv-x="465" 
d="M426 520v-48l-320 -420h323v-52h-398v46l321 423h-290v51h364zM394 736l-131 -128h-59l-132 128h58l103 -89l104 89h57z" />
    <glyph glyph-name="longs" unicode="&#x17f;" horiz-adv-x="332" 
d="M247 710q44 0 84 -16v-46q-44 14 -77 14q-52 0 -73.5 -23t-21.5 -70v-569h-60v474h-75v46h75v57q0 58 34.5 95.5t113.5 37.5z" />
    <glyph glyph-name="florin" unicode="&#x192;" horiz-adv-x="308" 
d="M247 710q52 0 99 -18v-48q-46 18 -92 18q-52 0 -73.5 -23t-21.5 -70v-49h162v-46h-162v-504q0 -74 -40 -109t-98 -35q-21 0 -49 4v48q22 -2 28 -2q51 0 75 24.5t24 88.5v485h-75v46h75v57q0 58 34 95.5t114 37.5z" />
    <glyph glyph-name="uni02BB" unicode="&#x2bb;" horiz-adv-x="254" 
d="M119 552q-18 0 -30.5 12.5t-12.5 31.5q0 36 20.5 84.5t53.5 89.5l30 -14q-33 -58 -41 -126q23 -13 23 -36q0 -17 -12.5 -29.5t-30.5 -12.5z" />
    <glyph glyph-name="uni02BC" unicode="&#x2bc;" horiz-adv-x="253" 
d="M123 736q18 0 30.5 -12.5t12.5 -31.5q0 -36 -20.5 -84.5t-53.5 -89.5l-30 14q33 58 41 126q-23 13 -23 36q0 17 12.5 29.5t30.5 12.5z" />
    <glyph glyph-name="circumflex" unicode="&#x2c6;" horiz-adv-x="382" 
d="M221 727l131 -128h-57l-104 89l-103 -89h-58l132 128h59z" />
    <glyph glyph-name="caron" unicode="&#x2c7;" horiz-adv-x="382" 
d="M352 735l-131 -128h-59l-132 128h58l103 -89l104 89h57z" />
    <glyph glyph-name="breve" unicode="&#x2d8;" horiz-adv-x="348" 
d="M279 724h39q-6 -55 -43.5 -91.5t-100.5 -36.5t-100.5 36.5t-43.5 91.5h38q6 -37 35 -61t71 -24t71 24.5t34 60.5z" />
    <glyph glyph-name="dotaccent" unicode="&#x2d9;" horiz-adv-x="142" 
d="M71 711q17 0 29 -12.5t12 -28.5t-12 -28t-29 -12t-29 12t-12 28t12 28.5t29 12.5z" />
    <glyph glyph-name="ring" unicode="&#x2da;" horiz-adv-x="293" 
d="M147 810q47 0 81.5 -32.5t34.5 -80.5t-34.5 -79.5t-81.5 -31.5q-48 0 -82.5 31.5t-34.5 79.5t34.5 80.5t82.5 32.5zM147 773q-31 0 -53 -21t-22 -55q0 -33 22 -53.5t53 -20.5t52.5 20.5t21.5 53.5t-22 54.5t-52 21.5z" />
    <glyph glyph-name="ogonek" unicode="&#x2db;" horiz-adv-x="269" 
d="M182 15l8 -15q-111 -47 -111 -121q0 -60 75 -60q38 0 71 13l14 -35q-44 -18 -92 -18q-56 0 -87.5 24t-31.5 71q0 46 42 83.5t112 57.5z" />
    <glyph glyph-name="tilde" unicode="&#x2dc;" horiz-adv-x="375" 
d="M126 706q29 0 51 -13.5t39.5 -27t35.5 -13.5q35 0 54 47h39q-9 -40 -34 -65t-62 -25q-30 0 -52 13.5t-39 27t-35 13.5q-36 0 -55 -47h-38q9 41 33.5 65.5t62.5 24.5z" />
    <glyph glyph-name="hungarumlaut" unicode="&#x2dd;" horiz-adv-x="380" 
d="M186 729l-109 -136h-47l81 136h75zM349 729l-112 -136h-47l84 136h75z" />
    <glyph glyph-name="gravecomb" unicode="&#x300;" horiz-adv-x="1" 
d="M-127 725l97 -132h-52l-124 132h79z" />
    <glyph glyph-name="acutecomb" unicode="&#x301;" horiz-adv-x="1" 
d="M-30 725l-123 -132h-53l97 132h79z" />
    <glyph glyph-name="uni0302" unicode="&#x302;" horiz-adv-x="1" 
d="M-161 727l131 -128h-57l-104 89l-103 -89h-58l132 128h59z" />
    <glyph glyph-name="tildecomb" unicode="&#x303;" horiz-adv-x="1" 
d="M-249 706q29 0 51 -13.5t39.5 -27t35.5 -13.5q35 0 54 47h39q-9 -40 -34 -65t-62 -25q-30 0 -52 13.5t-39 27t-35 13.5q-36 0 -55 -47h-38q9 41 33.5 65.5t62.5 24.5z" />
    <glyph glyph-name="uni0304" unicode="&#x304;" horiz-adv-x="1" 
d="M-30 679v-45h-301v45h301z" />
    <glyph glyph-name="uni0306" unicode="&#x306;" horiz-adv-x="1" 
d="M-69 724h39q-6 -55 -43.5 -91.5t-100.5 -36.5t-100.5 36.5t-43.5 91.5h38q6 -37 35 -61t71 -24t71 24.5t34 60.5z" />
    <glyph glyph-name="uni0307" unicode="&#x307;" horiz-adv-x="1" 
d="M-71 711q17 0 29 -12.5t12 -28.5t-12 -28t-29 -12t-29 12t-12 28t12 28.5t29 12.5z" />
    <glyph glyph-name="uni0308" unicode="&#x308;" horiz-adv-x="1" 
d="M-284 697q16 0 28 -11.5t12 -27.5t-12 -27.5t-28 -11.5t-27.5 11.5t-11.5 27.5t11.5 27.5t27.5 11.5zM-70 697q16 0 28 -11.5t12 -27.5t-12 -27.5t-28 -11.5t-27.5 11.5t-11.5 27.5t11.5 27.5t27.5 11.5z" />
    <glyph glyph-name="uni030A" unicode="&#x30a;" horiz-adv-x="1" 
d="M-146 810q47 0 81.5 -32.5t34.5 -80.5t-34.5 -79.5t-81.5 -31.5q-48 0 -82.5 31.5t-34.5 79.5t34.5 80.5t82.5 32.5zM-146 773q-31 0 -53 -21t-22 -55q0 -33 22 -53.5t53 -20.5t52.5 20.5t21.5 53.5t-22 54.5t-52 21.5z" />
    <glyph glyph-name="uni030B" unicode="&#x30b;" horiz-adv-x="1" 
d="M-194 729l-109 -136h-47l81 136h75zM-31 729l-112 -136h-47l84 136h75z" />
    <glyph glyph-name="uni030C" unicode="&#x30c;" horiz-adv-x="1" 
d="M-30 735l-131 -128h-59l-132 128h58l103 -89l104 89h57z" />
    <glyph glyph-name="uni0326" unicode="&#x326;" horiz-adv-x="1" 
d="M-88 -81q16 0 26.5 -10.5t10.5 -27.5q0 -63 -58 -143l-29 11q29 53 33 102q-20 13 -20 32q0 15 11 25.5t26 10.5z" />
    <glyph glyph-name="uni0327" unicode="&#x327;" horiz-adv-x="1" 
d="M-135 3l-1 -56q52 -4 80 -25.5t28 -55.5q0 -42 -32.5 -66t-85.5 -24q-61 0 -102 25l19 33q31 -20 77 -20q74 0 74 52q0 51 -107 51l13 86h37z" />
    <glyph glyph-name="uni0328" unicode="&#x328;" horiz-adv-x="1" 
d="M-87 15l8 -15q-111 -47 -111 -121q0 -60 75 -60q38 0 71 13l14 -35q-43 -18 -92 -18q-56 0 -87.5 24t-31.5 71q0 46 42 83.5t112 57.5z" />
    <glyph glyph-name="uni0394" unicode="&#x394;" horiz-adv-x="606" 
d="M344 700l244 -700h-569l245 700h80zM101 53h401l-200 592z" />
    <glyph glyph-name="uni03A9" unicode="&#x3a9;" horiz-adv-x="743" 
d="M372 713q45 0 88 -11.5t84.5 -38.5t72 -67.5t49.5 -103t19 -139.5q0 -229 -158 -298h151v-55h-230v55q78 23 125.5 100.5t47.5 196.5q0 146 -68.5 225.5t-180.5 79.5q-110 0 -180 -78t-70 -224q0 -121 47.5 -199t125.5 -101v-55h-230v55h152q-158 68 -158 299
q0 93 27 164t72.5 112.5t99.5 62t114 20.5z" />
    <glyph glyph-name="uni03BC" unicode="&#x3bc;" horiz-adv-x="572" 
d="M489 520v-520h-60v120q-15 -65 -56 -98.5t-101 -33.5q-102 0 -128 88v-236h-60v680h60v-332q0 -146 128 -146q68 0 112.5 48.5t44.5 139.5v290h60z" />
    <glyph glyph-name="pi" unicode="&#x3c0;" horiz-adv-x="640" 
d="M585 520v-50h-91v-470h-60v470h-228v-470h-60v470h-90v50h529z" />
    <glyph glyph-name="uni1E9E" unicode="&#x1e9e;" horiz-adv-x="679" 
d="M406 -13q-122 0 -205 63l30 46q72 -55 176 -55q68 0 118 40t50 110q0 71 -43.5 108t-145.5 56v49l155 181q-72 74 -196 74q-97 0 -152 -51t-55 -159v-449h-61v457q0 124 73 190t195 66q160 0 269 -121l-168 -197q91 -22 142 -69t51 -135q0 -92 -66.5 -148t-166.5 -56z
" />
    <glyph glyph-name="uni2007" unicode="&#x2007;" horiz-adv-x="599" 
 />
    <glyph glyph-name="uni2008" unicode="&#x2008;" horiz-adv-x="252" 
 />
    <glyph glyph-name="uni200B" unicode="&#x200b;" horiz-adv-x="0" 
 />
    <glyph glyph-name="figuredash" unicode="&#x2012;" 
d="M556 314v-54h-512v54h512z" />
    <glyph glyph-name="endash" unicode="&#x2013;" horiz-adv-x="516" 
d="M463 332v-54h-411v54h411z" />
    <glyph glyph-name="emdash" unicode="&#x2014;" horiz-adv-x="616" 
d="M563 332v-54h-511v54h511z" />
    <glyph glyph-name="quoteleft" unicode="&#x2018;" horiz-adv-x="254" 
d="M119 552q-18 0 -30.5 12.5t-12.5 31.5q0 36 20.5 84.5t53.5 89.5l30 -14q-33 -58 -41 -126q23 -13 23 -36q0 -17 -12.5 -29.5t-30.5 -12.5z" />
    <glyph glyph-name="quoteright" unicode="&#x2019;" horiz-adv-x="253" 
d="M123 736q18 0 30.5 -12.5t12.5 -31.5q0 -36 -20.5 -84.5t-53.5 -89.5l-30 14q33 58 41 126q-23 13 -23 36q0 17 12.5 29.5t30.5 12.5z" />
    <glyph glyph-name="quotesinglbase" unicode="&#x201a;" horiz-adv-x="253" 
d="M123 77q18 0 30.5 -12.5t12.5 -31.5q0 -36 -20.5 -84.5t-53.5 -89.5l-30 14q33 58 41 126q-23 13 -23 36q0 17 12.5 29.5t30.5 12.5z" />
    <glyph glyph-name="quotedblleft" unicode="&#x201c;" horiz-adv-x="410" 
d="M275 552q-18 0 -30.5 12.5t-12.5 31.5q0 36 20.5 84.5t53.5 89.5l30 -14q-33 -58 -41 -126q23 -13 23 -36q0 -17 -12.5 -29.5t-30.5 -12.5zM119 552q-18 0 -30.5 12.5t-12.5 31.5q0 36 20.5 84.5t53.5 89.5l30 -14q-33 -58 -41 -126q23 -13 23 -36q0 -17 -12.5 -29.5
t-30.5 -12.5z" />
    <glyph glyph-name="quotedblright" unicode="&#x201d;" horiz-adv-x="410" 
d="M123 735q18 0 30.5 -12.5t12.5 -31.5q0 -36 -20.5 -84.5t-53.5 -89.5l-30 14q33 58 41 126q-23 13 -23 36q0 17 12.5 29.5t30.5 12.5zM280 735q18 0 30.5 -12.5t12.5 -31.5q0 -36 -20.5 -84.5t-53.5 -89.5l-30 14q33 58 41 126q-23 13 -23 36q0 17 12.5 29.5t30.5 12.5z
" />
    <glyph glyph-name="quotedblbase" unicode="&#x201e;" horiz-adv-x="410" 
d="M123 77q18 0 30.5 -12.5t12.5 -31.5q0 -36 -20.5 -84.5t-53.5 -89.5l-30 14q33 58 41 126q-23 13 -23 36q0 17 12.5 29.5t30.5 12.5zM280 77q18 0 30.5 -12.5t12.5 -31.5q0 -36 -20.5 -84.5t-53.5 -89.5l-30 14q33 58 41 126q-23 13 -23 36q0 17 12.5 29.5t30.5 12.5z
" />
    <glyph glyph-name="dagger" unicode="&#x2020;" horiz-adv-x="603" 
d="M329 700v-180h172v-51h-172v-629h-57v629h-172v51h172v180h57z" />
    <glyph glyph-name="daggerdbl" unicode="&#x2021;" horiz-adv-x="603" 
d="M329 700v-201h172v-50h-172v-355h172v-50h-172v-204h-57v204h-172v50h172v355h-172v50h172v201h57z" />
    <glyph glyph-name="bullet" unicode="&#x2022;" horiz-adv-x="318" 
d="M159 405q38 0 65.5 -27t27.5 -64q0 -38 -27.5 -65.5t-65.5 -27.5q-37 0 -65 27.5t-28 65.5t28 64.5t65 26.5z" />
    <glyph glyph-name="uni2023" unicode="&#x2023;" horiz-adv-x="341" 
d="M253 305l-166 -83v166z" />
    <glyph glyph-name="ellipsis" unicode="&#x2026;" horiz-adv-x="760" 
d="M122 73q16 0 28 -12t12 -28q0 -17 -12 -29t-28 -12q-17 0 -29 12t-12 29q0 16 12 28t29 12zM380 73q16 0 28 -12t12 -28q0 -17 -12 -29t-28 -12q-17 0 -29 12t-12 29q0 16 12 28t29 12zM639 73q16 0 28 -12t12 -28q0 -17 -12 -29t-28 -12q-17 0 -29 12t-12 29q0 16 12 28
t29 12z" />
    <glyph glyph-name="perthousand" unicode="&#x2030;" horiz-adv-x="1430" 
d="M231 712q78 0 131 -57t53 -168q0 -113 -53 -170.5t-131 -57.5t-131 57.5t-53 170.5q0 111 53 168t131 57zM749 712l-433 -724h-52l433 724h52zM231 669q-60 0 -95.5 -46t-35.5 -136q0 -92 35.5 -138t95.5 -46t95 46t35 138q0 90 -35.5 136t-94.5 46zM784 443
q77 0 130 -57.5t53 -168.5q0 -114 -52.5 -171t-130.5 -57q-79 0 -132 57t-53 171q0 111 53.5 168.5t131.5 57.5zM1200 443q78 0 131 -57.5t53 -168.5q0 -114 -52.5 -171t-131.5 -57q-78 0 -131 57.5t-53 170.5q0 111 53 168.5t131 57.5zM783 399q-60 0 -95.5 -46t-35.5 -135
q0 -92 35.5 -138.5t95.5 -46.5t95 46t35 137t-35.5 137t-94.5 46zM1199 399q-59 0 -94.5 -46t-35.5 -135q0 -92 35.5 -138.5t94.5 -46.5q60 0 95.5 46t35.5 137t-35.5 137t-95.5 46z" />
    <glyph glyph-name="guilsinglleft" unicode="&#x2039;" horiz-adv-x="256" 
d="M174 471l32 -22l-99 -169l99 -174l-32 -21l-123 164v62z" />
    <glyph glyph-name="guilsinglright" unicode="&#x203a;" horiz-adv-x="256" 
d="M82 471l124 -160v-62l-124 -164l-31 21l99 174l-99 169z" />
    <glyph glyph-name="uni203D" unicode="&#x203d;" horiz-adv-x="519" 
d="M263 708q59 0 103.5 -17.5t67.5 -45t33.5 -56t10.5 -57.5q0 -48 -19 -83.5t-46 -57.5t-54 -42t-46 -47.5t-19 -62.5v-43h-57l-11 274v182q-51 -10 -84 -45t-47 -81l-56 17q17 61 75 113t149 52zM291 470l-7 -134q13 19 38.5 43.5t44 42t33 46t14.5 61.5q0 50 -30.5 84.5
t-92.5 41.5v-185zM265 81q18 0 31.5 -13t13.5 -31q0 -19 -13.5 -32t-31.5 -13t-31.5 13t-13.5 32q0 18 13.5 31t31.5 13z" />
    <glyph glyph-name="fraction" unicode="&#x2044;" horiz-adv-x="207" 
d="M345 712l-433 -724h-52l433 724h52z" />
    <glyph glyph-name="uni2070" unicode="&#x2070;" horiz-adv-x="400" 
d="M200 759q77 0 120.5 -55t43.5 -164q0 -108 -43.5 -162.5t-120.5 -54.5t-120.5 54.5t-43.5 162.5q0 109 43.5 164t120.5 55zM200 712q-106 0 -106 -172q0 -170 106 -170q104 0 104 170q0 172 -104 172z" />
    <glyph glyph-name="uni2074" unicode="&#x2074;" horiz-adv-x="400" 
d="M307 750v-280h71v-46h-71v-94h-56v94h-229v48l212 278h73zM251 691l-172 -221h172v221z" />
    <glyph glyph-name="uni2075" unicode="&#x2075;" horiz-adv-x="400" 
d="M340 750l-7 -46h-204l-18 -124q40 43 110 43q60 0 102 -39.5t42 -102.5q0 -70 -46 -114t-124 -44q-65 0 -104.5 28.5t-54.5 68.5l51 17q12 -29 39.5 -48.5t70.5 -19.5q49 0 78.5 31t29.5 78q0 45 -28.5 71.5t-72.5 26.5q-64 0 -102 -48l-50 8l30 214h258z" />
    <glyph glyph-name="uni2076" unicode="&#x2076;" horiz-adv-x="400" 
d="M212 759q96 0 136 -81l-49 -18q-25 54 -87 54q-107 0 -118 -172q15 32 48 51.5t76 19.5q61 0 102 -37.5t41 -102.5q0 -68 -44 -109t-114 -41q-74 0 -119.5 45.5t-45.5 135.5q0 125 46 190t128 65zM204 568q-45 0 -74 -27.5t-29 -69.5q0 -45 28 -74t73 -29q44 0 71.5 28
t27.5 74q0 44 -26.5 71t-70.5 27z" />
    <glyph glyph-name="uni2077" unicode="&#x2077;" horiz-adv-x="400" 
d="M354 750v-46q-77 -89 -115 -173.5t-53 -200.5h-63q17 122 58.5 207t116.5 167h-202v-48h-50v94h308z" />
    <glyph glyph-name="uni2078" unicode="&#x2078;" horiz-adv-x="400" 
d="M199 323q-85 0 -128 36.5t-43 84.5q0 87 100 112q-77 33 -77 96q0 42 37 74.5t111 32.5q73 0 110.5 -31.5t37.5 -72.5q0 -33 -24.5 -59t-60.5 -39q62 -19 86 -44t24 -67q0 -49 -41.5 -86t-131.5 -37zM196 578l21 -6q74 28 74 79q0 27 -22.5 45.5t-68.5 18.5
q-45 0 -68.5 -19t-23.5 -45q0 -28 20.5 -43.5t67.5 -29.5zM198 368q59 0 86.5 23t27.5 54q0 35 -25.5 52.5t-90.5 34.5l-21 6q-88 -21 -88 -92q0 -33 28.5 -55.5t82.5 -22.5z" />
    <glyph glyph-name="uni2079" unicode="&#x2079;" horiz-adv-x="400" 
d="M186 321q-99 0 -142 81l48 20q28 -56 94 -56q111 0 117 178q-14 -30 -46 -49t-76 -19q-61 0 -101.5 37t-40.5 102q0 64 45 103.5t115 39.5q73 0 117.5 -44.5t44.5 -129.5q0 -263 -175 -263zM196 522q46 0 74.5 27.5t28.5 67.5q0 42 -27 69t-73 27q-45 0 -73 -26.5
t-28 -70.5q0 -43 26.5 -68.5t71.5 -25.5z" />
    <glyph glyph-name="uni207A" unicode="&#x207a;" horiz-adv-x="378" 
d="M205 647v-103h105v-41h-105v-104h-45v104h-104v41h104v103h45z" />
    <glyph glyph-name="uni207B" unicode="&#x207b;" horiz-adv-x="378" 
d="M310 544v-41h-254v41h254z" />
    <glyph glyph-name="uni207C" unicode="&#x207c;" horiz-adv-x="378" 
d="M310 604v-42h-254v42h254zM310 481v-41h-254v41h254z" />
    <glyph glyph-name="uni2080" unicode="&#x2080;" horiz-adv-x="400" 
d="M200 269q77 0 120.5 -55t43.5 -164q0 -108 -43.5 -162.5t-120.5 -54.5t-120.5 54.5t-43.5 162.5q0 109 43.5 164t120.5 55zM200 222q-106 0 -106 -172q0 -170 106 -170q104 0 104 170q0 172 -104 172z" />
    <glyph glyph-name="uni2081" unicode="&#x2081;" horiz-adv-x="400" 
d="M82 -160v46h110v258h-107v40h24q53 0 71 15.5t22 60.5h47v-374h96v-46h-263z" />
    <glyph glyph-name="uni2082" unicode="&#x2082;" horiz-adv-x="400" 
d="M202 269q66 0 104.5 -33.5t38.5 -88.5q0 -126 -221 -261h230v-46h-308v45q120 81 178.5 143t58.5 116q0 38 -21.5 58.5t-62.5 20.5q-43 0 -66.5 -24.5t-25.5 -63.5h-58q1 56 40.5 95t112.5 39z" />
    <glyph glyph-name="uni2083" unicode="&#x2083;" horiz-adv-x="400" 
d="M203 269q69 0 108 -30.5t39 -79.5q0 -38 -25 -63t-67 -30q45 -4 75 -31.5t30 -72.5q0 -59 -45.5 -94t-116.5 -35q-64 0 -107 29.5t-57 81.5l54 12q9 -35 37.5 -55.5t72.5 -20.5t72.5 22t28.5 62q0 37 -25.5 57.5t-67.5 20.5h-48v42h43q37 0 61.5 17.5t24.5 51.5t-24 52.5
t-64 18.5t-66 -19t-34 -52l-54 9q12 47 53 77t102 30z" />
    <glyph glyph-name="uni2084" unicode="&#x2084;" horiz-adv-x="400" 
d="M307 260v-280h71v-46h-71v-94h-56v94h-229v48l212 278h73zM251 201l-172 -221h172v221z" />
    <glyph glyph-name="uni2085" unicode="&#x2085;" horiz-adv-x="400" 
d="M340 260l-7 -46h-204l-18 -124q40 43 110 43q60 0 102 -39.5t42 -102.5q0 -70 -46 -114t-124 -44q-65 0 -104.5 28.5t-54.5 68.5l51 17q12 -29 39.5 -48.5t70.5 -19.5q49 0 78.5 31t29.5 78q0 45 -28.5 71.5t-72.5 26.5q-64 0 -102 -48l-50 8l30 214h258z" />
    <glyph glyph-name="uni2086" unicode="&#x2086;" horiz-adv-x="400" 
d="M212 269q96 0 136 -81l-49 -18q-25 54 -87 54q-107 0 -118 -172q15 32 48 51.5t76 19.5q61 0 102 -37.5t41 -102.5q0 -68 -44 -109t-114 -41q-74 0 -119.5 45.5t-45.5 135.5q0 125 46 190t128 65zM204 78q-45 0 -74 -27.5t-29 -69.5q0 -45 28 -74t73 -29q44 0 71.5 28
t27.5 74q0 44 -26.5 71t-70.5 27z" />
    <glyph glyph-name="uni2087" unicode="&#x2087;" horiz-adv-x="400" 
d="M354 260v-46q-77 -89 -115 -173.5t-53 -200.5h-63q17 122 58.5 207t116.5 167h-202v-48h-50v94h308z" />
    <glyph glyph-name="uni2088" unicode="&#x2088;" horiz-adv-x="400" 
d="M199 -167q-85 0 -128 36.5t-43 84.5q0 87 100 112q-77 33 -77 96q0 42 37 74.5t111 32.5q73 0 110.5 -31.5t37.5 -72.5q0 -33 -24.5 -59t-60.5 -39q62 -19 86 -44t24 -67q0 -49 -41.5 -86t-131.5 -37zM196 88l21 -6q74 28 74 79q0 27 -22.5 45.5t-68.5 18.5
q-45 0 -68.5 -19t-23.5 -45q0 -28 20.5 -43.5t67.5 -29.5zM198 -122q59 0 86.5 23t27.5 54q0 35 -25.5 52.5t-90.5 34.5l-21 6q-88 -21 -88 -92q0 -33 28.5 -55.5t82.5 -22.5z" />
    <glyph glyph-name="uni2089" unicode="&#x2089;" horiz-adv-x="400" 
d="M186 -169q-99 0 -142 81l48 20q28 -56 94 -56q111 0 117 178q-14 -30 -46 -49t-76 -19q-61 0 -101.5 37t-40.5 102q0 64 45 103.5t115 39.5q73 0 117.5 -44.5t44.5 -129.5q0 -263 -175 -263zM196 32q46 0 74.5 27.5t28.5 67.5q0 42 -27 69t-73 27q-45 0 -73 -26.5
t-28 -70.5q0 -43 26.5 -68.5t71.5 -25.5z" />
    <glyph glyph-name="uni208A" unicode="&#x208a;" horiz-adv-x="366" 
d="M205 157v-103h105v-41h-105v-104h-45v104h-104v41h104v103h45z" />
    <glyph glyph-name="uni208B" unicode="&#x208b;" horiz-adv-x="366" 
d="M310 54v-41h-254v41h254z" />
    <glyph glyph-name="uni208C" unicode="&#x208c;" horiz-adv-x="366" 
d="M310 104v-42h-254v42h254zM310 -19v-41h-254v41h254z" />
    <glyph glyph-name="uni208D" unicode="&#x208d;" horiz-adv-x="300" 
d="M190 289h36q-77 -119 -77 -242q0 -125 77 -242h-37q-41 52 -63.5 118t-22.5 124t23 123.5t64 118.5z" />
    <glyph glyph-name="uni208E" unicode="&#x208e;" horiz-adv-x="300" 
d="M94 289h36q41 -53 64 -118.5t23 -123.5t-22.5 -124t-63.5 -118h-37q77 117 77 242t-77 242z" />
    <glyph glyph-name="Euro" unicode="&#x20ac;" horiz-adv-x="660" 
d="M402 713q119 0 191 -80l-20 -56q-69 82 -172 82q-86 0 -141.5 -57t-71.5 -165h326l-13 -37h-318q-2 -17 -2 -52q0 -36 2 -52h284l-13 -38h-267q23 -217 204 -217q106 0 172 70v-65q-70 -59 -172 -59q-103 0 -173.5 65t-87.5 206h-90l13 38h73q-2 32 -2 52q0 18 2 52h-82
l13 37h73q19 136 93.5 206t178.5 70z" />
    <glyph glyph-name="uni20B9" unicode="&#x20b9;" 
d="M525 700v-42h-159q81 -49 81 -147v-1h78v-40h-82q-14 -73 -74.5 -110.5t-149.5 -37.5h-70l315 -322h-70l-315 322v52h134q142 0 166 96h-301v40h306v4q0 64 -45.5 104t-125.5 40h-135v42h447z" />
    <glyph glyph-name="uni20BA" unicode="&#x20ba;" 
d="M472 215h50q-4 -88 -70.5 -156.5t-176.5 -68.5q-62 0 -108 12v350l-93 -50v39l93 50v115l-93 -49v39l93 49v155h60v-123l212 113v-39l-212 -113v-115l212 113v-39l-212 -113v-337q30 -6 62 -6q75 0 126 52.5t57 121.5z" />
    <glyph glyph-name="uni20BD" unicode="&#x20bd;" 
d="M324 288h-171v-96h249v-40h-249v-152h-61v152h-60v40h60v96h-61v51h61v361h229q126 0 186.5 -56.5t60.5 -147.5q0 -98 -61 -153t-183 -55zM153 646v-307h175q176 0 176 156q0 71 -44 111t-132 40h-175z" />
    <glyph glyph-name="uni2105" unicode="&#x2105;" horiz-adv-x="900" 
d="M688 712l-433 -724h-52l433 724h52zM231 678q43 0 75.5 -20.5t47.5 -55.5l-32 -13q-29 54 -91 54q-50 0 -80 -35.5t-30 -91.5t29.5 -91.5t78.5 -35.5q68 0 99 66l33 -13q-36 -88 -132 -88q-69 0 -109 45.5t-40 116.5t41 116.5t110 45.5zM669 317q68 0 109.5 -46
t41.5 -115q0 -72 -40 -117t-111 -45q-70 0 -110.5 45.5t-40.5 116.5t40.5 116t110.5 45zM669 282q-50 0 -79.5 -35t-29.5 -91q0 -57 29 -92t80 -35t80 35t29 92q0 55 -29.5 90.5t-79.5 35.5z" />
    <glyph glyph-name="uni2113" unicode="&#x2113;" 
d="M376 -13q-64 0 -100.5 38t-36.5 111v108l-74 -81l-18 39l92 102v263q0 74 30.5 110t82.5 36q48 0 72.5 -28t24.5 -71q0 -71 -37.5 -143t-112.5 -177v-147q0 -107 90 -107q32 0 62 10v-48q-35 -15 -75 -15zM299 563v-198q32 51 49.5 82.5t34.5 77.5t17 81q0 66 -45 66
q-56 0 -56 -109z" />
    <glyph glyph-name="uni2116" unicode="&#x2116;" horiz-adv-x="1200" 
d="M681 700v-700h-66l-384 595v-595h-59v700h63l386 -605v605h60zM930 373q-70 0 -110.5 46t-40.5 117q0 70 40.5 115.5t110.5 45.5q68 0 109.5 -46.5t41.5 -114.5q0 -72 -40 -117.5t-111 -45.5zM930 408q51 0 80 35t29 93q0 55 -29.5 90t-79.5 35t-79.5 -34.5t-29.5 -90.5
q0 -57 29 -92.5t80 -35.5zM798 244v41h274v-41h-274z" />
    <glyph glyph-name="uni2117" unicode="&#x2117;" horiz-adv-x="900" 
d="M451 -13q-152 0 -258 105t-106 257t106 258t258 106q151 0 256 -106t105 -258t-105 -257t-256 -105zM451 23q136 0 230 94.5t94 231.5t-94 232.5t-230 95.5t-231 -95.5t-95 -232.5t94.5 -231.5t231.5 -94.5zM334 137v423h143q70 0 108.5 -32.5t38.5 -90.5
q0 -52 -36.5 -87.5t-104.5 -35.5h-109v-177h-40zM373 348h111q46 0 71.5 24t25.5 66q0 41 -27.5 64t-75.5 23h-105v-177z" />
    <glyph glyph-name="uni2120" unicode="&#x2120;" horiz-adv-x="1200" 
d="M321 708q113 0 174 -74l-35 -26q-46 57 -139 57q-53 0 -84 -19t-31 -50q0 -32 28.5 -49.5t106.5 -31.5q86 -15 123 -45t37 -84q0 -57 -45.5 -91.5t-132.5 -34.5q-128 0 -191 74l36 32q55 -64 156 -64q57 0 91.5 22.5t34.5 58.5q0 37 -28.5 56.5t-109.5 32.5
q-157 26 -157 122q0 51 45.5 82.5t120.5 31.5zM1009 700l50 -435h-53l-44 371l-113 -371h-59l-120 370l-42 -370h-51l46 435h78l119 -377l113 377h76z" />
    <glyph glyph-name="trademark" unicode="&#x2122;" horiz-adv-x="1000" 
d="M423 700v-47h-159v-388h-54v388h-154v47h367zM886 700l50 -435h-52l-45 371l-113 -371h-58l-121 370l-41 -370h-52l47 435h77l120 -377l112 377h76z" />
    <glyph glyph-name="Omega" unicode="&#x2126;" horiz-adv-x="757" 
d="M379 713q45 0 88 -11.5t84.5 -38.5t72 -67.5t49.5 -103t19 -139.5q0 -229 -158 -298h151v-55h-230v55q78 23 125.5 100.5t47.5 196.5q0 146 -68.5 225.5t-180.5 79.5q-110 0 -180 -78t-70 -224q0 -121 47.5 -199t125.5 -101v-55h-230v55h152q-158 68 -158 299
q0 93 27 164t72.5 112.5t99.5 62t114 20.5z" />
    <glyph glyph-name="estimated" unicode="&#x212e;" horiz-adv-x="945" 
d="M473 713q80 0 153 -27.5t127.5 -75.5t87.5 -117.5t34 -147.5h-656v-244q32 -39 103.5 -64t149.5 -25q186 0 282 107h35q-117 -132 -318 -132q-170 0 -285 102.5t-115 256.5q0 156 117.5 261.5t284.5 105.5zM473 688q-165 0 -254 -92v-227h509v226q-98 93 -255 93z" />
    <glyph glyph-name="uni2150" unicode="&#x2150;" horiz-adv-x="977" 
d="M735 712l-433 -724h-52l433 724h52zM931 420v-46q-77 -89 -115 -173.5t-53 -200.5h-63q17 122 58.5 207t116.5 167h-202v-48h-50v94h308zM82 280v46h110v258h-107v40h24q53 0 71 15.5t22 60.5h47v-374h96v-46h-263z" />
    <glyph glyph-name="uni2151" unicode="&#x2151;" horiz-adv-x="947" 
d="M735 712l-433 -724h-52l433 724h52zM733 -8q-99 0 -142 81l48 20q28 -56 94 -56q111 0 117 178q-14 -30 -46 -49t-76 -19q-61 0 -101.5 37t-40.5 102q0 64 45 103.5t115 39.5q73 0 117.5 -44.5t44.5 -129.5q0 -263 -175 -263zM743 193q46 0 74.5 27.5t28.5 67.5
q0 42 -27 69t-73 27q-45 0 -73 -26.5t-28 -70.5q0 -43 26.5 -68.5t71.5 -25.5zM82 280v46h110v258h-107v40h24q53 0 71 15.5t22 60.5h47v-374h96v-46h-263z" />
    <glyph glyph-name="uni2152" unicode="&#x2152;" horiz-adv-x="1337" 
d="M735 712l-433 -724h-52l433 724h52zM619 0v46h110v258h-107v40h24q53 0 71 15.5t22 60.5h47v-374h96v-46h-263zM1137 429q77 0 120.5 -55t43.5 -164q0 -108 -43.5 -162.5t-120.5 -54.5t-120.5 54.5t-43.5 162.5q0 109 43.5 164t120.5 55zM1137 382q-106 0 -106 -172
q0 -170 106 -170q104 0 104 170q0 172 -104 172zM82 280v46h110v258h-107v40h24q53 0 71 15.5t22 60.5h47v-374h96v-46h-263z" />
    <glyph glyph-name="onethird" unicode="&#x2153;" horiz-adv-x="947" 
d="M735 712l-433 -724h-52l433 724h52zM750 429q69 0 108 -30.5t39 -79.5q0 -38 -25 -63t-67 -30q45 -4 75 -31.5t30 -72.5q0 -59 -45.5 -94t-116.5 -35q-64 0 -107 29.5t-57 81.5l54 12q9 -35 37.5 -55.5t72.5 -20.5t72.5 22t28.5 62q0 37 -25.5 57.5t-67.5 20.5h-48v42h43
q37 0 61.5 17.5t24.5 51.5t-24 52.5t-64 18.5t-66 -19t-34 -52l-54 9q12 47 53 77t102 30zM82 280v46h110v258h-107v40h24q53 0 71 15.5t22 60.5h47v-374h96v-46h-263z" />
    <glyph glyph-name="twothirds" unicode="&#x2154;" horiz-adv-x="947" 
d="M735 712l-433 -724h-52l433 724h52zM750 429q69 0 108 -30.5t39 -79.5q0 -38 -25 -63t-67 -30q45 -4 75 -31.5t30 -72.5q0 -59 -45.5 -94t-116.5 -35q-64 0 -107 29.5t-57 81.5l54 12q9 -35 37.5 -55.5t72.5 -20.5t72.5 22t28.5 62q0 37 -25.5 57.5t-67.5 20.5h-48v42h43
q37 0 61.5 17.5t24.5 51.5t-24 52.5t-64 18.5t-66 -19t-34 -52l-54 9q12 47 53 77t102 30zM202 709q66 0 104.5 -33.5t38.5 -88.5q0 -126 -221 -261h230v-46h-308v45q120 81 178.5 143t58.5 116q0 38 -21.5 58.5t-62.5 20.5q-43 0 -66.5 -24.5t-25.5 -63.5h-58q1 56 40.5 95
t112.5 39z" />
    <glyph glyph-name="uni2155" unicode="&#x2155;" horiz-adv-x="957" 
d="M735 712l-433 -724h-52l433 724h52zM897 420l-7 -46h-204l-18 -124q40 43 110 43q60 0 102 -39.5t42 -102.5q0 -70 -46 -114t-124 -44q-65 0 -104.5 28.5t-54.5 68.5l51 17q12 -29 39.5 -48.5t70.5 -19.5q49 0 78.5 31t29.5 78q0 45 -28.5 71.5t-72.5 26.5
q-64 0 -102 -48l-50 8l30 214h258zM82 280v46h110v258h-107v40h24q53 0 71 15.5t22 60.5h47v-374h96v-46h-263z" />
    <glyph glyph-name="uni2156" unicode="&#x2156;" horiz-adv-x="957" 
d="M735 712l-433 -724h-52l433 724h52zM897 420l-7 -46h-204l-18 -124q40 43 110 43q60 0 102 -39.5t42 -102.5q0 -70 -46 -114t-124 -44q-65 0 -104.5 28.5t-54.5 68.5l51 17q12 -29 39.5 -48.5t70.5 -19.5q49 0 78.5 31t29.5 78q0 45 -28.5 71.5t-72.5 26.5
q-64 0 -102 -48l-50 8l30 214h258zM202 709q66 0 104.5 -33.5t38.5 -88.5q0 -126 -221 -261h230v-46h-308v45q120 81 178.5 143t58.5 116q0 38 -21.5 58.5t-62.5 20.5q-43 0 -66.5 -24.5t-25.5 -63.5h-58q1 56 40.5 95t112.5 39z" />
    <glyph glyph-name="uni2157" unicode="&#x2157;" horiz-adv-x="917" 
d="M695 712l-433 -724h-52l433 724h52zM857 420l-7 -46h-204l-18 -124q40 43 110 43q60 0 102 -39.5t42 -102.5q0 -70 -46 -114t-124 -44q-65 0 -104.5 28.5t-54.5 68.5l51 17q12 -29 39.5 -48.5t70.5 -19.5q49 0 78.5 31t29.5 78q0 45 -28.5 71.5t-72.5 26.5
q-64 0 -102 -48l-50 8l30 214h258zM203 709q69 0 108 -30.5t39 -79.5q0 -38 -25 -63t-67 -30q45 -4 75 -31.5t30 -72.5q0 -59 -45.5 -94t-116.5 -35q-64 0 -107 29.5t-57 81.5l54 12q9 -35 37.5 -55.5t72.5 -20.5t72.5 22t28.5 62q0 37 -25.5 57.5t-67.5 20.5h-48v42h43
q37 0 61.5 17.5t24.5 51.5t-24 52.5t-64 18.5t-66 -19t-34 -52l-54 9q12 47 53 77t102 30z" />
    <glyph glyph-name="uni2158" unicode="&#x2158;" horiz-adv-x="947" 
d="M725 712l-433 -724h-52l433 724h52zM887 420l-7 -46h-204l-18 -124q40 43 110 43q60 0 102 -39.5t42 -102.5q0 -70 -46 -114t-124 -44q-65 0 -104.5 28.5t-54.5 68.5l51 17q12 -29 39.5 -48.5t70.5 -19.5q49 0 78.5 31t29.5 78q0 45 -28.5 71.5t-72.5 26.5
q-64 0 -102 -48l-50 8l30 214h258zM307 700v-280h71v-46h-71v-94h-56v94h-229v48l212 278h73zM251 641l-172 -221h172v221z" />
    <glyph glyph-name="uni2159" unicode="&#x2159;" horiz-adv-x="937" 
d="M735 712l-433 -724h-52l433 724h52zM749 429q96 0 136 -81l-49 -18q-25 54 -87 54q-107 0 -118 -172q15 32 48 51.5t76 19.5q61 0 102 -37.5t41 -102.5q0 -68 -44 -109t-114 -41q-74 0 -119.5 45.5t-45.5 135.5q0 125 46 190t128 65zM741 238q-45 0 -74 -27.5t-29 -69.5
q0 -45 28 -74t73 -29q44 0 71.5 28t27.5 74q0 44 -26.5 71t-70.5 27zM82 280v46h110v258h-107v40h24q53 0 71 15.5t22 60.5h47v-374h96v-46h-263z" />
    <glyph glyph-name="uni215A" unicode="&#x215a;" horiz-adv-x="897" 
d="M695 712l-433 -724h-52l433 724h52zM709 429q96 0 136 -81l-49 -18q-25 54 -87 54q-107 0 -118 -172q15 32 48 51.5t76 19.5q61 0 102 -37.5t41 -102.5q0 -68 -44 -109t-114 -41q-74 0 -119.5 45.5t-45.5 135.5q0 125 46 190t128 65zM701 238q-45 0 -74 -27.5t-29 -69.5
q0 -45 28 -74t73 -29q44 0 71.5 28t27.5 74q0 44 -26.5 71t-70.5 27zM340 700l-7 -46h-204l-18 -124q40 43 110 43q60 0 102 -39.5t42 -102.5q0 -70 -46 -114t-124 -44q-65 0 -104.5 28.5t-54.5 68.5l51 17q12 -29 39.5 -48.5t70.5 -19.5q49 0 78.5 31t29.5 78
q0 45 -28.5 71.5t-72.5 26.5q-64 0 -102 -48l-50 8l30 214h258z" />
    <glyph glyph-name="oneeighth" unicode="&#x215b;" horiz-adv-x="947" 
d="M735 712l-433 -724h-52l433 724h52zM746 -7q-85 0 -128 36.5t-43 84.5q0 87 100 112q-77 33 -77 96q0 42 37 74.5t111 32.5q73 0 110.5 -31.5t37.5 -72.5q0 -33 -24.5 -59t-60.5 -39q62 -19 86 -44t24 -67q0 -49 -41.5 -86t-131.5 -37zM743 248l21 -6q74 28 74 79
q0 27 -23 45.5t-68 18.5t-68.5 -19t-23.5 -45q0 -28 20.5 -43.5t67.5 -29.5zM745 38q59 0 86.5 23t27.5 54q0 35 -25.5 52.5t-90.5 34.5l-21 6q-88 -21 -88 -92q0 -33 28.5 -55.5t82.5 -22.5zM82 280v46h110v258h-107v40h24q53 0 71 15.5t22 60.5h47v-374h96v-46h-263z" />
    <glyph glyph-name="threeeighths" unicode="&#x215c;" horiz-adv-x="907" 
d="M695 712l-433 -724h-52l433 724h52zM706 -7q-85 0 -128 36.5t-43 84.5q0 87 100 112q-77 33 -77 96q0 42 37 74.5t111 32.5q73 0 110.5 -31.5t37.5 -72.5q0 -33 -24.5 -59t-60.5 -39q62 -19 86 -44t24 -67q0 -49 -41.5 -86t-131.5 -37zM703 248l21 -6q74 28 74 79
q0 27 -23 45.5t-68 18.5t-68.5 -19t-23.5 -45q0 -28 20.5 -43.5t67.5 -29.5zM705 38q59 0 86.5 23t27.5 54q0 35 -25.5 52.5t-90.5 34.5l-21 6q-88 -21 -88 -92q0 -33 28.5 -55.5t82.5 -22.5zM203 709q69 0 108 -30.5t39 -79.5q0 -38 -25 -63t-67 -30q45 -4 75 -31.5
t30 -72.5q0 -59 -45.5 -94t-116.5 -35q-64 0 -107 29.5t-57 81.5l54 12q9 -35 37.5 -55.5t72.5 -20.5t72.5 22t28.5 62q0 37 -25.5 57.5t-67.5 20.5h-48v42h43q37 0 61.5 17.5t24.5 51.5t-24 52.5t-64 18.5t-66 -19t-34 -52l-54 9q12 47 53 77t102 30z" />
    <glyph glyph-name="fiveeighths" unicode="&#x215d;" horiz-adv-x="907" 
d="M695 712l-433 -724h-52l433 724h52zM706 -7q-85 0 -128 36.5t-43 84.5q0 87 100 112q-77 33 -77 96q0 42 37 74.5t111 32.5q73 0 110.5 -31.5t37.5 -72.5q0 -33 -24.5 -59t-60.5 -39q62 -19 86 -44t24 -67q0 -49 -41.5 -86t-131.5 -37zM703 248l21 -6q74 28 74 79
q0 27 -23 45.5t-68 18.5t-68.5 -19t-23.5 -45q0 -28 20.5 -43.5t67.5 -29.5zM705 38q59 0 86.5 23t27.5 54q0 35 -25.5 52.5t-90.5 34.5l-21 6q-88 -21 -88 -92q0 -33 28.5 -55.5t82.5 -22.5zM340 700l-7 -46h-204l-18 -124q40 43 110 43q60 0 102 -39.5t42 -102.5
q0 -70 -46 -114t-124 -44q-65 0 -104.5 28.5t-54.5 68.5l51 17q12 -29 39.5 -48.5t70.5 -19.5q49 0 78.5 31t29.5 78q0 45 -28.5 71.5t-72.5 26.5q-64 0 -102 -48l-50 8l30 214h258z" />
    <glyph glyph-name="seveneighths" unicode="&#x215e;" horiz-adv-x="857" 
d="M645 712l-433 -724h-52l433 724h52zM656 -7q-85 0 -128 36.5t-43 84.5q0 87 100 112q-77 33 -77 96q0 42 37 74.5t111 32.5q73 0 110.5 -31.5t37.5 -72.5q0 -33 -24.5 -59t-60.5 -39q62 -19 86 -44t24 -67q0 -49 -41.5 -86t-131.5 -37zM653 248l21 -6q74 28 74 79
q0 27 -23 45.5t-68 18.5t-68.5 -19t-23.5 -45q0 -28 20.5 -43.5t67.5 -29.5zM655 38q59 0 86.5 23t27.5 54q0 35 -25.5 52.5t-90.5 34.5l-21 6q-88 -21 -88 -92q0 -33 28.5 -55.5t82.5 -22.5zM354 700v-46q-77 -89 -115 -173.5t-53 -200.5h-63q17 122 58.5 207t116.5 167
h-202v-48h-50v94h308z" />
    <glyph glyph-name="uni215F" unicode="&#x215f;" horiz-adv-x="597" 
d="M735 712l-433 -724h-52l433 724h52zM82 280v46h110v258h-107v40h24q53 0 71 15.5t22 60.5h47v-374h96v-46h-263z" />
    <glyph glyph-name="uni2189" unicode="&#x2189;" horiz-adv-x="897" 
d="M685 712l-433 -724h-52l433 724h52zM700 429q69 0 108 -30.5t39 -79.5q0 -38 -25 -63t-67 -30q45 -4 75 -31.5t30 -72.5q0 -59 -45.5 -94t-116.5 -35q-64 0 -107 29.5t-57 81.5l54 12q9 -35 37.5 -55.5t72.5 -20.5t72.5 22t28.5 62q0 37 -25.5 57.5t-67.5 20.5h-48v42h43
q37 0 61.5 17.5t24.5 51.5t-24 52.5t-64 18.5t-66 -19t-34 -52l-54 9q12 47 53 77t102 30zM200 709q77 0 120.5 -55t43.5 -164q0 -108 -43.5 -162.5t-120.5 -54.5t-120.5 54.5t-43.5 162.5q0 109 43.5 164t120.5 55zM200 662q-106 0 -106 -172q0 -170 106 -170
q104 0 104 170q0 172 -104 172z" />
    <glyph glyph-name="arrowleft" unicode="&#x2190;" horiz-adv-x="900" 
d="M399 640l44 -37l-231 -248h572v-52h-572l231 -248l-44 -37l-283 311z" />
    <glyph glyph-name="arrowup" unicode="&#x2191;" horiz-adv-x="900" 
d="M450 668l312 -283l-36 -41l-246 231v-575h-59v575l-247 -231l-35 41z" />
    <glyph glyph-name="arrowright" unicode="&#x2192;" horiz-adv-x="900" 
d="M501 640l283 -311l-283 -311l-43 37l230 248h-572v52h572l-230 248z" />
    <glyph glyph-name="arrowdown" unicode="&#x2193;" horiz-adv-x="900" 
d="M480 630v-574l246 230l36 -40l-312 -284l-311 284l35 40l247 -230v574h59z" />
    <glyph glyph-name="arrowboth" unicode="&#x2194;" horiz-adv-x="1280" 
d="M890 640l284 -311l-284 -311l-43 37l230 248h-875l231 -248l-44 -37l-283 311l283 311l44 -37l-231 -248h875l-230 248z" />
    <glyph glyph-name="arrowupdn" unicode="&#x2195;" horiz-adv-x="900" 
d="M450 881l312 -284l-36 -41l-246 231v-894l246 231l36 -41l-312 -284l-311 284l35 41l247 -231v894l-247 -231l-35 41z" />
    <glyph glyph-name="uni2196" unicode="&#x2196;" horiz-adv-x="900" 
d="M634 595l5 -55l-338 -12l403 -404l-39 -40l-404 405l-12 -338l-57 2l20 422z" />
    <glyph glyph-name="uni2197" unicode="&#x2197;" horiz-adv-x="900" 
d="M266 595l422 -20l20 -422l-57 -2l-12 338l-403 -405l-40 40l403 404l-337 12z" />
    <glyph glyph-name="uni2198" unicode="&#x2198;" horiz-adv-x="900" 
d="M235 550l404 -405l11 338l58 -3l-20 -421l-423 -21l-4 55l337 12l-403 405z" />
    <glyph glyph-name="uni2199" unicode="&#x2199;" horiz-adv-x="900" 
d="M665 550l39 -40l-403 -405l338 -12l-5 -55l-422 21l-20 421l57 3l12 -338z" />
    <glyph glyph-name="partialdiff" unicode="&#x2202;" horiz-adv-x="603" 
d="M132 659v49q204 -5 305.5 -107.5t101.5 -318.5q0 -144 -66.5 -219.5t-177.5 -75.5q-108 0 -175.5 65.5t-67.5 171.5t65 169.5t164 63.5q72 0 123.5 -33.5t72.5 -83.5q-16 164 -97.5 239t-247.5 80zM290 406q-80 0 -128 -50t-48 -132q0 -86 51 -136t130 -50q81 0 129 53
t48 140q0 76 -50 125.5t-132 49.5z" />
    <glyph glyph-name="emptyset" unicode="&#x2205;" horiz-adv-x="900" 
d="M731 710l-55 -75q63 -50 99.5 -125t36.5 -161q0 -152 -104.5 -257t-256.5 -105q-114 0 -208 64l-45 -61h-45l61 83q-59 51 -92.5 122.5t-33.5 153.5q0 152 105.5 258t257.5 106q106 0 195 -57l40 54h45zM139 349q0 -144 105 -236l373 503q-74 48 -166 48
q-131 0 -221.5 -92t-90.5 -223zM451 36q131 0 220.5 91t89.5 222q0 73 -30.5 137.5t-84.5 108.5l-373 -504q79 -55 178 -55z" />
    <glyph glyph-name="Delta" unicode="&#x2206;" horiz-adv-x="606" 
d="M344 700l244 -700h-569l245 700h80zM101 53h401l-200 592z" />
    <glyph glyph-name="product" unicode="&#x220f;" horiz-adv-x="620" 
d="M575 700v-49h-91v-651h-60v651h-228v-651h-60v651h-90v49h529z" />
    <glyph glyph-name="summation" unicode="&#x2211;" 
d="M533 700v-49h-397l232 -269v-47l-232 -284h397v-51h-467v44l256 314l-256 297v45h467z" />
    <glyph glyph-name="minus" unicode="&#x2212;" 
d="M492 319v-54h-383v54h383z" />
    <glyph glyph-name="uni2215" unicode="&#x2215;" 
d="M542 712l-433 -724h-52l433 724h52z" />
    <glyph glyph-name="uni2219" unicode="&#x2219;" 
d="M300 405q38 0 65.5 -27t27.5 -64q0 -38 -27.5 -65.5t-65.5 -27.5q-37 0 -65 27.5t-28 65.5t28 64.5t65 26.5z" />
    <glyph glyph-name="radical" unicode="&#x221a;" 
d="M675 867v-49h-187l-238 -818h-61l-194 519l62 1l161 -445l226 792h231z" />
    <glyph glyph-name="infinity" unicode="&#x221e;" horiz-adv-x="883" 
d="M628 453q81 0 131 -54.5t50 -133.5q0 -82 -52.5 -136t-136.5 -54q-63 0 -104.5 35.5t-74.5 102.5q-67 -138 -185 -138q-81 0 -131 55t-50 134q0 82 52 135.5t137 53.5q63 0 104.5 -34.5t74.5 -100.5q64 135 185 135zM263 404q-55 0 -92.5 -37.5t-37.5 -102.5
q0 -62 36 -101t87 -39q103 0 162 146q-27 65 -61 99.5t-94 34.5zM628 404q-104 0 -162 -143q28 -65 61.5 -100.5t93.5 -35.5q55 0 92.5 37.5t37.5 102.5q0 62 -36 100.5t-87 38.5z" />
    <glyph glyph-name="integral" unicode="&#x222b;" horiz-adv-x="300" 
d="M271 853q47 0 101 -16v-49q-46 16 -94 16q-100 0 -100 -92v-783q0 -58 -35.5 -96t-114.5 -38q-47 0 -101 16v48q53 -16 94 -16q52 0 75 23.5t23 69.5v783q0 57 37 95.5t115 38.5z" />
    <glyph glyph-name="congruent" unicode="&#x2245;" 
d="M498 390v-54h-384v54h384zM498 184v-53h-384v53h384zM220 671q42 0 92 -29.5t72 -29.5q51 0 86 54l34 -29q-46 -77 -124 -77q-42 0 -92 29t-72 29q-51 0 -86 -54l-34 29q45 78 124 78z" />
    <glyph glyph-name="approxequal" unicode="&#x2248;" 
d="M220 462q42 0 92 -29.5t72 -29.5q51 0 86 54l34 -29q-46 -77 -124 -77q-42 0 -92 29t-72 29q-51 0 -86 -54l-34 29q45 78 124 78zM220 273q42 0 92 -29.5t72 -29.5q51 0 86 54l34 -29q-46 -77 -124 -77q-42 0 -92 29t-72 29q-51 0 -86 -54l-34 29q45 78 124 78z" />
    <glyph glyph-name="uni2259" unicode="&#x2259;" 
d="M325 700l126 -180h-59l-92 133l-93 -133h-59l128 180h49zM492 433v-54h-384v54h384zM492 227v-53h-384v53h384z" />
    <glyph glyph-name="notequal" unicode="&#x2260;" 
d="M492 379h-120l-89 -152h209v-53h-240l-89 -152h-51l89 152h-93v53h125l89 152h-214v54h246l84 143h50l-84 -143h88v-54z" />
    <glyph glyph-name="lessequal" unicode="&#x2264;" 
d="M492 559v-58l-339 -147l339 -149v-58l-384 172v69zM492 54v-54h-383v54h383z" />
    <glyph glyph-name="greaterequal" unicode="&#x2265;" 
d="M108 559l384 -171v-69l-384 -172v58l339 149l-339 147v58zM491 54v-54h-383v54h383z" />
    <glyph glyph-name="dotmath" unicode="&#x22c5;" 
d="M300 338q18 0 31.5 -13t13.5 -31q0 -19 -13.5 -32t-31.5 -13t-31.5 13t-13.5 32q0 18 13.5 31t31.5 13z" />
    <glyph glyph-name="uni2460" unicode="&#x2460;" horiz-adv-x="900" 
d="M337 159v42h100v234h-98v37h22q48 0 64.5 14t20.5 55h42v-340h88v-42h-239zM451 713q151 0 256 -106t105 -258t-105 -257t-256 -105q-152 0 -258 105t-106 257t106 258t258 106zM451 674q-134 0 -228 -95t-94 -230t94 -229t228 -94q135 0 228 94t93 229t-93 230t-228 95z
" />
    <glyph glyph-name="uni2461" unicode="&#x2461;" horiz-adv-x="900" 
d="M453 549q60 0 95 -30.5t35 -80.5q0 -114 -201 -237h209v-42h-280v41q109 73 162 129.5t53 105.5q0 72 -76 72q-40 0 -61 -22t-23 -58h-52q0 51 36 86.5t103 35.5zM451 713q151 0 256 -106t105 -258t-105 -257t-256 -105q-152 0 -258 105t-106 257t106 258t258 106z
M451 674q-134 0 -228 -95t-94 -230t94 -229t228 -94q135 0 228 94t93 229t-93 230t-228 95z" />
    <glyph glyph-name="uni2462" unicode="&#x2462;" horiz-adv-x="900" 
d="M454 549q62 0 97.5 -27.5t35.5 -72.5q0 -34 -22.5 -57t-60.5 -28q40 -3 67.5 -28t27.5 -66q0 -54 -41.5 -85.5t-105.5 -31.5q-58 0 -97.5 27t-51.5 74l49 10q9 -31 34.5 -50t65.5 -19t66 20t26 57q0 33 -23.5 52t-61.5 19h-44v38h39q34 0 56.5 16t22.5 47t-22 47.5
t-58 16.5t-59.5 -17t-31.5 -47l-49 8q10 42 47.5 69.5t93.5 27.5zM451 713q151 0 256 -106t105 -258t-105 -257t-256 -105q-152 0 -258 105t-106 257t106 258t258 106zM451 674q-134 0 -228 -95t-94 -230t94 -229t228 -94q135 0 228 94t93 229t-93 230t-228 95z" />
    <glyph glyph-name="uni2463" unicode="&#x2463;" horiz-adv-x="900" 
d="M532 541v-255h65v-42h-65v-85h-51v85h-208v44l193 253h66zM481 487l-156 -201h156v201zM451 713q151 0 256 -106t105 -258t-105 -257t-256 -105q-152 0 -258 105t-106 257t106 258t258 106zM451 674q-134 0 -228 -95t-94 -230t94 -229t228 -94q135 0 228 94t93 229
t-93 230t-228 95z" />
    <glyph glyph-name="uni2464" unicode="&#x2464;" horiz-adv-x="900" 
d="M577 541l-6 -42h-186l-16 -113q36 39 100 39q54 0 92.5 -35.5t38.5 -93.5q0 -63 -42 -103t-113 -40q-59 0 -95 26t-49 62l46 15q25 -62 100 -62q44 0 71 28t27 72q0 40 -26 64.5t-66 24.5q-58 0 -92 -44l-46 7l28 195h234zM451 713q151 0 256 -106t105 -258t-105 -257
t-256 -105q-152 0 -258 105t-106 257t106 258t258 106zM451 674q-134 0 -228 -95t-94 -230t94 -229t228 -94q135 0 228 94t93 229t-93 230t-228 95z" />
    <glyph glyph-name="uni2465" unicode="&#x2465;" horiz-adv-x="900" 
d="M457 549q88 0 123 -74l-44 -16q-24 49 -79 49q-97 0 -108 -156q14 29 44 46.5t69 17.5q55 0 92.5 -34t37.5 -93q0 -62 -39.5 -99t-103.5 -37q-68 0 -109 41.5t-41 122.5q0 114 41.5 173t116.5 59zM449 375q-41 0 -67 -25t-26 -63q0 -40 25.5 -66.5t66.5 -26.5
q40 0 65 25.5t25 66.5q0 40 -24.5 64.5t-64.5 24.5zM451 713q151 0 256 -106t105 -258t-105 -257t-256 -105q-152 0 -258 105t-106 257t106 258t258 106zM451 674q-134 0 -228 -95t-94 -230t94 -229t228 -94q135 0 228 94t93 229t-93 230t-228 95z" />
    <glyph glyph-name="uni2466" unicode="&#x2466;" horiz-adv-x="900" 
d="M598 541v-42q-71 -81 -105 -158t-48 -182h-57q16 111 53.5 188.5t105.5 151.5h-184v-44h-45v86h280zM451 713q151 0 256 -106t105 -258t-105 -257t-256 -105q-152 0 -258 105t-106 257t106 258t258 106zM451 674q-134 0 -228 -95t-94 -230t94 -229t228 -94q135 0 228 94
t93 229t-93 230t-228 95z" />
    <glyph glyph-name="uni2467" unicode="&#x2467;" horiz-adv-x="900" 
d="M450 153q-78 0 -117 33t-39 77q0 79 91 101q-70 31 -70 88q0 37 34 67t101 30q66 0 100 -28.5t34 -66.5q0 -30 -22 -53.5t-55 -35.5q56 -17 78 -40t22 -61q0 -45 -37.5 -78t-119.5 -33zM447 384l19 -5q68 26 68 72q0 24 -21 41t-62 17t-62.5 -17.5t-21.5 -40.5
q0 -26 18.5 -40t61.5 -27zM449 194q54 0 79 21t25 49q0 32 -23.5 47.5t-82.5 31.5l-19 5q-80 -20 -80 -84q0 -29 26 -49.5t75 -20.5zM451 713q151 0 256 -106t105 -258t-105 -257t-256 -105q-152 0 -258 105t-106 257t106 258t258 106zM451 674q-134 0 -228 -95t-94 -230
t94 -229t228 -94q135 0 228 94t93 229t-93 230t-228 95z" />
    <glyph glyph-name="uni2468" unicode="&#x2468;" horiz-adv-x="900" 
d="M439 152q-89 0 -129 73l44 19q25 -51 85 -51q101 0 106 161q-29 -61 -110 -61q-56 0 -93 33.5t-37 92.5q0 58 41 94t105 36q66 0 106.5 -40.5t40.5 -117.5q0 -239 -159 -239zM448 334q42 0 68 25t26 62q0 38 -24.5 62.5t-66.5 24.5q-41 0 -66.5 -24t-25.5 -64
q0 -39 24.5 -62.5t64.5 -23.5zM451 713q151 0 256 -106t105 -258t-105 -257t-256 -105q-152 0 -258 105t-106 257t106 258t258 106zM451 674q-134 0 -228 -95t-94 -230t94 -229t228 -94q135 0 228 94t93 229t-93 230t-228 95z" />
    <glyph glyph-name="uni24EA" unicode="&#x24ea;" horiz-adv-x="900" 
d="M451 549q70 0 109.5 -50t39.5 -149q0 -98 -39.5 -147.5t-109.5 -49.5t-109.5 49.5t-39.5 147.5q0 99 39.5 149t109.5 50zM451 506q-97 0 -97 -156q0 -155 97 -155q94 0 94 155q0 156 -94 156zM451 713q151 0 256 -106t105 -258t-105 -257t-256 -105q-152 0 -258 105
t-106 257t106 258t258 106zM451 674q-134 0 -228 -95t-94 -230t94 -229t228 -94q135 0 228 94t93 229t-93 230t-228 95z" />
    <glyph glyph-name="uni24FF" unicode="&#x24ff;" horiz-adv-x="900" 
d="M451 -13q-152 0 -258 105t-106 257t106 258t258 106q151 0 256 -106t105 -258t-105 -257t-256 -105zM450 153q70 0 109.5 49.5t39.5 147.5q0 99 -39.5 149t-109.5 50t-109.5 -50t-39.5 -149q0 -98 39.5 -147.5t109.5 -49.5zM450 195q-96 0 -96 155q0 157 96 157
q95 0 95 -157q0 -155 -95 -155z" />
    <glyph glyph-name="filledbox" unicode="&#x25a0;" 
d="M110 454h379v-379h-379v379z" />
    <glyph glyph-name="uni25A1" unicode="&#x25a1;" 
d="M109 454h380v-379h-380v379zM162 401v-273h274v273h-274z" />
    <glyph glyph-name="uni25B3" unicode="&#x25b3;" horiz-adv-x="900" 
d="M100 0l352 709l348 -709h-700zM190 53h521l-259 529z" />
    <glyph glyph-name="uni25B4" unicode="&#x25b4;" 
d="M299 454l190 -379h-379z" />
    <glyph glyph-name="uni25B8" unicode="&#x25b8;" 
d="M489 264l-379 -189v379z" />
    <glyph glyph-name="uni25BD" unicode="&#x25bd;" horiz-adv-x="900" 
d="M452 -9l-352 709h700zM711 647h-521l262 -529z" />
    <glyph glyph-name="uni25BE" unicode="&#x25be;" 
d="M299 75l-189 379h379z" />
    <glyph glyph-name="uni25C2" unicode="&#x25c2;" 
d="M110 264l379 190v-379z" />
    <glyph glyph-name="uni25C6" unicode="&#x25c6;" 
d="M300 539l260 -273l-260 -278l-260 278z" />
    <glyph glyph-name="uni25C7" unicode="&#x25c7;" 
d="M300 539l260 -273l-260 -278l-260 278zM300 467l-192 -201l192 -206l191 206z" />
    <glyph glyph-name="lozenge" unicode="&#x25ca;" 
d="M337 700l212 -340l-212 -360h-73l-212 359l212 341h73zM299 662l-185 -303l186 -321l185 321z" />
    <glyph glyph-name="circle" unicode="&#x25cb;" 
d="M301 27q-100 0 -170 70.5t-70 171.5q0 100 70 170.5t170 70.5t170 -70.5t70 -170.5q0 -101 -70 -171.5t-170 -70.5zM301 78q77 0 130 55t53 136t-53 135.5t-130 54.5q-78 0 -131 -54.5t-53 -135.5t53 -136t131 -55z" />
    <glyph glyph-name="uni25CF" unicode="&#x25cf;" 
d="M301 27q-101 0 -171.5 70.5t-70.5 171.5q0 100 71 170.5t171 70.5t170.5 -70.5t70.5 -170.5t-70.5 -171t-170.5 -71z" />
    <glyph glyph-name="uni2605" unicode="&#x2605;" horiz-adv-x="900" 
d="M611 267l79 -277l-242 177l-242 -177l80 280l-201 195l266 -29l94 277l96 -278l273 29z" />
    <glyph glyph-name="uni2610" unicode="&#x2610;" horiz-adv-x="900" 
d="M100 0v700h700v-700h-700zM154 54h592v592h-592v-592z" />
    <glyph glyph-name="uni2611" unicode="&#x2611;" horiz-adv-x="900" 
d="M100 0v700h700v-700h-700zM154 54h592v592h-592v-592zM565 538h41l-177 -365h-43l-77 163h43l56 -121z" />
    <glyph glyph-name="uni2612" unicode="&#x2612;" horiz-adv-x="900" 
d="M100 0v700h700v-700h-700zM154 54h592v592h-592v-592zM647 567l-161 -218l89 -180h-51l-72 148l-140 -188h-53l172 230l-86 176h50l69 -142l131 174h52z" />
    <glyph glyph-name="uni2620" unicode="&#x2620;" 
d="M300 129q-41 0 -72 10l-33 65q-17 10 -23.5 17t-9.5 21v42q-31 35 -31 102q0 66 48.5 109.5t120.5 43.5t120.5 -43.5t48.5 -109.5q0 -67 -31 -102v-42q-3 -14 -9.5 -21t-23.5 -17l-33 -65q-31 -10 -72 -10zM138 231l-57 28q-30 -19 -49 -19q-11 0 -19 7t-8 20q0 31 36 35
l3 7q-13 11 -13 29q0 13 8.5 21t23.5 8q36 0 41 -58l34 -20v-58zM462 231v58l34 20q5 58 41 58q15 0 23.5 -8t8.5 -21q0 -18 -13 -29l3 -7q36 -4 36 -35q0 -13 -8 -20t-19 -7q-19 0 -49 19zM219 285q17 0 28.5 10.5t11.5 26.5q0 17 -11.5 28t-28.5 11q-16 0 -27.5 -11
t-11.5 -28q0 -16 11.5 -26.5t27.5 -10.5zM381 285q16 0 27.5 10.5t11.5 26.5q0 17 -11.5 28t-27.5 11q-17 0 -28.5 -11t-11.5 -28q0 -16 11.5 -26.5t28.5 -10.5zM265 235v-29q7 0 18 3.5t17 3.5t17 -3.5t18 -3.5v29q-16 45 -35 45t-35 -45zM90 32q-15 0 -23.5 8t-8.5 21
q0 18 13 29l-3 7q-36 4 -36 35q0 13 8 20t19 7q19 0 49 -19l71 38l25 -47l-73 -41q-5 -58 -41 -58zM510 32q-36 0 -41 58l-73 41l25 47l71 -38q30 19 49 19q11 0 19 -7t8 -20q0 -31 -36 -35l-3 -7q13 -11 13 -29q0 -13 -8.5 -21t-23.5 -8z" />
    <glyph glyph-name="smileface" unicode="&#x263a;" 
d="M301 -9q-112 0 -190 78.5t-78 190.5t78 190.5t190 78.5q110 0 188.5 -78.5t78.5 -190.5t-78 -190.5t-189 -78.5zM301 32q91 0 154.5 65.5t63.5 162.5t-63.5 162t-154.5 65q-93 0 -156.5 -65t-63.5 -162q0 -98 63.5 -163t156.5 -65zM218 297q-20 0 -33 12.5t-13 32.5
q0 18 13 30.5t33 12.5t33 -12.5t13 -30.5q0 -20 -13 -32.5t-33 -12.5zM378 297q-20 0 -33 12.5t-13 32.5q0 18 13 30.5t33 12.5t33 -12.5t13 -30.5q0 -20 -13 -32.5t-33 -12.5zM301 101q-60 0 -102 39t-48 93h41q8 -40 36 -65.5t73 -25.5q44 0 71.5 25.5t35.5 65.5h42
q-7 -54 -48.5 -93t-100.5 -39z" />
    <glyph glyph-name="invsmileface" unicode="&#x263b;" 
d="M301 -9q-112 0 -190 78.5t-78 190.5t78 190.5t190 78.5q110 0 188.5 -78.5t78.5 -190.5t-78 -190.5t-189 -78.5zM212 301q20 0 33 12.5t13 32.5q0 18 -13 30.5t-33 12.5t-33 -12.5t-13 -30.5q0 -20 13 -32.5t33 -12.5zM387 301q20 0 33 12.5t13 32.5q0 18 -13 30.5
t-33 12.5t-33 -12.5t-13 -30.5q0 -20 13 -32.5t33 -12.5zM301 87q59 0 100.5 39t48.5 92h-42q-8 -39 -35.5 -65t-71.5 -26q-45 0 -73 26t-36 65h-41q6 -53 48 -92t102 -39z" />
    <glyph glyph-name="sun" unicode="&#x263c;" 
d="M319 530v-105q45 -4 84 -35l76 78l27 -27l-77 -77q31 -36 37 -87h105v-35h-105q-6 -51 -35 -87l75 -74l-27 -27l-75 75q-39 -31 -85 -35v-105h-38v106q-49 5 -85 34l-76 -75l-26 27l75 75q-29 37 -35 86h-105v35h106q4 48 35 87l-76 77l26 27l77 -78q36 29 84 34v106h38z
M301 385q-52 0 -87.5 -36.5t-35.5 -89.5q0 -54 35 -89.5t88 -35.5q51 0 86.5 35.5t35.5 89.5q0 53 -35.5 89.5t-86.5 36.5z" />
    <glyph glyph-name="female" unicode="&#x2640;" 
d="M322 227v-82h99v-38h-99v-107h-41v107h-100v38h100v81q-58 6 -96.5 49t-38.5 102q0 65 44 109t109 44t109 -44t44 -109q0 -58 -37 -100t-93 -50zM189 377q0 -47 32 -79.5t78 -32.5t78 32.5t32 79.5q0 48 -31.5 80.5t-78.5 32.5t-78.5 -32.5t-31.5 -80.5z" />
    <glyph glyph-name="male" unicode="&#x2642;" 
d="M510 520l32 -235l-38 -6l-24 178l-163 -195q47 -44 47 -110q0 -65 -45 -109t-109 -44t-108 44.5t-44 108.5t44.5 108t108.5 44q40 0 73 -18l163 196l-186 -10v38zM321 152q0 47 -32 79.5t-78 32.5t-78 -32.5t-32 -79.5q0 -48 31.5 -80.5t78.5 -32.5t78.5 32.5t31.5 80.5z
" />
    <glyph glyph-name="spade" unicode="&#x2660;" 
d="M80 0l20 45q97 0 139.5 29.5t42.5 125.5q-39 -64 -114 -64q-45 0 -71.5 26t-26.5 72q0 34 13.5 66t50.5 74.5t67.5 72t98.5 92.5q68 -63 98.5 -92.5t67.5 -72t50.5 -74.5t13.5 -66q0 -46 -26.5 -72t-71.5 -26q-75 0 -114 64q0 -96 42.5 -125.5t139.5 -29.5l20 -45h-440z
" />
    <glyph glyph-name="club" unicode="&#x2663;" 
d="M80 0l20 45q97 0 139.5 29.5t42.5 125.5q-40 -66 -108 -66q-49 0 -81.5 32t-32.5 82q0 48 30 78t77 30q34 0 67 -14q-54 44 -54 99q0 48 33 77t87 29t87 -29t33 -77q0 -55 -54 -99q33 14 67 14q47 0 77 -30t30 -78q0 -50 -32.5 -82t-81.5 -32q-69 0 -108 66
q0 -96 42.5 -125.5t139.5 -29.5l20 -45h-440z" />
    <glyph glyph-name="heart" unicode="&#x2665;" 
d="M434 539q56 0 91 -33.5t35 -90.5q0 -29 -6.5 -55t-27 -57t-34.5 -51t-55 -60t-60.5 -58t-76.5 -70q-140 128 -181 175q-79 92 -79 176q0 57 35 90.5t91 33.5q49 0 79 -23t55 -69q25 46 55 69t79 23z" />
    <glyph glyph-name="diamond" unicode="&#x2666;" 
d="M300 539l220 -273l-220 -278l-220 278z" />
    <glyph glyph-name="musicalnote" unicode="&#x266a;" 
d="M344 520l47 -30q49 -32 69.5 -58t20.5 -64q0 -30 -18 -68l-22 9q4 16 4 37q0 36 -16.5 59.5t-54.5 48.5l-30 19v-376q0 -46 -34 -77t-89 -31q-47 0 -75.5 19t-28.5 55q0 37 31.5 61.5t80.5 24.5q43 0 73 -17v388h42z" />
    <glyph glyph-name="musicalnotedbl" unicode="&#x266b;" 
d="M560 578v-426q0 -50 -35 -82.5t-93 -32.5q-44 0 -71 19t-27 53q0 36 35.5 62.5t88.5 26.5q36 0 60 -13v326l-252 -66v-342q0 -49 -34 -81.5t-94 -32.5q-44 0 -71 19.5t-27 52.5q0 38 33 63.5t84 25.5q42 0 66 -13v354z" />
    <glyph glyph-name="uni2713" unicode="&#x2713;" 
d="M450 570h59l-253 -522h-61l-110 234h61l80 -173z" />
    <glyph glyph-name="uni2717" unicode="&#x2717;" 
d="M562 570l-201 -272l111 -226h-63l-90 185l-175 -235h-66l214 288l-107 220h62l87 -177l164 217h64z" />
    <glyph glyph-name="uni2776" unicode="&#x2776;" horiz-adv-x="900" 
d="M451 -13q-152 0 -258 105t-106 257t106 258t258 106q151 0 256 -106t105 -258t-105 -257t-256 -105zM336 159h239v42h-87v340h-43q-13 -69 -106 -69v-41q67 0 97 33v-263h-100v-42z" />
    <glyph glyph-name="uni2777" unicode="&#x2777;" horiz-adv-x="900" 
d="M451 -13q-152 0 -258 105t-106 257t106 258t258 106q151 0 256 -106t105 -258t-105 -257t-256 -105zM310 159h280v42h-209q201 123 201 237q0 51 -35 81t-96 30q-66 0 -102 -35.5t-37 -85.5h54q1 35 22.5 57t60.5 22q37 0 57 -18.5t20 -52.5q0 -50 -53.5 -106.5
t-162.5 -129.5v-41z" />
    <glyph glyph-name="uni2778" unicode="&#x2778;" horiz-adv-x="900" 
d="M451 -13q-152 0 -258 105t-106 257t106 258t258 106q151 0 256 -106t105 -258t-105 -257t-256 -105zM451 153q64 0 105.5 31.5t41.5 85.5q0 41 -27.5 66t-67.5 28q38 5 60.5 28t22.5 57q0 45 -35.5 72.5t-97.5 27.5q-56 0 -93 -27t-48 -70l49 -8q8 30 31.5 47t59.5 17
t58 -16.5t22 -47.5t-22 -47t-56 -16h-39v-38h43q38 0 61.5 -19t23.5 -52q0 -37 -26 -57t-66 -20q-39 0 -65 19t-35 51l-49 -12q12 -46 51.5 -73t97.5 -27z" />
    <glyph glyph-name="uni2779" unicode="&#x2779;" horiz-adv-x="900" 
d="M451 -13q-152 0 -258 105t-106 257t106 258t258 106q151 0 256 -106t105 -258t-105 -257t-256 -105zM482 159h50v85h64v43h-64v254h-66l-193 -253v-44h209v-85zM325 287l157 201v-201h-157z" />
    <glyph glyph-name="uni277A" unicode="&#x277a;" horiz-adv-x="900" 
d="M451 -13q-152 0 -258 105t-106 257t106 258t258 106q151 0 256 -106t105 -258t-105 -257t-256 -105zM444 153q71 0 113 40t42 103q0 58 -38 94t-93 36q-61 0 -100 -39l17 112h185l7 42h-235l-28 -195l45 -7q37 44 94 44q40 0 66 -24.5t26 -64.5q0 -43 -27.5 -71.5
t-71.5 -28.5q-38 0 -63.5 18t-35.5 45l-47 -16q14 -37 50 -62.5t94 -25.5z" />
    <glyph glyph-name="uni277B" unicode="&#x277b;" horiz-adv-x="900" 
d="M451 -13q-152 0 -258 105t-106 257t106 258t258 106q151 0 256 -106t105 -258t-105 -257t-256 -105zM448 153q64 0 103.5 37t39.5 99q0 59 -37.5 93.5t-92.5 34.5q-39 0 -69 -18t-43 -47q9 156 107 156q57 0 79 -49l44 16q-35 74 -123 74q-75 0 -116.5 -59t-41.5 -173
q0 -81 41.5 -122.5t108.5 -41.5zM448 194q-41 0 -66.5 26.5t-25.5 67.5q0 38 26 63t67 25q40 0 64.5 -24.5t24.5 -65.5t-25 -66.5t-65 -25.5z" />
    <glyph glyph-name="uni277C" unicode="&#x277c;" horiz-adv-x="900" 
d="M451 -13q-152 0 -258 105t-106 257t106 258t258 106q151 0 256 -106t105 -258t-105 -257t-256 -105zM388 159h57q14 106 48.5 182.5t104.5 157.5v42h-280v-86h45v44h184q-69 -74 -106.5 -152t-52.5 -188z" />
    <glyph glyph-name="uni277D" unicode="&#x277d;" horiz-adv-x="900" 
d="M451 -13q-152 0 -258 105t-106 257t106 258t258 106q151 0 256 -106t105 -258t-105 -257t-256 -105zM449 153q83 0 120.5 33.5t37.5 78.5q0 38 -21.5 60.5t-78.5 40.5q33 11 55 35t22 54q0 38 -34 66t-101 28t-100.5 -29.5t-33.5 -67.5q0 -29 16 -50t54 -38
q-91 -21 -91 -101q0 -44 39 -77t116 -33zM465 379l-19 6q-43 12 -61.5 26.5t-18.5 39.5q0 24 21 41t62 17q42 0 63 -17t21 -41q0 -23 -19 -42t-49 -30zM449 194q-49 0 -75 20.5t-26 50.5q0 63 80 83l19 -5q59 -16 82.5 -31.5t23.5 -47.5q0 -28 -25 -49t-79 -21z" />
    <glyph glyph-name="uni277E" unicode="&#x277e;" horiz-adv-x="900" 
d="M451 -13q-152 0 -258 105t-106 257t106 258t258 106q151 0 256 -106t105 -258t-105 -257t-256 -105zM438 152q160 0 160 239q0 78 -40.5 118t-107.5 40q-64 0 -104.5 -35.5t-40.5 -94.5t37 -92.5t92 -33.5q41 0 69.5 17t41.5 45q-6 -162 -106 -162q-60 0 -86 51l-44 -18
q39 -74 129 -74zM448 334q-40 0 -64.5 24t-24.5 62q0 40 25.5 64t66.5 24q42 0 66.5 -24.5t24.5 -62.5q0 -37 -26.5 -62t-67.5 -25z" />
    <glyph glyph-name="fi" unicode="&#xfb01;" horiz-adv-x="523" 
d="M265 710q62 0 123 -23v-49q-58 24 -116 24q-113 0 -113 -93v-49h281v-520h-60v474h-221v-474h-60v474h-75v46h75v57q0 57 40.5 95t125.5 38z" />
    <glyph glyph-name="fl" unicode="&#xfb02;" horiz-adv-x="563" 
d="M259 710q54 0 114 -16l60 3v-570q0 -45 12 -63t49 -18q13 0 34 3v-49q-28 -5 -52 -5q-103 0 -103 122v530q-58 15 -107 15q-107 0 -107 -93v-49h140v-46h-140v-474h-60v474h-75v46h75v57q0 57 39.5 95t120.5 38z" />
    <glyph glyph-name="uniFEFF" unicode="&#xfeff;" horiz-adv-x="0" 
 />
    <glyph glyph-name="u1F310" unicode="&#x1f310;" horiz-adv-x="900" 
d="M450 708q148 0 253 -105t105 -254q0 -148 -105 -253t-253 -105q-149 0 -254 105t-105 253q0 149 105 254t254 105zM397 670q-114 -20 -191 -109q43 -29 85 -45q36 90 106 154zM693 561q-76 88 -188 108q69 -62 105 -152q37 15 83 44zM469 658v-168q59 2 107 16
q-38 95 -107 152zM431 490v167q-68 -56 -106 -152q50 -14 106 -15zM129 366h129q3 64 22 119q-49 18 -95 49q-50 -75 -56 -168zM644 366h126q-6 93 -57 167q-41 -28 -91 -47q19 -62 22 -120zM469 457v-91h137q-3 51 -19 108q-51 -14 -118 -17zM431 366v91q-67 3 -117 17
q-16 -50 -19 -108h136zM258 332h-129q6 -92 56 -167q45 31 94 49q-18 57 -21 118zM431 332h-136q3 -52 19 -107q58 15 117 16v91zM469 332v-91q61 -1 117 -17q17 54 20 108h-137zM770 332h-126q-3 -58 -22 -119q46 -17 92 -48q50 75 56 167zM431 42v167q-59 -3 -106 -16
q38 -95 106 -151zM469 209v-168q68 58 106 152q-48 13 -106 16zM207 137q76 -88 191 -108q-70 63 -107 153q-40 -15 -84 -45zM505 30q113 20 187 108q-39 26 -82 43q-36 -88 -105 -151z" />
    <glyph glyph-name="f_f.alt001" horiz-adv-x="623" 
d="M536 662q-52 0 -73.5 -23t-21.5 -70v-49h162v-46h-162v-474h-60v474h-222v-474h-60v474h-75v46h75v49q0 58 39.5 97.5t123.5 39.5q74 0 151 -36q38 40 116 40q44 0 84 -16v-46q-44 14 -77 14zM381 520v57q0 30 8 53q-64 28 -124 28q-106 0 -106 -93v-45h222z" />
    <glyph glyph-name="f.alt001" horiz-adv-x="341" 
d="M247 710q44 0 84 -16v-46q-44 14 -77 14q-52 0 -73.5 -23t-21.5 -70v-49h162v-46h-162v-474h-60v474h-75v46h75v57q0 58 34.5 95.5t113.5 37.5z" />
    <glyph glyph-name="j.alt001" horiz-adv-x="227" 
d="M15 -174q-26 0 -44 3v48q10 -1 28 -1q41 0 63 23.5t22 82.5v538h60v-550q0 -74 -37.5 -109t-91.5 -35zM114 712q16 0 28.5 -12t12.5 -29q0 -16 -12 -28t-29 -12t-29 12t-12 28q0 17 12.5 29t28.5 12z" />
    <glyph glyph-name="caron.alt001" horiz-adv-x="122" 
d="M156 725l-73 -140h-41l49 140h65z" />
    <glyph glyph-name="j.ss01.alt001" horiz-adv-x="227" 
d="M15 -174q-26 0 -44 3v48q10 -1 28 -1q41 0 63 23.5t22 82.5v538h60v-550q0 -74 -37.5 -109t-91.5 -35zM150 708v-66h-71v66h71z" />
    <glyph glyph-name="parenleft.numr" horiz-adv-x="300" 
d="M190 747h36q-77 -119 -77 -242q0 -125 77 -242h-37q-41 52 -63.5 118t-22.5 124t23 123.5t64 118.5z" />
    <glyph glyph-name="parenright.numr" horiz-adv-x="300" 
d="M94 747h36q41 -53 64 -118.5t23 -123.5t-22.5 -124t-63.5 -118h-37q77 117 77 242t-77 242z" />
    <glyph glyph-name="plus.numr" horiz-adv-x="378" 
d="M205 617v-103h105v-41h-105v-104h-45v104h-104v41h104v103h45z" />
    <glyph glyph-name="zero.numr" horiz-adv-x="400" 
d="M200 709q77 0 120.5 -55t43.5 -164q0 -108 -43.5 -162.5t-120.5 -54.5t-120.5 54.5t-43.5 162.5q0 109 43.5 164t120.5 55zM200 662q-106 0 -106 -172q0 -170 106 -170q104 0 104 170q0 172 -104 172z" />
    <glyph glyph-name="one.numr" horiz-adv-x="400" 
d="M82 280v46h110v258h-107v40h24q53 0 71 15.5t22 60.5h47v-374h96v-46h-263z" />
    <glyph glyph-name="two.numr" horiz-adv-x="400" 
d="M202 709q66 0 104.5 -33.5t38.5 -88.5q0 -126 -221 -261h230v-46h-308v45q120 81 178.5 143t58.5 116q0 38 -21.5 58.5t-62.5 20.5q-43 0 -66.5 -24.5t-25.5 -63.5h-58q1 56 40.5 95t112.5 39z" />
    <glyph glyph-name="three.numr" horiz-adv-x="400" 
d="M203 709q69 0 108 -30.5t39 -79.5q0 -38 -25 -63t-67 -30q45 -4 75 -31.5t30 -72.5q0 -59 -45.5 -94t-116.5 -35q-64 0 -107 29.5t-57 81.5l54 12q9 -35 37.5 -55.5t72.5 -20.5t72.5 22t28.5 62q0 37 -25.5 57.5t-67.5 20.5h-48v42h43q37 0 61.5 17.5t24.5 51.5t-24 52.5
t-64 18.5t-66 -19t-34 -52l-54 9q12 47 53 77t102 30z" />
    <glyph glyph-name="four.numr" horiz-adv-x="400" 
d="M307 700v-280h71v-46h-71v-94h-56v94h-229v48l212 278h73zM251 641l-172 -221h172v221z" />
    <glyph glyph-name="five.numr" horiz-adv-x="400" 
d="M340 700l-7 -46h-204l-18 -124q40 43 110 43q60 0 102 -39.5t42 -102.5q0 -70 -46 -114t-124 -44q-65 0 -104.5 28.5t-54.5 68.5l51 17q12 -29 39.5 -48.5t70.5 -19.5q49 0 78.5 31t29.5 78q0 45 -28.5 71.5t-72.5 26.5q-64 0 -102 -48l-50 8l30 214h258z" />
    <glyph glyph-name="six.numr" horiz-adv-x="400" 
d="M212 709q96 0 136 -81l-49 -18q-25 54 -87 54q-107 0 -118 -172q15 32 48 51.5t76 19.5q61 0 102 -37.5t41 -102.5q0 -68 -44 -109t-114 -41q-74 0 -119.5 45.5t-45.5 135.5q0 125 46 190t128 65zM204 518q-45 0 -74 -27.5t-29 -69.5q0 -45 28 -74t73 -29q44 0 71.5 28
t27.5 74q0 44 -26.5 71t-70.5 27z" />
    <glyph glyph-name="seven.numr" horiz-adv-x="400" 
d="M354 700v-46q-77 -89 -115 -173.5t-53 -200.5h-63q17 122 58.5 207t116.5 167h-202v-48h-50v94h308z" />
    <glyph glyph-name="eight.numr" horiz-adv-x="400" 
d="M199 273q-85 0 -128 36.5t-43 84.5q0 87 100 112q-77 33 -77 96q0 42 37 74.5t111 32.5q73 0 110.5 -31.5t37.5 -72.5q0 -33 -24.5 -59t-60.5 -39q62 -19 86 -44t24 -67q0 -49 -41.5 -86t-131.5 -37zM196 528l21 -6q74 28 74 79q0 27 -22.5 45.5t-68.5 18.5
q-45 0 -68.5 -19t-23.5 -45q0 -28 20.5 -43.5t67.5 -29.5zM198 318q59 0 86.5 23t27.5 54q0 35 -25.5 52.5t-90.5 34.5l-21 6q-88 -21 -88 -92q0 -33 28.5 -55.5t82.5 -22.5z" />
    <glyph glyph-name="nine.numr" horiz-adv-x="400" 
d="M186 271q-99 0 -142 81l48 20q28 -56 94 -56q111 0 117 178q-14 -30 -46 -49t-76 -19q-61 0 -101.5 37t-40.5 102q0 64 45 103.5t115 39.5q73 0 117.5 -44.5t44.5 -129.5q0 -263 -175 -263zM196 472q46 0 74.5 27.5t28.5 67.5q0 42 -27 69t-73 27q-45 0 -73 -26.5
t-28 -70.5q0 -43 26.5 -68.5t71.5 -25.5z" />
    <glyph glyph-name="equal.numr" horiz-adv-x="378" 
d="M310 574v-42h-254v42h254zM310 451v-41h-254v41h254z" />
    <glyph glyph-name="minus.numr" horiz-adv-x="378" 
d="M310 514v-41h-254v41h254z" />
    <glyph glyph-name="parenleft.dnom" horiz-adv-x="300" 
d="M190 449h36q-77 -119 -77 -242q0 -125 77 -242h-37q-41 52 -63.5 118t-22.5 124t23 123.5t64 118.5z" />
    <glyph glyph-name="parenright.dnom" horiz-adv-x="300" 
d="M74 449h36q41 -53 64 -118.5t23 -123.5t-22.5 -124t-63.5 -118h-37q77 117 77 242t-77 242z" />
    <glyph glyph-name="plus.dnom" horiz-adv-x="366" 
d="M205 317v-103h105v-41h-105v-104h-45v104h-104v41h104v103h45z" />
    <glyph glyph-name="zero.dnom" horiz-adv-x="400" 
d="M200 429q77 0 120.5 -55t43.5 -164q0 -108 -43.5 -162.5t-120.5 -54.5t-120.5 54.5t-43.5 162.5q0 109 43.5 164t120.5 55zM200 382q-106 0 -106 -172q0 -170 106 -170q104 0 104 170q0 172 -104 172z" />
    <glyph glyph-name="one.dnom" horiz-adv-x="400" 
d="M82 0v46h110v258h-107v40h24q53 0 71 15.5t22 60.5h47v-374h96v-46h-263z" />
    <glyph glyph-name="two.dnom" horiz-adv-x="400" 
d="M202 429q66 0 104.5 -33.5t38.5 -88.5q0 -126 -221 -261h230v-46h-308v45q120 81 178.5 143t58.5 116q0 38 -21.5 58.5t-62.5 20.5q-43 0 -66.5 -24.5t-25.5 -63.5h-58q1 56 40.5 95t112.5 39z" />
    <glyph glyph-name="three.dnom" horiz-adv-x="400" 
d="M203 429q69 0 108 -30.5t39 -79.5q0 -38 -25 -63t-67 -30q45 -4 75 -31.5t30 -72.5q0 -59 -45.5 -94t-116.5 -35q-64 0 -107 29.5t-57 81.5l54 12q9 -35 37.5 -55.5t72.5 -20.5t72.5 22t28.5 62q0 37 -25.5 57.5t-67.5 20.5h-48v42h43q37 0 61.5 17.5t24.5 51.5t-24 52.5
t-64 18.5t-66 -19t-34 -52l-54 9q12 47 53 77t102 30z" />
    <glyph glyph-name="four.dnom" horiz-adv-x="400" 
d="M307 420v-280h71v-46h-71v-94h-56v94h-229v48l212 278h73zM251 361l-172 -221h172v221z" />
    <glyph glyph-name="five.dnom" horiz-adv-x="400" 
d="M340 420l-7 -46h-204l-18 -124q40 43 110 43q60 0 102 -39.5t42 -102.5q0 -70 -46 -114t-124 -44q-65 0 -104.5 28.5t-54.5 68.5l51 17q12 -29 39.5 -48.5t70.5 -19.5q49 0 78.5 31t29.5 78q0 45 -28.5 71.5t-72.5 26.5q-64 0 -102 -48l-50 8l30 214h258z" />
    <glyph glyph-name="six.dnom" horiz-adv-x="400" 
d="M212 429q96 0 136 -81l-49 -18q-25 54 -87 54q-107 0 -118 -172q15 32 48 51.5t76 19.5q61 0 102 -37.5t41 -102.5q0 -68 -44 -109t-114 -41q-74 0 -119.5 45.5t-45.5 135.5q0 125 46 190t128 65zM204 238q-45 0 -74 -27.5t-29 -69.5q0 -45 28 -74t73 -29q44 0 71.5 28
t27.5 74q0 44 -26.5 71t-70.5 27z" />
    <glyph glyph-name="seven.dnom" horiz-adv-x="400" 
d="M354 420v-46q-77 -89 -115 -173.5t-53 -200.5h-63q17 122 58.5 207t116.5 167h-202v-48h-50v94h308z" />
    <glyph glyph-name="eight.dnom" horiz-adv-x="400" 
d="M199 -7q-85 0 -128 36.5t-43 84.5q0 87 100 112q-77 33 -77 96q0 42 37 74.5t111 32.5q73 0 110.5 -31.5t37.5 -72.5q0 -33 -24.5 -59t-60.5 -39q62 -19 86 -44t24 -67q0 -49 -41.5 -86t-131.5 -37zM196 248l21 -6q74 28 74 79q0 27 -22.5 45.5t-68.5 18.5
q-45 0 -68.5 -19t-23.5 -45q0 -28 20.5 -43.5t67.5 -29.5zM198 38q59 0 86.5 23t27.5 54q0 35 -25.5 52.5t-90.5 34.5l-21 6q-88 -21 -88 -92q0 -33 28.5 -55.5t82.5 -22.5z" />
    <glyph glyph-name="nine.dnom" horiz-adv-x="400" 
d="M186 -8q-99 0 -142 81l48 20q28 -56 94 -56q111 0 117 178q-14 -30 -46 -49t-76 -19q-61 0 -101.5 37t-40.5 102q0 64 45 103.5t115 39.5q73 0 117.5 -44.5t44.5 -129.5q0 -263 -175 -263zM196 193q46 0 74.5 27.5t28.5 67.5q0 42 -27 69t-73 27q-45 0 -73 -26.5
t-28 -70.5q0 -43 26.5 -68.5t71.5 -25.5z" />
    <glyph glyph-name="equal.dnom" horiz-adv-x="378" 
d="M310 274v-42h-254v42h254zM310 151v-41h-254v41h254z" />
    <glyph glyph-name="minus.dnom" horiz-adv-x="366" 
d="M310 214v-41h-254v41h254z" />
    <glyph glyph-name="space.frac" horiz-adv-x="53" 
 />
    <glyph glyph-name="uni0394.osf" horiz-adv-x="599" 
d="M340 700l244 -700h-569l245 700h80zM97 53h401l-200 592z" />
    <glyph glyph-name="numbersign.tf" 
d="M543 462h-89l-33 -227h84v-45h-91l-27 -190h-51l27 190h-156l-27 -190h-51l27 190h-81v45h88l33 227h-84v45h90l28 193h51l-28 -193h156l28 193h51l-28 -193h83v-45zM370 235l33 227h-156l-33 -227h156z" />
    <glyph glyph-name="dollar.tf" 
d="M335 835v-122q128 -14 192 -114l-38 -30q-23 37 -64 63.5t-92 32.5v-279q107 -25 152.5 -70t45.5 -127q0 -85 -51.5 -140t-144.5 -61v-137h-48v137q-152 9 -221 114l44 32q60 -88 179 -100v311q-99 24 -145 68.5t-46 118.5q0 79 50.5 127.5t138.5 53.5v122h48zM290 396
v271q-65 -4 -101 -40.5t-36 -92.5q0 -55 31.5 -87t105.5 -51zM333 335v-301q66 4 104.5 46.5t38.5 105.5q0 57 -31 92.5t-112 56.5z" />
    <glyph glyph-name="zero.tf" 
d="M300 713q113 0 177.5 -91.5t64.5 -273.5q0 -179 -64.5 -270t-177.5 -91t-177.5 91t-64.5 270q0 182 64.5 273.5t177.5 91.5zM300 663q-86 0 -133 -78t-47 -236q0 -155 47 -233.5t133 -78.5t133 78.5t47 233.5q0 314 -180 314z" />
    <glyph glyph-name="one.tf" 
d="M132 0v51h166v468h-162v47h40q77 0 103 27.5t33 106.5h46v-649h152v-51h-378z" />
    <glyph glyph-name="two.tf" 
d="M304 710q97 0 152 -54t55 -143q0 -110 -93.5 -230t-259.5 -232h367v-51h-446v49q186 139 277.5 249.5t91.5 210.5q0 72 -38 111t-107 39q-74 0 -115 -43.5t-42 -113.5h-62q2 85 59.5 146.5t160.5 61.5z" />
    <glyph glyph-name="three.tf" 
d="M305 713q100 0 155 -49.5t55 -132.5q0 -64 -37 -106t-96 -50q63 -6 108 -52.5t45 -121.5q0 -99 -67 -156.5t-169 -57.5q-93 0 -155.5 48.5t-82.5 132.5l59 14q16 -64 62.5 -104t119.5 -40q74 0 122.5 42.5t48.5 121.5q0 68 -42.5 108t-109.5 40h-75v45h68
q61 0 100.5 33.5t39.5 99.5q0 64 -41 99.5t-107 35.5q-67 0 -110 -36t-57 -97l-58 10q14 73 73.5 123t150.5 50z" />
    <glyph glyph-name="four.tf" 
d="M446 700v-477h117v-52h-117v-171h-59v171h-354v54l339 475h74zM387 633l-290 -410h290v410z" />
    <glyph glyph-name="five.tf" 
d="M502 700l-8 -51h-318l-30 -232q66 75 172 75q92 0 155.5 -65.5t63.5 -170.5q0 -120 -67 -194.5t-179 -74.5q-94 0 -152.5 47t-79.5 108l55 17q15 -49 61.5 -85.5t117.5 -36.5q83 0 133.5 60.5t50.5 154.5q0 87 -48 138.5t-121 51.5q-106 0 -173 -91l-52 7l46 342h373z
" />
    <glyph glyph-name="six.tf" 
d="M320 713q141 0 197 -133l-54 -17q-42 100 -143 100q-178 0 -197 -329q22 58 75 92.5t122 34.5q95 0 155.5 -63t60.5 -171t-63 -174t-167 -66q-105 0 -171.5 76t-66.5 218q0 211 66.5 321.5t185.5 110.5zM309 410q-77 0 -126.5 -50t-49.5 -126q0 -86 48 -141t125 -55
q75 0 122 51t47 138q0 84 -45 133.5t-121 49.5z" />
    <glyph glyph-name="seven.tf" 
d="M537 701v-53q-124 -149 -184 -299t-84 -348h-65q27 206 89 354t180 293h-337v-80h-53v133h454z" />
    <glyph glyph-name="eight.tf" 
d="M298 713q104 0 157 -52t53 -122q0 -60 -37.5 -99.5t-94.5 -59.5q83 -28 125.5 -74t42.5 -118q0 -35 -12.5 -68t-39.5 -64t-77 -50t-117 -19q-62 0 -110.5 17.5t-76 47t-41.5 63.5t-14 71q0 74 41.5 123.5t114.5 66.5q-123 49 -123 163q0 68 53 121t156 53zM298 664
q-72 0 -110 -37t-38 -89q0 -55 36 -88t112 -49l28 -6q122 50 122 143q0 52 -37 89t-113 37zM291 351l-26 7q-148 -32 -148 -170q0 -62 47.5 -106t133.5 -44q95 0 139.5 47t44.5 106q0 68 -46.5 102t-144.5 58z" />
    <glyph glyph-name="nine.tf" 
d="M301 713q106 0 169.5 -72.5t63.5 -208.5q0 -445 -254 -445q-147 0 -206 124l52 23q45 -97 155 -97q183 0 194 337q-21 -54 -72 -88t-120 -34q-93 0 -154 61t-61 165t65 169.5t168 65.5zM300 662q-75 0 -123 -50t-48 -134q0 -80 45 -127t121 -47q77 0 125.5 50.5
t48.5 124.5q0 81 -46 132t-123 51z" />
    <glyph glyph-name="cent.tf" 
d="M481 154l49 -18q-55 -135 -202 -145v-140h-41v140q-102 7 -157.5 81.5t-55.5 185.5q0 113 56 187t157 83v140h41v-139q67 -4 118 -38.5t75 -87.5l-47 -20q-42 92 -148 98v-443q112 8 155 116zM132 259q0 -96 40 -155t117 -66v443q-76 -7 -116.5 -66t-40.5 -156z" />
    <glyph glyph-name="sterling.tf" 
d="M344 713q71 0 115.5 -39t62.5 -101l-57 -15q-13 50 -41.5 78.5t-81.5 28.5q-58 0 -94 -40.5t-36 -104.5v-163h219v-39h-219v-146q0 -47 -10 -74t-39 -47h349v-51h-415l-7 47q38 16 51 43.5t13 79.5v148h-81v39h81v166q0 79 50 134.5t140 55.5z" />
    <glyph glyph-name="yen.tf" 
d="M549 700l-204 -368h147v-37h-161v-106h161v-38h-161v-151h-58v151h-162v38h162v106h-162v37h147l-208 368h64l189 -350l184 350h62z" />
    <glyph glyph-name="uni0394.tf" 
d="M340 700l233 -700h-546l233 700h80zM108 53h380l-190 591z" />
    <glyph glyph-name="uni2007.tf" 
 />
    <glyph glyph-name="figuredash.tf" 
d="M556 354v-54h-512v54h512z" />
    <glyph glyph-name="Euro.tf" horiz-adv-x="586" 
d="M378 713q111 0 177 -80l-19 -52q-64 82 -158 82q-78 0 -129.5 -58t-64.5 -168h299l-13 -37h-289q-2 -17 -2 -52q0 -36 2 -52h259l-12 -38h-244q10 -110 58.5 -166t126.5 -56q95 0 158 71v-61q-66 -59 -159 -59q-95 0 -160 65t-81 206h-82l12 38h66q-2 32 -2 52q0 18 2 52
h-74l12 37h67q17 136 85.5 206t164.5 70z" />
    <glyph glyph-name="dollar.lf" horiz-adv-x="680" 
d="M376 828v-122q148 -10 229 -118l-48 -34q-25 39 -72 67t-111 33v-268q131 -25 184 -70.5t53 -126.5q0 -86 -61 -141.5t-174 -59.5v-136h-48v136q-77 3 -146.5 32.5t-112.5 85.5l45 38q75 -95 216 -103v297q-117 22 -171 69t-54 122q0 77 60 125.5t163 52.5v121h48z
M330 395v260q-78 -3 -120.5 -36.5t-42.5 -87.5q0 -56 36 -86.5t127 -49.5zM374 331v-291q83 4 128 43t45 103q0 56 -36.5 90.5t-136.5 54.5z" />
    <glyph glyph-name="zero.lf" horiz-adv-x="592" 
d="M297 -12q-117 0 -189.5 91.5t-72.5 262.5q0 173 72 263t190 90q116 0 188 -90t72 -263q0 -171 -72 -262.5t-188 -91.5zM296 39q89 0 144.5 79t55.5 224q0 149 -55 225.5t-145 76.5q-91 0 -145.5 -76.5t-54.5 -225.5q0 -146 55 -224.5t145 -78.5z" />
    <glyph glyph-name="one.lf" horiz-adv-x="465" 
d="M81 0v51h166v452h-162v47h40q77 0 103 27.5t33 106.5h46v-633h152v-51h-378z" />
    <glyph glyph-name="two.lf" horiz-adv-x="607" 
d="M311 695q98 0 154.5 -55.5t56.5 -145.5q0 -106 -93.5 -215t-268.5 -228h373v-51h-452v49q198 143 288.5 244.5t90.5 200.5q0 70 -39.5 110t-109.5 40q-79 0 -122 -45t-45 -121h-61q2 91 61.5 154t166.5 63z" />
    <glyph glyph-name="three.lf" horiz-adv-x="601" 
d="M306 695q103 0 159 -50t56 -131q0 -60 -39 -101.5t-101 -49.5q66 -6 113.5 -50.5t47.5 -114.5q0 -95 -69 -152.5t-172 -57.5q-97 0 -161 48.5t-85 132.5l59 14q16 -64 64.5 -104t122.5 -40q78 0 128.5 42t50.5 117q0 64 -44 102t-114 38h-76v47h69q63 0 104 32.5t41 94.5
t-42.5 97.5t-111.5 35.5t-113 -36.5t-59 -94.5l-58 10q15 70 76 120.5t154 50.5z" />
    <glyph glyph-name="four.lf" horiz-adv-x="631" 
d="M460 684v-461h120v-52h-120v-171h-58v171h-361v54l346 459h73zM402 622l-300 -399h300v399z" />
    <glyph glyph-name="five.lf" horiz-adv-x="608" 
d="M296 -12q-94 0 -152.5 47.5t-79.5 108.5l55 17q15 -49 61.5 -85.5t117.5 -36.5q82 0 133 58.5t51 145.5t-48 138.5t-121 51.5q-107 0 -173 -91l-52 7l45 335h374l-8 -51h-318l-31 -225q67 76 173 76q92 0 155.5 -66t63.5 -171q0 -113 -67.5 -186t-178.5 -73z" />
    <glyph glyph-name="six.lf" horiz-adv-x="555" 
d="M304 695q139 0 195 -135l-53 -17q-40 103 -142 103q-179 0 -197 -318q24 54 76 89.5t119 35.5q96 0 157 -62t61 -168q0 -104 -64 -169.5t-168 -65.5q-107 0 -173 74.5t-66 212.5q0 201 67.5 310.5t187.5 109.5zM291 403q-75 0 -126.5 -52.5t-51.5 -124.5q0 -80 48 -134
t126 -54t125.5 50.5t47.5 134.5q0 81 -46 130.5t-123 49.5z" />
    <glyph glyph-name="seven.lf" horiz-adv-x="501" 
d="M477 684v-53q-126 -148 -185.5 -291t-83.5 -340h-64q25 206 86 347t184 284h-322v-80h-53v133h438z" />
    <glyph glyph-name="eight.lf" horiz-adv-x="580" 
d="M288 695q108 0 162 -51.5t54 -120.5q0 -108 -137 -153q173 -55 173 -183q0 -34 -13 -67t-40 -63.5t-78.5 -49.5t-120.5 -19q-124 0 -186 59.5t-62 138.5q0 69 43 116.5t118 65.5q-128 47 -128 155q0 67 54 119.5t161 52.5zM288 647q-76 0 -116 -36.5t-40 -88.5
q0 -51 37.5 -79.5t118.5 -50.5l28 -7q129 50 129 137q0 51 -39 88t-118 37zM281 343l-23 7q-158 -31 -158 -162q0 -61 49 -105.5t139 -44.5q99 0 145.5 47t46.5 105q0 62 -45.5 91.5t-153.5 61.5z" />
    <glyph glyph-name="nine.lf" horiz-adv-x="603" 
d="M297 713q107 0 173 -73t66 -212q0 -441 -258 -441q-148 0 -211 122l51 24q50 -97 160 -97q187 0 199 336q-22 -57 -74 -92.5t-122 -35.5q-95 0 -157 62.5t-62 168.5q0 107 65 172.5t170 65.5zM298 663q-77 0 -126 -51t-49 -137q0 -80 46 -130t124 -50q77 0 127 54t50 128
q0 82 -47.5 134t-124.5 52z" />
    <glyph glyph-name="cent.lf" horiz-adv-x="620" 
d="M491 154l49 -18q-55 -135 -202 -145v-140h-41v140q-102 7 -157.5 81.5t-55.5 185.5q0 113 56 187t157 83v140h41v-139q67 -4 118 -38.5t75 -87.5l-47 -20q-42 92 -148 98v-443q112 8 155 116zM142 259q0 -96 40 -155t117 -66v443q-76 -7 -116.5 -66t-40.5 -156z" />
    <glyph glyph-name="sterling.lf" horiz-adv-x="680" 
d="M386 713q75 0 123 -39.5t67 -100.5l-57 -17q-30 107 -135 107q-64 0 -103 -40t-39 -103v-165h241v-37h-241v-146q0 -46 -10.5 -72t-44.5 -47h378v-53h-439l-7 47q41 18 53.5 44.5t12.5 78.5v148h-84v37h84v168q0 80 52 135t149 55z" />
    <glyph glyph-name="yen.lf" horiz-adv-x="633" 
d="M589 700l-221 -368h147v-37h-168v-106h168v-38h-168v-151h-61v151h-169v38h169v106h-169v37h148l-226 368h69l210 -350l204 350h67z" />
    <glyph glyph-name="uni0394.lf" horiz-adv-x="606" 
d="M327 680l244 -680h-569l245 680h80zM84 53h401l-200 577z" />
    <glyph glyph-name="figuredash.lf" 
d="M556 354v-54h-512v54h512z" />
    <glyph glyph-name="Euro.lf" horiz-adv-x="680" 
d="M410 713q119 0 191 -80l-20 -56q-69 82 -172 82q-86 0 -141.5 -57t-71.5 -165h326l-13 -37h-318q-2 -17 -2 -52q0 -36 2 -52h284l-13 -38h-267q23 -217 204 -217q106 0 172 70v-65q-70 -59 -172 -59q-103 0 -173.5 65t-87.5 206h-90l13 38h73q-2 32 -2 52q0 18 2 52h-82
l13 37h73q19 136 93.5 206t178.5 70z" />
    <glyph glyph-name="dollar.tosf" 
d="M335 835v-122q128 -14 192 -114l-38 -30q-23 37 -64 63.5t-92 32.5v-279q107 -25 152.5 -70t45.5 -127q0 -85 -51.5 -140t-144.5 -61v-137h-48v137q-152 9 -221 114l44 32q60 -88 179 -100v311q-99 24 -145 68.5t-46 118.5q0 79 50.5 127.5t138.5 53.5v122h48zM290 396
v271q-65 -4 -101 -40.5t-36 -92.5q0 -55 31.5 -87t105.5 -51zM333 335v-301q66 4 104.5 46.5t38.5 105.5q0 57 -31 92.5t-112 56.5z" />
    <glyph glyph-name="zero.tosf" 
d="M300 583q112 0 183.5 -81t71.5 -218q0 -136 -71.5 -215.5t-183.5 -79.5t-183.5 79.5t-71.5 215.5q0 137 71.5 218t183.5 81zM300 533q-85 0 -139 -67t-54 -183q0 -112 54 -177.5t139 -65.5q86 0 139.5 64.5t53.5 178.5q0 116 -53.5 183t-139.5 67z" />
    <glyph glyph-name="one.tosf" 
d="M132 0v51h166v338h-162v47h40q77 0 103 27.5t33 106.5h46v-519h152v-51h-378z" />
    <glyph glyph-name="two.tosf" 
d="M305 581q93 0 147.5 -49t54.5 -130q0 -91 -79.5 -171.5t-254.5 -179.5h346v-51h-437v49q201 123 281.5 198t80.5 152q0 63 -38 97.5t-101 34.5q-73 0 -116 -43.5t-44 -101.5h-62q3 76 62 135.5t160 59.5z" />
    <glyph glyph-name="three.tosf" 
d="M306 583q102 0 157.5 -48.5t55.5 -127.5q0 -65 -37.5 -107.5t-97.5 -50.5q63 -6 109.5 -53.5t46.5 -122.5q0 -100 -67.5 -158.5t-170.5 -58.5q-92 0 -157.5 50t-85.5 138l58 14q15 -70 63 -110.5t122 -40.5q77 0 126.5 43t49.5 123q0 70 -43 110t-113 40h-73v46h65
q63 0 103.5 34t40.5 101q0 61 -42 96t-111 35q-68 0 -111 -35.5t-58 -96.5l-58 10q14 73 74.5 121.5t153.5 48.5z" />
    <glyph glyph-name="four.tosf" 
d="M445 570v-519h120v-51h-120v-130h-59v130h-350v53l334 517h75zM386 500l-288 -449h288v449z" />
    <glyph glyph-name="five.tosf" 
d="M507 569l-8 -50h-318l-30 -232q66 75 172 75q92 0 155.5 -66t63.5 -171q0 -120 -67 -194.5t-179 -74.5q-94 0 -152.5 47.5t-79.5 108.5l55 17q15 -49 61.5 -85.5t117.5 -36.5q83 0 133.5 60t50.5 155q0 87 -48 138t-121 51q-107 0 -173 -91l-52 7l46 342h373z" />
    <glyph glyph-name="six.tosf" 
d="M315 695q139 0 195 -135l-53 -17q-40 103 -142 103q-179 0 -197 -318q24 54 76 89.5t119 35.5q96 0 157 -62t61 -168q0 -104 -64 -169.5t-168 -65.5q-107 0 -173 74.5t-66 212.5q0 201 67.5 310.5t187.5 109.5zM302 403q-75 0 -126.5 -52.5t-51.5 -124.5q0 -80 48 -134
t126 -54t125.5 50.5t47.5 134.5q0 81 -46 130.5t-123 49.5z" />
    <glyph glyph-name="seven.tosf" 
d="M529 570v-51q-125 -157 -191.5 -307.5t-90.5 -341.5h-63q24 198 93.5 347t194.5 301h-332v-79h-53v131h442z" />
    <glyph glyph-name="eight.tosf" 
d="M298 695q104 0 154.5 -51.5t50.5 -120.5q0 -111 -132 -158q84 -24 126 -66.5t42 -112.5q0 -35 -12 -67.5t-38 -63t-75 -49t-116 -18.5q-62 0 -110 17.5t-74.5 46.5t-39.5 62t-13 68q0 71 41.5 119.5t116.5 65.5q-66 24 -95.5 61.5t-29.5 93.5q0 67 50.5 120t153.5 53z
M298 647q-73 0 -109 -37t-36 -89t34.5 -83t109.5 -49l27 -7q120 49 120 141q0 50 -35.5 87t-110.5 37zM293 340l-23 7q-148 -30 -148 -165q0 -57 45.5 -100.5t130.5 -43.5q50 0 87 14t56 37.5t28 47.5t9 49q0 63 -43 95.5t-142 58.5z" />
    <glyph glyph-name="nine.tosf" 
d="M298 583q107 0 173 -72.5t66 -211.5q0 -227 -63.5 -335.5t-194.5 -108.5q-147 0 -211 124l51 23q49 -97 160 -97q188 0 201 338q-23 -57 -75.5 -93.5t-122.5 -36.5q-95 0 -157 63t-62 169q0 107 65 172.5t170 65.5zM299 533q-77 0 -126 -50.5t-49 -137.5q0 -81 46 -131
t124 -50q76 0 126.5 55t50.5 128q0 83 -47 134.5t-125 51.5z" />
    <glyph glyph-name="cent.tosf" 
d="M479 154l49 -18q-55 -135 -202 -145v-140h-41v140q-102 7 -157.5 81.5t-55.5 185.5q0 113 56 187t157 83v140h41v-139q67 -4 118 -38.5t75 -87.5l-47 -20q-42 92 -148 98v-443q112 8 155 116zM130 259q0 -96 40 -155t117 -66v443q-76 -7 -116.5 -66t-40.5 -156z" />
    <glyph glyph-name="sterling.tosf" 
d="M344 713q71 0 115.5 -39t62.5 -101l-57 -15q-13 50 -41.5 78.5t-81.5 28.5q-58 0 -94 -40.5t-36 -104.5v-163h219v-39h-219v-146q0 -47 -10 -74t-39 -47h349v-51h-415l-7 47q38 16 51 43.5t13 79.5v148h-81v39h81v166q0 79 50 134.5t140 55.5z" />
    <glyph glyph-name="yen.tosf" 
d="M549 700l-204 -368h147v-37h-161v-106h161v-38h-161v-151h-58v151h-162v38h162v106h-162v37h147l-208 368h64l189 -350l184 350h62z" />
    <glyph glyph-name="uni0394.tosf" 
d="M340 680l233 -680h-546l233 680h80zM109 53h378l-189 573z" />
    <glyph glyph-name="uni2007.tosf" 
 />
    <glyph glyph-name="figuredash.tosf" 
d="M556 314v-54h-512v54h512z" />
    <glyph glyph-name="Euro.tosf" 
d="M385 713q111 0 177 -80l-19 -52q-64 82 -158 82q-78 0 -129.5 -58t-64.5 -168h299l-13 -37h-289q-2 -17 -2 -52q0 -36 2 -52h259l-12 -38h-244q10 -110 58.5 -166t126.5 -56q95 0 158 71v-61q-66 -59 -159 -59q-95 0 -160 65t-81 206h-82l12 38h66q-2 32 -2 52q0 18 2 52
h-74l12 37h67q17 136 85.5 206t164.5 70z" />
    <glyph glyph-name="numbersign.sc" 
d="M529 359h-90l-21 -144h84v-45h-90l-25 -170h-51l25 170h-156l-25 -170h-51l25 170h-82v45h88l21 144h-82v45h88l25 170h51l-25 -170h156l25 170h51l-25 -170h84v-45zM367 215l21 144h-156l-21 -144h156z" />
    <glyph glyph-name="dollar.sc" horiz-adv-x="563" 
d="M315 686v-107q133 -10 204 -106l-45 -33q-55 79 -161 88v-208q118 -24 164.5 -61t46.5 -105q0 -69 -54 -115t-155 -50v-121h-44v121q-157 7 -232 106l43 37q70 -85 191 -93v234q-106 20 -154 57t-48 100q0 65 53.5 106t146.5 44v106h44zM273 328v201q-68 -1 -105 -27
t-37 -69q0 -41 30.5 -64.5t111.5 -40.5zM314 266v-227q73 3 110.5 33.5t37.5 79.5q0 45 -30.5 71t-117.5 43z" />
    <glyph glyph-name="percent.sc" horiz-adv-x="1012" 
d="M710 586l-355 -597h-52l356 597h51zM233 585q71 0 123.5 -53t52.5 -142q0 -91 -52.5 -144.5t-123.5 -53.5t-123.5 53.5t-52.5 144.5q0 89 52.5 142t123.5 53zM234 543q-56 0 -91 -41.5t-35 -112.5t35 -113t91 -42q54 0 89 42t35 113t-35 112.5t-89 41.5zM779 382
q71 0 123.5 -53t52.5 -142q0 -91 -52.5 -144t-123.5 -53t-123.5 53t-52.5 144q0 89 52.5 142t123.5 53zM779 341q-56 0 -90.5 -42t-34.5 -113t35 -113t90 -42t90 42t35 113t-35 113t-90 42z" />
    <glyph glyph-name="a.sc" horiz-adv-x="544" 
d="M460 0l-42 115h-295l-42 -115h-62l215 570h78l213 -570h-65zM271 525l-130 -360h259z" />
    <glyph glyph-name="b.sc" horiz-adv-x="571" 
d="M397 308q63 -8 99 -47t36 -97q0 -75 -56 -119.5t-162 -44.5h-225v570h196q213 0 213 -144q0 -45 -28.5 -76.5t-72.5 -41.5zM292 518h-144v-189h175q52 0 83 25t31 71q0 93 -145 93zM148 52h171q71 0 110.5 30.5t39.5 82.5q0 57 -37.5 86t-100.5 29h-183v-228z" />
    <glyph glyph-name="c.sc" horiz-adv-x="636" 
d="M329 580q36 0 70 -8t67.5 -25.5t61.5 -49.5t45 -76l-58 -17q-50 124 -186 124q-92 0 -150.5 -63.5t-58.5 -178.5q0 -119 57.5 -181.5t150.5 -62.5q148 0 198 137l59 -18q-32 -86 -101.5 -128.5t-155.5 -42.5q-48 0 -93 15.5t-86 47.5t-65.5 92.5t-24.5 140.5
q0 75 22.5 133.5t61.5 92.5t86 51t100 17z" />
    <glyph glyph-name="d.sc" horiz-adv-x="622" 
d="M89 570h174q134 0 217.5 -70t83.5 -207q0 -81 -24.5 -140.5t-66 -91.5t-88 -46.5t-98.5 -14.5h-198v570zM265 517h-117v-464h139q42 0 77.5 11t68 36.5t51.5 75t19 117.5q0 106 -61.5 165t-176.5 59z" />
    <glyph glyph-name="e.sc" horiz-adv-x="517" 
d="M451 570v-52h-303v-201h285v-52h-285v-213h311v-52h-370v570h362z" />
    <glyph glyph-name="f.sc" horiz-adv-x="487" 
d="M442 570v-52h-294v-212h273v-52h-273v-254h-59v570h353z" />
    <glyph glyph-name="g.sc" horiz-adv-x="656" 
d="M328 580q176 0 241 -145l-56 -21q-51 115 -185 115q-94 0 -151 -65t-57 -182t57 -179t151 -62q81 0 136.5 48t55.5 141v13h-173v51h233v-294h-60v87q-28 -46 -80.5 -71.5t-116.5 -25.5q-38 0 -74 9t-71 30.5t-61 54t-42 83t-16 114.5q0 147 79 223t190 76z" />
    <glyph glyph-name="h.sc" horiz-adv-x="629" 
d="M540 570v-570h-59v271h-332v-271h-60v570h60v-247h332v247h59z" />
    <glyph glyph-name="i.sc" horiz-adv-x="301" 
d="M263 570v-51h-83v-468h83v-51h-225v51h83v468h-83v51h225z" />
    <glyph glyph-name="j.sc" horiz-adv-x="357" 
d="M281 570v-414q0 -79 -36.5 -120t-124.5 -41q-37 0 -89 7v51q44 -4 65 -4q71 0 98 25.5t27 86.5v409h60z" />
    <glyph glyph-name="k.sc" horiz-adv-x="570" 
d="M476 0l-228 292l-100 -107v-185h-59v570h59v-309l288 309h73l-222 -237l261 -333h-72z" />
    <glyph glyph-name="l.sc" horiz-adv-x="475" 
d="M148 570v-516h295v-54h-354v570h59z" />
    <glyph glyph-name="m.sc" horiz-adv-x="724" 
d="M602 570l64 -570h-58l-59 505l-153 -505h-67l-159 505l-56 -505h-57l62 570h90l154 -504l149 504h90z" />
    <glyph glyph-name="n.sc" horiz-adv-x="628" 
d="M539 570v-570h-62l-331 470v-470h-57v570h60l333 -478v478h57z" />
    <glyph glyph-name="o.sc" horiz-adv-x="669" 
d="M335 580q38 0 75 -9t74 -31t65 -55t45 -85t17 -116q0 -76 -24 -134t-64 -92t-87.5 -51t-100.5 -17q-49 0 -95 15.5t-88 48t-67.5 92.5t-25.5 140q0 76 23.5 134t63.5 92t88 51t101 17zM335 528q-94 0 -154.5 -63t-60.5 -179q0 -117 60.5 -180.5t154.5 -63.5
q92 0 153 63.5t61 178.5q0 117 -60 180.5t-154 63.5z" />
    <glyph glyph-name="p.sc" horiz-adv-x="553" 
d="M89 570h204q111 0 164 -49t53 -125q0 -81 -54.5 -131t-160.5 -50h-146v-215h-60v570zM149 266h150q70 0 109.5 33t39.5 97q0 56 -37.5 89t-111.5 33h-150v-252z" />
    <glyph glyph-name="q.sc" horiz-adv-x="684" 
d="M335 580q38 0 75 -9t74 -31t65 -55t45 -85t17 -116q0 -164 -110 -240q47 -42 138 -62l-25 -59q-103 29 -157 93q-56 -26 -122 -26q-49 0 -95 15.5t-88 48t-67.5 92.5t-25.5 140q0 76 23.5 134t63.5 92t88 51t101 17zM335 528q-94 0 -154.5 -63t-60.5 -179
q0 -117 60.5 -180.5t154.5 -63.5q92 0 153 63.5t61 178.5q0 117 -60 180.5t-154 63.5z" />
    <glyph glyph-name="r.sc" horiz-adv-x="557" 
d="M89 570h195q109 0 163.5 -45t54.5 -118q0 -60 -37.5 -103t-111.5 -54l174 -250h-70l-166 242h-142v-242h-60v570zM290 518h-141v-226h150q68 0 104.5 30t36.5 85q0 54 -38 82.5t-112 28.5z" />
    <glyph glyph-name="s.sc" horiz-adv-x="560" 
d="M275 580q150 0 233 -101l-49 -32q-61 82 -184 82q-71 0 -111.5 -26.5t-40.5 -71.5t39 -68t140 -39q111 -17 160 -57.5t49 -111.5q0 -74 -60 -119.5t-172 -45.5q-166 0 -250 100l46 36q74 -85 206 -85q77 0 122.5 30.5t45.5 81.5t-39 78t-146 43q-102 15 -152 52.5
t-50 103.5q0 67 58 108.5t155 41.5z" />
    <glyph glyph-name="t.sc" horiz-adv-x="513" 
d="M479 570v-52h-193v-518h-59v518h-193v52h445z" />
    <glyph glyph-name="u.sc" horiz-adv-x="599" 
d="M523 570v-368q0 -88 -54 -150t-170 -62q-62 0 -107 18.5t-69 50.5t-35 67.5t-11 75.5v368h59v-367q0 -75 40.5 -118t123.5 -43q80 0 121.5 44t41.5 117v367h60z" />
    <glyph glyph-name="v.sc" horiz-adv-x="501" 
d="M483 570l-193 -570h-74l-197 570h65l171 -513l167 513h61z" />
    <glyph glyph-name="w.sc" horiz-adv-x="755" 
d="M712 570l-143 -570h-69l-129 490l-121 -490h-72l-154 570h62l128 -504l124 504h67l129 -502l118 502h60z" />
    <glyph glyph-name="x.sc" horiz-adv-x="548" 
d="M528 0h-73l-184 262l-181 -262h-71l216 305l-188 265h71l154 -219l151 219h70l-184 -260l-1 -1z" />
    <glyph glyph-name="y.sc" horiz-adv-x="533" 
d="M512 570l-214 -336v-234h-59v233l-218 337h68l181 -282l176 282h66z" />
    <glyph glyph-name="z.sc" horiz-adv-x="533" 
d="M483 570v-49l-368 -467h374v-54h-453v46l370 472h-344v52h421z" />
    <glyph glyph-name="cent.sc" 
d="M495 179l57 -18q-29 -80 -88.5 -122t-137.5 -48v-140h-49v140q-96 9 -163.5 80t-67.5 215q0 138 65.5 211t165.5 82v139h49v-139q70 -5 128 -42.5t88 -115.5l-57 -17q-47 115 -161 125v-488q126 9 171 138zM107 286q0 -111 47 -173.5t125 -71.5v488q-78 -9 -125 -72.5
t-47 -170.5z" />
    <glyph glyph-name="sterling.sc" horiz-adv-x="603" 
d="M347 580q70 0 114.5 -35t62.5 -89l-57 -16q-28 92 -122 92q-57 0 -92 -34t-35 -89v-108h218v-39h-218v-105q0 -40 -10 -63.5t-37 -41.5h341v-52h-406l-6 46q38 16 49.5 39.5t11.5 70.5v106h-78v39h78v111q0 71 48 119.5t138 48.5z" />
    <glyph glyph-name="yen.sc" horiz-adv-x="553" 
d="M524 570l-197 -302h137v-37h-156v-80h156v-36h-156v-115h-60v115h-156v36h156v80h-156v37h138l-201 302h68l183 -293l177 293h67z" />
    <glyph glyph-name="section.sc" horiz-adv-x="620" 
d="M336 579q108 -1 185 -67l-38 -35q-64 53 -149 53q-60 0 -91 -21t-31 -57q0 -37 28.5 -55.5t109.5 -31.5q97 -16 144.5 -50.5t47.5 -96.5q0 -36 -22.5 -64.5t-71.5 -64.5q60 -33 60 -99q0 -57 -50 -93.5t-134 -36.5q-119 0 -197 70l38 35q65 -57 161 -57q59 0 91 21t32 57
t-29 55t-109 33q-97 17 -144.5 50t-47.5 96q0 37 22 66.5t71 62.5q-59 34 -59 98q0 58 50 95t133 37zM253 331q-42 -31 -58.5 -54t-16.5 -52q0 -41 38 -64t126 -39q39 -7 67 -15q40 32 57 55t17 51q0 42 -38 65t-125 38q-29 4 -67 15z" />
    <glyph glyph-name="degree.sc" horiz-adv-x="497" 
d="M249 646q72 0 124 -47t52 -127q0 -79 -52 -125.5t-124 -46.5t-124.5 47t-52.5 126t52.5 126t124.5 47zM249 601q-50 0 -86 -33.5t-36 -94.5q0 -60 36 -94t86 -34t85.5 33.5t35.5 93.5q0 61 -36 95t-85 34z" />
    <glyph glyph-name="germandbls.sc" horiz-adv-x="1134" 
d="M275 580q150 0 233 -101l-49 -32q-61 82 -184 82q-71 0 -111.5 -26.5t-40.5 -71.5t39 -68t140 -39q111 -17 160 -57.5t49 -111.5q0 -74 -60 -119.5t-172 -45.5q-166 0 -250 100l46 36q74 -85 206 -85q77 0 122.5 30.5t45.5 81.5t-39 78t-146 43q-102 15 -152 52.5
t-50 103.5q0 67 58 108.5t155 41.5zM849 580q150 0 233 -101l-49 -32q-61 82 -184 82q-71 0 -111.5 -26.5t-40.5 -71.5t39 -68t140 -39q111 -17 160 -57.5t49 -111.5q0 -74 -60 -119.5t-172 -45.5q-166 0 -250 100l46 36q74 -85 206 -85q77 0 122.5 30.5t45.5 81.5t-39 78
t-146 43q-102 15 -152 52.5t-50 103.5q0 67 58 108.5t155 41.5z" />
    <glyph glyph-name="agrave.sc" horiz-adv-x="544" 
d="M460 0l-42 115h-295l-42 -115h-62l215 570h78l213 -570h-65zM271 525l-130 -360h259zM209 776l97 -132h-52l-124 132h79z" />
    <glyph glyph-name="aacute.sc" horiz-adv-x="544" 
d="M460 0l-42 115h-295l-42 -115h-62l215 570h78l213 -570h-65zM271 525l-130 -360h259zM413 776l-123 -132h-53l97 132h79z" />
    <glyph glyph-name="acircumflex.sc" horiz-adv-x="544" 
d="M460 0l-42 115h-295l-42 -115h-62l215 570h78l213 -570h-65zM271 525l-130 -360h259zM302 778l131 -128h-57l-104 89l-103 -89h-58l132 128h59z" />
    <glyph glyph-name="atilde.sc" horiz-adv-x="544" 
d="M460 0l-42 115h-295l-42 -115h-62l215 570h78l213 -570h-65zM271 525l-130 -360h259zM210 756q38 0 72 -27t54 -27q35 0 54 47h39q-9 -40 -34 -65t-62 -25q-30 0 -52 13.5t-39 27t-35 13.5q-36 0 -55 -47h-38q9 41 33.5 65.5t62.5 24.5z" />
    <glyph glyph-name="adieresis.sc" horiz-adv-x="544" 
d="M460 0l-42 115h-295l-42 -115h-62l215 570h78l213 -570h-65zM271 525l-130 -360h259zM165 748q16 0 28 -11.5t12 -27.5t-12 -27.5t-28 -11.5t-27.5 11.5t-11.5 27.5t11.5 27.5t27.5 11.5zM379 748q16 0 28 -11.5t12 -27.5t-12 -27.5t-28 -11.5t-27.5 11.5t-11.5 27.5
t11.5 27.5t27.5 11.5z" />
    <glyph glyph-name="aring.sc" horiz-adv-x="544" 
d="M460 0l-42 115h-295l-42 -115h-62l215 570h78l213 -570h-65zM271 525l-130 -360h259zM272 860q47 0 81.5 -32.5t34.5 -80.5t-34.5 -79.5t-81.5 -31.5q-48 0 -82.5 31.5t-34.5 79.5t34.5 80.5t82.5 32.5zM272 823q-31 0 -53 -21t-22 -55q0 -33 22 -53.5t53 -20.5
t52.5 20.5t21.5 53.5t-22 54.5t-52 21.5z" />
    <glyph glyph-name="ae.sc" horiz-adv-x="845" 
d="M758 570v-52h-336l34 -201h290v-52h-281l36 -213h305v-52h-357l-19 114h-292l-66 -114h-64l332 570h418zM366 514l-201 -348h258z" />
    <glyph glyph-name="ccedilla.sc" horiz-adv-x="636" 
d="M329 580q36 0 70 -8t67.5 -25.5t61.5 -49.5t45 -76l-58 -17q-50 124 -186 124q-92 0 -150.5 -63.5t-58.5 -178.5q0 -119 57.5 -181.5t150.5 -62.5q148 0 198 137l59 -18q-31 -84 -97.5 -126.5t-149.5 -44.5l-1 -43q52 -4 80 -25.5t28 -55.5q0 -42 -32.5 -66t-85.5 -24
q-61 0 -102 25l19 33q31 -20 77 -20q74 0 74 52q0 51 -107 51l11 74q-46 4 -86.5 22t-76 51.5t-56.5 90.5t-21 131q0 75 22.5 133.5t61.5 92.5t86 51t100 17z" />
    <glyph glyph-name="egrave.sc" horiz-adv-x="517" 
d="M451 570v-52h-303v-201h285v-52h-285v-213h311v-52h-370v570h362zM212 776l97 -132h-52l-124 132h79z" />
    <glyph glyph-name="eacute.sc" horiz-adv-x="517" 
d="M451 570v-52h-303v-201h285v-52h-285v-213h311v-52h-370v570h362zM416 776l-123 -132h-53l97 132h79z" />
    <glyph glyph-name="ecircumflex.sc" horiz-adv-x="517" 
d="M451 570v-52h-303v-201h285v-52h-285v-213h311v-52h-370v570h362zM305 778l131 -128h-57l-104 89l-103 -89h-58l132 128h59z" />
    <glyph glyph-name="edieresis.sc" horiz-adv-x="517" 
d="M451 570v-52h-303v-201h285v-52h-285v-213h311v-52h-370v570h362zM168 748q16 0 28 -11.5t12 -27.5t-12 -27.5t-28 -11.5t-27.5 11.5t-11.5 27.5t11.5 27.5t27.5 11.5zM382 748q16 0 28 -11.5t12 -27.5t-12 -27.5t-28 -11.5t-27.5 11.5t-11.5 27.5t11.5 27.5t27.5 11.5z
" />
    <glyph glyph-name="igrave.sc" horiz-adv-x="301" 
d="M263 570v-51h-83v-468h83v-51h-225v51h83v468h-83v51h225zM87 776l97 -132h-52l-124 132h79z" />
    <glyph glyph-name="iacute.sc" horiz-adv-x="301" 
d="M263 570v-51h-83v-468h83v-51h-225v51h83v468h-83v51h225zM291 776l-123 -132h-53l97 132h79z" />
    <glyph glyph-name="icircumflex.sc" horiz-adv-x="301" 
d="M263 570v-51h-83v-468h83v-51h-225v51h83v468h-83v51h225zM180 778l131 -128h-57l-104 89l-103 -89h-58l132 128h59z" />
    <glyph glyph-name="idieresis.sc" horiz-adv-x="301" 
d="M263 570v-51h-83v-468h83v-51h-225v51h83v468h-83v51h225zM43 748q16 0 28 -11.5t12 -27.5t-12 -27.5t-28 -11.5t-27.5 11.5t-11.5 27.5t11.5 27.5t27.5 11.5zM257 748q16 0 28 -11.5t12 -27.5t-12 -27.5t-28 -11.5t-27.5 11.5t-11.5 27.5t11.5 27.5t27.5 11.5z" />
    <glyph glyph-name="eth.sc" horiz-adv-x="642" 
d="M109 570h174q134 0 217.5 -70t83.5 -207q0 -81 -24.5 -140.5t-66 -91.5t-88 -46.5t-98.5 -14.5h-198v277h-88v44h88v249zM168 53h139q42 0 77.5 11t68 36.5t51.5 75t19 117.5q0 106 -61.5 165t-176.5 59h-117v-196h187v-44h-187v-224z" />
    <glyph glyph-name="ntilde.sc" horiz-adv-x="628" 
d="M539 570v-570h-62l-331 470v-470h-57v570h60l333 -478v478h57zM252 756q38 0 72 -27t54 -27q35 0 54 47h39q-9 -40 -34 -65t-62 -25q-30 0 -52 13.5t-39 27t-35 13.5q-36 0 -55 -47h-38q9 41 33.5 65.5t62.5 24.5z" />
    <glyph glyph-name="ograve.sc" horiz-adv-x="669" 
d="M335 580q38 0 75 -9t74 -31t65 -55t45 -85t17 -116q0 -76 -24 -134t-64 -92t-87.5 -51t-100.5 -17q-49 0 -95 15.5t-88 48t-67.5 92.5t-25.5 140q0 76 23.5 134t63.5 92t88 51t101 17zM335 528q-94 0 -154.5 -63t-60.5 -179q0 -117 60.5 -180.5t154.5 -63.5
q92 0 153 63.5t61 178.5q0 117 -60 180.5t-154 63.5zM272 776l97 -132h-52l-124 132h79z" />
    <glyph glyph-name="oacute.sc" horiz-adv-x="669" 
d="M335 580q38 0 75 -9t74 -31t65 -55t45 -85t17 -116q0 -76 -24 -134t-64 -92t-87.5 -51t-100.5 -17q-49 0 -95 15.5t-88 48t-67.5 92.5t-25.5 140q0 76 23.5 134t63.5 92t88 51t101 17zM335 528q-94 0 -154.5 -63t-60.5 -179q0 -117 60.5 -180.5t154.5 -63.5
q92 0 153 63.5t61 178.5q0 117 -60 180.5t-154 63.5zM476 776l-123 -132h-53l97 132h79z" />
    <glyph glyph-name="ocircumflex.sc" horiz-adv-x="669" 
d="M335 580q38 0 75 -9t74 -31t65 -55t45 -85t17 -116q0 -76 -24 -134t-64 -92t-87.5 -51t-100.5 -17q-49 0 -95 15.5t-88 48t-67.5 92.5t-25.5 140q0 76 23.5 134t63.5 92t88 51t101 17zM335 528q-94 0 -154.5 -63t-60.5 -179q0 -117 60.5 -180.5t154.5 -63.5
q92 0 153 63.5t61 178.5q0 117 -60 180.5t-154 63.5zM365 778l131 -128h-57l-104 89l-103 -89h-58l132 128h59z" />
    <glyph glyph-name="otilde.sc" horiz-adv-x="669" 
d="M335 580q38 0 75 -9t74 -31t65 -55t45 -85t17 -116q0 -76 -24 -134t-64 -92t-87.5 -51t-100.5 -17q-49 0 -95 15.5t-88 48t-67.5 92.5t-25.5 140q0 76 23.5 134t63.5 92t88 51t101 17zM335 528q-94 0 -154.5 -63t-60.5 -179q0 -117 60.5 -180.5t154.5 -63.5
q92 0 153 63.5t61 178.5q0 117 -60 180.5t-154 63.5zM273 756q29 0 51 -13.5t39.5 -27t35.5 -13.5q35 0 54 47h39q-9 -40 -34 -65t-62 -25q-30 0 -52 13.5t-39 27t-35 13.5q-36 0 -55 -47h-38q9 41 33.5 65.5t62.5 24.5z" />
    <glyph glyph-name="odieresis.sc" horiz-adv-x="669" 
d="M335 580q38 0 75 -9t74 -31t65 -55t45 -85t17 -116q0 -76 -24 -134t-64 -92t-87.5 -51t-100.5 -17q-49 0 -95 15.5t-88 48t-67.5 92.5t-25.5 140q0 76 23.5 134t63.5 92t88 51t101 17zM335 528q-94 0 -154.5 -63t-60.5 -179q0 -117 60.5 -180.5t154.5 -63.5
q92 0 153 63.5t61 178.5q0 117 -60 180.5t-154 63.5zM228 748q16 0 28 -11.5t12 -27.5t-12 -27.5t-28 -11.5t-27.5 11.5t-11.5 27.5t11.5 27.5t27.5 11.5zM442 748q16 0 28 -11.5t12 -27.5t-12 -27.5t-28 -11.5t-27.5 11.5t-11.5 27.5t11.5 27.5t27.5 11.5z" />
    <glyph glyph-name="oslash.sc" horiz-adv-x="669" 
d="M600 639l-80 -124q91 -79 91 -231q0 -76 -24 -134.5t-64 -92.5t-87.5 -51t-100.5 -17q-76 0 -141 36l-69 -105h-55l86 130q-97 78 -97 236q0 76 23.5 134.5t63.5 92.5t88 51t101 17q81 0 147 -40l65 98h53zM335 529q-94 0 -154.5 -63.5t-60.5 -179.5q0 -126 68 -189
l266 397q-50 35 -119 35zM487 468l-265 -397q48 -29 113 -29q92 0 153 63.5t61 178.5q0 120 -62 184z" />
    <glyph glyph-name="ugrave.sc" horiz-adv-x="599" 
d="M523 570v-368q0 -88 -54 -150t-170 -62q-62 0 -107 18.5t-69 50.5t-35 67.5t-11 75.5v368h59v-367q0 -75 40.5 -118t123.5 -43q80 0 121.5 44t41.5 117v367h60zM237 776l97 -132h-52l-124 132h79z" />
    <glyph glyph-name="uacute.sc" horiz-adv-x="599" 
d="M523 570v-368q0 -88 -54 -150t-170 -62q-62 0 -107 18.5t-69 50.5t-35 67.5t-11 75.5v368h59v-367q0 -75 40.5 -118t123.5 -43q80 0 121.5 44t41.5 117v367h60zM441 776l-123 -132h-53l97 132h79z" />
    <glyph glyph-name="ucircumflex.sc" horiz-adv-x="599" 
d="M523 570v-368q0 -88 -54 -150t-170 -62q-62 0 -107 18.5t-69 50.5t-35 67.5t-11 75.5v368h59v-367q0 -75 40.5 -118t123.5 -43q80 0 121.5 44t41.5 117v367h60zM330 778l131 -128h-57l-104 89l-103 -89h-58l132 128h59z" />
    <glyph glyph-name="udieresis.sc" horiz-adv-x="599" 
d="M523 570v-368q0 -88 -54 -150t-170 -62q-62 0 -107 18.5t-69 50.5t-35 67.5t-11 75.5v368h59v-367q0 -75 40.5 -118t123.5 -43q80 0 121.5 44t41.5 117v367h60zM193 748q16 0 28 -11.5t12 -27.5t-12 -27.5t-28 -11.5t-27.5 11.5t-11.5 27.5t11.5 27.5t27.5 11.5zM407 748
q16 0 28 -11.5t12 -27.5t-12 -27.5t-28 -11.5t-27.5 11.5t-11.5 27.5t11.5 27.5t27.5 11.5z" />
    <glyph glyph-name="yacute.sc" horiz-adv-x="533" 
d="M512 570l-214 -336v-234h-59v233l-218 337h68l181 -282l176 282h66zM409 776l-123 -132h-53l97 132h79z" />
    <glyph glyph-name="thorn.sc" horiz-adv-x="553" 
d="M149 570v-101h144q110 0 163.5 -50.5t53.5 -125.5q0 -82 -54.5 -132t-160.5 -50h-146v-111h-60v570h60zM298 417h-149v-255h150q70 0 109.5 33t39.5 97q0 57 -38 91t-112 34z" />
    <glyph glyph-name="ydieresis.sc" horiz-adv-x="533" 
d="M512 570l-214 -336v-234h-59v233l-218 337h68l181 -282l176 282h66zM161 748q16 0 28 -11.5t12 -27.5t-12 -27.5t-28 -11.5t-27.5 11.5t-11.5 27.5t11.5 27.5t27.5 11.5zM375 748q16 0 28 -11.5t12 -27.5t-12 -27.5t-28 -11.5t-27.5 11.5t-11.5 27.5t11.5 27.5t27.5 11.5
z" />
    <glyph glyph-name="dotlessi.sc" horiz-adv-x="301" 
d="M263 570v-51h-83v-468h83v-51h-225v51h83v468h-83v51h225z" />
    <glyph glyph-name="ij.sc" horiz-adv-x="672" 
d="M263 570v-51h-83v-468h83v-51h-225v51h83v468h-83v51h225zM596 570v-414q0 -79 -36.5 -120t-124.5 -41q-37 0 -89 7v51q44 -4 65 -4q71 0 98 25.5t27 86.5v409h60z" />
    <glyph glyph-name="lslash.sc" horiz-adv-x="499" 
d="M164 54h295v-54h-354v257l-84 -43v49l84 43v264h59v-234l163 84v-49l-163 -84v-233z" />
    <glyph glyph-name="oe.sc" horiz-adv-x="847" 
d="M335 580q46 0 97 -10h349v-52h-290v-201h272v-52h-272v-213h298v-52h-357q-42 -10 -97 -10q-48 0 -94 15.5t-88.5 48t-68 92.5t-25.5 140q0 76 24 134t64 92t88 51t100 17zM335 528q-93 0 -154 -63.5t-61 -178.5q0 -117 61 -180.5t153 -63.5q52 0 97 14v458
q-48 14 -96 14z" />
    <glyph glyph-name="scaron.sc" horiz-adv-x="560" 
d="M275 580q150 0 233 -101l-49 -32q-61 82 -184 82q-71 0 -111.5 -26.5t-40.5 -71.5t39 -68t140 -39q111 -17 160 -57.5t49 -111.5q0 -74 -60 -119.5t-172 -45.5q-166 0 -250 100l46 36q74 -85 206 -85q77 0 122.5 30.5t45.5 81.5t-39 78t-146 43q-102 15 -152 52.5
t-50 103.5q0 67 58 108.5t155 41.5zM442 786l-131 -128h-59l-132 128h58l103 -89l104 89h57z" />
    <glyph glyph-name="zcaron.sc" horiz-adv-x="533" 
d="M483 570v-49l-368 -467h374v-54h-453v46l370 472h-344v52h421zM425 786l-131 -128h-59l-132 128h58l103 -89l104 89h57z" />
    <glyph glyph-name="longs.sc" horiz-adv-x="560" 
d="M275 580q150 0 233 -101l-49 -32q-61 82 -184 82q-71 0 -111.5 -26.5t-40.5 -71.5t39 -68t140 -39q111 -17 160 -57.5t49 -111.5q0 -74 -60 -119.5t-172 -45.5q-166 0 -250 100l46 36q74 -85 206 -85q77 0 122.5 30.5t45.5 81.5t-39 78t-146 43q-102 15 -152 52.5
t-50 103.5q0 67 58 108.5t155 41.5z" />
    <glyph glyph-name="florin.sc" horiz-adv-x="332" 
d="M240 579q44 0 99 -19v-49q-44 19 -92 19q-52 0 -73.5 -23t-21.5 -69v-51h162v-46h-162v-371q0 -74 -40 -109t-98 -35q-21 0 -49 4v48q22 -2 28 -2q51 0 75 24.5t24 88.5v352h-75v46h75v58q0 59 34 96.5t114 37.5z" />
    <glyph glyph-name="uni0394.sc" horiz-adv-x="543" 
d="M312 570l213 -570h-506l215 570h78zM270 520l-172 -470h344z" />
    <glyph glyph-name="uni03A9.sc" horiz-adv-x="674" 
d="M337 580q52 0 100 -16.5t88 -49.5t64 -89.5t24 -129.5q0 -98 -42 -157t-108 -84h145v-54h-214v54q69 22 113 83t44 158q0 111 -60 172t-154 61t-154.5 -61.5t-60.5 -170.5q0 -96 44.5 -158t113.5 -84v-54h-214v54h146q-151 57 -151 241q0 140 81.5 212.5t194.5 72.5z" />
    <glyph glyph-name="uni1E9E.sc" horiz-adv-x="605" 
d="M364 -11q-105 0 -175 52l27 42q63 -43 145 -43q60 0 101 31.5t41 86.5q0 56 -37.5 85t-124.5 44v44l133 144q-64 55 -164 55q-81 0 -127 -40.5t-46 -125.5v-364h-60v371q0 101 63.5 155.5t169.5 54.5q140 0 233 -100l-144 -158q166 -37 166 -165q0 -76 -57 -122.5
t-144 -46.5z" />
    <glyph glyph-name="figuredash.sc" 
d="M556 314v-54h-512v54h512z" />
    <glyph glyph-name="dagger.sc" horiz-adv-x="620" 
d="M329 570v-170h172v-51h-172v-349h-57v349h-172v51h172v170h57z" />
    <glyph glyph-name="daggerdbl.sc" horiz-adv-x="620" 
d="M329 570v-147h172v-51h-172v-169h172v-51h-172v-152h-57v152h-172v51h172v169h-172v51h172v147h57z" />
    <glyph glyph-name="perthousand.sc" horiz-adv-x="1426" 
d="M710 586l-355 -597h-52l356 597h51zM233 585q71 0 123.5 -53t52.5 -142q0 -91 -52.5 -144.5t-123.5 -53.5t-123.5 53.5t-52.5 144.5q0 89 52.5 142t123.5 53zM234 543q-56 0 -91 -41.5t-35 -112.5t35 -113t91 -42q54 0 89 42t35 113t-35 112.5t-89 41.5zM779 382
q71 0 123.5 -53t52.5 -142q0 -91 -52.5 -144t-123.5 -53t-123.5 53t-52.5 144q0 89 52.5 142t123.5 53zM1191 382q71 0 123.5 -53t52.5 -142q0 -91 -52.5 -144t-123.5 -53t-123.5 53t-52.5 144q0 89 52.5 142t123.5 53zM779 341q-56 0 -90.5 -42t-34.5 -113t35 -113t90 -42
t90 42t35 113t-35 113t-90 42zM1191 341q-56 0 -90.5 -42t-34.5 -113t35 -113t90 -42t90 42t35 113t-35 113t-90 42z" />
    <glyph glyph-name="Euro.sc" horiz-adv-x="598" 
d="M368 580q107 0 173 -69l-19 -53q-63 71 -154 71q-74 0 -121.5 -42.5t-61.5 -123.5h289l-12 -37h-282q-2 -13 -2 -40q0 -28 2 -40h255l-12 -37h-239q12 -83 57.5 -126.5t117.5 -43.5q94 0 155 63v-63q-66 -51 -156 -51t-153 55t-79 166h-81l12 37h65q-1 12 -1 40
q0 27 1 40h-73l12 37h66q19 105 84 161t157 56z" />
    <glyph glyph-name="partialdiff.sc" horiz-adv-x="591" 
d="M139 527v49q195 -3 288.5 -82t93.5 -258q0 -121 -64.5 -183.5t-163.5 -62.5q-96 0 -159 54.5t-63 141.5q0 89 61 142.5t151 53.5q63 0 109 -25.5t68 -66.5q-14 126 -91 179.5t-230 57.5zM292 333q-73 0 -116 -40.5t-43 -106.5q0 -68 44.5 -107t115.5 -39q72 0 117 43
t45 111q0 60 -45.5 99.5t-117.5 39.5z" />
    <glyph glyph-name="product.sc" 
d="M539 570v-49h-65v-559h-60v559h-229v-559h-60v559h-64v49h478z" />
    <glyph glyph-name="summation.sc" 
d="M538 570v-48h-387l213 -203v-47l-214 -223h388v-49h-464v43l240 252l-240 231v44h464z" />
    <glyph glyph-name="radical.sc" 
d="M665 700v-49h-188l-237 -651h-61l-184 419l62 1l151 -358l228 638h229z" />
    <glyph glyph-name="integral.sc" horiz-adv-x="300" 
d="M271 733q47 0 101 -16v-49q-46 16 -94 16q-100 0 -100 -92v-663q0 -58 -35.5 -96t-114.5 -38q-47 0 -101 16v48q53 -16 94 -16q52 0 75 23.5t23 69.5v663q0 57 37 95.5t115 38.5z" />
    <glyph glyph-name="lozenge.sc" 
d="M337 570l212 -278l-212 -292h-73l-212 290l212 280h73zM299 538l-185 -247l186 -259l185 259z" />
    <glyph glyph-name="fi.sc" horiz-adv-x="802" 
d="M442 570v-52h-294v-212h273v-52h-273v-254h-59v570h353zM764 570v-51h-83v-468h83v-51h-225v51h83v468h-83v51h225z" />
    <glyph glyph-name="fl.sc" horiz-adv-x="976" 
d="M442 570v-52h-294v-212h273v-52h-273v-254h-59v570h353zM649 570v-516h295v-54h-354v570h59z" />
    <glyph glyph-name="dollar.tf.sc" 
d="M315 686v-107q133 -10 204 -106l-45 -33q-55 79 -161 88v-208q118 -24 164.5 -61t46.5 -105q0 -69 -54 -115t-155 -50v-121h-44v121q-157 7 -232 106l43 37q70 -85 191 -93v234q-106 20 -154 57t-48 100q0 65 53.5 106t146.5 44v106h44zM273 328v201q-68 -1 -105 -27
t-37 -69q0 -41 30.5 -64.5t111.5 -40.5zM314 266v-227q73 3 110.5 33.5t37.5 79.5q0 45 -30.5 71t-117.5 43z" />
    <glyph glyph-name="zero.tf.sc" 
d="M300 583q112 0 183.5 -81t71.5 -218q0 -136 -71.5 -215.5t-183.5 -79.5t-183.5 79.5t-71.5 215.5q0 137 71.5 218t183.5 81zM300 533q-85 0 -139 -67t-54 -183q0 -112 54 -177.5t139 -65.5q86 0 139.5 64.5t53.5 178.5q0 116 -53.5 183t-139.5 67z" />
    <glyph glyph-name="one.tf.sc" 
d="M132 0v51h166v338h-162v47h40q77 0 103 27.5t33 106.5h46v-519h152v-51h-378z" />
    <glyph glyph-name="two.tf.sc" 
d="M305 581q93 0 147.5 -49t54.5 -130q0 -91 -79.5 -171.5t-254.5 -179.5h346v-51h-437v49q201 123 281.5 198t80.5 152q0 63 -38 97.5t-101 34.5q-73 0 -116 -43.5t-44 -101.5h-62q3 76 62 135.5t160 59.5z" />
    <glyph glyph-name="three.tf.sc" 
d="M326 583q98 0 150.5 -41t52.5 -106q0 -48 -29 -84.5t-80 -45.5q59 -7 96 -41t37 -96q0 -81 -65 -130t-166 -49q-96 0 -159.5 46t-82.5 127l58 12q35 -134 184 -134q74 0 120.5 34.5t46.5 93.5q0 56 -36.5 83.5t-99.5 27.5h-79v47h72q55 0 89.5 28t34.5 78q0 45 -37 72.5
t-107 27.5t-112.5 -32.5t-56.5 -89.5l-57 10q14 69 74.5 115.5t151.5 46.5z" />
    <glyph glyph-name="four.tf.sc" 
d="M457 570v-396h106v-50h-106v-124h-59v124h-328v50l313 396h74zM399 508l-263 -334h263v334z" />
    <glyph glyph-name="five.tf.sc" 
d="M505 570l-8 -51h-286l-26 -176q63 63 161 63q77 0 134.5 -55t57.5 -141q0 -98 -63 -159t-163 -61q-88 0 -141.5 40t-73.5 94l57 14q40 -97 160 -97q71 0 116.5 46.5t45.5 118.5q0 69 -42.5 110.5t-105.5 41.5q-91 0 -155 -77l-54 7l43 282h343z" />
    <glyph glyph-name="six.tf.sc" 
d="M334 583q129 0 185 -112l-56 -17q-38 81 -130 81q-160 0 -178 -240q23 46 69.5 73t107.5 27q90 0 150 -57.5t60 -144.5t-62 -145t-160 -58q-99 0 -162.5 62.5t-63.5 181.5q0 173 62.5 261t177.5 88zM321 346q-71 0 -116 -43.5t-45 -106.5q0 -68 44 -112t116 -44t116 43
t44 110q0 65 -42.5 109t-116.5 44z" />
    <glyph glyph-name="seven.tf.sc" 
d="M544 570v-48q-109 -122 -167.5 -244t-84.5 -278h-72q33 169 93.5 289t165.5 230h-302v-55h-52v106h419z" />
    <glyph glyph-name="eight.tf.sc" 
d="M313 579q100 0 151 -42.5t51 -102.5q0 -89 -115 -123q78 -24 115 -60.5t37 -94.5q0 -70 -58 -118t-180 -48q-116 0 -175 48t-59 120q0 60 35.5 99t101.5 53q-102 38 -102 125q0 59 49.5 101.5t148.5 42.5zM313 530q-71 0 -105 -27t-34 -69q0 -40 32.5 -63.5t105.5 -37.5
l33 -6q110 32 110 106q0 42 -34.5 69.5t-107.5 27.5zM307 282l-34 8q-132 -23 -132 -131q0 -51 45 -85.5t129 -34.5q92 0 134.5 33.5t42.5 86.5q0 51 -40.5 74.5t-144.5 48.5z" />
    <glyph glyph-name="nine.tf.sc" 
d="M302 -10q-141 0 -197 112l55 17q19 -38 57 -59.5t86 -21.5q81 0 123.5 59t51.5 181q-23 -46 -69.5 -73t-107.5 -27q-90 0 -150 57.5t-60 144.5t62.5 145t160.5 58q99 0 162 -62t63 -181q0 -175 -60.5 -262.5t-176.5 -87.5zM311 227q71 0 116.5 43.5t45.5 106.5
q0 68 -44 112t-116 44q-73 0 -116.5 -42.5t-43.5 -110.5q0 -65 42 -109t116 -44z" />
    <glyph glyph-name="cent.tf.sc" 
d="M492 179l57 -18q-29 -80 -88.5 -122t-137.5 -48v-140h-49v140q-96 9 -163.5 80t-67.5 215q0 138 65.5 211t165.5 82v139h49v-139q70 -5 128 -42.5t88 -115.5l-57 -17q-47 115 -161 125v-488q126 9 171 138zM104 286q0 -111 47 -173.5t125 -71.5v488q-78 -9 -125 -72.5
t-47 -170.5z" />
    <glyph glyph-name="sterling.tf.sc" 
d="M347 580q70 0 114.5 -35t62.5 -89l-57 -16q-28 92 -122 92q-57 0 -92 -34t-35 -89v-108h218v-39h-218v-105q0 -40 -10 -63.5t-37 -41.5h341v-52h-406l-6 46q38 16 49.5 39.5t11.5 70.5v106h-78v39h78v111q0 71 48 119.5t138 48.5z" />
    <glyph glyph-name="yen.tf.sc" 
d="M546 570l-197 -302h137v-37h-156v-80h156v-36h-156v-115h-60v115h-156v36h156v80h-156v37h138l-201 302h68l183 -293l177 293h67z" />
    <glyph glyph-name="figuredash.tf.sc" 
d="M556 314v-54h-512v54h512z" />
    <glyph glyph-name="Euro.tf.sc" 
d="M368 580q107 0 173 -69l-19 -53q-63 71 -154 71q-74 0 -121.5 -42.5t-61.5 -123.5h289l-12 -37h-282q-2 -13 -2 -40q0 -28 2 -40h255l-12 -37h-239q12 -83 57.5 -126.5t117.5 -43.5q94 0 155 63v-63q-66 -51 -156 -51t-153 55t-79 166h-81l12 37h65q-1 12 -1 40
q0 27 1 40h-73l12 37h66q19 105 84 161t157 56z" />
    <glyph glyph-name="dollar.lf.sc" horiz-adv-x="620" 
d="M325 686v-107q133 -10 204 -106l-45 -33q-55 79 -161 88v-208q118 -24 164.5 -61t46.5 -105q0 -69 -54 -115t-155 -50v-121h-44v121q-157 7 -232 106l43 37q70 -85 191 -93v234q-106 20 -154 57t-48 100q0 65 53.5 106t146.5 44v106h44zM283 328v201q-68 -1 -105 -27
t-37 -69q0 -41 30.5 -64.5t111.5 -40.5zM324 266v-227q73 3 110.5 33.5t37.5 79.5q0 45 -30.5 71t-117.5 43z" />
    <glyph glyph-name="zero.lf.sc" horiz-adv-x="585" 
d="M293 583q114 0 187.5 -81t73.5 -218q0 -136 -73 -215.5t-188 -79.5t-188 79.5t-73 215.5q0 137 73.5 218t187.5 81zM292 533q-89 0 -144 -67t-55 -182q0 -114 55 -179t144 -65t144 64.5t55 179.5q0 114 -55.5 181.5t-143.5 67.5z" />
    <glyph glyph-name="one.lf.sc" horiz-adv-x="465" 
d="M83 0v51h166v338h-162v47h40q77 0 103 27.5t33 106.5h46v-519h152v-51h-378z" />
    <glyph glyph-name="two.lf.sc" horiz-adv-x="546" 
d="M280 581q93 0 147.5 -49t54.5 -130q0 -91 -79.5 -171.5t-254.5 -179.5h346v-51h-437v49q201 123 281.5 198t80.5 152q0 63 -38 97.5t-101 34.5q-73 0 -116 -43.5t-44 -101.5h-62q3 76 62 135.5t160 59.5z" />
    <glyph glyph-name="three.lf.sc" horiz-adv-x="601" 
d="M306 583q98 0 150.5 -41t52.5 -106q0 -48 -29 -84.5t-80 -45.5q59 -7 96 -41t37 -96q0 -81 -65 -130t-166 -49q-96 0 -159.5 46t-82.5 127l58 12q35 -134 184 -134q74 0 120.5 34.5t46.5 93.5q0 56 -36.5 83.5t-99.5 27.5h-79v47h72q55 0 89.5 28t34.5 78q0 45 -37 72.5
t-107 27.5t-112.5 -32.5t-56.5 -89.5l-57 10q14 69 74.5 115.5t151.5 46.5z" />
    <glyph glyph-name="four.lf.sc" horiz-adv-x="591" 
d="M436 570v-396h106v-50h-106v-124h-59v124h-328v50l313 396h74zM378 508l-263 -334h263v334z" />
    <glyph glyph-name="five.lf.sc" horiz-adv-x="569" 
d="M473 570l-8 -51h-286l-26 -176q63 63 161 63q77 0 134.5 -55t57.5 -141q0 -98 -63 -159t-163 -61q-88 0 -141.5 40t-73.5 94l57 14q40 -97 160 -97q71 0 116.5 46.5t45.5 118.5q0 69 -42.5 110.5t-105.5 41.5q-91 0 -155 -77l-54 7l43 282h343z" />
    <glyph glyph-name="six.lf.sc" horiz-adv-x="577" 
d="M306 583q129 0 185 -112l-56 -17q-38 81 -130 81q-160 0 -178 -240q23 46 69.5 73t107.5 27q90 0 150 -57.5t60 -144.5t-62 -145t-160 -58q-99 0 -162.5 62.5t-63.5 181.5q0 173 62.5 261t177.5 88zM293 346q-71 0 -116 -43.5t-45 -106.5q0 -68 44 -112t116 -44t116 43
t44 110q0 65 -42.5 109t-116.5 44z" />
    <glyph glyph-name="seven.lf.sc" horiz-adv-x="490" 
d="M457 570v-48q-109 -122 -167.5 -244t-84.5 -278h-72q33 169 93.5 289t165.5 230h-302v-55h-52v106h419z" />
    <glyph glyph-name="eight.lf.sc" horiz-adv-x="573" 
d="M283 579q100 0 151 -42.5t51 -102.5q0 -89 -115 -123q78 -24 115 -60.5t37 -94.5q0 -70 -58 -118t-180 -48q-116 0 -175 48t-59 120q0 60 35.5 99t101.5 53q-102 38 -102 125q0 59 49.5 101.5t148.5 42.5zM283 530q-71 0 -105 -27t-34 -69q0 -40 32.5 -63.5t105.5 -37.5
l33 -6q110 32 110 106q0 42 -34.5 69.5t-107.5 27.5zM277 282l-34 8q-132 -23 -132 -131q0 -51 45 -85.5t129 -34.5q92 0 134.5 33.5t42.5 86.5q0 51 -40.5 74.5t-144.5 48.5z" />
    <glyph glyph-name="nine.lf.sc" horiz-adv-x="576" 
d="M270 -10q-141 0 -197 112l55 17q19 -38 57 -59.5t86 -21.5q81 0 123.5 59t51.5 181q-23 -46 -69.5 -73t-107.5 -27q-90 0 -150 57.5t-60 144.5t62.5 145t160.5 58q99 0 162 -62t63 -181q0 -175 -60.5 -262.5t-176.5 -87.5zM279 227q71 0 116.5 43.5t45.5 106.5
q0 68 -44 112t-116 44q-73 0 -116.5 -42.5t-43.5 -110.5q0 -65 42 -109t116 -44z" />
    <glyph glyph-name="cent.lf.sc" horiz-adv-x="620" 
d="M502 179l57 -18q-29 -80 -88.5 -122t-137.5 -48v-140h-49v140q-96 9 -163.5 80t-67.5 215q0 138 65.5 211t165.5 82v139h49v-139q70 -5 128 -42.5t88 -115.5l-57 -17q-47 115 -161 125v-488q126 9 171 138zM114 286q0 -111 47 -173.5t125 -71.5v488q-78 -9 -125 -72.5
t-47 -170.5z" />
    <glyph glyph-name="sterling.lf.sc" horiz-adv-x="620" 
d="M357 580q70 0 114.5 -35t62.5 -89l-57 -16q-28 92 -122 92q-57 0 -92 -34t-35 -89v-108h218v-39h-218v-105q0 -40 -10 -63.5t-37 -41.5h341v-52h-406l-6 46q38 16 49.5 39.5t11.5 70.5v106h-78v39h78v111q0 71 48 119.5t138 48.5z" />
    <glyph glyph-name="yen.lf.sc" horiz-adv-x="620" 
d="M556 570l-197 -302h137v-37h-156v-80h156v-36h-156v-115h-60v115h-156v36h156v80h-156v37h138l-201 302h68l183 -293l177 293h67z" />
    <glyph glyph-name="figuredash.lf.sc" 
d="M556 314v-54h-512v54h512z" />
    <glyph glyph-name="Euro.lf.sc" horiz-adv-x="620" 
d="M378 580q107 0 173 -69l-19 -53q-63 71 -154 71q-74 0 -121.5 -42.5t-61.5 -123.5h289l-12 -37h-282q-2 -13 -2 -40q0 -28 2 -40h255l-12 -37h-239q12 -83 57.5 -126.5t117.5 -43.5q94 0 155 63v-63q-66 -51 -156 -51t-153 55t-79 166h-81l12 37h65q-1 12 -1 40
q0 27 1 40h-73l12 37h66q19 105 84 161t157 56z" />
    <glyph glyph-name="parenleft.case" horiz-adv-x="272" 
d="M195 826h47q-61 -124 -90 -235.5t-29 -241.5t29 -241t90 -235h-47q-136 240 -136 476q0 237 136 477z" />
    <glyph glyph-name="parenright.case" horiz-adv-x="272" 
d="M30 826h47q136 -240 136 -477q0 -236 -136 -476h-47q61 124 90 235t29 241t-29 241.5t-90 235.5z" />
    <glyph glyph-name="hyphen.case" horiz-adv-x="360" 
d="M307 377v-54h-255v54h255z" />
    <glyph glyph-name="at.case" horiz-adv-x="1031" 
d="M547 813q180 0 291 -106.5t111 -271.5q0 -72 -22.5 -140t-71 -116.5t-111.5 -48.5q-14 0 -26.5 3t-22 7t-17.5 11t-13 13.5t-9.5 16t-7 15.5t-4.5 16t-2.5 14l-1.5 12l-1 9q-23 -62 -71 -91.5t-107 -29.5q-78 0 -124.5 54t-46.5 141q0 130 71 212t170 82q46 0 84.5 -21.5
t51.5 -72.5l12 71h53l-48 -282q-2 -26 -3.5 -55.5t14.5 -54t48 -24.5q66 0 107.5 79t41.5 183q0 144 -95.5 237t-250.5 93q-181 0 -294 -116.5t-113 -305.5q0 -170 98.5 -272t265.5 -102q98 0 200 35l16 -44q-117 -39 -217 -39q-189 0 -304.5 114.5t-115.5 306.5
q0 209 130.5 338.5t334.5 129.5zM535 564q-82 0 -133 -70.5t-51 -173.5q0 -67 32 -105.5t89 -38.5q67 0 115 56t59 174q7 87 -26 122.5t-85 35.5z" />
    <glyph glyph-name="bracketleft.case" horiz-adv-x="300" 
d="M255 836v-49h-131v-862h131v-50h-191v961h191z" />
    <glyph glyph-name="bracketright.case" horiz-adv-x="300" 
d="M45 787v49h191v-961h-191v50h131v862h-131z" />
    <glyph glyph-name="braceleft.case" horiz-adv-x="300" 
d="M264 836v-49h-10q-81 0 -81 -84v-252q0 -43 -23.5 -68t-50.5 -28q27 -3 50.5 -28.5t23.5 -67.5v-250q0 -84 81 -84h10v-49h-22q-60 0 -94.5 33t-34.5 89v252q0 43 -15.5 62.5t-49.5 23.5v38q34 4 49.5 23t15.5 63v254q0 56 34.5 89t94.5 33h22z" />
    <glyph glyph-name="braceright.case" horiz-adv-x="300" 
d="M36 787v49h22q60 0 94.5 -33t34.5 -89v-254q0 -44 15.5 -63t49.5 -23v-38q-34 -4 -49.5 -23.5t-15.5 -62.5v-252q0 -56 -34.5 -89t-94.5 -33h-22v49h10q81 0 81 84v250q0 42 23.5 67.5t50.5 28.5q-27 3 -50.5 28t-23.5 68v252q0 84 -81 84h-10z" />
    <glyph glyph-name="exclamdown.case" horiz-adv-x="256" 
d="M128 711q18 0 31.5 -13t13.5 -32q0 -18 -13.5 -31t-31.5 -13t-31.5 13t-13.5 31q0 19 13.5 32t31.5 13zM149 507l11 -274v-233h-65v233l11 274h43z" />
    <glyph glyph-name="guillemotleft.case" horiz-adv-x="465" 
d="M189 543l32 -22l-99 -169l99 -174l-32 -21l-123 164v62zM368 543l32 -22l-99 -169l99 -174l-32 -21l-123 164v62z" />
    <glyph glyph-name="uni00AD.case" horiz-adv-x="360" 
d="M307 377v-54h-255v54h255z" />
    <glyph glyph-name="guillemotright.case" horiz-adv-x="465" 
d="M273 543l124 -160v-62l-124 -164l-31 21l99 174l-99 169zM99 543l124 -160v-62l-124 -164l-31 21l99 174l-99 169z" />
    <glyph glyph-name="questiondown.case" horiz-adv-x="519" 
d="M253 712q18 0 31.5 -13t13.5 -31q0 -19 -13.5 -32t-31.5 -13t-31.5 13t-13.5 31q0 19 13.5 32t31.5 13zM285 493v-47q0 -37 -18.5 -67.5t-45 -52l-53 -43t-45 -51t-18.5 -65.5q0 -55 36.5 -91t107.5 -36q70 0 113.5 38t61.5 91l56 -17q-17 -61 -76 -113t-153 -52
q-57 0 -100.5 17.5t-66 45.5t-33 56.5t-10.5 56.5q0 48 19 83.5t46 57.5t54 42.5t46 48t19 62.5v36h60z" />
    <glyph glyph-name="gravecomb.case" horiz-adv-x="1" 
d="M-127 883l97 -130h-52l-127 130h82z" />
    <glyph glyph-name="acutecomb.case" horiz-adv-x="1" 
d="M-30 883l-126 -130h-53l97 130h82z" />
    <glyph glyph-name="uni0302.case" horiz-adv-x="1" 
d="M-161 888l131 -125h-57l-104 87l-103 -87h-58l132 125h59z" />
    <glyph glyph-name="tildecomb.case" horiz-adv-x="1" 
d="M501 866q29 0 51 -13.5t39.5 -27t35.5 -13.5q35 0 54 47h39q-9 -40 -34 -65t-62 -25q-30 0 -52 13.5t-39 27t-35 13.5q-36 0 -55 -47h-38q9 41 33.5 65.5t62.5 24.5z" />
    <glyph glyph-name="uni0304.case" horiz-adv-x="1" 
d="M692 839v-45h-301v45h301z" />
    <glyph glyph-name="uni0306.case" horiz-adv-x="1" 
d="M-69 881h39q-6 -55 -43.5 -90t-100.5 -35t-100.5 35t-43.5 90h38q6 -36 34.5 -59t71.5 -23t71.5 23t33.5 59z" />
    <glyph glyph-name="uni0307.case" horiz-adv-x="1" 
d="M213 871q17 0 29 -12.5t12 -28.5t-12 -28t-29 -12t-29 12t-12 28t12 28.5t29 12.5z" />
    <glyph glyph-name="uni0308.case" horiz-adv-x="1" 
d="M422 857q16 0 28 -11.5t12 -27.5t-12 -27.5t-28 -11.5t-27.5 11.5t-11.5 27.5t11.5 27.5t27.5 11.5zM636 857q16 0 28 -11.5t12 -27.5t-12 -27.5t-28 -11.5t-27.5 11.5t-11.5 27.5t11.5 27.5t27.5 11.5z" />
    <glyph glyph-name="uni030A.case" horiz-adv-x="1" 
d="M-146 955q47 0 81.5 -32t34.5 -80t-34.5 -79.5t-81.5 -31.5q-48 0 -82.5 31.5t-34.5 79.5t34.5 80t82.5 32zM-146 919q-31 0 -53 -21t-22 -55q0 -33 22 -53.5t53 -20.5t52.5 20.5t21.5 53.5t-22 54.5t-52 21.5z" />
    <glyph glyph-name="uni030B.case" horiz-adv-x="1" 
d="M-193 883l-112 -130h-44l82 130h74zM-31 883l-114 -130h-44l85 130h73z" />
    <glyph glyph-name="uni030C.case" horiz-adv-x="1" 
d="M-30 893l-131 -126h-59l-132 126h58l103 -87l104 87h57z" />
    <glyph glyph-name="endash.case" horiz-adv-x="516" 
d="M463 377v-54h-411v54h411z" />
    <glyph glyph-name="emdash.case" horiz-adv-x="616" 
d="M563 377v-54h-511v54h511z" />
    <glyph glyph-name="guilsinglleft.case" horiz-adv-x="256" 
d="M174 543l32 -22l-99 -169l99 -174l-32 -21l-123 164v62z" />
    <glyph glyph-name="guilsinglright.case" horiz-adv-x="256" 
d="M82 543l124 -160v-62l-124 -164l-31 21l99 174l-99 169z" />
    <glyph glyph-name="zero.zero" horiz-adv-x="599" 
d="M300 583q114 0 187.5 -81t73.5 -218q0 -136 -73 -215.5t-188 -79.5t-188 79.5t-73 215.5q0 137 73.5 218t187.5 81zM100 284q0 -110 52 -176l273 376q-52 49 -126 49q-89 0 -144 -67t-55 -182zM299 40q89 0 144 64.5t55 179.5q0 104 -47 170l-270 -375q50 -39 118 -39z
" />
    <glyph glyph-name="zero.tf.zero" 
d="M300 713q113 0 177.5 -91.5t64.5 -273.5q0 -179 -64.5 -270t-177.5 -91t-177.5 91t-64.5 270q0 182 64.5 273.5t177.5 91.5zM300 663q-86 0 -133 -78t-47 -236q0 -137 31 -213l276 470q-42 57 -127 57zM300 37q86 0 133 78.5t47 233.5q0 140 -31 216l-276 -469
q43 -59 127 -59z" />
    <glyph glyph-name="zero.lf.zero" horiz-adv-x="592" 
d="M297 695q116 0 188 -90t72 -263q0 -171 -72 -262.5t-188 -91.5q-117 0 -189.5 91.5t-72.5 262.5q0 173 72 263t190 90zM296 644q-91 0 -145.5 -76.5t-54.5 -225.5q0 -135 49 -214l273 468q-51 48 -122 48zM296 39q89 0 144.5 79t55.5 224q0 140 -51 220l-274 -469
q50 -54 125 -54z" />
    <glyph glyph-name="zero.tosf.zero" 
d="M300 583q112 0 183.5 -81t71.5 -218q0 -136 -71.5 -215.5t-183.5 -79.5t-183.5 79.5t-71.5 215.5q0 137 71.5 218t183.5 81zM107 283q0 -120 60 -186l235 406q-44 30 -102 30q-85 0 -139 -67t-54 -183zM300 40q86 0 139.5 64.5t53.5 178.5q0 127 -62 194l-235 -406
q46 -31 104 -31z" />
    <glyph glyph-name="zero.tf.sc.zero" 
d="M300 583q112 0 183.5 -81t71.5 -218q0 -136 -71.5 -215.5t-183.5 -79.5t-183.5 79.5t-71.5 215.5q0 137 71.5 218t183.5 81zM107 283q0 -120 60 -186l235 406q-44 30 -102 30q-85 0 -139 -67t-54 -183zM300 40q86 0 139.5 64.5t53.5 178.5q0 127 -62 194l-235 -406
q46 -31 104 -31z" />
    <glyph glyph-name="zero.lf.sc.zero" horiz-adv-x="599" 
d="M300 583q114 0 187.5 -81t73.5 -218q0 -136 -73 -215.5t-188 -79.5t-188 79.5t-73 215.5q0 137 73.5 218t187.5 81zM100 284q0 -110 52 -176l273 376q-52 49 -126 49q-89 0 -144 -67t-55 -182zM299 40q89 0 144 64.5t55 179.5q0 104 -47 170l-270 -375q50 -39 118 -39z
" />
    <glyph glyph-name="exclam.ss01" horiz-adv-x="256" 
d="M162 703v-233l-12 -274h-43l-11 274v233h66zM166 75v-75h-77v75h77z" />
    <glyph glyph-name="comma.ss01" horiz-adv-x="252" 
d="M164 75v-75l-55 -142h-39l39 142h-21v75h76z" />
    <glyph glyph-name="period.ss01" horiz-adv-x="249" 
d="M163 75v-75h-77v75h77z" />
    <glyph glyph-name="colon.ss01" horiz-adv-x="252" 
d="M164 75v-75h-77v75h77zM164 460v-75h-77v75h77z" />
    <glyph glyph-name="semicolon.ss01" horiz-adv-x="259" 
d="M164 75v-75l-55 -142h-39l39 142h-21v75h76zM164 442v-75h-77v75h77z" />
    <glyph glyph-name="question.ss01" horiz-adv-x="519" 
d="M268 708q58 0 101.5 -17.5t66 -45t33 -56.5t10.5 -57q0 -48 -19 -83.5t-46 -57.5t-54 -42t-46 -47.5t-19 -62.5v-43h-60v54q0 37 18.5 67.5t45 52l53 43t45 51t18.5 65.5q0 55 -37 91t-108 36q-70 0 -113.5 -38t-61.5 -92l-56 17q17 61 76 113t153 52zM305 75v-75h-77v75
h77z" />
    <glyph glyph-name="i.ss01" horiz-adv-x="227" 
d="M144 520v-520h-60v520h60zM150 708v-66h-71v66h71z" />
    <glyph glyph-name="j.ss01" horiz-adv-x="227" 
d="M144 520v-550q0 -74 -40 -109t-98 -35q-21 0 -49 4v48q22 -2 28 -2q51 0 75 24.5t24 88.5v531h60zM150 708v-66h-71v66h71z" />
    <glyph glyph-name="exclamdown.ss01" horiz-adv-x="256" 
d="M167 520v-75h-77v75h77zM150 326l11 -253v-233h-65v233l11 253h43z" />
    <glyph glyph-name="periodcentered.ss01" horiz-adv-x="249" 
d="M163 332v-75h-77v75h77z" />
    <glyph glyph-name="questiondown.ss01" horiz-adv-x="519" 
d="M293 520v-75h-77v75h77zM285 330v-47q0 -37 -18.5 -67.5t-45 -52l-53 -43t-45 -51t-18.5 -65.5q0 -55 36.5 -91t107.5 -36q70 0 113.5 38t61.5 91l56 -17q-17 -61 -76 -113t-153 -52q-57 0 -100.5 17.5t-66 45.5t-33 56.5t-10.5 57.5q0 47 19 83t46 57.5t54 41.5t46 47.5
t19 62.5v37h60z" />
    <glyph glyph-name="Adieresis.ss01" horiz-adv-x="606" 
d="M520 0l-49 146h-339l-49 -146h-64l245 700h80l244 -700h-68zM302 648l-152 -448h303zM231 847v-64h-67v64h67zM445 847v-64h-67v64h67z" />
    <glyph glyph-name="Edieresis.ss01" horiz-adv-x="565" 
d="M497 700v-54h-347v-262h326v-54h-326v-276h356v-54h-417v700h408zM226 847v-64h-67v64h67zM440 847v-64h-67v64h67z" />
    <glyph glyph-name="Idieresis.ss01" horiz-adv-x="344" 
d="M307 700v-53h-104v-594h104v-53h-269v53h104v594h-104v53h269zM99 847v-64h-67v64h67zM313 847v-64h-67v64h67z" />
    <glyph glyph-name="Odieresis.ss01" horiz-adv-x="743" 
d="M372 713q55 0 107.5 -19t100 -59.5t76.5 -114t29 -171.5q0 -93 -27 -165t-72.5 -113.5t-99.5 -62.5t-114 -21q-55 0 -107.5 19t-100 59.5t-76.5 114t-29 171.5q0 93 27 165t72.5 113.5t99.5 62.5t114 21zM371 659q-108 0 -178.5 -80.5t-70.5 -227.5q0 -149 70 -229.5
t179 -80.5q107 0 178.5 81t71.5 227q0 148 -70.5 229t-179.5 81zM298 847v-64h-67v64h67zM512 847v-64h-67v64h67z" />
    <glyph glyph-name="Udieresis.ss01" horiz-adv-x="657" 
d="M581 700v-456q0 -49 -13.5 -93t-41.5 -81.5t-79 -60t-119 -22.5q-70 0 -121 22.5t-78 61t-39.5 81.5t-12.5 92v456h61v-454q0 -95 47.5 -150t143.5 -55q94 0 142.5 55.5t48.5 149.5v454h61zM255 847v-64h-67v64h67zM469 847v-64h-67v64h67z" />
    <glyph glyph-name="adieresis.ss01" horiz-adv-x="544" 
d="M272 529q108 0 150.5 -43t42.5 -128v-216q0 -95 17 -142h-62q-12 38 -14 79q-24 -39 -72 -64t-113 -25q-83 0 -127.5 41.5t-44.5 108.5q0 72 50.5 114t162.5 57l143 19v23q0 70 -27 99.5t-107 29.5q-140 0 -143 -114h-59q2 76 54 118.5t149 42.5zM405 284l-126 -17
q-89 -12 -128.5 -41t-39.5 -83q0 -46 29.5 -74t91.5 -28q75 0 124 41t49 101v101zM201 690v-64h-67v64h67zM415 690v-64h-67v64h67z" />
    <glyph glyph-name="edieresis.ss01" horiz-adv-x="567" 
d="M290 529q107 0 167.5 -76t60.5 -190v-15h-402q1 -95 49.5 -152t134.5 -57q104 0 161 89l50 -27q-74 -112 -213 -112q-114 0 -179 77.5t-65 195.5q0 116 62 191.5t174 75.5zM289 480q-79 0 -124 -51.5t-49 -132.5h340q-4 82 -47.5 133t-119.5 51zM213 689v-64h-67v64h67z
M427 689v-64h-67v64h67z" />
    <glyph glyph-name="idieresis.ss01" horiz-adv-x="227" 
d="M144 520v-520h-60v520h60zM41 690v-64h-67v64h67zM255 690v-64h-67v64h67z" />
    <glyph glyph-name="odieresis.ss01" horiz-adv-x="595" 
d="M298 529q110 0 177 -77.5t67 -192.5q0 -120 -64.5 -195t-179.5 -75q-113 0 -178.5 76t-65.5 194t66 194t178 76zM297 478q-83 0 -132 -60t-49 -158q0 -100 48 -160t133 -60q86 0 134 59.5t48 160.5q0 97 -49 157.5t-133 60.5zM224 690v-64h-67v64h67zM438 690v-64h-67v64
h67z" />
    <glyph glyph-name="divide.ss01" 
d="M338 154v-75h-77v75h77zM338 506v-75h-77v75h77zM492 319v-54h-383v54h383z" />
    <glyph glyph-name="udieresis.ss01" horiz-adv-x="567" 
d="M484 520v-520h-60v92q-24 -47 -68.5 -74.5t-102.5 -27.5q-84 0 -129 47.5t-45 137.5v345h60v-332q0 -74 30 -109.5t96 -35.5q69 0 114 48t45 139v290h60zM207 689v-64h-67v64h67zM421 689v-64h-67v64h67z" />
    <glyph glyph-name="ydieresis.ss01" horiz-adv-x="486" 
d="M466 520l-179 -540q-25 -76 -61.5 -116t-107.5 -40q-29 0 -56 5v49q23 -4 45 -4q54 0 79.5 30.5t45.5 95.5h-19l-192 520h66l166 -472l150 472h63zM170 689v-64h-67v64h67zM384 689v-64h-67v64h67z" />
    <glyph glyph-name="ij.ss01" horiz-adv-x="468" 
d="M385 520v-550q0 -74 -40 -109t-98 -35q-21 0 -49 4v48q22 -2 28 -2q51 0 75 24.5t24 88.5v531h60zM391 708v-66h-71v66h71zM144 520v-520h-60v520h60zM150 708v-66h-71v66h71z" />
    <glyph glyph-name="Ydieresis.ss01" horiz-adv-x="591" 
d="M571 700l-242 -412v-288h-61v287l-247 413h69l209 -356l205 356h67zM224 847v-64h-67v64h67zM438 847v-64h-67v64h67z" />
    <glyph glyph-name="uni02BB.ss01" horiz-adv-x="254" 
d="M85 559v71l52 135h37l-37 -135h20v-71h-72z" />
    <glyph glyph-name="uni02BC.ss01" horiz-adv-x="254" 
d="M160 731v-71l-52 -135h-37l37 135h-20v71h72z" />
    <glyph glyph-name="uni0307.ss01" horiz-adv-x="1" 
d="M-30 708v-66h-71v66h71z" />
    <glyph glyph-name="uni0308.ss01" horiz-adv-x="1" 
d="M-244 690v-64h-67v64h67zM-30 690v-64h-67v64h67z" />
    <glyph glyph-name="uni0326.ss01" horiz-adv-x="1" 
d="M-30 -78v-61l-39 -107h-31l26 107h-19v61h63z" />
    <glyph glyph-name="quoteleft.ss01" horiz-adv-x="254" 
d="M85 559v71l52 135h37l-37 -135h20v-71h-72z" />
    <glyph glyph-name="quoteright.ss01" horiz-adv-x="254" 
d="M160 731v-71l-52 -135h-37l37 135h-20v71h72z" />
    <glyph glyph-name="quotesinglbase.ss01" horiz-adv-x="254" 
d="M160 71v-71l-52 -135h-37l37 135h-20v71h72z" />
    <glyph glyph-name="quotedblleft.ss01" horiz-adv-x="410" 
d="M240 559v71l52 135h37l-37 -135h20v-71h-72zM85 559v71l52 135h37l-37 -135h20v-71h-72z" />
    <glyph glyph-name="quotedblright.ss01" horiz-adv-x="410" 
d="M160 731v-71l-52 -135h-37l37 135h-20v71h72zM315 731v-71l-52 -135h-37l37 135h-20v71h72z" />
    <glyph glyph-name="quotedblbase.ss01" horiz-adv-x="410" 
d="M160 71v-71l-52 -135h-37l37 135h-20v71h72zM315 71v-71l-52 -135h-37l37 135h-20v71h72z" />
    <glyph glyph-name="bullet.ss01" horiz-adv-x="324" 
d="M242 391v-158h-162v158h162z" />
    <glyph glyph-name="ellipsis.ss01" horiz-adv-x="748" 
d="M164 75v-75h-77v75h77zM412 75v-75h-77v75h77zM660 75v-75h-77v75h77z" />
    <glyph glyph-name="uni203D.ss01" horiz-adv-x="519" 
d="M263 708q59 0 103.5 -17.5t67.5 -45t33.5 -56t10.5 -57.5q0 -48 -19 -83.5t-46 -57.5t-54 -42t-46 -47.5t-19 -62.5v-43h-57l-11 274v182q-51 -10 -84 -45t-47 -81l-56 17q17 61 75 113t149 52zM291 470l-7 -134q13 19 38.5 43.5t44 42t33 46t14.5 61.5q0 50 -30.5 84.5
t-92.5 41.5v-185zM227 0v75h77v-75h-77z" />
    <glyph glyph-name="uni2219.ss01" 
d="M380 391v-158h-162v158h162z" />
    <glyph glyph-name="dotmath.ss01" 
d="M338 332v-75h-77v75h77z" />
    <glyph glyph-name="adieresis.sc.ss01" horiz-adv-x="544" 
d="M460 0l-42 115h-295l-42 -115h-62l215 570h78l213 -570h-65zM271 525l-130 -360h259zM199 740v-64h-67v64h67zM413 740v-64h-67v64h67z" />
    <glyph glyph-name="edieresis.sc.ss01" horiz-adv-x="517" 
d="M451 570v-52h-303v-201h285v-52h-285v-213h311v-52h-370v570h362zM202 740v-64h-67v64h67zM416 740v-64h-67v64h67z" />
    <glyph glyph-name="idieresis.sc.ss01" horiz-adv-x="301" 
d="M263 570v-51h-83v-468h83v-51h-225v51h83v468h-83v51h225zM77 740v-64h-67v64h67zM291 740v-64h-67v64h67z" />
    <glyph glyph-name="odieresis.sc.ss01" horiz-adv-x="669" 
d="M335 580q38 0 75 -9t74 -31t65 -55t45 -85t17 -116q0 -76 -24 -134t-64 -92t-87.5 -51t-100.5 -17q-49 0 -95 15.5t-88 48t-67.5 92.5t-25.5 140q0 76 23.5 134t63.5 92t88 51t101 17zM335 528q-94 0 -154.5 -63t-60.5 -179q0 -117 60.5 -180.5t154.5 -63.5
q92 0 153 63.5t61 178.5q0 117 -60 180.5t-154 63.5zM262 740v-64h-67v64h67zM476 740v-64h-67v64h67z" />
    <glyph glyph-name="udieresis.sc.ss01" horiz-adv-x="599" 
d="M523 570v-368q0 -88 -54 -150t-170 -62q-62 0 -107 18.5t-69 50.5t-35 67.5t-11 75.5v368h59v-367q0 -75 40.5 -118t123.5 -43q80 0 121.5 44t41.5 117v367h60zM227 740v-64h-67v64h67zM441 740v-64h-67v64h67z" />
    <glyph glyph-name="ydieresis.sc.ss01" horiz-adv-x="533" 
d="M512 570l-214 -336v-234h-59v233l-218 337h68l181 -282l176 282h66zM195 740v-64h-67v64h67zM409 740v-64h-67v64h67z" />
    <glyph glyph-name="exclamdown.case.ss01" horiz-adv-x="256" 
d="M167 700v-75h-77v75h77zM150 507l11 -274v-233h-65v233l11 274h43z" />
    <glyph glyph-name="questiondown.case.ss01" horiz-adv-x="519" 
d="M293 700v-75h-77v75h77zM285 493v-47q0 -37 -18.5 -67.5t-45 -52l-53 -43t-45 -51t-18.5 -65.5q0 -55 36.5 -91t107.5 -36q70 0 113.5 38t61.5 91l56 -17q-17 -61 -76 -113t-153 -52q-57 0 -100.5 17.5t-66 45.5t-33 56.5t-10.5 56.5q0 48 19 83.5t46 57.5t54 42.5t46 48
t19 62.5v36h60z" />
    <glyph glyph-name="uni0307.case.ss01" horiz-adv-x="1" 
d="M-30 859v-66h-71v66h71z" />
    <glyph glyph-name="uni0308.case.ss01" horiz-adv-x="1" 
d="M-244 847v-64h-67v64h67zM-30 847v-64h-67v64h67z" />
    <glyph glyph-name="one.ss02" horiz-adv-x="479" 
d="M251 0v389h-163v47h40q77 0 103 27.5t32 106.5h48v-570h-60z" />
    <glyph glyph-name="onesuperior.ss02" horiz-adv-x="400" 
d="M202 330v304h-106v40h24q53 0 71 15.5t22 60.5h47v-420h-58z" />
    <glyph glyph-name="onequarter.ss02" horiz-adv-x="857" 
d="M695 712l-433 -724h-52l433 724h52zM764 420v-280h71v-46h-71v-94h-56v94h-229v48l212 278h73zM708 361l-172 -221h172v221zM202 280v304h-106v40h24q53 0 71 15.5t22 60.5h47v-420h-58z" />
    <glyph glyph-name="onehalf.ss02" horiz-adv-x="907" 
d="M695 712l-433 -724h-52l433 724h52zM709 429q66 0 104.5 -33.5t38.5 -88.5q0 -126 -221 -261h230v-46h-308v45q120 81 178.5 143t58.5 116q0 38 -21.5 58.5t-62.5 20.5q-43 0 -66.5 -24.5t-25.5 -63.5h-58q1 56 40.5 95t112.5 39zM202 280v304h-106v40h24q53 0 71 15.5
t22 60.5h47v-420h-58z" />
    <glyph glyph-name="uni2081.ss02" horiz-adv-x="400" 
d="M202 -160v304h-106v40h24q53 0 71 15.5t22 60.5h47v-420h-58z" />
    <glyph glyph-name="uni2150.ss02" horiz-adv-x="937" 
d="M695 712l-433 -724h-52l433 724h52zM891 420v-46q-77 -89 -115 -173.5t-53 -200.5h-63q17 122 58.5 207t116.5 167h-202v-48h-50v94h308zM202 280v304h-106v40h24q53 0 71 15.5t22 60.5h47v-420h-58z" />
    <glyph glyph-name="uni2151.ss02" horiz-adv-x="907" 
d="M695 712l-433 -724h-52l433 724h52zM693 -8q-99 0 -142 81l48 20q28 -56 94 -56q111 0 117 178q-14 -30 -46 -49t-76 -19q-61 0 -101.5 37t-40.5 102q0 64 45 103.5t115 39.5q73 0 117.5 -44.5t44.5 -129.5q0 -263 -175 -263zM703 193q46 0 74.5 27.5t28.5 67.5
q0 42 -27 69t-73 27q-45 0 -73 -26.5t-28 -70.5q0 -43 26.5 -68.5t71.5 -25.5zM202 280v304h-106v40h24q53 0 71 15.5t22 60.5h47v-420h-58z" />
    <glyph glyph-name="uni2152.ss02" horiz-adv-x="1314" 
d="M690 712l-433 -724h-52l433 724h52zM709 0v304h-106v40h24q53 0 71 15.5t22 60.5h47v-420h-58zM1067 429q77 0 120.5 -55t43.5 -164q0 -108 -43.5 -162.5t-120.5 -54.5t-120.5 54.5t-43.5 162.5q0 109 43.5 164t120.5 55zM1067 382q-106 0 -106 -172q0 -170 106 -170
q104 0 104 170q0 172 -104 172zM187 280v304h-106v40h24q53 0 71 15.5t22 60.5h47v-420h-58z" />
    <glyph glyph-name="onethird.ss02" horiz-adv-x="907" 
d="M695 712l-433 -724h-52l433 724h52zM710 429q69 0 108 -30.5t39 -79.5q0 -38 -25 -63t-67 -30q45 -4 75 -31.5t30 -72.5q0 -59 -45.5 -94t-116.5 -35q-64 0 -107 29.5t-57 81.5l54 12q9 -35 37.5 -55.5t72.5 -20.5t72.5 22t28.5 62q0 37 -25.5 57.5t-67.5 20.5h-48v42h43
q37 0 61.5 17.5t24.5 51.5t-24 52.5t-64 18.5t-66 -19t-34 -52l-54 9q12 47 53 77t102 30zM202 280v304h-106v40h24q53 0 71 15.5t22 60.5h47v-420h-58z" />
    <glyph glyph-name="uni2155.ss02" horiz-adv-x="917" 
d="M695 712l-433 -724h-52l433 724h52zM857 420l-7 -46h-204l-18 -124q40 43 110 43q60 0 102 -39.5t42 -102.5q0 -70 -46 -114t-124 -44q-65 0 -104.5 28.5t-54.5 68.5l51 17q12 -29 39.5 -48.5t70.5 -19.5q49 0 78.5 31t29.5 78q0 45 -28.5 71.5t-72.5 26.5
q-64 0 -102 -48l-50 8l30 214h258zM202 280v304h-106v40h24q53 0 71 15.5t22 60.5h47v-420h-58z" />
    <glyph glyph-name="uni2159.ss02" horiz-adv-x="897" 
d="M695 712l-433 -724h-52l433 724h52zM709 429q96 0 136 -81l-49 -18q-25 54 -87 54q-107 0 -118 -172q15 32 48 51.5t76 19.5q61 0 102 -37.5t41 -102.5q0 -68 -44 -109t-114 -41q-74 0 -119.5 45.5t-45.5 135.5q0 125 46 190t128 65zM701 238q-45 0 -74 -27.5t-29 -69.5
q0 -45 28 -74t73 -29q44 0 71.5 28t27.5 74q0 44 -26.5 71t-70.5 27zM202 280v304h-106v40h24q53 0 71 15.5t22 60.5h47v-420h-58z" />
    <glyph glyph-name="oneeighth.ss02" horiz-adv-x="907" 
d="M695 712l-433 -724h-52l433 724h52zM706 -7q-85 0 -128 36.5t-43 84.5q0 87 100 112q-77 33 -77 96q0 42 37 74.5t111 32.5q73 0 110.5 -31.5t37.5 -72.5q0 -33 -24.5 -59t-60.5 -39q62 -19 86 -44t24 -67q0 -49 -41.5 -86t-131.5 -37zM703 248l21 -6q74 28 74 79
q0 27 -23 45.5t-68 18.5t-68.5 -19t-23.5 -45q0 -28 20.5 -43.5t67.5 -29.5zM705 38q59 0 86.5 23t27.5 54q0 35 -25.5 52.5t-90.5 34.5l-21 6q-88 -21 -88 -92q0 -33 28.5 -55.5t82.5 -22.5zM202 280v304h-106v40h24q53 0 71 15.5t22 60.5h47v-420h-58z" />
    <glyph glyph-name="uni215F.ss02" horiz-adv-x="557" 
d="M695 712l-433 -724h-52l433 724h52zM202 280v304h-106v40h24q53 0 71 15.5t22 60.5h47v-420h-58z" />
    <glyph glyph-name="uni2460.ss02" horiz-adv-x="900" 
d="M436 159v276h-97v37h22q48 0 64.5 14t20.5 55h42v-382h-52zM451 713q151 0 256 -106t105 -258t-105 -257t-256 -105q-152 0 -258 105t-106 257t106 258t258 106zM451 674q-134 0 -228 -95t-94 -230t94 -229t228 -94q135 0 228 94t93 229t-93 230t-228 95z" />
    <glyph glyph-name="uni2776.ss02" horiz-adv-x="900" 
d="M451 -13q-152 0 -258 105t-106 257t106 258t258 106q151 0 256 -106t105 -258t-105 -257t-256 -105zM436 159h53v382h-42q-15 -69 -107 -69v-41q68 0 96 34v-306z" />
    <glyph glyph-name="one.numr.ss02" horiz-adv-x="400" 
d="M202 280v304h-106v40h24q53 0 71 15.5t22 60.5h47v-420h-58z" />
    <glyph glyph-name="one.dnom.ss02" horiz-adv-x="400" 
d="M202 0v304h-106v40h24q53 0 71 15.5t22 60.5h47v-420h-58z" />
    <glyph glyph-name="one.tf.ss02" 
d="M316 0v519h-163v47h40q77 0 103 27.5t32 106.5h48v-700h-60z" />
    <glyph glyph-name="one.lf.ss02" horiz-adv-x="465" 
d="M259 0v503h-163v47h40q77 0 103 27.5t32 106.5h48v-684h-60z" />
    <glyph glyph-name="one.tosf.ss02" 
d="M316 0v389h-163v47h40q77 0 103 27.5t32 106.5h48v-570h-60z" />
    <glyph glyph-name="one.tf.sc.ss02" 
d="M316 0v389h-163v47h40q77 0 103 27.5t32 106.5h48v-570h-60z" />
    <glyph glyph-name="one.lf.sc.ss02" horiz-adv-x="479" 
d="M268 0v389h-163v47h40q77 0 103 27.5t32 106.5h48v-570h-60z" />
    <glyph glyph-name="circle.comp" horiz-adv-x="900" 
d="M451 713q151 0 256 -106t105 -258t-105 -257t-256 -105q-152 0 -258 105t-106 257t106 258t258 106zM451 674q-134 0 -228 -95t-94 -230t94 -229t228 -94q135 0 228 94t93 229t-93 230t-228 95z" />
    </font>
</defs>
</svg>
