<?xml version="1.0" standalone="no"?>
<!DOCTYPE svg PUBLIC "-//W3C//DTD SVG 1.1//EN" "http://www.w3.org/Graphics/SVG/1.1/DTD/svg11.dtd" >
<svg>
<metadata>
Created by FontForge 20120731 at Tue Mar  1 22:19:39 2016
 By ,,,
2015 published by Monotype GmbH
</metadata>
<defs>
<font id="RealTextOT-Thin" horiz-adv-x="600" >
  <font-face 
    font-family="RealTextOT-Thin"
    font-weight="250"
    font-stretch="normal"
    units-per-em="1000"
    panose-1="2 11 4 4 2 1 1 1 1 2"
    ascent="800"
    descent="-200"
    x-height="517"
    cap-height="700"
    bbox="-320 -229 1379 950"
    underline-thickness="17"
    underline-position="-58"
    unicode-range="U+000D-1F310"
  />
<missing-glyph 
d="M531 700v-859h-462v859h462zM513 684h-425v-826h425v826z" />
    <glyph glyph-name="f_f" unicode="ff" horiz-adv-x="573" 
d="M512 694q-67 0 -91.5 -32.5t-24.5 -88.5v-56h186v-14h-186v-503h-18v503h-251v-503h-18v503h-78v14h78v48q0 59 34.5 97t116.5 38q68 0 143 -33q31 42 107 42q48 0 98 -21v-15q-50 21 -96 21zM378 517v56q0 52 17 83q-72 30 -134 30q-134 0 -134 -121v-48h251z" />
    <glyph glyph-name="f_f_i" unicode="ffi" horiz-adv-x="761" 
d="M395 517h272v-517h-18v503h-254v-503h-18v503h-250v-503h-18v503h-79v14h79v48q0 135 151 135q64 0 146 -34q36 43 120 43q60 0 117 -22v-15q-59 22 -116 22q-132 0 -132 -121v-56zM377 517v58q0 48 20 79q-80 32 -137 32q-133 0 -133 -121v-48h250z" />
    <glyph glyph-name="f_f_j" unicode="ffj" horiz-adv-x="760" 
d="M395 517h272v-551q0 -71 -37 -102.5t-93 -31.5q-19 0 -41 2v15q18 -2 35 -2q118 0 118 125v531h-254v-503h-18v503h-250v-503h-18v503h-79v14h79v48q0 135 151 135q64 0 146 -34q36 43 120 43q60 0 117 -22v-15q-59 22 -116 22q-132 0 -132 -121v-56zM377 517v58
q0 48 20 79q-80 32 -137 32q-133 0 -133 -121v-48h250z" />
    <glyph glyph-name="f_f_l" unicode="ffl" horiz-adv-x="822" 
d="M735 11q12 0 46 4v-15q-28 -5 -51 -5q-48 0 -69 29t-21 89v565q-59 16 -114 16q-131 0 -131 -121v-56h170v-14h-170v-503h-18v503h-250v-503h-18v503h-79v14h79v48q0 135 151 135q65 0 145 -34q38 43 119 43q56 0 116 -16l18 1v-579q0 -55 17 -79.5t60 -24.5zM377 517v58
q0 48 20 79q-77 32 -137 32q-133 0 -133 -121v-48h250z" />
    <glyph glyph-name="f_i" unicode="fi" horiz-adv-x="493" 
d="M258 709q60 0 117 -22v-15q-59 22 -116 22q-132 0 -132 -121v-56h272v-517h-18v503h-254v-503h-18v503h-79v14h79v58q0 134 149 134z" />
    <glyph glyph-name="f_j" unicode="fj" horiz-adv-x="492" 
d="M258 709q60 0 117 -22v-15q-59 22 -116 22q-132 0 -132 -121v-56h272v-551q0 -71 -37 -102.5t-93 -31.5q-19 0 -41 2v15q18 -2 35 -2q118 0 118 125v531h-254v-503h-18v503h-79v14h79v58q0 134 149 134z" />
    <glyph glyph-name="f_l" unicode="fl" horiz-adv-x="554" 
d="M256 709q56 0 116 -16l18 1v-579q0 -55 17 -79.5t60 -24.5q12 0 46 4v-15q-28 -5 -51 -5q-48 0 -69 29t-21 89v565q-59 16 -114 16q-131 0 -131 -121v-56h170v-14h-170v-503h-18v503h-79v14h79v58q0 134 147 134z" />
    <glyph glyph-name=".notdef" 
d="M531 700v-859h-462v859h462zM513 684h-425v-826h425v826z" />
    <glyph glyph-name=".null" horiz-adv-x="0" 
 />
    <glyph glyph-name="nonmarkingreturn" horiz-adv-x="333" 
 />
    <glyph glyph-name="CR" unicode="&#xd;" horiz-adv-x="274" 
 />
    <glyph glyph-name="space" unicode=" " horiz-adv-x="274" 
 />
    <glyph glyph-name="exclam" unicode="!" horiz-adv-x="256" 
d="M137 703v-246l-3 -274h-13l-3 274v246h19zM128 30q7 0 12 -5t5 -12t-5 -12t-12 -5t-12 5t-5 12t5 12t12 5z" />
    <glyph glyph-name="quotedbl" unicode="&#x22;" horiz-adv-x="420" 
d="M123 716v-214h-16v214h16zM313 716v-214h-16v214h16z" />
    <glyph glyph-name="numbersign" unicode="#" 
d="M535 479h-89l-40 -278h88v-14h-90l-27 -187h-16l27 187h-203l-27 -187h-16l27 187h-88v14h90l40 278h-90v14h92l27 187h16l-27 -187h203l27 187h16l-27 -187h87v-14zM390 201l40 278h-203l-40 -278h203z" />
    <glyph glyph-name="dollar" unicode="$" horiz-adv-x="587" 
d="M318 834v-125q75 -1 135 -32.5t94 -82.5l-14 -10q-31 48 -87 78t-128 31v-317q127 -22 179.5 -67.5t52.5 -126.5q0 -85 -60 -137.5t-172 -53.5v-139h-18v139q-79 1 -150 27.5t-113 79.5l14 12q80 -101 249 -103v355q-117 20 -172 61.5t-55 117.5t60 121.5t167 46.5v125
h18zM300 379v315q-99 -1 -153.5 -42.5t-54.5 -109.5q0 -70 49.5 -107.5t158.5 -55.5zM318 359v-352q103 1 158 49t55 126q0 74 -47.5 115.5t-165.5 61.5z" />
    <glyph glyph-name="percent" unicode="%" horiz-adv-x="1014" 
d="M736 712l-433 -724h-16l433 724h16zM231 709q77 0 128.5 -56.5t51.5 -165.5q0 -113 -51.5 -170t-128.5 -57q-78 0 -129 57t-51 170q0 109 51.5 165.5t128.5 56.5zM231 696q-72 0 -118 -53t-46 -156q0 -105 46 -159t118 -54t118 54t46 159q0 103 -46.5 156t-117.5 53z
M783 440q77 0 128 -57t51 -166q0 -112 -51 -169t-128 -57q-78 0 -129.5 57t-51.5 169q0 109 51.5 166t129.5 57zM783 427q-73 0 -119 -53t-46 -156q0 -106 46.5 -160t118.5 -54q71 0 117 54t46 159q0 103 -46 156.5t-117 53.5z" />
    <glyph glyph-name="ampersand" unicode="&#x26;" horiz-adv-x="689" 
d="M287 -9q-93 0 -160 55.5t-67 148.5q0 132 145 193q-61 55 -84.5 92t-23.5 83q0 65 45 105.5t120 40.5q72 0 115 -39.5t43 -95.5q0 -57 -37 -99.5t-152 -90.5l285 -264q56 88 65 240h17q-8 -161 -70 -251q58 -54 84.5 -73t50.5 -25l-7 -17q-25 7 -51.5 27t-85.5 75
q-81 -105 -232 -105zM220 395q110 45 146 85t36 94q0 50 -38 85.5t-102 35.5q-69 0 -108 -37t-39 -95q0 -43 22.5 -78t82.5 -90zM287 8q147 0 219 99l-290 271q-138 -57 -138 -183q0 -85 60.5 -136t148.5 -51z" />
    <glyph glyph-name="quotesingle" unicode="'" horiz-adv-x="230" 
d="M123 716v-214h-16v214h16z" />
    <glyph glyph-name="parenleft" unicode="(" horiz-adv-x="263" 
d="M211 780h14q-131 -243 -131 -477q0 -233 131 -476h-14q-136 240 -136 476q0 237 136 477z" />
    <glyph glyph-name="parenright" unicode=")" horiz-adv-x="263" 
d="M38 780h14q136 -240 136 -477q0 -236 -136 -476h-14q131 243 131 476q0 234 -131 477z" />
    <glyph glyph-name="asterisk" unicode="*" horiz-adv-x="459" 
d="M237 716l-2 -157l149 47l6 -16l-151 -42l95 -132l-15 -11l-90 136l-91 -137l-14 10l95 134l-151 42l5 16l150 -47l-3 157h17z" />
    <glyph glyph-name="plus" unicode="+" 
d="M308 475v-176h175v-16h-175v-175h-17v175h-175v16h175v176h17z" />
    <glyph glyph-name="comma" unicode="," horiz-adv-x="227" 
d="M114 29q16 0 16 -16q0 -23 -14 -64.5t-35 -75.5l-10 4q36 67 39 122q-12 3 -12 14q0 16 16 16z" />
    <glyph glyph-name="hyphen" unicode="-" horiz-adv-x="360" 
d="M305 315v-16h-251v16h251z" />
    <glyph glyph-name="period" unicode="." horiz-adv-x="227" 
d="M114 30q7 0 12 -5t5 -12t-5 -12t-12 -5t-12 5t-5 12t5 12t12 5z" />
    <glyph glyph-name="slash" unicode="/" horiz-adv-x="520" 
d="M443 775l-352 -934h-15l352 934h15z" />
    <glyph glyph-name="zero" unicode="0" horiz-adv-x="587" 
d="M294 574q107 0 178.5 -80t71.5 -214q0 -133 -71.5 -211t-178.5 -78q-108 0 -179.5 78t-71.5 211q0 134 71.5 214t179.5 80zM294 558q-100 0 -166 -75t-66 -203q0 -126 66 -200t166 -74t166 73.5t66 200.5q0 128 -66.5 203t-165.5 75z" />
    <glyph glyph-name="one" unicode="1" horiz-adv-x="479" 
d="M86 0v16h172v498q-16 -43 -57 -68.5t-101 -26.5v16q68 2 109.5 36.5t50.5 92.5h16v-548h162v-16h-352z" />
    <glyph glyph-name="two" unicode="2" horiz-adv-x="548" 
d="M281 574q87 0 137.5 -45.5t50.5 -127.5q0 -92 -94.5 -185t-277.5 -200h387v-16h-416v15q192 115 287.5 206t95.5 178q0 77 -46 118t-124 41q-85 0 -136.5 -51t-54.5 -114h-19q3 68 60 124.5t150 56.5z" />
    <glyph glyph-name="three" unicode="3" horiz-adv-x="547" 
d="M273 574q96 0 150 -46.5t54 -120.5q0 -69 -42 -113t-112 -47q74 -4 124.5 -52.5t50.5 -126.5q0 -98 -66 -154t-163 -56q-89 0 -150 49t-81 135l18 4q19 -80 73 -126t140 -46q90 0 150 51t60 143q0 79 -51.5 125t-133.5 46h-66v15h64q77 0 122 41t45 112q0 68 -50 110
t-136 42q-81 0 -130.5 -41t-65.5 -107l-17 4q15 68 70.5 113.5t142.5 45.5z" />
    <glyph glyph-name="four" unicode="4" horiz-adv-x="586" 
d="M429 564v-548h129v-16h-129v-130h-18v130h-371v16l367 548h22zM411 542l-352 -526h352v526z" />
    <glyph glyph-name="five" unicode="5" horiz-adv-x="588" 
d="M490 564l-3 -16h-337l-38 -286q74 99 200 99q89 0 151 -66t62 -173q0 -116 -65.5 -190t-169.5 -74q-92 0 -146.5 46t-75.5 105l17 5q20 -55 71 -97.5t135 -42.5q95 0 155.5 70t60.5 178q0 100 -57 161.5t-138 61.5q-126 0 -203 -107l-17 2l43 324h355z" />
    <glyph glyph-name="six" unicode="6" horiz-adv-x="583" 
d="M313 693q127 0 179 -125l-16 -5q-47 115 -163 115q-214 0 -229 -396q11 68 71 119t149 51q94 0 154 -61t60 -166q0 -104 -61 -169t-162 -65q-102 0 -164.5 68.5t-62.5 181.5q0 226 63.5 339t181.5 113zM301 437q-90 0 -152.5 -60.5t-62.5 -144.5q0 -96 56.5 -161
t152.5 -65q93 0 149 60.5t56 158.5t-55 155t-144 57z" />
    <glyph glyph-name="seven" unicode="7" horiz-adv-x="463" 
d="M449 565v-15q-131 -170 -199 -328.5t-93 -351.5h-19q24 195 93 352.5t200 327.5h-382v-79h-16v94h416z" />
    <glyph glyph-name="eight" unicode="8" horiz-adv-x="594" 
d="M295 693q107 0 156 -48t49 -113q0 -67 -50 -108t-119 -57q105 -30 155 -72t50 -118q0 -32 -12.5 -62.5t-39 -59.5t-75.5 -46.5t-114 -17.5q-118 0 -178 56t-60 130q0 83 52 133.5t148 62.5q-85 22 -126 60t-41 99q0 27 10.5 53.5t33 51.5t64.5 40.5t97 15.5zM295 678
q-97 0 -142 -45t-45 -101q0 -61 45.5 -96.5t138.5 -57.5l21 -5q72 17 121.5 56t49.5 103q0 60 -45 103t-144 43zM300 360l-21 6q-99 -10 -151.5 -58.5t-52.5 -130.5q0 -68 56 -119.5t164 -51.5q60 0 105.5 16.5t70 43t36 55t11.5 57.5q0 73 -50 110.5t-168 71.5z" />
    <glyph glyph-name="nine" unicode="9" horiz-adv-x="583" 
d="M289 574q103 0 165 -66.5t62 -178.5q0 -248 -59 -360t-188 -112q-137 0 -195 114l15 7q54 -106 180 -106q117 0 171 100.5t61 312.5q-11 -71 -69.5 -121.5t-149.5 -50.5q-96 0 -156 60.5t-60 166.5q0 103 61 168.5t162 65.5zM289 559q-92 0 -148.5 -61t-56.5 -158
q0 -99 55 -155t145 -56q93 0 153.5 61.5t60.5 147.5q0 94 -55.5 157.5t-153.5 63.5z" />
    <glyph glyph-name="colon" unicode=":" horiz-adv-x="228" 
d="M114 433q7 0 12 -5t5 -12t-5 -12t-12 -5t-12 5t-5 12t5 12t12 5zM114 30q7 0 12 -5t5 -12t-5 -12t-12 -5t-12 5t-5 12t5 12t12 5z" />
    <glyph glyph-name="semicolon" unicode=";" horiz-adv-x="228" 
d="M114 29q16 0 16 -16q0 -23 -14 -64.5t-35 -75.5l-10 4q36 67 39 122q-12 3 -12 14q0 16 16 16zM114 433q7 0 12 -5t5 -12t-5 -12t-12 -5t-12 5t-5 12t5 12t12 5z" />
    <glyph glyph-name="less" unicode="&#x3c;" 
d="M482 479v-17l-353 -177l353 -178v-17l-364 185v20z" />
    <glyph glyph-name="equal" unicode="=" 
d="M483 412v-16h-367v16h367zM483 211v-16h-367v16h367z" />
    <glyph glyph-name="greater" unicode="&#x3e;" 
d="M118 479l364 -184v-20l-364 -185v17l352 178l-352 177v17z" />
    <glyph glyph-name="question" unicode="?" horiz-adv-x="519" 
d="M272 704q53 0 93 -16t61 -42t30.5 -53t9.5 -55q0 -43 -19 -77.5t-46 -58t-54 -45.5t-46 -52t-19 -66v-56h-18v59q0 37 19 67.5t46 53t53.5 45.5t45.5 56t19 73q0 59 -42 104.5t-132 45.5q-83 0 -135.5 -44.5t-68.5 -101.5l-17 6q16 59 73.5 108t146.5 49zM274 30
q7 0 12 -5t5 -12t-5 -12t-12 -5t-12 5t-5 12t5 12t12 5z" />
    <glyph glyph-name="at" unicode="@" horiz-adv-x="1031" 
d="M550 709q173 0 280 -105.5t107 -268.5q0 -71 -23 -138.5t-68 -113.5t-100 -46q-104 0 -88 166q-44 -175 -190 -175q-74 0 -117.5 52.5t-43.5 137.5q0 132 69 213.5t164 81.5q24 0 45.5 -6t44.5 -21t36.5 -46.5t13.5 -76.5l23 129h16l-43 -242q-4 -20 -6 -38.5t-2 -50
t6.5 -54t24.5 -39.5t47 -17q74 0 123.5 88.5t49.5 196.5q0 156 -101.5 258t-267.5 102q-192 0 -315.5 -125.5t-123.5 -328.5q0 -185 105 -292t283 -107q97 0 208 37l5 -14q-117 -38 -214 -38q-184 0 -294 111.5t-110 302.5q0 209 128.5 338t327.5 129zM542 497
q-90 0 -153 -77.5t-63 -201.5q0 -79 39.5 -127t106.5 -48q160 0 197 251q10 62 0.5 105.5t-33.5 63t-46.5 27t-47.5 7.5z" />
    <glyph glyph-name="A" unicode="A" horiz-adv-x="593" 
d="M544 0l-60 167h-375l-61 -167h-19l257 700h24l254 -700h-20zM298 683l-183 -500h363z" />
    <glyph glyph-name="B" unicode="B" horiz-adv-x="626" 
d="M399 378q82 -5 129.5 -55.5t47.5 -125.5q0 -88 -62.5 -142.5t-177.5 -54.5h-237v700h209q113 0 170.5 -42.5t57.5 -121.5q0 -67 -38 -108.5t-99 -49.5zM309 684h-193v-299h248q68 0 110.5 42t42.5 109q0 71 -53 109.5t-155 38.5zM116 16h221q103 0 161 50t58 131
q0 76 -51 124t-138 48h-251v-353z" />
    <glyph glyph-name="C" unicode="C" horiz-adv-x="699" 
d="M360 709q83 0 155.5 -44.5t109.5 -143.5l-18 -5q-35 91 -101.5 133.5t-145.5 42.5q-116 0 -194 -88t-78 -253q0 -91 23.5 -159.5t63.5 -107t86.5 -57.5t97.5 -19q90 0 159 46.5t102 142.5l18 -5q-35 -102 -110 -151.5t-169 -49.5q-41 0 -80 11t-78 37.5t-67.5 66.5
t-46.5 103.5t-18 141.5q0 90 24.5 160.5t66 112.5t92.5 63.5t108 21.5z" />
    <glyph glyph-name="D" unicode="D" horiz-adv-x="685" 
d="M99 700h177q152 0 246 -85.5t94 -254.5q0 -100 -27.5 -173t-74 -112t-98.5 -57t-112 -18h-205v700zM277 683h-160v-666h187q44 0 84 9.5t79 34t67.5 62.5t46 98.5t17.5 138.5q0 159 -87 241t-234 82z" />
    <glyph glyph-name="E" unicode="E" horiz-adv-x="557" 
d="M479 700v-16h-362v-318h341v-16h-341v-334h371v-16h-389v700h380z" />
    <glyph glyph-name="F" unicode="F" horiz-adv-x="524" 
d="M470 700v-16h-353v-330h330v-17h-330v-337h-18v700h371z" />
    <glyph glyph-name="G" unicode="G" horiz-adv-x="722" 
d="M359 709q191 0 262 -173l-17 -7q-66 164 -245 164q-113 0 -192 -90.5t-79 -256.5q0 -90 23 -157.5t62.5 -106t85.5 -57t98 -18.5q48 0 91.5 16.5t82 50.5t61.5 96.5t23 144.5v8h-224v16h242v-339h-18v215q-12 -76 -54 -128t-94 -74t-111 -22q-53 0 -101.5 18.5t-91.5 58
t-68.5 111t-25.5 167.5q0 90 24.5 161t66 114t92.5 65.5t107 22.5z" />
    <glyph glyph-name="H" unicode="H" horiz-adv-x="674" 
d="M575 700v-700h-18v358h-440v-358h-18v700h18v-326h440v326h18z" />
    <glyph glyph-name="I" unicode="I" horiz-adv-x="322" 
d="M283 700v-16h-113v-668h113v-16h-244v16h113v668h-113v16h244z" />
    <glyph glyph-name="J" unicode="J" horiz-adv-x="382" 
d="M297 700v-529q0 -86 -37 -131t-124 -45q-44 0 -101 10v17q48 -9 94 -9q82 0 116 39t34 120v528h18z" />
    <glyph glyph-name="K" unicode="K" 
d="M543 0l-302 390l-124 -142v-248h-18v700h18v-428l371 428h22l-258 -296l312 -404h-21z" />
    <glyph glyph-name="L" unicode="L" horiz-adv-x="520" 
d="M117 700v-683h360v-17h-378v700h18z" />
    <glyph glyph-name="M" unicode="M" horiz-adv-x="795" 
d="M630 700l101 -700h-18l-98 683l-202 -683h-21l-216 684l-94 -684h-18l96 700h28l214 -680l200 680h28z" />
    <glyph glyph-name="N" unicode="N" horiz-adv-x="682" 
d="M583 700v-700h-20l-447 670v-670h-17v700h20l446 -672v672h18z" />
    <glyph glyph-name="O" unicode="O" horiz-adv-x="739" 
d="M369 709q42 0 83 -11.5t81 -38.5t70 -67.5t48.5 -103t18.5 -139.5q0 -91 -25.5 -161.5t-69 -112.5t-96 -63t-110.5 -21q-42 0 -82.5 11.5t-80.5 38.5t-70 67.5t-48.5 103t-18.5 139.5q0 91 25.5 161.5t69 112.5t95.5 63t110 21zM370 693q-118 0 -200 -87.5t-82 -254.5
q0 -89 25 -157.5t66.5 -108t90 -59t100.5 -19.5q55 0 104.5 21t89.5 61t63.5 107.5t23.5 152.5q0 89 -25 157.5t-66 108t-89.5 59t-100.5 19.5z" />
    <glyph glyph-name="P" unicode="P" horiz-adv-x="604" 
d="M99 700h207q127 0 185.5 -54.5t58.5 -147.5q0 -98 -60.5 -156.5t-180.5 -58.5h-192v-283h-18v700zM117 300h193q110 0 165.5 52.5t55.5 145.5q0 86 -54 136t-169 50h-191v-384z" />
    <glyph glyph-name="Q" unicode="Q" horiz-adv-x="741" 
d="M369 709q42 0 83 -11.5t81 -38.5t70 -67.5t48.5 -103t18.5 -139.5q0 -219 -141 -311q55 -68 171 -100l-8 -19q-58 17 -106 48t-71 62q-64 -38 -146 -38q-42 0 -82.5 11.5t-80.5 38.5t-70 67.5t-48.5 103t-18.5 139.5q0 91 25.5 161.5t69 112.5t95.5 63t110 21zM370 692
q-118 0 -200 -87t-82 -254q0 -89 25 -157.5t66.5 -107.5t90 -58.5t100.5 -19.5q56 0 105 20.5t89 61t63.5 107.5t23.5 152q0 89 -25 157.5t-66 107.5t-89.5 58.5t-100.5 19.5z" />
    <glyph glyph-name="R" unicode="R" horiz-adv-x="596" 
d="M99 700h194q122 0 182.5 -50.5t60.5 -139.5q0 -77 -48.5 -131.5t-145.5 -58.5l211 -320h-22l-208 318h-206v-318h-18v700zM295 684h-178v-351h207q97 0 145.5 51t48.5 126q0 83 -55.5 128.5t-167.5 45.5z" />
    <glyph glyph-name="S" unicode="S" horiz-adv-x="604" 
d="M302 -9q-79 0 -152 26.5t-115 80.5l14 12q41 -52 108.5 -77.5t144.5 -25.5q109 0 168.5 48.5t59.5 126.5q0 75 -50 117.5t-175 62.5q-120 20 -176.5 60t-56.5 118q0 76 61 122.5t169 46.5q161 0 244 -116l-15 -10q-78 110 -229 110q-100 0 -155.5 -42t-55.5 -111
q0 -71 52 -107t171 -56q127 -21 181 -67.5t54 -127.5q0 -85 -63.5 -138t-183.5 -53z" />
    <glyph glyph-name="T" unicode="T" horiz-adv-x="576" 
d="M536 700v-16h-239v-684h-18v684h-239v16h496z" />
    <glyph glyph-name="U" unicode="U" horiz-adv-x="649" 
d="M565 700v-457q0 -104 -60 -178t-181 -74q-64 0 -112 22t-74.5 59t-39 80t-12.5 91v457h18v-457q0 -64 21 -115.5t72 -86t128 -34.5q110 0 166 68t56 168v457h18z" />
    <glyph glyph-name="V" unicode="V" horiz-adv-x="541" 
d="M513 700l-225 -700h-24l-235 700h20l227 -682l219 682h18z" />
    <glyph glyph-name="W" unicode="W" horiz-adv-x="817" 
d="M783 700l-174 -700h-22l-177 676l-167 -676h-23l-186 700h19l178 -680l169 680h20l178 -680l167 680h18z" />
    <glyph glyph-name="X" unicode="X" horiz-adv-x="580" 
d="M301 379l250 -379h-22l-240 364l-239 -364h-21l249 377l-216 323h21l207 -308l205 308h21z" />
    <glyph glyph-name="Y" unicode="Y" horiz-adv-x="578" 
d="M545 700l-242 -405v-295h-18v295l-252 405h20l241 -389l231 389h20z" />
    <glyph glyph-name="Z" unicode="Z" horiz-adv-x="592" 
d="M530 700v-16l-461 -667h469v-17h-493v15l462 669h-431v16h454z" />
    <glyph glyph-name="bracketleft" unicode="[" horiz-adv-x="300" 
d="M242 790v-15h-148v-929h148v-15h-166v959h166z" />
    <glyph glyph-name="backslash" unicode="\" horiz-adv-x="520" 
d="M90 775l353 -934h-15l-352 934h14z" />
    <glyph glyph-name="bracketright" unicode="]" horiz-adv-x="300" 
d="M58 775v15h166v-959h-166v15h148v929h-148z" />
    <glyph glyph-name="asciicircum" unicode="^" 
d="M307 709l186 -368h-19l-177 352l-175 -352h-19l185 368h19z" />
    <glyph glyph-name="underscore" unicode="_" horiz-adv-x="510" 
d="M512 -66v-17h-514v17h514z" />
    <glyph glyph-name="grave" unicode="`" horiz-adv-x="187" 
d="M54 720l103 -127h-15l-112 127h24z" />
    <glyph glyph-name="a" unicode="a" horiz-adv-x="541" 
d="M272 524q107 0 144 -44t37 -134v-174q0 -120 16 -172h-19q-16 57 -14 120q-13 -51 -68 -90t-143 -39q-83 0 -124.5 38.5t-41.5 102.5q0 72 52 113.5t167 57.5l157 21v21q0 86 -32 125.5t-131 39.5q-170 0 -176 -143h-17q2 70 48 113.5t145 43.5zM435 309l-152 -20
q-107 -14 -156 -51.5t-49 -103.5q0 -58 36.5 -92.5t113.5 -34.5q93 0 150 48t57 115v139z" />
    <glyph glyph-name="b" unicode="b" horiz-adv-x="597" 
d="M112 700v-351q14 75 67.5 125t136.5 50q105 0 161.5 -71.5t56.5 -191.5t-59.5 -195t-163.5 -75q-83 0 -134.5 45t-64.5 118v-154h-18v700h18zM313 508q-90 0 -146 -69.5t-56 -186.5q0 -122 54.5 -183.5t144.5 -61.5q95 0 150 69.5t55 184.5q0 113 -52 180t-150 67z" />
    <glyph glyph-name="c" unicode="c" horiz-adv-x="549" 
d="M297 524q67 0 118.5 -31.5t76.5 -84.5l-17 -6q-23 49 -69 77.5t-108 28.5q-99 0 -157 -70.5t-58 -182.5q0 -107 56 -177.5t154 -70.5q139 0 191 131l17 -6q-58 -141 -209 -141q-107 0 -167.5 75.5t-60.5 188.5q0 118 63 193.5t170 75.5z" />
    <glyph glyph-name="d" unicode="d" horiz-adv-x="596" 
d="M503 700v-700h-18v166q-14 -74 -66.5 -124.5t-137.5 -50.5q-106 0 -161.5 72.5t-55.5 189.5q0 119 57.5 195t161.5 76q82 0 135 -44t67 -118v338h18zM284 508q-97 0 -149 -70.5t-52 -183.5q0 -112 50.5 -179.5t148.5 -67.5q92 0 148 69.5t56 186.5q0 122 -54.5 183.5
t-147.5 61.5z" />
    <glyph glyph-name="e" unicode="e" horiz-adv-x="571" 
d="M291 524q104 0 162.5 -76t58.5 -183v-7h-429q0 -110 58 -181.5t160 -71.5q115 0 186 98l14 -10q-77 -104 -201 -104q-110 0 -173 78.5t-63 194.5q0 110 60 186t167 76zM290 509q-96 0 -150.5 -68.5t-56.5 -166.5h411q-1 98 -54.5 166.5t-149.5 68.5z" />
    <glyph glyph-name="f" unicode="f" horiz-adv-x="304" 
d="M241 709q48 0 98 -21v-15q-50 21 -96 21q-67 0 -91.5 -32.5t-24.5 -88.5v-56h186v-14h-186v-503h-18v503h-79v14h79v56q0 62 28.5 99t103.5 37z" />
    <glyph glyph-name="g" unicode="g" horiz-adv-x="560" 
d="M525 549v-16q-70 0 -111 -55q52 -45 52 -117q0 -75 -52 -116.5t-144 -41.5q-75 0 -130 34q-47 -32 -47 -70q0 -28 23 -46.5t61 -18.5h128q205 0 205 -132q0 -66 -63 -104t-168 -38q-225 0 -225 135q0 38 26.5 72.5t77.5 53.5q-38 4 -59 25t-21 51q0 43 52 80
q-58 45 -58 116q0 67 53 115t143 48q82 0 135 -38q44 63 122 63zM268 510q-82 0 -130 -43.5t-48 -104.5q0 -70 51.5 -108t127.5 -38q84 0 131.5 38t47.5 108q0 64 -46 106t-134 42zM300 87h-120q-109 -38 -109 -124q0 -121 208 -121q97 0 155 34.5t58 93.5t-44 88t-148 29z
" />
    <glyph glyph-name="h" unicode="h" horiz-adv-x="565" 
d="M112 700v-340q12 75 64.5 119.5t127.5 44.5q173 0 173 -193v-331h-18v326q0 182 -158 182q-80 0 -134.5 -58.5t-54.5 -173.5v-276h-18v700h18z" />
    <glyph glyph-name="i" unicode="i" horiz-adv-x="206" 
d="M112 517v-517h-18v517h18zM103 703q15 0 15 -14q0 -15 -15 -15t-15 15q0 14 15 14z" />
    <glyph glyph-name="j" unicode="j" horiz-adv-x="205" 
d="M112 517v-551q0 -71 -37.5 -102.5t-93.5 -31.5q-19 0 -41 2v15q20 -2 36 -2q118 0 118 125v545h18zM103 703q15 0 15 -14q0 -15 -15 -15t-15 15q0 14 15 14z" />
    <glyph glyph-name="k" unicode="k" horiz-adv-x="506" 
d="M112 700v-503l318 320h23l-204 -204l228 -313h-21l-219 301l-125 -125v-176h-18v700h18z" />
    <glyph glyph-name="l" unicode="l" horiz-adv-x="271" 
d="M107 700v-585q0 -55 17 -79.5t61 -24.5q10 0 46 4v-15q-30 -5 -52 -5q-48 0 -69 29t-21 89v587h18z" />
    <glyph glyph-name="m" unicode="m" horiz-adv-x="899" 
d="M643 524q167 0 167 -193v-331h-18v321q0 187 -152 187q-76 0 -127.5 -59t-51.5 -177v-272h-18v301q0 104 -37 155.5t-115 51.5q-73 0 -126 -59.5t-53 -176.5v-272h-18v517h18v-154q14 76 65.5 118.5t116.5 42.5q78 0 118.5 -46t43.5 -127q15 85 66 129t121 44z" />
    <glyph glyph-name="n" unicode="n" horiz-adv-x="565" 
d="M304 524q173 0 173 -193v-331h-18v325q0 183 -158 183q-80 0 -134.5 -58.5t-54.5 -173.5v-276h-18v517h18v-156q14 78 67.5 120.5t124.5 42.5z" />
    <glyph glyph-name="o" unicode="o" horiz-adv-x="595" 
d="M298 524q107 0 170 -77.5t63 -189.5q0 -118 -61 -192.5t-172 -74.5q-110 0 -172 75.5t-62 191.5t62.5 191.5t171.5 75.5zM298 508q-100 0 -157.5 -70.5t-57.5 -180.5t57 -180.5t158 -70.5q103 0 159 69.5t56 181.5q0 108 -58.5 179.5t-156.5 71.5z" />
    <glyph glyph-name="p" unicode="p" horiz-adv-x="597" 
d="M316 524q104 0 160.5 -71.5t56.5 -189.5q0 -122 -59 -197t-162 -75q-81 0 -133.5 44t-66.5 119v-313h-18v676h18v-168q14 74 67.5 124.5t136.5 50.5zM313 508q-90 0 -146 -69.5t-56 -185.5q0 -122 54.5 -184t143.5 -62q96 0 151 69.5t55 186.5q0 112 -52 178.5t-150 66.5
z" />
    <glyph glyph-name="q" unicode="q" horiz-adv-x="596" 
d="M283 524q83 0 135.5 -43.5t66.5 -118.5v155h18v-676h-18v326q-14 -74 -66.5 -125t-137.5 -51q-106 0 -161.5 72.5t-55.5 189.5q0 119 57.5 195t161.5 76zM284 508q-97 0 -149 -70.5t-52 -183.5q0 -112 50.5 -179.5t148.5 -67.5q92 0 148 69.5t56 186.5q0 122 -54.5 183.5
t-147.5 61.5z" />
    <glyph glyph-name="r" unicode="r" horiz-adv-x="366" 
d="M297 524q19 0 39 -3v-19q-21 3 -38 3q-35 0 -66.5 -13.5t-59.5 -41.5t-44 -78.5t-16 -118.5v-253h-18v517h18v-167q14 87 66 130.5t119 43.5z" />
    <glyph glyph-name="s" unicode="s" horiz-adv-x="515" 
d="M250 524q117 0 189 -60l-13 -11q-65 56 -176 56q-76 0 -119.5 -30.5t-43.5 -77.5q0 -50 40 -76.5t135 -41.5q106 -17 153 -48t47 -97q0 -64 -54.5 -105.5t-153.5 -41.5q-140 0 -219 81l12 12q76 -77 206 -77q92 0 141 37t49 94q0 58 -43.5 86t-145.5 44q-98 15 -141.5 46
t-43.5 87q0 53 48.5 88t132.5 35z" />
    <glyph glyph-name="t" unicode="t" horiz-adv-x="357" 
d="M127 660v-143h185v-14h-185v-366q0 -63 25 -96.5t91 -33.5q47 0 92 14v-15q-45 -15 -95 -15q-74 0 -102.5 37.5t-28.5 105.5v369h-79v14h79v143h18z" />
    <glyph glyph-name="u" unicode="u" horiz-adv-x="564" 
d="M471 517v-517h-18v154q-15 -76 -66.5 -118.5t-125.5 -42.5q-172 0 -172 190v334h18v-330q0 -90 38 -134t119 -44q80 0 134.5 58t54.5 173v277h18z" />
    <glyph glyph-name="v" unicode="v" horiz-adv-x="489" 
d="M456 517l-201 -517h-22l-200 517h20l191 -497l193 497h19z" />
    <glyph glyph-name="w" unicode="w" horiz-adv-x="770" 
d="M731 517l-163 -517h-22l-162 494l-156 -494h-21l-169 517h20l160 -496l155 496h22l162 -495l155 495h19z" />
    <glyph glyph-name="x" unicode="x" horiz-adv-x="469" 
d="M413 517l-167 -238l194 -279h-20l-186 266l-185 -266h-20l194 279l-167 238h21l158 -225l158 225h20z" />
    <glyph glyph-name="y" unicode="y" horiz-adv-x="478" 
d="M445 517l-185 -523q-28 -80 -61 -123t-94 -43q-19 0 -49 4v16q20 -4 46 -4q56 0 85.5 39.5t55.5 116.5h-5l-205 517h20l197 -501l175 501h20z" />
    <glyph glyph-name="z" unicode="z" horiz-adv-x="465" 
d="M419 517v-15l-356 -486h358v-16h-381v14l357 488h-326v15h348z" />
    <glyph glyph-name="braceleft" unicode="{" horiz-adv-x="300" 
d="M247 790v-15h-6q-90 0 -90 -91v-292q0 -38 -20 -60t-49 -23q29 -1 49 -23t20 -60v-290q0 -91 90 -91h6v-15h-10q-48 0 -76 26.5t-28 76.5v291q0 77 -73 79v12q73 2 73 79v293q0 50 28 76.5t76 26.5h10z" />
    <glyph glyph-name="bar" unicode="|" horiz-adv-x="300" 
d="M157 774v-933h-14v933h14z" />
    <glyph glyph-name="braceright" unicode="}" horiz-adv-x="300" 
d="M53 775v15h10q48 0 76 -26.5t28 -76.5v-293q0 -77 73 -79v-12q-73 -2 -73 -79v-291q0 -50 -28 -76.5t-76 -26.5h-10v15h6q90 0 90 91v290q0 38 20 60t49 23q-29 1 -49 23t-20 60v292q0 91 -90 91h-6z" />
    <glyph glyph-name="asciitilde" unicode="~" 
d="M225 347q35 0 79 -28.5t72 -28.5q59 0 97 56l10 -10q-43 -62 -108 -62q-35 0 -79 29t-72 29q-57 0 -97 -55l-10 9q42 61 108 61z" />
    <glyph glyph-name="uni00A0" unicode="&#xa0;" horiz-adv-x="274" 
 />
    <glyph glyph-name="exclamdown" unicode="&#xa1;" horiz-adv-x="256" 
d="M128 521q7 0 12 -5t5 -12t-5 -11.5t-12 -4.5t-12 4.5t-5 11.5t5 12t12 5zM134 348l3 -261v-246h-19v246l3 261h13z" />
    <glyph glyph-name="cent" unicode="&#xa2;" 
d="M501 138l16 -6q-56 -136 -204 -141v-140h-16v140q-103 2 -159 77t-56 187q0 116 56.5 190.5t158.5 78.5v144h16v-144q66 -1 118 -32.5t76 -83.5l-15 -6q-23 49 -71 78t-109 30v-504q139 4 189 132zM99 255q0 -106 51.5 -176.5t147.5 -72.5v504q-95 -4 -147 -74t-52 -181z
" />
    <glyph glyph-name="sterling" unicode="&#xa3;" horiz-adv-x="660" 
d="M383 709q71 0 115 -38t61 -95l-17 -5q-15 53 -54.5 88t-105.5 35q-81 0 -128 -49t-47 -123v-176h268v-15h-268v-195q0 -48 -11.5 -74t-46.5 -46h417v-16h-440l-2 15q41 20 53.5 46t12.5 75v195h-84v15h84v177q0 79 50.5 132.5t142.5 53.5z" />
    <glyph glyph-name="currency" unicode="&#xa4;" horiz-adv-x="620" 
d="M71 543l101 -104q54 49 137 49q86 0 138 -49l101 103l11 -12l-101 -102q51 -53 51 -144q0 -92 -51 -145l101 -101l-11 -11l-101 101q-53 -48 -137 -48t-138 48l-100 -102l-11 11l100 102q-51 56 -51 145q0 90 51 144l-101 103zM309 473q-83 0 -132.5 -50.5t-49.5 -138.5
q0 -89 49.5 -139.5t133.5 -50.5q83 0 132.5 51t49.5 139t-50 138.5t-133 50.5z" />
    <glyph glyph-name="yen" unicode="&#xa5;" horiz-adv-x="566" 
d="M539 700l-235 -393h165v-12h-172v-143h172v-12h-172v-140h-18v140h-174v12h174v143h-174v12h168l-246 393h20l242 -387l230 387h20z" />
    <glyph glyph-name="brokenbar" unicode="&#xa6;" horiz-adv-x="300" 
d="M157 774v-369h-14v369h14zM157 210v-369h-14v369h14z" />
    <glyph glyph-name="section" unicode="&#xa7;" 
d="M307 706q102 0 177 -59l-11 -12q-71 56 -166 56q-77 0 -121.5 -32.5t-44.5 -83.5t37 -78t130 -41q104 -16 156 -52t52 -99q0 -40 -26.5 -73t-79.5 -69q68 -31 68 -103q0 -58 -48.5 -95t-133.5 -37q-118 0 -198 68l11 12q75 -65 187 -65q77 0 120.5 32.5t43.5 83.5
t-36.5 77.5t-130.5 41.5q-104 16 -156.5 52t-52.5 99q0 42 26.5 75t81.5 67q-69 34 -69 103q0 59 49 95.5t135 36.5zM206 464q-55 -33 -79.5 -63.5t-24.5 -70.5q0 -57 49.5 -89t150.5 -48q61 -11 95 -24q51 36 76.5 66.5t25.5 69.5q0 56 -50 88.5t-150 48.5q-56 9 -93 22z
" />
    <glyph glyph-name="dieresis" unicode="&#xa8;" horiz-adv-x="303" 
d="M44 673q15 0 15 -15q0 -14 -15 -14q-14 0 -14 14q0 15 14 15zM258 673q15 0 15 -15q0 -14 -15 -14q-14 0 -14 14q0 15 14 15z" />
    <glyph glyph-name="copyright" unicode="&#xa9;" horiz-adv-x="900" 
d="M451 709q150 0 254 -104.5t104 -255.5t-104 -254.5t-254 -103.5t-255 103.5t-105 254.5t105 255.5t255 104.5zM451 698q-145 0 -246.5 -101.5t-101.5 -247.5t101.5 -246.5t246.5 -100.5q146 0 246.5 100.5t100.5 246.5t-101 247.5t-246 101.5zM453 568q63 0 100.5 -32
t53.5 -80l-13 -3q-34 103 -141 103q-79 0 -126 -53.5t-47 -153.5q0 -91 44.5 -148.5t123.5 -57.5q57 0 95 30t57 75l12 -4q-20 -46 -61 -79.5t-103 -33.5q-85 0 -133.5 61.5t-48.5 156.5q0 106 52.5 162.5t134.5 56.5z" />
    <glyph glyph-name="ordfeminine" unicode="&#xaa;" horiz-adv-x="411" 
d="M206 709q81 0 109.5 -33t28.5 -100v-135q0 -85 12 -126h-19q-11 38 -11 80q-11 -34 -51 -60t-104 -26q-63 0 -94 29t-31 77q0 54 38.5 85t124.5 43l117 16v16q0 63 -24 91.5t-96 28.5q-122 0 -128 -104h-17q2 53 37 85.5t108 32.5zM326 544l-111 -15q-79 -10 -114.5 -37
t-35.5 -75q0 -42 27 -67.5t83 -25.5q67 0 109 35.5t42 84.5v100z" />
    <glyph glyph-name="guillemotleft" unicode="&#xab;" horiz-adv-x="465" 
d="M205 462l10 -6l-108 -174l108 -183l-10 -6l-115 180v18zM363 462l10 -6l-108 -174l108 -183l-10 -6l-115 180v18z" />
    <glyph glyph-name="logicalnot" unicode="&#xac;" 
d="M483 299v-207h-18v191h-349v16h367z" />
    <glyph glyph-name="uni00AD" unicode="&#xad;" horiz-adv-x="360" 
d="M305 315v-16h-251v16h251z" />
    <glyph glyph-name="registered" unicode="&#xae;" horiz-adv-x="900" 
d="M451 709q150 0 254 -104.5t104 -255.5t-104 -254.5t-254 -103.5t-255 103.5t-105 254.5t105 255.5t255 104.5zM451 698q-145 0 -246.5 -101.5t-101.5 -247.5t101.5 -246.5t246.5 -100.5q146 0 246.5 100.5t100.5 246.5t-101 247.5t-246 101.5zM331 568h126
q72 0 109.5 -31t37.5 -88q0 -48 -31 -81t-90 -36l129 -191h-15l-128 191h-126v-191h-12v427zM456 556h-113v-214h129q58 0 88 30.5t30 76.5q0 51 -34 79t-100 28z" />
    <glyph glyph-name="macron" unicode="&#xaf;" horiz-adv-x="336" 
d="M306 666v-15h-276v15h276z" />
    <glyph glyph-name="degree" unicode="&#xb0;" 
d="M247 704q69 0 117.5 -45t48.5 -122q0 -76 -48.5 -121t-117.5 -45t-117.5 45.5t-48.5 121.5q0 77 48.5 121.5t117.5 44.5zM248 691q-62 0 -106 -41t-44 -112t44 -112t106 -41t105 40.5t43 111.5t-43 112.5t-105 41.5z" />
    <glyph glyph-name="plusminus" unicode="&#xb1;" 
d="M309 475v-176h175v-16h-175v-168h-17v168h-175v16h175v176h17zM482 52v-16h-366v16h366z" />
    <glyph glyph-name="twosuperior" unicode="&#xb2;" horiz-adv-x="400" 
d="M201 757q61 0 96 -31.5t35 -85.5q0 -66 -68.5 -144t-182.5 -150h263v-16h-287v15q256 172 256 294q0 49 -29.5 75.5t-82.5 26.5q-57 0 -88.5 -29.5t-33.5 -71.5h-18q2 46 38.5 81.5t101.5 35.5z" />
    <glyph glyph-name="threesuperior" unicode="&#xb3;" horiz-adv-x="400" 
d="M203 757q63 0 99 -29.5t36 -77.5q0 -40 -27 -65.5t-72 -28.5q47 -2 79.5 -31t32.5 -75q0 -57 -43.5 -91t-106.5 -34q-59 0 -99 28t-53 75l17 4q13 -40 48 -65.5t87 -25.5q56 0 93.5 29t37.5 80q0 46 -32.5 72t-83.5 26h-47v14h46q47 0 75.5 23.5t28.5 63.5q0 43 -31 68
t-84 25q-51 0 -82.5 -24t-41.5 -63l-17 3q10 42 46.5 70.5t93.5 28.5z" />
    <glyph glyph-name="acute" unicode="&#xb4;" horiz-adv-x="187" 
d="M157 720l-111 -127h-16l105 127h22z" />
    <glyph glyph-name="mu" unicode="&#xb5;" horiz-adv-x="569" 
d="M476 517v-517h-18v186q-9 -95 -60.5 -144.5t-123.5 -49.5q-145 0 -162 139v-290h-18v676h18v-330q0 -178 162 -178q77 0 130.5 58t53.5 173v277h18z" />
    <glyph glyph-name="paragraph" unicode="&#xb6;" horiz-adv-x="617" 
d="M503 700v-859h-12v848h-197v-848h-12v498q-81 2 -133 55.5t-52 122.5q0 77 51 130t139 53h216z" />
    <glyph glyph-name="periodcentered" unicode="&#xb7;" horiz-adv-x="227" 
d="M114 309q7 0 12 -5t5 -12t-5 -12t-12 -5t-12 5t-5 12t5 12t12 5z" />
    <glyph glyph-name="cedilla" unicode="&#xb8;" horiz-adv-x="266" 
d="M127 -5l-2 -56q112 -5 112 -77q0 -36 -30 -58t-83 -22q-57 0 -94 24l8 12q34 -23 87 -23q44 0 70 18t26 49q0 34 -27.5 49t-83.5 17l5 67h12z" />
    <glyph glyph-name="onesuperior" unicode="&#xb9;" horiz-adv-x="400" 
d="M95 330v16h113v364q-25 -52 -105 -54v16q93 2 108 78h15v-404h105v-16h-236z" />
    <glyph glyph-name="ordmasculine" unicode="&#xba;" horiz-adv-x="452" 
d="M226 709q81 0 129 -58t48 -143q0 -89 -46.5 -144.5t-130.5 -55.5q-83 0 -129.5 56.5t-46.5 143.5t47 144t129 57zM227 693q-73 0 -115.5 -51.5t-42.5 -132.5t42 -133t116 -52q75 0 116 51t41 134q0 80 -42.5 132t-114.5 52z" />
    <glyph glyph-name="guillemotright" unicode="&#xbb;" horiz-adv-x="465" 
d="M253 462l116 -171v-18l-116 -180l-9 6l108 183l-108 174zM104 462l116 -171v-18l-116 -180l-9 6l108 183l-108 174z" />
    <glyph glyph-name="onequarter" unicode="&#xbc;" horiz-adv-x="863" 
d="M701 712l-433 -724h-16l433 724h16zM752 420v-292h82v-16h-82v-112h-17v112h-244v16l239 292h22zM735 401l-224 -273h224v273zM95 280v16h113v364q-25 -52 -105 -54v16q93 2 108 78h15v-404h105v-16h-236z" />
    <glyph glyph-name="onehalf" unicode="&#xbd;" horiz-adv-x="913" 
d="M701 712l-433 -724h-16l433 724h16zM714 427q61 0 96 -31.5t35 -85.5q0 -66 -68.5 -144t-182.5 -150h263v-16h-287v15q256 172 256 294q0 49 -29.5 75.5t-82.5 26.5q-57 0 -88.5 -29.5t-33.5 -71.5h-18q2 46 38.5 81.5t101.5 35.5zM95 280v16h113v364q-25 -52 -105 -54
v16q93 2 108 78h15v-404h105v-16h-236z" />
    <glyph glyph-name="threequarters" unicode="&#xbe;" horiz-adv-x="823" 
d="M661 712l-433 -724h-16l433 724h16zM712 420v-292h82v-16h-82v-112h-17v112h-244v16l239 292h22zM695 401l-224 -273h224v273zM203 707q63 0 99 -29.5t36 -77.5q0 -40 -27 -65.5t-72 -28.5q47 -2 79.5 -31t32.5 -75q0 -57 -43.5 -91t-106.5 -34q-59 0 -99 28t-53 75l17 4
q13 -40 48 -65.5t87 -25.5q56 0 93.5 29t37.5 80q0 46 -32.5 72t-83.5 26h-47v14h46q47 0 75.5 23.5t28.5 63.5q0 43 -31 68t-84 25q-51 0 -82.5 -24t-41.5 -63l-17 3q10 42 46.5 70.5t93.5 28.5z" />
    <glyph glyph-name="questiondown" unicode="&#xbf;" horiz-adv-x="519" 
d="M246 523q7 0 12 -4.5t5 -11.5t-5 -12t-12 -5t-12 5t-5 12t5 11.5t12 4.5zM255 346v-57q0 -37 -19 -68t-45.5 -53.5t-53.5 -45.5t-46 -55.5t-19 -72.5q0 -60 42 -105t133 -45q82 0 134.5 44.5t68.5 100.5l17 -5q-16 -59 -73.5 -107.5t-146.5 -48.5q-54 0 -93.5 16
t-60.5 42t-30.5 52.5t-9.5 54.5q0 43 19 77.5t46 58t54 45.5t46 52t19 66v54h18z" />
    <glyph glyph-name="Agrave" unicode="&#xc0;" horiz-adv-x="593" 
d="M544 0l-60 167h-375l-61 -167h-19l257 700h24l254 -700h-20zM298 683l-183 -500h363zM212 879l104 -126h-15l-113 126h24z" />
    <glyph glyph-name="Aacute" unicode="&#xc1;" horiz-adv-x="593" 
d="M544 0l-60 167h-375l-61 -167h-19l257 700h24l254 -700h-20zM298 683l-183 -500h363zM409 879l-112 -126h-16l105 126h23z" />
    <glyph glyph-name="Acircumflex" unicode="&#xc2;" horiz-adv-x="593" 
d="M544 0l-60 167h-375l-61 -167h-19l257 700h24l254 -700h-20zM298 683l-183 -500h363zM307 890l128 -118h-17l-120 106l-120 -106h-17l128 118h18z" />
    <glyph glyph-name="Atilde" unicode="&#xc3;" horiz-adv-x="593" 
d="M544 0l-60 167h-375l-61 -167h-19l257 700h24l254 -700h-20zM298 683l-183 -500h363zM235 854q35 0 65.5 -27.5t60.5 -27.5q44 0 67 52h14q-24 -66 -82 -66q-35 0 -66 28t-61 28q-42 0 -67 -54h-14q23 67 83 67z" />
    <glyph glyph-name="Adieresis" unicode="&#xc4;" horiz-adv-x="593" 
d="M544 0l-60 167h-375l-61 -167h-19l257 700h24l254 -700h-20zM298 683l-183 -500h363zM191 833q15 0 15 -15q0 -14 -15 -14q-14 0 -14 14q0 15 14 15zM405 833q15 0 15 -15q0 -14 -15 -14q-14 0 -14 14q0 15 14 15z" />
    <glyph glyph-name="Aring" unicode="&#xc5;" horiz-adv-x="593" 
d="M544 0l-60 167h-375l-61 -167h-19l257 700h24l254 -700h-20zM298 683l-183 -500h363zM298 950q46 0 80 -32t34 -79t-33.5 -77t-80.5 -30q-46 0 -80 30t-34 77t34.5 79t79.5 32zM298 937q-40 0 -69.5 -28t-29.5 -70t29 -68t70 -26t70 26t29 68t-29.5 70t-69.5 28z" />
    <glyph glyph-name="AE" unicode="&#xc6;" horiz-adv-x="960" 
d="M855 700v-16h-409l48 -318h349v-16h-347l50 -333h365v-17h-383l-24 166h-369l-96 -166h-20l402 700h434zM428 682l-286 -499h359z" />
    <glyph glyph-name="Ccedilla" unicode="&#xc7;" horiz-adv-x="699" 
d="M360 709q83 0 155.5 -44.5t109.5 -143.5l-18 -5q-35 91 -101.5 133.5t-145.5 42.5q-116 0 -194 -88t-78 -253q0 -91 23.5 -159.5t63.5 -107t86.5 -57.5t97.5 -19q90 0 159 46.5t102 142.5l18 -5q-35 -101 -108 -150t-166 -51l-2 -52q112 -5 112 -77q0 -36 -30 -58
t-83 -22q-57 0 -94 24l8 12q35 -23 87 -23q44 0 70 18t26 49q0 34 -27.5 49t-83.5 17l4 63q-51 2 -98.5 21.5t-90 59t-68 112t-25.5 167.5q0 90 24.5 160.5t66 112.5t92.5 63.5t108 21.5z" />
    <glyph glyph-name="Egrave" unicode="&#xc8;" horiz-adv-x="557" 
d="M479 700v-16h-362v-318h341v-16h-341v-334h371v-16h-389v700h380zM215 879l104 -126h-15l-113 126h24z" />
    <glyph glyph-name="Eacute" unicode="&#xc9;" horiz-adv-x="557" 
d="M479 700v-16h-362v-318h341v-16h-341v-334h371v-16h-389v700h380zM412 879l-112 -126h-16l105 126h23z" />
    <glyph glyph-name="Ecircumflex" unicode="&#xca;" horiz-adv-x="557" 
d="M479 700v-16h-362v-318h341v-16h-341v-334h371v-16h-389v700h380zM310 890l128 -118h-17l-120 106l-120 -106h-17l128 118h18z" />
    <glyph glyph-name="Edieresis" unicode="&#xcb;" horiz-adv-x="557" 
d="M479 700v-16h-362v-318h341v-16h-341v-334h371v-16h-389v700h380zM194 833q15 0 15 -15q0 -14 -15 -14q-14 0 -14 14q0 15 14 15zM408 833q15 0 15 -15q0 -14 -15 -14q-14 0 -14 14q0 15 14 15z" />
    <glyph glyph-name="Igrave" unicode="&#xcc;" horiz-adv-x="322" 
d="M283 700v-16h-113v-668h113v-16h-244v16h113v668h-113v16h244zM75 879l104 -126h-15l-113 126h24z" />
    <glyph glyph-name="Iacute" unicode="&#xcd;" horiz-adv-x="322" 
d="M283 700v-16h-113v-668h113v-16h-244v16h113v668h-113v16h244zM272 879l-112 -126h-16l105 126h23z" />
    <glyph glyph-name="Icircumflex" unicode="&#xce;" horiz-adv-x="322" 
d="M283 700v-16h-113v-668h113v-16h-244v16h113v668h-113v16h244zM170 890l128 -118h-17l-120 106l-120 -106h-17l128 118h18z" />
    <glyph glyph-name="Idieresis" unicode="&#xcf;" horiz-adv-x="322" 
d="M283 700v-16h-113v-668h113v-16h-244v16h113v668h-113v16h244zM54 833q15 0 15 -15q0 -14 -15 -14q-14 0 -14 14q0 15 14 15zM268 833q15 0 15 -15q0 -14 -15 -14q-14 0 -14 14q0 15 14 15z" />
    <glyph glyph-name="Eth" unicode="&#xd0;" horiz-adv-x="715" 
d="M128 700h177q152 0 246 -85.5t94 -254.5q0 -100 -27.5 -173t-74 -112t-98.5 -57t-112 -18h-205v359h-97v14h97v327zM146 17h187q44 0 84 9.5t79 34t67.5 62.5t46 98.5t17.5 138.5q0 159 -87 241t-234 82h-160v-310h237v-14h-237v-342z" />
    <glyph glyph-name="Ntilde" unicode="&#xd1;" horiz-adv-x="682" 
d="M583 700v-700h-20l-447 670v-670h-17v700h20l446 -672v672h18zM278 854q35 0 65.5 -27.5t60.5 -27.5q44 0 67 52h14q-24 -66 -82 -66q-35 0 -66 28t-61 28q-42 0 -67 -54h-14q23 67 83 67z" />
    <glyph glyph-name="Ograve" unicode="&#xd2;" horiz-adv-x="739" 
d="M369 709q42 0 83 -11.5t81 -38.5t70 -67.5t48.5 -103t18.5 -139.5q0 -91 -25.5 -161.5t-69 -112.5t-96 -63t-110.5 -21q-42 0 -82.5 11.5t-80.5 38.5t-70 67.5t-48.5 103t-18.5 139.5q0 91 25.5 161.5t69 112.5t95.5 63t110 21zM370 693q-118 0 -200 -87.5t-82 -254.5
q0 -89 25 -157.5t66.5 -108t90 -59t100.5 -19.5q55 0 104.5 21t89.5 61t63.5 107.5t23.5 152.5q0 89 -25 157.5t-66 108t-89.5 59t-100.5 19.5zM283 879l104 -126h-15l-113 126h24z" />
    <glyph glyph-name="Oacute" unicode="&#xd3;" horiz-adv-x="739" 
d="M369 709q42 0 83 -11.5t81 -38.5t70 -67.5t48.5 -103t18.5 -139.5q0 -91 -25.5 -161.5t-69 -112.5t-96 -63t-110.5 -21q-42 0 -82.5 11.5t-80.5 38.5t-70 67.5t-48.5 103t-18.5 139.5q0 91 25.5 161.5t69 112.5t95.5 63t110 21zM370 693q-118 0 -200 -87.5t-82 -254.5
q0 -89 25 -157.5t66.5 -108t90 -59t100.5 -19.5q55 0 104.5 21t89.5 61t63.5 107.5t23.5 152.5q0 89 -25 157.5t-66 108t-89.5 59t-100.5 19.5zM480 879l-112 -126h-16l105 126h23z" />
    <glyph glyph-name="Ocircumflex" unicode="&#xd4;" horiz-adv-x="739" 
d="M369 709q42 0 83 -11.5t81 -38.5t70 -67.5t48.5 -103t18.5 -139.5q0 -91 -25.5 -161.5t-69 -112.5t-96 -63t-110.5 -21q-42 0 -82.5 11.5t-80.5 38.5t-70 67.5t-48.5 103t-18.5 139.5q0 91 25.5 161.5t69 112.5t95.5 63t110 21zM370 693q-118 0 -200 -87.5t-82 -254.5
q0 -89 25 -157.5t66.5 -108t90 -59t100.5 -19.5q55 0 104.5 21t89.5 61t63.5 107.5t23.5 152.5q0 89 -25 157.5t-66 108t-89.5 59t-100.5 19.5zM378 890l128 -118h-17l-120 106l-120 -106h-17l128 118h18z" />
    <glyph glyph-name="Otilde" unicode="&#xd5;" horiz-adv-x="739" 
d="M369 709q42 0 83 -11.5t81 -38.5t70 -67.5t48.5 -103t18.5 -139.5q0 -91 -25.5 -161.5t-69 -112.5t-96 -63t-110.5 -21q-42 0 -82.5 11.5t-80.5 38.5t-70 67.5t-48.5 103t-18.5 139.5q0 91 25.5 161.5t69 112.5t95.5 63t110 21zM370 693q-118 0 -200 -87.5t-82 -254.5
q0 -89 25 -157.5t66.5 -108t90 -59t100.5 -19.5q55 0 104.5 21t89.5 61t63.5 107.5t23.5 152.5q0 89 -25 157.5t-66 108t-89.5 59t-100.5 19.5zM306 854q35 0 65.5 -27.5t60.5 -27.5q44 0 67 52h14q-24 -66 -82 -66q-35 0 -66 28t-61 28q-42 0 -67 -54h-14q23 67 83 67z" />
    <glyph glyph-name="Odieresis" unicode="&#xd6;" horiz-adv-x="739" 
d="M369 709q42 0 83 -11.5t81 -38.5t70 -67.5t48.5 -103t18.5 -139.5q0 -91 -25.5 -161.5t-69 -112.5t-96 -63t-110.5 -21q-42 0 -82.5 11.5t-80.5 38.5t-70 67.5t-48.5 103t-18.5 139.5q0 91 25.5 161.5t69 112.5t95.5 63t110 21zM370 693q-118 0 -200 -87.5t-82 -254.5
q0 -89 25 -157.5t66.5 -108t90 -59t100.5 -19.5q55 0 104.5 21t89.5 61t63.5 107.5t23.5 152.5q0 89 -25 157.5t-66 108t-89.5 59t-100.5 19.5zM262 833q15 0 15 -15q0 -14 -15 -14q-14 0 -14 14q0 15 14 15zM476 833q15 0 15 -15q0 -14 -15 -14q-14 0 -14 14q0 15 14 15z
" />
    <glyph glyph-name="multiply" unicode="&#xd7;" 
d="M446 446l12 -11l-147 -146l147 -146l-12 -12l-146 147l-146 -147l-12 12l146 146l-146 146l12 11l146 -146z" />
    <glyph glyph-name="Oslash" unicode="&#xd8;" horiz-adv-x="739" 
d="M648 759l-80 -128q102 -97 102 -282q0 -91 -25.5 -161.5t-69 -112.5t-96 -63t-110.5 -21q-94 0 -172 56l-86 -137h-19l92 147q-115 96 -115 294q0 91 25.5 161.5t69 112.5t95.5 63t110 21q106 0 186 -67l75 117h18zM88 351q0 -187 106 -279l353 555q-75 66 -177 66
q-118 0 -200 -87.5t-82 -254.5zM370 7q55 0 104.5 21t89.5 61t63.5 107.5t23.5 152.5q0 175 -93 268l-352 -555q71 -55 164 -55z" />
    <glyph glyph-name="Ugrave" unicode="&#xd9;" horiz-adv-x="649" 
d="M565 700v-457q0 -104 -60 -178t-181 -74q-64 0 -112 22t-74.5 59t-39 80t-12.5 91v457h18v-457q0 -64 21 -115.5t72 -86t128 -34.5q110 0 166 68t56 168v457h18zM239 879l104 -126h-15l-113 126h24z" />
    <glyph glyph-name="Uacute" unicode="&#xda;" horiz-adv-x="649" 
d="M565 700v-457q0 -104 -60 -178t-181 -74q-64 0 -112 22t-74.5 59t-39 80t-12.5 91v457h18v-457q0 -64 21 -115.5t72 -86t128 -34.5q110 0 166 68t56 168v457h18zM436 879l-112 -126h-16l105 126h23z" />
    <glyph glyph-name="Ucircumflex" unicode="&#xdb;" horiz-adv-x="649" 
d="M565 700v-457q0 -104 -60 -178t-181 -74q-64 0 -112 22t-74.5 59t-39 80t-12.5 91v457h18v-457q0 -64 21 -115.5t72 -86t128 -34.5q110 0 166 68t56 168v457h18zM334 890l128 -118h-17l-120 106l-120 -106h-17l128 118h18z" />
    <glyph glyph-name="Udieresis" unicode="&#xdc;" horiz-adv-x="649" 
d="M565 700v-457q0 -104 -60 -178t-181 -74q-64 0 -112 22t-74.5 59t-39 80t-12.5 91v457h18v-457q0 -64 21 -115.5t72 -86t128 -34.5q110 0 166 68t56 168v457h18zM218 833q15 0 15 -15q0 -14 -15 -14q-14 0 -14 14q0 15 14 15zM432 833q15 0 15 -15q0 -14 -15 -14
q-14 0 -14 14q0 15 14 15z" />
    <glyph glyph-name="Yacute" unicode="&#xdd;" horiz-adv-x="578" 
d="M545 700l-242 -405v-295h-18v295l-252 405h20l241 -389l231 389h20zM403 879l-112 -126h-16l105 126h23z" />
    <glyph glyph-name="Thorn" unicode="&#xde;" horiz-adv-x="604" 
d="M117 700v-135h189q126 0 185 -56.5t59 -149.5q0 -98 -60 -156t-181 -58h-192v-145h-18v700h18zM308 549h-191v-388h193q110 0 165.5 52.5t55.5 145.5q0 87 -54 138.5t-169 51.5z" />
    <glyph glyph-name="germandbls" unicode="&#xdf;" horiz-adv-x="584" 
d="M279 709q85 0 125.5 -40t40.5 -96q0 -35 -16.5 -64.5t-36 -45.5t-36 -34.5t-16.5 -34.5q0 -17 15 -30.5t37 -22t48.5 -22.5t48.5 -31.5t37 -50.5t15 -76q0 -71 -48.5 -120.5t-142.5 -49.5q-93 0 -157 58l11 12q60 -54 145 -54q86 0 130 44t44 110q0 49 -20.5 82.5t-50 50
t-59 29.5t-50 29.5t-20.5 41.5q0 19 16.5 39t36 35t36 43t16.5 62q0 51 -36.5 86t-112.5 35q-87 0 -127 -49t-40 -131v-514h-18v514q0 88 45 141.5t140 53.5z" />
    <glyph glyph-name="agrave" unicode="&#xe0;" horiz-adv-x="541" 
d="M272 524q107 0 144 -44t37 -134v-174q0 -120 16 -172h-19q-16 57 -14 120q-13 -51 -68 -90t-143 -39q-83 0 -124.5 38.5t-41.5 102.5q0 72 52 113.5t167 57.5l157 21v21q0 86 -32 125.5t-131 39.5q-170 0 -176 -143h-17q2 70 48 113.5t145 43.5zM435 309l-152 -20
q-107 -14 -156 -51.5t-49 -103.5q0 -58 36.5 -92.5t113.5 -34.5q93 0 150 48t57 115v139zM185 720l103 -127h-15l-112 127h24z" />
    <glyph glyph-name="aacute" unicode="&#xe1;" horiz-adv-x="541" 
d="M272 524q107 0 144 -44t37 -134v-174q0 -120 16 -172h-19q-16 57 -14 120q-13 -51 -68 -90t-143 -39q-83 0 -124.5 38.5t-41.5 102.5q0 72 52 113.5t167 57.5l157 21v21q0 86 -32 125.5t-131 39.5q-170 0 -176 -143h-17q2 70 48 113.5t145 43.5zM435 309l-152 -20
q-107 -14 -156 -51.5t-49 -103.5q0 -58 36.5 -92.5t113.5 -34.5q93 0 150 48t57 115v139zM380 720l-111 -127h-16l105 127h22z" />
    <glyph glyph-name="acircumflex" unicode="&#xe2;" horiz-adv-x="541" 
d="M272 524q107 0 144 -44t37 -134v-174q0 -120 16 -172h-19q-16 57 -14 120q-13 -51 -68 -90t-143 -39q-83 0 -124.5 38.5t-41.5 102.5q0 72 52 113.5t167 57.5l157 21v21q0 86 -32 125.5t-131 39.5q-170 0 -176 -143h-17q2 70 48 113.5t145 43.5zM435 309l-152 -20
q-107 -14 -156 -51.5t-49 -103.5q0 -58 36.5 -92.5t113.5 -34.5q93 0 150 48t57 115v139zM280 723l128 -119h-17l-120 106l-120 -106h-17l128 119h18z" />
    <glyph glyph-name="atilde" unicode="&#xe3;" horiz-adv-x="541" 
d="M272 524q107 0 144 -44t37 -134v-174q0 -120 16 -172h-19q-16 57 -14 120q-13 -51 -68 -90t-143 -39q-83 0 -124.5 38.5t-41.5 102.5q0 72 52 113.5t167 57.5l157 21v21q0 86 -32 125.5t-131 39.5q-170 0 -176 -143h-17q2 70 48 113.5t145 43.5zM435 309l-152 -20
q-107 -14 -156 -51.5t-49 -103.5q0 -58 36.5 -92.5t113.5 -34.5q93 0 150 48t57 115v139zM208 694q35 0 65.5 -27.5t60.5 -27.5q44 0 67 52h14q-24 -66 -82 -66q-35 0 -66 28t-61 28q-42 0 -67 -54h-14q23 67 83 67z" />
    <glyph glyph-name="adieresis" unicode="&#xe4;" horiz-adv-x="541" 
d="M272 524q107 0 144 -44t37 -134v-174q0 -120 16 -172h-19q-16 57 -14 120q-13 -51 -68 -90t-143 -39q-83 0 -124.5 38.5t-41.5 102.5q0 72 52 113.5t167 57.5l157 21v21q0 86 -32 125.5t-131 39.5q-170 0 -176 -143h-17q2 70 48 113.5t145 43.5zM435 309l-152 -20
q-107 -14 -156 -51.5t-49 -103.5q0 -58 36.5 -92.5t113.5 -34.5q93 0 150 48t57 115v139zM164 673q15 0 15 -15q0 -14 -15 -14q-14 0 -14 14q0 15 14 15zM378 673q15 0 15 -15q0 -14 -15 -14q-14 0 -14 14q0 15 14 15z" />
    <glyph glyph-name="aring" unicode="&#xe5;" horiz-adv-x="541" 
d="M272 524q107 0 144 -44t37 -134v-174q0 -120 16 -172h-19q-16 57 -14 120q-13 -51 -68 -90t-143 -39q-83 0 -124.5 38.5t-41.5 102.5q0 72 52 113.5t167 57.5l157 21v21q0 86 -32 125.5t-131 39.5q-170 0 -176 -143h-17q2 70 48 113.5t145 43.5zM435 309l-152 -20
q-107 -14 -156 -51.5t-49 -103.5q0 -58 36.5 -92.5t113.5 -34.5q93 0 150 48t57 115v139zM271 809q46 0 80 -32t34 -80q0 -47 -33.5 -77t-80.5 -30q-46 0 -80 30t-34 77q0 48 34 80t80 32zM271 795q-40 0 -69.5 -28t-29.5 -70q0 -41 29.5 -67.5t69.5 -26.5t69.5 26.5
t29.5 67.5q0 42 -29.5 70t-69.5 28z" />
    <glyph glyph-name="ae" unicode="&#xe6;" horiz-adv-x="926" 
d="M646 524q104 0 162.5 -76t58.5 -183v-7h-429q0 -110 57.5 -181.5t159.5 -71.5q116 0 186 97l15 -9q-77 -104 -201 -104q-77 0 -131.5 39.5t-79.5 105.5q-14 -62 -69 -102.5t-144 -40.5q-87 0 -129.5 38.5t-42.5 102.5q0 72 53 115t166 58l147 19q3 16 13 50
q-5 33 -11.5 53t-22.5 41.5t-48.5 31.5t-82.5 10q-171 0 -177 -143h-17q6 157 194 157q52 0 87 -10.5t52.5 -31t25 -40t11.5 -48.5q23 56 74 93t123 37zM645 509q-96 0 -150.5 -68.5t-56.5 -167.5h411q-1 99 -54.5 167.5t-149.5 68.5zM424 308l-141 -18q-107 -14 -156 -52
t-49 -104q0 -58 38 -92.5t115 -34.5q89 0 143.5 44t60.5 107q-14 48 -14 101q0 25 3 49z" />
    <glyph glyph-name="ccedilla" unicode="&#xe7;" horiz-adv-x="549" 
d="M297 524q67 0 118.5 -31.5t76.5 -84.5l-17 -6q-23 49 -69 77.5t-108 28.5q-99 0 -157 -70.5t-58 -182.5q0 -107 56 -177.5t154 -70.5q139 0 191 131l17 -6q-58 -140 -206 -141l-2 -52q112 -5 112 -77q0 -36 -30 -58t-83 -22q-57 0 -94 24l8 12q35 -23 87 -23q44 0 70 18
t26 49q0 34 -27.5 49t-83.5 17l4 63q-103 4 -160.5 79t-57.5 185q0 118 63 193.5t170 75.5z" />
    <glyph glyph-name="egrave" unicode="&#xe8;" horiz-adv-x="571" 
d="M291 524q104 0 162.5 -76t58.5 -183v-7h-429q0 -110 58 -181.5t160 -71.5q115 0 186 98l14 -10q-77 -104 -201 -104q-110 0 -173 78.5t-63 194.5q0 110 60 186t167 76zM290 509q-96 0 -150.5 -68.5t-56.5 -166.5h411q-1 98 -54.5 166.5t-149.5 68.5zM200 720l103 -127
h-15l-112 127h24z" />
    <glyph glyph-name="eacute" unicode="&#xe9;" horiz-adv-x="571" 
d="M291 524q104 0 162.5 -76t58.5 -183v-7h-429q0 -110 58 -181.5t160 -71.5q115 0 186 98l14 -10q-77 -104 -201 -104q-110 0 -173 78.5t-63 194.5q0 110 60 186t167 76zM290 509q-96 0 -150.5 -68.5t-56.5 -166.5h411q-1 98 -54.5 166.5t-149.5 68.5zM395 720l-111 -127
h-16l105 127h22z" />
    <glyph glyph-name="ecircumflex" unicode="&#xea;" horiz-adv-x="571" 
d="M291 524q104 0 162.5 -76t58.5 -183v-7h-429q0 -110 58 -181.5t160 -71.5q115 0 186 98l14 -10q-77 -104 -201 -104q-110 0 -173 78.5t-63 194.5q0 110 60 186t167 76zM290 509q-96 0 -150.5 -68.5t-56.5 -166.5h411q-1 98 -54.5 166.5t-149.5 68.5zM295 723l128 -119
h-17l-120 106l-120 -106h-17l128 119h18z" />
    <glyph glyph-name="edieresis" unicode="&#xeb;" horiz-adv-x="571" 
d="M291 524q104 0 162.5 -76t58.5 -183v-7h-429q0 -110 58 -181.5t160 -71.5q115 0 186 98l14 -10q-77 -104 -201 -104q-110 0 -173 78.5t-63 194.5q0 110 60 186t167 76zM290 509q-96 0 -150.5 -68.5t-56.5 -166.5h411q-1 98 -54.5 166.5t-149.5 68.5zM179 673q15 0 15 -15
q0 -14 -15 -14q-14 0 -14 14q0 15 14 15zM393 673q15 0 15 -15q0 -14 -15 -14q-14 0 -14 14q0 15 14 15z" />
    <glyph glyph-name="igrave" unicode="&#xec;" horiz-adv-x="206" 
d="M112 517v-517h-18v517h18zM17 720l103 -127h-15l-112 127h24z" />
    <glyph glyph-name="iacute" unicode="&#xed;" horiz-adv-x="206" 
d="M112 517v-517h-18v517h18zM212 720l-111 -127h-16l105 127h22z" />
    <glyph glyph-name="icircumflex" unicode="&#xee;" horiz-adv-x="206" 
d="M112 517v-517h-18v517h18zM112 723l128 -119h-17l-120 106l-120 -106h-17l128 119h18z" />
    <glyph glyph-name="idieresis" unicode="&#xef;" horiz-adv-x="206" 
d="M112 517v-517h-18v517h18zM-4 673q15 0 15 -15q0 -14 -15 -14q-14 0 -14 14q0 15 14 15zM210 673q15 0 15 -15q0 -14 -15 -14q-14 0 -14 14q0 15 14 15z" />
    <glyph glyph-name="eth" unicode="&#xf0;" horiz-adv-x="566" 
d="M371 749l-51 -81q95 -43 138.5 -144.5t43.5 -276.5q0 -118 -59 -187t-159 -69q-101 0 -160.5 64t-59.5 168q0 107 61.5 170t156.5 63q89 0 142 -48t63 -117q-8 151 -48 238t-127 126l-62 -97h-16l65 102q-62 25 -145 29l3 14q86 -4 151 -30l48 76h15zM284 6
q94 0 146.5 65.5t52.5 167.5q0 89 -54.5 145t-145.5 56q-88 0 -144.5 -59t-56.5 -158q0 -98 55 -157.5t147 -59.5z" />
    <glyph glyph-name="ntilde" unicode="&#xf1;" horiz-adv-x="565" 
d="M304 524q173 0 173 -193v-331h-18v325q0 183 -158 183q-80 0 -134.5 -58.5t-54.5 -173.5v-276h-18v517h18v-156q14 78 67.5 120.5t124.5 42.5zM236 694q35 0 65.5 -27.5t60.5 -27.5q44 0 67 52h14q-24 -66 -82 -66q-35 0 -66 28t-61 28q-42 0 -67 -54h-14q23 67 83 67z
" />
    <glyph glyph-name="ograve" unicode="&#xf2;" horiz-adv-x="595" 
d="M298 524q107 0 170 -77.5t63 -189.5q0 -118 -61 -192.5t-172 -74.5q-110 0 -172 75.5t-62 191.5t62.5 191.5t171.5 75.5zM298 508q-100 0 -157.5 -70.5t-57.5 -180.5t57 -180.5t158 -70.5q103 0 159 69.5t56 181.5q0 108 -58.5 179.5t-156.5 71.5zM212 720l103 -127h-15
l-112 127h24z" />
    <glyph glyph-name="oacute" unicode="&#xf3;" horiz-adv-x="595" 
d="M298 524q107 0 170 -77.5t63 -189.5q0 -118 -61 -192.5t-172 -74.5q-110 0 -172 75.5t-62 191.5t62.5 191.5t171.5 75.5zM298 508q-100 0 -157.5 -70.5t-57.5 -180.5t57 -180.5t158 -70.5q103 0 159 69.5t56 181.5q0 108 -58.5 179.5t-156.5 71.5zM407 720l-111 -127h-16
l105 127h22z" />
    <glyph glyph-name="ocircumflex" unicode="&#xf4;" horiz-adv-x="595" 
d="M298 524q107 0 170 -77.5t63 -189.5q0 -118 -61 -192.5t-172 -74.5q-110 0 -172 75.5t-62 191.5t62.5 191.5t171.5 75.5zM298 508q-100 0 -157.5 -70.5t-57.5 -180.5t57 -180.5t158 -70.5q103 0 159 69.5t56 181.5q0 108 -58.5 179.5t-156.5 71.5zM307 723l128 -119h-17
l-120 106l-120 -106h-17l128 119h18z" />
    <glyph glyph-name="otilde" unicode="&#xf5;" horiz-adv-x="595" 
d="M298 524q107 0 170 -77.5t63 -189.5q0 -118 -61 -192.5t-172 -74.5q-110 0 -172 75.5t-62 191.5t62.5 191.5t171.5 75.5zM298 508q-100 0 -157.5 -70.5t-57.5 -180.5t57 -180.5t158 -70.5q103 0 159 69.5t56 181.5q0 108 -58.5 179.5t-156.5 71.5zM235 694
q35 0 65.5 -27.5t60.5 -27.5q44 0 67 52h14q-24 -66 -82 -66q-35 0 -66 28t-61 28q-42 0 -67 -54h-14q23 67 83 67z" />
    <glyph glyph-name="odieresis" unicode="&#xf6;" horiz-adv-x="595" 
d="M298 524q107 0 170 -77.5t63 -189.5q0 -118 -61 -192.5t-172 -74.5q-110 0 -172 75.5t-62 191.5t62.5 191.5t171.5 75.5zM298 508q-100 0 -157.5 -70.5t-57.5 -180.5t57 -180.5t158 -70.5q103 0 159 69.5t56 181.5q0 108 -58.5 179.5t-156.5 71.5zM191 673q15 0 15 -15
q0 -14 -15 -14q-14 0 -14 14q0 15 14 15zM405 673q15 0 15 -15q0 -14 -15 -14q-14 0 -14 14q0 15 14 15z" />
    <glyph glyph-name="divide" unicode="&#xf7;" 
d="M300 506q7 0 12 -5t5 -12t-5 -12t-12 -5t-12 5t-5 12t5 12t12 5zM483 299v-16h-366v16h366zM300 111q7 0 12 -5t5 -12t-5 -12t-12 -5t-12 5t-5 12t5 12t12 5z" />
    <glyph glyph-name="oslash" unicode="&#xf8;" horiz-adv-x="595" 
d="M518 584l-71 -115q84 -76 84 -212q0 -118 -61 -192.5t-172 -74.5q-73 0 -129 37l-73 -117h-19l80 126q-93 73 -93 221q0 116 62.5 191.5t171.5 75.5q78 0 136 -45l66 105h18zM298 508q-100 0 -157.5 -70.5t-57.5 -180.5q0 -138 83 -207l260 415q-54 43 -128 43zM437 455
l-259 -414q51 -35 120 -35q103 0 159 69.5t56 181.5q0 127 -76 198z" />
    <glyph glyph-name="ugrave" unicode="&#xf9;" horiz-adv-x="564" 
d="M471 517v-517h-18v154q-15 -76 -66.5 -118.5t-125.5 -42.5q-172 0 -172 190v334h18v-330q0 -90 38 -134t119 -44q80 0 134.5 58t54.5 173v277h18zM191 720l103 -127h-15l-112 127h24z" />
    <glyph glyph-name="uacute" unicode="&#xfa;" horiz-adv-x="564" 
d="M471 517v-517h-18v154q-15 -76 -66.5 -118.5t-125.5 -42.5q-172 0 -172 190v334h18v-330q0 -90 38 -134t119 -44q80 0 134.5 58t54.5 173v277h18zM386 720l-111 -127h-16l105 127h22z" />
    <glyph glyph-name="ucircumflex" unicode="&#xfb;" horiz-adv-x="564" 
d="M471 517v-517h-18v154q-15 -76 -66.5 -118.5t-125.5 -42.5q-172 0 -172 190v334h18v-330q0 -90 38 -134t119 -44q80 0 134.5 58t54.5 173v277h18zM286 723l128 -119h-17l-120 106l-120 -106h-17l128 119h18z" />
    <glyph glyph-name="udieresis" unicode="&#xfc;" horiz-adv-x="564" 
d="M471 517v-517h-18v154q-15 -76 -66.5 -118.5t-125.5 -42.5q-172 0 -172 190v334h18v-330q0 -90 38 -134t119 -44q80 0 134.5 58t54.5 173v277h18zM170 673q15 0 15 -15q0 -14 -15 -14q-14 0 -14 14q0 15 14 15zM384 673q15 0 15 -15q0 -14 -15 -14q-14 0 -14 14
q0 15 14 15z" />
    <glyph glyph-name="yacute" unicode="&#xfd;" horiz-adv-x="478" 
d="M445 517l-185 -523q-28 -80 -61 -123t-94 -43q-19 0 -49 4v16q20 -4 46 -4q56 0 85.5 39.5t55.5 116.5h-5l-205 517h20l197 -501l175 501h20zM348 720l-111 -127h-16l105 127h22z" />
    <glyph glyph-name="thorn" unicode="&#xfe;" horiz-adv-x="597" 
d="M112 700v-351q14 74 67.5 124.5t136.5 50.5q104 0 160.5 -71.5t56.5 -189.5q0 -122 -59 -197t-162 -75q-81 0 -133.5 44t-66.5 119v-313h-18v859h18zM313 508q-90 0 -146 -69.5t-56 -185.5q0 -122 54.5 -184t143.5 -62q96 0 151 69.5t55 186.5q0 112 -52 178.5t-150 66.5
z" />
    <glyph glyph-name="ydieresis" unicode="&#xff;" horiz-adv-x="478" 
d="M445 517l-185 -523q-28 -80 -61 -123t-94 -43q-19 0 -49 4v16q20 -4 46 -4q56 0 85.5 39.5t55.5 116.5h-5l-205 517h20l197 -501l175 501h20zM132 673q15 0 15 -15q0 -14 -15 -14q-14 0 -14 14q0 15 14 15zM346 673q15 0 15 -15q0 -14 -15 -14q-14 0 -14 14q0 15 14 15z
" />
    <glyph glyph-name="dotlessi" unicode="&#x131;" horiz-adv-x="206" 
d="M112 517v-517h-18v517h18z" />
    <glyph glyph-name="IJ" unicode="&#x132;" horiz-adv-x="710" 
d="M283 700v-16h-113v-668h113v-16h-244v16h113v668h-113v16h244zM625 700v-529q0 -86 -37 -131t-124 -45q-44 0 -101 10v17q48 -9 94 -9q82 0 116 39t34 120v528h18z" />
    <glyph glyph-name="ij" unicode="&#x133;" horiz-adv-x="417" 
d="M324 517v-551q0 -71 -37.5 -102.5t-93.5 -31.5q-19 0 -41 2v15q20 -2 36 -2q118 0 118 125v545h18zM315 703q15 0 15 -14q0 -15 -15 -15t-15 15q0 14 15 14zM112 517v-517h-18v517h18zM103 703q15 0 15 -14q0 -15 -15 -15t-15 15q0 14 15 14z" />
    <glyph glyph-name="Lslash" unicode="&#x141;" horiz-adv-x="546" 
d="M138 17h360v-17h-378v350l-89 -49v18l89 49v332h18v-322l208 114v-18l-208 -114v-343z" />
    <glyph glyph-name="lslash" unicode="&#x142;" horiz-adv-x="280" 
d="M194 11q10 0 46 4v-15q-30 -5 -52 -5q-48 0 -69 29t-21 89v205l-68 -38v18l68 38v364h18v-355l115 64v-18l-115 -64v-212q0 -55 17 -79.5t61 -24.5z" />
    <glyph glyph-name="OE" unicode="&#x152;" horiz-adv-x="909" 
d="M365 709q50 0 104 -9h362v-16h-344v-318h323v-16h-323v-334h353v-16h-371q-51 -9 -105 -9q-51 0 -100.5 19.5t-94.5 59.5t-72.5 113t-27.5 168q0 90 25.5 161t68.5 112.5t94.5 63t107.5 21.5zM365 693q-115 0 -196 -88t-81 -254q0 -89 25 -157.5t66 -108t88 -59t97 -19.5
q56 0 105 10v666q-54 10 -104 10z" />
    <glyph glyph-name="oe" unicode="&#x153;" horiz-adv-x="987" 
d="M714 524q99 0 156.5 -76t57.5 -183v-7h-414q1 -109 57.5 -181t152.5 -72q115 0 177 97l16 -9q-69 -104 -193 -104q-90 0 -148.5 60.5t-70.5 150.5q-10 -91 -67 -150.5t-149 -59.5q-104 0 -164.5 76t-60.5 191t61 191t164 76q88 0 147 -60.5t69 -150.5q8 88 64.5 149.5
t144.5 61.5zM714 509q-91 0 -144 -69t-55 -167h393q-1 98 -52.5 167t-141.5 69zM289 508q-94 0 -150 -70.5t-56 -180.5q0 -109 55.5 -180t150.5 -71q97 0 152 69.5t55 181.5q0 107 -57 179t-150 72z" />
    <glyph glyph-name="Scaron" unicode="&#x160;" horiz-adv-x="604" 
d="M302 -9q-79 0 -152 26.5t-115 80.5l14 12q41 -52 108.5 -77.5t144.5 -25.5q109 0 168.5 48.5t59.5 126.5q0 75 -50 117.5t-175 62.5q-120 20 -176.5 60t-56.5 118q0 76 61 122.5t169 46.5q161 0 244 -116l-15 -10q-78 110 -229 110q-100 0 -155.5 -42t-55.5 -111
q0 -71 52 -107t171 -56q127 -21 181 -67.5t54 -127.5q0 -85 -63.5 -138t-183.5 -53zM444 889l-128 -118h-18l-128 118h17l120 -105l120 105h17z" />
    <glyph glyph-name="scaron" unicode="&#x161;" horiz-adv-x="515" 
d="M250 524q117 0 189 -60l-13 -11q-65 56 -176 56q-76 0 -119.5 -30.5t-43.5 -77.5q0 -50 40 -76.5t135 -41.5q106 -17 153 -48t47 -97q0 -64 -54.5 -105.5t-153.5 -41.5q-140 0 -219 81l12 12q76 -77 206 -77q92 0 141 37t49 94q0 58 -43.5 86t-145.5 44q-98 15 -141.5 46
t-43.5 87q0 53 48.5 88t132.5 35zM387 730l-128 -119h-18l-128 119h17l120 -106l120 106h17z" />
    <glyph glyph-name="Ydieresis" unicode="&#x178;" horiz-adv-x="578" 
d="M545 700l-242 -405v-295h-18v295l-252 405h20l241 -389l231 389h20zM185 833q15 0 15 -15q0 -14 -15 -14q-14 0 -14 14q0 15 14 15zM399 833q15 0 15 -15q0 -14 -15 -14q-14 0 -14 14q0 15 14 15z" />
    <glyph glyph-name="Zcaron" unicode="&#x17d;" horiz-adv-x="592" 
d="M530 700v-16l-461 -667h469v-17h-493v15l462 669h-431v16h454zM428 889l-128 -118h-18l-128 118h17l120 -105l120 105h17z" />
    <glyph glyph-name="zcaron" unicode="&#x17e;" horiz-adv-x="465" 
d="M419 517v-15l-356 -486h358v-16h-381v14l357 488h-326v15h348zM371 730l-128 -119h-18l-128 119h17l120 -106l120 106h17z" />
    <glyph glyph-name="longs" unicode="&#x17f;" horiz-adv-x="342" 
d="M241 709q48 0 92 -20v-14q-47 19 -90 19q-67 0 -91.5 -32.5t-24.5 -88.5v-573h-18v503h-79v14h79v58q0 134 132 134z" />
    <glyph glyph-name="florin" unicode="&#x192;" horiz-adv-x="317" 
d="M265 709q48 0 98 -21v-15q-50 21 -96 21q-67 0 -91.5 -32.5t-24.5 -88.5v-56h186v-14h-186v-537q0 -71 -37 -102.5t-93 -31.5q-19 0 -41 2v15q18 -2 35 -2q118 0 118 125v531h-79v14h79v58q0 134 132 134z" />
    <glyph glyph-name="uni02BB" unicode="&#x2bb;" horiz-adv-x="226" 
d="M91 605q-6 0 -10.5 4.5t-4.5 11.5q0 21 13.5 61t33.5 72l9 -4q-34 -66 -37 -116q12 -3 12 -13q0 -16 -16 -16z" />
    <glyph glyph-name="uni02BC" unicode="&#x2bc;" horiz-adv-x="226" 
d="M112 720q6 0 10.5 -4.5t4.5 -11.5q0 -21 -13.5 -61t-33.5 -72l-9 4q34 66 37 116q-12 3 -12 13q0 16 16 16z" />
    <glyph glyph-name="circumflex" unicode="&#x2c6;" horiz-adv-x="334" 
d="M176 723l128 -119h-17l-120 106l-120 -106h-17l128 119h18z" />
    <glyph glyph-name="caron" unicode="&#x2c7;" horiz-adv-x="334" 
d="M304 730l-128 -119h-18l-128 119h17l120 -106l120 106h17z" />
    <glyph glyph-name="breve" unicode="&#x2d8;" horiz-adv-x="322" 
d="M278 720h14q-5 -46 -38 -81t-93 -35t-93 35t-38 81h14q5 -40 34 -71t83 -31t83 31t34 71z" />
    <glyph glyph-name="dotaccent" unicode="&#x2d9;" horiz-adv-x="90" 
d="M45 703q15 0 15 -14q0 -15 -15 -15t-15 15q0 14 15 14z" />
    <glyph glyph-name="ring" unicode="&#x2da;" horiz-adv-x="288" 
d="M144 809q46 0 80 -32t34 -80q0 -47 -33.5 -77t-80.5 -30q-46 0 -80 30t-34 77q0 48 34 80t80 32zM144 795q-40 0 -69.5 -28t-29.5 -70q0 -41 29.5 -67.5t69.5 -26.5t69.5 26.5t29.5 67.5q0 42 -29.5 70t-69.5 28z" />
    <glyph glyph-name="ogonek" unicode="&#x2db;" horiz-adv-x="252" 
d="M179 7l3 -7q-136 -45 -136 -125q0 -37 25.5 -55.5t68.5 -18.5q41 0 77 13l5 -13q-40 -14 -83 -14q-51 0 -80.5 22t-29.5 65q0 45 40 79.5t110 53.5z" />
    <glyph glyph-name="tilde" unicode="&#x2dc;" horiz-adv-x="350" 
d="M113 694q35 0 65.5 -27.5t60.5 -27.5q44 0 67 52h14q-24 -66 -82 -66q-35 0 -66 28t-61 28q-42 0 -67 -54h-14q23 67 83 67z" />
    <glyph glyph-name="hungarumlaut" unicode="&#x2dd;" horiz-adv-x="314" 
d="M137 721l-93 -128h-14l85 128h22zM285 721l-95 -128h-14l86 128h23z" />
    <glyph glyph-name="gravecomb" unicode="&#x300;" horiz-adv-x="1" 
d="M-133 720l103 -127h-15l-112 127h24z" />
    <glyph glyph-name="acutecomb" unicode="&#x301;" horiz-adv-x="1" 
d="M-30 720l-111 -127h-16l105 127h22z" />
    <glyph glyph-name="uni0302" unicode="&#x302;" horiz-adv-x="1" 
d="M-158 723l128 -119h-17l-120 106l-120 -106h-17l128 119h18z" />
    <glyph glyph-name="tildecomb" unicode="&#x303;" horiz-adv-x="1" 
d="M-237 694q35 0 65.5 -27.5t60.5 -27.5q44 0 67 52h14q-24 -66 -82 -66q-35 0 -66 28t-61 28q-42 0 -67 -54h-14q23 67 83 67z" />
    <glyph glyph-name="uni0304" unicode="&#x304;" horiz-adv-x="1" 
d="M-30 666v-15h-276v15h276z" />
    <glyph glyph-name="uni0306" unicode="&#x306;" horiz-adv-x="1" 
d="M-44 720h14q-5 -46 -38 -81t-93 -35t-93 35t-38 81h14q5 -40 34 -71t83 -31t83 31t34 71z" />
    <glyph glyph-name="uni0307" unicode="&#x307;" horiz-adv-x="1" 
d="M-45 703q15 0 15 -14q0 -15 -15 -15t-15 15q0 14 15 14z" />
    <glyph glyph-name="uni0308" unicode="&#x308;" horiz-adv-x="1" 
d="M-259 673q15 0 15 -15q0 -14 -15 -14q-14 0 -14 14q0 15 14 15zM-45 673q15 0 15 -15q0 -14 -15 -14q-14 0 -14 14q0 15 14 15z" />
    <glyph glyph-name="uni030A" unicode="&#x30a;" horiz-adv-x="1" 
d="M-144 809q46 0 80 -32t34 -80q0 -47 -33.5 -77t-80.5 -30q-46 0 -80 30t-34 77q0 48 34 80t80 32zM-144 795q-40 0 -69.5 -28t-29.5 -70q0 -41 29.5 -67.5t69.5 -26.5t69.5 26.5t29.5 67.5q0 42 -29.5 70t-69.5 28z" />
    <glyph glyph-name="uni030B" unicode="&#x30b;" horiz-adv-x="1" 
d="M-177 721l-93 -128h-14l85 128h22zM-29 721l-95 -128h-14l86 128h23z" />
    <glyph glyph-name="uni030C" unicode="&#x30c;" horiz-adv-x="1" 
d="M-30 730l-128 -119h-18l-128 119h17l120 -106l120 106h17z" />
    <glyph glyph-name="uni0326" unicode="&#x326;" horiz-adv-x="1" 
d="M-87 -94q14 0 14 -14q0 -19 -12.5 -55.5t-30.5 -65.5l-8 3q14 27 23.5 59t9.5 47q-10 3 -10 12q0 14 14 14z" />
    <glyph glyph-name="uni0327" unicode="&#x327;" horiz-adv-x="1" 
d="M-139 -5l-2 -56q112 -5 112 -77q0 -36 -30 -58t-83 -22q-57 0 -94 24l8 12q34 -23 87 -23q44 0 70 18t26 49q0 34 -27.5 49t-83.5 17l5 67h12z" />
    <glyph glyph-name="uni0328" unicode="&#x328;" horiz-adv-x="1" 
d="M-73 7l3 -7q-136 -45 -136 -125q0 -37 25.5 -55.5t68.5 -18.5q41 0 77 13l5 -13q-40 -14 -83 -14q-51 0 -80.5 22t-29.5 65q0 45 40 79.5t110 53.5z" />
    <glyph glyph-name="uni0394" unicode="&#x394;" horiz-adv-x="593" 
d="M310 700l254 -700h-535l257 700h24zM55 16h483l-240 667z" />
    <glyph glyph-name="uni03A9" unicode="&#x3a9;" horiz-adv-x="739" 
d="M369 709q58 0 110 -20.5t95.5 -62t69.5 -112t26 -162.5q0 -147 -55.5 -228.5t-144.5 -106.5h189v-17h-217v17q93 21 151 104t58 231q0 166 -81.5 253t-200.5 87q-118 0 -199.5 -87t-81.5 -253q0 -148 58.5 -231t150.5 -104v-17h-217v17h189q-89 25 -144.5 106.5
t-55.5 228.5q0 91 25.5 161.5t69 112t95.5 62.5t110 21z" />
    <glyph glyph-name="uni03BC" unicode="&#x3bc;" horiz-adv-x="569" 
d="M476 517v-517h-18v186q-9 -95 -60.5 -144.5t-123.5 -49.5q-145 0 -162 139v-290h-18v676h18v-330q0 -178 162 -178q77 0 130.5 58t53.5 173v277h18z" />
    <glyph glyph-name="pi" unicode="&#x3c0;" horiz-adv-x="644" 
d="M576 517v-15h-99v-502h-18v502h-275v-502h-18v502h-98v15h508z" />
    <glyph glyph-name="uni1E9E" unicode="&#x1e9e;" horiz-adv-x="669" 
d="M393 -9q-135 0 -213 81l12 13q78 -78 201 -78q89 0 147.5 51t58.5 131q0 79 -49 124.5t-151 63.5v17l169 199q-77 97 -226 97q-108 0 -173 -61t-65 -176v-453h-18v456q0 120 71 185t185 65q159 0 248 -113l-173 -203q201 -39 201 -201q0 -90 -63.5 -144t-161.5 -54z" />
    <glyph glyph-name="uni2007" unicode="&#x2007;" horiz-adv-x="587" 
 />
    <glyph glyph-name="uni2008" unicode="&#x2008;" horiz-adv-x="227" 
 />
    <glyph glyph-name="uni200B" unicode="&#x200b;" horiz-adv-x="0" 
 />
    <glyph glyph-name="figuredash" unicode="&#x2012;" 
d="M552 310v-16h-504v16h504z" />
    <glyph glyph-name="endash" unicode="&#x2013;" horiz-adv-x="512" 
d="M457 315v-16h-403v16h403z" />
    <glyph glyph-name="emdash" unicode="&#x2014;" horiz-adv-x="612" 
d="M557 315v-16h-503v16h503z" />
    <glyph glyph-name="quoteleft" unicode="&#x2018;" horiz-adv-x="226" 
d="M91 605q-6 0 -10.5 4.5t-4.5 11.5q0 21 13.5 61t33.5 72l9 -4q-34 -66 -37 -116q12 -3 12 -13q0 -16 -16 -16z" />
    <glyph glyph-name="quoteright" unicode="&#x2019;" horiz-adv-x="226" 
d="M112 720q6 0 10.5 -4.5t4.5 -11.5q0 -21 -13.5 -61t-33.5 -72l-9 4q34 66 37 116q-12 3 -12 13q0 16 16 16z" />
    <glyph glyph-name="quotesinglbase" unicode="&#x201a;" horiz-adv-x="226" 
d="M112 28q6 0 10.5 -4.5t4.5 -11.5q0 -21 -13.5 -61t-33.5 -72l-9 4q34 66 37 116q-12 3 -12 13q0 16 16 16z" />
    <glyph glyph-name="quotedblleft" unicode="&#x201c;" horiz-adv-x="349" 
d="M213 605q-6 0 -10.5 4.5t-4.5 11.5q0 21 13.5 61t33.5 72l9 -4q-34 -66 -37 -116q12 -3 12 -13q0 -16 -16 -16zM91 605q-6 0 -10.5 4.5t-4.5 11.5q0 21 13.5 61t33.5 72l9 -4q-34 -66 -37 -116q12 -3 12 -13q0 -16 -16 -16z" />
    <glyph glyph-name="quotedblright" unicode="&#x201d;" horiz-adv-x="349" 
d="M112 720q6 0 10.5 -4.5t4.5 -11.5q0 -21 -13.5 -61t-33.5 -72l-9 4q34 66 37 116q-12 3 -12 13q0 16 16 16zM235 720q6 0 10.5 -4.5t4.5 -11.5q0 -21 -13.5 -61t-33.5 -72l-9 4q34 66 37 116q-12 3 -12 13q0 16 16 16z" />
    <glyph glyph-name="quotedblbase" unicode="&#x201e;" horiz-adv-x="349" 
d="M112 28q6 0 10.5 -4.5t4.5 -11.5q0 -21 -13.5 -61t-33.5 -72l-9 4q34 66 37 116q-12 3 -12 13q0 16 16 16zM235 28q6 0 10.5 -4.5t4.5 -11.5q0 -21 -13.5 -61t-33.5 -72l-9 4q34 66 37 116q-12 3 -12 13q0 16 16 16z" />
    <glyph glyph-name="dagger" unicode="&#x2020;" horiz-adv-x="586" 
d="M302 700v-183h177v-15h-177v-661h-17v661h-177v15h177v183h17z" />
    <glyph glyph-name="daggerdbl" unicode="&#x2021;" horiz-adv-x="586" 
d="M302 700v-189h177v-15h-177v-450h177v-15h-177v-190h-17v190h-177v15h177v450h-177v15h177v189h17z" />
    <glyph glyph-name="bullet" unicode="&#x2022;" horiz-adv-x="271" 
d="M136 351q19 0 32.5 -13t13.5 -33q0 -19 -14 -33t-32 -14q-19 0 -33 14t-14 33q0 20 14 33t33 13z" />
    <glyph glyph-name="uni2023" unicode="&#x2023;" horiz-adv-x="296" 
d="M196 307l-96 -48v97z" />
    <glyph glyph-name="ellipsis" unicode="&#x2026;" horiz-adv-x="665" 
d="M113 26q15 0 15 -15q0 -6 -4.5 -11t-10.5 -5q-7 0 -11.5 5t-4.5 11q0 15 16 15zM333 26q15 0 15 -15q0 -6 -4.5 -11t-10.5 -5q-7 0 -11.5 5t-4.5 11q0 15 16 15zM553 26q15 0 15 -15q0 -6 -4.5 -11t-10.5 -5q-7 0 -11.5 5t-4.5 11q0 15 16 15z" />
    <glyph glyph-name="perthousand" unicode="&#x2030;" horiz-adv-x="1430" 
d="M736 712l-433 -724h-16l433 724h16zM231 709q77 0 128.5 -56.5t51.5 -165.5q0 -113 -51.5 -170t-128.5 -57q-78 0 -129 57t-51 170q0 109 51.5 165.5t128.5 56.5zM231 696q-72 0 -118 -53t-46 -156q0 -105 46 -159t118 -54t118 54t46 159q0 103 -46.5 156t-117.5 53z
M783 440q77 0 128 -57t51 -166q0 -112 -51 -169t-128 -57q-78 0 -129.5 57t-51.5 169q0 109 51.5 166t129.5 57zM1199 440q77 0 128.5 -56.5t51.5 -166.5q0 -112 -51 -169t-129 -57q-77 0 -128.5 57t-51.5 169q0 109 51.5 166t128.5 57zM783 427q-73 0 -119 -53t-46 -156
q0 -106 46.5 -160t118.5 -54q71 0 117 54t46 159q0 103 -46 156.5t-117 53.5zM1199 427q-72 0 -118 -53t-46 -156q0 -106 46 -160t118 -54t118 54t46 159q0 103 -46.5 156.5t-117.5 53.5z" />
    <glyph glyph-name="guilsinglleft" unicode="&#x2039;" horiz-adv-x="248" 
d="M176 462l10 -6l-108 -174l108 -183l-10 -6l-115 180v18z" />
    <glyph glyph-name="guilsinglright" unicode="&#x203a;" horiz-adv-x="248" 
d="M70 462l116 -171v-18l-116 -180l-9 6l108 183l-108 174z" />
    <glyph glyph-name="uni203D" unicode="&#x203d;" horiz-adv-x="519" 
d="M269 704q54 0 94.5 -16t61.5 -42t31 -53t10 -55q0 -43 -19 -77.5t-46 -58t-54.5 -45.5t-46.5 -52t-19 -66v-56h-18l-3 274v230q-77 -3 -126.5 -47.5t-64.5 -98.5l-17 6q16 59 73 108t144 49zM279 457l-3 -169q11 30 41 60.5t58 52t50 57.5t22 79q0 58 -40 102.5
t-128 47.5v-230zM274 30q7 0 12 -5t5 -12t-5 -12t-12 -5t-12 5t-5 12t5 12t12 5z" />
    <glyph glyph-name="fraction" unicode="&#x2044;" horiz-adv-x="173" 
d="M311 712l-433 -724h-16l433 724h16z" />
    <glyph glyph-name="uni2070" unicode="&#x2070;" horiz-adv-x="400" 
d="M200 757q72 0 113 -54.5t41 -164.5q0 -106 -41 -159.5t-113 -53.5t-113 53.5t-41 159.5q0 110 41 164.5t113 54.5zM200 741q-64 0 -100 -50t-36 -153q0 -98 36 -147.5t100 -49.5q63 0 98.5 49t35.5 148q0 203 -134 203z" />
    <glyph glyph-name="uni2074" unicode="&#x2074;" horiz-adv-x="400" 
d="M289 750v-292h82v-16h-82v-112h-17v112h-244v16l239 292h22zM272 731l-224 -273h224v273z" />
    <glyph glyph-name="uni2075" unicode="&#x2075;" horiz-adv-x="400" 
d="M329 750l-3 -15h-219l-24 -163q47 56 127 56q59 0 100.5 -39.5t41.5 -103.5q0 -70 -43.5 -115t-113.5 -45q-61 0 -97.5 27.5t-50.5 63.5l16 7q13 -33 46 -58t87 -25q60 0 99 40.5t39 103.5q0 58 -36.5 93t-89.5 35q-79 0 -129 -62l-16 3l29 197h237z" />
    <glyph glyph-name="uni2076" unicode="&#x2076;" horiz-adv-x="400" 
d="M212 757q87 0 122 -76l-16 -6q-30 67 -106 67q-136 0 -145 -232q8 42 46.5 72.5t94.5 30.5q62 0 101.5 -39.5t39.5 -104.5q0 -63 -40 -103.5t-106 -40.5q-68 0 -110 43t-42 118q0 135 41.5 203t119.5 68zM205 597q-59 0 -97 -36t-38 -88q0 -57 36 -95t97 -38
q58 0 92.5 36.5t34.5 92.5q0 58 -34.5 93t-90.5 35z" />
    <glyph glyph-name="uni2077" unicode="&#x2077;" horiz-adv-x="400" 
d="M345 750v-15q-85 -97 -128 -191.5t-59 -213.5h-20q17 122 60.5 216t127.5 189h-255v-48h-16v63h290z" />
    <glyph glyph-name="uni2078" unicode="&#x2078;" horiz-adv-x="400" 
d="M199 325q-79 0 -119 34.5t-40 80.5q0 103 125 120q-103 31 -103 98q0 37 33 68t104 31q70 0 103 -30t33 -69q0 -38 -32 -65t-74 -37q71 -18 100.5 -43.5t29.5 -72.5q0 -45 -38.5 -80t-121.5 -35zM196 566l15 -5q45 11 76.5 36.5t31.5 60.5q0 34 -29 59t-91 25
q-61 0 -90 -25.5t-29 -58.5q0 -35 28 -55.5t88 -36.5zM199 340q74 0 108 30.5t34 69.5q0 46 -32.5 68.5t-108.5 40.5l-14 4q-128 -14 -128 -113q0 -40 36 -70t105 -30z" />
    <glyph glyph-name="uni2079" unicode="&#x2079;" horiz-adv-x="400" 
d="M185 324q-90 0 -127 73l16 7q32 -65 111 -65q74 0 108 59t38 179q-9 -40 -45.5 -68t-92.5 -28q-62 0 -102 37.5t-40 100.5q0 59 41 98t107 39q68 0 108.5 -40.5t40.5 -111.5q0 -145 -39.5 -212.5t-123.5 -67.5zM196 496q59 0 96 35.5t37 85.5q0 54 -35 89t-95 35
q-58 0 -94 -34.5t-36 -87.5q0 -55 35 -89t92 -34z" />
    <glyph glyph-name="uni207A" unicode="&#x207a;" horiz-adv-x="391" 
d="M191 642v-113h113v-13h-113v-113h-15v113h-113v13h113v113h15z" />
    <glyph glyph-name="uni207B" unicode="&#x207b;" horiz-adv-x="391" 
d="M304 529v-13h-241v13h241z" />
    <glyph glyph-name="uni207C" unicode="&#x207c;" horiz-adv-x="391" 
d="M304 582v-13h-241v13h241zM304 468v-13h-241v13h241z" />
    <glyph glyph-name="uni2080" unicode="&#x2080;" horiz-adv-x="400" 
d="M200 268q72 0 113 -54.5t41 -164.5q0 -106 -41 -159.5t-113 -53.5t-113 53.5t-41 159.5q0 110 41 164.5t113 54.5zM200 252q-64 0 -100 -50t-36 -153q0 -98 36 -147.5t100 -49.5q63 0 98.5 49t35.5 148q0 203 -134 203z" />
    <glyph glyph-name="uni2081" unicode="&#x2081;" horiz-adv-x="400" 
d="M95 -159v16h113v364q-25 -52 -105 -54v16q93 2 108 78h15v-404h105v-16h-236z" />
    <glyph glyph-name="uni2082" unicode="&#x2082;" horiz-adv-x="400" 
d="M201 268q61 0 96 -31.5t35 -85.5q0 -66 -68.5 -144t-182.5 -150h263v-16h-287v15q256 172 256 294q0 49 -29.5 75.5t-82.5 26.5q-57 0 -88.5 -29.5t-33.5 -71.5h-18q2 46 38.5 81.5t101.5 35.5z" />
    <glyph glyph-name="uni2083" unicode="&#x2083;" horiz-adv-x="400" 
d="M203 268q63 0 99 -29.5t36 -77.5q0 -40 -27 -65.5t-72 -28.5q47 -2 79.5 -31t32.5 -75q0 -57 -43.5 -91t-106.5 -34q-59 0 -99 28t-53 75l17 4q13 -40 48 -65.5t87 -25.5q56 0 93.5 29t37.5 80q0 46 -32.5 72t-83.5 26h-47v14h46q47 0 75.5 23.5t28.5 63.5q0 43 -31 68
t-84 25q-51 0 -82.5 -24t-41.5 -63l-17 3q10 42 46.5 70.5t93.5 28.5z" />
    <glyph glyph-name="uni2084" unicode="&#x2084;" horiz-adv-x="400" 
d="M289 261v-292h82v-16h-82v-112h-17v112h-244v16l239 292h22zM272 242l-224 -273h224v273z" />
    <glyph glyph-name="uni2085" unicode="&#x2085;" horiz-adv-x="400" 
d="M329 261l-3 -15h-219l-24 -163q47 56 127 56q59 0 100.5 -39.5t41.5 -103.5q0 -70 -43.5 -115t-113.5 -45q-61 0 -97.5 27.5t-50.5 63.5l16 7q13 -33 46 -58t87 -25q60 0 99 40.5t39 103.5q0 58 -36.5 93t-89.5 35q-79 0 -129 -62l-16 3l29 197h237z" />
    <glyph glyph-name="uni2086" unicode="&#x2086;" horiz-adv-x="400" 
d="M212 268q87 0 122 -76l-16 -6q-30 67 -106 67q-136 0 -145 -232q8 42 46.5 72.5t94.5 30.5q62 0 101.5 -39.5t39.5 -104.5q0 -63 -40 -103.5t-106 -40.5q-68 0 -110 43t-42 118q0 135 41.5 203t119.5 68zM205 108q-59 0 -97 -36t-38 -88q0 -57 36 -95t97 -38
q58 0 92.5 36.5t34.5 92.5q0 58 -34.5 93t-90.5 35z" />
    <glyph glyph-name="uni2087" unicode="&#x2087;" horiz-adv-x="400" 
d="M345 261v-15q-85 -97 -128 -191.5t-59 -213.5h-20q17 122 60.5 216t127.5 189h-255v-48h-16v63h290z" />
    <glyph glyph-name="uni2088" unicode="&#x2088;" horiz-adv-x="400" 
d="M199 -164q-79 0 -119 34.5t-40 80.5q0 103 125 120q-103 31 -103 98q0 37 33 68t104 31q70 0 103 -30t33 -69q0 -38 -32 -65t-74 -37q71 -19 100.5 -44t29.5 -72q0 -45 -38.5 -80t-121.5 -35zM196 77l15 -5q45 11 76.5 36.5t31.5 60.5q0 34 -29 59t-91 25
q-61 0 -90 -25.5t-29 -58.5q0 -35 28 -55.5t88 -36.5zM199 -149q74 0 108 30.5t34 69.5q0 46 -32.5 68.5t-108.5 40.5l-14 4q-128 -14 -128 -113q0 -40 36 -70t105 -30z" />
    <glyph glyph-name="uni2089" unicode="&#x2089;" horiz-adv-x="400" 
d="M185 -165q-90 0 -127 73l16 7q32 -65 111 -65q74 0 108 59t38 179q-9 -40 -45.5 -68t-92.5 -28q-62 0 -102 37.5t-40 100.5q0 59 41 98t107 39q68 0 108.5 -40.5t40.5 -111.5q0 -145 -39.5 -212.5t-123.5 -67.5zM196 7q59 0 96 35.5t37 85.5q0 54 -35 89t-95 35
q-58 0 -94 -34.5t-36 -87.5q0 -55 35 -89t92 -34z" />
    <glyph glyph-name="uni208A" unicode="&#x208a;" horiz-adv-x="366" 
d="M191 152v-113h113v-13h-113v-113h-15v113h-113v13h113v113h15z" />
    <glyph glyph-name="uni208B" unicode="&#x208b;" horiz-adv-x="366" 
d="M304 39v-13h-241v13h241z" />
    <glyph glyph-name="uni208C" unicode="&#x208c;" horiz-adv-x="366" 
d="M304 82v-13h-241v13h241zM304 -32v-13h-241v13h241z" />
    <glyph glyph-name="uni208D" unicode="&#x208d;" horiz-adv-x="300" 
d="M206 289h11q-83 -113 -83 -242q0 -131 82 -242h-11q-41 52 -63 117.5t-22 124.5q0 58 22.5 124t63.5 118z" />
    <glyph glyph-name="uni208E" unicode="&#x208e;" horiz-adv-x="300" 
d="M103 289h11q41 -52 63.5 -118t22.5 -124q0 -59 -22 -124.5t-63 -117.5h-12q83 111 83 242q0 129 -83 242z" />
    <glyph glyph-name="Euro" unicode="&#x20ac;" horiz-adv-x="660" 
d="M396 709q120 0 190 -87l-6 -16q-69 87 -184 87q-95 0 -162.5 -68t-83.5 -199h347l-4 -12h-345q-3 -28 -3 -64t3 -64h307l-4 -12h-302q13 -135 77.5 -201t154.5 -66q116 0 177 72v-20q-63 -68 -177 -68q-45 0 -84.5 15.5t-74.5 48t-58.5 88.5t-31.5 131h-78l4 12h73
q-3 28 -3 64t3 64h-76l4 12h73q17 139 90.5 211t173.5 72z" />
    <glyph glyph-name="uni20B9" unicode="&#x20b9;" 
d="M514 700v-15h-210q58 -18 91 -58.5t33 -98.5q0 -18 -1 -26h87v-14h-90q-24 -130 -213 -130h-105l349 -358h-21l-348 357v17h123q173 0 197 114h-319v14h321q2 16 2 26q0 73 -54 115t-147 42h-122v15h427z" />
    <glyph glyph-name="uni20BA" unicode="&#x20ba;" 
d="M496 207h17q-2 -78 -69.5 -146t-166.5 -68q-61 0 -99 11v367l-95 -51v13l95 51v152l-95 -51v13l95 51v151h18v-142l236 126v-13l-236 -126v-151l236 126v-13l-236 -126v-365q36 -9 81 -9q89 0 153 64.5t66 135.5z" />
    <glyph glyph-name="uni20BD" unicode="&#x20bd;" 
d="M317 307h-192v-126h273v-15h-273v-166h-18v166h-62v15h62v126h-66v16h66v377h207q244 0 244 -195q0 -198 -241 -198zM125 684v-361h193q221 0 221 182q0 179 -224 179h-190z" />
    <glyph glyph-name="uni2105" unicode="&#x2105;" horiz-adv-x="900" 
d="M678 712l-433 -724h-16l433 724h16zM231 675q40 0 70.5 -19t45.5 -51l-11 -4q-14 28 -42 44.5t-63 16.5q-59 0 -94.5 -42t-35.5 -107q0 -61 34.5 -103.5t92.5 -42.5q82 0 114 76l12 -4q-35 -85 -126 -85q-65 0 -103 46t-38 113q0 70 39.5 116t104.5 46zM669 314
q65 0 104 -46t39 -113q0 -71 -37.5 -116t-105.5 -45t-106.5 45.5t-38.5 115.5q0 69 39 114t106 45zM669 301q-60 0 -95 -41.5t-35 -104.5q0 -64 34.5 -106t95.5 -42t95 41.5t34 106.5q0 61 -35 103.5t-94 42.5z" />
    <glyph glyph-name="uni2113" unicode="&#x2113;" 
d="M377 -9q-52 0 -88 32.5t-36 103.5v158l-82 -94l-7 17l89 101v254q0 146 94 146q41 0 60.5 -26.5t19.5 -65.5q0 -24 -4.5 -48t-17 -52t-20 -45.5t-29 -49.5t-27.5 -41t-32 -44l-26 -35v-170q0 -66 30 -95t77 -29q35 0 57 12v-15q-20 -14 -58 -14zM271 561v-232
q2 3 19.5 27t23 32.5t21.5 33t23.5 38t19 37t17 40.5t10 38t4.5 39q0 33 -15 56.5t-47 23.5q-76 0 -76 -133z" />
    <glyph glyph-name="uni2116" unicode="&#x2116;" horiz-adv-x="1200" 
d="M636 700v-700h-20l-447 670v-670h-17v700h20l446 -672v672h18zM926 377q-68 0 -106.5 45.5t-38.5 114.5q0 70 39 115t106 45q65 0 104 -46t39 -114q0 -71 -37.5 -115.5t-105.5 -44.5zM925 390q61 0 95 41.5t34 105.5q0 62 -35 104.5t-94 42.5q-60 0 -95 -41.5t-35 -105.5
q0 -63 34.5 -105t95.5 -42zM805 257v13h261v-13h-261z" />
    <glyph glyph-name="uni2117" unicode="&#x2117;" horiz-adv-x="900" 
d="M451 -9q-150 0 -255 103.5t-105 254.5t105 255.5t255 104.5t254 -104.5t104 -255.5t-104 -254.5t-254 -103.5zM451 2q146 0 246.5 100.5t100.5 246.5t-101 247.5t-246 101.5t-246.5 -101.5t-101.5 -247.5t101.5 -246.5t246.5 -100.5zM344 134v427h126q72 0 109.5 -31.5
t37.5 -87.5q0 -49 -33 -83t-98 -34h-130v-191h-12zM356 335h130q58 0 88 30.5t30 77.5q0 51 -34 79t-100 28h-114v-215z" />
    <glyph glyph-name="uni2120" unicode="&#x2120;" horiz-adv-x="1200" 
d="M328 706q108 0 164 -73l-11 -7q-51 65 -154 65q-67 0 -104.5 -24.5t-37.5 -65.5q0 -43 34.5 -65t115.5 -35q86 -13 123 -42t37 -81q0 -54 -43 -86.5t-126 -32.5q-125 0 -182 67l11 10q57 -63 171 -63q72 0 112.5 29t40.5 76q0 46 -33.5 71t-119.5 38q-81 13 -119 39
t-38 75q0 47 42.5 76t116.5 29zM977 700l72 -435h-16l-69 416l-132 -416h-19l-147 416l-64 -416h-16l67 435h23l146 -418l133 418h22z" />
    <glyph glyph-name="trademark" unicode="&#x2122;" horiz-adv-x="1000" 
d="M429 700v-14h-177v-421h-17v421h-169v14h363zM859 700l72 -435h-16l-69 416l-132 -416h-19l-147 416l-64 -416h-16l67 435h23l146 -418l133 418h22z" />
    <glyph glyph-name="Omega" unicode="&#x2126;" horiz-adv-x="745" 
d="M372 709q58 0 110 -20.5t95.5 -62t69.5 -112t26 -162.5q0 -147 -55.5 -228.5t-144.5 -106.5h189v-17h-217v17q93 21 151 104t58 231q0 166 -81.5 253t-200.5 87q-118 0 -199.5 -87t-81.5 -253q0 -148 58.5 -231t150.5 -104v-17h-217v17h189q-89 25 -144.5 106.5
t-55.5 228.5q0 91 25.5 161.5t69 112t95.5 62.5t110 21z" />
    <glyph glyph-name="estimated" unicode="&#x212e;" horiz-adv-x="945" 
d="M473 709q162 0 279.5 -103t121.5 -255h-655v-271q37 -33 104 -57t147 -24q110 0 180 30t125 87h11q-61 -66 -135.5 -95.5t-180.5 -29.5q-169 0 -284 102t-115 252q0 154 117.5 259t284.5 105zM473 701q-154 0 -254 -84v-258h509v257q-109 85 -255 85z" />
    <glyph glyph-name="uni2150" unicode="&#x2150;" horiz-adv-x="943" 
d="M701 712l-433 -724h-16l433 724h16zM888 420v-15q-85 -97 -128 -191.5t-59 -213.5h-20q17 122 60.5 216t127.5 189h-255v-48h-16v63h290zM95 280v16h113v364q-25 -52 -105 -54v16q93 2 108 78h15v-404h105v-16h-236z" />
    <glyph glyph-name="uni2151" unicode="&#x2151;" horiz-adv-x="913" 
d="M701 712l-433 -724h-16l433 724h16zM698 -5q-90 0 -127 73l16 7q32 -65 111 -65q74 0 108 59t38 179q-9 -40 -45.5 -68t-92.5 -28q-62 0 -102 37.5t-40 100.5q0 59 41 98t107 39q68 0 108.5 -40.5t40.5 -111.5q0 -145 -39.5 -212.5t-123.5 -67.5zM709 167q59 0 96 35.5
t37 85.5q0 54 -35 89t-95 35q-58 0 -94 -34.5t-36 -87.5q0 -55 35 -89t92 -34zM95 280v16h113v364q-25 -52 -105 -54v16q93 2 108 78h15v-404h105v-16h-236z" />
    <glyph glyph-name="uni2152" unicode="&#x2152;" horiz-adv-x="1303" 
d="M701 712l-433 -724h-16l433 724h16zM598 0v16h113v364q-25 -52 -105 -54v16q93 2 108 78h15v-404h105v-16h-236zM1103 427q72 0 113 -54.5t41 -164.5q0 -106 -41 -159.5t-113 -53.5t-113 53.5t-41 159.5q0 110 41 164.5t113 54.5zM1103 411q-64 0 -100 -50t-36 -153
q0 -98 36 -147.5t100 -49.5q63 0 98.5 49t35.5 148q0 203 -134 203zM95 280v16h113v364q-25 -52 -105 -54v16q93 2 108 78h15v-404h105v-16h-236z" />
    <glyph glyph-name="onethird" unicode="&#x2153;" horiz-adv-x="913" 
d="M701 712l-433 -724h-16l433 724h16zM716 427q63 0 99 -29.5t36 -77.5q0 -40 -27 -65.5t-72 -28.5q47 -2 79.5 -31t32.5 -75q0 -57 -43.5 -91t-106.5 -34q-59 0 -99 28t-53 75l17 4q13 -40 48 -65.5t87 -25.5q56 0 93.5 29t37.5 80q0 46 -32.5 72t-83.5 26h-47v14h46
q47 0 75.5 23.5t28.5 63.5q0 43 -31 68t-84 25q-51 0 -82.5 -24t-41.5 -63l-17 3q10 42 46.5 70.5t93.5 28.5zM95 280v16h113v364q-25 -52 -105 -54v16q93 2 108 78h15v-404h105v-16h-236z" />
    <glyph glyph-name="twothirds" unicode="&#x2154;" horiz-adv-x="913" 
d="M701 712l-433 -724h-16l433 724h16zM716 427q63 0 99 -29.5t36 -77.5q0 -40 -27 -65.5t-72 -28.5q47 -2 79.5 -31t32.5 -75q0 -57 -43.5 -91t-106.5 -34q-59 0 -99 28t-53 75l17 4q13 -40 48 -65.5t87 -25.5q56 0 93.5 29t37.5 80q0 46 -32.5 72t-83.5 26h-47v14h46
q47 0 75.5 23.5t28.5 63.5q0 43 -31 68t-84 25q-51 0 -82.5 -24t-41.5 -63l-17 3q10 42 46.5 70.5t93.5 28.5zM201 707q61 0 96 -31.5t35 -85.5q0 -66 -68.5 -144t-182.5 -150h263v-16h-287v15q256 172 256 294q0 49 -29.5 75.5t-82.5 26.5q-57 0 -88.5 -29.5t-33.5 -71.5
h-18q2 46 38.5 81.5t101.5 35.5z" />
    <glyph glyph-name="uni2155" unicode="&#x2155;" horiz-adv-x="923" 
d="M701 712l-433 -724h-16l433 724h16zM852 420l-3 -15h-219l-24 -163q47 56 127 56q59 0 100.5 -39.5t41.5 -103.5q0 -70 -43.5 -115t-113.5 -45q-61 0 -97.5 27.5t-50.5 63.5l16 7q13 -33 46 -58t87 -25q60 0 99 40.5t39 103.5q0 58 -36.5 93t-89.5 35q-79 0 -129 -62
l-16 3l29 197h237zM95 280v16h113v364q-25 -52 -105 -54v16q93 2 108 78h15v-404h105v-16h-236z" />
    <glyph glyph-name="uni2156" unicode="&#x2156;" horiz-adv-x="923" 
d="M701 712l-433 -724h-16l433 724h16zM852 420l-3 -15h-219l-24 -163q47 56 127 56q59 0 100.5 -39.5t41.5 -103.5q0 -70 -43.5 -115t-113.5 -45q-61 0 -97.5 27.5t-50.5 63.5l16 7q13 -33 46 -58t87 -25q60 0 99 40.5t39 103.5q0 58 -36.5 93t-89.5 35q-79 0 -129 -62
l-16 3l29 197h237zM201 707q61 0 96 -31.5t35 -85.5q0 -66 -68.5 -144t-182.5 -150h263v-16h-287v15q256 172 256 294q0 49 -29.5 75.5t-82.5 26.5q-57 0 -88.5 -29.5t-33.5 -71.5h-18q2 46 38.5 81.5t101.5 35.5z" />
    <glyph glyph-name="uni2157" unicode="&#x2157;" horiz-adv-x="883" 
d="M661 712l-433 -724h-16l433 724h16zM812 420l-3 -15h-219l-24 -163q47 56 127 56q59 0 100.5 -39.5t41.5 -103.5q0 -70 -43.5 -115t-113.5 -45q-61 0 -97.5 27.5t-50.5 63.5l16 7q13 -33 46 -58t87 -25q60 0 99 40.5t39 103.5q0 58 -36.5 93t-89.5 35q-79 0 -129 -62
l-16 3l29 197h237zM203 707q63 0 99 -29.5t36 -77.5q0 -40 -27 -65.5t-72 -28.5q47 -2 79.5 -31t32.5 -75q0 -57 -43.5 -91t-106.5 -34q-59 0 -99 28t-53 75l17 4q13 -40 48 -65.5t87 -25.5q56 0 93.5 29t37.5 80q0 46 -32.5 72t-83.5 26h-47v14h46q47 0 75.5 23.5
t28.5 63.5q0 43 -31 68t-84 25q-51 0 -82.5 -24t-41.5 -63l-17 3q10 42 46.5 70.5t93.5 28.5z" />
    <glyph glyph-name="uni2158" unicode="&#x2158;" horiz-adv-x="913" 
d="M691 712l-433 -724h-16l433 724h16zM842 420l-3 -15h-219l-24 -163q47 56 127 56q59 0 100.5 -39.5t41.5 -103.5q0 -70 -43.5 -115t-113.5 -45q-61 0 -97.5 27.5t-50.5 63.5l16 7q13 -33 46 -58t87 -25q60 0 99 40.5t39 103.5q0 58 -36.5 93t-89.5 35q-79 0 -129 -62
l-16 3l29 197h237zM289 700v-292h82v-16h-82v-112h-17v112h-244v16l239 292h22zM272 681l-224 -273h224v273z" />
    <glyph glyph-name="uni2159" unicode="&#x2159;" horiz-adv-x="903" 
d="M701 712l-433 -724h-16l433 724h16zM715 427q87 0 122 -76l-16 -6q-30 67 -106 67q-136 0 -145 -232q8 42 46.5 72.5t94.5 30.5q62 0 101.5 -39.5t39.5 -104.5q0 -63 -40 -103.5t-106 -40.5q-68 0 -110 43t-42 118q0 135 41.5 203t119.5 68zM708 267q-59 0 -97 -36
t-38 -88q0 -57 36 -95t97 -38q58 0 92.5 36.5t34.5 92.5q0 58 -34.5 93t-90.5 35zM95 280v16h113v364q-25 -52 -105 -54v16q93 2 108 78h15v-404h105v-16h-236z" />
    <glyph glyph-name="uni215A" unicode="&#x215a;" horiz-adv-x="863" 
d="M661 712l-433 -724h-16l433 724h16zM675 427q87 0 122 -76l-16 -6q-30 67 -106 67q-136 0 -145 -232q8 42 46.5 72.5t94.5 30.5q62 0 101.5 -39.5t39.5 -104.5q0 -63 -40 -103.5t-106 -40.5q-68 0 -110 43t-42 118q0 135 41.5 203t119.5 68zM668 267q-59 0 -97 -36
t-38 -88q0 -57 36 -95t97 -38q58 0 92.5 36.5t34.5 92.5q0 58 -34.5 93t-90.5 35zM329 700l-3 -15h-219l-24 -163q47 56 127 56q59 0 100.5 -39.5t41.5 -103.5q0 -70 -43.5 -115t-113.5 -45q-61 0 -97.5 27.5t-50.5 63.5l16 7q13 -33 46 -58t87 -25q60 0 99 40.5t39 103.5
q0 58 -36.5 93t-89.5 35q-79 0 -129 -62l-16 3l29 197h237z" />
    <glyph glyph-name="oneeighth" unicode="&#x215b;" horiz-adv-x="913" 
d="M701 712l-433 -724h-16l433 724h16zM712 -5q-79 0 -119 34.5t-40 80.5q0 103 125 120q-103 31 -103 98q0 37 33 68t104 31q70 0 103 -30t33 -69q0 -38 -32 -65t-74 -37q71 -19 100.5 -44t29.5 -72q0 -45 -38.5 -80t-121.5 -35zM709 236l15 -5q45 11 76.5 36.5t31.5 60.5
q0 34 -29 59t-91 25q-61 0 -90 -25.5t-29 -58.5q0 -35 28 -55.5t88 -36.5zM712 10q74 0 108 30.5t34 69.5q0 46 -32.5 68.5t-108.5 40.5l-14 4q-128 -14 -128 -113q0 -40 36 -70t105 -30zM95 280v16h113v364q-25 -52 -105 -54v16q93 2 108 78h15v-404h105v-16h-236z" />
    <glyph glyph-name="threeeighths" unicode="&#x215c;" horiz-adv-x="873" 
d="M661 712l-433 -724h-16l433 724h16zM672 -5q-79 0 -119 34.5t-40 80.5q0 103 125 120q-103 31 -103 98q0 37 33 68t104 31q70 0 103 -30t33 -69q0 -38 -32 -65t-74 -37q71 -19 100.5 -44t29.5 -72q0 -45 -38.5 -80t-121.5 -35zM669 236l15 -5q45 11 76.5 36.5t31.5 60.5
q0 34 -29 59t-91 25q-61 0 -90 -25.5t-29 -58.5q0 -35 28 -55.5t88 -36.5zM672 10q74 0 108 30.5t34 69.5q0 46 -32.5 68.5t-108.5 40.5l-14 4q-128 -14 -128 -113q0 -40 36 -70t105 -30zM203 707q63 0 99 -29.5t36 -77.5q0 -40 -27 -65.5t-72 -28.5q47 -2 79.5 -31
t32.5 -75q0 -57 -43.5 -91t-106.5 -34q-59 0 -99 28t-53 75l17 4q13 -40 48 -65.5t87 -25.5q56 0 93.5 29t37.5 80q0 46 -32.5 72t-83.5 26h-47v14h46q47 0 75.5 23.5t28.5 63.5q0 43 -31 68t-84 25q-51 0 -82.5 -24t-41.5 -63l-17 3q10 42 46.5 70.5t93.5 28.5z" />
    <glyph glyph-name="fiveeighths" unicode="&#x215d;" horiz-adv-x="873" 
d="M661 712l-433 -724h-16l433 724h16zM672 -5q-79 0 -119 34.5t-40 80.5q0 103 125 120q-103 31 -103 98q0 37 33 68t104 31q70 0 103 -30t33 -69q0 -38 -32 -65t-74 -37q71 -19 100.5 -44t29.5 -72q0 -45 -38.5 -80t-121.5 -35zM669 236l15 -5q45 11 76.5 36.5t31.5 60.5
q0 34 -29 59t-91 25q-61 0 -90 -25.5t-29 -58.5q0 -35 28 -55.5t88 -36.5zM672 10q74 0 108 30.5t34 69.5q0 46 -32.5 68.5t-108.5 40.5l-14 4q-128 -14 -128 -113q0 -40 36 -70t105 -30zM329 700l-3 -15h-219l-24 -163q47 56 127 56q59 0 100.5 -39.5t41.5 -103.5
q0 -70 -43.5 -115t-113.5 -45q-61 0 -97.5 27.5t-50.5 63.5l16 7q13 -33 46 -58t87 -25q60 0 99 40.5t39 103.5q0 58 -36.5 93t-89.5 35q-79 0 -129 -62l-16 3l29 197h237z" />
    <glyph glyph-name="seveneighths" unicode="&#x215e;" horiz-adv-x="823" 
d="M611 712l-433 -724h-16l433 724h16zM622 -5q-79 0 -119 34.5t-40 80.5q0 103 125 120q-103 31 -103 98q0 37 33 68t104 31q70 0 103 -30t33 -69q0 -38 -32 -65t-74 -37q71 -19 100.5 -44t29.5 -72q0 -45 -38.5 -80t-121.5 -35zM619 236l15 -5q45 11 76.5 36.5t31.5 60.5
q0 34 -29 59t-91 25q-61 0 -90 -25.5t-29 -58.5q0 -35 28 -55.5t88 -36.5zM622 10q74 0 108 30.5t34 69.5q0 46 -32.5 68.5t-108.5 40.5l-14 4q-128 -14 -128 -113q0 -40 36 -70t105 -30zM345 700v-15q-85 -97 -128 -191.5t-59 -213.5h-20q17 122 60.5 216t127.5 189h-255
v-48h-16v63h290z" />
    <glyph glyph-name="uni215F" unicode="&#x215f;" horiz-adv-x="563" 
d="M701 712l-433 -724h-16l433 724h16zM95 280v16h113v364q-25 -52 -105 -54v16q93 2 108 78h15v-404h105v-16h-236z" />
    <glyph glyph-name="uni2189" unicode="&#x2189;" horiz-adv-x="863" 
d="M651 712l-433 -724h-16l433 724h16zM666 427q63 0 99 -29.5t36 -77.5q0 -40 -27 -65.5t-72 -28.5q47 -2 79.5 -31t32.5 -75q0 -57 -43.5 -91t-106.5 -34q-59 0 -99 28t-53 75l17 4q13 -40 48 -65.5t87 -25.5q56 0 93.5 29t37.5 80q0 46 -32.5 72t-83.5 26h-47v14h46
q47 0 75.5 23.5t28.5 63.5q0 43 -31 68t-84 25q-51 0 -82.5 -24t-41.5 -63l-17 3q10 42 46.5 70.5t93.5 28.5zM200 707q72 0 113 -54.5t41 -164.5q0 -106 -41 -159.5t-113 -53.5t-113 53.5t-41 159.5q0 110 41 164.5t113 54.5zM200 691q-64 0 -100 -50t-36 -153
q0 -98 36 -147.5t100 -49.5q63 0 98.5 49t35.5 148q0 203 -134 203z" />
    <glyph glyph-name="arrowleft" unicode="&#x2190;" horiz-adv-x="900" 
d="M401 632l14 -12l-264 -283h627v-16h-627l264 -283l-14 -12l-279 303z" />
    <glyph glyph-name="arrowup" unicode="&#x2191;" horiz-adv-x="900" 
d="M450 656l303 -279l-11 -12l-283 263v-628h-18v628l-284 -263l-10 12z" />
    <glyph glyph-name="arrowright" unicode="&#x2192;" horiz-adv-x="900" 
d="M499 632l279 -303l-279 -303l-13 12l263 283h-627v16h627l-263 283z" />
    <glyph glyph-name="arrowdown" unicode="&#x2193;" horiz-adv-x="900" 
d="M459 621v-628l283 263l11 -12l-303 -280l-303 280l10 12l284 -263v628h18z" />
    <glyph glyph-name="arrowboth" unicode="&#x2194;" horiz-adv-x="1280" 
d="M888 632l279 -303l-279 -303l-13 12l263 283h-997l264 -283l-14 -12l-279 303l279 303l14 -12l-264 -283h997l-263 283z" />
    <glyph glyph-name="arrowupdn" unicode="&#x2195;" horiz-adv-x="900" 
d="M450 881l303 -280l-11 -12l-283 263v-1024l283 263l11 -12l-303 -280l-303 280l10 12l284 -263v1024l-284 -263l-10 12z" />
    <glyph glyph-name="uni2196" unicode="&#x2196;" horiz-adv-x="900" 
d="M633 584l1 -16l-386 -15l440 -441l-11 -12l-441 441l-15 -386h-17l17 412z" />
    <glyph glyph-name="uni2197" unicode="&#x2197;" horiz-adv-x="900" 
d="M268 584l411 -17l17 -412h-17l-15 386l-440 -441l-12 12l441 441l-387 15z" />
    <glyph glyph-name="uni2198" unicode="&#x2198;" horiz-adv-x="900" 
d="M222 534l441 -441l15 386h17l-17 -412l-412 -17l-2 17l387 14l-441 441z" />
    <glyph glyph-name="uni2199" unicode="&#x2199;" horiz-adv-x="900" 
d="M677 534l11 -12l-440 -441l386 -14l-1 -17l-412 17l-17 412h17l15 -386z" />
    <glyph glyph-name="partialdiff" unicode="&#x2202;" horiz-adv-x="586" 
d="M138 688v15q207 -8 293.5 -112.5t86.5 -341.5q0 -119 -63 -188.5t-164 -69.5q-103 0 -164.5 63.5t-61.5 168.5q0 107 62.5 170t160.5 63q91 0 147 -49.5t66 -115.5q-5 103 -25.5 173.5t-63 120.5t-109.5 74.5t-165 28.5zM289 440q-91 0 -148 -59t-57 -158t57 -158
t150 -59q94 0 151 65.5t57 163.5q0 89 -58 147t-152 58z" />
    <glyph glyph-name="emptyset" unicode="&#x2205;" horiz-adv-x="900" 
d="M719 709l-53 -71q66 -50 104 -126t38 -163q0 -150 -103 -254t-254 -104q-121 0 -214 69l-51 -69h-17l57 77q-63 50 -98.5 123.5t-35.5 157.5q0 149 104 254.5t255 105.5q114 0 204 -63l47 63h17zM108 349q0 -81 34 -151t93 -118l411 554q-85 60 -195 60q-145 0 -244 -101
t-99 -244zM451 6q145 0 243.5 99.5t98.5 243.5q0 84 -36 156.5t-100 120.5l-411 -554q90 -66 205 -66z" />
    <glyph glyph-name="Delta" unicode="&#x2206;" horiz-adv-x="593" 
d="M310 700l254 -700h-535l257 700h24zM55 16h483l-240 667z" />
    <glyph glyph-name="product" unicode="&#x220f;" horiz-adv-x="620" 
d="M564 700v-15h-99v-685h-18v685h-275v-685h-18v685h-98v15h508z" />
    <glyph glyph-name="summation" unicode="&#x2211;" 
d="M523 700v-15h-427l260 -320v-15l-261 -335h428v-15h-447v14l265 344l-265 328v14h447z" />
    <glyph glyph-name="minus" unicode="&#x2212;" 
d="M483 299v-16h-366v16h366z" />
    <glyph glyph-name="uni2215" unicode="&#x2215;" 
d="M524 712l-433 -724h-16l433 724h16z" />
    <glyph glyph-name="uni2219" unicode="&#x2219;" 
d="M300 351q19 0 32.5 -13t13.5 -33q0 -19 -14 -33t-32 -14q-19 0 -33 14t-14 33q0 20 14 33t33 13z" />
    <glyph glyph-name="radical" unicode="&#x221a;" 
d="M651 867v-15h-191l-247 -852h-19l-197 516l18 1l188 -495l244 845h204z" />
    <glyph glyph-name="infinity" unicode="&#x221e;" horiz-adv-x="866" 
d="M619 435q65 0 111.5 -48t46.5 -122q0 -78 -48 -125.5t-118 -47.5q-67 0 -107.5 39.5t-71.5 115.5q-32 -76 -76.5 -115.5t-108.5 -39.5q-66 0 -112 47.5t-46 121.5q0 78 47.5 126t117.5 48q67 0 107.5 -39t71.5 -115q65 154 186 154zM620 420q-62 0 -104.5 -40t-74.5 -116
q29 -76 68 -116.5t104 -40.5q62 0 104.5 42.5t42.5 115.5q0 69 -42 112t-98 43zM254 419q-62 0 -104.5 -42.5t-42.5 -115.5q0 -68 42 -111t99 -43q61 0 103.5 40.5t74.5 117.5q-28 75 -67.5 114.5t-104.5 39.5z" />
    <glyph glyph-name="integral" unicode="&#x222b;" horiz-adv-x="300" 
d="M271 853q47 0 101 -16v-15q-52 16 -99 16q-116 0 -116 -121v-780q0 -61 -27.5 -97.5t-101.5 -36.5q-47 0 -101 16v15q52 -16 99 -16q66 0 89.5 32t23.5 89v780q0 134 132 134z" />
    <glyph glyph-name="congruent" unicode="&#x2245;" 
d="M485 369v-16h-367v16h367zM485 168v-16h-367v16h367zM225 650q35 0 79 -28.5t72 -28.5q59 0 97 56l10 -10q-43 -62 -108 -62q-35 0 -79 29t-72 29q-57 0 -97 -55l-10 9q42 61 108 61z" />
    <glyph glyph-name="approxequal" unicode="&#x2248;" 
d="M225 441q35 0 79 -28.5t72 -28.5q59 0 97 56l10 -10q-43 -62 -108 -62q-35 0 -79 29t-72 29q-57 0 -97 -55l-10 9q42 61 108 61zM225 252q35 0 79 -28.5t72 -28.5q59 0 97 56l10 -10q-43 -62 -108 -62q-35 0 -79 29t-72 29q-57 0 -97 -55l-10 9q42 61 108 61z" />
    <glyph glyph-name="uni2259" unicode="&#x2259;" 
d="M309 700l124 -183h-17l-116 170l-117 -170h-17l125 183h18zM483 412v-16h-367v16h367zM483 211v-16h-367v16h367z" />
    <glyph glyph-name="notequal" unicode="&#x2260;" 
d="M483 396h-115l-114 -185h229v-16h-239l-107 -173h-16l107 173h-112v16h122l115 185h-237v16h246l102 164h15l-101 -164h105v-16z" />
    <glyph glyph-name="lessequal" unicode="&#x2264;" 
d="M483 546v-17l-354 -175l354 -177v-17l-367 184v20zM483 16v-16h-366v16h366z" />
    <glyph glyph-name="greaterequal" unicode="&#x2265;" 
d="M116 546l367 -182v-20l-367 -184v17l353 177l-353 175v17zM482 16v-16h-366v16h366z" />
    <glyph glyph-name="dotmath" unicode="&#x22c5;" 
d="M300 309q7 0 12 -5t5 -12t-5 -12t-12 -5t-12 5t-5 12t5 12t12 5z" />
    <glyph glyph-name="uni2460" unicode="&#x2460;" horiz-adv-x="900" 
d="M351 159v15h103v330q-22 -47 -95 -49v15q85 2 98 71h13v-367h96v-15h-215zM451 709q150 0 254 -104.5t104 -255.5t-104 -254.5t-254 -103.5t-255 103.5t-105 254.5t105 255.5t255 104.5zM451 694q-143 0 -243.5 -100t-100.5 -245q0 -144 100 -243.5t244 -99.5t243 99
t99 244t-99 245t-243 100z" />
    <glyph glyph-name="uni2461" unicode="&#x2461;" horiz-adv-x="900" 
d="M452 547q55 0 87 -28.5t32 -77.5q0 -60 -62.5 -131t-165.5 -136h239v-15h-261v14q233 156 233 267q0 45 -27 69t-75 24q-52 0 -80.5 -27t-30.5 -65h-17q2 42 35.5 74t92.5 32zM451 709q150 0 254 -104.5t104 -255.5t-104 -254.5t-254 -103.5t-255 103.5t-105 254.5
t105 255.5t255 104.5zM451 694q-143 0 -243.5 -100t-100.5 -245q0 -144 100 -243.5t244 -99.5t243 99t99 244t-99 245t-243 100z" />
    <glyph glyph-name="uni2462" unicode="&#x2462;" horiz-adv-x="900" 
d="M454 547q57 0 89.5 -26.5t32.5 -70.5q0 -36 -24.5 -59.5t-65.5 -26.5q43 -2 72.5 -28t29.5 -68q0 -52 -39.5 -83t-96.5 -31q-54 0 -90 25.5t-48 68.5l15 4q12 -37 43.5 -60t79.5 -23q50 0 84.5 26.5t34.5 72.5q0 41 -29.5 65t-76.5 24h-42v13h41q43 0 69 21.5t26 57.5
q0 40 -28 62.5t-77 22.5q-46 0 -74 -22t-38 -58l-16 3q9 38 42.5 64t85.5 26zM451 709q150 0 254 -104.5t104 -255.5t-104 -254.5t-254 -103.5t-255 103.5t-105 254.5t105 255.5t255 104.5zM451 694q-143 0 -243.5 -100t-100.5 -245q0 -144 100 -243.5t244 -99.5t243 99
t99 244t-99 245t-243 100z" />
    <glyph glyph-name="uni2463" unicode="&#x2463;" horiz-adv-x="900" 
d="M517 541v-266h74v-14h-74v-102h-16v102h-222v14l218 266h20zM501 524l-203 -249h203v249zM451 709q150 0 254 -104.5t104 -255.5t-104 -254.5t-254 -103.5t-255 103.5t-105 254.5t105 255.5t255 104.5zM451 694q-143 0 -243.5 -100t-100.5 -245q0 -144 100 -243.5
t244 -99.5t243 99t99 244t-99 245t-243 100z" />
    <glyph glyph-name="uni2464" unicode="&#x2464;" horiz-adv-x="900" 
d="M568 541l-3 -14h-199l-22 -148q43 51 116 51q54 0 91.5 -36t37.5 -94q0 -64 -39.5 -105t-103.5 -41q-55 0 -88 25.5t-46 57.5l14 7q12 -30 42 -53t79 -23q55 0 90.5 37t35.5 94q0 53 -33.5 84.5t-81.5 31.5q-73 0 -117 -56l-15 3l27 179h215zM451 709q150 0 254 -104.5
t104 -255.5t-104 -254.5t-254 -103.5t-255 103.5t-105 254.5t105 255.5t255 104.5zM451 694q-143 0 -243.5 -100t-100.5 -245q0 -144 100 -243.5t244 -99.5t243 99t99 244t-99 245t-243 100z" />
    <glyph glyph-name="uni2465" unicode="&#x2465;" horiz-adv-x="900" 
d="M459 547q79 0 111 -69l-15 -5q-27 61 -96 61q-124 0 -132 -211q7 38 42 65.5t86 27.5q56 0 92 -36t36 -95q0 -57 -36 -94t-96 -37q-62 0 -100.5 39.5t-38.5 107.5q0 123 38 184.5t109 61.5zM452 402q-54 0 -88 -33t-34 -80q0 -52 32.5 -86.5t88.5 -34.5q52 0 83.5 33
t31.5 84q0 52 -31.5 84.5t-82.5 32.5zM451 709q150 0 254 -104.5t104 -255.5t-104 -254.5t-254 -103.5t-255 103.5t-105 254.5t105 255.5t255 104.5zM451 694q-143 0 -243.5 -100t-100.5 -245q0 -144 100 -243.5t244 -99.5t243 99t99 244t-99 245t-243 100z" />
    <glyph glyph-name="uni2466" unicode="&#x2466;" horiz-adv-x="900" 
d="M593 541v-14q-78 -88 -116.5 -173.5t-53.5 -194.5h-19q16 111 55.5 196.5t115.5 171.5h-231v-43h-15v57h264zM451 709q150 0 254 -104.5t104 -255.5t-104 -254.5t-254 -103.5t-255 103.5t-105 254.5t105 255.5t255 104.5zM451 694q-143 0 -243.5 -100t-100.5 -245
q0 -144 100 -243.5t244 -99.5t243 99t99 244t-99 245t-243 100z" />
    <glyph glyph-name="uni2467" unicode="&#x2467;" horiz-adv-x="900" 
d="M450 154q-72 0 -108.5 31.5t-36.5 73.5q0 93 114 109q-94 28 -94 89q0 34 30 62t95 28q64 0 94 -27t30 -63q0 -34 -29 -59t-68 -34q64 -16 91 -39t27 -66q0 -41 -35 -73t-110 -32zM447 374l14 -5q41 10 69.5 33t28.5 55q0 31 -26 54t-83 23q-56 0 -82 -23.5t-26 -53.5
q0 -31 25.5 -50t79.5 -33zM450 168q67 0 98 28t31 63q0 42 -29.5 62t-98.5 37l-13 4q-116 -13 -116 -103q0 -37 32.5 -64t95.5 -27zM451 709q150 0 254 -104.5t104 -255.5t-104 -254.5t-254 -103.5t-255 103.5t-105 254.5t105 255.5t255 104.5zM451 694q-143 0 -243.5 -100
t-100.5 -245q0 -144 100 -243.5t244 -99.5t243 99t99 244t-99 245t-243 100z" />
    <glyph glyph-name="uni2468" unicode="&#x2468;" horiz-adv-x="900" 
d="M437 154q-82 0 -115 67l14 6q29 -59 101 -59q67 0 98 53.5t35 162.5q-8 -36 -41.5 -61.5t-84.5 -25.5q-56 0 -92.5 34.5t-36.5 91.5q0 53 37.5 88.5t97.5 35.5q62 0 98.5 -37t36.5 -101q0 -131 -36 -193t-112 -62zM447 311q53 0 87 32t34 78q0 49 -31.5 81t-86.5 32
q-53 0 -85.5 -31.5t-32.5 -79.5q0 -51 32 -81.5t83 -30.5zM451 709q150 0 254 -104.5t104 -255.5t-104 -254.5t-254 -103.5t-255 103.5t-105 254.5t105 255.5t255 104.5zM451 694q-143 0 -243.5 -100t-100.5 -245q0 -144 100 -243.5t244 -99.5t243 99t99 244t-99 245
t-243 100z" />
    <glyph glyph-name="uni24EA" unicode="&#x24ea;" horiz-adv-x="900" 
d="M451 547q65 0 102.5 -49.5t37.5 -149.5q0 -97 -37.5 -145.5t-102.5 -48.5t-102.5 48.5t-37.5 145.5q0 100 37 149.5t103 49.5zM451 533q-58 0 -91 -45.5t-33 -139.5q0 -90 33 -134.5t91 -44.5q57 0 89.5 44.5t32.5 134.5q0 94 -32 139.5t-90 45.5zM451 709
q150 0 254 -104.5t104 -255.5t-104 -254.5t-254 -103.5t-255 103.5t-105 254.5t105 255.5t255 104.5zM451 694q-143 0 -243.5 -100t-100.5 -245q0 -144 100 -243.5t244 -99.5t243 99t99 244t-99 245t-243 100z" />
    <glyph glyph-name="uni24FF" unicode="&#x24ff;" horiz-adv-x="900" 
d="M451 -9q-150 0 -255 103.5t-105 254.5t105 255.5t255 104.5t254 -104.5t104 -255.5t-104 -254.5t-254 -103.5zM450 155q65 0 102.5 48t37.5 145q0 100 -37 149.5t-103 49.5q-65 0 -102.5 -49.5t-37.5 -149.5q0 -96 37.5 -144.5t102.5 -48.5zM450 169q-58 0 -90.5 44.5
t-32.5 134.5q0 94 32.5 139.5t90.5 45.5q123 0 123 -185q0 -90 -32.5 -134.5t-90.5 -44.5z" />
    <glyph glyph-name="filledbox" unicode="&#x25a0;" 
d="M110 454h380v-379h-380v379z" />
    <glyph glyph-name="uni25A1" unicode="&#x25a1;" 
d="M110 454h380v-379h-380v379zM125 439v-349h350v349h-350z" />
    <glyph glyph-name="uni25B3" unicode="&#x25b3;" horiz-adv-x="900" 
d="M99 0l353 708l349 -708h-702zM126 16h648l-322 656z" />
    <glyph glyph-name="uni25B4" unicode="&#x25b4;" 
d="M299 454l190 -379h-379z" />
    <glyph glyph-name="uni25B8" unicode="&#x25b8;" 
d="M489 264l-379 -189v379z" />
    <glyph glyph-name="uni25BD" unicode="&#x25bd;" horiz-adv-x="900" 
d="M452 -8l-353 708h702zM774 684h-648l326 -656z" />
    <glyph glyph-name="uni25BE" unicode="&#x25be;" 
d="M299 75l-189 379h379z" />
    <glyph glyph-name="uni25C2" unicode="&#x25c2;" 
d="M110 264l379 190v-379z" />
    <glyph glyph-name="uni25C6" unicode="&#x25c6;" 
d="M300 539l260 -273l-260 -278l-260 278z" />
    <glyph glyph-name="uni25C7" unicode="&#x25c7;" 
d="M300 539l261 -273l-261 -278l-260 278zM300 518l-240 -252l240 -257l240 257z" />
    <glyph glyph-name="lozenge" unicode="&#x25ca;" 
d="M310 700l216 -340l-216 -360h-21l-216 359l216 341h21zM300 688l-207 -329l207 -347l208 347z" />
    <glyph glyph-name="circle" unicode="&#x25cb;" 
d="M301 27q-100 0 -170.5 70.5t-70.5 171.5q0 100 70.5 170.5t170.5 70.5t169.5 -70.5t69.5 -170.5q0 -101 -69.5 -171.5t-169.5 -70.5zM301 42q93 0 158 66t65 161q0 94 -65.5 160t-157.5 66q-94 0 -159.5 -66t-65.5 -160q0 -95 65.5 -161t159.5 -66z" />
    <glyph glyph-name="uni25CF" unicode="&#x25cf;" 
d="M301 27q-101 0 -171.5 70.5t-70.5 171.5q0 100 71 170.5t171 70.5t170.5 -70.5t70.5 -170.5t-70.5 -171t-170.5 -71z" />
    <glyph glyph-name="uni2605" unicode="&#x2605;" horiz-adv-x="900" 
d="M611 267l79 -277l-242 177l-242 -177l80 280l-201 195l266 -29l94 277l96 -278l273 29z" />
    <glyph glyph-name="uni2610" unicode="&#x2610;" horiz-adv-x="900" 
d="M100 0v700h700v-700h-700zM116 16h668v668h-668v-668z" />
    <glyph glyph-name="uni2611" unicode="&#x2611;" horiz-adv-x="900" 
d="M100 0v700h700v-700h-700zM116 16h668v668h-668v-668zM574 534h13l-174 -354h-13l-72 150h14l64 -137z" />
    <glyph glyph-name="uni2612" unicode="&#x2612;" horiz-adv-x="900" 
d="M100 0v700h700v-700h-700zM116 16h668v668h-668v-668zM625 562l-159 -207l85 -174h-16l-80 163l-157 -207h-19l170 220l-86 173h16l80 -162l149 194h17z" />
    <glyph glyph-name="uni2620" unicode="&#x2620;" 
d="M300 129q-41 0 -72 10l-33 65q-17 10 -23.5 17t-9.5 21v42q-31 35 -31 102q0 66 48.5 109.5t120.5 43.5t120.5 -43.5t48.5 -109.5q0 -67 -31 -102v-42q-3 -14 -9.5 -21t-23.5 -17l-33 -65q-31 -10 -72 -10zM138 231l-57 28q-30 -19 -49 -19q-11 0 -19 7t-8 20q0 31 36 35
l3 7q-13 11 -13 29q0 13 8.5 21t23.5 8q36 0 41 -58l34 -20v-58zM462 231v58l34 20q5 58 41 58q15 0 23.5 -8t8.5 -21q0 -18 -13 -29l3 -7q36 -4 36 -35q0 -13 -8 -20t-19 -7q-19 0 -49 19zM219 285q17 0 28.5 10.5t11.5 26.5q0 17 -11.5 28t-28.5 11q-16 0 -27.5 -11
t-11.5 -28q0 -16 11.5 -26.5t27.5 -10.5zM381 285q16 0 27.5 10.5t11.5 26.5q0 17 -11.5 28t-27.5 11q-17 0 -28.5 -11t-11.5 -28q0 -16 11.5 -26.5t28.5 -10.5zM265 235v-29q7 0 18 3.5t17 3.5t17 -3.5t18 -3.5v29q-16 45 -35 45t-35 -45zM90 32q-15 0 -23.5 8t-8.5 21
q0 18 13 29l-3 7q-36 4 -36 35q0 13 8 20t19 7q19 0 49 -19l71 38l25 -47l-73 -41q-5 -58 -41 -58zM510 32q-36 0 -41 58l-73 41l25 47l71 -38q30 19 49 19q11 0 19 -7t8 -20q0 -31 -36 -35l-3 -7q13 -11 13 -29q0 -13 -8.5 -21t-23.5 -8z" />
    <glyph glyph-name="smileface" unicode="&#x263a;" 
d="M301 -7q-110 0 -187.5 78.5t-77.5 188.5t77.5 187.5t187.5 77.5q109 0 186 -77.5t77 -187.5t-77 -188.5t-186 -78.5zM301 10q102 0 173.5 73t71.5 177q0 103 -71.5 175.5t-173.5 72.5q-103 0 -175 -72.5t-72 -175.5q0 -104 72 -177t175 -73zM217 305q-16 0 -26 10t-10 25
q0 14 10 24t26 10q15 0 25 -10t10 -24q0 -15 -10 -25t-25 -10zM377 305q-16 0 -26 10t-10 25q0 14 10 24t26 10q15 0 25 -10t10 -24q0 -15 -10 -25t-25 -10zM301 105q-56 0 -95.5 35.5t-45.5 84.5h19q7 -41 39.5 -71t82.5 -30q49 0 81 30t39 71h19q-6 -49 -45 -84.5
t-94 -35.5z" />
    <glyph glyph-name="invsmileface" unicode="&#x263b;" 
d="M301 -7q-110 0 -187.5 78.5t-77.5 188.5t77.5 187.5t187.5 77.5q109 0 186 -77.5t77 -187.5t-77 -188.5t-186 -78.5zM212 311q15 0 25 10t10 25q0 14 -10 23.5t-25 9.5q-16 0 -26 -9.5t-10 -23.5q0 -15 10 -25t26 -10zM387 311q15 0 25 10t10 25q0 14 -10 23.5t-25 9.5
q-16 0 -26 -9.5t-10 -23.5q0 -15 10 -25t26 -10zM300 95q56 0 95 36t46 85h-20q-7 -41 -39.5 -71t-81.5 -30q-50 0 -82 30t-39 71h-20q6 -49 45.5 -85t95.5 -36z" />
    <glyph glyph-name="sun" unicode="&#x263c;" 
d="M309 522v-99q57 -3 101 -41l70 69l12 -12l-70 -70q40 -43 43 -102h97v-17h-97q-1 -59 -43 -104l70 -70l-13 -12l-69 70q-43 -40 -101 -43v-97h-18v98q-56 3 -100 42l-69 -70l-12 12l70 71q-41 43 -43 103h-97v17h97q3 59 43 102l-70 71l12 12l71 -71q41 38 98 41v100h18z
M302 408q-62 0 -105.5 -44t-43.5 -107t43.5 -107t105.5 -44q61 0 104 44t43 107t-43 107t-104 44z" />
    <glyph glyph-name="female" unicode="&#x2640;" 
d="M310 233v-98h105v-17h-105v-118h-18v118h-104v17h104v98q-58 3 -97.5 45t-39.5 101q0 61 42 103t103 42t102.5 -42t41.5 -103q0 -58 -38.5 -100t-95.5 -46zM171 379q0 -55 38 -93t91 -38t91 38t38 93q0 54 -38 92.5t-91 38.5t-91 -38.5t-38 -92.5z" />
    <glyph glyph-name="male" unicode="&#x2642;" 
d="M503 517l29 -227l-15 -2l-27 205l-191 -228q60 -42 60 -118q0 -62 -42.5 -105t-103.5 -43t-103.5 43t-42.5 105q0 61 42 103.5t104 42.5q39 0 71 -18l192 227l-211 -10v14zM342 147q0 55 -37.5 93t-91.5 38q-55 0 -93 -38t-38 -93t38 -93.5t93 -38.5q53 0 91 38.5
t38 93.5z" />
    <glyph glyph-name="spade" unicode="&#x2660;" 
d="M80 0l20 45q97 0 139.5 29.5t42.5 125.5q-39 -64 -114 -64q-45 0 -71.5 26t-26.5 72q0 34 13.5 66t50.5 74.5t67.5 72t98.5 92.5q68 -63 98.5 -92.5t67.5 -72t50.5 -74.5t13.5 -66q0 -46 -26.5 -72t-71.5 -26q-75 0 -114 64q0 -96 42.5 -125.5t139.5 -29.5l20 -45h-440z
" />
    <glyph glyph-name="club" unicode="&#x2663;" 
d="M80 0l20 45q97 0 139.5 29.5t42.5 125.5q-40 -66 -108 -66q-49 0 -81.5 32t-32.5 82q0 48 30 78t77 30q34 0 67 -14q-54 44 -54 99q0 48 33 77t87 29t87 -29t33 -77q0 -55 -54 -99q33 14 67 14q47 0 77 -30t30 -78q0 -50 -32.5 -82t-81.5 -32q-69 0 -108 66
q0 -96 42.5 -125.5t139.5 -29.5l20 -45h-440z" />
    <glyph glyph-name="heart" unicode="&#x2665;" 
d="M434 539q56 0 91 -33.5t35 -90.5q0 -29 -6.5 -55t-27 -57t-34.5 -51t-55 -60t-60.5 -58t-76.5 -70q-140 128 -181 175q-79 92 -79 176q0 57 35 90.5t91 33.5q49 0 79 -23t55 -69q25 46 55 69t79 23z" />
    <glyph glyph-name="diamond" unicode="&#x2666;" 
d="M300 539l220 -273l-220 -278l-220 278z" />
    <glyph glyph-name="musicalnote" unicode="&#x266a;" 
d="M325 517l45 -29q27 -18 39.5 -27t29 -25t23 -33t6.5 -37q0 -28 -12 -55l-11 4q6 22 6 44q0 36 -21.5 60.5t-66.5 53.5l-38 24v-392q0 -53 -28.5 -84.5t-82.5 -31.5q-42 0 -69 19t-27 53q0 37 31 62t81 25q43 0 77 -19v388h18z" />
    <glyph glyph-name="musicalnotedbl" unicode="&#x266b;" 
d="M552 574v-417q0 -55 -29.5 -86.5t-87.5 -31.5q-39 0 -63.5 19.5t-24.5 51.5q0 37 33 62.5t85 25.5q37 0 69 -15v371l-282 -72v-374q0 -54 -28.5 -86.5t-86.5 -32.5q-40 0 -65 19.5t-25 51.5q0 38 33 63.5t83 25.5q41 0 71 -16v359z" />
    <glyph glyph-name="uni2713" unicode="&#x2713;" 
d="M463 564h19l-249 -506h-19l-102 215h19l92 -196z" />
    <glyph glyph-name="uni2717" unicode="&#x2717;" 
d="M535 564l-199 -259l107 -217h-20l-100 203l-197 -259h-23l212 275l-107 217h19l100 -203l187 243h21z" />
    <glyph glyph-name="uni2776" unicode="&#x2776;" horiz-adv-x="900" 
d="M451 -9q-150 0 -255 103.5t-105 254.5t105 255.5t255 104.5t254 -104.5t104 -255.5t-104 -254.5t-254 -103.5zM351 159h215v14h-96v368h-13q-6 -32 -32 -51t-67 -20v-14q73 2 95 49v-332h-102v-14z" />
    <glyph glyph-name="uni2777" unicode="&#x2777;" horiz-adv-x="900" 
d="M451 -9q-150 0 -255 103.5t-105 254.5t105 255.5t255 104.5t254 -104.5t104 -255.5t-104 -254.5t-254 -103.5zM320 159h260v14h-238q104 66 166 137t62 131q0 50 -31.5 78t-87.5 28q-59 0 -92.5 -32t-34.5 -74h16q2 38 30.5 65t80.5 27q48 0 75 -24t27 -69
q0 -112 -233 -267v-14z" />
    <glyph glyph-name="uni2778" unicode="&#x2778;" horiz-adv-x="900" 
d="M451 -9q-150 0 -255 103.5t-105 254.5t105 255.5t255 104.5t254 -104.5t104 -255.5t-104 -254.5t-254 -103.5zM451 155q58 0 97.5 31t39.5 83q0 42 -29.5 68t-72.5 28q41 2 65.5 25.5t24.5 59.5q0 44 -32.5 70.5t-90.5 26.5q-52 0 -85.5 -26t-41.5 -64l16 -2
q9 35 37.5 57t74.5 22q48 0 76.5 -22.5t28.5 -62.5q0 -36 -26 -57.5t-69 -21.5h-42v-12h43q47 0 76.5 -24t29.5 -65q0 -47 -34.5 -73.5t-84.5 -26.5q-48 0 -80 23t-43 60l-16 -3q12 -43 48 -68.5t90 -25.5z" />
    <glyph glyph-name="uni2779" unicode="&#x2779;" horiz-adv-x="900" 
d="M451 -9q-150 0 -255 103.5t-105 254.5t105 255.5t255 104.5t254 -104.5t104 -255.5t-104 -254.5t-254 -103.5zM501 159h16v102h75v14h-75v266h-20l-217 -265v-15h221v-102zM298 275l203 247v-247h-203z" />
    <glyph glyph-name="uni277A" unicode="&#x277a;" horiz-adv-x="900" 
d="M451 -9q-150 0 -255 103.5t-105 254.5t105 255.5t255 104.5t254 -104.5t104 -255.5t-104 -254.5t-254 -103.5zM447 155q63 0 102.5 40.5t39.5 104.5q0 58 -37.5 94t-91.5 36q-72 0 -116 -51l22 148h200l2 14h-216l-25 -179l14 -3q46 57 118 57q47 0 80.5 -32.5
t33.5 -84.5q0 -56 -35 -93t-90 -37q-50 0 -80 22.5t-41 52.5l-15 -6q12 -32 45.5 -57.5t89.5 -25.5z" />
    <glyph glyph-name="uni277B" unicode="&#x277b;" horiz-adv-x="900" 
d="M451 -9q-150 0 -255 103.5t-105 254.5t105 255.5t255 104.5t254 -104.5t104 -255.5t-104 -254.5t-254 -103.5zM450 155q60 0 96 37t36 94q0 59 -35.5 94.5t-91.5 35.5q-52 0 -87 -27.5t-41 -65.5q8 211 132 211q67 0 96 -62l14 6q-31 69 -110 69q-71 0 -109 -61.5
t-38 -184.5q0 -68 38 -107t100 -39zM450 169q-56 0 -88.5 34t-32.5 86q0 47 34 80t88 33q51 0 83 -32t32 -84q0 -51 -32 -84t-84 -33z" />
    <glyph glyph-name="uni277C" unicode="&#x277c;" horiz-adv-x="900" 
d="M451 -9q-150 0 -255 103.5t-105 254.5t105 255.5t255 104.5t254 -104.5t104 -255.5t-104 -254.5t-254 -103.5zM404 160h18q15 109 53.5 194.5t116.5 172.5v14h-264v-57h15v43h231q-75 -86 -114.5 -171t-55.5 -196z" />
    <glyph glyph-name="uni277D" unicode="&#x277d;" horiz-adv-x="900" 
d="M451 -9q-150 0 -255 103.5t-105 254.5t105 255.5t255 104.5t254 -104.5t104 -255.5t-104 -254.5t-254 -103.5zM449 155q76 0 111 31.5t35 72.5q0 43 -27 66t-91 40q39 9 68 33.5t29 59.5t-30.5 62t-94.5 27t-94 -27.5t-30 -61.5q0 -60 94 -90q-114 -14 -114 -109
q0 -41 36.5 -72.5t107.5 -31.5zM460 370l-14 3q-55 15 -80 34t-25 51q0 29 26.5 52.5t82.5 23.5t82 -23t26 -53q0 -32 -28.5 -55.5t-69.5 -32.5zM450 169q-63 0 -95.5 27t-32.5 63q0 90 116 103l13 -3q70 -17 99.5 -37.5t29.5 -62.5q0 -35 -31.5 -62.5t-98.5 -27.5z" />
    <glyph glyph-name="uni277E" unicode="&#x277e;" horiz-adv-x="900" 
d="M451 -9q-150 0 -255 103.5t-105 254.5t105 255.5t255 104.5t254 -104.5t104 -255.5t-104 -254.5t-254 -103.5zM438 155q77 0 112.5 61.5t35.5 193.5q0 64 -37 100.5t-99 36.5q-60 0 -97 -35.5t-37 -88.5q0 -57 36.5 -91.5t92.5 -34.5q50 0 84 25.5t42 61.5
q-4 -108 -35 -161.5t-98 -53.5q-73 0 -101 59l-15 -7q34 -66 116 -66zM447 311q-51 1 -83 31.5t-32 80.5q0 48 32.5 79.5t85.5 31.5q55 0 87 -32t32 -81q0 -46 -34 -78t-88 -32z" />
    <glyph glyph-name="fi" unicode="&#xfb01;" horiz-adv-x="493" 
d="M258 709q60 0 117 -22v-15q-59 22 -116 22q-132 0 -132 -121v-56h272v-517h-18v503h-254v-503h-18v503h-79v14h79v58q0 134 149 134z" />
    <glyph glyph-name="fl" unicode="&#xfb02;" horiz-adv-x="554" 
d="M256 709q56 0 116 -16l18 1v-579q0 -55 17 -79.5t60 -24.5q12 0 46 4v-15q-28 -5 -51 -5q-48 0 -69 29t-21 89v565q-59 16 -114 16q-131 0 -131 -121v-56h170v-14h-170v-503h-18v503h-79v14h79v58q0 134 147 134z" />
    <glyph glyph-name="uniFEFF" unicode="&#xfeff;" horiz-adv-x="0" 
 />
    <glyph glyph-name="u1F310" unicode="&#x1f310;" horiz-adv-x="900" 
d="M450 704q147 0 251 -104t104 -252q0 -147 -104 -251.5t-251 -104.5q-148 0 -252 104.5t-104 251.5q0 148 104 252t252 104zM110 355h155q2 72 24 139q-52 17 -112 58q-64 -86 -67 -197zM636 355h154q-3 109 -66 197q-55 -39 -113 -58q24 -69 25 -139zM265 341h-155
q3 -109 66 -196q55 37 113 58q-22 66 -24 138zM790 341h-154q-1 -69 -25 -138q58 -21 113 -58q63 87 66 196zM442 355v114q-79 2 -140 20q-22 -66 -23 -134h163zM442 341h-163q2 -68 23 -134q61 18 140 20v114zM458 469v-114h163q-2 70 -24 134q-60 -18 -139 -20zM458 341
v-114q79 -2 139 -20q22 64 24 134h-163zM307 195q45 -123 135 -189v209q-77 -2 -135 -20zM442 482v207q-89 -61 -135 -187q58 -18 135 -20zM458 689v-207q75 2 135 19q-44 123 -135 188zM458 215v-208q89 66 135 188q-60 18 -135 20zM716 562q-92 116 -238 128
q85 -67 129 -184q53 19 109 56zM421 690q-145 -12 -237 -128q52 -36 109 -56q42 117 128 184zM479 7q70 6 131.5 39.5t104.5 87.5q-53 37 -108 56q-44 -116 -128 -183zM185 134q43 -54 104.5 -87.5t131.5 -39.5q-85 65 -128 183q-55 -19 -108 -56z" />
    <glyph glyph-name="f_f.alt001" horiz-adv-x="617" 
d="M511 694q-67 0 -91.5 -32.5t-24.5 -88.5v-56h186v-14h-186v-503h-18v503h-250v-503h-18v503h-79v14h79v48q0 135 151 135q67 0 142 -33q32 42 107 42q48 0 92 -20v-14q-47 19 -90 19zM377 517v58q0 50 17 80q-76 31 -134 31q-133 0 -133 -121v-48h250z" />
    <glyph glyph-name="f.alt001" horiz-adv-x="349" 
d="M241 709q48 0 92 -20v-14q-47 19 -90 19q-67 0 -91.5 -32.5t-24.5 -88.5v-56h186v-14h-186v-503h-18v503h-79v14h79v58q0 134 132 134z" />
    <glyph glyph-name="j.alt001" horiz-adv-x="205" 
d="M-15 -168q-20 0 -38 2v14q10 -1 34 -1q112 0 112 125v545h18v-551q0 -70 -36.5 -102t-89.5 -32zM103 703q15 0 15 -14q0 -15 -15 -15t-15 15q0 14 15 14z" />
    <glyph glyph-name="caron.alt001" horiz-adv-x="100" 
d="M119 720l-65 -138h-12l57 138h20z" />
    <glyph glyph-name="j.ss01.alt001" horiz-adv-x="205" 
d="M-15 -168q-20 0 -38 2v14q10 -1 34 -1q112 0 112 125v545h18v-551q0 -70 -36.5 -102t-89.5 -32zM115 700v-24h-25v24h25z" />
    <glyph glyph-name="parenleft.numr" horiz-adv-x="300" 
d="M206 747h11q-83 -113 -83 -242q0 -131 82 -242h-11q-41 52 -63 117.5t-22 124.5q0 58 22.5 124t63.5 118z" />
    <glyph glyph-name="parenright.numr" horiz-adv-x="300" 
d="M103 747h11q41 -52 63.5 -118t22.5 -124q0 -59 -22 -124.5t-63 -117.5h-12q83 111 83 242q0 129 -83 242z" />
    <glyph glyph-name="plus.numr" horiz-adv-x="391" 
d="M191 612v-113h113v-13h-113v-113h-15v113h-113v13h113v113h15z" />
    <glyph glyph-name="zero.numr" horiz-adv-x="400" 
d="M200 707q72 0 113 -54.5t41 -164.5q0 -106 -41 -159.5t-113 -53.5t-113 53.5t-41 159.5q0 110 41 164.5t113 54.5zM200 691q-64 0 -100 -50t-36 -153q0 -98 36 -147.5t100 -49.5q63 0 98.5 49t35.5 148q0 203 -134 203z" />
    <glyph glyph-name="one.numr" horiz-adv-x="400" 
d="M95 280v16h113v364q-25 -52 -105 -54v16q93 2 108 78h15v-404h105v-16h-236z" />
    <glyph glyph-name="two.numr" horiz-adv-x="400" 
d="M201 707q61 0 96 -31.5t35 -85.5q0 -66 -68.5 -144t-182.5 -150h263v-16h-287v15q256 172 256 294q0 49 -29.5 75.5t-82.5 26.5q-57 0 -88.5 -29.5t-33.5 -71.5h-18q2 46 38.5 81.5t101.5 35.5z" />
    <glyph glyph-name="three.numr" horiz-adv-x="400" 
d="M203 707q63 0 99 -29.5t36 -77.5q0 -40 -27 -65.5t-72 -28.5q47 -2 79.5 -31t32.5 -75q0 -57 -43.5 -91t-106.5 -34q-59 0 -99 28t-53 75l17 4q13 -40 48 -65.5t87 -25.5q56 0 93.5 29t37.5 80q0 46 -32.5 72t-83.5 26h-47v14h46q47 0 75.5 23.5t28.5 63.5q0 43 -31 68
t-84 25q-51 0 -82.5 -24t-41.5 -63l-17 3q10 42 46.5 70.5t93.5 28.5z" />
    <glyph glyph-name="four.numr" horiz-adv-x="400" 
d="M289 700v-292h82v-16h-82v-112h-17v112h-244v16l239 292h22zM272 681l-224 -273h224v273z" />
    <glyph glyph-name="five.numr" horiz-adv-x="400" 
d="M329 700l-3 -15h-219l-24 -163q47 56 127 56q59 0 100.5 -39.5t41.5 -103.5q0 -70 -43.5 -115t-113.5 -45q-61 0 -97.5 27.5t-50.5 63.5l16 7q13 -33 46 -58t87 -25q60 0 99 40.5t39 103.5q0 58 -36.5 93t-89.5 35q-79 0 -129 -62l-16 3l29 197h237z" />
    <glyph glyph-name="six.numr" horiz-adv-x="400" 
d="M212 707q87 0 122 -76l-16 -6q-30 67 -106 67q-136 0 -145 -232q8 42 46.5 72.5t94.5 30.5q62 0 101.5 -39.5t39.5 -104.5q0 -63 -40 -103.5t-106 -40.5q-68 0 -110 43t-42 118q0 135 41.5 203t119.5 68zM205 547q-59 0 -97 -36t-38 -88q0 -57 36 -95t97 -38
q58 0 92.5 36.5t34.5 92.5q0 58 -34.5 93t-90.5 35z" />
    <glyph glyph-name="seven.numr" horiz-adv-x="400" 
d="M345 700v-15q-85 -97 -128 -191.5t-59 -213.5h-20q17 122 60.5 216t127.5 189h-255v-48h-16v63h290z" />
    <glyph glyph-name="eight.numr" horiz-adv-x="400" 
d="M199 275q-79 0 -119 34.5t-40 80.5q0 103 125 120q-103 31 -103 98q0 37 33 68t104 31q70 0 103 -30t33 -69q0 -38 -32 -65t-74 -37q71 -19 100.5 -44t29.5 -72q0 -45 -38.5 -80t-121.5 -35zM196 516l15 -5q45 11 76.5 36.5t31.5 60.5q0 34 -29 59t-91 25
q-61 0 -90 -25.5t-29 -58.5q0 -35 28 -55.5t88 -36.5zM199 290q74 0 108 30.5t34 69.5q0 46 -32.5 68.5t-108.5 40.5l-14 4q-128 -14 -128 -113q0 -40 36 -70t105 -30z" />
    <glyph glyph-name="nine.numr" horiz-adv-x="400" 
d="M185 274q-90 0 -127 73l16 7q32 -65 111 -65q74 0 108 59t38 179q-9 -40 -45.5 -68t-92.5 -28q-62 0 -102 37.5t-40 100.5q0 59 41 98t107 39q68 0 108.5 -40.5t40.5 -111.5q0 -145 -39.5 -212.5t-123.5 -67.5zM196 446q59 0 96 35.5t37 85.5q0 54 -35 89t-95 35
q-58 0 -94 -34.5t-36 -87.5q0 -55 35 -89t92 -34z" />
    <glyph glyph-name="equal.numr" horiz-adv-x="391" 
d="M304 552v-13h-241v13h241zM304 438v-13h-241v13h241z" />
    <glyph glyph-name="minus.numr" horiz-adv-x="391" 
d="M304 499v-13h-241v13h241z" />
    <glyph glyph-name="parenleft.dnom" horiz-adv-x="300" 
d="M206 449h11q-83 -113 -83 -242q0 -131 82 -242h-11q-41 52 -63 117.5t-22 124.5q0 58 22.5 124t63.5 118z" />
    <glyph glyph-name="parenright.dnom" horiz-adv-x="300" 
d="M83 449h11q41 -52 63.5 -118t22.5 -124q0 -59 -22 -124.5t-63 -117.5h-12q83 111 83 242q0 129 -83 242z" />
    <glyph glyph-name="plus.dnom" horiz-adv-x="366" 
d="M191 312v-113h113v-13h-113v-113h-15v113h-113v13h113v113h15z" />
    <glyph glyph-name="zero.dnom" horiz-adv-x="400" 
d="M200 427q72 0 113 -54.5t41 -164.5q0 -106 -41 -159.5t-113 -53.5t-113 53.5t-41 159.5q0 110 41 164.5t113 54.5zM200 411q-64 0 -100 -50t-36 -153q0 -98 36 -147.5t100 -49.5q63 0 98.5 49t35.5 148q0 203 -134 203z" />
    <glyph glyph-name="one.dnom" horiz-adv-x="400" 
d="M95 0v16h113v364q-25 -52 -105 -54v16q93 2 108 78h15v-404h105v-16h-236z" />
    <glyph glyph-name="two.dnom" horiz-adv-x="400" 
d="M201 427q61 0 96 -31.5t35 -85.5q0 -66 -68.5 -144t-182.5 -150h263v-16h-287v15q256 172 256 294q0 49 -29.5 75.5t-82.5 26.5q-57 0 -88.5 -29.5t-33.5 -71.5h-18q2 46 38.5 81.5t101.5 35.5z" />
    <glyph glyph-name="three.dnom" horiz-adv-x="400" 
d="M203 427q63 0 99 -29.5t36 -77.5q0 -40 -27 -65.5t-72 -28.5q47 -2 79.5 -31t32.5 -75q0 -57 -43.5 -91t-106.5 -34q-59 0 -99 28t-53 75l17 4q13 -40 48 -65.5t87 -25.5q56 0 93.5 29t37.5 80q0 46 -32.5 72t-83.5 26h-47v14h46q47 0 75.5 23.5t28.5 63.5q0 43 -31 68
t-84 25q-51 0 -82.5 -24t-41.5 -63l-17 3q10 42 46.5 70.5t93.5 28.5z" />
    <glyph glyph-name="four.dnom" horiz-adv-x="400" 
d="M289 420v-292h82v-16h-82v-112h-17v112h-244v16l239 292h22zM272 401l-224 -273h224v273z" />
    <glyph glyph-name="five.dnom" horiz-adv-x="400" 
d="M329 420l-3 -15h-219l-24 -163q47 56 127 56q59 0 100.5 -39.5t41.5 -103.5q0 -70 -43.5 -115t-113.5 -45q-61 0 -97.5 27.5t-50.5 63.5l16 7q13 -33 46 -58t87 -25q60 0 99 40.5t39 103.5q0 58 -36.5 93t-89.5 35q-79 0 -129 -62l-16 3l29 197h237z" />
    <glyph glyph-name="six.dnom" horiz-adv-x="400" 
d="M212 427q87 0 122 -76l-16 -6q-30 67 -106 67q-136 0 -145 -232q8 42 46.5 72.5t94.5 30.5q62 0 101.5 -39.5t39.5 -104.5q0 -63 -40 -103.5t-106 -40.5q-68 0 -110 43t-42 118q0 135 41.5 203t119.5 68zM205 267q-59 0 -97 -36t-38 -88q0 -57 36 -95t97 -38
q58 0 92.5 36.5t34.5 92.5q0 58 -34.5 93t-90.5 35z" />
    <glyph glyph-name="seven.dnom" horiz-adv-x="400" 
d="M345 420v-15q-85 -97 -128 -191.5t-59 -213.5h-20q17 122 60.5 216t127.5 189h-255v-48h-16v63h290z" />
    <glyph glyph-name="eight.dnom" horiz-adv-x="400" 
d="M199 -5q-79 0 -119 34.5t-40 80.5q0 103 125 120q-103 31 -103 98q0 37 33 68t104 31q70 0 103 -30t33 -69q0 -38 -32 -65t-74 -37q71 -19 100.5 -44t29.5 -72q0 -45 -38.5 -80t-121.5 -35zM196 236l15 -5q45 11 76.5 36.5t31.5 60.5q0 34 -29 59t-91 25q-61 0 -90 -25.5
t-29 -58.5q0 -35 28 -55.5t88 -36.5zM199 10q74 0 108 30.5t34 69.5q0 46 -32.5 68.5t-108.5 40.5l-14 4q-128 -14 -128 -113q0 -40 36 -70t105 -30z" />
    <glyph glyph-name="nine.dnom" horiz-adv-x="400" 
d="M185 -5q-90 0 -127 73l16 7q32 -65 111 -65q74 0 108 59t38 179q-9 -40 -45.5 -68t-92.5 -28q-62 0 -102 37.5t-40 100.5q0 59 41 98t107 39q68 0 108.5 -40.5t40.5 -111.5q0 -145 -39.5 -212.5t-123.5 -67.5zM196 167q59 0 96 35.5t37 85.5q0 54 -35 89t-95 35
q-58 0 -94 -34.5t-36 -87.5q0 -55 35 -89t92 -34z" />
    <glyph glyph-name="equal.dnom" horiz-adv-x="391" 
d="M304 252v-13h-241v13h241zM304 138v-13h-241v13h241z" />
    <glyph glyph-name="minus.dnom" horiz-adv-x="366" 
d="M304 199v-13h-241v13h241z" />
    <glyph glyph-name="space.frac" horiz-adv-x="54" 
 />
    <glyph glyph-name="uni0394.osf" horiz-adv-x="587" 
d="M307 700l254 -700h-535l257 700h24zM51 16h484l-240 667z" />
    <glyph glyph-name="numbersign.tf" 
d="M535 479h-89l-37 -258h88v-14h-90l-30 -207h-16l30 207h-203l-30 -207h-16l30 207h-88v14h90l37 258h-90v14h92l30 207h16l-30 -207h203l30 207h16l-30 -207h87v-14zM393 221l37 258h-203l-37 -258h203z" />
    <glyph glyph-name="dollar.tf" 
d="M323 835v-126q67 -1 120 -32t84 -82l-12 -9q-29 48 -79 77.5t-113 31.5v-321q113 -22 160 -66.5t47 -125.5q0 -84 -54 -137t-153 -54v-140h-18v140q-161 2 -235 106l14 10q69 -98 222 -102v358q-105 21 -154 61.5t-49 116.5t53.5 121.5t148.5 46.5v126h18zM305 378v318
q-88 -1 -137 -43.5t-49 -110.5q0 -70 44.5 -107t141.5 -57zM324 359v-354q93 1 141 49.5t48 127.5q0 73 -42.5 114.5t-146.5 62.5z" />
    <glyph glyph-name="zero.tf" 
d="M300 709q108 0 169.5 -89.5t61.5 -274.5q0 -178 -62 -266t-169 -88q-108 0 -169.5 88t-61.5 266q0 185 61.5 274.5t169.5 89.5zM300 694q-100 0 -156.5 -85.5t-56.5 -263.5q0 -171 56.5 -255t156.5 -84q99 0 155 84t56 255q0 178 -56 263.5t-155 85.5z" />
    <glyph glyph-name="one.tf" 
d="M144 0v16h172v634q-16 -43 -57 -68.5t-101 -26.5v16q68 2 109.5 36.5t50.5 92.5h16v-684h162v-16h-352z" />
    <glyph glyph-name="two.tf" 
d="M306 709q92 0 144 -50.5t52 -141.5q0 -109 -106.5 -242.5t-281.5 -258.5h406v-16h-431v15q181 133 287.5 264t106.5 237q0 86 -47 131.5t-131 45.5q-89 0 -139 -51t-52 -118h-19q3 72 58.5 128.5t152.5 56.5z" />
    <glyph glyph-name="three.tf" 
d="M301 709q96 0 149 -48t53 -129q0 -67 -42 -110.5t-111 -46.5q73 -4 123 -52.5t50 -126.5q0 -94 -65 -149.5t-160 -55.5q-89 0 -148.5 46t-79.5 121l17 4q20 -69 74.5 -112.5t136.5 -43.5q87 0 146.5 50.5t59.5 139.5q0 79 -51 125t-131 46h-70v14h69q75 0 119 41t44 110
q0 75 -48.5 118.5t-133.5 43.5q-79 0 -128.5 -41.5t-64.5 -107.5l-18 3q15 70 69.5 115.5t140.5 45.5z" />
    <glyph glyph-name="four.tf" 
d="M428 700v-492h127v-16h-127v-192h-18v192h-373v16l369 492h22zM410 679l-353 -471h353v471z" />
    <glyph glyph-name="five.tf" 
d="M493 700l-3 -16h-337l-38 -286q74 99 200 99q89 0 151 -66t62 -173q0 -118 -65 -192.5t-170 -74.5q-92 0 -146.5 45.5t-75.5 104.5l17 6q20 -56 71 -98.5t135 -42.5q95 0 155.5 71t60.5 181q0 100 -57 161.5t-138 61.5q-125 0 -203 -107l-17 2l43 324h355z" />
    <glyph glyph-name="six.tf" 
d="M320 709q129 0 181 -122l-17 -6q-45 113 -164 113q-213 0 -227 -404q10 69 69 119t148 50q94 0 154 -62.5t60 -169.5q0 -106 -59 -171t-160 -65q-102 0 -164.5 69.5t-62.5 186.5q0 462 242 462zM308 443q-94 0 -153 -59t-59 -146q0 -100 56 -166t153 -66q92 0 146.5 60.5
t54.5 160.5t-55 158t-143 58z" />
    <glyph glyph-name="seven.tf" 
d="M533 701v-15q-131 -165 -197 -325t-91 -360h-20q27 202 93 361.5t195 323.5h-399v-80h-16v95h435z" />
    <glyph glyph-name="eight.tf" 
d="M298 709q104 0 152.5 -48t48.5 -113q0 -68 -49.5 -112t-117.5 -60q103 -30 153 -75.5t50 -122.5q0 -32 -12.5 -63t-38.5 -60t-74 -46.5t-112 -17.5q-115 0 -174 56t-59 130q0 85 51.5 139t143.5 65q-162 44 -162 167q0 61 49 111t151 50zM298 694q-94 0 -138 -45.5
t-44 -101.5q0 -64 45 -102t132 -58l22 -5q69 16 117.5 58.5t48.5 106.5q0 60 -43.5 103.5t-139.5 43.5zM303 369l-21 5q-96 -10 -147.5 -62t-51.5 -135q0 -68 55 -119.5t160 -51.5q112 0 165.5 53.5t53.5 119.5q0 75 -52 117.5t-162 72.5z" />
    <glyph glyph-name="nine.tf" 
d="M299 709q102 0 163 -65t61 -172q0 -249 -59.5 -365t-186.5 -116q-138 0 -191 112l16 7q48 -104 175 -104q115 0 169.5 104t59.5 316q-10 -68 -66.5 -115t-147.5 -47q-95 0 -155 58.5t-60 161.5q0 97 61 161t161 64zM299 694q-91 0 -147.5 -59.5t-56.5 -150.5
q0 -96 55 -150t145 -54q93 0 151.5 58t58.5 143q0 91 -55 152t-151 61z" />
    <glyph glyph-name="cent.tf" 
d="M506 138l16 -6q-56 -136 -204 -141v-140h-16v140q-103 2 -159 77t-56 187q0 116 56.5 190.5t158.5 78.5v144h16v-144q66 -1 118 -32.5t76 -83.5l-15 -6q-23 49 -71 78t-109 30v-504q139 4 189 132zM104 255q0 -106 51.5 -176.5t147.5 -72.5v504q-95 -4 -147 -74t-52 -181
z" />
    <glyph glyph-name="sterling.tf" 
d="M345 709q68 0 109 -37.5t57 -95.5l-17 -5q-33 123 -150 123q-76 0 -120 -49t-44 -123v-176h247v-15h-247v-195q0 -48 -11.5 -74t-46.5 -46h396v-16h-419l-2 15q41 20 53.5 46t12.5 75v195h-84v15h84v177q0 79 47.5 132.5t134.5 53.5z" />
    <glyph glyph-name="yen.tf" 
d="M534 700l-216 -393h165v-12h-170v-143h170v-12h-170v-140h-17v140h-171v12h171v143h-171v12h166l-226 393h19l221 -387l210 387h19z" />
    <glyph glyph-name="uni0394.tf" 
d="M313 700l251 -700h-529l254 700h24zM61 16h477l-238 666z" />
    <glyph glyph-name="uni2007.tf" 
 />
    <glyph glyph-name="figuredash.tf" 
d="M552 350v-16h-504v16h504z" />
    <glyph glyph-name="Euro.tf" horiz-adv-x="594" 
d="M382 709q110 0 173 -87l-5 -16q-64 88 -168 88q-87 0 -148.5 -68.5t-75.5 -199.5h316l-4 -12h-313q-3 -28 -3 -64t3 -64h279l-4 -12h-274q12 -135 70.5 -201.5t139.5 -66.5q104 0 162 72v-19q-57 -68 -162 -68q-87 0 -150 69t-77 214h-71l4 12h65q-1 17 -1 57q0 50 2 71
h-69l4 12h66q16 139 82.5 211t158.5 72z" />
    <glyph glyph-name="dollar.lf" horiz-adv-x="684" 
d="M365 832v-125q75 -1 135 -32.5t94 -82.5l-14 -10q-31 48 -87.5 78t-128.5 31v-316q128 -22 180.5 -67t52.5 -126q0 -85 -60 -138t-172 -54v-139h-18v139q-79 1 -150 27.5t-113 79.5l14 12q40 -50 106.5 -76t143.5 -27v355q-117 20 -172.5 61t-55.5 117t60 121.5t167 46.5
v125h18zM348 378v314q-99 -1 -154 -42.5t-55 -109.5q0 -70 49.5 -106.5t159.5 -55.5zM364 358v-352q104 1 159 49t55 126q0 73 -48 115t-166 62z" />
    <glyph glyph-name="zero.lf" horiz-adv-x="636" 
d="M318 -9q-111 0 -181 88.5t-70 260.5q0 174 70 262.5t181 88.5q110 0 180 -88.5t70 -262.5q0 -172 -70 -260.5t-180 -88.5zM319 6q102 0 166.5 85t64.5 249q0 167 -64.5 251t-166.5 84q-103 0 -168 -84t-65 -251q0 -164 65 -249t168 -85z" />
    <glyph glyph-name="one.lf" horiz-adv-x="503" 
d="M98 0v16h172v618q-16 -43 -57 -68.5t-101 -26.5v16q68 2 109.5 36.5t50.5 92.5h16v-668h162v-16h-352z" />
    <glyph glyph-name="two.lf" horiz-adv-x="611" 
d="M316 693q92 0 145 -53t53 -143q0 -203 -393 -481h410v-16h-435v15q192 138 296 256.5t104 225.5q0 85 -48 133t-132 48q-92 0 -142.5 -54.5t-53.5 -129.5h-18q3 80 58.5 139.5t155.5 59.5z" />
    <glyph glyph-name="three.lf" horiz-adv-x="605" 
d="M313 693q96 0 149.5 -48.5t53.5 -124.5q0 -67 -42.5 -110t-113.5 -47q75 -3 126 -49.5t51 -118.5q0 -94 -66 -149t-163 -55q-92 0 -152 46t-80 123l17 4q20 -71 75 -114.5t140 -43.5q90 0 150.5 50.5t60.5 138.5q0 72 -52.5 116.5t-133.5 44.5h-72v15h70q78 0 122.5 40
t44.5 109q0 70 -49.5 114t-135.5 44q-81 0 -131.5 -43t-66.5 -110l-18 3q16 70 72.5 117.5t143.5 47.5z" />
    <glyph glyph-name="four.lf" horiz-adv-x="635" 
d="M441 684v-476h129v-16h-129v-192h-17v192h-375v16l371 476h21zM424 664l-356 -456h356v456z" />
    <glyph glyph-name="five.lf" horiz-adv-x="612" 
d="M303 -9q-92 0 -147.5 46t-74.5 103l17 6q18 -55 69.5 -97.5t136.5 -42.5q95 0 154.5 68.5t59.5 174.5q0 101 -57 162.5t-137 61.5q-126 0 -204 -110l-16 3l43 318h354l-2 -16h-338l-38 -281q74 102 201 102q89 0 150.5 -66.5t61.5 -173.5q0 -113 -65 -185.5t-168 -72.5z
" />
    <glyph glyph-name="six.lf" horiz-adv-x="543" 
d="M310 693q127 0 179 -125l-16 -5q-47 115 -163 115q-214 0 -229 -396q11 68 71 119t149 51q94 0 154 -61t60 -166q0 -104 -61 -169t-162 -65q-102 0 -164.5 68.5t-62.5 181.5q0 226 63.5 339t181.5 113zM298 437q-90 0 -152.5 -60.5t-62.5 -144.5q0 -96 56.5 -161
t152.5 -65q93 0 149 60.5t56 158.5t-55 155t-144 57z" />
    <glyph glyph-name="seven.lf" horiz-adv-x="502" 
d="M477 684v-16q-131 -166 -197.5 -320.5t-93.5 -347.5h-20q28 197 94.5 350t196.5 318h-381v-79h-16v95h417z" />
    <glyph glyph-name="eight.lf" horiz-adv-x="588" 
d="M292 693q107 0 156 -48t49 -113q0 -67 -50 -108t-119 -57q105 -30 155 -72t50 -118q0 -32 -12.5 -62.5t-39 -59.5t-75.5 -46.5t-114 -17.5q-118 0 -178 56t-60 130q0 83 52 133.5t148 62.5q-85 22 -126 60t-41 99q0 27 10.5 53.5t33 51.5t64.5 40.5t97 15.5zM292 678
q-97 0 -142 -45t-45 -101q0 -61 45.5 -96.5t138.5 -57.5l21 -5q72 17 121.5 56t49.5 103q0 60 -45 103t-144 43zM297 360l-21 6q-99 -10 -151.5 -58.5t-52.5 -130.5q0 -68 56 -119.5t164 -51.5q60 0 105.5 16.5t70 43t36 55t11.5 57.5q0 73 -50 110.5t-168 71.5z" />
    <glyph glyph-name="nine.lf" horiz-adv-x="607" 
d="M301 709q103 0 165 -67t62 -179q0 -246 -60.5 -359t-186.5 -113q-64 0 -116 28t-79 84l15 8q25 -51 73.5 -78t106.5 -27q113 0 169 101.5t62 311.5q-10 -71 -68.5 -122t-149.5 -51q-96 0 -156 60.5t-60 167.5q0 104 61 169.5t162 65.5zM301 694q-92 0 -148.5 -61.5
t-56.5 -158.5q0 -99 55 -156t145 -57q93 0 153.5 62.5t60.5 148.5q0 95 -55.5 158.5t-153.5 63.5z" />
    <glyph glyph-name="cent.lf" horiz-adv-x="624" 
d="M518 138l16 -6q-56 -136 -204 -141v-140h-16v140q-103 2 -159 77t-56 187q0 116 56.5 190.5t158.5 78.5v144h16v-144q66 -1 118 -32.5t76 -83.5l-15 -6q-23 49 -71 78t-109 30v-504q139 4 189 132zM116 255q0 -106 51.5 -176.5t147.5 -72.5v504q-95 -4 -147 -74t-52 -181
z" />
    <glyph glyph-name="sterling.lf" horiz-adv-x="684" 
d="M395 709q71 0 115 -38t61 -95l-18 -6q-14 54 -53.5 89t-105.5 35q-81 0 -128 -49t-47 -123v-179h268v-12h-268v-195q0 -48 -12.5 -73.5t-51.5 -46.5h423v-16h-440l-2 15q41 20 53.5 46t12.5 75v195h-84v12h84v180q0 79 50.5 132.5t142.5 53.5z" />
    <glyph glyph-name="yen.lf" horiz-adv-x="590" 
d="M551 700l-235 -393h165v-12h-172v-143h172v-12h-172v-140h-18v140h-174v12h174v143h-174v12h168l-246 393h20l242 -387l230 387h20z" />
    <glyph glyph-name="uni0394.lf" horiz-adv-x="593" 
d="M295 680l254 -680h-535l257 680h24zM39 16h484l-240 648z" />
    <glyph glyph-name="figuredash.lf" 
d="M552 350v-16h-504v16h504z" />
    <glyph glyph-name="Euro.lf" horiz-adv-x="684" 
d="M408 709q120 0 190 -87l-6 -16q-69 87 -184 87q-95 0 -162.5 -68t-83.5 -199h347l-4 -12h-345q-3 -28 -3 -64t3 -64h307l-4 -12h-302q13 -135 77.5 -201t154.5 -66q116 0 177 72v-20q-63 -68 -177 -68q-45 0 -84.5 15.5t-74.5 48t-58.5 88.5t-31.5 131h-78l4 12h73
q-3 28 -3 64t3 64h-76l4 12h73q17 139 90.5 211t173.5 72z" />
    <glyph glyph-name="dollar.tosf" 
d="M323 835v-126q67 -1 120 -32t84 -82l-12 -9q-29 48 -79 77.5t-113 31.5v-321q113 -22 160 -66.5t47 -125.5q0 -84 -54 -137t-153 -54v-140h-18v140q-161 2 -235 106l14 10q69 -98 222 -102v358q-105 21 -154 61.5t-49 116.5t53.5 121.5t148.5 46.5v126h18zM305 378v318
q-88 -1 -137 -43.5t-49 -110.5q0 -70 44.5 -107t141.5 -57zM324 359v-354q93 1 141 49.5t48 127.5q0 73 -42.5 114.5t-146.5 62.5z" />
    <glyph glyph-name="zero.tosf" 
d="M300 574q107 0 178 -80t71 -214q0 -133 -71 -211t-178 -78t-178 78t-71 211q0 134 71 214t178 80zM300 558q-99 0 -165 -75t-66 -203q0 -126 66 -200t165 -74t164.5 73.5t65.5 200.5q0 128 -66 203t-164 75z" />
    <glyph glyph-name="one.tosf" 
d="M144 0v16h172v498q-16 -43 -57 -68.5t-101 -26.5v16q68 2 109.5 36.5t50.5 92.5h16v-548h162v-16h-352z" />
    <glyph glyph-name="two.tosf" 
d="M305 574q87 0 137.5 -45.5t50.5 -127.5q0 -92 -94.5 -185t-277.5 -200h387v-16h-416v15q192 115 287.5 206t95.5 178q0 77 -46 118t-124 41q-85 0 -136.5 -51t-54.5 -114h-19q3 68 60 124.5t150 56.5z" />
    <glyph glyph-name="three.tosf" 
d="M305 574q96 0 150 -46.5t54 -120.5q0 -69 -42 -113t-112 -47q74 -4 124.5 -52.5t50.5 -126.5q0 -98 -66 -154t-163 -56q-89 0 -150 49t-81 135l18 4q19 -80 73 -126t140 -46q90 0 150 51t60 143q0 79 -51.5 125t-133.5 46h-66v15h64q77 0 122 41t45 112q0 68 -50 110
t-136 42q-81 0 -130.5 -41t-65.5 -107l-17 4q15 68 70.5 113.5t142.5 45.5z" />
    <glyph glyph-name="four.tosf" 
d="M430 564v-548h129v-16h-129v-130h-18v130h-371v16l367 548h22zM412 542l-352 -526h352v526z" />
    <glyph glyph-name="five.tosf" 
d="M498 564l-3 -16h-337l-38 -286q74 99 200 99q89 0 151 -66t62 -173q0 -116 -65.5 -190t-169.5 -74q-92 0 -146.5 46t-75.5 105l17 5q20 -55 71 -97.5t135 -42.5q95 0 155.5 70t60.5 178q0 100 -57 161.5t-138 61.5q-126 0 -203 -107l-17 2l43 324h355z" />
    <glyph glyph-name="six.tosf" 
d="M316 693q127 0 179 -125l-16 -5q-47 115 -163 115q-214 0 -229 -396q11 68 71 119t149 51q94 0 154 -61t60 -166q0 -104 -61 -169t-162 -65q-102 0 -164.5 68.5t-62.5 181.5q0 226 63.5 339t181.5 113zM304 437q-90 0 -152.5 -60.5t-62.5 -144.5q0 -96 56.5 -161
t152.5 -65q93 0 149 60.5t56 158.5t-55 155t-144 57z" />
    <glyph glyph-name="seven.tosf" 
d="M516 565v-15q-131 -170 -199 -328.5t-93 -351.5h-19q24 195 93 352.5t200 327.5h-382v-79h-16v94h416z" />
    <glyph glyph-name="eight.tosf" 
d="M298 693q105 0 151.5 -49t46.5 -115q0 -68 -47 -108.5t-115 -56.5q104 -29 151 -70.5t47 -115.5q0 -32 -11.5 -62.5t-37 -59.5t-73.5 -47t-112 -18q-116 0 -173.5 56t-57.5 130q0 169 193 193q-83 22 -121.5 60t-38.5 99q0 27 10 54t31 52.5t61.5 41.5t95.5 16zM298 678
q-50 0 -87 -14.5t-56 -37.5t-28 -47.5t-9 -49.5q0 -62 42 -96.5t133 -56.5l23 -6q71 17 117.5 56t46.5 103q0 60 -43 104.5t-139 44.5zM303 358l-21 5q-197 -19 -197 -186q0 -68 53.5 -119.5t159.5 -51.5q59 0 103.5 16.5t67.5 43.5t34 55t11 57q0 73 -49.5 112.5
t-161.5 67.5z" />
    <glyph glyph-name="nine.tosf" 
d="M298 574q103 0 165 -66.5t62 -178.5q0 -248 -59 -360t-188 -112q-137 0 -195 114l15 7q54 -106 180 -106q117 0 171 100.5t61 312.5q-11 -71 -69.5 -121.5t-149.5 -50.5q-96 0 -156 60.5t-60 166.5q0 103 61 168.5t162 65.5zM298 559q-92 0 -148.5 -61t-56.5 -158
q0 -99 55 -155t145 -56q93 0 153.5 61.5t60.5 147.5q0 94 -55.5 157.5t-153.5 63.5z" />
    <glyph glyph-name="cent.tosf" 
d="M501 138l16 -6q-56 -136 -204 -141v-140h-16v140q-103 2 -159 77t-56 187q0 116 56.5 190.5t158.5 78.5v144h16v-144q66 -1 118 -32.5t76 -83.5l-15 -6q-23 49 -71 78t-109 30v-504q139 4 189 132zM99 255q0 -106 51.5 -176.5t147.5 -72.5v504q-95 -4 -147 -74t-52 -181z
" />
    <glyph glyph-name="sterling.tosf" 
d="M345 709q68 0 109 -37.5t57 -95.5l-17 -5q-33 123 -150 123q-76 0 -120 -49t-44 -123v-176h247v-15h-247v-195q0 -48 -11.5 -74t-46.5 -46h396v-16h-419l-2 15q41 20 53.5 46t12.5 75v195h-84v15h84v177q0 79 47.5 132.5t134.5 53.5z" />
    <glyph glyph-name="yen.tosf" 
d="M534 700l-216 -393h165v-12h-170v-143h170v-12h-170v-140h-17v140h-171v12h171v143h-171v12h166l-226 393h19l221 -387l210 387h19z" />
    <glyph glyph-name="uni0394.tosf" 
d="M313 680l251 -680h-529l254 680h24zM61 16h477l-238 647z" />
    <glyph glyph-name="uni2007.tosf" 
 />
    <glyph glyph-name="figuredash.tosf" 
d="M552 310v-16h-504v16h504z" />
    <glyph glyph-name="Euro.tosf" 
d="M385 709q110 0 173 -87l-5 -16q-64 88 -168 88q-87 0 -148.5 -68.5t-75.5 -199.5h316l-4 -12h-313q-3 -28 -3 -64t3 -64h279l-4 -12h-274q12 -135 70.5 -201.5t139.5 -66.5q104 0 162 72v-19q-57 -68 -162 -68q-87 0 -150 69t-77 214h-71l4 12h65q-1 17 -1 57q0 50 2 71
h-69l4 12h66q16 139 82.5 211t158.5 72z" />
    <glyph glyph-name="numbersign.sc" 
d="M520 373h-89l-25 -172h88v-14h-90l-27 -187h-16l27 187h-203l-27 -187h-16l27 187h-88v14h90l25 172h-89v14h91l27 187h16l-27 -187h203l27 187h16l-27 -187h87v-14zM390 201l25 172h-203l-25 -172h203z" />
    <glyph glyph-name="dollar.sc" horiz-adv-x="526" 
d="M286 672v-100q67 -2 119 -27t82 -66l-14 -10q-28 38 -76.5 62t-111.5 25v-252q112 -18 158.5 -54.5t46.5 -101.5q0 -69 -53 -112t-151 -44v-111h-18v111q-159 4 -231 88l14 11q35 -40 93 -60.5t125 -22.5v282q-102 16 -151 50t-49 95t52.5 98.5t146.5 38.5v100h18z
M268 307v250q-86 -1 -133.5 -34t-47.5 -87q0 -55 43 -84.5t138 -44.5zM285 287v-279q90 1 138 39t48 100q0 58 -41.5 91t-144.5 49z" />
    <glyph glyph-name="percent.sc" horiz-adv-x="1012" 
d="M693 586l-357 -597h-16l357 597h16zM240 584q69 0 119.5 -52.5t50.5 -140.5q0 -91 -50.5 -143.5t-119.5 -52.5q-70 0 -120.5 52.5t-50.5 143.5q0 88 51 140.5t120 52.5zM241 571q-65 0 -110.5 -48.5t-45.5 -131.5q0 -85 45.5 -134t110.5 -49q64 0 109 49t45 134
q0 83 -45.5 131.5t-108.5 48.5zM773 380q69 0 119.5 -52t50.5 -141q0 -91 -50.5 -143.5t-119.5 -52.5q-70 0 -120.5 52.5t-50.5 143.5q0 89 51 141t120 52zM772 367q-65 0 -110 -48.5t-45 -131.5q0 -85 45.5 -134t109.5 -49t109.5 49t45.5 134q0 83 -45.5 131.5t-109.5 48.5
z" />
    <glyph glyph-name="a.sc" horiz-adv-x="531" 
d="M482 0l-52 133h-329l-53 -133h-19l226 564h23l224 -564h-20zM266 548l-159 -399h317z" />
    <glyph glyph-name="b.sc" horiz-adv-x="570" 
d="M365 305q71 -4 113 -45t42 -101q0 -71 -55.5 -115t-156.5 -44h-209v564h185q99 0 150 -34.5t51 -98.5q0 -53 -33.5 -86t-86.5 -40zM285 548h-169v-237h216q59 0 96.5 33.5t37.5 86.5q0 57 -46 87t-135 30zM116 16h193q90 0 140.5 39.5t50.5 103.5q0 62 -44.5 99.5
t-120.5 37.5h-219v-280z" />
    <glyph glyph-name="c.sc" horiz-adv-x="632" 
d="M326 572q74 0 137.5 -36t96.5 -116l-18 -5q-31 73 -89 106.5t-127 33.5q-101 0 -169.5 -70t-68.5 -202q0 -72 20.5 -126.5t55 -86t75.5 -46.5t86 -15q79 0 139 37.5t89 113.5l18 -5q-31 -83 -97 -123t-149 -40q-46 0 -89 15t-81.5 47t-62 91t-23.5 138q0 142 74.5 215.5
t182.5 73.5z" />
    <glyph glyph-name="d.sc" horiz-adv-x="624" 
d="M99 564h157q134 0 216.5 -69t82.5 -205q0 -80 -24 -139t-65 -90.5t-87 -46t-99 -14.5h-181v564zM256 548h-139v-531h163q49 0 92 13t81.5 42.5t61 85t22.5 132.5q0 126 -76.5 192t-204.5 66z" />
    <glyph glyph-name="e.sc" horiz-adv-x="512" 
d="M435 564v-16h-318v-252h300v-16h-300v-264h326v-16h-344v564h336z" />
    <glyph glyph-name="f.sc" horiz-adv-x="481" 
d="M427 564v-16h-310v-261h289v-17h-289v-270h-18v564h328z" />
    <glyph glyph-name="g.sc" horiz-adv-x="656" 
d="M325 572q167 0 231 -140l-17 -7q-58 131 -214 131q-100 0 -168.5 -72t-68.5 -205q0 -137 68.5 -204t166.5 -67q42 0 80.5 13t72 40.5t53.5 76t20 113.5v8h-196v16h214v-275h-18v157q-18 -81 -82 -123t-145 -42q-47 0 -89.5 15t-80.5 47t-60.5 90t-22.5 135
q0 142 75.5 217.5t180.5 75.5z" />
    <glyph glyph-name="h.sc" horiz-adv-x="619" 
d="M520 564v-564h-18v287h-385v-287h-18v564h18v-261h385v261h18z" />
    <glyph glyph-name="i.sc" horiz-adv-x="294" 
d="M255 564v-16h-99v-532h99v-16h-216v16h99v532h-99v16h216z" />
    <glyph glyph-name="j.sc" horiz-adv-x="354" 
d="M270 564v-425q0 -70 -33 -106.5t-110 -36.5q-41 0 -89 8v16q42 -6 81 -6q72 0 102 31t30 96v423h19z" />
    <glyph glyph-name="k.sc" horiz-adv-x="547" 
d="M489 0l-263 312l-109 -114v-198h-18v564h18v-342l325 342h22l-227 -238l274 -326h-22z" />
    <glyph glyph-name="l.sc" horiz-adv-x="476" 
d="M117 564v-547h316v-17h-334v564h18z" />
    <glyph glyph-name="m.sc" horiz-adv-x="716" 
d="M565 564l88 -564h-18l-85 548l-177 -548h-21l-189 548l-81 -548h-18l83 564h29l186 -544l175 544h28z" />
    <glyph glyph-name="n.sc" horiz-adv-x="625" 
d="M526 564v-564h-20l-390 534v-534h-17v564h19l390 -536v536h18z" />
    <glyph glyph-name="o.sc" horiz-adv-x="668" 
d="M334 572q47 0 91.5 -15.5t84.5 -48t64.5 -91t24.5 -136.5q0 -142 -78 -215.5t-187 -73.5q-47 0 -91.5 15.5t-84.5 48t-64.5 91.5t-24.5 136q0 142 78 215.5t187 73.5zM334 556q-103 0 -174.5 -70.5t-71.5 -202.5q0 -71 21.5 -125.5t58 -86t78.5 -47.5t88 -16
q103 0 174.5 70.5t71.5 202.5q0 71 -21.5 125.5t-58 86t-78.5 47.5t-88 16z" />
    <glyph glyph-name="p.sc" horiz-adv-x="551" 
d="M99 564h183q112 0 163.5 -44.5t51.5 -118.5q0 -80 -53 -127t-159 -47h-168v-227h-18v564zM117 243h169q95 0 143.5 42t48.5 116q0 68 -47 107.5t-147 39.5h-167v-305z" />
    <glyph glyph-name="q.sc" horiz-adv-x="695" 
d="M334 572q47 0 91.5 -15.5t84.5 -48t64.5 -91t24.5 -136.5q0 -176 -123 -249q49 -54 150 -80l-8 -18q-108 29 -156 89q-58 -31 -128 -31q-47 0 -91.5 15.5t-84.5 48t-64.5 91.5t-24.5 136q0 142 78 215.5t187 73.5zM334 555q-103 0 -174.5 -70t-71.5 -202
q0 -71 21.5 -125.5t58 -86t78.5 -47t88 -15.5q103 0 174.5 70t71.5 202q0 71 -21.5 125.5t-58 86t-78.5 47t-88 15.5z" />
    <glyph glyph-name="r.sc" horiz-adv-x="544" 
d="M99 564h172q107 0 160.5 -41t53.5 -113q0 -61 -42.5 -105t-126.5 -48l185 -257h-22l-183 255h-179v-255h-18v564zM273 548h-156v-278h180q84 0 127 40t43 100q0 66 -48.5 102t-145.5 36z" />
    <glyph glyph-name="s.sc" horiz-adv-x="544" 
d="M272 572q141 0 214 -94l-15 -10q-70 88 -199 88q-88 0 -137 -33t-49 -88q0 -56 46 -85t150 -44q112 -17 159.5 -54.5t47.5 -103.5q0 -70 -56 -113t-163 -43q-69 0 -133.5 22t-101.5 66l14 11q36 -41 95.5 -62t126.5 -21q96 0 147.5 38t51.5 101q0 60 -44.5 93.5
t-154.5 49.5q-104 16 -153.5 49.5t-49.5 95.5t54 99.5t150 37.5z" />
    <glyph glyph-name="t.sc" horiz-adv-x="517" 
d="M477 564v-16h-210v-548h-18v548h-209v16h437z" />
    <glyph glyph-name="u.sc" horiz-adv-x="593" 
d="M509 564v-368q0 -84 -53 -144t-160 -60q-56 0 -98.5 17.5t-66 47.5t-34.5 65t-11 74v368h18v-368q0 -81 47.5 -134.5t145.5 -53.5q96 0 144.5 54t48.5 134v368h19z" />
    <glyph glyph-name="v.sc" horiz-adv-x="485" 
d="M457 564l-198 -564h-24l-206 564h20l198 -546l191 546h19z" />
    <glyph glyph-name="w.sc" horiz-adv-x="764" 
d="M695 564l-153 -564h-22l-154 540l-146 -540h-22l-164 564h19l155 -545l147 545h21l155 -544l146 544h18z" />
    <glyph glyph-name="x.sc" horiz-adv-x="520" 
d="M271 305l220 -305h-22l-210 291l-209 -291h-21l219 304l-190 260h21l181 -246l179 246h21z" />
    <glyph glyph-name="y.sc" horiz-adv-x="519" 
d="M486 564l-213 -327v-237h-19v237l-221 327h20l211 -311l202 311h20z" />
    <glyph glyph-name="z.sc" horiz-adv-x="534" 
d="M473 564v-15l-404 -532h411v-17h-435v15l405 533h-378v16h401z" />
    <glyph glyph-name="cent.sc" 
d="M527 160l17 -5q-30 -81 -91 -121t-141 -42v-141h-18v141q-45 2 -85 18t-76 48.5t-57 90t-21 133.5q0 139 68.5 212.5t170.5 77.5v146h18v-146q162 -4 222 -149l-17 -5q-58 135 -206 137v-546q161 3 216 151zM74 282q0 -135 64 -202.5t157 -70.5v546q-97 -4 -159 -74
t-62 -199z" />
    <glyph glyph-name="sterling.sc" horiz-adv-x="605" 
d="M350 572q63 0 102 -30.5t53 -77.5l-16 -5q-31 98 -140 98q-70 0 -111 -39t-41 -97v-141h234v-14h-234v-154q0 -38 -10 -59t-40 -37h364v-16h-387l-2 15q36 16 47 37t11 60v154h-74v14h74v142q0 63 44.5 106.5t125.5 43.5z" />
    <glyph glyph-name="yen.sc" horiz-adv-x="506" 
d="M480 564l-207 -314h145v-12h-151v-112h151v-12h-151v-114h-18v114h-153v12h153v112h-153v12h146l-215 314h20l211 -308l202 308h20z" />
    <glyph glyph-name="section.sc" horiz-adv-x="620" 
d="M337 571q93 0 163 -55l-11 -11q-66 51 -152 51q-71 0 -111 -29t-40 -75t33.5 -70.5t118.5 -37.5q96 -16 143.5 -48t47.5 -90q0 -37 -24.5 -66.5t-73.5 -63.5q62 -30 62 -94q0 -53 -45 -87t-122 -34q-109 0 -183 62l11 11q70 -58 172 -58q71 0 110 29t39 76q0 46 -33 69.5
t-119 37.5q-96 16 -144 48t-48 90q0 38 24.5 68.5t76.5 61.5q-64 29 -64 94q0 53 45.5 87t123.5 34zM245 350q-51 -30 -74 -58.5t-23 -64.5q0 -51 45.5 -80t137.5 -44q54 -9 86 -21q47 32 70.5 60t23.5 63q0 51 -45 80t-137 44q-49 7 -84 21z" />
    <glyph glyph-name="degree.sc" horiz-adv-x="494" 
d="M247 639q69 0 117.5 -45t48.5 -122q0 -76 -48.5 -121t-117.5 -45t-117.5 45.5t-48.5 121.5q0 77 48.5 121.5t117.5 44.5zM248 626q-62 0 -106 -41t-44 -112t44 -112t106 -41t105 40.5t43 111.5t-43 112.5t-105 41.5z" />
    <glyph glyph-name="germandbls.sc" horiz-adv-x="1094" 
d="M272 572q141 0 214 -94l-15 -10q-70 88 -199 88q-88 0 -137 -33t-49 -88q0 -56 46 -85t150 -44q112 -17 159.5 -54.5t47.5 -103.5q0 -70 -56 -113t-163 -43q-69 0 -133.5 22t-101.5 66l14 11q36 -41 95.5 -62t126.5 -21q96 0 147.5 38t51.5 101q0 60 -44.5 93.5
t-154.5 49.5q-104 16 -153.5 49.5t-49.5 95.5t54 99.5t150 37.5zM822 572q141 0 214 -94l-15 -10q-70 88 -199 88q-88 0 -137 -33t-49 -88q0 -56 46 -85t150 -44q112 -17 159.5 -54.5t47.5 -103.5q0 -70 -56 -113t-163 -43q-69 0 -133.5 22t-101.5 66l14 11q36 -41 95.5 -62
t126.5 -21q96 0 147.5 38t51.5 101q0 60 -44.5 93.5t-154.5 49.5q-104 16 -153.5 49.5t-49.5 95.5t54 99.5t150 37.5z" />
    <glyph glyph-name="agrave.sc" horiz-adv-x="531" 
d="M482 0l-52 133h-329l-53 -133h-19l226 564h23l224 -564h-20zM266 548l-159 -399h317zM179 767l103 -127h-15l-112 127h24z" />
    <glyph glyph-name="aacute.sc" horiz-adv-x="531" 
d="M482 0l-52 133h-329l-53 -133h-19l226 564h23l224 -564h-20zM266 548l-159 -399h317zM374 767l-111 -127h-16l105 127h22z" />
    <glyph glyph-name="acircumflex.sc" horiz-adv-x="531" 
d="M482 0l-52 133h-329l-53 -133h-19l226 564h23l224 -564h-20zM266 548l-159 -399h317zM274 770l128 -119h-17l-120 106l-120 -106h-17l128 119h18z" />
    <glyph glyph-name="atilde.sc" horiz-adv-x="531" 
d="M482 0l-52 133h-329l-53 -133h-19l226 564h23l224 -564h-20zM266 548l-159 -399h317zM202 741q35 0 65.5 -27.5t60.5 -27.5q44 0 67 52h14q-24 -66 -82 -66q-35 0 -66 28t-61 28q-42 0 -67 -54h-14q23 67 83 67z" />
    <glyph glyph-name="adieresis.sc" horiz-adv-x="531" 
d="M482 0l-52 133h-329l-53 -133h-19l226 564h23l224 -564h-20zM266 548l-159 -399h317zM158 720q15 0 15 -15q0 -14 -15 -14q-14 0 -14 14q0 15 14 15zM372 720q15 0 15 -15q0 -14 -15 -14q-14 0 -14 14q0 15 14 15z" />
    <glyph glyph-name="aring.sc" horiz-adv-x="531" 
d="M482 0l-52 133h-329l-53 -133h-19l226 564h23l224 -564h-20zM266 548l-159 -399h317zM265 856q46 0 80 -32t34 -80q0 -47 -33.5 -77t-80.5 -30q-46 0 -80 30t-34 77q0 48 34 80t80 32zM265 842q-40 0 -69.5 -28t-29.5 -70q0 -41 29.5 -67.5t69.5 -26.5t69.5 26.5
t29.5 67.5q0 42 -29.5 70t-69.5 28z" />
    <glyph glyph-name="ae.sc" horiz-adv-x="854" 
d="M755 564v-16h-358l41 -252h307v-16h-304l43 -264h321v-17h-338l-21 133h-324l-83 -132h-20l352 564h384zM380 547l-250 -399h313z" />
    <glyph glyph-name="ccedilla.sc" horiz-adv-x="632" 
d="M326 572q74 0 137.5 -36t96.5 -116l-18 -5q-31 73 -89 106.5t-127 33.5q-101 0 -169.5 -70t-68.5 -202q0 -72 20.5 -126.5t55 -86t75.5 -46.5t86 -15q79 0 139 37.5t89 113.5l18 -5q-31 -82 -96 -122t-146 -41l-2 -53q112 -5 112 -77q0 -36 -30 -58t-83 -22q-57 0 -94 24
l8 12q34 -23 87 -23q44 0 70 18t26 49q0 34 -27.5 49t-83.5 17l5 64q-46 2 -87.5 18t-79 48t-59.5 90t-22 135q0 142 74.5 215.5t182.5 73.5z" />
    <glyph glyph-name="egrave.sc" horiz-adv-x="512" 
d="M435 564v-16h-318v-252h300v-16h-300v-264h326v-16h-344v564h336zM191 767l103 -127h-15l-112 127h24z" />
    <glyph glyph-name="eacute.sc" horiz-adv-x="512" 
d="M435 564v-16h-318v-252h300v-16h-300v-264h326v-16h-344v564h336zM386 767l-111 -127h-16l105 127h22z" />
    <glyph glyph-name="ecircumflex.sc" horiz-adv-x="512" 
d="M435 564v-16h-318v-252h300v-16h-300v-264h326v-16h-344v564h336zM286 770l128 -119h-17l-120 106l-120 -106h-17l128 119h18z" />
    <glyph glyph-name="edieresis.sc" horiz-adv-x="512" 
d="M435 564v-16h-318v-252h300v-16h-300v-264h326v-16h-344v564h336zM170 720q15 0 15 -15q0 -14 -15 -14q-14 0 -14 14q0 15 14 15zM384 720q15 0 15 -15q0 -14 -15 -14q-14 0 -14 14q0 15 14 15z" />
    <glyph glyph-name="igrave.sc" horiz-adv-x="294" 
d="M255 564v-16h-99v-532h99v-16h-216v16h99v532h-99v16h216zM61 767l103 -127h-15l-112 127h24z" />
    <glyph glyph-name="iacute.sc" horiz-adv-x="294" 
d="M255 564v-16h-99v-532h99v-16h-216v16h99v532h-99v16h216zM256 767l-111 -127h-16l105 127h22z" />
    <glyph glyph-name="icircumflex.sc" horiz-adv-x="294" 
d="M255 564v-16h-99v-532h99v-16h-216v16h99v532h-99v16h216zM156 770l128 -119h-17l-120 106l-120 -106h-17l128 119h18z" />
    <glyph glyph-name="idieresis.sc" horiz-adv-x="294" 
d="M255 564v-16h-99v-532h99v-16h-216v16h99v532h-99v16h216zM40 720q15 0 15 -15q0 -14 -15 -14q-14 0 -14 14q0 15 14 15zM254 720q15 0 15 -15q0 -14 -15 -14q-14 0 -14 14q0 15 14 15z" />
    <glyph glyph-name="eth.sc" horiz-adv-x="652" 
d="M127 564h157q134 0 216.5 -69t82.5 -205q0 -80 -24 -139t-65 -90.5t-87 -46t-99 -14.5h-181v287h-96v16h96v261zM145 17h163q49 0 92 13t81.5 42.5t61 85t22.5 132.5q0 126 -76.5 192t-204.5 66h-139v-245h196v-16h-196v-270z" />
    <glyph glyph-name="ntilde.sc" horiz-adv-x="625" 
d="M526 564v-564h-20l-390 534v-534h-17v564h19l390 -536v536h18zM250 741q35 0 65.5 -27.5t60.5 -27.5q44 0 67 52h14q-24 -66 -82 -66q-35 0 -66 28t-61 28q-42 0 -67 -54h-14q23 67 83 67z" />
    <glyph glyph-name="ograve.sc" horiz-adv-x="668" 
d="M334 572q47 0 91.5 -15.5t84.5 -48t64.5 -91t24.5 -136.5q0 -142 -78 -215.5t-187 -73.5q-47 0 -91.5 15.5t-84.5 48t-64.5 91.5t-24.5 136q0 142 78 215.5t187 73.5zM334 556q-103 0 -174.5 -70.5t-71.5 -202.5q0 -71 21.5 -125.5t58 -86t78.5 -47.5t88 -16
q103 0 174.5 70.5t71.5 202.5q0 71 -21.5 125.5t-58 86t-78.5 47.5t-88 16zM248 767l103 -127h-15l-112 127h24z" />
    <glyph glyph-name="oacute.sc" horiz-adv-x="668" 
d="M334 572q47 0 91.5 -15.5t84.5 -48t64.5 -91t24.5 -136.5q0 -142 -78 -215.5t-187 -73.5q-47 0 -91.5 15.5t-84.5 48t-64.5 91.5t-24.5 136q0 142 78 215.5t187 73.5zM334 556q-103 0 -174.5 -70.5t-71.5 -202.5q0 -71 21.5 -125.5t58 -86t78.5 -47.5t88 -16
q103 0 174.5 70.5t71.5 202.5q0 71 -21.5 125.5t-58 86t-78.5 47.5t-88 16zM443 767l-111 -127h-16l105 127h22z" />
    <glyph glyph-name="ocircumflex.sc" horiz-adv-x="668" 
d="M334 572q47 0 91.5 -15.5t84.5 -48t64.5 -91t24.5 -136.5q0 -142 -78 -215.5t-187 -73.5q-47 0 -91.5 15.5t-84.5 48t-64.5 91.5t-24.5 136q0 142 78 215.5t187 73.5zM334 556q-103 0 -174.5 -70.5t-71.5 -202.5q0 -71 21.5 -125.5t58 -86t78.5 -47.5t88 -16
q103 0 174.5 70.5t71.5 202.5q0 71 -21.5 125.5t-58 86t-78.5 47.5t-88 16zM343 770l128 -119h-17l-120 106l-120 -106h-17l128 119h18z" />
    <glyph glyph-name="otilde.sc" horiz-adv-x="668" 
d="M334 572q47 0 91.5 -15.5t84.5 -48t64.5 -91t24.5 -136.5q0 -142 -78 -215.5t-187 -73.5q-47 0 -91.5 15.5t-84.5 48t-64.5 91.5t-24.5 136q0 142 78 215.5t187 73.5zM334 556q-103 0 -174.5 -70.5t-71.5 -202.5q0 -71 21.5 -125.5t58 -86t78.5 -47.5t88 -16
q103 0 174.5 70.5t71.5 202.5q0 71 -21.5 125.5t-58 86t-78.5 47.5t-88 16zM271 741q35 0 65.5 -27.5t60.5 -27.5q44 0 67 52h14q-24 -66 -82 -66q-35 0 -66 28t-61 28q-42 0 -67 -54h-14q23 67 83 67z" />
    <glyph glyph-name="odieresis.sc" horiz-adv-x="668" 
d="M334 572q47 0 91.5 -15.5t84.5 -48t64.5 -91t24.5 -136.5q0 -142 -78 -215.5t-187 -73.5q-47 0 -91.5 15.5t-84.5 48t-64.5 91.5t-24.5 136q0 142 78 215.5t187 73.5zM334 556q-103 0 -174.5 -70.5t-71.5 -202.5q0 -71 21.5 -125.5t58 -86t78.5 -47.5t88 -16
q103 0 174.5 70.5t71.5 202.5q0 71 -21.5 125.5t-58 86t-78.5 47.5t-88 16zM227 720q15 0 15 -15q0 -14 -15 -14q-14 0 -14 14q0 15 14 15zM441 720q15 0 15 -15q0 -14 -15 -14q-14 0 -14 14q0 15 14 15z" />
    <glyph glyph-name="oslash.sc" horiz-adv-x="668" 
d="M580 612l-70 -103q89 -77 89 -228q0 -142 -78 -215.5t-187 -73.5q-86 0 -151 45l-75 -110h-19l81 119q-101 78 -101 237q0 73 22.5 130.5t60.5 91.5t84.5 51t97.5 17q93 0 163 -54l64 93h19zM335 556q-104 0 -175.5 -70t-71.5 -203q0 -149 92 -222l308 443
q-65 52 -153 52zM499 494l-307 -442q62 -43 142 -43q103 0 174.5 70t71.5 202q0 139 -81 213z" />
    <glyph glyph-name="ugrave.sc" horiz-adv-x="593" 
d="M509 564v-368q0 -84 -53 -144t-160 -60q-56 0 -98.5 17.5t-66 47.5t-34.5 65t-11 74v368h18v-368q0 -81 47.5 -134.5t145.5 -53.5q96 0 144.5 54t48.5 134v368h19zM211 767l103 -127h-15l-112 127h24z" />
    <glyph glyph-name="uacute.sc" horiz-adv-x="593" 
d="M509 564v-368q0 -84 -53 -144t-160 -60q-56 0 -98.5 17.5t-66 47.5t-34.5 65t-11 74v368h18v-368q0 -81 47.5 -134.5t145.5 -53.5q96 0 144.5 54t48.5 134v368h19zM406 767l-111 -127h-16l105 127h22z" />
    <glyph glyph-name="ucircumflex.sc" horiz-adv-x="593" 
d="M509 564v-368q0 -84 -53 -144t-160 -60q-56 0 -98.5 17.5t-66 47.5t-34.5 65t-11 74v368h18v-368q0 -81 47.5 -134.5t145.5 -53.5q96 0 144.5 54t48.5 134v368h19zM306 770l128 -119h-17l-120 106l-120 -106h-17l128 119h18z" />
    <glyph glyph-name="udieresis.sc" horiz-adv-x="593" 
d="M509 564v-368q0 -84 -53 -144t-160 -60q-56 0 -98.5 17.5t-66 47.5t-34.5 65t-11 74v368h18v-368q0 -81 47.5 -134.5t145.5 -53.5q96 0 144.5 54t48.5 134v368h19zM190 720q15 0 15 -15q0 -14 -15 -14q-14 0 -14 14q0 15 14 15zM404 720q15 0 15 -15q0 -14 -15 -14
q-14 0 -14 14q0 15 14 15z" />
    <glyph glyph-name="yacute.sc" horiz-adv-x="519" 
d="M486 564l-213 -327v-237h-19v237l-221 327h20l211 -311l202 311h20zM371 767l-111 -127h-16l105 127h22z" />
    <glyph glyph-name="thorn.sc" horiz-adv-x="551" 
d="M117 564v-108h165q111 0 163 -46t52 -121q0 -79 -53 -126t-159 -47h-168v-116h-18v564h18zM284 440h-167v-308h169q95 0 143.5 41.5t48.5 115.5q0 69 -47 110t-147 41z" />
    <glyph glyph-name="ydieresis.sc" horiz-adv-x="519" 
d="M486 564l-213 -327v-237h-19v237l-221 327h20l211 -311l202 311h20zM155 720q15 0 15 -15q0 -14 -15 -14q-14 0 -14 14q0 15 14 15zM369 720q15 0 15 -15q0 -14 -15 -14q-14 0 -14 14q0 15 14 15z" />
    <glyph glyph-name="dotlessi.sc" horiz-adv-x="294" 
d="M255 564v-16h-99v-532h99v-16h-216v16h99v532h-99v16h216z" />
    <glyph glyph-name="ij.sc" horiz-adv-x="654" 
d="M255 564v-16h-99v-532h99v-16h-216v16h99v532h-99v16h216zM570 564v-425q0 -70 -33 -106.5t-110 -36.5q-41 0 -89 8v16q42 -6 81 -6q72 0 102 31t30 96v423h19z" />
    <glyph glyph-name="lslash.sc" horiz-adv-x="509" 
d="M138 17h316v-17h-334v285l-89 -45v18l89 45v261h18v-252l172 86v-18l-172 -86v-277z" />
    <glyph glyph-name="oe.sc" horiz-adv-x="819" 
d="M330 572q43 0 92 -8h320v-16h-302v-252h283v-16h-283v-264h310v-16h-328q-47 -8 -93 -8q-45 0 -88.5 15.5t-83 48t-64 91.5t-24.5 136q0 73 22.5 130t60.5 91t83 51t95 17zM330 556q-100 0 -171 -70.5t-71 -202.5q0 -136 72.5 -205.5t168.5 -69.5q42 0 93 9v530
q-49 9 -92 9z" />
    <glyph glyph-name="scaron.sc" horiz-adv-x="544" 
d="M272 572q141 0 214 -94l-15 -10q-70 88 -199 88q-88 0 -137 -33t-49 -88q0 -56 46 -85t150 -44q112 -17 159.5 -54.5t47.5 -103.5q0 -70 -56 -113t-163 -43q-69 0 -133.5 22t-101.5 66l14 11q36 -41 95.5 -62t126.5 -21q96 0 147.5 38t51.5 101q0 60 -44.5 93.5
t-154.5 49.5q-104 16 -153.5 49.5t-49.5 95.5t54 99.5t150 37.5zM412 777l-128 -119h-18l-128 119h17l120 -106l120 106h17z" />
    <glyph glyph-name="zcaron.sc" horiz-adv-x="534" 
d="M473 564v-15l-404 -532h411v-17h-435v15l405 533h-378v16h401zM399 777l-128 -119h-18l-128 119h17l120 -106l120 106h17z" />
    <glyph glyph-name="longs.sc" horiz-adv-x="544" 
d="M272 572q141 0 214 -94l-15 -10q-70 88 -199 88q-88 0 -137 -33t-49 -88q0 -56 46 -85t150 -44q112 -17 159.5 -54.5t47.5 -103.5q0 -70 -56 -113t-163 -43q-69 0 -133.5 22t-101.5 66l14 11q36 -41 95.5 -62t126.5 -21q96 0 147.5 38t51.5 101q0 60 -44.5 93.5
t-154.5 49.5q-104 16 -153.5 49.5t-49.5 95.5t54 99.5t150 37.5z" />
    <glyph glyph-name="florin.sc" horiz-adv-x="357" 
d="M262 571q48 0 98 -21v-15q-50 21 -96 21q-67 0 -91.5 -32t-24.5 -89v-56h186v-14h-186v-399q0 -71 -37 -102.5t-93 -31.5q-19 0 -41 2v15q18 -2 35 -2q118 0 118 125v393h-79v14h79v58q0 134 132 134z" />
    <glyph glyph-name="uni0394.sc" horiz-adv-x="530" 
d="M278 564l224 -564h-473l226 564h23zM266 547l-211 -531h421z" />
    <glyph glyph-name="uni03A9.sc" horiz-adv-x="668" 
d="M334 572q50 0 96 -16.5t84.5 -50t61.5 -90.5t23 -131q0 -116 -48.5 -181t-125.5 -86h165v-17h-192v17q81 17 131.5 83.5t50.5 183.5q0 132 -71 201.5t-175 69.5q-103 0 -174.5 -69.5t-71.5 -201.5q0 -117 51 -183.5t131 -83.5v-17h-191v17h164q-78 21 -126 86t-48 181
q0 142 77.5 215t187.5 73z" />
    <glyph glyph-name="uni1E9E.sc" horiz-adv-x="596" 
d="M352 -8q-112 0 -183 64l11 13q70 -60 172 -60q76 0 125 39.5t49 104.5q0 63 -41.5 99t-129.5 50v16l145 160q-70 76 -194 76q-91 0 -146.5 -48.5t-55.5 -140.5v-365h-18v368q0 96 61 149t159 53q137 0 215 -91l-148 -164q173 -33 173 -162q0 -73 -55 -117t-139 -44z" />
    <glyph glyph-name="figuredash.sc" 
d="M552 310v-16h-504v16h504z" />
    <glyph glyph-name="dagger.sc" horiz-adv-x="620" 
d="M302 564v-180h177v-15h-177v-369h-17v369h-177v15h177v180h17z" />
    <glyph glyph-name="daggerdbl.sc" horiz-adv-x="620" 
d="M302 564v-174h177v-15h-177v-184h177v-16h-177v-175h-17v175h-177v16h177v184h-177v15h177v174h17z" />
    <glyph glyph-name="perthousand.sc" horiz-adv-x="1426" 
d="M693 586l-357 -597h-16l357 597h16zM240 584q69 0 119.5 -52.5t50.5 -140.5q0 -91 -50.5 -143.5t-119.5 -52.5q-70 0 -120.5 52.5t-50.5 143.5q0 88 51 140.5t120 52.5zM241 571q-65 0 -110.5 -48.5t-45.5 -131.5q0 -85 45.5 -134t110.5 -49q64 0 109 49t45 134
q0 83 -45.5 131.5t-108.5 48.5zM773 380q69 0 119.5 -52t50.5 -141q0 -91 -50.5 -143.5t-119.5 -52.5q-70 0 -120.5 52.5t-50.5 143.5q0 89 51 141t120 52zM1186 380q69 0 119.5 -52t50.5 -141q0 -91 -50.5 -143.5t-119.5 -52.5q-70 0 -120.5 52.5t-50.5 143.5q0 89 51 141
t120 52zM772 367q-65 0 -110 -48.5t-45 -131.5q0 -85 45.5 -134t109.5 -49t109.5 49t45.5 134q0 83 -45.5 131.5t-109.5 48.5zM1186 367q-65 0 -110 -48.5t-45 -131.5q0 -85 45.5 -134t109.5 -49t109.5 49t45.5 134q0 83 -45.5 131.5t-109.5 48.5z" />
    <glyph glyph-name="Euro.sc" horiz-adv-x="597" 
d="M356 572q106 0 167 -69l-6 -17q-60 70 -161 70q-83 0 -142 -54t-73 -157h304l-4 -12h-301q-3 -24 -3 -55q0 -19 2 -47h269l-4 -12h-263q11 -106 67 -158.5t135 -52.5q100 0 156 59v-20q-58 -55 -156 -55q-84 0 -145.5 55.5t-74.5 171.5h-69l4 12h64q-2 15 -2 51t2 51h-67
l4 12h64q15 112 79.5 169.5t153.5 57.5z" />
    <glyph glyph-name="partialdiff.sc" horiz-adv-x="583" 
d="M149 552v15q191 -7 270 -87t79 -271q0 -101 -58.5 -159.5t-149.5 -58.5q-92 0 -149 53t-57 139q0 89 57 141.5t145 52.5q83 0 134 -40t60 -94q-10 163 -82.5 232.5t-248.5 76.5zM289 362q-83 0 -134.5 -48t-51.5 -131q0 -80 51.5 -128t135.5 -48q85 0 137 54t52 135
q0 70 -54.5 118t-135.5 48z" />
    <glyph glyph-name="product.sc" 
d="M533 564v-15h-77v-559h-18v559h-275v-559h-18v559h-77v15h465z" />
    <glyph glyph-name="summation.sc" 
d="M525 564v-15h-424l254 -247v-14l-255 -273h425v-15h-447v13l261 282l-261 256v13h447z" />
    <glyph glyph-name="radical.sc" 
d="M650 700v-15h-190l-257 -685h-19l-187 416l18 1l178 -398l253 681h204z" />
    <glyph glyph-name="integral.sc" horiz-adv-x="300" 
d="M271 733q47 0 101 -16v-15q-52 16 -99 16q-116 0 -116 -121v-660q0 -61 -27.5 -97.5t-101.5 -36.5q-47 0 -101 16v15q52 -16 99 -16q66 0 89.5 32t23.5 89v660q0 134 132 134z" />
    <glyph glyph-name="lozenge.sc" 
d="M310 564l216 -279l-216 -285h-21l-216 285l216 279h21zM300 554l-207 -269l207 -274l208 274z" />
    <glyph glyph-name="fi.sc" horiz-adv-x="781" 
d="M427 564v-16h-310v-261h289v-17h-289v-270h-18v564h328zM742 564v-16h-99v-532h99v-16h-216v16h99v532h-99v16h216z" />
    <glyph glyph-name="fl.sc" horiz-adv-x="963" 
d="M427 564v-16h-310v-261h289v-17h-289v-270h-18v564h328zM604 564v-547h316v-17h-334v564h18z" />
    <glyph glyph-name="dollar.tf.sc" 
d="M286 672v-100q67 -2 119 -27t82 -66l-14 -10q-28 38 -76.5 62t-111.5 25v-252q112 -18 158.5 -54.5t46.5 -101.5q0 -69 -53 -112t-151 -44v-111h-18v111q-159 4 -231 88l14 11q35 -40 93 -60.5t125 -22.5v282q-102 16 -151 50t-49 95t52.5 98.5t146.5 38.5v100h18z
M268 307v250q-86 -1 -133.5 -34t-47.5 -87q0 -55 43 -84.5t138 -44.5zM285 287v-279q90 1 138 39t48 100q0 58 -41.5 91t-144.5 49z" />
    <glyph glyph-name="zero.tf.sc" 
d="M300 574q107 0 178 -80t71 -214q0 -133 -71 -211t-178 -78t-178 78t-71 211q0 134 71 214t178 80zM300 558q-99 0 -165 -75t-66 -203q0 -126 66 -200t165 -74t164.5 73.5t65.5 200.5q0 128 -66 203t-164 75z" />
    <glyph glyph-name="one.tf.sc" 
d="M144 0v16h172v498q-16 -43 -57 -68.5t-101 -26.5v16q68 2 109.5 36.5t50.5 92.5h16v-548h162v-16h-352z" />
    <glyph glyph-name="two.tf.sc" 
d="M305 574q87 0 137.5 -45.5t50.5 -127.5q0 -92 -94.5 -185t-277.5 -200h387v-16h-416v15q192 115 287.5 206t95.5 178q0 77 -46 118t-124 41q-85 0 -136.5 -51t-54.5 -114h-19q3 68 60 124.5t150 56.5z" />
    <glyph glyph-name="three.tf.sc" 
d="M324 573q94 0 142.5 -38.5t48.5 -99.5q0 -51 -35 -88.5t-96 -41.5q69 -3 112 -38t43 -99q0 -79 -61.5 -128t-155.5 -49q-93 0 -151.5 44t-78.5 126l18 4q18 -76 71.5 -117t140.5 -41t142 44t55 117q0 63 -44.5 95.5t-121.5 32.5h-73v16h71q70 0 108 35.5t38 87.5
q0 53 -44 87.5t-129 34.5q-81 0 -130.5 -37.5t-64.5 -99.5l-18 4q15 65 70 107t143 42z" />
    <glyph glyph-name="four.tf.sc" 
d="M436 564v-420h119v-16h-119v-128h-18v128h-342v16l338 420h22zM418 545l-322 -401h322v401z" />
    <glyph glyph-name="five.tf.sc" 
d="M486 564l-3 -15h-303l-34 -224q72 81 186 81q75 0 130.5 -55t55.5 -142q0 -96 -59.5 -157t-151.5 -61q-84 0 -134 37.5t-69 87.5l18 5q16 -46 62 -80t124 -34q83 0 137.5 56t54.5 144q0 83 -51 133.5t-122 50.5q-112 0 -185 -89l-16 2l39 260h321z" />
    <glyph glyph-name="six.tf.sc" 
d="M332 574q117 0 172 -103l-17 -6q-23 44 -63.5 69t-91.5 25q-104 0 -154.5 -76.5t-57.5 -234.5q13 58 66 101t136 43q93 0 150.5 -57.5t57.5 -141.5q0 -86 -56.5 -144t-157.5 -58q-95 0 -154 58.5t-59 157.5q0 189 57 278t172 89zM319 377q-87 0 -142 -53.5t-55 -127.5
q0 -81 52.5 -135t142.5 -54q92 0 143.5 53t51.5 133q0 78 -52 131t-141 53z" />
    <glyph glyph-name="seven.tf.sc" 
d="M533 564v-14q-120 -133 -180.5 -260.5t-87.5 -289.5h-21q29 166 89 292.5t178 256.5h-359v-62h-16v77h397z" />
    <glyph glyph-name="eight.tf.sc" 
d="M314 571q103 0 147.5 -37.5t44.5 -92.5q0 -52 -42.5 -86.5t-110.5 -47.5q101 -24 146.5 -60t45.5 -96q0 -65 -55 -112.5t-176 -47.5q-115 0 -172 46.5t-57 112.5q0 67 47 110.5t138 53.5q-79 19 -113.5 50t-34.5 77q0 51 44.5 90.5t147.5 39.5zM314 556
q-95 0 -134.5 -34.5t-39.5 -80.5q0 -47 39 -75t129 -47l23 -5q70 12 113.5 44.5t43.5 82.5q0 115 -174 115zM319 301l-22 5q-97 -8 -145 -49t-48 -106q0 -60 52.5 -102.5t158.5 -42.5q112 0 162 43t50 102q0 58 -47 90.5t-161 59.5z" />
    <glyph glyph-name="nine.tf.sc" 
d="M301 -9q-61 0 -110.5 27t-76.5 76l17 5q22 -43 68 -68t102 -25q102 0 152 77t56 234q-13 -58 -65.5 -101t-136.5 -43q-93 0 -150.5 57t-57.5 142q0 86 57 144t157 58q95 0 154 -58.5t59 -157.5q0 -189 -55.5 -278t-169.5 -89zM310 188q87 0 142 53t55 127q0 82 -52.5 136
t-142.5 54q-92 0 -143.5 -53t-51.5 -133q0 -78 52 -131t141 -53z" />
    <glyph glyph-name="cent.tf.sc" 
d="M521 160l17 -5q-30 -81 -91 -121t-141 -42v-141h-18v141q-45 2 -85 18t-76 48.5t-57 90t-21 133.5q0 139 68.5 212.5t170.5 77.5v146h18v-146q162 -4 222 -149l-17 -5q-58 135 -206 137v-546q161 3 216 151zM68 282q0 -135 64 -202.5t157 -70.5v546q-97 -4 -159 -74
t-62 -199z" />
    <glyph glyph-name="sterling.tf.sc" 
d="M350 572q63 0 102 -30.5t53 -77.5l-16 -5q-31 98 -140 98q-70 0 -111 -39t-41 -97v-141h234v-14h-234v-154q0 -38 -10 -59t-40 -37h364v-16h-387l-2 15q36 16 47 37t11 60v154h-74v14h74v142q0 63 44.5 106.5t125.5 43.5z" />
    <glyph glyph-name="yen.tf.sc" 
d="M522 564l-207 -314h145v-12h-151v-112h151v-12h-151v-114h-18v114h-153v12h153v112h-153v12h146l-215 314h20l211 -308l202 308h20z" />
    <glyph glyph-name="figuredash.tf.sc" 
d="M552 310v-16h-504v16h504z" />
    <glyph glyph-name="Euro.tf.sc" 
d="M356 572q106 0 167 -69l-6 -17q-60 70 -161 70q-83 0 -142 -54t-73 -157h304l-4 -12h-301q-3 -24 -3 -55q0 -19 2 -47h269l-4 -12h-263q11 -106 67 -158.5t135 -52.5q100 0 156 59v-20q-58 -55 -156 -55q-84 0 -145.5 55.5t-74.5 171.5h-69l4 12h64q-2 15 -2 51t2 51h-67
l4 12h64q15 112 79.5 169.5t153.5 57.5z" />
    <glyph glyph-name="dollar.lf.sc" horiz-adv-x="624" 
d="M298 672v-100q67 -2 119 -27t82 -66l-14 -10q-28 38 -76.5 62t-111.5 25v-252q112 -18 158.5 -54.5t46.5 -101.5q0 -69 -53 -112t-151 -44v-111h-18v111q-159 4 -231 88l14 11q35 -40 93 -60.5t125 -22.5v282q-102 16 -151 50t-49 95t52.5 98.5t146.5 38.5v100h18z
M280 307v250q-86 -1 -133.5 -34t-47.5 -87q0 -55 43 -84.5t138 -44.5zM297 287v-279q90 1 138 39t48 100q0 58 -41.5 91t-144.5 49z" />
    <glyph glyph-name="zero.lf.sc" horiz-adv-x="581" 
d="M291 574q107 0 178.5 -80t71.5 -214q0 -133 -71.5 -211t-178.5 -78q-108 0 -179.5 78t-71.5 211q0 134 71.5 214t179.5 80zM291 558q-100 0 -166 -75t-66 -203q0 -126 66 -200t166 -74t166 73.5t66 200.5q0 128 -66.5 203t-165.5 75z" />
    <glyph glyph-name="one.lf.sc" horiz-adv-x="503" 
d="M98 0v16h172v498q-16 -43 -57 -68.5t-101 -26.5v16q68 2 109.5 36.5t50.5 92.5h16v-548h162v-16h-352z" />
    <glyph glyph-name="two.lf.sc" horiz-adv-x="542" 
d="M278 574q87 0 137.5 -45.5t50.5 -127.5q0 -92 -94.5 -185t-277.5 -200h387v-16h-416v15q192 115 287.5 206t95.5 178q0 77 -46 118t-124 41q-85 0 -136.5 -51t-54.5 -114h-19q3 68 60 124.5t150 56.5z" />
    <glyph glyph-name="three.lf.sc" horiz-adv-x="605" 
d="M309 573q94 0 142.5 -38.5t48.5 -99.5q0 -51 -35 -88.5t-96 -41.5q69 -3 112 -38t43 -99q0 -79 -61.5 -128t-155.5 -49q-93 0 -151.5 44t-78.5 126l18 4q18 -76 71.5 -117t140.5 -41t142 44t55 117q0 63 -44.5 95.5t-121.5 32.5h-73v16h71q70 0 108 35.5t38 87.5
q0 53 -44 87.5t-129 34.5q-81 0 -130.5 -37.5t-64.5 -99.5l-18 4q15 65 70 107t143 42z" />
    <glyph glyph-name="four.lf.sc" horiz-adv-x="595" 
d="M419 564v-420h119v-16h-119v-128h-18v128h-342v16l338 420h22zM401 545l-322 -401h322v401z" />
    <glyph glyph-name="five.lf.sc" horiz-adv-x="553" 
d="M457 564l-3 -15h-303l-34 -224q72 81 186 81q75 0 130.5 -55t55.5 -142q0 -96 -59.5 -157t-151.5 -61q-84 0 -134 37.5t-69 87.5l18 5q16 -46 62 -80t124 -34q83 0 137.5 56t54.5 144q0 83 -51 133.5t-122 50.5q-112 0 -185 -89l-16 2l39 260h321z" />
    <glyph glyph-name="six.lf.sc" horiz-adv-x="561" 
d="M299 574q117 0 172 -103l-17 -6q-23 44 -63.5 69t-91.5 25q-104 0 -154.5 -76.5t-57.5 -234.5q13 58 66 101t136 43q93 0 150.5 -57.5t57.5 -141.5q0 -86 -56.5 -144t-157.5 -58q-95 0 -154 58.5t-59 157.5q0 189 57 278t172 89zM286 377q-87 0 -142 -53.5t-55 -127.5
q0 -81 52.5 -135t142.5 -54q92 0 143.5 53t51.5 133q0 78 -52 131t-141 53z" />
    <glyph glyph-name="seven.lf.sc" horiz-adv-x="479" 
d="M441 564v-14q-120 -133 -180.5 -260.5t-87.5 -289.5h-21q29 166 89 292.5t178 256.5h-359v-62h-16v77h397z" />
    <glyph glyph-name="eight.lf.sc" horiz-adv-x="564" 
d="M281 571q103 0 147.5 -37.5t44.5 -92.5q0 -52 -42.5 -86.5t-110.5 -47.5q101 -24 146.5 -60t45.5 -96q0 -65 -55 -112.5t-176 -47.5q-115 0 -172 46.5t-57 112.5q0 67 47 110.5t138 53.5q-79 19 -113.5 50t-34.5 77q0 51 44.5 90.5t147.5 39.5zM281 556
q-95 0 -134.5 -34.5t-39.5 -80.5q0 -47 39 -75t129 -47l23 -5q70 12 113.5 44.5t43.5 82.5q0 115 -174 115zM286 301l-22 5q-97 -8 -145 -49t-48 -106q0 -60 52.5 -102.5t158.5 -42.5q112 0 162 43t50 102q0 58 -47 90.5t-161 59.5z" />
    <glyph glyph-name="nine.lf.sc" horiz-adv-x="562" 
d="M272 -9q-61 0 -110.5 27t-76.5 76l17 5q22 -43 68 -68t102 -25q102 0 152 77t56 234q-13 -58 -65.5 -101t-136.5 -43q-93 0 -150.5 57t-57.5 142q0 86 57 144t157 58q95 0 154 -58.5t59 -157.5q0 -189 -55.5 -278t-169.5 -89zM281 188q87 0 142 53t55 127q0 82 -52.5 136
t-142.5 54q-92 0 -143.5 -53t-51.5 -133q0 -78 52 -131t141 -53z" />
    <glyph glyph-name="cent.lf.sc" horiz-adv-x="624" 
d="M533 160l17 -5q-30 -81 -91 -121t-141 -42v-141h-18v141q-45 2 -85 18t-76 48.5t-57 90t-21 133.5q0 139 68.5 212.5t170.5 77.5v146h18v-146q162 -4 222 -149l-17 -5q-58 135 -206 137v-546q161 3 216 151zM80 282q0 -135 64 -202.5t157 -70.5v546q-97 -4 -159 -74
t-62 -199z" />
    <glyph glyph-name="sterling.lf.sc" horiz-adv-x="626" 
d="M362 572q63 0 102 -30.5t53 -77.5l-16 -5q-31 98 -140 98q-70 0 -111 -39t-41 -97v-141h234v-14h-234v-154q0 -38 -10 -59t-40 -37h364v-16h-387l-2 15q36 16 47 37t11 60v154h-74v14h74v142q0 63 44.5 106.5t125.5 43.5z" />
    <glyph glyph-name="yen.lf.sc" horiz-adv-x="624" 
d="M534 564l-207 -314h145v-12h-151v-112h151v-12h-151v-114h-18v114h-153v12h153v112h-153v12h146l-215 314h20l211 -308l202 308h20z" />
    <glyph glyph-name="figuredash.lf.sc" 
d="M552 310v-16h-504v16h504z" />
    <glyph glyph-name="Euro.lf.sc" horiz-adv-x="624" 
d="M368 572q106 0 167 -69l-6 -17q-60 70 -161 70q-83 0 -142 -54t-73 -157h304l-4 -12h-301q-3 -24 -3 -55q0 -19 2 -47h269l-4 -12h-263q11 -106 67 -158.5t135 -52.5q100 0 156 59v-20q-58 -55 -156 -55q-84 0 -145.5 55.5t-74.5 171.5h-69l4 12h64q-2 15 -2 51t2 51h-67
l4 12h64q15 112 79.5 169.5t153.5 57.5z" />
    <glyph glyph-name="parenleft.case" horiz-adv-x="263" 
d="M211 826h14q-131 -243 -131 -477q0 -233 131 -476h-14q-136 240 -136 476q0 237 136 477z" />
    <glyph glyph-name="parenright.case" horiz-adv-x="263" 
d="M38 826h14q136 -240 136 -477q0 -236 -136 -476h-14q131 243 131 476q0 234 -131 477z" />
    <glyph glyph-name="hyphen.case" horiz-adv-x="360" 
d="M305 358v-16h-251v16h251z" />
    <glyph glyph-name="at.case" horiz-adv-x="1031" 
d="M550 809q173 0 280 -105.5t107 -268.5q0 -71 -23 -138.5t-68 -113.5t-100 -46q-104 0 -88 166q-44 -175 -190 -175q-74 0 -117.5 52.5t-43.5 137.5q0 132 69 213.5t164 81.5q24 0 45.5 -6t44.5 -21t36.5 -46.5t13.5 -76.5l23 129h16l-43 -242q-4 -20 -6 -38.5t-2 -50
t6.5 -54t24.5 -39.5t47 -17q74 0 123.5 88.5t49.5 196.5q0 156 -101.5 258t-267.5 102q-192 0 -315.5 -125.5t-123.5 -328.5q0 -185 105 -292t283 -107q97 0 208 37l5 -14q-117 -38 -214 -38q-184 0 -294 111.5t-110 302.5q0 209 128.5 338t327.5 129zM542 597
q-90 0 -153 -77.5t-63 -201.5q0 -79 39.5 -127t106.5 -48q160 0 197 251q10 62 0.5 105.5t-33.5 63t-46.5 27t-47.5 7.5z" />
    <glyph glyph-name="bracketleft.case" horiz-adv-x="300" 
d="M242 836v-15h-148v-929h148v-15h-166v959h166z" />
    <glyph glyph-name="bracketright.case" horiz-adv-x="300" 
d="M58 821v15h166v-959h-166v15h148v929h-148z" />
    <glyph glyph-name="braceleft.case" horiz-adv-x="300" 
d="M247 836v-15h-6q-90 0 -90 -91v-292q0 -38 -20 -60t-49 -23q29 -1 49 -23t20 -60v-290q0 -91 90 -91h6v-15h-10q-48 0 -76 26.5t-28 76.5v291q0 77 -73 79v12q73 2 73 79v293q0 50 28 76.5t76 26.5h10z" />
    <glyph glyph-name="braceright.case" horiz-adv-x="300" 
d="M53 821v15h10q48 0 76 -26.5t28 -76.5v-293q0 -77 73 -79v-12q-73 -2 -73 -79v-291q0 -50 -28 -76.5t-76 -26.5h-10v15h6q90 0 90 91v290q0 38 20 60t49 23q-29 1 -49 23t-20 60v292q0 91 -90 91h-6z" />
    <glyph glyph-name="exclamdown.case" horiz-adv-x="256" 
d="M128 707q7 0 12 -5t5 -12t-5 -12t-12 -5t-12 5t-5 12t5 12t12 5zM134 520l3 -274v-246h-19v246l3 274h13z" />
    <glyph glyph-name="guillemotleft.case" horiz-adv-x="465" 
d="M205 534l10 -6l-108 -174l108 -183l-10 -6l-115 180v18zM363 534l10 -6l-108 -174l108 -183l-10 -6l-115 180v18z" />
    <glyph glyph-name="uni00AD.case" horiz-adv-x="360" 
d="M305 358v-16h-251v16h251z" />
    <glyph glyph-name="guillemotright.case" horiz-adv-x="465" 
d="M253 534l116 -171v-18l-116 -180l-9 6l108 183l-108 174zM104 534l116 -171v-18l-116 -180l-9 6l108 183l-108 174z" />
    <glyph glyph-name="questiondown.case" horiz-adv-x="519" 
d="M246 709q7 0 12 -5t5 -12t-5 -12t-12 -5t-12 5t-5 12t5 12t12 5zM255 508v-57q0 -37 -19 -68t-45.5 -53.5t-53.5 -45.5t-46 -55.5t-19 -72.5q0 -59 42 -104t133 -45q82 0 134.5 44t68.5 101l17 -5q-16 -59 -73.5 -107.5t-146.5 -48.5q-101 0 -147.5 51t-46.5 113
q0 43 19 77.5t46 58t54 45.5t46 52t19 66v54h18z" />
    <glyph glyph-name="gravecomb.case" horiz-adv-x="1" 
d="M-134 879l104 -126h-15l-113 126h24z" />
    <glyph glyph-name="acutecomb.case" horiz-adv-x="1" 
d="M-30 879l-112 -126h-16l105 126h23z" />
    <glyph glyph-name="uni0302.case" horiz-adv-x="1" 
d="M-158 890l128 -118h-17l-120 106l-120 -106h-17l128 118h18z" />
    <glyph glyph-name="tildecomb.case" horiz-adv-x="1" 
d="M-237 854q35 0 65.5 -27.5t60.5 -27.5q44 0 67 52h14q-24 -66 -82 -66q-35 0 -66 28t-61 28q-42 0 -67 -54h-14q23 67 83 67z" />
    <glyph glyph-name="uni0304.case" horiz-adv-x="1" 
d="M-30 826v-15h-276v15h276z" />
    <glyph glyph-name="uni0306.case" horiz-adv-x="1" 
d="M-44 879h14q-5 -46 -38 -80.5t-93 -34.5t-93 34.5t-38 80.5h14q5 -40 34 -70.5t83 -30.5t83 30.5t34 70.5z" />
    <glyph glyph-name="uni0307.case" horiz-adv-x="1" 
d="M-45 863q15 0 15 -14q0 -15 -15 -15t-15 15q0 14 15 14z" />
    <glyph glyph-name="uni0308.case" horiz-adv-x="1" 
d="M-259 833q15 0 15 -15q0 -14 -15 -14q-14 0 -14 14q0 15 14 15zM-45 833q15 0 15 -15q0 -14 -15 -14q-14 0 -14 14q0 15 14 15z" />
    <glyph glyph-name="uni030A.case" horiz-adv-x="1" 
d="M-144 950q46 0 80 -32t34 -79t-33.5 -77t-80.5 -30q-46 0 -80 30t-34 77t34.5 79t79.5 32zM-144 937q-40 0 -69.5 -28t-29.5 -70t29 -68t70 -26t70 26t29 68t-29.5 70t-69.5 28z" />
    <glyph glyph-name="uni030B.case" horiz-adv-x="1" 
d="M-177 879l-93 -126h-14l86 126h21zM-30 879l-94 -126h-14l86 126h22z" />
    <glyph glyph-name="uni030C.case" horiz-adv-x="1" 
d="M-30 889l-128 -118h-18l-128 118h17l120 -105l120 105h17z" />
    <glyph glyph-name="endash.case" horiz-adv-x="512" 
d="M457 358v-16h-403v16h403z" />
    <glyph glyph-name="emdash.case" horiz-adv-x="612" 
d="M557 358v-16h-503v16h503z" />
    <glyph glyph-name="guilsinglleft.case" horiz-adv-x="248" 
d="M176 534l10 -6l-108 -174l108 -183l-10 -6l-115 180v18z" />
    <glyph glyph-name="guilsinglright.case" horiz-adv-x="248" 
d="M70 534l116 -171v-18l-116 -180l-9 6l108 183l-108 174z" />
    <glyph glyph-name="zero.zero" horiz-adv-x="587" 
d="M294 573q107 0 178.5 -80t71.5 -214q0 -133 -71.5 -211t-178.5 -78q-108 0 -179.5 78t-71.5 211q0 134 71.5 214t179.5 80zM62 279q0 -131 73 -207l310 425q-63 60 -151 60q-100 0 -166 -75t-66 -203zM294 6q99 0 165.5 73.5t66.5 199.5q0 131 -71 207l-310 -424
q62 -56 149 -56z" />
    <glyph glyph-name="zero.tf.zero" 
d="M300 709q108 0 169.5 -89.5t61.5 -274.5q0 -178 -62 -266t-169 -88q-108 0 -169.5 88t-61.5 266q0 185 61.5 274.5t169.5 89.5zM300 694q-100 0 -156.5 -85.5t-56.5 -263.5q0 -164 52 -251l311 525q-52 75 -150 75zM300 6q99 0 155 84t56 255q0 172 -52 260l-311 -524
q53 -75 152 -75z" />
    <glyph glyph-name="zero.lf.zero" horiz-adv-x="636" 
d="M318 691q110 0 180 -88.5t70 -262.5q0 -172 -70 -260.5t-180 -88.5q-111 0 -181 88.5t-70 260.5q0 174 70 262.5t181 88.5zM319 675q-103 0 -168 -84t-65 -251t70 -255l311 528q-59 62 -148 62zM319 6q102 0 166.5 85t64.5 249q0 173 -73 262l-311 -530q62 -66 153 -66z
" />
    <glyph glyph-name="zero.tosf.zero" 
d="M300 573q107 0 178 -79.5t71 -213.5q0 -133 -71 -211.5t-178 -78.5t-178 78.5t-71 211.5q0 134 71 213.5t178 79.5zM69 280q0 -150 91 -225l268 461q-56 41 -128 41q-99 0 -165 -75t-66 -202zM300 6q99 0 164.5 73.5t65.5 200.5q0 151 -90 226l-269 -459q56 -41 129 -41z
" />
    <glyph glyph-name="zero.tf.sc.zero" 
d="M300 573q107 0 178 -79.5t71 -213.5q0 -133 -71 -211.5t-178 -78.5t-178 78.5t-71 211.5q0 134 71 213.5t178 79.5zM69 280q0 -150 91 -225l268 461q-56 41 -128 41q-99 0 -165 -75t-66 -202zM300 6q99 0 164.5 73.5t65.5 200.5q0 151 -90 226l-269 -459q56 -41 129 -41z
" />
    <glyph glyph-name="zero.lf.sc.zero" horiz-adv-x="587" 
d="M294 573q107 0 178.5 -80t71.5 -214q0 -133 -71.5 -211t-178.5 -78q-108 0 -179.5 78t-71.5 211q0 134 71.5 214t179.5 80zM62 279q0 -131 73 -207l310 425q-63 60 -151 60q-100 0 -166 -75t-66 -203zM294 6q99 0 165.5 73.5t66.5 199.5q0 131 -71 207l-310 -424
q62 -56 149 -56z" />
    <glyph glyph-name="exclam.ss01" horiz-adv-x="256" 
d="M138 703v-246l-4 -274h-13l-3 274v246h20zM141 26v-26h-27v26h27z" />
    <glyph glyph-name="comma.ss01" horiz-adv-x="227" 
d="M127 26v-26l-38 -121h-11l32 121h-10v26h27z" />
    <glyph glyph-name="period.ss01" horiz-adv-x="227" 
d="M127 26v-26h-27v26h27z" />
    <glyph glyph-name="colon.ss01" horiz-adv-x="227" 
d="M127 26v-26h-27v26h27zM127 429v-26h-27v26h27z" />
    <glyph glyph-name="semicolon.ss01" horiz-adv-x="229" 
d="M127 26v-26l-38 -121h-11l32 121h-10v26h27zM127 393v-26h-27v26h27z" />
    <glyph glyph-name="question.ss01" horiz-adv-x="519" 
d="M273 702q101 0 147.5 -51t46.5 -113q0 -43 -19 -77.5t-46 -58t-54 -45.5t-46 -52t-19 -66v-56h-18v59q0 37 19 67.5t45.5 53t53.5 45.5t46 56t19 73q0 59 -42.5 104t-132.5 45q-83 0 -135.5 -44t-68.5 -101l-17 6q16 59 73.5 107t147.5 48zM288 26v-26h-27v26h27z" />
    <glyph glyph-name="i.ss01" horiz-adv-x="206" 
d="M112 517v-517h-18v517h18zM115 700v-24h-25v24h25z" />
    <glyph glyph-name="j.ss01" horiz-adv-x="205" 
d="M112 517v-551q0 -71 -37.5 -102.5t-93.5 -31.5q-19 0 -41 2v15q20 -2 36 -2q118 0 118 125v545h18zM115 700v-24h-25v24h25z" />
    <glyph glyph-name="exclamdown.ss01" horiz-adv-x="256" 
d="M142 517v-26h-27v26h27zM135 348l3 -261v-246h-19v246l3 261h13z" />
    <glyph glyph-name="periodcentered.ss01" horiz-adv-x="227" 
d="M127 305v-26h-27v26h27z" />
    <glyph glyph-name="questiondown.ss01" horiz-adv-x="519" 
d="M259 517v-26h-27v26h27zM255 346v-57q0 -37 -19 -68t-45.5 -53.5t-53.5 -45.5t-46 -55.5t-19 -72.5q0 -60 42 -105t133 -45q82 0 134.5 44.5t68.5 100.5l17 -5q-16 -59 -73.5 -107.5t-146.5 -48.5q-53 0 -93 16t-61 42t-30.5 52.5t-9.5 54.5q0 43 19 77.5t46 58t54 45.5
t46 52t19 66v54h18z" />
    <glyph glyph-name="Adieresis.ss01" horiz-adv-x="593" 
d="M544 0l-60 167h-375l-61 -167h-19l257 700h24l254 -700h-20zM298 683l-183 -500h363zM204 822v-23h-25v23h25zM418 822v-23h-25v23h25z" />
    <glyph glyph-name="Edieresis.ss01" horiz-adv-x="557" 
d="M479 700v-16h-362v-318h341v-16h-341v-334h371v-16h-389v700h380zM207 822v-23h-25v23h25zM421 822v-23h-25v23h25z" />
    <glyph glyph-name="Idieresis.ss01" horiz-adv-x="322" 
d="M283 700v-16h-113v-668h113v-16h-244v16h113v668h-113v16h244zM67 822v-23h-25v23h25zM281 822v-23h-25v23h25z" />
    <glyph glyph-name="Odieresis.ss01" horiz-adv-x="739" 
d="M369 709q42 0 83 -11.5t81 -38.5t70 -67.5t48.5 -103t18.5 -139.5q0 -91 -25.5 -161.5t-69 -112.5t-96 -63t-110.5 -21q-42 0 -82.5 11.5t-80.5 38.5t-70 67.5t-48.5 103t-18.5 139.5q0 91 25.5 161.5t69 112.5t95.5 63t110 21zM370 693q-118 0 -200 -87.5t-82 -254.5
q0 -89 25 -157.5t66.5 -108t90 -59t100.5 -19.5q55 0 104.5 21t89.5 61t63.5 107.5t23.5 152.5q0 89 -25 157.5t-66 108t-89.5 59t-100.5 19.5zM275 822v-23h-25v23h25zM489 822v-23h-25v23h25z" />
    <glyph glyph-name="Udieresis.ss01" horiz-adv-x="649" 
d="M565 700v-457q0 -104 -60 -178t-181 -74q-64 0 -112 22t-74.5 59t-39 80t-12.5 91v457h18v-457q0 -64 21 -115.5t72 -86t128 -34.5q110 0 166 68t56 168v457h18zM231 822v-23h-25v23h25zM445 822v-23h-25v23h25z" />
    <glyph glyph-name="adieresis.ss01" horiz-adv-x="541" 
d="M272 524q107 0 144 -44t37 -134v-174q0 -120 16 -172h-19q-16 57 -14 120q-13 -51 -68 -90t-143 -39q-83 0 -124.5 38.5t-41.5 102.5q0 72 52 113.5t167 57.5l157 21v21q0 86 -32 125.5t-131 39.5q-170 0 -176 -143h-17q2 70 48 113.5t145 43.5zM435 309l-152 -20
q-107 -14 -156 -51.5t-49 -103.5q0 -58 36.5 -92.5t113.5 -34.5q93 0 150 48t57 115v139zM177 670v-23h-25v23h25zM391 670v-23h-25v23h25z" />
    <glyph glyph-name="edieresis.ss01" horiz-adv-x="571" 
d="M291 524q104 0 162.5 -76t58.5 -183v-7h-429q0 -110 58 -181.5t160 -71.5q115 0 186 98l14 -10q-77 -104 -201 -104q-110 0 -173 78.5t-63 194.5q0 110 60 186t167 76zM290 509q-96 0 -150.5 -68.5t-56.5 -166.5h411q-1 98 -54.5 166.5t-149.5 68.5zM192 670v-23h-25v23
h25zM406 670v-23h-25v23h25z" />
    <glyph glyph-name="idieresis.ss01" horiz-adv-x="206" 
d="M112 517v-517h-18v517h18zM9 670v-23h-25v23h25zM223 670v-23h-25v23h25z" />
    <glyph glyph-name="odieresis.ss01" horiz-adv-x="595" 
d="M298 524q107 0 170 -77.5t63 -189.5q0 -118 -61 -192.5t-172 -74.5q-110 0 -172 75.5t-62 191.5t62.5 191.5t171.5 75.5zM298 508q-100 0 -157.5 -70.5t-57.5 -180.5t57 -180.5t158 -70.5q103 0 159 69.5t56 181.5q0 108 -58.5 179.5t-156.5 71.5zM204 670v-23h-25v23h25
zM418 670v-23h-25v23h25z" />
    <glyph glyph-name="divide.ss01" 
d="M313 137v-26h-27v26h27zM313 473v-26h-27v26h27zM483 299v-16h-366v16h366z" />
    <glyph glyph-name="udieresis.ss01" horiz-adv-x="564" 
d="M471 517v-517h-18v154q-15 -76 -66.5 -118.5t-125.5 -42.5q-172 0 -172 190v334h18v-330q0 -90 38 -134t119 -44q80 0 134.5 58t54.5 173v277h18zM183 670v-23h-25v23h25zM397 670v-23h-25v23h25z" />
    <glyph glyph-name="ydieresis.ss01" horiz-adv-x="478" 
d="M445 517l-185 -523q-28 -80 -61 -123t-94 -43q-19 0 -49 4v16q20 -4 46 -4q56 0 85.5 39.5t55.5 116.5h-5l-205 517h20l197 -501l175 501h20zM145 670v-23h-25v23h25zM359 670v-23h-25v23h25z" />
    <glyph glyph-name="ij.ss01" horiz-adv-x="417" 
d="M324 517v-551q0 -71 -37.5 -102.5t-93.5 -31.5q-19 0 -41 2v15q20 -2 36 -2q118 0 118 125v545h18zM327 700v-24h-25v24h25zM112 517v-517h-18v517h18zM115 700v-24h-25v24h25z" />
    <glyph glyph-name="Ydieresis.ss01" horiz-adv-x="578" 
d="M545 700l-242 -405v-295h-18v295l-252 405h20l241 -389l231 389h20zM198 822v-23h-25v23h25zM412 822v-23h-25v23h25z" />
    <glyph glyph-name="uni02BB.ss01" horiz-adv-x="226" 
d="M82 609v25l36 115h11l-31 -115h10v-25h-26z" />
    <glyph glyph-name="uni02BC.ss01" horiz-adv-x="226" 
d="M125 719v-25l-36 -115h-11l31 115h-10v25h26z" />
    <glyph glyph-name="uni0307.ss01" horiz-adv-x="1" 
d="M-30 700v-24h-25v24h25z" />
    <glyph glyph-name="uni0308.ss01" horiz-adv-x="1" 
d="M-244 670v-23h-25v23h25zM-30 670v-23h-25v23h25z" />
    <glyph glyph-name="uni0326.ss01" horiz-adv-x="1" 
d="M-30 -79v-23l-26 -105h-10l22 105h-10v23h24z" />
    <glyph glyph-name="quoteleft.ss01" horiz-adv-x="227" 
d="M82 609v25l36 115h11l-31 -115h10v-25h-26z" />
    <glyph glyph-name="quoteright.ss01" horiz-adv-x="227" 
d="M125 719v-25l-36 -115h-11l31 115h-10v25h26z" />
    <glyph glyph-name="quotesinglbase.ss01" horiz-adv-x="227" 
d="M125 25v-25l-36 -115h-11l31 115h-10v25h26z" />
    <glyph glyph-name="quotedblleft.ss01" horiz-adv-x="349" 
d="M204 609v25l36 115h11l-31 -115h10v-25h-26zM82 609v25l36 115h11l-31 -115h10v-25h-26z" />
    <glyph glyph-name="quotedblright.ss01" horiz-adv-x="349" 
d="M125 719v-25l-36 -115h-11l31 115h-10v25h26zM246 719v-25l-36 -115h-11l31 115h-10v25h26z" />
    <glyph glyph-name="quotedblbase.ss01" horiz-adv-x="349" 
d="M125 25v-25l-36 -115h-11l31 115h-10v25h26zM246 25v-25l-36 -115h-11l31 115h-10v25h26z" />
    <glyph glyph-name="bullet.ss01" horiz-adv-x="273" 
d="M174 339v-72h-75v72h75z" />
    <glyph glyph-name="ellipsis.ss01" horiz-adv-x="668" 
d="M127 26v-26h-27v26h27zM347 26v-26h-27v26h27zM568 26v-26h-27v26h27z" />
    <glyph glyph-name="uni203D.ss01" horiz-adv-x="519" 
d="M269 704q54 0 94.5 -16t61.5 -42t31 -53t10 -55q0 -43 -19 -77.5t-46 -58t-54.5 -45.5t-46.5 -52t-19 -66v-56h-18l-3 274v230q-77 -3 -126.5 -47.5t-64.5 -98.5l-17 6q16 59 73 108t144 49zM279 457l-3 -169q11 30 41 60.5t58 52t50 57.5t22 79q0 58 -40 102.5
t-128 47.5v-230zM258 0v26h27v-26h-27z" />
    <glyph glyph-name="uni2219.ss01" 
d="M337 339v-72h-75v72h75z" />
    <glyph glyph-name="dotmath.ss01" 
d="M313 305v-26h-27v26h27z" />
    <glyph glyph-name="adieresis.sc.ss01" horiz-adv-x="531" 
d="M482 0l-52 133h-329l-53 -133h-19l226 564h23l224 -564h-20zM266 548l-159 -399h317zM171 717v-23h-25v23h25zM385 717v-23h-25v23h25z" />
    <glyph glyph-name="edieresis.sc.ss01" horiz-adv-x="512" 
d="M435 564v-16h-318v-252h300v-16h-300v-264h326v-16h-344v564h336zM183 717v-23h-25v23h25zM397 717v-23h-25v23h25z" />
    <glyph glyph-name="idieresis.sc.ss01" horiz-adv-x="294" 
d="M255 564v-16h-99v-532h99v-16h-216v16h99v532h-99v16h216zM53 717v-23h-25v23h25zM267 717v-23h-25v23h25z" />
    <glyph glyph-name="odieresis.sc.ss01" horiz-adv-x="668" 
d="M334 572q47 0 91.5 -15.5t84.5 -48t64.5 -91t24.5 -136.5q0 -142 -78 -215.5t-187 -73.5q-47 0 -91.5 15.5t-84.5 48t-64.5 91.5t-24.5 136q0 142 78 215.5t187 73.5zM334 556q-103 0 -174.5 -70.5t-71.5 -202.5q0 -71 21.5 -125.5t58 -86t78.5 -47.5t88 -16
q103 0 174.5 70.5t71.5 202.5q0 71 -21.5 125.5t-58 86t-78.5 47.5t-88 16zM240 717v-23h-25v23h25zM454 717v-23h-25v23h25z" />
    <glyph glyph-name="udieresis.sc.ss01" horiz-adv-x="593" 
d="M509 564v-368q0 -84 -53 -144t-160 -60q-56 0 -98.5 17.5t-66 47.5t-34.5 65t-11 74v368h18v-368q0 -81 47.5 -134.5t145.5 -53.5q96 0 144.5 54t48.5 134v368h19zM203 717v-23h-25v23h25zM417 717v-23h-25v23h25z" />
    <glyph glyph-name="ydieresis.sc.ss01" horiz-adv-x="519" 
d="M486 564l-213 -327v-237h-19v237l-221 327h20l211 -311l202 311h20zM168 717v-23h-25v23h25zM382 717v-23h-25v23h25z" />
    <glyph glyph-name="exclamdown.case.ss01" horiz-adv-x="256" 
d="M142 700v-26h-27v26h27zM135 520l3 -274v-246h-19v246l3 274h13z" />
    <glyph glyph-name="questiondown.case.ss01" horiz-adv-x="519" 
d="M259 700v-26h-27v26h27zM255 508v-57q0 -37 -19 -68t-45.5 -53.5t-53.5 -45.5t-46 -55.5t-19 -72.5q0 -59 42 -104t133 -45q82 0 134.5 44t68.5 101l17 -5q-16 -59 -73.5 -107.5t-146.5 -48.5q-101 0 -147.5 51t-46.5 113q0 43 19 77.5t46 58t54 45.5t46 52t19 66v54h18z
" />
    <glyph glyph-name="uni0307.case.ss01" horiz-adv-x="1" 
d="M-30 830v-24h-25v24h25z" />
    <glyph glyph-name="uni0308.case.ss01" horiz-adv-x="1" 
d="M-244 822v-23h-25v23h25zM-30 822v-23h-25v23h25z" />
    <glyph glyph-name="one.ss02" horiz-adv-x="479" 
d="M264 0v514q-16 -43 -57 -68.5t-101 -26.5v16q68 2 110 36.5t50 92.5h16v-564h-18z" />
    <glyph glyph-name="onesuperior.ss02" horiz-adv-x="350" 
d="M195 330v380q-24 -52 -104 -54v16q93 2 108 78h14v-420h-18z" />
    <glyph glyph-name="onequarter.ss02" horiz-adv-x="823" 
d="M661 712l-433 -724h-16l433 724h16zM712 420v-292h82v-16h-82v-112h-17v112h-244v16l239 292h22zM695 401l-224 -273h224v273zM195 280v380q-24 -52 -104 -54v16q93 2 108 78h14v-420h-18z" />
    <glyph glyph-name="onehalf.ss02" horiz-adv-x="873" 
d="M661 712l-433 -724h-16l433 724h16zM674 427q61 0 96 -31.5t35 -85.5q0 -66 -68.5 -144t-182.5 -150h263v-16h-287v15q256 172 256 294q0 49 -29.5 75.5t-82.5 26.5q-57 0 -88.5 -29.5t-33.5 -71.5h-18q2 46 38.5 81.5t101.5 35.5zM195 280v380q-24 -52 -104 -54v16
q93 2 108 78h14v-420h-18z" />
    <glyph glyph-name="uni2081.ss02" horiz-adv-x="350" 
d="M195 -159v380q-24 -52 -104 -54v16q93 2 108 78h14v-420h-18z" />
    <glyph glyph-name="uni2150.ss02" horiz-adv-x="903" 
d="M661 712l-433 -724h-16l433 724h16zM848 420v-15q-85 -97 -128 -191.5t-59 -213.5h-20q17 122 60.5 216t127.5 189h-255v-48h-16v63h290zM195 280v380q-24 -52 -104 -54v16q93 2 108 78h14v-420h-18z" />
    <glyph glyph-name="uni2151.ss02" horiz-adv-x="873" 
d="M661 712l-433 -724h-16l433 724h16zM658 -5q-90 0 -127 73l16 7q32 -65 111 -65q74 0 108 59t38 179q-9 -40 -45.5 -68t-92.5 -28q-62 0 -102 37.5t-40 100.5q0 59 41 98t107 39q68 0 108.5 -40.5t40.5 -111.5q0 -145 -39.5 -212.5t-123.5 -67.5zM669 167q59 0 96 35.5
t37 85.5q0 54 -35 89t-95 35q-58 0 -94 -34.5t-36 -87.5q0 -55 35 -89t92 -34zM195 280v380q-24 -52 -104 -54v16q93 2 108 78h14v-420h-18z" />
    <glyph glyph-name="uni2152.ss02" horiz-adv-x="1316" 
d="M655 712l-433 -724h-16l433 724h16zM679 0v380q-24 -52 -104 -54v16q93 2 108 78h14v-420h-18zM1044 427q72 0 113 -54.5t41 -164.5q0 -106 -41 -159.5t-113 -53.5t-113 53.5t-41 159.5q0 110 41 164.5t113 54.5zM1044 411q-64 0 -100 -50t-36 -153q0 -98 36 -147.5
t100 -49.5q63 0 98.5 49t35.5 148q0 203 -134 203zM179 280v380q-24 -52 -104 -54v16q93 2 108 78h14v-420h-18z" />
    <glyph glyph-name="onethird.ss02" horiz-adv-x="873" 
d="M661 712l-433 -724h-16l433 724h16zM676 427q63 0 99 -29.5t36 -77.5q0 -40 -27 -65.5t-72 -28.5q47 -2 79.5 -31t32.5 -75q0 -57 -43.5 -91t-106.5 -34q-59 0 -99 28t-53 75l17 4q13 -40 48 -65.5t87 -25.5q56 0 93.5 29t37.5 80q0 46 -32.5 72t-83.5 26h-47v14h46
q47 0 75.5 23.5t28.5 63.5q0 43 -31 68t-84 25q-51 0 -82.5 -24t-41.5 -63l-17 3q10 42 46.5 70.5t93.5 28.5zM195 280v380q-24 -52 -104 -54v16q93 2 108 78h14v-420h-18z" />
    <glyph glyph-name="uni2155.ss02" horiz-adv-x="883" 
d="M661 712l-433 -724h-16l433 724h16zM812 420l-3 -15h-219l-24 -163q47 56 127 56q59 0 100.5 -39.5t41.5 -103.5q0 -70 -43.5 -115t-113.5 -45q-61 0 -97.5 27.5t-50.5 63.5l16 7q13 -33 46 -58t87 -25q60 0 99 40.5t39 103.5q0 58 -36.5 93t-89.5 35q-79 0 -129 -62
l-16 3l29 197h237zM195 280v380q-24 -52 -104 -54v16q93 2 108 78h14v-420h-18z" />
    <glyph glyph-name="uni2159.ss02" horiz-adv-x="863" 
d="M661 712l-433 -724h-16l433 724h16zM675 427q87 0 122 -76l-16 -6q-30 67 -106 67q-136 0 -145 -232q8 42 46.5 72.5t94.5 30.5q62 0 101.5 -39.5t39.5 -104.5q0 -63 -40 -103.5t-106 -40.5q-68 0 -110 43t-42 118q0 135 41.5 203t119.5 68zM668 267q-59 0 -97 -36
t-38 -88q0 -57 36 -95t97 -38q58 0 92.5 36.5t34.5 92.5q0 58 -34.5 93t-90.5 35zM195 280v380q-24 -52 -104 -54v16q93 2 108 78h14v-420h-18z" />
    <glyph glyph-name="oneeighth.ss02" horiz-adv-x="873" 
d="M661 712l-433 -724h-16l433 724h16zM672 -5q-79 0 -119 34.5t-40 80.5q0 103 125 120q-103 31 -103 98q0 37 33 68t104 31q70 0 103 -30t33 -69q0 -38 -32 -65t-74 -37q71 -19 100.5 -44t29.5 -72q0 -45 -38.5 -80t-121.5 -35zM669 236l15 -5q45 11 76.5 36.5t31.5 60.5
q0 34 -29 59t-91 25q-61 0 -90 -25.5t-29 -58.5q0 -35 28 -55.5t88 -36.5zM672 10q74 0 108 30.5t34 69.5q0 46 -32.5 68.5t-108.5 40.5l-14 4q-128 -14 -128 -113q0 -40 36 -70t105 -30zM195 280v380q-24 -52 -104 -54v16q93 2 108 78h14v-420h-18z" />
    <glyph glyph-name="uni215F.ss02" horiz-adv-x="523" 
d="M661 712l-433 -724h-16l433 724h16zM195 280v380q-24 -52 -104 -54v16q93 2 108 78h14v-420h-18z" />
    <glyph glyph-name="uni2460.ss02" horiz-adv-x="900" 
d="M435 159v345q-21 -47 -94 -49v15q85 2 98 71h13v-382h-17zM451 709q150 0 254 -104.5t104 -255.5t-104 -254.5t-254 -103.5t-255 103.5t-105 254.5t105 255.5t255 104.5zM451 694q-143 0 -243.5 -100t-100.5 -245q0 -144 100 -243.5t244 -99.5t243 99t99 244t-99 245
t-243 100z" />
    <glyph glyph-name="uni2776.ss02" horiz-adv-x="900" 
d="M451 -9q-150 0 -255 103.5t-105 254.5t105 255.5t255 104.5t254 -104.5t104 -255.5t-104 -254.5t-254 -103.5zM453 159h17v382h-13q-15 -69 -99 -71v-15q72 2 95 50v-346z" />
    <glyph glyph-name="one.numr.ss02" horiz-adv-x="350" 
d="M195 280v380q-24 -52 -104 -54v16q93 2 108 78h14v-420h-18z" />
    <glyph glyph-name="one.dnom.ss02" horiz-adv-x="350" 
d="M195 0v380q-24 -52 -104 -54v16q93 2 108 78h14v-420h-18z" />
    <glyph glyph-name="one.tf.ss02" 
d="M326 0v650q-16 -43 -57 -68.5t-101 -26.5v16q68 2 110 36.5t50 92.5h16v-700h-18z" />
    <glyph glyph-name="one.lf.ss02" horiz-adv-x="503" 
d="M276 0v634q-16 -43 -57 -68.5t-101 -26.5v16q68 2 110 36.5t50 92.5h16v-684h-18z" />
    <glyph glyph-name="one.tosf.ss02" 
d="M326 0v514q-16 -43 -57 -68.5t-101 -26.5v16q68 2 110 36.5t50 92.5h16v-564h-18z" />
    <glyph glyph-name="one.tf.sc.ss02" 
d="M326 0v514q-16 -43 -57 -68.5t-101 -26.5v16q68 2 110 36.5t50 92.5h16v-564h-18z" />
    <glyph glyph-name="one.lf.sc.ss02" horiz-adv-x="509" 
d="M279 0v514q-16 -43 -57 -68.5t-101 -26.5v16q68 2 110 36.5t50 92.5h16v-564h-18z" />
    <glyph glyph-name="circle.comp" horiz-adv-x="900" 
d="M451 709q150 0 254 -104.5t104 -255.5t-104 -254.5t-254 -103.5t-255 103.5t-105 254.5t105 255.5t255 104.5zM451 694q-143 0 -243.5 -100t-100.5 -245q0 -144 100 -243.5t244 -99.5t243 99t99 244t-99 245t-243 100z" />
    </font>
</defs>
</svg>
