<?xml version="1.0" standalone="no"?>
<!DOCTYPE svg PUBLIC "-//W3C//DTD SVG 1.1//EN" "http://www.w3.org/Graphics/SVG/1.1/DTD/svg11.dtd" >
<svg>
<metadata>
Created by FontForge 20120731 at Tue Mar  1 22:19:37 2016
 By ,,,
2015 published by Monotype GmbH
</metadata>
<defs>
<font id="RealTextOT-Semilight" horiz-adv-x="600" >
  <font-face 
    font-family="RealTextOT-Semilight"
    font-weight="375"
    font-stretch="normal"
    units-per-em="1000"
    panose-1="2 11 5 4 2 1 1 1 1 2"
    ascent="800"
    descent="-200"
    x-height="521"
    cap-height="700"
    bbox="-384 -279 1385 958"
    underline-thickness="73"
    underline-position="-27"
    unicode-range="U+000D-1F310"
  />
<missing-glyph 
d="M531 700v-861h-462v861h462zM448 626h-295v-713h295v713z" />
    <glyph glyph-name="f_f" unicode="ff" horiz-adv-x="622" 
d="M553 645q-45 0 -64 -18t-19 -59v-47h149v-63h-149v-458h-82v458h-207v-458h-82v458h-73v63h73v50q0 57 42.5 97.5t127.5 40.5q78 0 155 -38q40 40 119 40q50 0 101 -17v-66q-49 17 -91 17zM388 521v50q0 25 6 48q-59 29 -122 29q-91 0 -91 -82v-45h207z" />
    <glyph glyph-name="f_f_i" unicode="ffi" horiz-adv-x="831" 
d="M465 521h285v-521h-82v458h-203v-458h-82v458h-202v-458h-82v458h-74v63h74v50q0 57 42 97.5t127 40.5q78 0 156 -38q47 40 134 40q70 0 124 -25v-66q-55 25 -115 25q-53 0 -77.5 -18t-24.5 -59v-47zM383 521v57q0 20 6 39q-59 27 -118 27q-47 0 -68.5 -18.5t-21.5 -59.5
v-45h202z" />
    <glyph glyph-name="f_f_j" unicode="ffj" horiz-adv-x="831" 
d="M465 521h285v-550q0 -75 -41.5 -111.5t-101.5 -36.5q-26 0 -53 5v65q12 -1 25 -1q49 0 69 21.5t20 85.5v459h-203v-458h-82v458h-202v-458h-82v458h-74v63h74v50q0 57 42 97.5t127 40.5q78 0 156 -38q47 40 134 40q70 0 124 -25v-66q-55 25 -115 25q-53 0 -77.5 -18
t-24.5 -59v-47zM383 521v57q0 20 6 39q-59 27 -118 27q-47 0 -68.5 -18.5t-21.5 -59.5v-45h202z" />
    <glyph glyph-name="f_f_l" unicode="ffl" horiz-adv-x="859" 
d="M796 65q3 0 29 2v-67q-25 -6 -54 -6q-109 0 -109 125v511q-51 15 -103 15q-49 0 -71.5 -18t-22.5 -59v-47h122v-63h-122v-458h-82v458h-202v-458h-82v458h-74v63h74v50q0 57 42 97.5t127 40.5q78 0 155 -38q45 40 126 40q58 0 113 -17l82 5v-566q0 -40 9 -54t43 -14z
M383 521v57q0 21 6 39q-59 27 -118 27q-47 0 -68.5 -18.5t-21.5 -59.5v-45h202z" />
    <glyph glyph-name="f_i" unicode="fi" horiz-adv-x="547" 
d="M274 711q70 0 124 -25v-66q-55 25 -115 25q-53 0 -77.5 -18t-24.5 -59v-47h285v-521h-82v458h-203v-458h-82v458h-74v63h74v57q0 57 43 95t132 38z" />
    <glyph glyph-name="f_j" unicode="fj" horiz-adv-x="547" 
d="M274 711q70 0 124 -25v-66q-55 25 -115 25q-53 0 -77.5 -18t-24.5 -59v-47h285v-550q0 -75 -41.5 -111.5t-101.5 -36.5q-26 0 -53 5v65q12 -1 25 -1q49 0 69 21.5t20 85.5v459h-203v-458h-82v458h-74v63h74v57q0 57 43 95t132 38z" />
    <glyph glyph-name="f_l" unicode="fl" horiz-adv-x="575" 
d="M265 711q58 0 113 -17l82 5v-566q0 -40 9 -54t43 -14q3 0 29 2v-67q-25 -6 -54 -6q-109 0 -109 125v511q-51 15 -103 15q-49 0 -71.5 -18t-22.5 -59v-47h122v-63h-122v-458h-82v458h-74v63h74v57q0 56 41.5 94.5t124.5 38.5z" />
    <glyph glyph-name=".notdef" 
d="M531 700v-861h-462v861h462zM448 626h-295v-713h295v713z" />
    <glyph glyph-name=".null" horiz-adv-x="0" 
 />
    <glyph glyph-name="nonmarkingreturn" horiz-adv-x="333" 
 />
    <glyph glyph-name="CR" unicode="&#xd;" horiz-adv-x="263" 
 />
    <glyph glyph-name="space" unicode=" " horiz-adv-x="263" 
 />
    <glyph glyph-name="exclam" unicode="!" horiz-adv-x="256" 
d="M173 703v-227l-16 -274h-58l-16 274v227h90zM129 108q24 0 41.5 -17t17.5 -42t-17.5 -42t-41.5 -17q-25 0 -42.5 17.5t-17.5 42.5q0 24 17.5 41t42.5 17z" />
    <glyph glyph-name="quotedbl" unicode="&#x22;" horiz-adv-x="420" 
d="M151 716v-284h-72v284h72zM341 716v-284h-72v284h72z" />
    <glyph glyph-name="numbersign" unicode="#" 
d="M546 454h-87l-33 -232h80v-61h-89l-23 -161h-70l23 161h-131l-23 -161h-70l23 161h-79v61h88l33 232h-81v61h90l24 165h70l-24 -165h131l24 165h70l-24 -165h78v-61zM356 222l33 232h-131l-33 -232h131z" />
    <glyph glyph-name="dollar" unicode="$" horiz-adv-x="643" 
d="M362 834v-120q149 -14 231 -121l-65 -46q-56 84 -168 96v-246q133 -27 186 -74.5t53 -130.5q0 -86 -61 -142.5t-176 -63.5v-135h-61v136q-172 11 -258 124l61 52q76 -95 200 -105v273q-226 45 -226 196q0 81 60.5 131.5t162.5 55.5v120h61zM304 408v236
q-67 -4 -103.5 -34t-36.5 -79q0 -50 28.5 -77.5t111.5 -45.5zM360 320v-263q73 5 113 40t40 91q0 51 -30.5 82t-122.5 50z" />
    <glyph glyph-name="percent" unicode="%" horiz-adv-x="1014" 
d="M230 714q78 0 131.5 -57.5t53.5 -169.5q0 -113 -53.5 -170.5t-131.5 -57.5q-79 0 -132.5 57.5t-53.5 170.5q0 112 54 169.5t132 57.5zM757 712l-433 -724h-70l433 724h70zM231 655q-54 0 -84 -42.5t-30 -124.5q0 -85 30 -128t84 -43q53 0 83 43t30 126t-30 126t-83 43z
M784 444q78 0 131.5 -57.5t53.5 -170.5t-53.5 -170.5t-131.5 -57.5q-79 0 -132.5 57.5t-53.5 170.5t53.5 170.5t132.5 57.5zM785 384q-54 0 -84 -42t-30 -125q0 -85 30 -127.5t84 -42.5q53 0 83 42.5t30 126.5t-30 126t-83 42z" />
    <glyph glyph-name="ampersand" unicode="&#x26;" horiz-adv-x="696" 
d="M294 -11q-65 0 -121 22t-94 72.5t-38 120.5q0 125 141 194q-51 49 -72 83t-21 77q0 74 54 115t135 41q82 0 131.5 -41t49.5 -101q0 -54 -34.5 -97.5t-130.5 -89.5l218 -206q30 71 28 188h81q-2 -80 -14.5 -134.5t-42.5 -102.5q60 -53 126 -70l-26 -71q-43 9 -74 27.5
t-72 56.5q-85 -84 -224 -84zM249 428q72 34 101 64t29 76q0 34 -28.5 58t-73.5 24q-50 0 -78.5 -25t-28.5 -65q0 -34 17 -61.5t62 -70.5zM297 61q112 0 173 59l-244 234q-102 -55 -102 -150q0 -66 46 -104.5t127 -38.5z" />
    <glyph glyph-name="quotesingle" unicode="'" horiz-adv-x="230" 
d="M151 716v-284h-72v284h72z" />
    <glyph glyph-name="parenleft" unicode="(" horiz-adv-x="277" 
d="M187 780h64q-59 -128 -86 -235.5t-27 -241.5t27 -241t86 -235h-64q-136 240 -136 476q0 237 136 477z" />
    <glyph glyph-name="parenright" unicode=")" horiz-adv-x="277" 
d="M26 780h64q136 -240 136 -477q0 -236 -136 -476h-64q59 128 86 235t27 241t-27 241.5t-86 235.5z" />
    <glyph glyph-name="asterisk" unicode="*" horiz-adv-x="459" 
d="M269 716l-13 -152l138 58l24 -75l-145 -31l103 -111l-66 -49l-79 129l-77 -131l-66 44l101 118l-148 31l24 75l139 -58l-14 152h79z" />
    <glyph glyph-name="plus" unicode="+" 
d="M340 489v-160h156v-73h-156v-160h-80v160h-156v73h156v160h80z" />
    <glyph glyph-name="comma" unicode="," horiz-adv-x="264" 
d="M131 108q26 0 43 -17.5t17 -44.5q0 -47 -24.5 -102.5t-66.5 -103.5l-43 22q38 63 44 137q-29 18 -29 51q0 24 17.5 41t41.5 17z" />
    <glyph glyph-name="hyphen" unicode="-" horiz-adv-x="360" 
d="M309 340v-73h-258v73h258z" />
    <glyph glyph-name="period" unicode="." horiz-adv-x="264" 
d="M133 108q24 0 41.5 -17t17.5 -42t-17.5 -42t-41.5 -17q-25 0 -42.5 17.5t-17.5 42.5q0 24 17.5 41t42.5 17z" />
    <glyph glyph-name="slash" unicode="/" horiz-adv-x="520" 
d="M469 775l-352 -935h-66l353 935h65z" />
    <glyph glyph-name="zero" unicode="0" horiz-adv-x="605" 
d="M302 588q118 0 192 -82t74 -221q0 -138 -73.5 -217t-192.5 -79t-192.5 79t-73.5 217q0 139 74 221t192 82zM302 519q-83 0 -132.5 -62.5t-49.5 -171.5q0 -107 49.5 -167.5t132.5 -60.5t132.5 60t49.5 168t-49.5 171t-132.5 63z" />
    <glyph glyph-name="one" unicode="1" horiz-adv-x="479" 
d="M66 0v69h163v301h-164v64h33q80 0 110.5 32t40.5 106h62v-503h147v-69h-392z" />
    <glyph glyph-name="two" unicode="2" horiz-adv-x="566" 
d="M290 584q97 0 153.5 -50.5t56.5 -130.5q0 -90 -71.5 -164t-244.5 -170h325v-69h-447v68q207 126 279.5 192.5t72.5 137.5q0 56 -34 87t-90 31q-67 0 -105 -39.5t-39 -95.5h-84q3 81 63 142t165 61z" />
    <glyph glyph-name="three" unicode="3" horiz-adv-x="568" 
d="M286 588q104 0 160.5 -50t56.5 -131q0 -64 -36 -106t-92 -51q60 -7 104.5 -54t44.5 -122q0 -101 -69 -160t-173 -59q-94 0 -161.5 50.5t-88.5 139.5l79 19q13 -64 57.5 -102t113.5 -38t113.5 39t44.5 113q0 65 -39 101.5t-103 36.5h-77v62h66q57 0 95 30t38 97
q0 57 -38 87.5t-98 30.5q-61 0 -101.5 -32t-54.5 -91l-78 14q14 74 77 125t159 51z" />
    <glyph glyph-name="four" unicode="4" horiz-adv-x="604" 
d="M463 572v-503h116v-69h-116v-130h-81v130h-338v72l317 500h102zM382 477l-254 -408h254v408z" />
    <glyph glyph-name="five" unicode="5" horiz-adv-x="588" 
d="M505 572l-12 -69h-307l-27 -206q62 65 160 65q91 0 156 -65.5t65 -168.5q0 -123 -68 -198t-185 -75q-95 0 -155.5 48.5t-81.5 110.5l74 22q15 -46 59 -79t107 -33q77 0 121.5 55t44.5 142q0 81 -42.5 126.5t-112.5 45.5q-98 0 -156 -82l-72 10l48 351h384z" />
    <glyph glyph-name="six" unicode="6" horiz-adv-x="580" 
d="M309 695q147 0 204 -138l-73 -24q-37 96 -131 96q-80 0 -126 -74.5t-54 -208.5q28 50 76.5 78.5t105.5 28.5q97 0 159 -62.5t62 -168.5q0 -104 -66 -169.5t-170 -65.5q-110 0 -178.5 78t-68.5 231q0 189 70 294t190 105zM296 385q-69 0 -113.5 -47t-44.5 -115
q0 -73 43.5 -120.5t112.5 -47.5t112 45t43 122q0 72 -40.5 117.5t-112.5 45.5z" />
    <glyph glyph-name="seven" unicode="7" horiz-adv-x="489" 
d="M477 572v-70q-125 -152 -190 -296.5t-87 -335.5h-87q22 201 92 343t196 288h-310v-79h-72v150h458z" />
    <glyph glyph-name="eight" unicode="8" horiz-adv-x="594" 
d="M295 695q108 0 164.5 -53t56.5 -124q0 -58 -32.5 -91.5t-88.5 -55.5q74 -25 115.5 -70.5t41.5 -108.5q0 -36 -13 -69.5t-40.5 -65.5t-80 -51t-123.5 -19q-127 0 -190 61t-63 143q0 61 38.5 106.5t104.5 66.5q-110 49 -110 154q0 70 56 123.5t164 53.5zM295 631
q-66 0 -103 -32t-37 -82q0 -47 33 -72t109 -46l31 -8q108 51 108 126q0 46 -36.5 80t-104.5 34zM282 334l-25 7q-133 -37 -133 -148q0 -57 45.5 -97.5t125.5 -40.5q90 0 132.5 43.5t42.5 97.5q0 24 -8.5 42.5t-23 31t-38 23.5t-47.5 19t-57 18q-9 3 -14 4z" />
    <glyph glyph-name="nine" unicode="9" horiz-adv-x="583" 
d="M289 588q110 0 177.5 -76.5t67.5 -232.5q0 -424 -263 -424q-154 0 -220 128l70 31q49 -92 151 -92q90 0 134 81.5t50 219.5q-28 -51 -77.5 -80.5t-108.5 -29.5q-95 0 -158.5 65.5t-63.5 170.5q0 107 67 173t174 66zM289 519q-69 0 -113.5 -45.5t-44.5 -124.5
q0 -72 41 -119t113 -47q69 0 113 49t44 118q0 78 -42 123.5t-111 45.5z" />
    <glyph glyph-name="colon" unicode=":" horiz-adv-x="265" 
d="M133 485q24 0 41.5 -17t17.5 -42t-17.5 -42t-41.5 -17q-25 0 -42.5 17.5t-17.5 42.5q0 24 17.5 41t42.5 17zM133 108q24 0 41.5 -17t17.5 -42t-17.5 -42t-41.5 -17q-25 0 -42.5 17.5t-17.5 42.5q0 24 17.5 41t42.5 17z" />
    <glyph glyph-name="semicolon" unicode=";" horiz-adv-x="265" 
d="M131 108q26 0 43 -17.5t17 -44.5q0 -47 -24.5 -102.5t-66.5 -103.5l-43 22q38 63 44 137q-29 18 -29 51q0 24 17.5 41t41.5 17zM133 485q24 0 41.5 -17t17.5 -42t-17.5 -42t-41.5 -17q-25 0 -42.5 17.5t-17.5 42.5q0 24 17.5 41t42.5 17z" />
    <glyph glyph-name="less" unicode="&#x3c;" 
d="M488 511v-79l-323 -141l323 -141v-79l-376 173v94z" />
    <glyph glyph-name="equal" unicode="=" 
d="M496 443v-73h-392v73h392zM496 235v-73h-392v73h392z" />
    <glyph glyph-name="greater" unicode="&#x3e;" 
d="M112 511l376 -173v-94l-376 -173v79l323 141l-323 141v79z" />
    <glyph glyph-name="question" unicode="?" horiz-adv-x="519" 
d="M265 711q60 0 104.5 -18t68 -47t34.5 -58.5t11 -58.5q0 -49 -19 -85.5t-46 -58t-54 -40.5t-46 -45t-19 -61v-37h-82v51q0 37 18.5 67.5t44.5 51.5t52.5 42t45 49t18.5 61q0 54 -33.5 85t-95.5 31q-116 0 -160 -122l-76 24q7 27 24.5 54.5t45 54t70.5 43.5t94 17zM262 108
q24 0 41.5 -17t17.5 -42t-17.5 -42t-41.5 -17q-25 0 -42.5 17.5t-17.5 42.5q0 24 17.5 41t42.5 17z" />
    <glyph glyph-name="at" unicode="@" horiz-adv-x="1031" 
d="M546 714q184 0 297 -106t113 -273q0 -73 -22.5 -141.5t-73 -117.5t-118.5 -49q-98 0 -111 103q-22 -51 -69 -78t-104 -27q-81 0 -129 55t-48 142q0 130 72.5 212t173.5 82q43 0 79 -19.5t51 -61.5l10 58h71l-50 -304q-7 -40 5.5 -69.5t47.5 -29.5q61 0 99 73.5t38 175.5
q0 137 -91.5 225.5t-241.5 88.5q-175 0 -283.5 -111.5t-108.5 -292.5q0 -162 95.5 -262.5t253.5 -100.5q96 0 199 35l21 -60q-117 -39 -221 -39q-187 0 -306 117.5t-119 307.5q0 208 131.5 337.5t338.5 129.5zM532 447q-78 0 -122.5 -66.5t-44.5 -159.5q0 -61 28.5 -94.5
t80.5 -33.5q64 0 110 54.5t51 164.5q4 71 -25 103t-78 32z" />
    <glyph glyph-name="A" unicode="A" horiz-adv-x="619" 
d="M511 0l-44 136h-319l-44 -136h-87l239 700h109l238 -700h-92zM308 629l-137 -421h272z" />
    <glyph glyph-name="B" unicode="B" horiz-adv-x="637" 
d="M443 378q75 -12 116 -59t41 -120q0 -90 -64 -144.5t-187 -54.5h-262v700h226q248 0 248 -177q0 -57 -32 -94.5t-86 -50.5zM321 626h-151v-219h178q57 0 92 28.5t35 83.5q0 56 -38 81.5t-116 25.5zM170 74h184q72 0 114.5 34.5t42.5 95.5q0 71 -42.5 102.5t-109.5 31.5
h-189v-264z" />
    <glyph glyph-name="C" unicode="C" horiz-adv-x="714" 
d="M371 714q57 0 108 -16.5t98.5 -62t73.5 -115.5l-83 -25q-53 144 -198 144q-103 0 -164.5 -75.5t-61.5 -211.5q0 -139 60 -215t166 -76q159 0 213 159l81 -27q-36 -103 -115.5 -155t-178.5 -52q-44 0 -86 11t-84 38t-73 67t-50.5 104.5t-19.5 144.5q0 94 26.5 166
t72 113.5t100 62.5t115.5 21z" />
    <glyph glyph-name="D" unicode="D" horiz-adv-x="692" 
d="M87 700h202q153 0 249.5 -86t96.5 -254q0 -99 -28 -172t-76 -112.5t-101 -57.5t-113 -18h-230v700zM294 624h-123v-548h147q45 0 82.5 12.5t73 42.5t55.5 88t20 140q0 122 -64.5 193.5t-190.5 71.5z" />
    <glyph glyph-name="E" unicode="E" horiz-adv-x="575" 
d="M510 700v-74h-340v-232h319v-74h-319v-246h349v-74h-432v700h423z" />
    <glyph glyph-name="F" unicode="F" horiz-adv-x="542" 
d="M498 700v-74h-328v-246h305v-74h-305v-306h-83v700h411z" />
    <glyph glyph-name="G" unicode="G" horiz-adv-x="733" 
d="M370 714q93 0 166.5 -44t111.5 -138l-76 -30q-55 138 -203 138q-105 0 -165 -77.5t-60 -215.5t59.5 -212.5t165.5 -74.5q90 0 148.5 51t58.5 150v30h-185v73h269v-364h-84v95q-65 -109 -213 -109q-44 0 -85.5 11t-82.5 37.5t-71 66.5t-48.5 103t-18.5 142
q0 94 26.5 166.5t71.5 115.5t99.5 64.5t115.5 21.5z" />
    <glyph glyph-name="H" unicode="H" horiz-adv-x="700" 
d="M613 700v-700h-83v327h-360v-327h-83v700h83v-299h360v299h83z" />
    <glyph glyph-name="I" unicode="I" horiz-adv-x="363" 
d="M322 700v-72h-99v-556h99v-72h-282v72h99v556h-99v72h282z" />
    <glyph glyph-name="J" unicode="J" horiz-adv-x="394" 
d="M320 700v-505q0 -98 -43 -149.5t-146 -51.5q-42 0 -101 7v74q31 -3 64 -3q83 0 112.5 28.5t29.5 102.5v497h84z" />
    <glyph glyph-name="K" unicode="K" horiz-adv-x="646" 
d="M528 0l-246 349l-112 -130v-219h-83v700h83v-370l315 370h101l-248 -289l289 -411h-99z" />
    <glyph glyph-name="L" unicode="L" horiz-adv-x="527" 
d="M170 700v-624h326v-76h-409v700h83z" />
    <glyph glyph-name="M" unicode="M" horiz-adv-x="824" 
d="M705 700l62 -700h-82l-56 623l-169 -623h-96l-171 623l-55 -623h-81l62 700h135l160 -600l157 600h134z" />
    <glyph glyph-name="N" unicode="N" horiz-adv-x="695" 
d="M608 700v-700h-89l-352 557v-557h-80v700h85l356 -569v569h80z" />
    <glyph glyph-name="O" unicode="O" horiz-adv-x="752" 
d="M376 714q56 0 109.5 -19t102 -59t78 -114t29.5 -173q0 -94 -27.5 -166t-74 -114t-101.5 -62.5t-116 -20.5q-56 0 -109.5 19t-102 59t-78 114t-29.5 173q0 94 27.5 166t74 114t101.5 62.5t116 20.5zM376 640q-104 0 -168 -76t-64 -212q0 -138 63 -215t169 -77
q102 0 167.5 76.5t65.5 211.5q0 138 -63 215t-170 77z" />
    <glyph glyph-name="P" unicode="P" horiz-adv-x="617" 
d="M87 700h240q124 0 186 -62t62 -154q0 -101 -62 -162.5t-183 -61.5h-160v-260h-83v700zM170 333h165q70 0 111.5 37t41.5 114q0 64 -39.5 103t-112.5 39h-166v-293z" />
    <glyph glyph-name="Q" unicode="Q" horiz-adv-x="754" 
d="M376 714q56 0 109.5 -19t102 -59t78 -114t29.5 -173q0 -200 -128 -299q54 -50 153 -70l-34 -84q-115 34 -182 117q-63 -27 -128 -27q-56 0 -109.5 19t-102 59t-78 114t-29.5 173q0 94 27.5 166t74 114t101.5 62.5t116 20.5zM376 639q-104 0 -168 -75.5t-64 -211.5
q0 -138 62.5 -214.5t169.5 -76.5q102 0 167.5 76t65.5 211q0 138 -63 214.5t-170 76.5z" />
    <glyph glyph-name="R" unicode="R" horiz-adv-x="625" 
d="M87 700h232q124 0 186 -57t62 -144q0 -74 -40.5 -126t-120.5 -69l191 -304h-96l-180 293h-151v-293h-83v700zM329 626h-159v-262h164q67 0 107 33t40 101q0 62 -39.5 95t-112.5 33z" />
    <glyph glyph-name="S" unicode="S" horiz-adv-x="636" 
d="M317 -14q-85 0 -161.5 30.5t-125.5 94.5l60 52q84 -103 229 -103q81 0 131 34.5t50 93.5q0 60 -42 92.5t-164 51.5q-228 36 -228 192q0 86 67 138t179 52q176 0 268 -122l-65 -48q-69 96 -203 96q-75 0 -118 -30t-43 -83q0 -52 41 -79t158 -47q125 -22 181 -71.5
t56 -137.5q0 -92 -69.5 -149t-200.5 -57z" />
    <glyph glyph-name="T" unicode="T" horiz-adv-x="577" 
d="M543 700v-74h-212v-626h-84v626h-212v74h508z" />
    <glyph glyph-name="U" unicode="U" horiz-adv-x="667" 
d="M592 700v-456q0 -50 -13 -93.5t-41.5 -81.5t-81 -60.5t-123.5 -22.5q-73 0 -125.5 22.5t-80 61.5t-39.5 81.5t-12 92.5v456h83v-453q0 -187 175 -187q87 0 131 48.5t44 138.5v453h83z" />
    <glyph glyph-name="V" unicode="V" horiz-adv-x="574" 
d="M557 700l-214 -700h-109l-217 700h91l183 -625l181 625h85z" />
    <glyph glyph-name="W" unicode="W" horiz-adv-x="837" 
d="M815 700l-156 -700h-99l-136 591l-128 -591h-103l-171 700h88l136 -613l132 613h93l139 -610l123 610h82z" />
    <glyph glyph-name="X" unicode="X" horiz-adv-x="628" 
d="M363 380l249 -380h-101l-201 313l-194 -313h-99l241 375l-208 325h99l162 -261l161 261h95z" />
    <glyph glyph-name="Y" unicode="Y" horiz-adv-x="605" 
d="M588 700l-242 -415v-285h-84v284l-244 416h95l193 -339l190 339h92z" />
    <glyph glyph-name="Z" unicode="Z" horiz-adv-x="601" 
d="M552 700v-71l-408 -553h416v-76h-524v67l412 559h-382v74h486z" />
    <glyph glyph-name="bracketleft" unicode="[" horiz-adv-x="300" 
d="M261 790v-66h-122v-828h122v-68h-203v962h203z" />
    <glyph glyph-name="backslash" unicode="\" horiz-adv-x="520" 
d="M116 775l353 -935h-66l-352 935h65z" />
    <glyph glyph-name="bracketright" unicode="]" horiz-adv-x="300" 
d="M39 724v66h203v-962h-203v68h122v828h-122z" />
    <glyph glyph-name="asciicircum" unicode="^" 
d="M342 714l183 -373h-89l-139 302l-138 -302h-85l183 373h85z" />
    <glyph glyph-name="underscore" unicode="_" horiz-adv-x="548" 
d="M550 -63v-73h-552v73h552z" />
    <glyph glyph-name="grave" unicode="`" horiz-adv-x="262" 
d="M139 728l93 -135h-72l-130 135h109z" />
    <glyph glyph-name="a" unicode="a" horiz-adv-x="552" 
d="M276 532q108 0 153.5 -42.5t45.5 -125.5v-238q0 -80 18 -126h-86q-9 29 -13 67q-56 -78 -172 -78q-83 0 -129 43t-46 111q0 148 210 173l136 17v25q0 61 -24.5 85t-94.5 24q-66 0 -95.5 -24t-31.5 -75h-79q2 80 56 122t152 42zM393 271l-112 -14q-79 -11 -114 -36
t-35 -73q0 -40 25.5 -64.5t79.5 -24.5q66 0 111 37.5t45 93.5v81z" />
    <glyph glyph-name="b" unicode="b" horiz-adv-x="607" 
d="M164 700v-259q27 43 70 67t93 24q105 0 166.5 -74.5t61.5 -197.5q0 -115 -61.5 -193t-162.5 -78q-118 0 -167 87v-76h-82v700h82zM314 462q-69 0 -111 -53.5t-42 -151.5q0 -96 43 -147t110 -51q71 0 114 54.5t43 145.5q0 95 -40.5 149t-116.5 54z" />
    <glyph glyph-name="c" unicode="c" horiz-adv-x="560" 
d="M299 532q75 0 131.5 -36t82.5 -96l-71 -29q-41 91 -139 91q-75 0 -120.5 -54.5t-45.5 -146.5q0 -93 44 -147.5t121 -54.5q105 0 149 110l73 -31q-30 -68 -86.5 -108.5t-139.5 -40.5q-115 0 -180.5 76t-65.5 195q0 120 67 196t180 76z" />
    <glyph glyph-name="d" unicode="d" horiz-adv-x="607" 
d="M525 700v-700h-82v80q-26 -43 -69.5 -67t-95.5 -24q-104 0 -165 74.5t-61 194.5t62 197t167 77q111 0 162 -85v253h82zM293 462q-74 0 -115 -54t-41 -148q0 -95 39.5 -148t115.5 -53q70 0 112 52.5t42 150.5q0 97 -42.5 148.5t-110.5 51.5z" />
    <glyph glyph-name="e" unicode="e" horiz-adv-x="572" 
d="M293 532q108 0 169.5 -77t61.5 -193v-19h-388q2 -88 45.5 -136.5t121.5 -48.5q99 0 148 83l68 -37q-75 -116 -219 -116q-116 0 -182 77.5t-66 195.5q0 120 63 195.5t178 75.5zM291 464q-68 0 -108.5 -43t-45.5 -115h302q-5 73 -43.5 115.5t-104.5 42.5z" />
    <glyph glyph-name="f" unicode="f" horiz-adv-x="333" 
d="M254 711q50 0 101 -17v-66q-49 17 -91 17q-45 0 -64 -18t-19 -59v-47h149v-63h-149v-458h-82v458h-74v63h74v50q0 62 37 101t118 39z" />
    <glyph glyph-name="g" unicode="g" horiz-adv-x="557" 
d="M532 555v-73q-55 0 -85 -21q34 -41 34 -100q0 -75 -57 -119.5t-154 -44.5q-61 0 -109 22q-23 -23 -23 -44q0 -52 71 -52h109q106 0 155 -40t49 -106q0 -70 -65 -112.5t-178 -42.5q-123 0 -180 38.5t-57 102.5q0 71 81 110q-57 27 -57 85q0 47 53 85q-60 45 -60 118
t54.5 122t154.5 49q80 0 134 -32q41 55 130 55zM270 470q-63 0 -97 -29.5t-34 -77.5q0 -49 34 -77t95 -28q63 0 97.5 27.5t34.5 77.5q0 49 -32.5 78t-97.5 29zM294 56h-113q-63 -33 -63 -83q0 -88 162 -88q78 0 120 24t42 65q0 42 -33 62t-115 20z" />
    <glyph glyph-name="h" unicode="h" horiz-adv-x="580" 
d="M164 700v-259q56 91 161 91q87 0 133 -52.5t46 -147.5v-332h-82v312q0 73 -25.5 111.5t-88.5 38.5q-61 0 -102.5 -47t-41.5 -125v-290h-82v700h82z" />
    <glyph glyph-name="i" unicode="i" horiz-adv-x="245" 
d="M164 521v-521h-82v521h82zM123 714q22 0 38 -15.5t16 -37.5t-16 -38t-38 -16q-23 0 -39 16t-16 38t16 37.5t39 15.5z" />
    <glyph glyph-name="j" unicode="j" horiz-adv-x="245" 
d="M164 521v-550q0 -75 -41.5 -111.5t-101.5 -36.5q-26 0 -53 5v65q12 -1 25 -1q49 0 69 21.5t20 85.5v522h82zM123 714q22 0 38 -15.5t16 -37.5t-16 -38t-38 -16q-23 0 -39 16t-16 38t16 37.5t39 15.5z" />
    <glyph glyph-name="k" unicode="k" horiz-adv-x="547" 
d="M164 700v-430l255 251h102l-207 -201l216 -320h-95l-178 266l-93 -91v-175h-82v700h82z" />
    <glyph glyph-name="l" unicode="l" horiz-adv-x="274" 
d="M159 700v-567q0 -40 9.5 -54t43.5 -14q2 0 28 2v-67q-26 -6 -54 -6q-109 0 -109 125v581h82z" />
    <glyph glyph-name="m" unicode="m" horiz-adv-x="883" 
d="M636 532q85 0 128 -52t43 -148v-332h-82v288q0 91 -22.5 132.5t-83.5 41.5q-58 0 -95.5 -46.5t-37.5 -125.5v-290h-82v283q0 94 -22.5 136.5t-83.5 42.5q-58 0 -96 -47t-38 -125v-290h-82v521h82v-75q52 86 150 86q116 0 151 -102q26 52 71.5 77t99.5 25z" />
    <glyph glyph-name="n" unicode="n" horiz-adv-x="580" 
d="M325 532q87 0 133 -52.5t46 -147.5v-332h-82v304q0 78 -25.5 118t-88.5 40q-61 0 -102.5 -47t-41.5 -125v-290h-82v521h82v-81q53 92 161 92z" />
    <glyph glyph-name="o" unicode="o" horiz-adv-x="602" 
d="M301 532q112 0 180.5 -78t68.5 -194q0 -121 -66 -196t-183 -75q-115 0 -182 76t-67 195t67.5 195.5t181.5 76.5zM301 462q-75 0 -119.5 -54t-44.5 -146q0 -94 43.5 -148.5t120.5 -54.5q78 0 121 54t43 149q0 91 -44.5 145.5t-119.5 54.5z" />
    <glyph glyph-name="p" unicode="p" horiz-adv-x="605" 
d="M328 532q103 0 164.5 -74.5t61.5 -193.5t-61 -197t-166 -78q-115 0 -164 87v-237h-81v682h81v-78q27 42 70.5 65.5t94.5 23.5zM315 462q-70 0 -112 -53t-42 -149q0 -99 42.5 -150t109.5 -51q71 0 114 54.5t43 150.5q0 91 -40 144.5t-115 53.5z" />
    <glyph glyph-name="q" unicode="q" horiz-adv-x="607" 
d="M280 532q114 0 163 -86v75h82v-682h-82v241q-26 -43 -70 -67t-95 -24q-104 0 -165 74.5t-61 194.5t61.5 197t166.5 77zM293 462q-74 0 -115 -54t-41 -148q0 -95 39.5 -148t115.5 -53q70 0 112 53t42 151q0 97 -42.5 148t-110.5 51z" />
    <glyph glyph-name="r" unicode="r" horiz-adv-x="378" 
d="M316 532q23 0 38 -3v-85q-6 0 -13.5 0.5t-11.5 1t-8 0.5q-157 0 -157 -202v-244h-82v521h82v-99q24 54 64.5 82t87.5 28z" />
    <glyph glyph-name="s" unicode="s" horiz-adv-x="519" 
d="M259 532q127 0 205 -76l-49 -49q-63 57 -156 57q-56 0 -87 -20.5t-31 -54.5q0 -36 30 -53.5t112 -30.5q101 -16 148 -51t47 -108q0 -70 -57.5 -113.5t-162.5 -43.5q-149 0 -232 89l53 52q67 -72 177 -72q68 0 103 23.5t35 61.5q0 40 -31.5 60t-123.5 34q-93 15 -136.5 51
t-43.5 97q0 67 55 107t145 40z" />
    <glyph glyph-name="t" unicode="t" horiz-adv-x="364" 
d="M181 660v-139h146v-63h-146v-319q0 -41 17 -61t60 -20q36 0 84 13v-66q-48 -16 -100 -16q-143 0 -143 139v330h-74v63h74v139h82z" />
    <glyph glyph-name="u" unicode="u" horiz-adv-x="575" 
d="M494 521v-521h-82v75q-26 -40 -68.5 -63t-90.5 -23q-84 0 -130 46.5t-46 136.5v349h82v-332q0 -67 26 -97.5t84 -30.5q62 0 102.5 43t40.5 120v297h82z" />
    <glyph glyph-name="v" unicode="v" horiz-adv-x="500" 
d="M483 521l-185 -521h-96l-184 521h89l144 -438l147 438h85z" />
    <glyph glyph-name="w" unicode="w" horiz-adv-x="772" 
d="M749 521l-153 -521h-96l-113 414l-115 -414h-96l-153 521h89l114 -430l114 430h92l118 -429l115 429h84z" />
    <glyph glyph-name="x" unicode="x" horiz-adv-x="508" 
d="M465 521l-159 -237l185 -284h-96l-142 223l-141 -223h-95l186 280l-160 241h97l116 -179l115 179h94z" />
    <glyph glyph-name="y" unicode="y" horiz-adv-x="498" 
d="M480 521l-177 -549q-24 -75 -61.5 -112.5t-113.5 -37.5q-34 0 -58 6v64q18 -2 43 -2q54 0 76.5 24.5t39.5 85.5h-27l-184 521h89l151 -457l137 457h85z" />
    <glyph glyph-name="z" unicode="z" horiz-adv-x="472" 
d="M434 521v-65l-300 -385h303v-71h-406v63l303 389h-273v69h373z" />
    <glyph glyph-name="braceleft" unicode="{" horiz-adv-x="300" 
d="M273 790v-68h-12q-44 0 -59.5 -20t-15.5 -59v-231q0 -46 -26.5 -72.5t-54.5 -30.5q28 -4 54.5 -31t26.5 -73v-228q0 -39 15.5 -59t59.5 -20h12v-68h-28q-66 0 -103.5 36t-37.5 96v231q0 46 -14.5 66t-47.5 25v50q33 5 47.5 24.5t14.5 65.5v234q0 60 37.5 96t103.5 36h28z
" />
    <glyph glyph-name="bar" unicode="|" horiz-adv-x="300" 
d="M180 774v-935h-61v935h61z" />
    <glyph glyph-name="braceright" unicode="}" horiz-adv-x="300" 
d="M27 722v68h28q66 0 103.5 -36t37.5 -96v-234q0 -46 14.5 -65.5t47.5 -24.5v-50q-33 -5 -47.5 -25t-14.5 -66v-231q0 -60 -37.5 -96t-103.5 -36h-28v68h12q44 0 59.5 20t15.5 59v228q0 46 26.5 73t54.5 31q-28 4 -54.5 30.5t-26.5 72.5v231q0 39 -15.5 59t-59.5 20h-12z
" />
    <glyph glyph-name="asciitilde" unicode="~" 
d="M217 378q46 0 99 -29.5t72 -29.5q48 0 80 54l47 -40q-48 -86 -132 -86q-46 0 -99 30t-72 30q-48 0 -80 -54l-47 40q47 85 132 85z" />
    <glyph glyph-name="uni00A0" unicode="&#xa0;" horiz-adv-x="263" 
 />
    <glyph glyph-name="exclamdown" unicode="&#xa1;" horiz-adv-x="256" 
d="M128 530q24 0 41.5 -17.5t17.5 -41.5q0 -25 -17.5 -42.5t-41.5 -17.5q-25 0 -42.5 17t-17.5 42t17.5 42.5t42.5 17.5zM157 314l16 -248v-227h-90v227l16 248h58z" />
    <glyph glyph-name="cent" unicode="&#xa2;" 
d="M466 162l66 -24q-55 -136 -202 -148v-139h-52v139q-101 9 -156 83.5t-55 186.5q0 113 55.5 186.5t155.5 83.5v138h52v-137q68 -5 118.5 -40.5t74.5 -90.5l-64 -26q-38 85 -131 93v-413q98 9 138 108zM146 261q0 -189 135 -207v412q-66 -8 -100.5 -61t-34.5 -144z" />
    <glyph glyph-name="sterling" unicode="&#xa3;" horiz-adv-x="660" 
d="M377 714q76 0 126.5 -40t70.5 -102l-78 -23q-30 98 -122 98q-56 0 -90.5 -34.5t-34.5 -93.5v-157h226v-52h-226v-119q0 -46 -9.5 -72.5t-39.5 -46.5h353v-72h-438l-10 63q41 17 54 44t13 82v121h-85v52h85v161q0 80 53 135.5t152 55.5z" />
    <glyph glyph-name="currency" unicode="&#xa4;" horiz-adv-x="620" 
d="M81 563l100 -101q58 38 129 38q75 0 130 -38l99 100l50 -50l-99 -99q39 -55 39 -130q0 -78 -40 -132l100 -99l-50 -49l-100 99q-56 -37 -128 -37q-74 0 -130 37l-100 -100l-50 49l100 101q-39 55 -39 131q0 74 39 129l-100 101zM310 433q-65 0 -102.5 -40t-37.5 -110
q0 -71 38 -111.5t103 -40.5t102.5 40.5t37.5 111.5q0 70 -38 110t-103 40z" />
    <glyph glyph-name="yen" unicode="&#xa5;" horiz-adv-x="638" 
d="M604 700l-214 -355h139v-51h-167v-86h167v-51h-167v-157h-84v157h-167v51h167v86h-167v51h138l-215 355h95l193 -331l190 331h92z" />
    <glyph glyph-name="brokenbar" unicode="&#xa6;" horiz-adv-x="300" 
d="M180 774v-369h-61v369h61zM180 208v-369h-61v369h61z" />
    <glyph glyph-name="section" unicode="&#xa7;" 
d="M303 711q124 -1 203 -74l-50 -52q-64 58 -153 58q-56 0 -87.5 -21t-31.5 -56q0 -37 30 -56t110 -32q100 -16 151 -54t51 -109q0 -37 -21.5 -68t-67.5 -66q61 -38 61 -108q0 -68 -56 -108.5t-147 -40.5q-125 0 -209 79l51 48q66 -59 158 -59q56 0 88.5 21.5t32.5 55.5
q0 37 -30 56t-110 32q-101 16 -152 54t-51 109q0 69 89 134q-60 39 -60 108q0 68 55 108.5t146 40.5zM215 429q-35 -33 -47.5 -54.5t-12.5 -50.5q0 -40 36.5 -64.5t127.5 -40.5q35 -6 66 -14q35 35 48 56t13 50q0 40 -36.5 65t-127.5 40q-10 2 -67 13z" />
    <glyph glyph-name="dieresis" unicode="&#xa8;" horiz-adv-x="378" 
d="M82 709q21 0 36.5 -15.5t15.5 -36.5t-15.5 -36t-36.5 -15t-36.5 15t-15.5 36t15.5 36.5t36.5 15.5zM296 709q21 0 36.5 -15.5t15.5 -36.5t-15.5 -36t-36.5 -15t-36.5 15t-15.5 36t15.5 36.5t36.5 15.5z" />
    <glyph glyph-name="copyright" unicode="&#xa9;" horiz-adv-x="900" 
d="M451 714q152 0 258 -106t106 -259t-105.5 -258t-258.5 -105q-152 0 -258.5 105.5t-106.5 257.5q0 153 106.5 259t258.5 106zM451 667q-132 0 -223.5 -93t-91.5 -225t91.5 -224t223.5 -92q131 0 221.5 92t90.5 224t-90.5 225t-221.5 93zM448 569q127 0 171 -118l-54 -16
q-29 86 -117 86q-60 0 -95 -44t-35 -127q0 -76 34.5 -123.5t97.5 -47.5q89 0 122 92l53 -19q-48 -122 -177 -122q-90 0 -139 62.5t-49 156.5q0 113 57 166.5t131 53.5z" />
    <glyph glyph-name="ordfeminine" unicode="&#xaa;" horiz-adv-x="424" 
d="M213 714q82 0 117.5 -31.5t35.5 -93.5v-181q0 -59 13 -94h-73q-8 20 -10 45q-44 -54 -128 -54q-62 0 -96.5 32.5t-34.5 84.5q0 111 160 131l97 12v18q0 43 -17 60t-66 17q-87 0 -88 -69h-70q1 60 43 91.5t117 31.5zM294 514l-78 -10q-56 -8 -80.5 -25.5t-24.5 -51.5
q0 -63 74 -63q46 0 77.5 26.5t31.5 66.5v57z" />
    <glyph glyph-name="guillemotleft" unicode="&#xab;" horiz-adv-x="465" 
d="M180 476l43 -30l-94 -167l94 -169l-43 -30l-128 157v84zM370 476l43 -30l-94 -167l94 -169l-43 -30l-128 157v84z" />
    <glyph glyph-name="logicalnot" unicode="&#xac;" 
d="M496 329v-237h-80v164h-312v73h392z" />
    <glyph glyph-name="uni00AD" unicode="&#xad;" horiz-adv-x="360" 
d="M309 340v-73h-258v73h258z" />
    <glyph glyph-name="registered" unicode="&#xae;" horiz-adv-x="900" 
d="M451 714q152 0 258 -106t106 -259t-105.5 -258t-258.5 -105q-152 0 -258.5 105.5t-106.5 257.5q0 153 106.5 259t258.5 106zM451 667q-132 0 -223.5 -93t-91.5 -225t91.5 -224t223.5 -92q131 0 221.5 92t90.5 224t-90.5 225t-221.5 93zM313 569h153q68 0 107.5 -33
t39.5 -92q0 -45 -29 -76.5t-70 -37.5l108 -181h-61l-103 173h-91v-173h-54v420zM467 523h-100v-156h101q39 0 62.5 20.5t23.5 58.5q0 36 -24.5 56.5t-62.5 20.5z" />
    <glyph glyph-name="macron" unicode="&#xaf;" horiz-adv-x="374" 
d="M344 685v-59h-314v59h314z" />
    <glyph glyph-name="degree" unicode="&#xb0;" horiz-adv-x="499" 
d="M250 710q74 0 128 -48.5t54 -128.5t-54 -128t-128 -48t-128.5 48.5t-54.5 128.5t54.5 128t128.5 48zM249 649q-44 0 -75.5 -29.5t-31.5 -85.5t31.5 -86t75.5 -30q43 0 75 30t32 85q0 56 -31.5 86t-75.5 30z" />
    <glyph glyph-name="plusminus" unicode="&#xb1;" 
d="M344 489v-160h156v-73h-156v-124h-80v124h-156v73h156v160h80zM492 82v-73h-392v73h392z" />
    <glyph glyph-name="twosuperior" unicode="&#xb2;" horiz-adv-x="400" 
d="M202 760q70 0 110.5 -34t40.5 -91q0 -120 -207 -243h215v-62h-321v59q120 80 174.5 137t54.5 107q0 66 -71 66q-37 0 -56 -21.5t-20 -58.5h-80q1 60 41.5 100.5t118.5 40.5z" />
    <glyph glyph-name="threesuperior" unicode="&#xb3;" horiz-adv-x="400" 
d="M203 760q72 0 112.5 -31t40.5 -81q0 -38 -24 -62.5t-66 -30.5q45 -5 74 -31.5t29 -71.5q0 -60 -46.5 -95t-121.5 -35q-66 0 -111 30t-59 83l72 17q8 -32 33.5 -50t64.5 -18q38 0 62.5 18.5t24.5 53.5q0 32 -23 49.5t-61 17.5h-47v57h41q34 0 56 15t22 45q0 29 -20.5 44.5
t-54.5 15.5q-72 0 -89 -62l-71 11q13 50 56 80.5t106 30.5z" />
    <glyph glyph-name="acute" unicode="&#xb4;" horiz-adv-x="262" 
d="M232 728l-130 -135h-72l94 135h108z" />
    <glyph glyph-name="mu" unicode="&#xb5;" horiz-adv-x="580" 
d="M499 521v-521h-82v85q-39 -99 -142 -99q-81 0 -111 61v-208h-82v682h82v-332q0 -130 111 -130q62 0 102 43.5t40 121.5v297h82z" />
    <glyph glyph-name="paragraph" unicode="&#xb6;" horiz-adv-x="604" 
d="M523 700v-861h-48v817h-147v-817h-49v487q-87 2 -142.5 56.5t-55.5 128.5q0 81 56 135t154 54h232z" />
    <glyph glyph-name="periodcentered" unicode="&#xb7;" horiz-adv-x="264" 
d="M133 354q24 0 41.5 -17t17.5 -42t-17.5 -42t-41.5 -17q-25 0 -42.5 17.5t-17.5 42.5q0 24 17.5 41t42.5 17z" />
    <glyph glyph-name="cedilla" unicode="&#xb8;" horiz-adv-x="284" 
d="M151 6l-1 -56q49 -4 77.5 -27t28.5 -56q0 -44 -33.5 -69t-87.5 -25q-62 0 -105 25l24 43q31 -17 71 -17q64 0 64 43q0 27 -26 36.5t-79 10.5l17 92h50z" />
    <glyph glyph-name="onesuperior" unicode="&#xb9;" horiz-adv-x="400" 
d="M74 330v62h109v232h-107v51h19q56 0 76.5 16.5t25.5 58.5h63v-358h92v-62h-278z" />
    <glyph glyph-name="ordmasculine" unicode="&#xba;" horiz-adv-x="463" 
d="M232 714q87 0 139.5 -58.5t52.5 -146.5q0 -91 -51.5 -147.5t-140.5 -56.5t-140.5 57.5t-51.5 146.5q0 90 52 147.5t140 57.5zM232 655q-54 0 -85.5 -38.5t-31.5 -105.5q0 -69 31 -108t86 -39t86 39t31 108q0 66 -32 105t-85 39z" />
    <glyph glyph-name="guillemotright" unicode="&#xbb;" horiz-adv-x="465" 
d="M283 476l129 -155v-84l-129 -157l-42 30l94 169l-94 167zM95 476l129 -155v-84l-129 -157l-42 30l94 169l-94 167z" />
    <glyph glyph-name="onequarter" unicode="&#xbc;" horiz-adv-x="914" 
d="M754 712l-433 -724h-70l433 724h70zM831 420v-274h64v-62h-64v-84h-76v84h-223v64l198 272h101zM755 344l-148 -198h148v198zM74 280v62h109v232h-107v51h19q56 0 76.5 16.5t25.5 58.5h63v-358h92v-62h-278z" />
    <glyph glyph-name="onehalf" unicode="&#xbd;" horiz-adv-x="964" 
d="M754 712l-433 -724h-70l433 724h70zM766 430q70 0 110.5 -34t40.5 -91q0 -120 -207 -243h215v-62h-321v59q120 80 174.5 137t54.5 107q0 66 -71 66q-37 0 -56 -21.5t-20 -58.5h-80q1 60 41.5 100.5t118.5 40.5zM74 280v62h109v232h-107v51h19q56 0 76.5 16.5t25.5 58.5
h63v-358h92v-62h-278z" />
    <glyph glyph-name="threequarters" unicode="&#xbe;" horiz-adv-x="874" 
d="M714 712l-433 -724h-70l433 724h70zM791 420v-274h64v-62h-64v-84h-76v84h-223v64l198 272h101zM715 344l-148 -198h148v198zM203 710q72 0 112.5 -31t40.5 -81q0 -38 -24 -62.5t-66 -30.5q45 -5 74 -31.5t29 -71.5q0 -60 -46.5 -95t-121.5 -35q-66 0 -111 30t-59 83
l72 17q8 -32 33.5 -50t64.5 -18q38 0 62.5 18.5t24.5 53.5q0 32 -23 49.5t-61 17.5h-47v57h41q34 0 56 15t22 45q0 29 -20.5 44.5t-54.5 15.5q-72 0 -89 -62l-71 11q13 50 56 80.5t106 30.5z" />
    <glyph glyph-name="questiondown" unicode="&#xbf;" horiz-adv-x="519" 
d="M260 530q24 0 41.5 -17t17.5 -42q0 -24 -17.5 -41.5t-41.5 -17.5q-25 0 -42.5 17t-17.5 42q0 24 17.5 41.5t42.5 17.5zM302 322v-42q0 -37 -18.5 -67.5t-45 -51.5t-52.5 -42t-44.5 -49t-18.5 -61q0 -54 33.5 -84.5t95.5 -30.5q116 0 160 121l76 -23q-7 -27 -24.5 -54.5
t-45 -54.5t-70.5 -44t-94 -17q-60 0 -104.5 18t-68 47t-34.5 58.5t-11 58.5q0 49 19 85.5t46 58t54 40.5t46 45t19 61v28h82z" />
    <glyph glyph-name="Agrave" unicode="&#xc0;" horiz-adv-x="619" 
d="M511 0l-44 136h-319l-44 -136h-87l239 700h109l238 -700h-92zM308 629l-137 -421h272zM262 884l94 -131h-72l-134 131h112z" />
    <glyph glyph-name="Aacute" unicode="&#xc1;" horiz-adv-x="619" 
d="M511 0l-44 136h-319l-44 -136h-87l239 700h109l238 -700h-92zM308 629l-137 -421h272zM475 884l-134 -131h-72l94 131h112z" />
    <glyph glyph-name="Acircumflex" unicode="&#xc2;" horiz-adv-x="619" 
d="M511 0l-44 136h-319l-44 -136h-87l239 700h109l238 -700h-92zM308 629l-137 -421h272zM350 887l133 -129h-79l-94 78l-95 -78h-79l133 129h81z" />
    <glyph glyph-name="Atilde" unicode="&#xc3;" horiz-adv-x="619" 
d="M511 0l-44 136h-319l-44 -136h-87l239 700h109l238 -700h-92zM308 629l-137 -421h272zM250 872q38 0 74 -26t51 -26q31 0 49 42h49q-7 -44 -34 -72.5t-69 -28.5q-30 0 -53.5 13.5t-40 26.5t-31.5 13q-32 0 -50 -44h-49q7 45 34.5 73.5t69.5 28.5z" />
    <glyph glyph-name="Adieresis" unicode="&#xc4;" horiz-adv-x="619" 
d="M511 0l-44 136h-319l-44 -136h-87l239 700h109l238 -700h-92zM308 629l-137 -421h272zM203 869q21 0 36.5 -15.5t15.5 -36.5t-15.5 -36t-36.5 -15t-36.5 15t-15.5 36t15.5 36.5t36.5 15.5zM417 869q21 0 36.5 -15.5t15.5 -36.5t-15.5 -36t-36.5 -15t-36.5 15t-15.5 36
t15.5 36.5t36.5 15.5z" />
    <glyph glyph-name="Aring" unicode="&#xc5;" horiz-adv-x="619" 
d="M511 0l-44 136h-319l-44 -136h-87l239 700h109l238 -700h-92zM308 629l-137 -421h272zM310 958q48 0 83 -32t35 -81t-35 -80.5t-83 -31.5t-83 31.5t-35 80.5t35 81t83 32zM310 911q-26 0 -44.5 -18t-18.5 -48t18 -47.5t45 -17.5q26 0 44 17.5t18 47.5t-18 48t-44 18z" />
    <glyph glyph-name="AE" unicode="&#xc6;" horiz-adv-x="955" 
d="M866 700v-74h-373l36 -232h323v-74h-311l39 -246h339v-74h-416l-19 132h-319l-68 -132h-90l365 700h494zM412 622l-213 -418h274z" />
    <glyph glyph-name="Ccedilla" unicode="&#xc7;" horiz-adv-x="714" 
d="M371 714q57 0 108 -16.5t98.5 -62t73.5 -115.5l-83 -25q-53 144 -198 144q-103 0 -164.5 -75.5t-61.5 -211.5q0 -139 60 -215t166 -76q159 0 213 159l81 -27q-34 -99 -108.5 -150.5t-168.5 -55.5v-37q49 -4 77.5 -27t28.5 -56q0 -44 -33.5 -69t-87.5 -25q-62 0 -105 25
l24 43q31 -17 71 -17q64 0 64 43q0 27 -26 36.5t-79 10.5l13 74q-53 6 -99.5 27.5t-87.5 62.5t-65.5 111.5t-24.5 161.5q0 94 26.5 166t72 113.5t100 62.5t115.5 21z" />
    <glyph glyph-name="Egrave" unicode="&#xc8;" horiz-adv-x="575" 
d="M510 700v-74h-340v-232h319v-74h-319v-246h349v-74h-432v700h423zM253 884l94 -131h-72l-134 131h112z" />
    <glyph glyph-name="Eacute" unicode="&#xc9;" horiz-adv-x="575" 
d="M510 700v-74h-340v-232h319v-74h-319v-246h349v-74h-432v700h423zM466 884l-134 -131h-72l94 131h112z" />
    <glyph glyph-name="Ecircumflex" unicode="&#xca;" horiz-adv-x="575" 
d="M510 700v-74h-340v-232h319v-74h-319v-246h349v-74h-432v700h423zM341 887l133 -129h-79l-94 78l-95 -78h-79l133 129h81z" />
    <glyph glyph-name="Edieresis" unicode="&#xcb;" horiz-adv-x="575" 
d="M510 700v-74h-340v-232h319v-74h-319v-246h349v-74h-432v700h423zM194 869q21 0 36.5 -15.5t15.5 -36.5t-15.5 -36t-36.5 -15t-36.5 15t-15.5 36t15.5 36.5t36.5 15.5zM408 869q21 0 36.5 -15.5t15.5 -36.5t-15.5 -36t-36.5 -15t-36.5 15t-15.5 36t15.5 36.5t36.5 15.5z
" />
    <glyph glyph-name="Igrave" unicode="&#xcc;" horiz-adv-x="363" 
d="M322 700v-72h-99v-556h99v-72h-282v72h99v556h-99v72h282zM133 884l94 -131h-72l-134 131h112z" />
    <glyph glyph-name="Iacute" unicode="&#xcd;" horiz-adv-x="363" 
d="M322 700v-72h-99v-556h99v-72h-282v72h99v556h-99v72h282zM346 884l-134 -131h-72l94 131h112z" />
    <glyph glyph-name="Icircumflex" unicode="&#xce;" horiz-adv-x="363" 
d="M322 700v-72h-99v-556h99v-72h-282v72h99v556h-99v72h282zM221 887l133 -129h-79l-94 78l-95 -78h-79l133 129h81z" />
    <glyph glyph-name="Idieresis" unicode="&#xcf;" horiz-adv-x="363" 
d="M322 700v-72h-99v-556h99v-72h-282v72h99v556h-99v72h282zM74 869q21 0 36.5 -15.5t15.5 -36.5t-15.5 -36t-36.5 -15t-36.5 15t-15.5 36t15.5 36.5t36.5 15.5zM288 869q21 0 36.5 -15.5t15.5 -36.5t-15.5 -36t-36.5 -15t-36.5 15t-15.5 36t15.5 36.5t36.5 15.5z" />
    <glyph glyph-name="Eth" unicode="&#xd0;" horiz-adv-x="718" 
d="M113 700h202q153 0 249.5 -86t96.5 -254q0 -99 -28 -172t-76 -112.5t-101 -57.5t-113 -18h-230v337h-84v57h84v306zM197 76h147q45 0 82.5 12.5t73 42.5t55.5 88t20 140q0 122 -64.5 193.5t-190.5 71.5h-123v-230h197v-57h-197v-261z" />
    <glyph glyph-name="Ntilde" unicode="&#xd1;" horiz-adv-x="695" 
d="M608 700v-700h-89l-352 557v-557h-80v700h85l356 -569v569h80zM288 872q38 0 74 -26t51 -26q31 0 49 42h49q-7 -44 -34 -72.5t-69 -28.5q-30 0 -53.5 13.5t-40 26.5t-31.5 13q-32 0 -50 -44h-49q7 45 34.5 73.5t69.5 28.5z" />
    <glyph glyph-name="Ograve" unicode="&#xd2;" horiz-adv-x="752" 
d="M376 714q56 0 109.5 -19t102 -59t78 -114t29.5 -173q0 -94 -27.5 -166t-74 -114t-101.5 -62.5t-116 -20.5q-56 0 -109.5 19t-102 59t-78 114t-29.5 173q0 94 27.5 166t74 114t101.5 62.5t116 20.5zM376 640q-104 0 -168 -76t-64 -212q0 -138 63 -215t169 -77
q102 0 167.5 76.5t65.5 211.5q0 138 -63 215t-170 77zM328 884l94 -131h-72l-134 131h112z" />
    <glyph glyph-name="Oacute" unicode="&#xd3;" horiz-adv-x="752" 
d="M376 714q56 0 109.5 -19t102 -59t78 -114t29.5 -173q0 -94 -27.5 -166t-74 -114t-101.5 -62.5t-116 -20.5q-56 0 -109.5 19t-102 59t-78 114t-29.5 173q0 94 27.5 166t74 114t101.5 62.5t116 20.5zM376 640q-104 0 -168 -76t-64 -212q0 -138 63 -215t169 -77
q102 0 167.5 76.5t65.5 211.5q0 138 -63 215t-170 77zM541 884l-134 -131h-72l94 131h112z" />
    <glyph glyph-name="Ocircumflex" unicode="&#xd4;" horiz-adv-x="752" 
d="M376 714q56 0 109.5 -19t102 -59t78 -114t29.5 -173q0 -94 -27.5 -166t-74 -114t-101.5 -62.5t-116 -20.5q-56 0 -109.5 19t-102 59t-78 114t-29.5 173q0 94 27.5 166t74 114t101.5 62.5t116 20.5zM376 640q-104 0 -168 -76t-64 -212q0 -138 63 -215t169 -77
q102 0 167.5 76.5t65.5 211.5q0 138 -63 215t-170 77zM416 887l133 -129h-79l-94 78l-95 -78h-79l133 129h81z" />
    <glyph glyph-name="Otilde" unicode="&#xd5;" horiz-adv-x="752" 
d="M376 714q56 0 109.5 -19t102 -59t78 -114t29.5 -173q0 -94 -27.5 -166t-74 -114t-101.5 -62.5t-116 -20.5q-56 0 -109.5 19t-102 59t-78 114t-29.5 173q0 94 27.5 166t74 114t101.5 62.5t116 20.5zM376 640q-104 0 -168 -76t-64 -212q0 -138 63 -215t169 -77
q102 0 167.5 76.5t65.5 211.5q0 138 -63 215t-170 77zM316 872q38 0 74 -26t51 -26q31 0 49 42h49q-7 -44 -34 -72.5t-69 -28.5q-30 0 -53.5 13.5t-40 26.5t-31.5 13q-32 0 -50 -44h-49q7 45 34.5 73.5t69.5 28.5z" />
    <glyph glyph-name="Odieresis" unicode="&#xd6;" horiz-adv-x="752" 
d="M376 714q56 0 109.5 -19t102 -59t78 -114t29.5 -173q0 -94 -27.5 -166t-74 -114t-101.5 -62.5t-116 -20.5q-56 0 -109.5 19t-102 59t-78 114t-29.5 173q0 94 27.5 166t74 114t101.5 62.5t116 20.5zM376 640q-104 0 -168 -76t-64 -212q0 -138 63 -215t169 -77
q102 0 167.5 76.5t65.5 211.5q0 138 -63 215t-170 77zM269 869q21 0 36.5 -15.5t15.5 -36.5t-15.5 -36t-36.5 -15t-36.5 15t-15.5 36t15.5 36.5t36.5 15.5zM483 869q21 0 36.5 -15.5t15.5 -36.5t-15.5 -36t-36.5 -15t-36.5 15t-15.5 36t15.5 36.5t36.5 15.5z" />
    <glyph glyph-name="multiply" unicode="&#xd7;" 
d="M444 477l52 -52l-146 -145l146 -145l-52 -51l-144 144l-145 -144l-52 51l145 145l-145 145l52 52l145 -146z" />
    <glyph glyph-name="Oslash" unicode="&#xd8;" horiz-adv-x="752" 
d="M681 759l-83 -134q97 -97 97 -276q0 -94 -27.5 -166t-74 -114t-101.5 -62.5t-116 -20.5q-88 0 -160 41l-72 -117h-72l96 151q-111 97 -111 290q0 94 27.5 166t74 114t101.5 62.5t116 20.5q98 0 174 -50l61 95h70zM144 352q0 -145 69 -222l299 466q-57 43 -136 43
q-104 0 -168 -75.5t-64 -211.5zM376 61q102 0 167.5 76t65.5 211q0 131 -58 209l-294 -464q52 -32 119 -32z" />
    <glyph glyph-name="Ugrave" unicode="&#xd9;" horiz-adv-x="667" 
d="M592 700v-456q0 -50 -13 -93.5t-41.5 -81.5t-81 -60.5t-123.5 -22.5q-73 0 -125.5 22.5t-80 61.5t-39.5 81.5t-12 92.5v456h83v-453q0 -187 175 -187q87 0 131 48.5t44 138.5v453h83zM286 884l94 -131h-72l-134 131h112z" />
    <glyph glyph-name="Uacute" unicode="&#xda;" horiz-adv-x="667" 
d="M592 700v-456q0 -50 -13 -93.5t-41.5 -81.5t-81 -60.5t-123.5 -22.5q-73 0 -125.5 22.5t-80 61.5t-39.5 81.5t-12 92.5v456h83v-453q0 -187 175 -187q87 0 131 48.5t44 138.5v453h83zM499 884l-134 -131h-72l94 131h112z" />
    <glyph glyph-name="Ucircumflex" unicode="&#xdb;" horiz-adv-x="667" 
d="M592 700v-456q0 -50 -13 -93.5t-41.5 -81.5t-81 -60.5t-123.5 -22.5q-73 0 -125.5 22.5t-80 61.5t-39.5 81.5t-12 92.5v456h83v-453q0 -187 175 -187q87 0 131 48.5t44 138.5v453h83zM374 887l133 -129h-79l-94 78l-95 -78h-79l133 129h81z" />
    <glyph glyph-name="Udieresis" unicode="&#xdc;" horiz-adv-x="667" 
d="M592 700v-456q0 -50 -13 -93.5t-41.5 -81.5t-81 -60.5t-123.5 -22.5q-73 0 -125.5 22.5t-80 61.5t-39.5 81.5t-12 92.5v456h83v-453q0 -187 175 -187q87 0 131 48.5t44 138.5v453h83zM227 869q21 0 36.5 -15.5t15.5 -36.5t-15.5 -36t-36.5 -15t-36.5 15t-15.5 36
t15.5 36.5t36.5 15.5zM441 869q21 0 36.5 -15.5t15.5 -36.5t-15.5 -36t-36.5 -15t-36.5 15t-15.5 36t15.5 36.5t36.5 15.5z" />
    <glyph glyph-name="Yacute" unicode="&#xdd;" horiz-adv-x="605" 
d="M588 700l-242 -415v-285h-84v284l-244 416h95l193 -339l190 339h92zM468 884l-134 -131h-72l94 131h112z" />
    <glyph glyph-name="Thorn" unicode="&#xde;" horiz-adv-x="617" 
d="M170 700v-121h157q124 0 186 -63.5t62 -155.5q0 -101 -62.5 -164t-182.5 -63h-160v-133h-83v700h83zM337 506h-167v-301h166q69 0 111 39t42 115q0 65 -40 106t-112 41z" />
    <glyph glyph-name="germandbls" unicode="&#xdf;" horiz-adv-x="587" 
d="M279 711q90 0 137.5 -41.5t47.5 -104.5q0 -33 -16.5 -60.5t-36 -43t-36 -33.5t-16.5 -35t15 -30t37 -21.5t48.5 -22.5t48.5 -31.5t37 -50t15 -76.5q0 -71 -48.5 -121.5t-142.5 -50.5q-100 0 -162 58l45 53q45 -42 116 -42q52 0 80.5 27.5t28.5 75.5q0 36 -20.5 61
t-49.5 39l-58 28t-49.5 38t-20.5 59q0 27 16.5 51t36 39t36 38t16.5 48q0 40 -29.5 61t-75.5 21q-58 0 -86.5 -33.5t-28.5 -91.5v-519h-82v519q0 85 51 138.5t146 53.5z" />
    <glyph glyph-name="agrave" unicode="&#xe0;" horiz-adv-x="552" 
d="M276 532q108 0 153.5 -42.5t45.5 -125.5v-238q0 -80 18 -126h-86q-9 29 -13 67q-56 -78 -172 -78q-83 0 -129 43t-46 111q0 148 210 173l136 17v25q0 61 -24.5 85t-94.5 24q-66 0 -95.5 -24t-31.5 -75h-79q2 80 56 122t152 42zM393 271l-112 -14q-79 -11 -114 -36
t-35 -73q0 -40 25.5 -64.5t79.5 -24.5q66 0 111 37.5t45 93.5v81zM230 728l93 -135h-72l-130 135h109z" />
    <glyph glyph-name="aacute" unicode="&#xe1;" horiz-adv-x="552" 
d="M276 532q108 0 153.5 -42.5t45.5 -125.5v-238q0 -80 18 -126h-86q-9 29 -13 67q-56 -78 -172 -78q-83 0 -129 43t-46 111q0 148 210 173l136 17v25q0 61 -24.5 85t-94.5 24q-66 0 -95.5 -24t-31.5 -75h-79q2 80 56 122t152 42zM393 271l-112 -14q-79 -11 -114 -36
t-35 -73q0 -40 25.5 -64.5t79.5 -24.5q66 0 111 37.5t45 93.5v81zM437 728l-130 -135h-72l94 135h108z" />
    <glyph glyph-name="acircumflex" unicode="&#xe2;" horiz-adv-x="552" 
d="M276 532q108 0 153.5 -42.5t45.5 -125.5v-238q0 -80 18 -126h-86q-9 29 -13 67q-56 -78 -172 -78q-83 0 -129 43t-46 111q0 148 210 173l136 17v25q0 61 -24.5 85t-94.5 24q-66 0 -95.5 -24t-31.5 -75h-79q2 80 56 122t152 42zM393 271l-112 -14q-79 -11 -114 -36
t-35 -73q0 -40 25.5 -64.5t79.5 -24.5q66 0 111 37.5t45 93.5v81zM319 729l133 -133h-79l-94 82l-95 -82h-79l133 133h81z" />
    <glyph glyph-name="atilde" unicode="&#xe3;" horiz-adv-x="552" 
d="M276 532q108 0 153.5 -42.5t45.5 -125.5v-238q0 -80 18 -126h-86q-9 29 -13 67q-56 -78 -172 -78q-83 0 -129 43t-46 111q0 148 210 173l136 17v25q0 61 -24.5 85t-94.5 24q-66 0 -95.5 -24t-31.5 -75h-79q2 80 56 122t152 42zM393 271l-112 -14q-79 -11 -114 -36
t-35 -73q0 -40 25.5 -64.5t79.5 -24.5q66 0 111 37.5t45 93.5v81zM219 712q38 0 74 -26t51 -26q31 0 49 42h49q-7 -44 -34 -72.5t-69 -28.5q-30 0 -53.5 13.5t-40 26.5t-31.5 13q-32 0 -50 -44h-49q7 45 34.5 73.5t69.5 28.5z" />
    <glyph glyph-name="adieresis" unicode="&#xe4;" horiz-adv-x="552" 
d="M276 532q108 0 153.5 -42.5t45.5 -125.5v-238q0 -80 18 -126h-86q-9 29 -13 67q-56 -78 -172 -78q-83 0 -129 43t-46 111q0 148 210 173l136 17v25q0 61 -24.5 85t-94.5 24q-66 0 -95.5 -24t-31.5 -75h-79q2 80 56 122t152 42zM393 271l-112 -14q-79 -11 -114 -36
t-35 -73q0 -40 25.5 -64.5t79.5 -24.5q66 0 111 37.5t45 93.5v81zM172 709q21 0 36.5 -15.5t15.5 -36.5t-15.5 -36t-36.5 -15t-36.5 15t-15.5 36t15.5 36.5t36.5 15.5zM386 709q21 0 36.5 -15.5t15.5 -36.5t-15.5 -36t-36.5 -15t-36.5 15t-15.5 36t15.5 36.5t36.5 15.5z" />
    <glyph glyph-name="aring" unicode="&#xe5;" horiz-adv-x="552" 
d="M276 532q108 0 153.5 -42.5t45.5 -125.5v-238q0 -80 18 -126h-86q-9 29 -13 67q-56 -78 -172 -78q-83 0 -129 43t-46 111q0 148 210 173l136 17v25q0 61 -24.5 85t-94.5 24q-66 0 -95.5 -24t-31.5 -75h-79q2 80 56 122t152 42zM393 271l-112 -14q-79 -11 -114 -36
t-35 -73q0 -40 25.5 -64.5t79.5 -24.5q66 0 111 37.5t45 93.5v81zM279 810q48 0 83 -32t35 -81t-35 -80.5t-83 -31.5t-83 31.5t-35 80.5t35 81t83 32zM279 762q-27 0 -45 -17.5t-18 -47.5t18 -47.5t45 -17.5q26 0 44 17.5t18 47.5t-18 47.5t-44 17.5z" />
    <glyph glyph-name="ae" unicode="&#xe6;" horiz-adv-x="907" 
d="M629 532q108 0 169 -77t61 -193v-19h-387q2 -88 44.5 -136.5t120.5 -48.5q99 0 148 83l68 -37q-73 -116 -218 -116q-139 0 -206 114q-57 -113 -204 -113q-85 0 -131.5 43t-46.5 111q0 149 210 174l142 17q3 22 12 49q-9 29 -21 45.5t-40.5 27.5t-75.5 11q-66 0 -95.5 -24
t-31.5 -75h-79q2 80 56 122t152 42q46 0 78.5 -7.5t52 -22.5t28.5 -26.5t18 -29.5q21 32 68.5 59t107.5 27zM395 271l-114 -14q-79 -10 -114 -35t-35 -74q0 -40 26 -64.5t80 -24.5q63 0 110.5 34t53.5 79q-7 37 -7 78v21zM627 464q-68 0 -108.5 -43t-45.5 -115h302
q-5 73 -43.5 115.5t-104.5 42.5z" />
    <glyph glyph-name="ccedilla" unicode="&#xe7;" horiz-adv-x="560" 
d="M299 532q75 0 131.5 -36t82.5 -96l-71 -29q-41 91 -139 91q-75 0 -120.5 -54.5t-45.5 -146.5q0 -93 44 -147.5t121 -54.5q105 0 149 110l73 -31q-28 -65 -80 -104.5t-128 -43.5v-40q49 -4 77.5 -27t28.5 -56q0 -44 -33.5 -69t-87.5 -25q-62 0 -105 25l24 43
q31 -17 71 -17q64 0 64 43q0 27 -26 36.5t-79 10.5l14 77q-100 11 -156 85t-56 184q0 120 67 196t180 76z" />
    <glyph glyph-name="egrave" unicode="&#xe8;" horiz-adv-x="572" 
d="M293 532q108 0 169.5 -77t61.5 -193v-19h-388q2 -88 45.5 -136.5t121.5 -48.5q99 0 148 83l68 -37q-75 -116 -219 -116q-116 0 -182 77.5t-66 195.5q0 120 63 195.5t178 75.5zM291 464q-68 0 -108.5 -43t-45.5 -115h302q-5 73 -43.5 115.5t-104.5 42.5zM240 728l93 -135
h-72l-130 135h109z" />
    <glyph glyph-name="eacute" unicode="&#xe9;" horiz-adv-x="572" 
d="M293 532q108 0 169.5 -77t61.5 -193v-19h-388q2 -88 45.5 -136.5t121.5 -48.5q99 0 148 83l68 -37q-75 -116 -219 -116q-116 0 -182 77.5t-66 195.5q0 120 63 195.5t178 75.5zM291 464q-68 0 -108.5 -43t-45.5 -115h302q-5 73 -43.5 115.5t-104.5 42.5zM447 728
l-130 -135h-72l94 135h108z" />
    <glyph glyph-name="ecircumflex" unicode="&#xea;" horiz-adv-x="572" 
d="M293 532q108 0 169.5 -77t61.5 -193v-19h-388q2 -88 45.5 -136.5t121.5 -48.5q99 0 148 83l68 -37q-75 -116 -219 -116q-116 0 -182 77.5t-66 195.5q0 120 63 195.5t178 75.5zM291 464q-68 0 -108.5 -43t-45.5 -115h302q-5 73 -43.5 115.5t-104.5 42.5zM329 729l133 -133
h-79l-94 82l-95 -82h-79l133 133h81z" />
    <glyph glyph-name="edieresis" unicode="&#xeb;" horiz-adv-x="572" 
d="M293 532q108 0 169.5 -77t61.5 -193v-19h-388q2 -88 45.5 -136.5t121.5 -48.5q99 0 148 83l68 -37q-75 -116 -219 -116q-116 0 -182 77.5t-66 195.5q0 120 63 195.5t178 75.5zM291 464q-68 0 -108.5 -43t-45.5 -115h302q-5 73 -43.5 115.5t-104.5 42.5zM182 709
q21 0 36.5 -15.5t15.5 -36.5t-15.5 -36t-36.5 -15t-36.5 15t-15.5 36t15.5 36.5t36.5 15.5zM396 709q21 0 36.5 -15.5t15.5 -36.5t-15.5 -36t-36.5 -15t-36.5 15t-15.5 36t15.5 36.5t36.5 15.5z" />
    <glyph glyph-name="igrave" unicode="&#xec;" horiz-adv-x="245" 
d="M164 521v-521h-82v521h82zM74 728l93 -135h-72l-130 135h109z" />
    <glyph glyph-name="iacute" unicode="&#xed;" horiz-adv-x="245" 
d="M164 521v-521h-82v521h82zM281 728l-130 -135h-72l94 135h108z" />
    <glyph glyph-name="icircumflex" unicode="&#xee;" horiz-adv-x="245" 
d="M164 521v-521h-82v521h82zM163 729l133 -133h-79l-94 82l-95 -82h-79l133 133h81z" />
    <glyph glyph-name="idieresis" unicode="&#xef;" horiz-adv-x="245" 
d="M164 521v-521h-82v521h82zM16 709q21 0 36.5 -15.5t15.5 -36.5t-15.5 -36t-36.5 -15t-36.5 15t-15.5 36t15.5 36.5t36.5 15.5zM230 709q21 0 36.5 -15.5t15.5 -36.5t-15.5 -36t-36.5 -15t-36.5 15t-15.5 36t15.5 36.5t36.5 15.5z" />
    <glyph glyph-name="eth" unicode="&#xf0;" horiz-adv-x="586" 
d="M419 754l-58 -90q87 -44 130.5 -132.5t43.5 -233.5q0 -155 -66.5 -233.5t-177.5 -78.5q-108 0 -173.5 65.5t-65.5 172.5q0 106 62.5 170t159.5 64q60 0 108 -27t72 -75q-9 183 -130 250l-47 -74h-70l62 97q-53 17 -129 20l13 62q87 -5 153 -25l44 68h69zM292 55
q69 0 110.5 47t41.5 128q0 71 -41.5 114.5t-112.5 43.5q-75 0 -114.5 -45.5t-39.5 -118.5q0 -80 43 -124.5t113 -44.5z" />
    <glyph glyph-name="ntilde" unicode="&#xf1;" horiz-adv-x="580" 
d="M325 532q87 0 133 -52.5t46 -147.5v-332h-82v304q0 78 -25.5 118t-88.5 40q-61 0 -102.5 -47t-41.5 -125v-290h-82v521h82v-81q53 92 161 92zM252 712q38 0 74 -26t51 -26q31 0 49 42h49q-7 -44 -34 -72.5t-69 -28.5q-30 0 -53.5 13.5t-40 26.5t-31.5 13q-32 0 -50 -44
h-49q7 45 34.5 73.5t69.5 28.5z" />
    <glyph glyph-name="ograve" unicode="&#xf2;" horiz-adv-x="602" 
d="M301 532q112 0 180.5 -78t68.5 -194q0 -121 -66 -196t-183 -75q-115 0 -182 76t-67 195t67.5 195.5t181.5 76.5zM301 462q-75 0 -119.5 -54t-44.5 -146q0 -94 43.5 -148.5t120.5 -54.5q78 0 121 54t43 149q0 91 -44.5 145.5t-119.5 54.5zM252 728l93 -135h-72l-130 135
h109z" />
    <glyph glyph-name="oacute" unicode="&#xf3;" horiz-adv-x="602" 
d="M301 532q112 0 180.5 -78t68.5 -194q0 -121 -66 -196t-183 -75q-115 0 -182 76t-67 195t67.5 195.5t181.5 76.5zM301 462q-75 0 -119.5 -54t-44.5 -146q0 -94 43.5 -148.5t120.5 -54.5q78 0 121 54t43 149q0 91 -44.5 145.5t-119.5 54.5zM459 728l-130 -135h-72l94 135
h108z" />
    <glyph glyph-name="ocircumflex" unicode="&#xf4;" horiz-adv-x="602" 
d="M301 532q112 0 180.5 -78t68.5 -194q0 -121 -66 -196t-183 -75q-115 0 -182 76t-67 195t67.5 195.5t181.5 76.5zM301 462q-75 0 -119.5 -54t-44.5 -146q0 -94 43.5 -148.5t120.5 -54.5q78 0 121 54t43 149q0 91 -44.5 145.5t-119.5 54.5zM341 729l133 -133h-79l-94 82
l-95 -82h-79l133 133h81z" />
    <glyph glyph-name="otilde" unicode="&#xf5;" horiz-adv-x="602" 
d="M301 532q112 0 180.5 -78t68.5 -194q0 -121 -66 -196t-183 -75q-115 0 -182 76t-67 195t67.5 195.5t181.5 76.5zM301 462q-75 0 -119.5 -54t-44.5 -146q0 -94 43.5 -148.5t120.5 -54.5q78 0 121 54t43 149q0 91 -44.5 145.5t-119.5 54.5zM241 712q38 0 74 -26t51 -26
q31 0 49 42h49q-7 -44 -34 -72.5t-69 -28.5q-30 0 -53.5 13.5t-40 26.5t-31.5 13q-32 0 -50 -44h-49q7 45 34.5 73.5t69.5 28.5z" />
    <glyph glyph-name="odieresis" unicode="&#xf6;" horiz-adv-x="602" 
d="M301 532q112 0 180.5 -78t68.5 -194q0 -121 -66 -196t-183 -75q-115 0 -182 76t-67 195t67.5 195.5t181.5 76.5zM301 462q-75 0 -119.5 -54t-44.5 -146q0 -94 43.5 -148.5t120.5 -54.5q78 0 121 54t43 149q0 91 -44.5 145.5t-119.5 54.5zM194 709q21 0 36.5 -15.5
t15.5 -36.5t-15.5 -36t-36.5 -15t-36.5 15t-15.5 36t15.5 36.5t36.5 15.5zM408 709q21 0 36.5 -15.5t15.5 -36.5t-15.5 -36t-36.5 -15t-36.5 15t-15.5 36t15.5 36.5t36.5 15.5z" />
    <glyph glyph-name="divide" unicode="&#xf7;" 
d="M301 538q24 0 41.5 -17t17.5 -42t-17.5 -42t-41.5 -17q-25 0 -42.5 17.5t-17.5 42.5q0 24 17.5 41t42.5 17zM496 329v-73h-392v73h392zM301 163q24 0 41.5 -17t17.5 -42t-17.5 -42t-41.5 -17q-25 0 -42.5 17.5t-17.5 42.5q0 24 17.5 41t42.5 17z" />
    <glyph glyph-name="oslash" unicode="&#xf8;" horiz-adv-x="602" 
d="M541 593l-73 -125q82 -76 82 -208q0 -121 -66 -196t-183 -75q-63 0 -111 24l-57 -95h-71l78 127q-88 76 -88 215q0 119 67.5 195.5t181.5 76.5q62 0 117 -29l54 90h69zM301 462q-75 0 -119.5 -54t-44.5 -146q0 -96 45 -150l200 328q-36 22 -81 22zM424 401l-199 -324
q33 -18 76 -18q78 0 121 54t43 149q0 87 -41 139z" />
    <glyph glyph-name="ugrave" unicode="&#xf9;" horiz-adv-x="575" 
d="M494 521v-521h-82v75q-26 -40 -68.5 -63t-90.5 -23q-84 0 -130 46.5t-46 136.5v349h82v-332q0 -67 26 -97.5t84 -30.5q62 0 102.5 43t40.5 120v297h82zM235 728l93 -135h-72l-130 135h109z" />
    <glyph glyph-name="uacute" unicode="&#xfa;" horiz-adv-x="575" 
d="M494 521v-521h-82v75q-26 -40 -68.5 -63t-90.5 -23q-84 0 -130 46.5t-46 136.5v349h82v-332q0 -67 26 -97.5t84 -30.5q62 0 102.5 43t40.5 120v297h82zM442 728l-130 -135h-72l94 135h108z" />
    <glyph glyph-name="ucircumflex" unicode="&#xfb;" horiz-adv-x="575" 
d="M494 521v-521h-82v75q-26 -40 -68.5 -63t-90.5 -23q-84 0 -130 46.5t-46 136.5v349h82v-332q0 -67 26 -97.5t84 -30.5q62 0 102.5 43t40.5 120v297h82zM324 729l133 -133h-79l-94 82l-95 -82h-79l133 133h81z" />
    <glyph glyph-name="udieresis" unicode="&#xfc;" horiz-adv-x="575" 
d="M494 521v-521h-82v75q-26 -40 -68.5 -63t-90.5 -23q-84 0 -130 46.5t-46 136.5v349h82v-332q0 -67 26 -97.5t84 -30.5q62 0 102.5 43t40.5 120v297h82zM177 709q21 0 36.5 -15.5t15.5 -36.5t-15.5 -36t-36.5 -15t-36.5 15t-15.5 36t15.5 36.5t36.5 15.5zM391 709
q21 0 36.5 -15.5t15.5 -36.5t-15.5 -36t-36.5 -15t-36.5 15t-15.5 36t15.5 36.5t36.5 15.5z" />
    <glyph glyph-name="yacute" unicode="&#xfd;" horiz-adv-x="498" 
d="M480 521l-177 -549q-24 -75 -61.5 -112.5t-113.5 -37.5q-34 0 -58 6v64q18 -2 43 -2q54 0 76.5 24.5t39.5 85.5h-27l-184 521h89l151 -457l137 457h85zM407 728l-130 -135h-72l94 135h108z" />
    <glyph glyph-name="thorn" unicode="&#xfe;" horiz-adv-x="606" 
d="M164 700v-257q27 42 70 65.5t94 23.5q104 0 165.5 -74t61.5 -196q0 -116 -62 -194.5t-162 -78.5q-118 0 -167 87v-237h-82v861h82zM314 462q-69 0 -111 -53.5t-42 -151.5q0 -96 43 -147t110 -51q71 0 113.5 54.5t42.5 146.5q0 95 -40 148.5t-116 53.5z" />
    <glyph glyph-name="ydieresis" unicode="&#xff;" horiz-adv-x="498" 
d="M480 521l-177 -549q-24 -75 -61.5 -112.5t-113.5 -37.5q-34 0 -58 6v64q18 -2 43 -2q54 0 76.5 24.5t39.5 85.5h-27l-184 521h89l151 -457l137 457h85zM142 709q21 0 36.5 -15.5t15.5 -36.5t-15.5 -36t-36.5 -15t-36.5 15t-15.5 36t15.5 36.5t36.5 15.5zM356 709
q21 0 36.5 -15.5t15.5 -36.5t-15.5 -36t-36.5 -15t-36.5 15t-15.5 36t15.5 36.5t36.5 15.5z" />
    <glyph glyph-name="dotlessi" unicode="&#x131;" horiz-adv-x="245" 
d="M164 521v-521h-82v521h82z" />
    <glyph glyph-name="IJ" unicode="&#x132;" horiz-adv-x="769" 
d="M322 700v-72h-99v-556h99v-72h-282v72h99v556h-99v72h282zM695 700v-505q0 -98 -43 -149.5t-146 -51.5q-42 0 -101 7v74q31 -3 64 -3q83 0 112.5 28.5t29.5 102.5v497h84z" />
    <glyph glyph-name="ij" unicode="&#x133;" horiz-adv-x="502" 
d="M421 521v-550q0 -75 -41.5 -111.5t-101.5 -36.5q-26 0 -53 5v65q12 -1 25 -1q49 0 69 21.5t20 85.5v522h82zM380 714q22 0 38 -15.5t16 -37.5t-16 -38t-38 -16q-23 0 -39 16t-16 38t16 37.5t39 15.5zM164 521v-521h-82v521h82zM123 714q22 0 38 -15.5t16 -37.5t-16 -38
t-38 -16q-23 0 -39 16t-16 38t16 37.5t39 15.5z" />
    <glyph glyph-name="Lslash" unicode="&#x141;" horiz-adv-x="557" 
d="M194 76h326v-76h-409v295l-82 -44v66l82 44v339h83v-294l193 105v-66l-193 -105v-264z" />
    <glyph glyph-name="lslash" unicode="&#x142;" horiz-adv-x="284" 
d="M256 374l-87 -48v-193q0 -40 9.5 -54t43.5 -14q2 0 28 2v-67q-26 -6 -54 -6q-109 0 -109 125v161l-62 -34v66l62 34v354h82v-308l87 48v-66z" />
    <glyph glyph-name="OE" unicode="&#x152;" horiz-adv-x="964" 
d="M375 714q63 0 115 -14h408v-74h-327v-232h306v-74h-306v-246h336v-74h-417q-48 -14 -115 -14q-56 0 -109 19t-101.5 59t-78 114t-29.5 173q0 94 27.5 166t74 114t101 62.5t115.5 20.5zM375 642q-103 0 -167 -77t-64 -213q0 -138 62.5 -216t168.5 -78q67 0 113 21v543
q-49 20 -113 20z" />
    <glyph glyph-name="oe" unicode="&#x153;" horiz-adv-x="978" 
d="M701 532q107 0 168 -77t61 -193v-19h-384q2 -88 44.5 -136.5t119.5 -48.5q98 0 146 83l68 -37q-72 -116 -217 -116q-76 0 -129.5 37t-78.5 99q-26 -61 -77.5 -98t-123.5 -37q-114 0 -180 76t-66 195q0 120 66.5 196t179.5 76q73 0 126.5 -38t77.5 -101q25 63 76 101
t123 38zM697 464q-67 0 -105 -43t-44 -115h296q-6 73 -44 115.5t-103 42.5zM297 462q-74 0 -117 -54t-43 -146q0 -95 42 -149t118 -54q77 0 120.5 54t43.5 149q0 91 -45 145.5t-119 54.5z" />
    <glyph glyph-name="Scaron" unicode="&#x160;" horiz-adv-x="636" 
d="M317 -14q-85 0 -161.5 30.5t-125.5 94.5l60 52q84 -103 229 -103q81 0 131 34.5t50 93.5q0 60 -42 92.5t-164 51.5q-228 36 -228 192q0 86 67 138t179 52q176 0 268 -122l-65 -48q-69 96 -203 96q-75 0 -118 -30t-43 -83q0 -52 41 -79t158 -47q125 -22 181 -71.5
t56 -137.5q0 -92 -69.5 -149t-200.5 -57zM488 894l-133 -129h-81l-133 129h79l95 -78l94 78h79z" />
    <glyph glyph-name="scaron" unicode="&#x161;" horiz-adv-x="519" 
d="M259 532q127 0 205 -76l-49 -49q-63 57 -156 57q-56 0 -87 -20.5t-31 -54.5q0 -36 30 -53.5t112 -30.5q101 -16 148 -51t47 -108q0 -70 -57.5 -113.5t-162.5 -43.5q-149 0 -232 89l53 52q67 -72 177 -72q68 0 103 23.5t35 61.5q0 40 -31.5 60t-123.5 34q-93 15 -136.5 51
t-43.5 97q0 67 55 107t145 40zM432 738l-133 -133h-81l-133 133h79l95 -82l94 82h79z" />
    <glyph glyph-name="Ydieresis" unicode="&#x178;" horiz-adv-x="605" 
d="M588 700l-242 -415v-285h-84v284l-244 416h95l193 -339l190 339h92zM196 869q21 0 36.5 -15.5t15.5 -36.5t-15.5 -36t-36.5 -15t-36.5 15t-15.5 36t15.5 36.5t36.5 15.5zM410 869q21 0 36.5 -15.5t15.5 -36.5t-15.5 -36t-36.5 -15t-36.5 15t-15.5 36t15.5 36.5t36.5 15.5
z" />
    <glyph glyph-name="Zcaron" unicode="&#x17d;" horiz-adv-x="601" 
d="M552 700v-71l-408 -553h416v-76h-524v67l412 559h-382v74h486zM472 894l-133 -129h-81l-133 129h79l95 -78l94 78h79z" />
    <glyph glyph-name="zcaron" unicode="&#x17e;" horiz-adv-x="472" 
d="M434 521v-65l-300 -385h303v-71h-406v63l303 389h-273v69h373zM410 738l-133 -133h-81l-133 133h79l95 -82l94 82h79z" />
    <glyph glyph-name="longs" unicode="&#x17f;" horiz-adv-x="335" 
d="M254 711q39 0 81 -14v-63q-36 11 -71 11q-45 0 -64 -18t-19 -59v-568h-82v458h-74v63h74v57q0 57 37 95t118 38z" />
    <glyph glyph-name="florin" unicode="&#x192;" horiz-adv-x="303" 
d="M237 711q49 0 100 -17v-66q-47 17 -91 17t-63.5 -18t-19.5 -59v-47h149v-63h-149v-487q0 -75 -41 -111.5t-101 -36.5q-28 0 -53 5v65q11 -1 24 -1q49 0 69 21.5t20 85.5v459h-74v63h74v57q0 57 37.5 95t118.5 38z" />
    <glyph glyph-name="uni02BB" unicode="&#x2bb;" horiz-adv-x="268" 
d="M134 524q-24 0 -40.5 17t-16.5 42q0 45 23.5 98t63.5 98l41 -21q-36 -58 -42 -130q27 -16 27 -49q0 -23 -16.5 -39t-39.5 -16z" />
    <glyph glyph-name="uni02BC" unicode="&#x2bc;" horiz-adv-x="267" 
d="M128 745q24 0 40.5 -17t16.5 -42q0 -45 -23.5 -98t-63.5 -98l-41 21q36 58 42 130q-27 16 -27 49q0 23 16.5 39t39.5 16z" />
    <glyph glyph-name="circumflex" unicode="&#x2c6;" horiz-adv-x="407" 
d="M244 729l133 -133h-79l-94 82l-95 -82h-79l133 133h81z" />
    <glyph glyph-name="caron" unicode="&#x2c7;" horiz-adv-x="407" 
d="M377 738l-133 -133h-81l-133 133h79l95 -82l94 82h79z" />
    <glyph glyph-name="breve" unicode="&#x2d8;" horiz-adv-x="362" 
d="M282 726h50q-7 -60 -47 -97.5t-104 -37.5t-104 37.5t-47 97.5h50q7 -35 35.5 -55t65.5 -20t65.5 20t35.5 55z" />
    <glyph glyph-name="dotaccent" unicode="&#x2d9;" horiz-adv-x="169" 
d="M85 714q22 0 38 -15.5t16 -37.5t-16 -38t-38 -16q-23 0 -39 16t-16 38t16 37.5t39 15.5z" />
    <glyph glyph-name="ring" unicode="&#x2da;" horiz-adv-x="296" 
d="M148 810q48 0 83 -32t35 -81t-35 -80.5t-83 -31.5t-83 31.5t-35 80.5t35 81t83 32zM148 762q-27 0 -45 -17.5t-18 -47.5t18 -47.5t45 -17.5q26 0 44 17.5t18 47.5t-18 47.5t-44 17.5z" />
    <glyph glyph-name="ogonek" unicode="&#x2db;" horiz-adv-x="277" 
d="M182 18l12 -18q-99 -48 -99 -119q0 -54 66 -54q29 0 68 13l18 -45q-46 -20 -96 -20q-59 0 -91.5 26t-32.5 74q0 44 43.5 83.5t111.5 59.5z" />
    <glyph glyph-name="tilde" unicode="&#x2dc;" horiz-adv-x="387" 
d="M134 712q38 0 74 -26t51 -26q31 0 49 42h49q-7 -44 -34 -72.5t-69 -28.5q-30 0 -53.5 13.5t-40 26.5t-31.5 13q-32 0 -50 -44h-49q7 45 34.5 73.5t69.5 28.5z" />
    <glyph glyph-name="hungarumlaut" unicode="&#x2dd;" horiz-adv-x="414" 
d="M212 732l-118 -139h-64l78 139h104zM384 732l-122 -139h-64l82 139h104z" />
    <glyph glyph-name="gravecomb" unicode="&#x300;" horiz-adv-x="1" 
d="M-123 728l93 -135h-72l-130 135h109z" />
    <glyph glyph-name="acutecomb" unicode="&#x301;" horiz-adv-x="1" 
d="M-30 728l-130 -135h-72l94 135h108z" />
    <glyph glyph-name="uni0302" unicode="&#x302;" horiz-adv-x="1" 
d="M-163 729l133 -133h-79l-94 82l-95 -82h-79l133 133h81z" />
    <glyph glyph-name="tildecomb" unicode="&#x303;" horiz-adv-x="1" 
d="M-253 712q38 0 74 -26t51 -26q31 0 49 42h49q-7 -44 -34 -72.5t-69 -28.5q-30 0 -53.5 13.5t-40 26.5t-31.5 13q-32 0 -50 -44h-49q7 45 34.5 73.5t69.5 28.5z" />
    <glyph glyph-name="uni0304" unicode="&#x304;" horiz-adv-x="1" 
d="M-30 685v-59h-314v59h314z" />
    <glyph glyph-name="uni0306" unicode="&#x306;" horiz-adv-x="1" 
d="M-80 726h50q-7 -60 -47 -97.5t-104 -37.5t-104 37.5t-47 97.5h50q7 -35 35.5 -55t65.5 -20t65.5 20t35.5 55z" />
    <glyph glyph-name="uni0307" unicode="&#x307;" horiz-adv-x="1" 
d="M-84 714q22 0 38 -15.5t16 -37.5t-16 -38t-38 -16q-23 0 -39 16t-16 38t16 37.5t39 15.5z" />
    <glyph glyph-name="uni0308" unicode="&#x308;" horiz-adv-x="1" 
d="M-296 709q21 0 36.5 -15.5t15.5 -36.5t-15.5 -36t-36.5 -15t-36.5 15t-15.5 36t15.5 36.5t36.5 15.5zM-82 709q21 0 36.5 -15.5t15.5 -36.5t-15.5 -36t-36.5 -15t-36.5 15t-15.5 36t15.5 36.5t36.5 15.5z" />
    <glyph glyph-name="uni030A" unicode="&#x30a;" horiz-adv-x="1" 
d="M-148 810q48 0 83 -32t35 -81t-35 -80.5t-83 -31.5t-83 31.5t-35 80.5t35 81t83 32zM-148 762q-27 0 -45 -17.5t-18 -47.5t18 -47.5t45 -17.5q26 0 44 17.5t18 47.5t-18 47.5t-44 17.5z" />
    <glyph glyph-name="uni030B" unicode="&#x30b;" horiz-adv-x="1" 
d="M-202 732l-118 -139h-64l78 139h104zM-30 732l-122 -139h-64l82 139h104z" />
    <glyph glyph-name="uni030C" unicode="&#x30c;" horiz-adv-x="1" 
d="M-30 738l-133 -133h-81l-133 133h79l95 -82l94 82h79z" />
    <glyph glyph-name="uni0326" unicode="&#x326;" horiz-adv-x="1" 
d="M-88 -73q20 0 34 -14.5t14 -36.5q0 -70 -65 -155l-41 14q29 54 32 102q-24 16 -24 41q0 20 14.5 34.5t35.5 14.5z" />
    <glyph glyph-name="uni0327" unicode="&#x327;" horiz-adv-x="1" 
d="M-133 6l-1 -56q49 -4 77.5 -27t28.5 -56q0 -44 -33.5 -69t-87.5 -25q-62 0 -105 25l24 43q31 -17 71 -17q64 0 64 43q0 27 -26 36.5t-79 10.5l17 92h50z" />
    <glyph glyph-name="uni0328" unicode="&#x328;" horiz-adv-x="1" 
d="M-95 18l12 -18q-99 -48 -99 -119q0 -54 66 -54q29 0 68 13l18 -45q-46 -20 -96 -20q-59 0 -91.5 26t-32.5 74q0 44 43.5 83.5t111.5 59.5z" />
    <glyph glyph-name="uni0394" unicode="&#x394;" horiz-adv-x="619" 
d="M365 700l238 -700h-586l239 700h109zM127 72h361l-180 554z" />
    <glyph glyph-name="uni03A9" unicode="&#x3a9;" horiz-adv-x="752" 
d="M376 714q58 0 111 -18.5t101.5 -58.5t77.5 -113t29 -171q0 -205 -134 -277h131v-76h-238v76q72 24 113 97.5t41 179.5q0 136 -61.5 211t-170.5 75q-104 0 -168 -74t-64 -209q0 -107 41 -181.5t113 -98.5v-76h-238v76h132q-135 74 -135 279q0 94 27.5 165.5t74 112.5
t101.5 61t116 20z" />
    <glyph glyph-name="uni03BC" unicode="&#x3bc;" horiz-adv-x="580" 
d="M499 521v-521h-82v85q-39 -99 -142 -99q-81 0 -111 61v-208h-82v682h82v-332q0 -130 111 -130q62 0 102 43.5t40 121.5v297h82z" />
    <glyph glyph-name="pi" unicode="&#x3c0;" horiz-adv-x="645" 
d="M593 521v-68h-86v-453h-82v453h-204v-453h-82v453h-86v68h540z" />
    <glyph glyph-name="uni1E9E" unicode="&#x1e9e;" horiz-adv-x="690" 
d="M417 -16q-115 0 -199 56l39 63q66 -45 161 -45q58 0 103 34.5t45 99.5t-39.5 98t-143.5 53v65l146 171q-70 63 -182 63q-188 0 -188 -196v-446h-83v456q0 125 73.5 192.5t197.5 67.5q166 0 280 -126l-162 -194q88 -22 138 -68.5t50 -135.5q0 -92 -67 -150t-169 -58z" />
    <glyph glyph-name="uni2007" unicode="&#x2007;" horiz-adv-x="605" 
 />
    <glyph glyph-name="uni2008" unicode="&#x2008;" horiz-adv-x="264" 
 />
    <glyph glyph-name="uni200B" unicode="&#x200b;" horiz-adv-x="0" 
 />
    <glyph glyph-name="figuredash" unicode="&#x2012;" 
d="M558 316v-73h-516v73h516z" />
    <glyph glyph-name="endash" unicode="&#x2013;" horiz-adv-x="518" 
d="M467 340v-73h-416v73h416z" />
    <glyph glyph-name="emdash" unicode="&#x2014;" horiz-adv-x="618" 
d="M567 340v-73h-516v73h516z" />
    <glyph glyph-name="quoteleft" unicode="&#x2018;" horiz-adv-x="268" 
d="M134 524q-24 0 -40.5 17t-16.5 42q0 45 23.5 98t63.5 98l41 -21q-36 -58 -42 -130q27 -16 27 -49q0 -23 -16.5 -39t-39.5 -16z" />
    <glyph glyph-name="quoteright" unicode="&#x2019;" horiz-adv-x="268" 
d="M128 745q24 0 40.5 -17t16.5 -42q0 -45 -23.5 -98t-63.5 -98l-41 21q36 58 42 130q-27 16 -27 49q0 23 16.5 39t39.5 16z" />
    <glyph glyph-name="quotesinglbase" unicode="&#x201a;" horiz-adv-x="268" 
d="M128 103q24 0 40.5 -17t16.5 -42q0 -45 -23.5 -98t-63.5 -98l-41 21q36 58 42 130q-27 16 -27 49q0 23 16.5 39t39.5 16z" />
    <glyph glyph-name="quotedblleft" unicode="&#x201c;" horiz-adv-x="442" 
d="M308 524q-24 0 -40.5 17t-16.5 42q0 45 23.5 98t63.5 98l41 -21q-36 -58 -42 -130q27 -16 27 -49q0 -23 -16.5 -39t-39.5 -16zM134 524q-24 0 -40.5 17t-16.5 42q0 45 23.5 98t63.5 98l41 -21q-36 -58 -42 -130q27 -16 27 -49q0 -23 -16.5 -39t-39.5 -16z" />
    <glyph glyph-name="quotedblright" unicode="&#x201d;" horiz-adv-x="442" 
d="M128 744q24 0 40.5 -17t16.5 -42q0 -45 -23.5 -98t-63.5 -98l-41 21q36 58 42 130q-27 16 -27 49q0 23 16.5 39t39.5 16zM302 744q24 0 40.5 -17t16.5 -42q0 -45 -23.5 -98t-63.5 -98l-41 21q36 58 42 130q-27 16 -27 49q0 23 16.5 39t39.5 16z" />
    <glyph glyph-name="quotedblbase" unicode="&#x201e;" horiz-adv-x="442" 
d="M128 103q24 0 40.5 -17t16.5 -42q0 -45 -23.5 -98t-63.5 -98l-41 21q36 58 42 130q-27 16 -27 49q0 23 16.5 39t39.5 16zM302 103q24 0 40.5 -17t16.5 -42q0 -45 -23.5 -98t-63.5 -98l-41 21q36 58 42 130q-27 16 -27 49q0 23 16.5 39t39.5 16z" />
    <glyph glyph-name="dagger" unicode="&#x2020;" horiz-adv-x="612" 
d="M345 700v-179h169v-69h-169v-613h-79v613h-169v69h169v179h79z" />
    <glyph glyph-name="daggerdbl" unicode="&#x2021;" horiz-adv-x="612" 
d="M345 700v-207h169v-69h-169v-305h169v-69h-169v-211h-79v211h-169v69h169v305h-169v69h169v207h79z" />
    <glyph glyph-name="bullet" unicode="&#x2022;" horiz-adv-x="330" 
d="M166 406q41 0 71 -29.5t30 -71.5t-29.5 -71.5t-71.5 -29.5q-43 0 -73 30t-30 73q0 41 30 70t73 29z" />
    <glyph glyph-name="uni2023" unicode="&#x2023;" horiz-adv-x="350" 
d="M268 300l-188 -94v188z" />
    <glyph glyph-name="ellipsis" unicode="&#x2026;" horiz-adv-x="810" 
d="M128 97q22 0 38 -15.5t16 -37.5t-16 -38t-38 -16q-23 0 -39 16t-16 38t16 37.5t39 15.5zM405 97q22 0 38 -15.5t16 -37.5t-16 -38t-38 -16q-23 0 -39 16t-16 38t16 37.5t39 15.5zM684 97q22 0 38 -15.5t16 -37.5t-16 -38t-38 -16q-23 0 -39 16t-16 38t16 37.5t39 15.5z
" />
    <glyph glyph-name="perthousand" unicode="&#x2030;" horiz-adv-x="1430" 
d="M230 714q78 0 131.5 -57.5t53.5 -169.5q0 -113 -53.5 -170.5t-131.5 -57.5q-79 0 -132.5 57.5t-53.5 170.5q0 112 54 169.5t132 57.5zM757 712l-433 -724h-70l433 724h70zM231 655q-54 0 -84 -42.5t-30 -124.5q0 -85 30 -128t84 -43q53 0 83 43t30 126t-30 126t-83 43z
M784 444q78 0 131.5 -57.5t53.5 -170.5t-53.5 -170.5t-131.5 -57.5q-79 0 -132.5 57.5t-53.5 170.5t53.5 170.5t132.5 57.5zM1199 444q79 0 132.5 -57.5t53.5 -170.5t-53.5 -170.5t-132.5 -57.5q-78 0 -131.5 57.5t-53.5 170.5t53.5 170.5t131.5 57.5zM785 384
q-54 0 -84 -42t-30 -125q0 -85 30 -127.5t84 -42.5q53 0 83 42.5t30 126.5t-30 126t-83 42zM1200 384q-53 0 -83 -42t-30 -125q0 -85 30 -127.5t83 -42.5t83.5 42.5t30.5 126.5t-30.5 126t-83.5 42z" />
    <glyph glyph-name="guilsinglleft" unicode="&#x2039;" horiz-adv-x="261" 
d="M173 476l43 -30l-94 -167l94 -169l-43 -30l-128 157v84z" />
    <glyph glyph-name="guilsinglright" unicode="&#x203a;" horiz-adv-x="261" 
d="M87 476l129 -155v-84l-129 -157l-42 30l94 169l-94 167z" />
    <glyph glyph-name="uni203D" unicode="&#x203d;" horiz-adv-x="519" 
d="M260 711q61 0 107 -18t70 -47t35 -58.5t11 -58.5q0 -49 -19 -85.5t-46 -58t-54 -40.5t-46 -45t-19 -61v-37h-75l1 2l-16 272v157q-72 -24 -102 -115l-76 24q7 27 24 54.5t44.5 54t69.5 43.5t91 17zM299 476l-9 -116q11 13 34.5 35.5t36 37t24 39t11.5 52.5q0 95 -97 113
v-161zM262 108q24 0 41.5 -17t17.5 -42t-17.5 -42t-41.5 -17q-25 0 -42.5 17.5t-17.5 42.5q0 24 17.5 41t42.5 17z" />
    <glyph glyph-name="fraction" unicode="&#x2044;" horiz-adv-x="224" 
d="M364 712l-433 -724h-70l433 724h70z" />
    <glyph glyph-name="uni2070" unicode="&#x2070;" horiz-adv-x="400" 
d="M200 760q80 0 125 -55.5t45 -164.5t-44.5 -163.5t-125.5 -54.5q-80 0 -124.5 55t-44.5 163q0 109 44.5 164.5t124.5 55.5zM200 698q-90 0 -90 -158q0 -156 90 -156t90 156q0 158 -90 158z" />
    <glyph glyph-name="uni2074" unicode="&#x2074;" horiz-adv-x="400" 
d="M317 750v-274h64v-62h-64v-84h-76v84h-223v64l198 272h101zM241 674l-148 -198h148v198z" />
    <glyph glyph-name="uni2075" unicode="&#x2075;" horiz-adv-x="400" 
d="M346 750l-9 -62h-197l-15 -105q42 39 103 39q59 0 101 -39.5t42 -104.5q0 -69 -46.5 -112.5t-129.5 -43.5q-66 0 -107.5 28.5t-57.5 71.5l70 23q22 -62 97 -62q42 0 67.5 26.5t25.5 65.5q0 38 -24 60.5t-64 22.5q-55 0 -89 -41l-68 11l32 222h269z" />
    <glyph glyph-name="uni2076" unicode="&#x2076;" horiz-adv-x="400" 
d="M213 760q103 0 142 -83l-66 -24q-20 47 -77 47q-95 0 -104 -148q36 60 117 60q59 0 101 -37t42 -101q0 -71 -46 -111.5t-119 -40.5q-78 0 -125 46.5t-47 142.5q0 121 48.5 185t133.5 64zM204 552q-38 0 -62.5 -22.5t-24.5 -59.5q0 -38 24 -63t61 -25q38 0 61 23.5
t23 63.5q0 38 -22 60.5t-60 22.5z" />
    <glyph glyph-name="uni2077" unicode="&#x2077;" horiz-adv-x="400" 
d="M360 750v-61q-74 -87 -109.5 -166t-50.5 -193h-85q17 121 57.5 201.5t113.5 156.5h-178v-48h-67v110h319z" />
    <glyph glyph-name="uni2078" unicode="&#x2078;" horiz-adv-x="400" 
d="M198 322q-89 0 -133.5 37t-44.5 85q0 82 92 109q-69 35 -69 95q0 44 39.5 78t115.5 34t115.5 -32t39.5 -74q0 -31 -22 -57t-55 -39q58 -19 80 -43.5t22 -65.5q0 -51 -43 -89t-137 -38zM196 584l23 -6q58 25 58 69q0 24 -19.5 39.5t-57.5 15.5t-58 -15.5t-20 -38.5
q0 -25 17 -39t57 -25zM199 382q50 0 74.5 19t24.5 45q0 30 -21 44.5t-80 31.5l-28 8q-67 -25 -67 -81q0 -29 25 -48t72 -19z" />
    <glyph glyph-name="uni2079" unicode="&#x2079;" horiz-adv-x="400" 
d="M184 320q-105 0 -149 83l65 27q25 -50 86 -50q96 0 102 151q-37 -57 -115 -57q-60 0 -101 37t-41 102q0 67 47 106.5t119 39.5q77 0 123.5 -46t46.5 -139q0 -254 -183 -254zM196 534q39 0 63.5 23.5t24.5 59.5q0 37 -22.5 59.5t-61.5 22.5t-63 -22.5t-24 -60.5
q0 -37 22 -59.5t61 -22.5z" />
    <glyph glyph-name="uni207A" unicode="&#x207a;" horiz-adv-x="372" 
d="M214 650v-98h99v-56h-99v-98h-62v98h-99v56h99v98h62z" />
    <glyph glyph-name="uni207B" unicode="&#x207b;" horiz-adv-x="372" 
d="M313 552v-56h-260v56h260z" />
    <glyph glyph-name="uni207C" unicode="&#x207c;" horiz-adv-x="372" 
d="M313 615v-56h-260v56h260zM313 489v-57h-260v57h260z" />
    <glyph glyph-name="uni2080" unicode="&#x2080;" horiz-adv-x="400" 
d="M200 269q80 0 125 -55.5t45 -164.5t-44.5 -163.5t-125.5 -54.5q-80 0 -124.5 54.5t-44.5 163.5t44.5 164.5t124.5 55.5zM200 207q-90 0 -90 -158q0 -156 90 -156t90 156q0 158 -90 158z" />
    <glyph glyph-name="uni2081" unicode="&#x2081;" horiz-adv-x="400" 
d="M74 -161v62h109v232h-107v51h19q56 0 76.5 16.5t25.5 58.5h63v-358h92v-62h-278z" />
    <glyph glyph-name="uni2082" unicode="&#x2082;" horiz-adv-x="400" 
d="M202 269q70 0 110.5 -34t40.5 -91q0 -120 -207 -243h215v-62h-321v59q120 80 174.5 137t54.5 107q0 66 -71 66q-37 0 -56 -21.5t-20 -58.5h-80q1 60 41.5 100.5t118.5 40.5z" />
    <glyph glyph-name="uni2083" unicode="&#x2083;" horiz-adv-x="400" 
d="M203 269q72 0 112.5 -31t40.5 -81q0 -38 -24 -62.5t-66 -30.5q45 -5 74 -31.5t29 -71.5q0 -60 -46.5 -95t-121.5 -35q-66 0 -111 30t-59 83l72 17q8 -32 33.5 -50t64.5 -18q38 0 62.5 18.5t24.5 53.5q0 32 -23 49.5t-61 17.5h-47v57h41q34 0 56 15t22 45q0 29 -20.5 44.5
t-54.5 15.5q-72 0 -89 -62l-71 11q13 50 56 80.5t106 30.5z" />
    <glyph glyph-name="uni2084" unicode="&#x2084;" horiz-adv-x="400" 
d="M317 259v-274h64v-62h-64v-84h-76v84h-223v64l198 272h101zM241 183l-148 -198h148v198z" />
    <glyph glyph-name="uni2085" unicode="&#x2085;" horiz-adv-x="400" 
d="M346 259l-9 -62h-197l-15 -105q42 39 103 39q59 0 101 -39.5t42 -104.5q0 -69 -46.5 -112.5t-129.5 -43.5q-66 0 -107.5 28.5t-57.5 71.5l70 23q22 -62 97 -62q42 0 67.5 26.5t25.5 65.5q0 38 -24 60.5t-64 22.5q-55 0 -89 -41l-68 11l32 222h269z" />
    <glyph glyph-name="uni2086" unicode="&#x2086;" horiz-adv-x="400" 
d="M213 269q103 0 142 -83l-66 -24q-20 47 -77 47q-95 0 -104 -148q36 60 117 60q59 0 101 -37t42 -101q0 -71 -46 -111.5t-119 -40.5q-78 0 -125 46.5t-47 142.5q0 121 48.5 185t133.5 64zM204 61q-38 0 -62.5 -22.5t-24.5 -59.5q0 -38 24 -63t61 -25q38 0 61 23.5t23 63.5
q0 38 -22 60.5t-60 22.5z" />
    <glyph glyph-name="uni2087" unicode="&#x2087;" horiz-adv-x="400" 
d="M360 259v-61q-74 -87 -109.5 -166t-50.5 -193h-85q17 121 57.5 201.5t113.5 156.5h-178v-48h-67v110h319z" />
    <glyph glyph-name="uni2088" unicode="&#x2088;" horiz-adv-x="400" 
d="M198 -169q-89 0 -133.5 37t-44.5 85q0 82 92 109q-69 35 -69 95q0 44 39.5 78t115.5 34t115.5 -32t39.5 -74q0 -31 -22 -57t-55 -39q58 -19 80 -43.5t22 -65.5q0 -51 -43 -89t-137 -38zM196 93l23 -6q58 25 58 69q0 24 -19.5 39.5t-57.5 15.5t-58 -15.5t-20 -38.5
q0 -25 17 -39t57 -25zM199 -109q50 0 74.5 19t24.5 45q0 30 -21 44.5t-80 31.5l-28 8q-67 -25 -67 -81q0 -29 25 -48t72 -19z" />
    <glyph glyph-name="uni2089" unicode="&#x2089;" horiz-adv-x="400" 
d="M184 -171q-105 0 -149 83l65 27q25 -50 86 -50q96 0 102 151q-37 -57 -115 -57q-60 0 -101 37t-41 102q0 67 47 106.5t119 39.5q77 0 123.5 -46t46.5 -139q0 -254 -183 -254zM196 43q39 0 63.5 23.5t24.5 59.5q0 37 -22.5 59.5t-61.5 22.5t-63 -22.5t-24 -60.5
q0 -37 22 -59.5t61 -22.5z" />
    <glyph glyph-name="uni208A" unicode="&#x208a;" horiz-adv-x="366" 
d="M214 160v-98h99v-56h-99v-98h-62v98h-99v56h99v98h62z" />
    <glyph glyph-name="uni208B" unicode="&#x208b;" horiz-adv-x="366" 
d="M313 62v-56h-260v56h260z" />
    <glyph glyph-name="uni208C" unicode="&#x208c;" horiz-adv-x="366" 
d="M313 115v-56h-260v56h260zM313 -11v-57h-260v57h260z" />
    <glyph glyph-name="uni208D" unicode="&#x208d;" horiz-adv-x="300" 
d="M180 290h50q-42 -68 -58 -123.5t-16 -119.5t16 -119.5t58 -123.5h-51q-40 53 -63 119t-23 124q0 57 23.5 123.5t63.5 119.5z" />
    <glyph glyph-name="uni208E" unicode="&#x208e;" horiz-adv-x="300" 
d="M89 290h50q40 -53 63.5 -119.5t23.5 -123.5q0 -58 -23 -124t-63 -119h-51q42 68 58 123.5t16 119.5t-16 119.5t-58 123.5z" />
    <glyph glyph-name="Euro" unicode="&#x20ac;" horiz-adv-x="660" 
d="M405 714q117 0 193 -75l-28 -76q-71 79 -166 79q-163 0 -196 -199h315l-18 -51h-303q-2 -32 -2 -50q0 -15 2 -41h272l-17 -51h-250q11 -96 57 -144t132 -48q100 0 170 70v-89q-75 -53 -170 -53q-233 0 -267 264h-96l18 51h73q-2 28 -2 45q0 16 2 46h-85l17 51h73
q20 134 95 202.5t181 68.5z" />
    <glyph glyph-name="uni20B9" unicode="&#x20b9;" 
d="M530 700v-54h-141q64 -48 68 -132h73v-52h-76q-14 -77 -78.5 -118t-152.5 -41h-52l298 -303h-96l-298 303v71h141q127 0 149 88h-290v52h296q-2 58 -42.5 95t-112.5 37h-141v54h455z" />
    <glyph glyph-name="uni20BA" unicode="&#x20ba;" 
d="M460 218h66q-6 -91 -72 -160t-182 -69q-66 0 -109 13v340l-92 -49v51l92 49v97l-92 -49v52l92 49v158h82v-114l196 104v-51l-196 -105v-97l196 105v-51l-196 -105v-322q25 -5 51 -5q66 0 111 46.5t53 112.5z" />
    <glyph glyph-name="uni20BD" unicode="&#x20bd;" 
d="M327 280h-160v-83h237v-52h-237v-145h-83v145h-57v52h57v83h-58v69h58v351h240q125 0 186.5 -58.5t61.5 -149.5q0 -99 -61.5 -155.5t-183.5 -56.5zM167 626v-277h165q153 0 153 143q0 63 -39 98.5t-113 35.5h-166z" />
    <glyph glyph-name="uni2105" unicode="&#x2105;" horiz-adv-x="900" 
d="M696 712l-433 -724h-70l433 724h70zM231 679q44 0 77.5 -21.5t48.5 -56.5l-43 -18q-25 50 -83 50q-45 0 -72 -31.5t-27 -84.5q0 -54 26.5 -86t71.5 -32q63 0 90 62l44 -18q-39 -90 -134 -90q-72 0 -112.5 46t-40.5 118q0 71 41.5 116.5t112.5 45.5zM669 319
q69 0 111.5 -46.5t42.5 -115.5q0 -73 -40.5 -118.5t-113.5 -45.5q-71 0 -112 46t-41 118q0 71 41.5 116.5t111.5 45.5zM669 273q-45 0 -71.5 -31.5t-26.5 -84.5q0 -54 26 -86t72 -32q47 0 72.5 31.5t25.5 86.5q0 52 -26.5 84t-71.5 32z" />
    <glyph glyph-name="uni2113" unicode="&#x2113;" 
d="M374 -16q-70 0 -107 41.5t-37 113.5v89l-67 -73l-24 48l91 100v267q0 73 34 109.5t90 36.5q51 0 77.5 -28.5t26.5 -74.5q0 -68 -35 -140t-111 -180v-141q0 -96 83 -96q29 0 64 10v-65q-43 -17 -85 -17zM312 564v-179q84 147 84 216q0 61 -38 61q-46 0 -46 -98z" />
    <glyph glyph-name="uni2116" unicode="&#x2116;" horiz-adv-x="1200" 
d="M687 700v-700h-89l-352 556v-556h-80v700h85l356 -569v569h80zM931 373q-71 0 -112 46t-41 118q0 71 41 116t112 45q70 0 112 -46t42 -115q0 -74 -40.5 -119t-113.5 -45zM931 419q47 0 72.5 31.5t25.5 86.5q0 52 -26.5 84t-71.5 32t-71.5 -31.5t-26.5 -84.5q0 -54 26 -86
t72 -32zM795 237v56h280v-56h-280z" />
    <glyph glyph-name="uni2117" unicode="&#x2117;" horiz-adv-x="900" 
d="M451 -14q-152 0 -258.5 105.5t-106.5 257.5q0 153 106.5 259t258.5 106t258 -106t106 -259t-105.5 -258t-258.5 -105zM451 33q131 0 221.5 92t90.5 224t-90.5 225t-221.5 93q-132 0 -223.5 -93t-91.5 -225t91.5 -224t223.5 -92zM329 138v421h153q68 0 107.5 -33t39.5 -92
q0 -52 -39 -88.5t-109 -36.5h-98v-171h-54zM383 354h101q39 0 62.5 21t23.5 61q0 36 -24.5 56.5t-62.5 20.5h-100v-159z" />
    <glyph glyph-name="uni2120" unicode="&#x2120;" horiz-adv-x="1200" 
d="M316 710q115 0 179 -75l-47 -37q-43 55 -132 55q-47 0 -74 -16.5t-27 -43.5q0 -26 26 -41t101 -29q86 -17 123.5 -47.5t37.5 -86.5q0 -58 -47 -93.5t-136 -35.5q-131 0 -196 79l48 41q57 -64 150 -64q49 0 81.5 19.5t32.5 50.5t-26.5 48t-106.5 31q-156 28 -156 125
q0 53 46.5 86.5t122.5 33.5zM1025 700l38 -435h-71l-32 347l-103 -347h-79l-106 345l-30 -345h-70l36 435h105l106 -356l101 356h105z" />
    <glyph glyph-name="trademark" unicode="&#x2122;" horiz-adv-x="1000" 
d="M418 700v-64h-148v-371h-73v371h-147v64h368zM900 700l38 -435h-72l-31 347l-103 -347h-80l-105 345l-30 -345h-71l36 435h106l105 -356l102 356h105z" />
    <glyph glyph-name="Omega" unicode="&#x2126;" horiz-adv-x="764" 
d="M382 714q58 0 111 -18.5t101.5 -58.5t77.5 -113t29 -171q0 -205 -134 -277h131v-76h-238v76q72 24 113 97.5t41 179.5q0 136 -61.5 211t-170.5 75q-104 0 -168 -74t-64 -209q0 -107 41 -181.5t113 -98.5v-76h-238v76h132q-135 74 -135 279q0 94 27.5 165.5t74 112.5
t101.5 61t116 20z" />
    <glyph glyph-name="estimated" unicode="&#x212e;" horiz-adv-x="945" 
d="M472 714q164 0 282.5 -106t119.5 -266h-656v-231q30 -42 103.5 -67.5t150.5 -25.5q83 0 155 27t116 76h47q-116 -135 -319 -135q-171 0 -286 102.5t-115 257.5q0 156 117.5 262t284.5 106zM473 682q-170 0 -255 -97v-211h509v211q-97 97 -254 97z" />
    <glyph glyph-name="uni2150" unicode="&#x2150;" horiz-adv-x="994" 
d="M754 712l-433 -724h-70l433 724h70zM954 420v-61q-74 -87 -109.5 -166t-50.5 -193h-85q17 121 57.5 201.5t113.5 156.5h-178v-48h-67v110h319zM74 280v62h109v232h-107v51h19q56 0 76.5 16.5t25.5 58.5h63v-358h92v-62h-278z" />
    <glyph glyph-name="uni2151" unicode="&#x2151;" horiz-adv-x="964" 
d="M754 712l-433 -724h-70l433 724h70zM748 -9q-105 0 -149 83l65 27q25 -50 86 -50q96 0 102 151q-37 -57 -115 -57q-60 0 -101 37t-41 102q0 67 47 106.5t119 39.5q77 0 123.5 -46t46.5 -139q0 -254 -183 -254zM760 205q39 0 63.5 23.5t24.5 59.5q0 37 -22.5 59.5
t-61.5 22.5t-63 -22.5t-24 -60.5q0 -37 22 -59.5t61 -22.5zM74 280v62h109v232h-107v51h19q56 0 76.5 16.5t25.5 58.5h63v-358h92v-62h-278z" />
    <glyph glyph-name="uni2152" unicode="&#x2152;" horiz-adv-x="1354" 
d="M754 712l-433 -724h-70l433 724h70zM628 0v62h109v232h-107v51h19q56 0 76.5 16.5t25.5 58.5h63v-358h92v-62h-278zM1154 430q80 0 125 -55.5t45 -164.5t-44.5 -163.5t-125.5 -54.5q-80 0 -124.5 55t-44.5 163q0 109 44.5 164.5t124.5 55.5zM1154 368q-90 0 -90 -158
q0 -156 90 -156t90 156q0 158 -90 158zM74 280v62h109v232h-107v51h19q56 0 76.5 16.5t25.5 58.5h63v-358h92v-62h-278z" />
    <glyph glyph-name="onethird" unicode="&#x2153;" horiz-adv-x="964" 
d="M754 712l-433 -724h-70l433 724h70zM767 430q72 0 112.5 -31t40.5 -81q0 -38 -24 -62.5t-66 -30.5q45 -5 74 -31.5t29 -71.5q0 -60 -46.5 -95t-121.5 -35q-66 0 -111 30t-59 83l72 17q8 -32 33.5 -50t64.5 -18q38 0 62.5 18.5t24.5 53.5q0 32 -23 49.5t-61 17.5h-47v57
h41q34 0 56 15t22 45q0 29 -20.5 44.5t-54.5 15.5q-72 0 -89 -62l-71 11q13 50 56 80.5t106 30.5zM74 280v62h109v232h-107v51h19q56 0 76.5 16.5t25.5 58.5h63v-358h92v-62h-278z" />
    <glyph glyph-name="twothirds" unicode="&#x2154;" horiz-adv-x="964" 
d="M754 712l-433 -724h-70l433 724h70zM767 430q72 0 112.5 -31t40.5 -81q0 -38 -24 -62.5t-66 -30.5q45 -5 74 -31.5t29 -71.5q0 -60 -46.5 -95t-121.5 -35q-66 0 -111 30t-59 83l72 17q8 -32 33.5 -50t64.5 -18q38 0 62.5 18.5t24.5 53.5q0 32 -23 49.5t-61 17.5h-47v57
h41q34 0 56 15t22 45q0 29 -20.5 44.5t-54.5 15.5q-72 0 -89 -62l-71 11q13 50 56 80.5t106 30.5zM202 710q70 0 110.5 -34t40.5 -91q0 -120 -207 -243h215v-62h-321v59q120 80 174.5 137t54.5 107q0 66 -71 66q-37 0 -56 -21.5t-20 -58.5h-80q1 60 41.5 100.5t118.5 40.5z
" />
    <glyph glyph-name="uni2155" unicode="&#x2155;" horiz-adv-x="974" 
d="M754 712l-433 -724h-70l433 724h70zM920 420l-9 -62h-197l-15 -105q42 39 103 39q59 0 101 -39.5t42 -104.5q0 -69 -46.5 -112.5t-129.5 -43.5q-66 0 -107.5 28.5t-57.5 71.5l70 23q22 -62 97 -62q42 0 67.5 26.5t25.5 65.5q0 38 -24 60.5t-64 22.5q-55 0 -89 -41l-68 11
l32 222h269zM74 280v62h109v232h-107v51h19q56 0 76.5 16.5t25.5 58.5h63v-358h92v-62h-278z" />
    <glyph glyph-name="uni2156" unicode="&#x2156;" horiz-adv-x="974" 
d="M754 712l-433 -724h-70l433 724h70zM920 420l-9 -62h-197l-15 -105q42 39 103 39q59 0 101 -39.5t42 -104.5q0 -69 -46.5 -112.5t-129.5 -43.5q-66 0 -107.5 28.5t-57.5 71.5l70 23q22 -62 97 -62q42 0 67.5 26.5t25.5 65.5q0 38 -24 60.5t-64 22.5q-55 0 -89 -41l-68 11
l32 222h269zM202 710q70 0 110.5 -34t40.5 -91q0 -120 -207 -243h215v-62h-321v59q120 80 174.5 137t54.5 107q0 66 -71 66q-37 0 -56 -21.5t-20 -58.5h-80q1 60 41.5 100.5t118.5 40.5z" />
    <glyph glyph-name="uni2157" unicode="&#x2157;" horiz-adv-x="934" 
d="M714 712l-433 -724h-70l433 724h70zM880 420l-9 -62h-197l-15 -105q42 39 103 39q59 0 101 -39.5t42 -104.5q0 -69 -46.5 -112.5t-129.5 -43.5q-66 0 -107.5 28.5t-57.5 71.5l70 23q22 -62 97 -62q42 0 67.5 26.5t25.5 65.5q0 38 -24 60.5t-64 22.5q-55 0 -89 -41l-68 11
l32 222h269zM203 710q72 0 112.5 -31t40.5 -81q0 -38 -24 -62.5t-66 -30.5q45 -5 74 -31.5t29 -71.5q0 -60 -46.5 -95t-121.5 -35q-66 0 -111 30t-59 83l72 17q8 -32 33.5 -50t64.5 -18q38 0 62.5 18.5t24.5 53.5q0 32 -23 49.5t-61 17.5h-47v57h41q34 0 56 15t22 45
q0 29 -20.5 44.5t-54.5 15.5q-72 0 -89 -62l-71 11q13 50 56 80.5t106 30.5z" />
    <glyph glyph-name="uni2158" unicode="&#x2158;" horiz-adv-x="964" 
d="M744 712l-433 -724h-70l433 724h70zM910 420l-9 -62h-197l-15 -105q42 39 103 39q59 0 101 -39.5t42 -104.5q0 -69 -46.5 -112.5t-129.5 -43.5q-66 0 -107.5 28.5t-57.5 71.5l70 23q22 -62 97 -62q42 0 67.5 26.5t25.5 65.5q0 38 -24 60.5t-64 22.5q-55 0 -89 -41l-68 11
l32 222h269zM317 700v-274h64v-62h-64v-84h-76v84h-223v64l198 272h101zM241 624l-148 -198h148v198z" />
    <glyph glyph-name="uni2159" unicode="&#x2159;" horiz-adv-x="954" 
d="M754 712l-433 -724h-70l433 724h70zM767 430q103 0 142 -83l-66 -24q-20 47 -77 47q-95 0 -104 -148q36 60 117 60q59 0 101 -37t42 -101q0 -71 -46 -111.5t-119 -40.5q-78 0 -125 46.5t-47 142.5q0 121 48.5 185t133.5 64zM758 222q-38 0 -62.5 -22.5t-24.5 -59.5
q0 -38 24 -63t61 -25q38 0 61 23.5t23 63.5q0 38 -22 60.5t-60 22.5zM74 280v62h109v232h-107v51h19q56 0 76.5 16.5t25.5 58.5h63v-358h92v-62h-278z" />
    <glyph glyph-name="uni215A" unicode="&#x215a;" horiz-adv-x="914" 
d="M714 712l-433 -724h-70l433 724h70zM727 430q103 0 142 -83l-66 -24q-20 47 -77 47q-95 0 -104 -148q36 60 117 60q59 0 101 -37t42 -101q0 -71 -46 -111.5t-119 -40.5q-78 0 -125 46.5t-47 142.5q0 121 48.5 185t133.5 64zM718 222q-38 0 -62.5 -22.5t-24.5 -59.5
q0 -38 24 -63t61 -25q38 0 61 23.5t23 63.5q0 38 -22 60.5t-60 22.5zM346 700l-9 -62h-197l-15 -105q42 39 103 39q59 0 101 -39.5t42 -104.5q0 -69 -46.5 -112.5t-129.5 -43.5q-66 0 -107.5 28.5t-57.5 71.5l70 23q22 -62 97 -62q42 0 67.5 26.5t25.5 65.5q0 38 -24 60.5
t-64 22.5q-55 0 -89 -41l-68 11l32 222h269z" />
    <glyph glyph-name="oneeighth" unicode="&#x215b;" horiz-adv-x="964" 
d="M754 712l-433 -724h-70l433 724h70zM762 -8q-89 0 -133.5 37t-44.5 85q0 82 92 109q-69 35 -69 95q0 44 39.5 78t115.5 34t115.5 -32t39.5 -74q0 -31 -22 -57t-55 -39q58 -19 80 -43.5t22 -65.5q0 -51 -43 -89t-137 -38zM760 254l23 -6q58 25 58 69q0 24 -19.5 39.5
t-57.5 15.5t-58 -15.5t-20 -38.5q0 -25 17 -39t57 -25zM763 52q50 0 74.5 19t24.5 45q0 30 -21 44.5t-80 31.5l-28 8q-67 -25 -67 -81q0 -29 25 -48t72 -19zM74 280v62h109v232h-107v51h19q56 0 76.5 16.5t25.5 58.5h63v-358h92v-62h-278z" />
    <glyph glyph-name="threeeighths" unicode="&#x215c;" horiz-adv-x="924" 
d="M714 712l-433 -724h-70l433 724h70zM722 -8q-89 0 -133.5 37t-44.5 85q0 82 92 109q-69 35 -69 95q0 44 39.5 78t115.5 34t115.5 -32t39.5 -74q0 -31 -22 -57t-55 -39q58 -19 80 -43.5t22 -65.5q0 -51 -43 -89t-137 -38zM720 254l23 -6q58 25 58 69q0 24 -19.5 39.5
t-57.5 15.5t-58 -15.5t-20 -38.5q0 -25 17 -39t57 -25zM723 52q50 0 74.5 19t24.5 45q0 30 -21 44.5t-80 31.5l-28 8q-67 -25 -67 -81q0 -29 25 -48t72 -19zM203 710q72 0 112.5 -31t40.5 -81q0 -38 -24 -62.5t-66 -30.5q45 -5 74 -31.5t29 -71.5q0 -60 -46.5 -95
t-121.5 -35q-66 0 -111 30t-59 83l72 17q8 -32 33.5 -50t64.5 -18q38 0 62.5 18.5t24.5 53.5q0 32 -23 49.5t-61 17.5h-47v57h41q34 0 56 15t22 45q0 29 -20.5 44.5t-54.5 15.5q-72 0 -89 -62l-71 11q13 50 56 80.5t106 30.5z" />
    <glyph glyph-name="fiveeighths" unicode="&#x215d;" horiz-adv-x="924" 
d="M714 712l-433 -724h-70l433 724h70zM722 -8q-89 0 -133.5 37t-44.5 85q0 82 92 109q-69 35 -69 95q0 44 39.5 78t115.5 34t115.5 -32t39.5 -74q0 -31 -22 -57t-55 -39q58 -19 80 -43.5t22 -65.5q0 -51 -43 -89t-137 -38zM720 254l23 -6q58 25 58 69q0 24 -19.5 39.5
t-57.5 15.5t-58 -15.5t-20 -38.5q0 -25 17 -39t57 -25zM723 52q50 0 74.5 19t24.5 45q0 30 -21 44.5t-80 31.5l-28 8q-67 -25 -67 -81q0 -29 25 -48t72 -19zM346 700l-9 -62h-197l-15 -105q42 39 103 39q59 0 101 -39.5t42 -104.5q0 -69 -46.5 -112.5t-129.5 -43.5
q-66 0 -107.5 28.5t-57.5 71.5l70 23q22 -62 97 -62q42 0 67.5 26.5t25.5 65.5q0 38 -24 60.5t-64 22.5q-55 0 -89 -41l-68 11l32 222h269z" />
    <glyph glyph-name="seveneighths" unicode="&#x215e;" horiz-adv-x="874" 
d="M664 712l-433 -724h-70l433 724h70zM672 -8q-89 0 -133.5 37t-44.5 85q0 82 92 109q-69 35 -69 95q0 44 39.5 78t115.5 34t115.5 -32t39.5 -74q0 -31 -22 -57t-55 -39q58 -19 80 -43.5t22 -65.5q0 -51 -43 -89t-137 -38zM670 254l23 -6q58 25 58 69q0 24 -19.5 39.5
t-57.5 15.5t-58 -15.5t-20 -38.5q0 -25 17 -39t57 -25zM673 52q50 0 74.5 19t24.5 45q0 30 -21 44.5t-80 31.5l-28 8q-67 -25 -67 -81q0 -29 25 -48t72 -19zM360 700v-61q-74 -87 -109.5 -166t-50.5 -193h-85q17 121 57.5 201.5t113.5 156.5h-178v-48h-67v110h319z" />
    <glyph glyph-name="uni215F" unicode="&#x215f;" horiz-adv-x="614" 
d="M754 712l-433 -724h-70l433 724h70zM74 280v62h109v232h-107v51h19q56 0 76.5 16.5t25.5 58.5h63v-358h92v-62h-278z" />
    <glyph glyph-name="uni2189" unicode="&#x2189;" horiz-adv-x="914" 
d="M704 712l-433 -724h-70l433 724h70zM717 430q72 0 112.5 -31t40.5 -81q0 -38 -24 -62.5t-66 -30.5q45 -5 74 -31.5t29 -71.5q0 -60 -46.5 -95t-121.5 -35q-66 0 -111 30t-59 83l72 17q8 -32 33.5 -50t64.5 -18q38 0 62.5 18.5t24.5 53.5q0 32 -23 49.5t-61 17.5h-47v57
h41q34 0 56 15t22 45q0 29 -20.5 44.5t-54.5 15.5q-72 0 -89 -62l-71 11q13 50 56 80.5t106 30.5zM200 710q80 0 125 -55.5t45 -164.5t-44.5 -163.5t-125.5 -54.5q-80 0 -124.5 55t-44.5 163q0 109 44.5 164.5t124.5 55.5zM200 648q-90 0 -90 -158q0 -156 90 -156t90 156
q0 158 -90 158z" />
    <glyph glyph-name="arrowleft" unicode="&#x2190;" horiz-adv-x="900" 
d="M398 644l60 -51l-214 -228h543v-72h-543l214 -228l-60 -51l-285 315z" />
    <glyph glyph-name="arrowup" unicode="&#x2191;" horiz-adv-x="900" 
d="M450 674l316 -286l-48 -54l-228 213v-547h-80v547l-228 -213l-48 54z" />
    <glyph glyph-name="arrowright" unicode="&#x2192;" horiz-adv-x="900" 
d="M502 644l285 -315l-285 -315l-59 51l213 228h-543v72h543l-213 228z" />
    <glyph glyph-name="arrowdown" unicode="&#x2193;" horiz-adv-x="900" 
d="M490 635v-547l228 214l48 -55l-316 -286l-316 286l48 55l228 -214v547h80z" />
    <glyph glyph-name="arrowboth" unicode="&#x2194;" horiz-adv-x="1280" 
d="M892 644l285 -315l-285 -315l-59 51l213 228h-812l214 -228l-60 -51l-285 315l285 315l60 -51l-214 -228h812l-213 228z" />
    <glyph glyph-name="arrowupdn" unicode="&#x2195;" horiz-adv-x="900" 
d="M450 880l316 -286l-48 -55l-228 214v-826l228 214l48 -55l-316 -286l-316 286l48 55l228 -214v826l-228 -214l-48 55z" />
    <glyph glyph-name="uni2196" unicode="&#x2196;" horiz-adv-x="900" 
d="M636 601l5 -75l-312 -10l384 -386l-55 -54l-384 385l-10 -312l-78 3l22 427z" />
    <glyph glyph-name="uni2197" unicode="&#x2197;" horiz-adv-x="900" 
d="M265 601l428 -22l22 -427l-78 -3l-11 312l-383 -385l-55 54l384 386l-312 10z" />
    <glyph glyph-name="uni2198" unicode="&#x2198;" horiz-adv-x="900" 
d="M242 558l384 -386l10 312l78 -3l-22 -427l-428 -22l-5 75l312 11l-384 386z" />
    <glyph glyph-name="uni2199" unicode="&#x2199;" horiz-adv-x="900" 
d="M658 558l55 -54l-384 -386l312 -11l-5 -75l-428 22l-22 427l78 3l10 -312z" />
    <glyph glyph-name="partialdiff" unicode="&#x2202;" horiz-adv-x="612" 
d="M130 644v67q201 -3 310.5 -104t109.5 -308q0 -156 -68.5 -234.5t-184.5 -78.5q-110 0 -180.5 66t-70.5 172q0 107 66 170.5t165 63.5q61 0 113 -28t75 -74q-15 149 -99 217.5t-236 70.5zM292 388q-75 0 -118.5 -46t-43.5 -118q0 -79 47.5 -124t119.5 -45q73 0 117 46.5
t44 126.5q0 70 -46 115t-120 45z" />
    <glyph glyph-name="emptyset" unicode="&#x2205;" horiz-adv-x="900" 
d="M737 711l-57 -77q63 -51 98.5 -125.5t35.5 -159.5q0 -153 -105.5 -258t-257.5 -105q-113 0 -204 61l-43 -58h-59l64 87q-123 107 -123 273q0 152 106.5 258.5t258.5 106.5q104 0 190 -53l37 50h59zM155 349q0 -131 94 -219l352 477q-68 41 -150 41q-124 0 -210 -87.5
t-86 -211.5zM451 52q124 0 209 86.5t85 210.5q0 69 -28 129t-77 101l-353 -478q73 -49 164 -49z" />
    <glyph glyph-name="Delta" unicode="&#x2206;" horiz-adv-x="619" 
d="M365 700l238 -700h-586l239 700h109zM127 72h361l-180 554z" />
    <glyph glyph-name="product" unicode="&#x220f;" horiz-adv-x="620" 
d="M580 700v-68h-86v-632h-82v632h-204v-632h-82v632h-86v68h540z" />
    <glyph glyph-name="summation" unicode="&#x2211;" 
d="M539 700v-68h-382l218 -241v-64l-219 -258h383v-69h-478v60l251 299l-251 279v62h478z" />
    <glyph glyph-name="minus" unicode="&#x2212;" 
d="M496 329v-73h-392v73h392z" />
    <glyph glyph-name="uni2215" unicode="&#x2215;" 
d="M551 712l-433 -724h-70l433 724h70z" />
    <glyph glyph-name="uni2219" unicode="&#x2219;" 
d="M301 406q41 0 71 -29.5t30 -71.5t-29.5 -71.5t-71.5 -29.5q-43 0 -73 30t-30 73q0 41 30 70t73 29z" />
    <glyph glyph-name="radical" unicode="&#x221a;" 
d="M687 867v-68h-186l-231 -799h-84l-193 521h85l147 -419l217 765h245z" />
    <glyph glyph-name="infinity" unicode="&#x221e;" horiz-adv-x="892" 
d="M629 463q91 0 143.5 -57t52.5 -141q0 -85 -53.5 -141.5t-148.5 -56.5q-112 0 -178 128q-66 -128 -182 -128q-91 0 -143.5 57t-52.5 141q0 85 53.5 141.5t148.5 56.5q61 0 103 -32.5t75 -94.5q65 127 182 127zM268 397q-53 0 -87 -35t-34 -97q0 -61 32.5 -96t82.5 -35
q97 0 152 139q-13 28 -23 46t-27 38t-41 30t-55 10zM630 396q-96 0 -152 -138q13 -29 23 -46.5t27 -38t41 -30.5t55 -10q53 0 87 35t34 97q0 60 -32.5 95.5t-82.5 35.5z" />
    <glyph glyph-name="integral" unicode="&#x222b;" horiz-adv-x="300" 
d="M271 852q47 0 101 -16v-66q-50 16 -91 16q-91 0 -91 -77v-785q0 -56 -40 -94.5t-122 -38.5q-47 0 -101 16v66q50 -16 91 -16q91 0 91 77v785q0 56 40.5 94.5t121.5 38.5z" />
    <glyph glyph-name="congruent" unicode="&#x2245;" 
d="M504 400v-73h-392v73h392zM504 192v-73h-392v73h392zM217 681q46 0 99 -29.5t72 -29.5q48 0 80 54l47 -40q-48 -86 -132 -86q-46 0 -99 30t-72 30q-48 0 -80 -54l-47 40q47 85 132 85z" />
    <glyph glyph-name="approxequal" unicode="&#x2248;" 
d="M217 472q46 0 99 -29.5t72 -29.5q48 0 80 54l47 -40q-48 -86 -132 -86q-46 0 -99 30t-72 30q-48 0 -80 -54l-47 40q47 85 132 85zM217 283q46 0 99 -29.5t72 -29.5q48 0 80 54l47 -40q-48 -86 -132 -86q-46 0 -99 30t-72 30q-48 0 -80 -54l-47 40q47 85 132 85z" />
    <glyph glyph-name="uni2259" unicode="&#x2259;" 
d="M331 700l129 -179h-81l-79 113l-80 -113h-82l130 179h63zM496 443v-73h-392v73h392zM496 235v-73h-392v73h392z" />
    <glyph glyph-name="notequal" unicode="&#x2260;" 
d="M496 370h-121l-77 -135h198v-73h-239l-80 -140h-70l80 140h-83v73h125l78 135h-203v73h245l76 133h67l-76 -133h80v-73z" />
    <glyph glyph-name="lessequal" unicode="&#x2264;" 
d="M496 565v-79l-331 -133l331 -133v-79l-392 165v95zM496 73v-73h-392v73h392z" />
    <glyph glyph-name="greaterequal" unicode="&#x2265;" 
d="M104 565l392 -164v-95l-392 -165v79l331 133l-331 133v79zM496 73v-73h-392v73h392z" />
    <glyph glyph-name="dotmath" unicode="&#x22c5;" 
d="M300 354q24 0 41.5 -17t17.5 -42t-17.5 -42t-41.5 -17q-25 0 -42.5 17.5t-17.5 42.5q0 24 17.5 41t42.5 17z" />
    <glyph glyph-name="uni2460" unicode="&#x2460;" horiz-adv-x="900" 
d="M327 159v56h99v211h-97v47h17q51 0 70 15t23 53h57v-326h84v-56h-253zM451 714q152 0 258 -106t106 -259t-105.5 -258t-258.5 -105q-152 0 -258.5 105.5t-106.5 257.5q0 153 106.5 259t258.5 106zM451 665q-131 0 -222 -92t-91 -224q0 -131 91 -222.5t222 -91.5
q130 0 220 91.5t90 222.5q0 132 -90 224t-220 92z" />
    <glyph glyph-name="uni2461" unicode="&#x2461;" horiz-adv-x="900" 
d="M452 550q63 0 100 -31t37 -83q0 -109 -188 -221h195v-56h-292v54q109 73 159 124.5t50 96.5q0 60 -65 60q-33 0 -50.5 -19.5t-18.5 -52.5h-73q1 55 38.5 91.5t107.5 36.5zM451 714q152 0 258 -106t106 -259t-105.5 -258t-258.5 -105q-152 0 -258.5 105.5t-106.5 257.5
q0 153 106.5 259t258.5 106zM451 665q-131 0 -222 -92t-91 -224q0 -131 91 -222.5t222 -91.5q130 0 220 91.5t90 222.5q0 132 -90 224t-220 92z" />
    <glyph glyph-name="uni2462" unicode="&#x2462;" horiz-adv-x="900" 
d="M453 550q66 0 102.5 -28.5t36.5 -73.5q0 -34 -22 -56.5t-60 -27.5q41 -5 67 -29.5t26 -64.5q0 -55 -42 -86.5t-110 -31.5q-60 0 -101 27t-54 75l66 16q17 -62 89 -62q34 0 56.5 17t22.5 49q0 29 -21 44.5t-56 15.5h-42v52h37q30 0 50.5 13.5t20.5 41.5q0 26 -19 40
t-49 14q-65 0 -81 -56l-65 10q12 46 51 73.5t97 27.5zM451 714q152 0 258 -106t106 -259t-105.5 -258t-258.5 -105q-152 0 -258.5 105.5t-106.5 257.5q0 153 106.5 259t258.5 106zM451 665q-131 0 -222 -92t-91 -224q0 -131 91 -222.5t222 -91.5q130 0 220 91.5t90 222.5
q0 132 -90 224t-220 92z" />
    <glyph glyph-name="uni2463" unicode="&#x2463;" horiz-adv-x="900" 
d="M542 541v-249h58v-57h-58v-76h-69v76h-203v59l180 247h92zM473 472l-134 -180h134v180zM451 714q152 0 258 -106t106 -259t-105.5 -258t-258.5 -105q-152 0 -258.5 105.5t-106.5 257.5q0 153 106.5 259t258.5 106zM451 665q-131 0 -222 -92t-91 -224q0 -131 91 -222.5
t222 -91.5q130 0 220 91.5t90 222.5q0 132 -90 224t-220 92z" />
    <glyph glyph-name="uni2464" unicode="&#x2464;" horiz-adv-x="900" 
d="M582 541l-9 -57h-179l-13 -95q38 35 93 35q54 0 92 -36t38 -94q0 -63 -42.5 -102.5t-117.5 -39.5q-60 0 -97.5 26t-52.5 65l64 21q21 -57 88 -57q39 0 62 24t23 60q0 35 -22 55t-58 20q-50 0 -81 -37l-62 10l29 202h245zM451 714q152 0 258 -106t106 -259t-105.5 -258
t-258.5 -105q-152 0 -258.5 105.5t-106.5 257.5q0 153 106.5 259t258.5 106zM451 665q-131 0 -222 -92t-91 -224q0 -131 91 -222.5t222 -91.5q130 0 220 91.5t90 222.5q0 132 -90 224t-220 92z" />
    <glyph glyph-name="uni2465" unicode="&#x2465;" horiz-adv-x="900" 
d="M457 550q93 0 129 -76l-60 -21q-19 42 -70 42q-86 0 -95 -134q33 54 107 54q54 0 92 -33.5t38 -91.5q0 -64 -41.5 -101t-108.5 -37q-71 0 -114 42t-43 130q0 110 44 168t122 58zM448 361q-35 0 -57 -20.5t-22 -54.5q0 -35 22 -57.5t56 -22.5t55 21.5t21 57.5
q0 35 -20 55.5t-55 20.5zM451 714q152 0 258 -106t106 -259t-105.5 -258t-258.5 -105q-152 0 -258.5 105.5t-106.5 257.5q0 153 106.5 259t258.5 106zM451 665q-131 0 -222 -92t-91 -224q0 -131 91 -222.5t222 -91.5q130 0 220 91.5t90 222.5q0 132 -90 224t-220 92z" />
    <glyph glyph-name="uni2466" unicode="&#x2466;" horiz-adv-x="900" 
d="M602 541v-56q-67 -79 -99.5 -150.5t-45.5 -175.5h-77q15 110 52 183t103 142h-162v-43h-61v100h290zM451 714q152 0 258 -106t106 -259t-105.5 -258t-258.5 -105q-152 0 -258.5 105.5t-106.5 257.5q0 153 106.5 259t258.5 106zM451 665q-131 0 -222 -92t-91 -224
q0 -131 91 -222.5t222 -91.5q130 0 220 91.5t90 222.5q0 132 -90 224t-220 92z" />
    <glyph glyph-name="uni2467" unicode="&#x2467;" horiz-adv-x="900" 
d="M448 152q-81 0 -121.5 33.5t-40.5 77.5q0 74 84 99q-63 32 -63 86q0 40 36 71t105 31t105 -29t36 -67q0 -29 -20 -52.5t-50 -35.5q53 -17 73 -39.5t20 -59.5q0 -46 -39 -80.5t-125 -34.5zM446 390l21 -6q53 23 53 63q0 22 -18 36t-52 14q-35 0 -53 -14t-18 -35
q0 -23 15.5 -35.5t51.5 -22.5zM449 206q46 0 68 17.5t22 40.5q0 28 -18.5 40.5t-73.5 29.5l-25 7q-61 -22 -61 -74q0 -26 22.5 -43.5t65.5 -17.5zM451 714q152 0 258 -106t106 -259t-105.5 -258t-258.5 -105q-152 0 -258.5 105.5t-106.5 257.5q0 153 106.5 259t258.5 106z
M451 665q-131 0 -222 -92t-91 -224q0 -131 91 -222.5t222 -91.5q130 0 220 91.5t90 222.5q0 132 -90 224t-220 92z" />
    <glyph glyph-name="uni2468" unicode="&#x2468;" horiz-adv-x="900" 
d="M436 151q-96 0 -135 75l59 25q22 -46 78 -46q87 0 93 138q-34 -52 -105 -52q-54 0 -91.5 33.5t-37.5 92.5q0 61 43 97t108 36q70 0 112.5 -42t42.5 -126q0 -231 -167 -231zM447 345q36 0 58 21.5t22 54.5t-20.5 53.5t-55.5 20.5q-36 0 -57.5 -20.5t-21.5 -54.5t20 -54.5
t55 -20.5zM451 714q152 0 258 -106t106 -259t-105.5 -258t-258.5 -105q-152 0 -258.5 105.5t-106.5 257.5q0 153 106.5 259t258.5 106zM451 665q-131 0 -222 -92t-91 -224q0 -131 91 -222.5t222 -91.5q130 0 220 91.5t90 222.5q0 132 -90 224t-220 92z" />
    <glyph glyph-name="uni24EA" unicode="&#x24ea;" horiz-adv-x="900" 
d="M450 550q72 0 113 -51t41 -149q0 -99 -40.5 -148.5t-113.5 -49.5t-113.5 49.5t-40.5 148.5t40.5 149.5t113.5 50.5zM450 494q-82 0 -82 -144q0 -142 82 -142t82 142q0 144 -82 144zM451 714q152 0 258 -106t106 -259t-105.5 -258t-258.5 -105q-152 0 -258.5 105.5
t-106.5 257.5q0 153 106.5 259t258.5 106zM451 665q-131 0 -222 -92t-91 -224q0 -131 91 -222.5t222 -91.5q130 0 220 91.5t90 222.5q0 132 -90 224t-220 92z" />
    <glyph glyph-name="uni24FF" unicode="&#x24ff;" horiz-adv-x="900" 
d="M451 -14q-152 0 -258.5 105.5t-106.5 257.5q0 153 106.5 259t258.5 106t258 -106t106 -259t-105.5 -258t-258.5 -105zM450 152q73 0 113.5 50t40.5 149q0 98 -41 148.5t-113 50.5q-73 0 -113.5 -50.5t-40.5 -148.5q0 -99 40.5 -149t113.5 -50zM450 208q-82 0 -82 143
t82 143t82 -143t-82 -143z" />
    <glyph glyph-name="filledbox" unicode="&#x25a0;" 
d="M110 454h379v-379h-379v379z" />
    <glyph glyph-name="uni25A1" unicode="&#x25a1;" 
d="M110 454h379v-379h-379v379zM183 381v-233h233v233h-233z" />
    <glyph glyph-name="uni25B3" unicode="&#x25b3;" horiz-adv-x="900" 
d="M100 0l352 709l348 -709h-700zM222 72h455l-226 463z" />
    <glyph glyph-name="uni25B4" unicode="&#x25b4;" 
d="M299 454l190 -379h-379z" />
    <glyph glyph-name="uni25B8" unicode="&#x25b8;" 
d="M489 264l-379 -189v379z" />
    <glyph glyph-name="uni25BD" unicode="&#x25bd;" horiz-adv-x="900" 
d="M452 -9l-352 709h700zM677 628h-455l229 -463z" />
    <glyph glyph-name="uni25BE" unicode="&#x25be;" 
d="M299 75l-189 379h379z" />
    <glyph glyph-name="uni25C2" unicode="&#x25c2;" 
d="M110 264l379 190v-379z" />
    <glyph glyph-name="uni25C6" unicode="&#x25c6;" 
d="M300 539l260 -273l-260 -278l-260 278z" />
    <glyph glyph-name="uni25C7" unicode="&#x25c7;" 
d="M300 539l260 -273l-260 -278l-260 278zM300 441l-167 -175l167 -181l166 181z" />
    <glyph glyph-name="lozenge" unicode="&#x25ca;" 
d="M350 700l209 -339l-209 -361h-100l-210 359l210 341h100zM300 648l-174 -288l175 -308l174 308z" />
    <glyph glyph-name="circle" unicode="&#x25cb;" 
d="M301 27q-100 0 -170.5 70.5t-70.5 171.5q0 100 70.5 170.5t170.5 70.5t170 -70.5t70 -170.5q0 -101 -70 -171.5t-170 -70.5zM301 97q68 0 115.5 49t47.5 123q0 73 -47.5 122t-115.5 49q-69 0 -116.5 -49t-47.5 -122q0 -74 47.5 -123t116.5 -49z" />
    <glyph glyph-name="uni25CF" unicode="&#x25cf;" 
d="M301 27q-101 0 -171.5 70.5t-70.5 171.5q0 100 71 170.5t171 70.5t170.5 -70.5t70.5 -170.5t-70.5 -171t-170.5 -71z" />
    <glyph glyph-name="uni2605" unicode="&#x2605;" horiz-adv-x="900" 
d="M611 267l79 -277l-242 177l-242 -177l80 280l-201 195l266 -29l94 277l96 -278l273 29z" />
    <glyph glyph-name="uni2610" unicode="&#x2610;" horiz-adv-x="900" 
d="M100 0v700h700v-700h-700zM174 74h552v552h-552v-552z" />
    <glyph glyph-name="uni2611" unicode="&#x2611;" horiz-adv-x="900" 
d="M100 0v700h700v-700h-700zM174 74h552v552h-552v-552zM561 539h55l-179 -370h-57l-80 171h58l52 -113z" />
    <glyph glyph-name="uni2612" unicode="&#x2612;" horiz-adv-x="900" 
d="M100 0v700h700v-700h-700zM174 74h552v552h-552v-552zM657 569l-162 -223l90 -185h-67l-68 140l-130 -176h-69l170 234l-87 178h66l66 -132l122 164h69z" />
    <glyph glyph-name="uni2620" unicode="&#x2620;" 
d="M300 129q-41 0 -72 10l-33 65q-17 10 -23.5 17t-9.5 21v42q-31 35 -31 102q0 66 48.5 109.5t120.5 43.5t120.5 -43.5t48.5 -109.5q0 -67 -31 -102v-42q-3 -14 -9.5 -21t-23.5 -17l-33 -65q-31 -10 -72 -10zM138 231l-57 28q-30 -19 -49 -19q-11 0 -19 7t-8 20q0 31 36 35
l3 7q-13 11 -13 29q0 13 8.5 21t23.5 8q36 0 41 -58l34 -20v-58zM462 231v58l34 20q5 58 41 58q15 0 23.5 -8t8.5 -21q0 -18 -13 -29l3 -7q36 -4 36 -35q0 -13 -8 -20t-19 -7q-19 0 -49 19zM219 285q17 0 28.5 10.5t11.5 26.5q0 17 -11.5 28t-28.5 11q-16 0 -27.5 -11
t-11.5 -28q0 -16 11.5 -26.5t27.5 -10.5zM381 285q16 0 27.5 10.5t11.5 26.5q0 17 -11.5 28t-27.5 11q-17 0 -28.5 -11t-11.5 -28q0 -16 11.5 -26.5t28.5 -10.5zM265 235v-29q7 0 18 3.5t17 3.5t17 -3.5t18 -3.5v29q-16 45 -35 45t-35 -45zM90 32q-15 0 -23.5 8t-8.5 21
q0 18 13 29l-3 7q-36 4 -36 35q0 13 8 20t19 7q19 0 49 -19l71 38l25 -47l-73 -41q-5 -58 -41 -58zM510 32q-36 0 -41 58l-73 41l25 47l71 -38q30 19 49 19q11 0 19 -7t8 -20q0 -31 -36 -35l-3 -7q13 -11 13 -29q0 -13 -8.5 -21t-23.5 -8z" />
    <glyph glyph-name="smileface" unicode="&#x263a;" 
d="M301 -12q-113 0 -192 79t-79 193q0 113 79 191.5t192 78.5q112 0 191 -78.5t79 -191.5q0 -114 -79 -193t-191 -79zM301 40q88 0 148.5 62.5t60.5 157.5q0 94 -61 156t-148 62q-88 0 -149 -62t-61 -156q0 -95 61 -157.5t149 -62.5zM218 297q-21 0 -34.5 13.5t-13.5 33.5
q0 19 13.5 32t34.5 13t34 -13t13 -32q0 -20 -13 -33.5t-34 -13.5zM378 297q-21 0 -34.5 13.5t-13.5 33.5q0 19 13.5 32t34.5 13t34 -13t13 -32q0 -20 -13 -33.5t-34 -13.5zM301 98q-62 0 -104 41t-49 97h49q21 -89 104 -89q82 0 103 89h49q-7 -56 -49 -97t-103 -41z" />
    <glyph glyph-name="invsmileface" unicode="&#x263b;" 
d="M301 -12q-113 0 -192 79t-79 193q0 113 79 191.5t192 78.5q112 0 191 -78.5t79 -191.5q0 -114 -79 -193t-191 -79zM212 299q21 0 34 13.5t13 33.5q0 19 -13 32t-34 13t-34.5 -13t-13.5 -32q0 -20 13.5 -33.5t34.5 -13.5zM386 299q21 0 34 13.5t13 33.5q0 19 -13 32
t-34 13t-34.5 -13t-13.5 -32q0 -20 13.5 -33.5t34.5 -13.5zM301 82q61 0 103 41t49 97h-49q-21 -90 -103 -90q-83 0 -104 90h-49q7 -56 49 -97t104 -41z" />
    <glyph glyph-name="sun" unicode="&#x263c;" 
d="M322 533v-109q43 -4 77 -31l81 82l33 -33l-81 -79q28 -36 34 -81h111v-43h-111q-6 -46 -33 -79l80 -78l-33 -32l-79 80q-35 -26 -79 -32v-110h-44v110q-44 6 -79 32l-79 -80l-32 32l79 79q-26 33 -32 78h-111v43h111q6 45 33 80l-80 80l32 33l80 -82q36 27 78 31v109h44z
M300 373q-47 0 -78 -32t-31 -80t31 -79.5t78 -31.5t78.5 31.5t31.5 79.5q0 47 -31.5 79.5t-78.5 32.5z" />
    <glyph glyph-name="female" unicode="&#x2640;" 
d="M326 226v-78h97v-45h-97v-103h-50v103h-99v45h99v77q-57 8 -95 51t-38 102q0 65 45.5 110t111.5 45q65 0 111 -45t46 -110q0 -59 -37 -101t-94 -51zM199 378q0 -44 29 -73.5t72 -29.5t72 29.5t29 73.5t-29 73.5t-72 29.5t-72 -29.5t-29 -73.5z" />
    <glyph glyph-name="male" unicode="&#x2642;" 
d="M514 521l33 -239l-49 -6l-22 165l-152 -180q43 -45 43 -108q0 -66 -46.5 -109.5t-112.5 -43.5q-65 0 -110 44.5t-45 108.5q0 66 45.5 111t111.5 45q40 0 73 -18l153 183l-176 -11v49zM210 51q43 0 72 29.5t29 72.5q0 44 -29 74t-72 30t-72 -30t-29 -74t29 -73t72 -29z
" />
    <glyph glyph-name="spade" unicode="&#x2660;" 
d="M80 0l20 45q97 0 139.5 29.5t42.5 125.5q-39 -64 -114 -64q-45 0 -71.5 26t-26.5 72q0 34 13.5 66t50.5 74.5t67.5 72t98.5 92.5q68 -63 98.5 -92.5t67.5 -72t50.5 -74.5t13.5 -66q0 -46 -26.5 -72t-71.5 -26q-75 0 -114 64q0 -96 42.5 -125.5t139.5 -29.5l20 -45h-440z
" />
    <glyph glyph-name="club" unicode="&#x2663;" 
d="M80 0l20 45q97 0 139.5 29.5t42.5 125.5q-40 -66 -108 -66q-49 0 -81.5 32t-32.5 82q0 48 30 78t77 30q34 0 67 -14q-54 44 -54 99q0 48 33 77t87 29t87 -29t33 -77q0 -55 -54 -99q33 14 67 14q47 0 77 -30t30 -78q0 -50 -32.5 -82t-81.5 -32q-69 0 -108 66
q0 -96 42.5 -125.5t139.5 -29.5l20 -45h-440z" />
    <glyph glyph-name="heart" unicode="&#x2665;" 
d="M434 539q56 0 91 -33.5t35 -90.5q0 -29 -6.5 -55t-27 -57t-34.5 -51t-55 -60t-60.5 -58t-76.5 -70q-140 128 -181 175q-79 92 -79 176q0 57 35 90.5t91 33.5q49 0 79 -23t55 -69q25 46 55 69t79 23z" />
    <glyph glyph-name="diamond" unicode="&#x2666;" 
d="M300 539l220 -273l-220 -278l-220 278z" />
    <glyph glyph-name="musicalnote" unicode="&#x266a;" 
d="M352 521l47 -30q47 -29 66.5 -56.5t19.5 -66.5q0 -31 -20 -73l-26 10q4 20 4 33q0 38 -15 61.5t-49 46.5l-27 18v-366q0 -45 -37.5 -77t-91.5 -32q-49 0 -77.5 19.5t-28.5 53.5q0 38 32 62.5t78 24.5q45 0 73 -16v388h52z" />
    <glyph glyph-name="musicalnotedbl" unicode="&#x266b;" 
d="M561 579v-424q0 -51 -38 -84t-95 -33q-47 0 -74.5 18.5t-27.5 51.5q0 37 36 63.5t89 26.5q33 0 57 -13v301l-236 -61v-320q0 -50 -36 -83t-96 -33q-46 0 -74 19t-28 54q0 37 32 62t83 25q43 0 67 -13v355z" />
    <glyph glyph-name="uni2713" unicode="&#x2713;" 
d="M444 572h79l-256 -529h-81l-115 244h84l73 -161z" />
    <glyph glyph-name="uni2717" unicode="&#x2717;" 
d="M575 572l-203 -278l113 -231h-84l-85 174l-162 -219h-87l213 292l-109 223h83l82 -166l153 205h86z" />
    <glyph glyph-name="uni2776" unicode="&#x2776;" horiz-adv-x="900" 
d="M451 -14q-152 0 -258.5 105.5t-106.5 257.5q0 153 106.5 259t258.5 106t258 -106t106 -259t-105.5 -258t-258.5 -105zM328 159h252v56h-83v326h-57q-18 -67 -110 -68v-53q65 0 97 29v-234h-99v-56z" />
    <glyph glyph-name="uni2777" unicode="&#x2777;" horiz-adv-x="900" 
d="M451 -14q-152 0 -258.5 105.5t-106.5 257.5q0 153 106.5 259t258.5 106t258 -106t106 -259t-105.5 -258t-258.5 -105zM305 159h291v56h-195q188 112 188 222q0 51 -37 82t-100 31q-70 0 -107.5 -37t-37.5 -91h72q1 33 18.5 52.5t51.5 19.5q64 0 64 -60q0 -45 -50 -97
t-158 -124v-54z" />
    <glyph glyph-name="uni2778" unicode="&#x2778;" horiz-adv-x="900" 
d="M451 -14q-152 0 -258.5 105.5t-106.5 257.5q0 153 106.5 259t258.5 106t258 -106t106 -259t-105.5 -258t-258.5 -105zM451 152q68 0 110.5 32t42.5 86q0 41 -26.5 65.5t-67.5 28.5q38 6 60 28t22 57q0 45 -37 73t-102 28q-58 0 -97 -27.5t-51 -73.5l65 -10q16 56 81 56
q31 0 49.5 -13.5t18.5 -40.5q0 -28 -20.5 -41.5t-50.5 -13.5h-37v-51h43q34 0 54.5 -16t20.5 -45q0 -32 -22 -49t-57 -17q-71 0 -88 62l-66 -15q13 -48 54 -75.5t101 -27.5z" />
    <glyph glyph-name="uni2779" unicode="&#x2779;" horiz-adv-x="900" 
d="M451 -14q-152 0 -258.5 105.5t-106.5 257.5q0 153 106.5 259t258.5 106t258 -106t106 -259t-105.5 -258t-258.5 -105zM473 159h68v77h59v56h-59v249h-91l-180 -247v-58h203v-77zM339 292l134 179v-179h-134z" />
    <glyph glyph-name="uni277A" unicode="&#x277a;" horiz-adv-x="900" 
d="M451 -14q-152 0 -258.5 105.5t-106.5 257.5q0 153 106.5 259t258.5 106t258 -106t106 -259t-105.5 -258t-258.5 -105zM444 152q75 0 117.5 40t42.5 102q0 59 -38 94.5t-92 35.5q-58 0 -94 -35l14 96h179l8 56h-244l-29 -202l61 -10q31 38 81 38q36 0 58.5 -20.5
t22.5 -55.5q0 -36 -23.5 -60t-62.5 -24q-65 0 -88 56l-63 -20q14 -39 52 -65t98 -26z" />
    <glyph glyph-name="uni277B" unicode="&#x277b;" horiz-adv-x="900" 
d="M451 -14q-152 0 -258.5 105.5t-106.5 257.5q0 153 106.5 259t258.5 106t258 -106t106 -259t-105.5 -258t-258.5 -105zM448 152q66 0 107.5 37t41.5 101q0 58 -38 92t-92 34q-74 0 -106 -55q9 135 95 135q50 0 70 -43l59 21q-34 76 -129 76q-78 0 -121.5 -58t-43.5 -168
q0 -88 43 -130t114 -42zM448 206q-35 0 -56.5 22.5t-21.5 57.5q0 34 22 54.5t57 20.5t55 -20.5t20 -55.5t-21.5 -57t-54.5 -22z" />
    <glyph glyph-name="uni277C" unicode="&#x277c;" horiz-adv-x="900" 
d="M451 -14q-152 0 -258.5 105.5t-106.5 257.5q0 153 106.5 259t258.5 106t258 -106t106 -259t-105.5 -258t-258.5 -105zM380 159h77q13 103 45.5 175.5t99.5 151.5v55h-290v-100h61v44h161q-66 -70 -102.5 -143t-51.5 -183z" />
    <glyph glyph-name="uni277D" unicode="&#x277d;" horiz-adv-x="900" 
d="M451 -14q-152 0 -258.5 105.5t-106.5 257.5q0 153 106.5 259t258.5 106t258 -106t106 -259t-105.5 -258t-258.5 -105zM449 152q85 0 124.5 35t39.5 80q0 37 -20 60t-74 40q31 12 50.5 35t19.5 52q0 39 -35.5 67.5t-104.5 28.5t-105 -30.5t-36 -71.5q0 -55 62 -86
q-83 -25 -83 -99q0 -44 40.5 -77.5t121.5 -33.5zM467 385l-21 5q-36 11 -51.5 23.5t-15.5 34.5q0 21 18 35t53 14q34 0 52 -14t18 -36q0 -40 -53 -62zM449 206q-43 0 -65.5 17.5t-22.5 43.5q0 51 61 74l24 -7q52 -13 72.5 -27.5t20.5 -41.5q0 -24 -22 -41.5t-68 -17.5z" />
    <glyph glyph-name="uni277E" unicode="&#x277e;" horiz-adv-x="900" 
d="M451 -14q-152 0 -258.5 105.5t-106.5 257.5q0 153 106.5 259t258.5 106t258 -106t106 -259t-105.5 -258t-258.5 -105zM437 151q167 0 167 231q0 84 -42.5 126t-112.5 42q-66 0 -108.5 -36t-42.5 -96t37.5 -93.5t91.5 -33.5q72 0 104 52q-5 -138 -93 -138q-54 0 -78 46
l-58 -24q41 -76 135 -76zM448 346q-36 0 -56 20t-20 54q0 35 21.5 55t57.5 20q35 0 55.5 -20.5t20.5 -53.5t-21.5 -54t-57.5 -21z" />
    <glyph glyph-name="fi" unicode="&#xfb01;" horiz-adv-x="547" 
d="M274 711q70 0 124 -25v-66q-55 25 -115 25q-53 0 -77.5 -18t-24.5 -59v-47h285v-521h-82v458h-203v-458h-82v458h-74v63h74v57q0 57 43 95t132 38z" />
    <glyph glyph-name="fl" unicode="&#xfb02;" horiz-adv-x="575" 
d="M265 711q58 0 113 -17l82 5v-566q0 -40 9 -54t43 -14q3 0 29 2v-67q-25 -6 -54 -6q-109 0 -109 125v511q-51 15 -103 15q-49 0 -71.5 -18t-22.5 -59v-47h122v-63h-122v-458h-82v458h-74v63h74v57q0 56 41.5 94.5t124.5 38.5z" />
    <glyph glyph-name="uniFEFF" unicode="&#xfeff;" horiz-adv-x="0" 
 />
    <glyph glyph-name="u1F310" unicode="&#x1f310;" horiz-adv-x="900" 
d="M450 711q150 0 255.5 -105.5t105.5 -254.5q0 -150 -105.5 -255.5t-255.5 -105.5q-151 0 -256.5 105.5t-105.5 255.5q0 149 105.5 254.5t256.5 105.5zM384 662q-100 -21 -168 -100q37 -24 73 -39q36 83 95 139zM685 563q-70 78 -169 99q62 -59 95 -139q40 16 74 40z
M474 646v-151q55 3 94 14q-34 83 -94 137zM426 495v151q-59 -54 -93 -137q39 -11 93 -14zM646 372h117q-4 83 -51 155q-45 -29 -86 -44q19 -56 20 -111zM138 372h117q1 53 19 111q-46 17 -85 44q-47 -72 -51 -155zM474 453v-81h125q-1 47 -17 97q-47 -13 -108 -16zM426 372
v81q-56 3 -107 15q-15 -50 -16 -96h123zM255 329h-117q6 -86 51 -154q39 25 85 44q-18 56 -19 110zM426 329h-123q1 -46 16 -96q47 13 107 16v80zM474 329v-80q61 -3 108 -16q16 48 17 96h-125zM763 329h-117q-3 -61 -20 -110q44 -17 85 -45q46 69 52 155zM426 56v150
q-52 -3 -93 -13q34 -84 93 -137zM474 206v-150q60 54 94 136q-39 11 -94 14zM216 140q68 -79 168 -100q-60 57 -95 138q-40 -16 -73 -38zM517 40q100 23 167 99q-37 25 -73 39q-32 -78 -94 -138z" />
    <glyph glyph-name="f_f.alt001" horiz-adv-x="631" 
d="M552 645q-45 0 -64 -18t-19 -59v-47h149v-63h-149v-458h-82v458h-206v-458h-82v458h-74v63h74v50q0 57 42 97.5t127 40.5q78 0 155 -37q39 39 119 39q39 0 81 -14v-63q-36 11 -71 11zM387 521v57q0 22 4 38q-59 28 -120 28q-47 0 -68.5 -18.5t-21.5 -59.5v-45h206z" />
    <glyph glyph-name="f.alt001" horiz-adv-x="343" 
d="M254 711q39 0 81 -14v-63q-36 11 -71 11q-45 0 -64 -18t-19 -59v-47h149v-63h-149v-458h-82v458h-74v63h74v57q0 57 37 95t118 38z" />
    <glyph glyph-name="j.alt001" horiz-adv-x="245" 
d="M33 -177q-30 0 -46 5v65q9 -1 23 -1q38 0 55 20t17 74v535h82v-550q0 -76 -37.5 -112t-93.5 -36zM123 714q22 0 38 -15.5t16 -37.5t-16 -38t-38 -16q-23 0 -39 16t-16 38t16 37.5t39 15.5z" />
    <glyph glyph-name="caron.alt001" horiz-adv-x="144" 
d="M181 728l-79 -142h-55l44 142h90z" />
    <glyph glyph-name="j.ss01.alt001" horiz-adv-x="245" 
d="M33 -177q-30 0 -46 5v65q9 -1 23 -1q38 0 55 20t17 74v535h82v-550q0 -76 -37.5 -112t-93.5 -36zM170 713v-88h-94v88h94z" />
    <glyph glyph-name="parenleft.numr" horiz-adv-x="300" 
d="M180 748h50q-42 -68 -58 -123.5t-16 -119.5t16 -119.5t58 -123.5h-51q-40 53 -63 119t-23 124q0 57 23.5 123.5t63.5 119.5z" />
    <glyph glyph-name="parenright.numr" horiz-adv-x="300" 
d="M89 748h50q40 -53 63.5 -119.5t23.5 -123.5q0 -58 -23 -124t-63 -119h-51q42 68 58 123.5t16 119.5t-16 119.5t-58 123.5z" />
    <glyph glyph-name="plus.numr" horiz-adv-x="372" 
d="M214 620v-98h99v-56h-99v-98h-62v98h-99v56h99v98h62z" />
    <glyph glyph-name="zero.numr" horiz-adv-x="400" 
d="M200 710q80 0 125 -55.5t45 -164.5t-44.5 -163.5t-125.5 -54.5q-80 0 -124.5 55t-44.5 163q0 109 44.5 164.5t124.5 55.5zM200 648q-90 0 -90 -158q0 -156 90 -156t90 156q0 158 -90 158z" />
    <glyph glyph-name="one.numr" horiz-adv-x="400" 
d="M74 280v62h109v232h-107v51h19q56 0 76.5 16.5t25.5 58.5h63v-358h92v-62h-278z" />
    <glyph glyph-name="two.numr" horiz-adv-x="400" 
d="M202 710q70 0 110.5 -34t40.5 -91q0 -120 -207 -243h215v-62h-321v59q120 80 174.5 137t54.5 107q0 66 -71 66q-37 0 -56 -21.5t-20 -58.5h-80q1 60 41.5 100.5t118.5 40.5z" />
    <glyph glyph-name="three.numr" horiz-adv-x="400" 
d="M203 710q72 0 112.5 -31t40.5 -81q0 -38 -24 -62.5t-66 -30.5q45 -5 74 -31.5t29 -71.5q0 -60 -46.5 -95t-121.5 -35q-66 0 -111 30t-59 83l72 17q8 -32 33.5 -50t64.5 -18q38 0 62.5 18.5t24.5 53.5q0 32 -23 49.5t-61 17.5h-47v57h41q34 0 56 15t22 45q0 29 -20.5 44.5
t-54.5 15.5q-72 0 -89 -62l-71 11q13 50 56 80.5t106 30.5z" />
    <glyph glyph-name="four.numr" horiz-adv-x="400" 
d="M317 700v-274h64v-62h-64v-84h-76v84h-223v64l198 272h101zM241 624l-148 -198h148v198z" />
    <glyph glyph-name="five.numr" horiz-adv-x="400" 
d="M346 700l-9 -62h-197l-15 -105q42 39 103 39q59 0 101 -39.5t42 -104.5q0 -69 -46.5 -112.5t-129.5 -43.5q-66 0 -107.5 28.5t-57.5 71.5l70 23q22 -62 97 -62q42 0 67.5 26.5t25.5 65.5q0 38 -24 60.5t-64 22.5q-55 0 -89 -41l-68 11l32 222h269z" />
    <glyph glyph-name="six.numr" horiz-adv-x="400" 
d="M213 710q103 0 142 -83l-66 -24q-20 47 -77 47q-95 0 -104 -148q36 60 117 60q59 0 101 -37t42 -101q0 -71 -46 -111.5t-119 -40.5q-78 0 -125 46.5t-47 142.5q0 121 48.5 185t133.5 64zM204 502q-38 0 -62.5 -22.5t-24.5 -59.5q0 -38 24 -63t61 -25q38 0 61 23.5
t23 63.5q0 38 -22 60.5t-60 22.5z" />
    <glyph glyph-name="seven.numr" horiz-adv-x="400" 
d="M360 700v-61q-74 -87 -109.5 -166t-50.5 -193h-85q17 121 57.5 201.5t113.5 156.5h-178v-48h-67v110h319z" />
    <glyph glyph-name="eight.numr" horiz-adv-x="400" 
d="M198 272q-89 0 -133.5 37t-44.5 85q0 82 92 109q-69 35 -69 95q0 44 39.5 78t115.5 34t115.5 -32t39.5 -74q0 -31 -22 -57t-55 -39q58 -19 80 -43.5t22 -65.5q0 -51 -43 -89t-137 -38zM196 534l23 -6q58 25 58 69q0 24 -19.5 39.5t-57.5 15.5t-58 -15.5t-20 -38.5
q0 -25 17 -39t57 -25zM199 332q50 0 74.5 19t24.5 45q0 30 -21 44.5t-80 31.5l-28 8q-67 -25 -67 -81q0 -29 25 -48t72 -19z" />
    <glyph glyph-name="nine.numr" horiz-adv-x="400" 
d="M184 270q-105 0 -149 83l65 27q25 -50 86 -50q96 0 102 151q-37 -57 -115 -57q-60 0 -101 37t-41 102q0 67 47 106.5t119 39.5q77 0 123.5 -46t46.5 -139q0 -254 -183 -254zM196 484q39 0 63.5 23.5t24.5 59.5q0 37 -22.5 59.5t-61.5 22.5t-63 -22.5t-24 -60.5
q0 -37 22 -59.5t61 -22.5z" />
    <glyph glyph-name="equal.numr" horiz-adv-x="372" 
d="M313 585v-56h-260v56h260zM313 459v-57h-260v57h260z" />
    <glyph glyph-name="minus.numr" horiz-adv-x="372" 
d="M313 522v-56h-260v56h260z" />
    <glyph glyph-name="parenleft.dnom" horiz-adv-x="300" 
d="M180 450h50q-42 -68 -58 -123.5t-16 -119.5t16 -119.5t58 -123.5h-51q-40 53 -63 119t-23 124q0 57 23.5 123.5t63.5 119.5z" />
    <glyph glyph-name="parenright.dnom" horiz-adv-x="300" 
d="M69 450h50q40 -53 63.5 -119.5t23.5 -123.5q0 -58 -23 -124t-63 -119h-51q42 68 58 123.5t16 119.5t-16 119.5t-58 123.5z" />
    <glyph glyph-name="plus.dnom" horiz-adv-x="366" 
d="M214 320v-98h99v-56h-99v-98h-62v98h-99v56h99v98h62z" />
    <glyph glyph-name="zero.dnom" horiz-adv-x="400" 
d="M200 430q80 0 125 -55.5t45 -164.5t-44.5 -163.5t-125.5 -54.5q-80 0 -124.5 55t-44.5 163q0 109 44.5 164.5t124.5 55.5zM200 368q-90 0 -90 -158q0 -156 90 -156t90 156q0 158 -90 158z" />
    <glyph glyph-name="one.dnom" horiz-adv-x="400" 
d="M74 0v62h109v232h-107v51h19q56 0 76.5 16.5t25.5 58.5h63v-358h92v-62h-278z" />
    <glyph glyph-name="two.dnom" horiz-adv-x="400" 
d="M202 430q70 0 110.5 -34t40.5 -91q0 -120 -207 -243h215v-62h-321v59q120 80 174.5 137t54.5 107q0 66 -71 66q-37 0 -56 -21.5t-20 -58.5h-80q1 60 41.5 100.5t118.5 40.5z" />
    <glyph glyph-name="three.dnom" horiz-adv-x="400" 
d="M203 430q72 0 112.5 -31t40.5 -81q0 -38 -24 -62.5t-66 -30.5q45 -5 74 -31.5t29 -71.5q0 -60 -46.5 -95t-121.5 -35q-66 0 -111 30t-59 83l72 17q8 -32 33.5 -50t64.5 -18q38 0 62.5 18.5t24.5 53.5q0 32 -23 49.5t-61 17.5h-47v57h41q34 0 56 15t22 45q0 29 -20.5 44.5
t-54.5 15.5q-72 0 -89 -62l-71 11q13 50 56 80.5t106 30.5z" />
    <glyph glyph-name="four.dnom" horiz-adv-x="400" 
d="M317 420v-274h64v-62h-64v-84h-76v84h-223v64l198 272h101zM241 344l-148 -198h148v198z" />
    <glyph glyph-name="five.dnom" horiz-adv-x="400" 
d="M346 420l-9 -62h-197l-15 -105q42 39 103 39q59 0 101 -39.5t42 -104.5q0 -69 -46.5 -112.5t-129.5 -43.5q-66 0 -107.5 28.5t-57.5 71.5l70 23q22 -62 97 -62q42 0 67.5 26.5t25.5 65.5q0 38 -24 60.5t-64 22.5q-55 0 -89 -41l-68 11l32 222h269z" />
    <glyph glyph-name="six.dnom" horiz-adv-x="400" 
d="M213 430q103 0 142 -83l-66 -24q-20 47 -77 47q-95 0 -104 -148q36 60 117 60q59 0 101 -37t42 -101q0 -71 -46 -111.5t-119 -40.5q-78 0 -125 46.5t-47 142.5q0 121 48.5 185t133.5 64zM204 222q-38 0 -62.5 -22.5t-24.5 -59.5q0 -38 24 -63t61 -25q38 0 61 23.5
t23 63.5q0 38 -22 60.5t-60 22.5z" />
    <glyph glyph-name="seven.dnom" horiz-adv-x="400" 
d="M360 420v-61q-74 -87 -109.5 -166t-50.5 -193h-85q17 121 57.5 201.5t113.5 156.5h-178v-48h-67v110h319z" />
    <glyph glyph-name="eight.dnom" horiz-adv-x="400" 
d="M198 -8q-89 0 -133.5 37t-44.5 85q0 82 92 109q-69 35 -69 95q0 44 39.5 78t115.5 34t115.5 -32t39.5 -74q0 -31 -22 -57t-55 -39q58 -19 80 -43.5t22 -65.5q0 -51 -43 -89t-137 -38zM196 254l23 -6q58 25 58 69q0 24 -19.5 39.5t-57.5 15.5t-58 -15.5t-20 -38.5
q0 -25 17 -39t57 -25zM199 52q50 0 74.5 19t24.5 45q0 30 -21 44.5t-80 31.5l-28 8q-67 -25 -67 -81q0 -29 25 -48t72 -19z" />
    <glyph glyph-name="nine.dnom" horiz-adv-x="400" 
d="M184 -9q-105 0 -149 83l65 27q25 -50 86 -50q96 0 102 151q-37 -57 -115 -57q-60 0 -101 37t-41 102q0 67 47 106.5t119 39.5q77 0 123.5 -46t46.5 -139q0 -254 -183 -254zM196 205q39 0 63.5 23.5t24.5 59.5q0 37 -22.5 59.5t-61.5 22.5t-63 -22.5t-24 -60.5
q0 -37 22 -59.5t61 -22.5z" />
    <glyph glyph-name="equal.dnom" horiz-adv-x="372" 
d="M313 285v-56h-260v56h260zM313 159v-57h-260v57h260z" />
    <glyph glyph-name="minus.dnom" horiz-adv-x="366" 
d="M313 222v-56h-260v56h260z" />
    <glyph glyph-name="space.frac" horiz-adv-x="52" 
 />
    <glyph glyph-name="uni0394.osf" horiz-adv-x="606" 
d="M358 700l238 -700h-586l239 700h109zM120 72h361l-180 554z" />
    <glyph glyph-name="numbersign.tf" 
d="M546 454h-86l-31 -212h80v-61h-89l-26 -181h-70l26 181h-131l-26 -181h-70l26 181h-79v61h88l31 212h-82v61h90l27 185h70l-27 -185h131l27 185h70l-27 -185h78v-61zM359 242l31 212h-131l-31 -212h131z" />
    <glyph glyph-name="dollar.tf" 
d="M341 834v-120q122 -16 186 -113l-51 -41q-20 32 -56.5 57.5t-80.5 32.5v-259q107 -28 150.5 -72t43.5 -127q0 -85 -50.5 -141.5t-141.5 -64.5v-135h-61v136q-147 13 -215 118l60 43q58 -84 156 -98v287q-184 45 -184 190q0 81 48.5 130.5t134.5 57.5v119h61zM281 406v246
q-52 -5 -81.5 -38t-29.5 -83q0 -48 24.5 -77t86.5 -48zM339 323v-274q57 8 88 45.5t31 93.5q0 50 -26 83.5t-93 51.5z" />
    <glyph glyph-name="zero.tf" 
d="M300 716q116 0 181.5 -93t65.5 -274q0 -180 -66 -272.5t-181 -92.5q-116 0 -182 93t-66 272q0 181 66 274t182 93zM300 647q-79 0 -121 -74t-42 -222q0 -147 42.5 -222.5t120.5 -75.5q79 0 121.5 75.5t42.5 222.5q0 296 -164 296z" />
    <glyph glyph-name="one.tf" 
d="M126 0v69h163v429h-164v64h33q80 0 110.5 32t40.5 106h62v-631h147v-69h-392z" />
    <glyph glyph-name="two.tf" 
d="M303 711q101 0 157 -56t56 -144q0 -223 -335 -442h347v-69h-454v68q188 142 272 242t84 196q0 65 -33 100.5t-95 35.5q-66 0 -102.5 -40t-37.5 -111h-83q0 91 59.5 155.5t164.5 64.5z" />
    <glyph glyph-name="three.tf" 
d="M306 714q103 0 159 -50t56 -133q0 -64 -34 -105t-90 -50q59 -7 102 -53t43 -119q0 -100 -68.5 -159t-174.5 -59q-95 0 -159 49.5t-84 137.5l81 19q13 -61 56 -99t110 -38t110 38.5t43 111.5q0 64 -38 100t-99 36h-77v62h68q54 0 90.5 29.5t36.5 94.5q0 58 -36.5 89
t-92.5 31q-60 0 -100 -33t-54 -92l-78 14q13 74 75 126t155 52z" />
    <glyph glyph-name="four.tf" 
d="M455 700v-469h112v-71h-112v-160h-80v160h-344v74l323 466h101zM375 611l-257 -380h257v380z" />
    <glyph glyph-name="five.tf" 
d="M508 700l-12 -69h-307l-27 -206q63 66 160 66q91 0 156 -65.5t65 -169.5q0 -122 -68 -197t-185 -75q-95 0 -155.5 48.5t-81.5 110.5l74 22q15 -46 59 -79t107 -33q77 0 121.5 54.5t44.5 141.5q0 81 -42.5 126.5t-112.5 45.5q-98 0 -156 -82l-72 10l48 351h384z" />
    <glyph glyph-name="six.tf" 
d="M321 714q147 0 203 -138l-73 -23q-18 42 -51.5 68t-79.5 26q-164 0 -183 -299q28 55 79.5 85t109.5 30q94 0 154.5 -64t60.5 -173q0 -108 -64.5 -174t-169.5 -66q-107 0 -176.5 79t-69.5 233q0 202 69.5 309t190.5 107zM309 393q-68 0 -112.5 -46.5t-44.5 -117.5
q0 -77 44 -125.5t110 -48.5t108.5 45.5t42.5 125.5q0 76 -39.5 121.5t-108.5 45.5z" />
    <glyph glyph-name="seven.tf" 
d="M540 700v-71q-120 -143 -179 -288t-80 -341h-89q25 207 86.5 349.5t174.5 278.5h-308v-80h-72v152h467z" />
    <glyph glyph-name="eight.tf" 
d="M298 714q105 0 159.5 -54t54.5 -126q0 -104 -114 -151q150 -57 150 -190q0 -37 -12.5 -71t-40 -66t-78.5 -51t-119 -19q-123 0 -185 61.5t-62 143.5q0 67 36.5 114t100.5 68q-103 51 -103 161q0 71 54.5 125.5t158.5 54.5zM298 648q-62 0 -96.5 -32t-34.5 -83
q0 -50 31 -80t101 -44l32 -6q99 49 99 130q0 47 -33.5 81t-98.5 34zM287 342l-30 6q-121 -37 -121 -155q0 -58 43 -98t119 -40q87 0 127 43t40 99q0 64 -43.5 93.5t-134.5 51.5z" />
    <glyph glyph-name="nine.tf" 
d="M299 714q110 0 175.5 -76t65.5 -230q0 -422 -259 -422q-150 0 -213 128l71 33q43 -94 143 -94q167 0 175 298q-26 -50 -73.5 -77.5t-105.5 -27.5q-93 0 -154 62.5t-61 168.5q0 105 66.5 171t169.5 66zM300 645q-66 0 -109 -45t-43 -123q0 -72 39 -116.5t108 -44.5t112 46
t43 115q0 78 -40.5 123t-109.5 45z" />
    <glyph glyph-name="cent.tf" 
d="M467 162l66 -24q-55 -136 -202 -148v-139h-52v139q-101 9 -156 83.5t-55 186.5q0 113 55.5 186.5t155.5 83.5v138h52v-137q68 -5 118.5 -40.5t74.5 -90.5l-64 -26q-38 85 -131 93v-413q98 9 138 108zM147 261q0 -189 135 -207v412q-66 -8 -100.5 -61t-34.5 -144z" />
    <glyph glyph-name="sterling.tf" 
d="M342 714q72 0 118.5 -39.5t66.5 -102.5l-77 -21q-13 48 -38.5 73t-71.5 25q-49 0 -80.5 -35.5t-31.5 -94.5v-157h205v-52h-205v-119q0 -45 -9.5 -73t-37.5 -49h328v-69h-413l-9 63q37 14 50.5 43t13.5 83v121h-81v52h81v161q0 80 49.5 135.5t141.5 55.5z" />
    <glyph glyph-name="yen.tf" 
d="M557 700l-197 -355h136v-51h-156v-86h156v-51h-156v-157h-79v157h-157v51h157v86h-157v51h137l-199 355h87l173 -331l169 331h86z" />
    <glyph glyph-name="uni0394.tf" 
d="M355 700l223 -700h-554l222 700h109zM133 72h331l-166 551z" />
    <glyph glyph-name="uni2007.tf" 
 />
    <glyph glyph-name="figuredash.tf" 
d="M558 356v-73h-516v73h516z" />
    <glyph glyph-name="Euro.tf" horiz-adv-x="588" 
d="M380 714q109 0 180 -75l-27 -72q-67 80 -152 80q-73 0 -119 -52.5t-60 -151.5h289l-17 -51h-276q-2 -36 -2 -56q0 -24 1 -35h250l-17 -51h-228q17 -198 172 -198q90 0 155 69v-82q-68 -53 -158 -53q-215 0 -247 264h-88l17 51h66q-2 28 -2 45q0 16 2 46h-78l17 51h67
q19 134 88 202.5t167 68.5z" />
    <glyph glyph-name="dollar.lf" horiz-adv-x="685" 
d="M383 823v-120q149 -12 231 -120l-65 -46q-57 84 -168 95v-241q134 -26 186.5 -72t52.5 -127q0 -86 -61 -142.5t-176 -63.5v-135h-61v136q-172 11 -258 124l61 52q76 -95 200 -105v268q-226 45 -226 196q0 77 60.5 127t162.5 55v119h61zM325 403v231q-67 -4 -103.5 -33
t-36.5 -76q0 -49 29 -76.5t111 -45.5zM381 315v-258q73 5 113 40t40 91q0 47 -31 77.5t-122 49.5z" />
    <glyph glyph-name="zero.lf" horiz-adv-x="622" 
d="M311 -13q-120 0 -193.5 92.5t-73.5 262.5q0 172 73 262.5t194 90.5q120 0 193.5 -91t73.5 -262q0 -170 -73.5 -262.5t-193.5 -92.5zM311 56q83 0 133 75.5t50 210.5q0 140 -49 212t-134 72t-134 -72t-49 -212q0 -135 50 -210.5t133 -75.5z" />
    <glyph glyph-name="one.lf" horiz-adv-x="467" 
d="M75 0v69h163v413h-164v64h33q80 0 110.5 32t40.5 106h62v-615h147v-69h-392z" />
    <glyph glyph-name="two.lf" horiz-adv-x="612" 
d="M312 695q101 0 159 -56t58 -145q0 -104 -88.5 -208t-258.5 -217h356v-69h-462v68q200 144 284 237.5t84 188.5q0 62 -35.5 97t-97.5 35q-71 0 -110.5 -40.5t-41.5 -114.5h-83q2 95 63.5 159.5t172.5 64.5z" />
    <glyph glyph-name="three.lf" horiz-adv-x="606" 
d="M306 695q105 0 163 -50.5t58 -133.5q0 -57 -37 -97.5t-96 -49.5q62 -7 108 -51.5t46 -113.5q0 -96 -70.5 -154t-177.5 -58q-100 0 -166 49.5t-87 135.5l81 19q14 -60 58.5 -97.5t113.5 -37.5q71 0 117 37.5t46 105.5q0 60 -39.5 95t-103.5 35h-79v63h69q55 0 94 28.5
t39 86.5q0 59 -39 90t-98 31q-63 0 -104 -33t-54 -87l-81 14q15 70 79 121.5t160 51.5z" />
    <glyph glyph-name="four.lf" horiz-adv-x="636" 
d="M473 684v-453h116v-71h-116v-160h-80v160h-353v74l332 450h101zM393 599l-269 -368h269v368z" />
    <glyph glyph-name="five.lf" horiz-adv-x="613" 
d="M296 -13q-95 0 -155.5 48.5t-81.5 110.5l74 22q15 -46 59 -79t107 -33q76 0 121 53t45 131q0 81 -42.5 126.5t-112.5 45.5q-97 0 -156 -82l-72 10l47 344h384l-11 -69h-308l-26 -199q62 65 160 65q91 0 156 -65.5t65 -168.5q0 -114 -68.5 -187t-184.5 -73z" />
    <glyph glyph-name="six.lf" horiz-adv-x="568" 
d="M303 695q147 0 204 -138l-73 -24q-37 96 -131 96q-80 0 -126 -74.5t-54 -208.5q28 50 76.5 78.5t105.5 28.5q97 0 159 -62.5t62 -168.5q0 -104 -66 -169.5t-170 -65.5q-110 0 -178.5 78t-68.5 231q0 189 70 294t190 105zM290 385q-69 0 -113.5 -47t-44.5 -115
q0 -73 43.5 -120.5t112.5 -47.5t112 45t43 122q0 72 -40.5 117.5t-112.5 45.5z" />
    <glyph glyph-name="seven.lf" horiz-adv-x="511" 
d="M484 684v-72q-126 -139 -182 -276.5t-78 -335.5h-88q25 210 84 345t178 267h-294v-80h-72v152h452z" />
    <glyph glyph-name="eight.lf" horiz-adv-x="582" 
d="M289 695q108 0 164.5 -53t56.5 -124q0 -58 -32.5 -91.5t-88.5 -55.5q74 -25 115.5 -70.5t41.5 -108.5q0 -36 -13 -69.5t-40.5 -65.5t-80 -51t-123.5 -19q-127 0 -190 61t-63 143q0 61 38.5 106.5t104.5 66.5q-110 49 -110 154q0 70 56 123.5t164 53.5zM289 631
q-66 0 -103 -32t-37 -82q0 -47 33 -72t109 -46l31 -8q108 51 108 126q0 46 -36.5 80t-104.5 34zM276 334l-25 7q-133 -37 -133 -148q0 -57 45.5 -97.5t125.5 -40.5q90 0 132.5 43.5t42.5 97.5q0 24 -8.5 42.5t-23 31t-38 23.5t-47.5 19t-57 18q-9 3 -14 4z" />
    <glyph glyph-name="nine.lf" horiz-adv-x="608" 
d="M298 716q110 0 177.5 -76.5t67.5 -232.5q0 -423 -263 -423q-154 0 -220 128l70 33q48 -93 151 -93q88 0 131.5 80.5t49.5 217.5q-28 -51 -76 -79t-107 -28q-96 0 -159 64.5t-63 169.5q0 107 67 173t174 66zM298 647q-69 0 -113.5 -45.5t-44.5 -124.5q0 -71 41.5 -117.5
t112.5 -46.5q69 0 113 48.5t44 116.5q0 79 -42 124t-111 45z" />
    <glyph glyph-name="cent.lf" horiz-adv-x="625" 
d="M479 162l66 -24q-55 -136 -202 -148v-139h-52v139q-101 9 -156 83.5t-55 186.5q0 113 55.5 186.5t155.5 83.5v138h52v-137q68 -5 118.5 -40.5t74.5 -90.5l-64 -26q-38 85 -131 93v-413q98 9 138 108zM159 261q0 -189 135 -207v412q-66 -8 -100.5 -61t-34.5 -144z" />
    <glyph glyph-name="sterling.lf" horiz-adv-x="685" 
d="M386 714q76 0 126.5 -40t70.5 -102l-79 -23q-28 98 -121 98q-55 0 -90 -34.5t-35 -93.5v-158h226v-51h-226v-119q0 -46 -10 -72t-41 -47h355v-72h-438l-10 63q41 17 54 44t13 82v121h-85v51h85v162q0 80 53 135.5t152 55.5z" />
    <glyph glyph-name="yen.lf" horiz-adv-x="663" 
d="M613 700l-214 -355h139v-51h-167v-86h167v-51h-167v-157h-84v157h-167v51h167v86h-167v51h138l-215 355h95l193 -331l190 331h92z" />
    <glyph glyph-name="uni0394.lf" horiz-adv-x="619" 
d="M346 680l238 -680h-586l239 680h109zM109 72h359l-179 541z" />
    <glyph glyph-name="figuredash.lf" 
d="M558 356v-73h-516v73h516z" />
    <glyph glyph-name="Euro.lf" horiz-adv-x="685" 
d="M414 714q117 0 193 -75l-28 -76q-71 79 -166 79q-163 0 -196 -199h315l-18 -51h-303q-2 -32 -2 -50q0 -15 2 -41h272l-17 -51h-250q11 -96 57 -144t132 -48q100 0 170 70v-89q-75 -53 -170 -53q-233 0 -267 264h-96l18 51h73q-2 28 -2 45q0 16 2 46h-85l17 51h73
q20 134 95 202.5t181 68.5z" />
    <glyph glyph-name="dollar.tosf" 
d="M341 834v-120q122 -16 186 -113l-51 -41q-20 32 -56.5 57.5t-80.5 32.5v-259q107 -28 150.5 -72t43.5 -127q0 -85 -50.5 -141.5t-141.5 -64.5v-135h-61v136q-147 13 -215 118l60 43q58 -84 156 -98v287q-184 45 -184 190q0 81 48.5 130.5t134.5 57.5v119h61zM281 406v246
q-52 -5 -81.5 -38t-29.5 -83q0 -48 24.5 -77t86.5 -48zM339 323v-274q57 8 88 45.5t31 93.5q0 50 -26 83.5t-93 51.5z" />
    <glyph glyph-name="zero.tosf" 
d="M300 588q114 0 186 -82t72 -221q0 -136 -71.5 -216t-186.5 -80t-186.5 80t-71.5 216q0 139 72 221t186 82zM300 519q-79 0 -126.5 -62.5t-47.5 -172.5q0 -105 47.5 -166t126.5 -61q78 0 125.5 60.5t47.5 166.5q0 110 -47.5 172.5t-125.5 62.5z" />
    <glyph glyph-name="one.tosf" 
d="M126 0v69h163v301h-164v64h33q80 0 110.5 32t40.5 106h62v-503h147v-69h-392z" />
    <glyph glyph-name="two.tosf" 
d="M305 584q97 0 153.5 -50.5t56.5 -130.5q0 -90 -71.5 -164t-244.5 -170h325v-69h-447v68q207 126 279.5 192.5t72.5 137.5q0 56 -34 87t-90 31q-67 0 -105 -39.5t-39 -95.5h-84q3 81 63 142t165 61z" />
    <glyph glyph-name="three.tosf" 
d="M308 588q104 0 160.5 -50t56.5 -131q0 -64 -36 -106t-92 -51q60 -7 104.5 -54t44.5 -122q0 -101 -69 -160t-173 -59q-94 0 -161.5 50.5t-88.5 139.5l79 19q13 -64 57.5 -102t113.5 -38t113.5 39t44.5 113q0 65 -39 101.5t-103 36.5h-77v62h66q57 0 95 30t38 97
q0 57 -38 87.5t-98 30.5q-61 0 -101.5 -32t-54.5 -91l-78 14q14 74 77 125t159 51z" />
    <glyph glyph-name="four.tosf" 
d="M452 572v-503h116v-69h-116v-130h-81v130h-338v72l317 500h102zM371 477l-254 -408h254v408z" />
    <glyph glyph-name="five.tosf" 
d="M513 572l-12 -69h-307l-27 -206q62 65 160 65q91 0 156 -65.5t65 -168.5q0 -123 -68 -198t-185 -75q-95 0 -155.5 48.5t-81.5 110.5l74 22q15 -46 59 -79t107 -33q77 0 121.5 55t44.5 142q0 81 -42.5 126.5t-112.5 45.5q-98 0 -156 -82l-72 10l48 351h384z" />
    <glyph glyph-name="six.tosf" 
d="M313 695q147 0 204 -138l-73 -24q-37 96 -131 96q-80 0 -126 -74.5t-54 -208.5q28 50 76.5 78.5t105.5 28.5q97 0 159 -62.5t62 -168.5q0 -104 -66 -169.5t-170 -65.5q-110 0 -178.5 78t-68.5 231q0 189 70 294t190 105zM300 385q-69 0 -113.5 -47t-44.5 -115
q0 -73 43.5 -120.5t112.5 -47.5t112 45t43 122q0 72 -40.5 117.5t-112.5 45.5z" />
    <glyph glyph-name="seven.tosf" 
d="M537 572v-70q-125 -152 -190 -296.5t-87 -335.5h-87q22 201 92 343t196 288h-310v-79h-72v150h458z" />
    <glyph glyph-name="eight.tosf" 
d="M298 695q103 0 156 -52t53 -123q0 -107 -119 -154q154 -47 154 -177q0 -36 -12.5 -69.5t-38.5 -64.5t-76 -49.5t-117 -18.5q-120 0 -180 60t-60 137q0 65 38.5 112.5t105.5 67.5q-111 51 -111 154q0 70 52 123.5t155 53.5zM298 631q-60 0 -93 -32t-33 -81q0 -48 30 -77
t97 -46l29 -8q98 52 98 133q0 46 -32.5 78.5t-95.5 32.5zM288 330l-25 7q-122 -35 -122 -153q0 -52 42 -90.5t115 -38.5q84 0 122.5 41t38.5 93q0 59 -39.5 87t-131.5 54z" />
    <glyph glyph-name="nine.tosf" 
d="M298 588q110 0 177.5 -76.5t67.5 -232.5q0 -424 -263 -424q-154 0 -220 128l70 31q49 -92 151 -92q90 0 134 81.5t50 219.5q-28 -51 -77.5 -80.5t-108.5 -29.5q-95 0 -158.5 65.5t-63.5 170.5q0 107 67 173t174 66zM298 519q-69 0 -113.5 -45.5t-44.5 -124.5
q0 -72 41 -119t113 -47q69 0 113 49t44 118q0 78 -42 123.5t-111 45.5z" />
    <glyph glyph-name="cent.tosf" 
d="M466 162l66 -24q-55 -136 -202 -148v-139h-52v139q-101 9 -156 83.5t-55 186.5q0 113 55.5 186.5t155.5 83.5v138h52v-137q68 -5 118.5 -40.5t74.5 -90.5l-64 -26q-38 85 -131 93v-413q98 9 138 108zM146 261q0 -189 135 -207v412q-66 -8 -100.5 -61t-34.5 -144z" />
    <glyph glyph-name="sterling.tosf" 
d="M342 714q72 0 118.5 -39.5t66.5 -102.5l-77 -21q-13 48 -38.5 73t-71.5 25q-49 0 -80.5 -35.5t-31.5 -94.5v-157h205v-52h-205v-119q0 -45 -9.5 -73t-37.5 -49h328v-69h-413l-9 63q37 14 50.5 43t13.5 83v121h-81v52h81v161q0 80 49.5 135.5t141.5 55.5z" />
    <glyph glyph-name="yen.tosf" 
d="M557 700l-197 -355h136v-51h-156v-86h156v-51h-156v-157h-79v157h-157v51h157v86h-157v51h137l-199 355h87l173 -331l169 331h86z" />
    <glyph glyph-name="uni0394.tosf" 
d="M355 680l223 -680h-554l222 680h109zM133 72h331l-166 534z" />
    <glyph glyph-name="uni2007.tosf" 
 />
    <glyph glyph-name="figuredash.tosf" 
d="M558 316v-73h-516v73h516z" />
    <glyph glyph-name="Euro.tosf" 
d="M386 714q109 0 180 -75l-27 -72q-67 80 -152 80q-73 0 -119 -52.5t-60 -151.5h289l-17 -51h-276q-2 -36 -2 -56q0 -24 1 -35h250l-17 -51h-228q17 -198 172 -198q90 0 155 69v-82q-68 -53 -158 -53q-215 0 -247 264h-88l17 51h66q-2 28 -2 45q0 16 2 46h-78l17 51h67
q19 134 88 202.5t167 68.5z" />
    <glyph glyph-name="numbersign.sc" 
d="M533 352h-88l-19 -130h80v-61h-89l-23 -161h-70l23 161h-131l-23 -161h-70l23 161h-79v61h88l19 130h-80v61h89l23 161h70l-23 -161h131l23 161h70l-23 -161h79v-61zM356 222l19 130h-131l-19 -130h131z" />
    <glyph glyph-name="dollar.sc" horiz-adv-x="582" 
d="M330 693v-111q132 -13 207 -114l-62 -45q-51 78 -147 89v-184q121 -27 167.5 -64.5t46.5 -106.5t-55 -116.5t-157 -53.5v-127h-55v127q-156 9 -235 117l57 50q70 -89 180 -99v209q-108 21 -156.5 59.5t-48.5 102.5q0 67 54.5 110t148.5 46v111h55zM278 338v176
q-124 -5 -124 -84q0 -34 24.5 -54t99.5 -38zM328 254v-199q64 4 97 30.5t33 68.5q0 39 -25.5 61t-104.5 39z" />
    <glyph glyph-name="percent.sc" horiz-adv-x="1012" 
d="M719 586l-353 -596h-71l356 596h68zM230 585q72 0 125 -53.5t53 -142.5q0 -91 -53 -144.5t-125 -53.5q-73 0 -126 53.5t-53 144.5q0 89 53.5 142.5t125.5 53.5zM230 529q-51 0 -80.5 -38t-29.5 -103t29.5 -102.5t80.5 -37.5q50 0 79.5 37.5t29.5 102.5t-29.5 103
t-79.5 38zM783 383q72 0 125 -53.5t53 -143.5t-53 -143.5t-125 -53.5q-73 0 -126 53.5t-53 143.5t53 143.5t126 53.5zM782 327q-50 0 -79.5 -38t-29.5 -103t29.5 -103t79.5 -38q51 0 80.5 38t29.5 103t-29.5 103t-80.5 38z" />
    <glyph glyph-name="a.sc" horiz-adv-x="557" 
d="M452 0l-37 106h-277l-36 -106h-85l209 572h106l209 -572h-89zM277 512l-116 -339h231z" />
    <glyph glyph-name="b.sc" horiz-adv-x="578" 
d="M416 310q59 -11 92 -49.5t33 -95.5q0 -75 -56.5 -120t-164.5 -45h-233v572h201q220 0 220 -147q0 -44 -26 -74.5t-66 -40.5zM300 502h-132v-165h155q48 0 75.5 21.5t27.5 63.5q0 80 -126 80zM168 71h161q60 0 93.5 25.5t33.5 71.5q0 103 -123 103h-165v-200z" />
    <glyph glyph-name="c.sc" horiz-adv-x="646" 
d="M334 584q51 0 96 -14t88 -52.5t66 -97.5l-80 -22q-46 115 -171 115q-88 0 -140 -59.5t-52 -166.5q0 -108 51 -168t141 -60q135 0 183 129l80 -24q-33 -87 -104 -131.5t-159 -44.5q-39 0 -76 9t-74 31t-64.5 55t-44.5 85.5t-17 118.5q0 77 23.5 136t63.5 93t88 51t102 17z
" />
    <glyph glyph-name="d.sc" horiz-adv-x="628" 
d="M87 572h183q134 0 217.5 -70t83.5 -208q0 -81 -24.5 -140.5t-66 -91.5t-88 -47t-98.5 -15h-207v572zM273 500h-105v-428h126q38 0 70 10t61.5 33t46.5 68.5t17 109.5q0 96 -54 151.5t-162 55.5z" />
    <glyph glyph-name="e.sc" horiz-adv-x="527" 
d="M463 572v-70h-295v-175h277v-70h-277v-186h302v-71h-383v572h376z" />
    <glyph glyph-name="f.sc" horiz-adv-x="497" 
d="M453 572v-70h-285v-187h264v-70h-264v-245h-81v572h366z" />
    <glyph glyph-name="g.sc" horiz-adv-x="663" 
d="M334 584q81 0 145.5 -36t98.5 -111l-76 -29q-45 106 -169 106q-91 0 -142 -61t-51 -170q0 -107 51 -166t142 -59q76 0 125.5 42.5t49.5 120.5v14h-161v68h242v-303h-81v71q-63 -83 -181 -83q-49 0 -94.5 15t-86 47.5t-65 92t-24.5 139.5q0 77 23.5 137t63.5 95t88 52.5
t102 17.5z" />
    <glyph glyph-name="h.sc" horiz-adv-x="640" 
d="M554 572v-572h-81v262h-305v-262h-81v572h81v-239h305v239h81z" />
    <glyph glyph-name="i.sc" horiz-adv-x="309" 
d="M268 572v-69h-74v-433h74v-70h-228v70h74v433h-74v69h228z" />
    <glyph glyph-name="j.sc" horiz-adv-x="365" 
d="M290 572v-407q0 -83 -38 -126.5t-132 -43.5q-29 0 -89 6v69q29 -3 57 -3q71 0 96 22t25 82v401h81z" />
    <glyph glyph-name="k.sc" horiz-adv-x="588" 
d="M473 0l-210 280l-95 -101v-179h-81v572h81v-291l270 291h99l-220 -236l253 -336h-97z" />
    <glyph glyph-name="l.sc" horiz-adv-x="482" 
d="M168 572v-499h283v-73h-364v572h81z" />
    <glyph glyph-name="m.sc" horiz-adv-x="734" 
d="M623 572l51 -572h-77l-47 480l-138 -480h-93l-141 480l-45 -480h-76l51 572h121l138 -482l135 482h121z" />
    <glyph glyph-name="n.sc" horiz-adv-x="636" 
d="M549 572v-572h-83l-301 436v-436h-78v572h81l303 -447v447h78z" />
    <glyph glyph-name="o.sc" horiz-adv-x="676" 
d="M339 584q39 0 76.5 -9t75 -31.5t66 -55.5t46 -85.5t17.5 -117.5q0 -77 -24.5 -136t-65.5 -93t-89.5 -51t-101.5 -17q-39 0 -77 9t-75.5 31t-66 55t-46 86t-17.5 118q0 77 24.5 136t65.5 93t89.5 51t102.5 17zM339 513q-89 0 -143.5 -59.5t-54.5 -166.5t53.5 -167.5
t144.5 -60.5q87 0 142.5 60t55.5 165q0 108 -53.5 168.5t-144.5 60.5z" />
    <glyph glyph-name="p.sc" horiz-adv-x="561" 
d="M87 572h214q110 0 164 -51t54 -127q0 -83 -54.5 -134t-160.5 -51h-136v-209h-81v572zM168 278h141q58 0 92.5 28.5t34.5 87.5q0 49 -32.5 78.5t-94.5 29.5h-141v-224z" />
    <glyph glyph-name="q.sc" horiz-adv-x="683" 
d="M338 584q50 0 96.5 -15.5t89.5 -48.5t69 -93.5t26 -141.5q0 -156 -101 -235q44 -35 130 -52l-33 -80q-100 28 -158 94q-55 -24 -119 -24q-50 0 -97 15.5t-89.5 48t-68.5 93.5t-26 142q0 148 83 222.5t198 74.5zM338 513q-89 0 -143.5 -59.5t-54.5 -166.5t53.5 -167.5
t144.5 -60.5q87 0 142.5 60t55.5 165q0 108 -53.5 168.5t-144.5 60.5z" />
    <glyph glyph-name="r.sc" horiz-adv-x="571" 
d="M87 572h206q110 0 165.5 -47.5t55.5 -119.5q0 -60 -35 -102t-103 -57l168 -246h-95l-158 235h-123v-235h-81v572zM303 502h-135v-199h138q57 0 90.5 25t33.5 76q0 47 -33 72.5t-94 25.5z" />
    <glyph glyph-name="s.sc" horiz-adv-x="575" 
d="M281 584q154 0 242 -105l-66 -43q-57 78 -176 78q-63 0 -98.5 -23t-35.5 -62t34.5 -59.5t135.5 -36.5q110 -18 159.5 -59.5t49.5 -114.5q0 -76 -61.5 -123.5t-176.5 -47.5q-75 0 -143.5 26.5t-114.5 81.5l63 48q73 -86 197 -86q67 0 109.5 27t42.5 71q0 45 -36 69
t-142 40q-200 30 -200 161q0 71 59.5 114.5t157.5 43.5z" />
    <glyph glyph-name="t.sc" horiz-adv-x="518" 
d="M484 572v-71h-184v-501h-81v501h-184v71h449z" />
    <glyph glyph-name="u.sc" horiz-adv-x="609" 
d="M533 572v-367q0 -89 -54.5 -153t-174.5 -64q-65 0 -111.5 19.5t-71 52.5t-35 68.5t-10.5 76.5v367h81v-365q0 -148 148 -148q73 0 110.5 39t37.5 109v365h80z" />
    <glyph glyph-name="v.sc" horiz-adv-x="516" 
d="M500 572l-190 -572h-101l-192 572h89l156 -494l155 494h83z" />
    <glyph glyph-name="w.sc" horiz-adv-x="754" 
d="M723 572l-137 -572h-93l-116 462l-109 -462h-97l-149 572h84l114 -481l112 481h91l116 -479l104 479h80z" />
    <glyph glyph-name="x.sc" horiz-adv-x="569" 
d="M332 311l220 -311h-101l-171 248l-167 -248h-96l215 305l-187 267h97l140 -205l137 205h94z" />
    <glyph glyph-name="y.sc" horiz-adv-x="547" 
d="M529 572l-214 -340v-232h-81v230l-216 342h93l165 -266l163 266h90z" />
    <glyph glyph-name="z.sc" horiz-adv-x="540" 
d="M493 572v-65l-349 -434h355v-73h-463v62l351 439h-325v71h431z" />
    <glyph glyph-name="cent.sc" 
d="M480 188l77 -24q-29 -79 -88.5 -123t-135.5 -51v-139h-64v139q-44 5 -82 23t-71.5 51.5t-53 91t-19.5 131.5q0 138 63.5 211t162.5 84v136h64v-135q69 -7 126.5 -46t86.5 -117l-78 -22q-39 104 -138 116v-456q112 12 150 130zM127 287q0 -98 37.5 -158t107.5 -71v456
q-68 -11 -106.5 -70.5t-38.5 -156.5z" />
    <glyph glyph-name="sterling.sc" horiz-adv-x="601" 
d="M346 583q73 0 121 -37.5t68 -95.5l-78 -23q-26 90 -114 90q-52 0 -84 -31.5t-32 -85.5v-89h212v-51h-212v-78q0 -42 -10 -67t-37 -45h334v-70h-419l-9 62q39 16 51.5 41t12.5 76v81h-81v51h81v93q0 75 50.5 127t145.5 52z" />
    <glyph glyph-name="yen.sc" horiz-adv-x="578" 
d="M547 572l-192 -297h135v-50h-159v-63h159v-49h-159v-113h-82v113h-160v49h160v63h-160v50h135l-194 297h93l168 -287l165 287h91z" />
    <glyph glyph-name="section.sc" horiz-adv-x="620" 
d="M336 582q116 0 196 -72l-52 -48q-60 54 -147 54q-107 0 -107 -63q0 -33 26.5 -49t103.5 -29q97 -16 144.5 -51t47.5 -100q0 -36 -21.5 -64.5t-68.5 -63.5q58 -35 58 -101q0 -60 -53 -98t-140 -38q-126 0 -203 74l51 48q61 -56 155 -56q54 0 82 17t28 47q0 32 -26.5 48
t-103.5 29q-98 16 -145.5 51t-47.5 100q0 37 21 66t69 63q-58 35 -58 100q0 61 51.5 98.5t139.5 37.5zM257 322q-37 -32 -50 -52.5t-13 -45.5q0 -36 34.5 -56t119.5 -36q36 -7 58 -13q36 32 49.5 52.5t13.5 45.5q0 36 -34.5 56t-119.5 36q-39 7 -58 13z" />
    <glyph glyph-name="degree.sc" horiz-adv-x="499" 
d="M250 649q74 0 128 -48.5t54 -128.5t-54 -128t-128 -48t-128.5 48.5t-54.5 128.5t54.5 128t128.5 48zM249 588q-44 0 -75.5 -29.5t-31.5 -85.5t31.5 -86t75.5 -30q43 0 75 30t32 85q0 56 -31.5 86t-75.5 30z" />
    <glyph glyph-name="germandbls.sc" horiz-adv-x="1162" 
d="M281 584q154 0 242 -105l-66 -43q-57 78 -176 78q-63 0 -98.5 -23t-35.5 -62t34.5 -59.5t135.5 -36.5q110 -18 159.5 -59.5t49.5 -114.5q0 -76 -61.5 -123.5t-176.5 -47.5q-75 0 -143.5 26.5t-114.5 81.5l63 48q73 -86 197 -86q67 0 109.5 27t42.5 71q0 45 -36 69
t-142 40q-200 30 -200 161q0 71 59.5 114.5t157.5 43.5zM868 584q154 0 242 -105l-66 -43q-57 78 -176 78q-63 0 -98.5 -23t-35.5 -62t34.5 -59.5t135.5 -36.5q110 -18 159.5 -59.5t49.5 -114.5q0 -76 -61.5 -123.5t-176.5 -47.5q-75 0 -143.5 26.5t-114.5 81.5l63 48
q73 -86 197 -86q67 0 109.5 27t42.5 71q0 45 -36 69t-142 40q-200 30 -200 161q0 71 59.5 114.5t157.5 43.5z" />
    <glyph glyph-name="agrave.sc" horiz-adv-x="557" 
d="M452 0l-37 106h-277l-36 -106h-85l209 572h106l209 -572h-89zM277 512l-116 -339h231zM230 779l93 -135h-72l-130 135h109z" />
    <glyph glyph-name="aacute.sc" horiz-adv-x="557" 
d="M452 0l-37 106h-277l-36 -106h-85l209 572h106l209 -572h-89zM277 512l-116 -339h231zM437 779l-130 -135h-72l94 135h108z" />
    <glyph glyph-name="acircumflex.sc" horiz-adv-x="557" 
d="M452 0l-37 106h-277l-36 -106h-85l209 572h106l209 -572h-89zM277 512l-116 -339h231zM319 780l133 -133h-79l-94 82l-95 -82h-79l133 133h81z" />
    <glyph glyph-name="atilde.sc" horiz-adv-x="557" 
d="M452 0l-37 106h-277l-36 -106h-85l209 572h106l209 -572h-89zM277 512l-116 -339h231zM219 763q38 0 74 -26t51 -26q31 0 49 42h49q-7 -44 -34 -72.5t-69 -28.5q-30 0 -53.5 13t-40 26.5t-31.5 13.5q-32 0 -50 -44h-49q7 45 34.5 73.5t69.5 28.5z" />
    <glyph glyph-name="adieresis.sc" horiz-adv-x="557" 
d="M452 0l-37 106h-277l-36 -106h-85l209 572h106l209 -572h-89zM277 512l-116 -339h231zM172 760q21 0 36.5 -15.5t15.5 -36.5t-15.5 -36t-36.5 -15t-36.5 15t-15.5 36t15.5 36.5t36.5 15.5zM386 760q21 0 36.5 -15.5t15.5 -36.5t-15.5 -36t-36.5 -15t-36.5 15t-15.5 36
t15.5 36.5t36.5 15.5z" />
    <glyph glyph-name="aring.sc" horiz-adv-x="557" 
d="M452 0l-37 106h-277l-36 -106h-85l209 572h106l209 -572h-89zM277 512l-116 -339h231zM279 861q48 0 83 -32t35 -81t-35 -80.5t-83 -31.5t-83 31.5t-35 80.5t35 81t83 32zM279 813q-27 0 -45 -17.5t-18 -47.5t18 -47.5t45 -17.5q26 0 44 17.5t18 47.5t-18 47.5t-44 17.5z
" />
    <glyph glyph-name="ae.sc" horiz-adv-x="847" 
d="M764 572v-70h-325l31 -175h282v-70h-269l31 -186h297v-71h-367l-17 105h-276l-57 -105h-87l321 572h436zM363 496l-176 -321h228z" />
    <glyph glyph-name="ccedilla.sc" horiz-adv-x="646" 
d="M334 584q51 0 96 -14t88 -52.5t66 -97.5l-80 -22q-46 115 -171 115q-88 0 -140 -59.5t-52 -166.5q0 -108 51 -168t141 -60q135 0 183 129l80 -24q-32 -84 -100.5 -128.5t-152.5 -47.5v-38q49 -4 77.5 -27t28.5 -56q0 -44 -33.5 -69t-87.5 -25q-62 0 -105 25l24 43
q31 -17 71 -17q64 0 64 43q0 27 -26 36.5t-79 10.5l14 77q-45 6 -84.5 24.5t-74.5 52t-55 90t-20 129.5q0 77 23.5 136t63.5 93t88 51t102 17z" />
    <glyph glyph-name="egrave.sc" horiz-adv-x="527" 
d="M463 572v-70h-295v-175h277v-70h-277v-186h302v-71h-383v572h376zM228 779l93 -135h-72l-130 135h109z" />
    <glyph glyph-name="eacute.sc" horiz-adv-x="527" 
d="M463 572v-70h-295v-175h277v-70h-277v-186h302v-71h-383v572h376zM435 779l-130 -135h-72l94 135h108z" />
    <glyph glyph-name="ecircumflex.sc" horiz-adv-x="527" 
d="M463 572v-70h-295v-175h277v-70h-277v-186h302v-71h-383v572h376zM317 780l133 -133h-79l-94 82l-95 -82h-79l133 133h81z" />
    <glyph glyph-name="edieresis.sc" horiz-adv-x="527" 
d="M463 572v-70h-295v-175h277v-70h-277v-186h302v-71h-383v572h376zM170 760q21 0 36.5 -15.5t15.5 -36.5t-15.5 -36t-36.5 -15t-36.5 15t-15.5 36t15.5 36.5t36.5 15.5zM384 760q21 0 36.5 -15.5t15.5 -36.5t-15.5 -36t-36.5 -15t-36.5 15t-15.5 36t15.5 36.5t36.5 15.5z
" />
    <glyph glyph-name="igrave.sc" horiz-adv-x="309" 
d="M268 572v-69h-74v-433h74v-70h-228v70h74v433h-74v69h228zM105 779l93 -135h-72l-130 135h109z" />
    <glyph glyph-name="iacute.sc" horiz-adv-x="309" 
d="M268 572v-69h-74v-433h74v-70h-228v70h74v433h-74v69h228zM312 779l-130 -135h-72l94 135h108z" />
    <glyph glyph-name="icircumflex.sc" horiz-adv-x="309" 
d="M268 572v-69h-74v-433h74v-70h-228v70h74v433h-74v69h228zM194 780l133 -133h-79l-94 82l-95 -82h-79l133 133h81z" />
    <glyph glyph-name="idieresis.sc" horiz-adv-x="309" 
d="M268 572v-69h-74v-433h74v-70h-228v70h74v433h-74v69h228zM47 760q21 0 36.5 -15.5t15.5 -36.5t-15.5 -36t-36.5 -15t-36.5 15t-15.5 36t15.5 36.5t36.5 15.5zM261 760q21 0 36.5 -15.5t15.5 -36.5t-15.5 -36t-36.5 -15t-36.5 15t-15.5 36t15.5 36.5t36.5 15.5z" />
    <glyph glyph-name="eth.sc" horiz-adv-x="643" 
d="M102 572h183q134 0 217.5 -70t83.5 -208q0 -81 -24.5 -140.5t-66 -91.5t-88 -47t-98.5 -15h-207v272h-84v57h84v243zM183 72h126q38 0 70 10t61.5 33t46.5 68.5t17 109.5q0 96 -54 151.5t-162 55.5h-105v-171h184v-57h-184v-200z" />
    <glyph glyph-name="ntilde.sc" horiz-adv-x="636" 
d="M549 572v-572h-83l-301 436v-436h-78v572h81l303 -447v447h78zM258 763q38 0 74 -26t51 -26q31 0 49 42h49q-7 -44 -34 -72.5t-69 -28.5q-30 0 -53.5 13t-40 26.5t-31.5 13.5q-32 0 -50 -44h-49q7 45 34.5 73.5t69.5 28.5z" />
    <glyph glyph-name="ograve.sc" horiz-adv-x="676" 
d="M339 584q39 0 76.5 -9t75 -31.5t66 -55.5t46 -85.5t17.5 -117.5q0 -77 -24.5 -136t-65.5 -93t-89.5 -51t-101.5 -17q-39 0 -77 9t-75.5 31t-66 55t-46 86t-17.5 118q0 77 24.5 136t65.5 93t89.5 51t102.5 17zM339 513q-89 0 -143.5 -59.5t-54.5 -166.5t53.5 -167.5
t144.5 -60.5q87 0 142.5 60t55.5 165q0 108 -53.5 168.5t-144.5 60.5zM290 779l93 -135h-72l-130 135h109z" />
    <glyph glyph-name="oacute.sc" horiz-adv-x="676" 
d="M339 584q39 0 76.5 -9t75 -31.5t66 -55.5t46 -85.5t17.5 -117.5q0 -77 -24.5 -136t-65.5 -93t-89.5 -51t-101.5 -17q-39 0 -77 9t-75.5 31t-66 55t-46 86t-17.5 118q0 77 24.5 136t65.5 93t89.5 51t102.5 17zM339 513q-89 0 -143.5 -59.5t-54.5 -166.5t53.5 -167.5
t144.5 -60.5q87 0 142.5 60t55.5 165q0 108 -53.5 168.5t-144.5 60.5zM497 779l-130 -135h-72l94 135h108z" />
    <glyph glyph-name="ocircumflex.sc" horiz-adv-x="676" 
d="M339 584q39 0 76.5 -9t75 -31.5t66 -55.5t46 -85.5t17.5 -117.5q0 -77 -24.5 -136t-65.5 -93t-89.5 -51t-101.5 -17q-39 0 -77 9t-75.5 31t-66 55t-46 86t-17.5 118q0 77 24.5 136t65.5 93t89.5 51t102.5 17zM339 513q-89 0 -143.5 -59.5t-54.5 -166.5t53.5 -167.5
t144.5 -60.5q87 0 142.5 60t55.5 165q0 108 -53.5 168.5t-144.5 60.5zM379 780l133 -133h-79l-94 82l-95 -82h-79l133 133h81z" />
    <glyph glyph-name="otilde.sc" horiz-adv-x="676" 
d="M339 584q39 0 76.5 -9t75 -31.5t66 -55.5t46 -85.5t17.5 -117.5q0 -77 -24.5 -136t-65.5 -93t-89.5 -51t-101.5 -17q-39 0 -77 9t-75.5 31t-66 55t-46 86t-17.5 118q0 77 24.5 136t65.5 93t89.5 51t102.5 17zM339 513q-89 0 -143.5 -59.5t-54.5 -166.5t53.5 -167.5
t144.5 -60.5q87 0 142.5 60t55.5 165q0 108 -53.5 168.5t-144.5 60.5zM279 763q38 0 74 -26t51 -26q31 0 49 42h49q-7 -44 -34 -72.5t-69 -28.5q-30 0 -53.5 13t-40 26.5t-31.5 13.5q-32 0 -50 -44h-49q7 45 34.5 73.5t69.5 28.5z" />
    <glyph glyph-name="odieresis.sc" horiz-adv-x="676" 
d="M339 584q39 0 76.5 -9t75 -31.5t66 -55.5t46 -85.5t17.5 -117.5q0 -77 -24.5 -136t-65.5 -93t-89.5 -51t-101.5 -17q-39 0 -77 9t-75.5 31t-66 55t-46 86t-17.5 118q0 77 24.5 136t65.5 93t89.5 51t102.5 17zM339 513q-89 0 -143.5 -59.5t-54.5 -166.5t53.5 -167.5
t144.5 -60.5q87 0 142.5 60t55.5 165q0 108 -53.5 168.5t-144.5 60.5zM232 760q21 0 36.5 -15.5t15.5 -36.5t-15.5 -36t-36.5 -15t-36.5 15t-15.5 36t15.5 36.5t36.5 15.5zM446 760q21 0 36.5 -15.5t15.5 -36.5t-15.5 -36t-36.5 -15t-36.5 15t-15.5 36t15.5 36.5t36.5 15.5z
" />
    <glyph glyph-name="oslash.sc" horiz-adv-x="676" 
d="M612 655l-86 -137q94 -79 94 -233q0 -148 -83 -222.5t-198 -74.5q-74 0 -136 31l-67 -104h-71l88 137q-96 79 -96 235q0 77 24.5 136t65.5 93t89.5 51t102.5 17q74 0 137 -33l67 104h69zM339 513q-89 0 -143.5 -59.5t-54.5 -166.5q0 -114 55 -172l244 373q-43 25 -101 25
zM484 455l-243 -373q40 -23 98 -23q87 0 142.5 60t55.5 165q0 112 -53 171z" />
    <glyph glyph-name="ugrave.sc" horiz-adv-x="609" 
d="M533 572v-367q0 -89 -54.5 -153t-174.5 -64q-65 0 -111.5 19.5t-71 52.5t-35 68.5t-10.5 76.5v367h81v-365q0 -148 148 -148q73 0 110.5 39t37.5 109v365h80zM255 779l93 -135h-72l-130 135h109z" />
    <glyph glyph-name="uacute.sc" horiz-adv-x="609" 
d="M533 572v-367q0 -89 -54.5 -153t-174.5 -64q-65 0 -111.5 19.5t-71 52.5t-35 68.5t-10.5 76.5v367h81v-365q0 -148 148 -148q73 0 110.5 39t37.5 109v365h80zM462 779l-130 -135h-72l94 135h108z" />
    <glyph glyph-name="ucircumflex.sc" horiz-adv-x="609" 
d="M533 572v-367q0 -89 -54.5 -153t-174.5 -64q-65 0 -111.5 19.5t-71 52.5t-35 68.5t-10.5 76.5v367h81v-365q0 -148 148 -148q73 0 110.5 39t37.5 109v365h80zM344 780l133 -133h-79l-94 82l-95 -82h-79l133 133h81z" />
    <glyph glyph-name="udieresis.sc" horiz-adv-x="609" 
d="M533 572v-367q0 -89 -54.5 -153t-174.5 -64q-65 0 -111.5 19.5t-71 52.5t-35 68.5t-10.5 76.5v367h81v-365q0 -148 148 -148q73 0 110.5 39t37.5 109v365h80zM197 760q21 0 36.5 -15.5t15.5 -36.5t-15.5 -36t-36.5 -15t-36.5 15t-15.5 36t15.5 36.5t36.5 15.5zM411 760
q21 0 36.5 -15.5t15.5 -36.5t-15.5 -36t-36.5 -15t-36.5 15t-15.5 36t15.5 36.5t36.5 15.5z" />
    <glyph glyph-name="yacute.sc" horiz-adv-x="547" 
d="M529 572l-214 -340v-232h-81v230l-216 342h93l165 -266l163 266h90zM432 779l-130 -135h-72l94 135h108z" />
    <glyph glyph-name="thorn.sc" horiz-adv-x="561" 
d="M168 572v-98h133q110 0 164 -52t54 -128q0 -84 -54.5 -135t-160.5 -51h-136v-108h-81v572h81zM309 404h-141v-227h141q58 0 92.5 28.5t34.5 87.5q0 50 -33 80.5t-94 30.5z" />
    <glyph glyph-name="ydieresis.sc" horiz-adv-x="547" 
d="M529 572l-214 -340v-232h-81v230l-216 342h93l165 -266l163 266h90zM167 760q21 0 36.5 -15.5t15.5 -36.5t-15.5 -36t-36.5 -15t-36.5 15t-15.5 36t15.5 36.5t36.5 15.5zM381 760q21 0 36.5 -15.5t15.5 -36.5t-15.5 -36t-36.5 -15t-36.5 15t-15.5 36t15.5 36.5t36.5 15.5
z" />
    <glyph glyph-name="dotlessi.sc" horiz-adv-x="309" 
d="M268 572v-69h-74v-433h74v-70h-228v70h74v433h-74v69h228z" />
    <glyph glyph-name="ij.sc" horiz-adv-x="686" 
d="M268 572v-69h-74v-433h74v-70h-228v70h74v433h-74v69h228zM611 572v-407q0 -83 -38 -126.5t-132 -43.5q-29 0 -89 6v69q28 -3 57 -3q71 0 96 22t25 82v401h81z" />
    <glyph glyph-name="lslash.sc" horiz-adv-x="498" 
d="M181 73h283v-73h-364v244l-82 -43v64l82 43v264h81v-222l156 82v-64l-156 -82v-213z" />
    <glyph glyph-name="oe.sc" horiz-adv-x="868" 
d="M342 584q44 0 99 -12h364v-70h-284v-175h266v-70h-266v-186h291v-71h-371q-53 -12 -100 -12q-39 0 -77 9t-76 31t-66.5 55t-46.5 86t-18 118q0 77 24.5 136t66.5 93t91 51t103 17zM342 513q-89 0 -145 -60t-56 -166q0 -107 55 -167.5t146 -60.5q55 0 99 17v421
q-48 16 -99 16z" />
    <glyph glyph-name="scaron.sc" horiz-adv-x="575" 
d="M281 584q154 0 242 -105l-66 -43q-57 78 -176 78q-63 0 -98.5 -23t-35.5 -62t34.5 -59.5t135.5 -36.5q110 -18 159.5 -59.5t49.5 -114.5q0 -76 -61.5 -123.5t-176.5 -47.5q-75 0 -143.5 26.5t-114.5 81.5l63 48q73 -86 197 -86q67 0 109.5 27t42.5 71q0 45 -36 69
t-142 40q-200 30 -200 161q0 71 59.5 114.5t157.5 43.5zM461 789l-133 -133h-81l-133 133h79l95 -82l94 82h79z" />
    <glyph glyph-name="zcaron.sc" horiz-adv-x="540" 
d="M493 572v-65l-349 -434h355v-73h-463v62l351 439h-325v71h431zM442 789l-133 -133h-81l-133 133h79l95 -82l94 82h79z" />
    <glyph glyph-name="longs.sc" horiz-adv-x="575" 
d="M281 584q154 0 242 -105l-66 -43q-57 78 -176 78q-63 0 -98.5 -23t-35.5 -62t34.5 -59.5t135.5 -36.5q110 -18 159.5 -59.5t49.5 -114.5q0 -76 -61.5 -123.5t-176.5 -47.5q-75 0 -143.5 26.5t-114.5 81.5l63 48q73 -86 197 -86q67 0 109.5 27t42.5 71q0 45 -36 69
t-142 40q-200 30 -200 161q0 71 59.5 114.5t157.5 43.5z" />
    <glyph glyph-name="florin.sc" horiz-adv-x="325" 
d="M231 582q49 0 100 -17v-66q-47 17 -91 17t-63.5 -18t-19.5 -59v-47h149v-63h-149v-358q0 -75 -41 -111.5t-101 -36.5q-28 0 -53 5v65q11 -1 24 -1q49 0 69 21.5t20 85.5v330h-74v63h74v57q0 57 37.5 95t118.5 38z" />
    <glyph glyph-name="uni0394.sc" horiz-adv-x="557" 
d="M332 572l209 -572h-524l209 572h106zM277 505l-153 -438h305z" />
    <glyph glyph-name="uni03A9.sc" horiz-adv-x="684" 
d="M343 584q53 0 102 -17t90 -50t65.5 -88.5t24.5 -126.5q0 -89 -40 -145.5t-102 -83.5h139v-73h-227v73q63 25 104.5 84t41.5 145q0 99 -54.5 155t-143.5 56q-88 0 -143 -57.5t-55 -153.5q0 -86 41 -145t105 -84v-73h-227v73h139q-62 27 -102 83.5t-40 145.5
q0 71 24.5 126.5t65 88.5t90 50t102.5 17z" />
    <glyph glyph-name="uni1E9E.sc" horiz-adv-x="616" 
d="M375 -12q-102 0 -170 47l35 56q57 -35 130 -35q50 0 87 27t37 78q0 50 -34.5 75.5t-120.5 42.5v57l122 134q-53 45 -148 45q-156 0 -156 -152v-363h-81v371q0 101 64 157t173 56q145 0 243 -103l-139 -155q162 -39 162 -165q0 -76 -57.5 -124.5t-146.5 -48.5z" />
    <glyph glyph-name="figuredash.sc" 
d="M558 316v-73h-516v73h516z" />
    <glyph glyph-name="dagger.sc" horiz-adv-x="620" 
d="M345 572v-164h169v-69h-169v-339h-79v339h-169v69h169v164h79z" />
    <glyph glyph-name="daggerdbl.sc" horiz-adv-x="620" 
d="M345 572v-132h169v-69h-169v-162h169v-69h-169v-140h-79v140h-169v69h169v162h-169v69h169v132h79z" />
    <glyph glyph-name="perthousand.sc" horiz-adv-x="1426" 
d="M719 586l-353 -596h-71l356 596h68zM230 585q72 0 125 -53.5t53 -142.5q0 -91 -53 -144.5t-125 -53.5q-73 0 -126 53.5t-53 144.5q0 89 53.5 142.5t125.5 53.5zM230 529q-51 0 -80.5 -38t-29.5 -103t29.5 -102.5t80.5 -37.5q50 0 79.5 37.5t29.5 102.5t-29.5 103
t-79.5 38zM783 383q72 0 125 -53.5t53 -143.5t-53 -143.5t-125 -53.5q-73 0 -126 53.5t-53 143.5t53 143.5t126 53.5zM1194 383q72 0 125 -53.5t53 -143.5t-53 -143.5t-125 -53.5q-73 0 -126 53.5t-53 143.5t53 143.5t126 53.5zM782 327q-50 0 -79.5 -38t-29.5 -103
t29.5 -103t79.5 -38q51 0 80.5 38t29.5 103t-29.5 103t-80.5 38zM1193 327q-50 0 -79.5 -38t-29.5 -103t29.5 -103t79.5 -38q51 0 80.5 38t29.5 103t-29.5 103t-80.5 38z" />
    <glyph glyph-name="Euro.sc" horiz-adv-x="599" 
d="M375 583q108 0 178 -70l-26 -72q-64 73 -152 73q-135 0 -165 -141h283l-17 -50h-273q-2 -24 -2 -35q0 -13 2 -35h250l-16 -49h-229q25 -149 160 -149q90 0 157 65v-85q-71 -49 -158 -49q-93 0 -157 55.5t-81 162.5h-87l17 49h65q-1 11 -1 35q0 23 1 35h-77l17 50h67
q22 99 87 154.5t157 55.5z" />
    <glyph glyph-name="partialdiff.sc" horiz-adv-x="596" 
d="M132 514v67q198 -2 299 -80.5t101 -253.5q0 -129 -68.5 -193.5t-170.5 -64.5q-98 0 -164 55.5t-66 143.5q0 89 63 143t154 54q53 0 97 -21t70 -60q-13 115 -93 161.5t-222 48.5zM294 318q-69 0 -107 -35.5t-38 -94.5q0 -62 40.5 -96.5t105.5 -34.5q64 0 105 37t41 97
q0 56 -40 91.5t-107 35.5z" />
    <glyph glyph-name="product.sc" 
d="M542 572v-67h-58v-558h-82v558h-204v-558h-82v558h-58v67h484z" />
    <glyph glyph-name="summation.sc" 
d="M544 572v-66h-367l193 -178v-64l-194 -196h368v-68h-472v59l229 237l-229 216v60h472z" />
    <glyph glyph-name="radical.sc" 
d="M672 700v-68h-186l-227 -632h-84l-182 421h85l137 -337l215 616h242z" />
    <glyph glyph-name="integral.sc" horiz-adv-x="300" 
d="M271 732q47 0 101 -16v-66q-50 16 -91 16q-91 0 -91 -77v-665q0 -56 -40 -94.5t-122 -38.5q-47 0 -101 16v66q50 -16 91 -16q91 0 91 77v665q0 56 40.5 94.5t121.5 38.5z" />
    <glyph glyph-name="lozenge.sc" 
d="M350 572l209 -277l-209 -295h-100l-210 293l210 279h100zM300 529l-174 -235l175 -250l174 250z" />
    <glyph glyph-name="fi.sc" horiz-adv-x="818" 
d="M453 572v-70h-285v-187h264v-70h-264v-245h-81v572h366zM777 572v-69h-74v-433h74v-70h-228v70h74v433h-74v69h228z" />
    <glyph glyph-name="fl.sc" horiz-adv-x="991" 
d="M453 572v-70h-285v-187h264v-70h-264v-245h-81v572h366zM677 572v-499h283v-73h-364v572h81z" />
    <glyph glyph-name="dollar.tf.sc" 
d="M330 693v-111q132 -13 207 -114l-62 -45q-51 78 -147 89v-184q121 -27 167.5 -64.5t46.5 -106.5t-55 -116.5t-157 -53.5v-127h-55v127q-156 9 -235 117l57 50q70 -89 180 -99v209q-108 21 -156.5 59.5t-48.5 102.5q0 67 54.5 110t148.5 46v111h55zM278 338v176
q-124 -5 -124 -84q0 -34 24.5 -54t99.5 -38zM328 254v-199q64 4 97 30.5t33 68.5q0 39 -25.5 61t-104.5 39z" />
    <glyph glyph-name="zero.tf.sc" 
d="M300 588q114 0 186 -82t72 -221q0 -136 -71.5 -216t-186.5 -80t-186.5 80t-71.5 216q0 139 72 221t186 82zM300 519q-79 0 -126.5 -62.5t-47.5 -172.5q0 -105 47.5 -166t126.5 -61q78 0 125.5 60.5t47.5 166.5q0 110 -47.5 172.5t-125.5 62.5z" />
    <glyph glyph-name="one.tf.sc" 
d="M126 0v69h163v301h-164v64h33q80 0 110.5 32t40.5 106h62v-503h147v-69h-392z" />
    <glyph glyph-name="two.tf.sc" 
d="M305 584q97 0 153.5 -50.5t56.5 -130.5q0 -90 -71.5 -164t-244.5 -170h325v-69h-447v68q207 126 279.5 192.5t72.5 137.5q0 56 -34 87t-90 31q-67 0 -105 -39.5t-39 -95.5h-84q3 81 63 142t165 61z" />
    <glyph glyph-name="three.tf.sc" 
d="M329 588q100 0 155 -42.5t55 -109.5q0 -46 -27.5 -82t-76.5 -48q56 -8 91 -41.5t35 -92.5q0 -84 -66 -133.5t-171 -49.5q-97 0 -163 46t-85 128l79 17q32 -122 169 -122q67 0 108.5 30t41.5 83q0 101 -122 101h-79v63h69q50 0 83 24t33 73q0 40 -33.5 64t-95.5 24
q-129 0 -155 -112l-79 13q14 72 77 119.5t157 47.5z" />
    <glyph glyph-name="four.tf.sc" 
d="M471 572v-382h98v-68h-98v-122h-81v122h-321v68l300 382h102zM390 487l-233 -297h233v297z" />
    <glyph glyph-name="five.tf.sc" 
d="M516 572l-11 -69h-276l-24 -152q60 56 148 56q79 0 137.5 -55.5t58.5 -141.5q0 -98 -64.5 -159.5t-169.5 -61.5q-90 0 -145 41t-76 97l78 21q39 -90 146 -90q65 0 106 41.5t41 106.5q0 62 -38.5 98.5t-97.5 36.5q-81 0 -139 -70l-73 9l44 292h355z" />
    <glyph glyph-name="six.tf.sc" 
d="M335 588q137 0 191 -117l-76 -22q-31 73 -116 73q-143 0 -160 -211q25 41 69 63t95 22q88 0 149.5 -57t61.5 -145q0 -89 -64.5 -147t-162.5 -58q-100 0 -166.5 64.5t-66.5 192.5q0 165 65.5 253.5t180.5 88.5zM323 329q-64 0 -103 -38.5t-39 -96.5q0 -60 39.5 -98.5
t101.5 -38.5q63 0 102.5 37.5t39.5 99.5q0 58 -37 96.5t-104 38.5z" />
    <glyph glyph-name="seven.tf.sc" 
d="M550 572v-66q-103 -117 -160.5 -235t-82.5 -271h-98q33 169 93.5 285.5t159.5 217.5h-271v-51h-71v120h430z" />
    <glyph glyph-name="eight.tf.sc" 
d="M314 582q99 0 153.5 -44.5t54.5 -107.5q0 -81 -97 -116q133 -46 133 -155q0 -74 -59 -122t-182 -48q-117 0 -177 48.5t-60 123.5q0 112 117 146q-83 39 -83 125q0 62 51.5 106t148.5 44zM314 516q-58 0 -89 -22.5t-31 -62.5q0 -37 28.5 -58.5t93.5 -32.5l39 -7
q86 36 86 97q0 36 -32.5 61t-94.5 25zM304 271l-40 9q-101 -26 -101 -116q0 -47 41 -77.5t114 -30.5q82 0 120 29t38 77t-35.5 67.5t-136.5 41.5z" />
    <glyph glyph-name="nine.tf.sc" 
d="M302 -11q-147 0 -203 117l76 22q35 -73 128 -73q142 0 159 211q-25 -41 -69 -63t-95 -22q-89 0 -150.5 56.5t-61.5 145.5q0 88 65 146.5t163 58.5q100 0 166 -64.5t66 -193.5q0 -166 -63.5 -253.5t-180.5 -87.5zM312 248q64 0 103 38t39 96q0 61 -39.5 99t-101.5 38
q-63 0 -102.5 -37t-39.5 -99q0 -58 37 -96.5t104 -38.5z" />
    <glyph glyph-name="cent.tf.sc" 
d="M478 188l77 -24q-29 -79 -88.5 -123t-135.5 -51v-139h-64v139q-44 5 -82 23t-71.5 51.5t-53 91t-19.5 131.5q0 138 63.5 211t162.5 84v136h64v-135q69 -7 126.5 -46t86.5 -117l-78 -22q-39 104 -138 116v-456q112 12 150 130zM125 287q0 -98 37.5 -158t107.5 -71v456
q-68 -11 -106.5 -70.5t-38.5 -156.5z" />
    <glyph glyph-name="sterling.tf.sc" 
d="M346 583q73 0 121 -37.5t68 -95.5l-78 -23q-26 90 -114 90q-52 0 -84 -31.5t-32 -85.5v-89h212v-51h-212v-78q0 -42 -10 -67t-37 -45h334v-70h-419l-9 62q39 16 51.5 41t12.5 76v81h-81v51h81v93q0 75 50.5 127t145.5 52z" />
    <glyph glyph-name="yen.tf.sc" 
d="M557 572l-192 -297h135v-50h-159v-63h159v-49h-159v-113h-82v113h-160v49h160v63h-160v50h135l-194 297h93l168 -287l165 287h91z" />
    <glyph glyph-name="figuredash.tf.sc" 
d="M558 316v-73h-516v73h516z" />
    <glyph glyph-name="Euro.tf.sc" 
d="M375 583q108 0 178 -70l-26 -72q-64 73 -152 73q-135 0 -165 -141h283l-17 -50h-273q-2 -24 -2 -35q0 -13 2 -35h250l-16 -49h-229q25 -149 160 -149q90 0 157 65v-85q-71 -49 -158 -49q-93 0 -157 55.5t-81 162.5h-87l17 49h65q-1 11 -1 35q0 23 1 35h-77l17 50h67
q22 99 87 154.5t157 55.5z" />
    <glyph glyph-name="dollar.lf.sc" horiz-adv-x="625" 
d="M343 693v-111q132 -13 207 -114l-62 -45q-51 78 -147 89v-184q121 -27 167.5 -64.5t46.5 -106.5t-55 -116.5t-157 -53.5v-127h-55v127q-156 9 -235 117l57 50q70 -89 180 -99v209q-108 21 -156.5 59.5t-48.5 102.5q0 67 54.5 110t148.5 46v111h55zM291 338v176
q-124 -5 -124 -84q0 -34 24.5 -54t99.5 -38zM341 254v-199q64 4 97 30.5t33 68.5q0 39 -25.5 61t-104.5 39z" />
    <glyph glyph-name="zero.lf.sc" horiz-adv-x="593" 
d="M296 588q118 0 192 -82t74 -221q0 -138 -73.5 -217t-192.5 -79t-192.5 79t-73.5 217q0 139 74 221t192 82zM296 519q-83 0 -132.5 -62.5t-49.5 -171.5q0 -107 49.5 -167.5t132.5 -60.5t132.5 60t49.5 168t-49.5 171t-132.5 63z" />
    <glyph glyph-name="one.lf.sc" horiz-adv-x="467" 
d="M79 0v69h163v301h-164v64h33q80 0 110.5 32t40.5 106h62v-503h147v-69h-392z" />
    <glyph glyph-name="two.lf.sc" horiz-adv-x="554" 
d="M284 584q97 0 153.5 -50.5t56.5 -130.5q0 -90 -71.5 -164t-244.5 -170h325v-69h-447v68q207 126 279.5 192.5t72.5 137.5q0 56 -34 87t-90 31q-67 0 -105 -39.5t-39 -95.5h-84q3 81 63 142t165 61z" />
    <glyph glyph-name="three.lf.sc" horiz-adv-x="606" 
d="M310 588q100 0 155 -42.5t55 -109.5q0 -46 -27.5 -82t-76.5 -48q56 -8 91 -41.5t35 -92.5q0 -84 -66 -133.5t-171 -49.5q-97 0 -163 46t-85 128l79 17q32 -122 169 -122q67 0 108.5 30t41.5 83q0 101 -122 101h-79v63h69q50 0 83 24t33 73q0 40 -33.5 64t-95.5 24
q-129 0 -155 -112l-79 13q14 72 77 119.5t157 47.5z" />
    <glyph glyph-name="four.lf.sc" horiz-adv-x="596" 
d="M451 572v-382h98v-68h-98v-122h-81v122h-321v68l300 382h102zM370 487l-233 -297h233v297z" />
    <glyph glyph-name="five.lf.sc" horiz-adv-x="584" 
d="M486 572l-11 -69h-276l-24 -152q60 56 148 56q79 0 137.5 -55.5t58.5 -141.5q0 -98 -64.5 -159.5t-169.5 -61.5q-90 0 -145 41t-76 97l78 21q39 -90 146 -90q65 0 106 41.5t41 106.5q0 62 -38.5 98.5t-97.5 36.5q-81 0 -139 -70l-73 9l44 292h355z" />
    <glyph glyph-name="six.lf.sc" horiz-adv-x="592" 
d="M313 588q137 0 191 -117l-76 -22q-31 73 -116 73q-143 0 -160 -211q25 41 69 63t95 22q88 0 149.5 -57t61.5 -145q0 -89 -64.5 -147t-162.5 -58q-100 0 -166.5 64.5t-66.5 192.5q0 165 65.5 253.5t180.5 88.5zM301 329q-64 0 -103 -38.5t-39 -96.5q0 -60 39.5 -98.5
t101.5 -38.5q63 0 102.5 37.5t39.5 99.5q0 58 -37 96.5t-104 38.5z" />
    <glyph glyph-name="seven.lf.sc" horiz-adv-x="503" 
d="M469 572v-66q-103 -117 -160.5 -235t-82.5 -271h-98q33 169 93.5 285.5t159.5 217.5h-271v-51h-71v120h430z" />
    <glyph glyph-name="eight.lf.sc" horiz-adv-x="585" 
d="M288 582q99 0 153.5 -44.5t54.5 -107.5q0 -81 -97 -116q133 -46 133 -155q0 -74 -59 -122t-182 -48q-117 0 -177 48.5t-60 123.5q0 112 117 146q-83 39 -83 125q0 62 51.5 106t148.5 44zM288 516q-58 0 -89 -22.5t-31 -62.5q0 -37 28.5 -58.5t93.5 -32.5l39 -7
q86 36 86 97q0 36 -32.5 61t-94.5 25zM278 271l-40 9q-101 -26 -101 -116q0 -47 41 -77.5t114 -30.5q82 0 120 29t38 77t-35.5 67.5t-136.5 41.5z" />
    <glyph glyph-name="nine.lf.sc" horiz-adv-x="590" 
d="M275 -11q-147 0 -203 117l76 22q35 -73 128 -73q142 0 159 211q-25 -41 -69 -63t-95 -22q-89 0 -150.5 56.5t-61.5 145.5q0 88 65 146.5t163 58.5q100 0 166 -64.5t66 -193.5q0 -166 -63.5 -253.5t-180.5 -87.5zM285 248q64 0 103 38t39 96q0 61 -39.5 99t-101.5 38
q-63 0 -102.5 -37t-39.5 -99q0 -58 37 -96.5t104 -38.5z" />
    <glyph glyph-name="cent.lf.sc" horiz-adv-x="625" 
d="M491 188l77 -24q-29 -79 -88.5 -123t-135.5 -51v-139h-64v139q-44 5 -82 23t-71.5 51.5t-53 91t-19.5 131.5q0 138 63.5 211t162.5 84v136h64v-135q69 -7 126.5 -46t86.5 -117l-78 -22q-39 104 -138 116v-456q112 12 150 130zM138 287q0 -98 37.5 -158t107.5 -71v456
q-68 -11 -106.5 -70.5t-38.5 -156.5z" />
    <glyph glyph-name="sterling.lf.sc" horiz-adv-x="625" 
d="M359 583q73 0 121 -37.5t68 -95.5l-78 -23q-26 90 -114 90q-52 0 -84 -31.5t-32 -85.5v-89h212v-51h-212v-78q0 -42 -10 -67t-37 -45h334v-70h-419l-9 62q39 16 51.5 41t12.5 76v81h-81v51h81v93q0 75 50.5 127t145.5 52z" />
    <glyph glyph-name="yen.lf.sc" horiz-adv-x="625" 
d="M569 572l-192 -297h135v-50h-159v-63h159v-49h-159v-113h-82v113h-160v49h160v63h-160v50h135l-194 297h93l168 -287l165 287h91z" />
    <glyph glyph-name="figuredash.lf.sc" 
d="M558 316v-73h-516v73h516z" />
    <glyph glyph-name="Euro.lf.sc" horiz-adv-x="625" 
d="M388 583q108 0 178 -70l-26 -72q-64 73 -152 73q-135 0 -165 -141h283l-17 -50h-273q-2 -24 -2 -35q0 -13 2 -35h250l-16 -49h-229q25 -149 160 -149q90 0 157 65v-85q-71 -49 -158 -49q-93 0 -157 55.5t-81 162.5h-87l17 49h65q-1 11 -1 35q0 23 1 35h-77l17 50h67
q22 99 87 154.5t157 55.5z" />
    <glyph glyph-name="parenleft.case" horiz-adv-x="277" 
d="M187 826h64q-59 -128 -86 -235.5t-27 -241.5t27 -241t86 -235h-64q-136 240 -136 476q0 237 136 477z" />
    <glyph glyph-name="parenright.case" horiz-adv-x="277" 
d="M26 826h64q136 -240 136 -477q0 -236 -136 -476h-64q59 128 86 235t27 241t-27 241.5t-86 235.5z" />
    <glyph glyph-name="hyphen.case" horiz-adv-x="360" 
d="M309 386v-73h-258v73h258z" />
    <glyph glyph-name="at.case" horiz-adv-x="1031" 
d="M546 814q184 0 297 -106t113 -273q0 -73 -22.5 -141.5t-73 -117.5t-118.5 -49q-98 0 -111 103q-22 -51 -69 -78t-104 -27q-81 0 -129 55t-48 142q0 130 72.5 212t173.5 82q43 0 79 -19.5t51 -61.5l10 58h71l-50 -304q-7 -40 5.5 -69.5t47.5 -29.5q61 0 99 73.5t38 175.5
q0 137 -91.5 225.5t-241.5 88.5q-175 0 -283.5 -111.5t-108.5 -292.5q0 -162 95.5 -262.5t253.5 -100.5q96 0 199 35l21 -60q-117 -39 -221 -39q-187 0 -306 117.5t-119 307.5q0 208 131.5 337.5t338.5 129.5zM532 547q-78 0 -122.5 -66.5t-44.5 -159.5q0 -61 28.5 -94.5
t80.5 -33.5q64 0 110 54.5t51 164.5q4 71 -25 103t-78 32z" />
    <glyph glyph-name="bracketleft.case" horiz-adv-x="300" 
d="M261 836v-66h-122v-828h122v-68h-203v962h203z" />
    <glyph glyph-name="bracketright.case" horiz-adv-x="300" 
d="M39 770v66h203v-962h-203v68h122v828h-122z" />
    <glyph glyph-name="braceleft.case" horiz-adv-x="300" 
d="M273 836v-68h-12q-44 0 -59.5 -20t-15.5 -59v-231q0 -46 -26.5 -72.5t-54.5 -30.5q28 -4 54.5 -31t26.5 -73v-228q0 -39 15.5 -59t59.5 -20h12v-68h-28q-66 0 -103.5 36t-37.5 96v231q0 46 -14.5 66t-47.5 25v50q33 5 47.5 24.5t14.5 65.5v234q0 60 37.5 96t103.5 36h28z
" />
    <glyph glyph-name="braceright.case" horiz-adv-x="300" 
d="M27 768v68h28q66 0 103.5 -36t37.5 -96v-234q0 -46 14.5 -65.5t47.5 -24.5v-50q-33 -5 -47.5 -25t-14.5 -66v-231q0 -60 -37.5 -96t-103.5 -36h-28v68h12q44 0 59.5 20t15.5 59v228q0 46 26.5 73t54.5 31q-28 4 -54.5 30.5t-26.5 72.5v231q0 39 -15.5 59t-59.5 20h-12z
" />
    <glyph glyph-name="exclamdown.case" horiz-adv-x="256" 
d="M128 713q24 0 41.5 -17t17.5 -42t-17.5 -42t-41.5 -17q-25 0 -42.5 17t-17.5 41q0 25 17.5 42.5t42.5 17.5zM157 501l16 -274v-227h-90v227l16 274h58z" />
    <glyph glyph-name="guillemotleft.case" horiz-adv-x="465" 
d="M180 548l43 -30l-94 -167l94 -169l-43 -30l-128 157v84zM370 548l43 -30l-94 -167l94 -169l-43 -30l-128 157v84z" />
    <glyph glyph-name="uni00AD.case" horiz-adv-x="360" 
d="M309 386v-73h-258v73h258z" />
    <glyph glyph-name="guillemotright.case" horiz-adv-x="465" 
d="M283 548l129 -155v-84l-129 -157l-42 30l94 169l-94 167zM95 548l129 -155v-84l-129 -157l-42 30l94 169l-94 167z" />
    <glyph glyph-name="questiondown.case" horiz-adv-x="519" 
d="M258 714q24 0 41.5 -17t17.5 -42t-17.5 -42.5t-41.5 -17.5q-25 0 -42.5 17t-17.5 42t17.5 42.5t42.5 17.5zM302 485v-42q0 -37 -18.5 -67t-45 -51.5t-52.5 -42t-44.5 -48.5t-18.5 -61q0 -54 33.5 -85t95.5 -31q116 0 160 122l76 -24q-7 -27 -24.5 -54.5t-45 -54
t-70.5 -43.5t-94 -17q-60 0 -104.5 18t-68 47t-34.5 58.5t-11 58.5q0 49 19 85.5t46 58t54 40.5t46 45t19 61v27h82z" />
    <glyph glyph-name="gravecomb.case" horiz-adv-x="1" 
d="M-124 884l94 -131h-72l-134 131h112z" />
    <glyph glyph-name="acutecomb.case" horiz-adv-x="1" 
d="M-30 884l-134 -131h-72l94 131h112z" />
    <glyph glyph-name="uni0302.case" horiz-adv-x="1" 
d="M-163 887l133 -129h-79l-94 78l-95 -78h-79l133 129h81z" />
    <glyph glyph-name="tildecomb.case" horiz-adv-x="1" 
d="M-253 872q38 0 74 -26t51 -26q31 0 49 42h49q-7 -44 -34 -72.5t-69 -28.5q-30 0 -53.5 13.5t-40 26.5t-31.5 13q-32 0 -50 -44h-49q7 45 34.5 73.5t69.5 28.5z" />
    <glyph glyph-name="uni0304.case" horiz-adv-x="1" 
d="M-30 845v-59h-314v59h314z" />
    <glyph glyph-name="uni0306.case" horiz-adv-x="1" 
d="M-80 882h50q-7 -60 -46.5 -95.5t-104.5 -35.5t-104.5 35.5t-46.5 95.5h50q6 -34 34.5 -52.5t66.5 -18.5t66.5 18.5t34.5 52.5z" />
    <glyph glyph-name="uni0307.case" horiz-adv-x="1" 
d="M-84 874q22 0 38 -15.5t16 -37.5t-16 -38t-38 -16q-23 0 -39 16t-16 38t16 37.5t39 15.5z" />
    <glyph glyph-name="uni0308.case" horiz-adv-x="1" 
d="M-296 869q21 0 36.5 -15.5t15.5 -36.5t-15.5 -36t-36.5 -15t-36.5 15t-15.5 36t15.5 36.5t36.5 15.5zM-82 869q21 0 36.5 -15.5t15.5 -36.5t-15.5 -36t-36.5 -15t-36.5 15t-15.5 36t15.5 36.5t36.5 15.5z" />
    <glyph glyph-name="uni030A.case" horiz-adv-x="1" 
d="M-148 958q48 0 83 -32t35 -81t-35 -80.5t-83 -31.5t-83 31.5t-35 80.5t35 81t83 32zM-148 911q-26 0 -44.5 -18t-18.5 -48t18 -47.5t45 -17.5q26 0 44 17.5t18 47.5t-18 48t-44 18z" />
    <glyph glyph-name="uni030B.case" horiz-adv-x="1" 
d="M-202 884l-121 -131h-60l81 131h100zM-30 884l-125 -131h-60l85 131h100z" />
    <glyph glyph-name="uni030C.case" horiz-adv-x="1" 
d="M-30 894l-133 -129h-81l-133 129h79l95 -78l94 78h79z" />
    <glyph glyph-name="endash.case" horiz-adv-x="518" 
d="M467 386v-73h-416v73h416z" />
    <glyph glyph-name="emdash.case" horiz-adv-x="618" 
d="M567 386v-73h-516v73h516z" />
    <glyph glyph-name="guilsinglleft.case" horiz-adv-x="261" 
d="M173 548l43 -30l-94 -167l94 -169l-43 -30l-128 157v84z" />
    <glyph glyph-name="guilsinglright.case" horiz-adv-x="261" 
d="M87 548l129 -155v-84l-129 -157l-42 30l94 169l-94 167z" />
    <glyph glyph-name="zero.zero" horiz-adv-x="605" 
d="M302 588q118 0 192 -82t74 -221q0 -138 -73.5 -217t-192.5 -79t-192.5 79t-73.5 217q0 139 74 221t192 82zM302 519q-83 0 -132.5 -62.5t-49.5 -171.5q0 -96 42 -157l253 349q-47 42 -113 42zM302 57q83 0 132.5 60t49.5 168q0 91 -36 152l-250 -347q44 -33 104 -33z" />
    <glyph glyph-name="zero.tf.zero" 
d="M300 716q116 0 181.5 -93t65.5 -274q0 -180 -66 -272.5t-181 -92.5q-116 0 -182 93t-66 272q0 181 66 274t182 93zM300 647q-79 0 -121 -74t-42 -222q0 -123 21 -190l257 437q-37 49 -115 49zM300 53q79 0 121.5 75.5t42.5 222.5q0 123 -21 191l-258 -438q38 -51 115 -51
z" />
    <glyph glyph-name="zero.lf.zero" horiz-adv-x="622" 
d="M311 695q120 0 193.5 -91t73.5 -262q0 -170 -73.5 -262.5t-193.5 -92.5t-193.5 92.5t-73.5 262.5q0 172 73 262.5t194 90.5zM311 626q-85 0 -134 -72t-49 -212q0 -115 38 -189l252 432q-42 41 -107 41zM311 56q83 0 133 75.5t50 210.5q0 125 -41 198l-255 -434
q45 -50 113 -50z" />
    <glyph glyph-name="zero.tosf.zero" 
d="M300 588q114 0 186 -82t72 -221q0 -136 -71.5 -216t-186.5 -80t-186.5 80t-71.5 216q0 139 72 221t186 82zM300 519q-79 0 -126.5 -62.5t-47.5 -172.5q0 -106 45 -165l216 376q-37 24 -87 24zM300 57q78 0 125.5 60.5t47.5 166.5q0 114 -48 176l-218 -376q39 -27 93 -27z
" />
    <glyph glyph-name="zero.tf.sc.zero" 
d="M300 588q114 0 186 -82t72 -221q0 -136 -71.5 -216t-186.5 -80t-186.5 80t-71.5 216q0 139 72 221t186 82zM300 519q-79 0 -126.5 -62.5t-47.5 -172.5q0 -106 45 -165l216 376q-37 24 -87 24zM300 57q78 0 125.5 60.5t47.5 166.5q0 114 -48 176l-218 -376q39 -27 93 -27z
" />
    <glyph glyph-name="zero.lf.sc.zero" horiz-adv-x="605" 
d="M302 588q118 0 192 -82t74 -221q0 -138 -73.5 -217t-192.5 -79t-192.5 79t-73.5 217q0 139 74 221t192 82zM302 519q-83 0 -132.5 -62.5t-49.5 -171.5q0 -96 42 -157l253 349q-47 42 -113 42zM302 57q83 0 132.5 60t49.5 168q0 91 -36 152l-250 -347q44 -33 104 -33z" />
    <glyph glyph-name="exclam.ss01" horiz-adv-x="256" 
d="M174 703v-227l-16 -274h-58l-16 274v227h90zM179 101v-101h-102v101h102z" />
    <glyph glyph-name="comma.ss01" horiz-adv-x="264" 
d="M184 101v-101l-65 -152h-53l43 152h-28v101h103z" />
    <glyph glyph-name="period.ss01" horiz-adv-x="264" 
d="M183 101v-101h-102v101h102z" />
    <glyph glyph-name="colon.ss01" horiz-adv-x="264" 
d="M183 101v-101h-102v101h102zM183 477v-101h-102v101h102z" />
    <glyph glyph-name="semicolon.ss01" horiz-adv-x="275" 
d="M184 101v-101l-65 -152h-53l43 152h-28v101h103zM183 468v-101h-102v101h102z" />
    <glyph glyph-name="question.ss01" horiz-adv-x="519" 
d="M265 711q60 0 104.5 -18t68 -47t34.5 -58.5t11 -58.5q0 -49 -19 -85.5t-46 -58t-54 -40.5t-46 -45t-19 -61v-37h-82v51q0 37 18.5 67.5t44.5 51.5t52.5 42t45 49t18.5 61q0 54 -33.5 85t-95.5 31q-116 0 -160 -122l-76 24q7 27 24.5 54.5t45 54t70.5 43.5t94 17zM311 101
v-101h-102v101h102z" />
    <glyph glyph-name="i.ss01" horiz-adv-x="245" 
d="M164 521v-521h-82v521h82zM170 713v-88h-94v88h94z" />
    <glyph glyph-name="j.ss01" horiz-adv-x="245" 
d="M164 521v-550q0 -75 -41.5 -111.5t-101.5 -36.5q-26 0 -53 5v65q12 -1 25 -1q49 0 69 21.5t20 85.5v522h82zM170 713v-88h-94v88h94z" />
    <glyph glyph-name="exclamdown.ss01" horiz-adv-x="256" 
d="M179 521v-101h-102v101h102zM157 314l16 -248v-227h-90v227l16 248h58z" />
    <glyph glyph-name="periodcentered.ss01" horiz-adv-x="264" 
d="M183 346v-101h-102v101h102z" />
    <glyph glyph-name="questiondown.ss01" horiz-adv-x="519" 
d="M311 521v-101h-102v101h102zM302 322v-42q0 -37 -18.5 -67.5t-45 -51.5t-52.5 -42t-44.5 -49t-18.5 -61q0 -54 33.5 -84.5t95.5 -30.5q116 0 160 121l76 -23q-7 -27 -24.5 -54.5t-45 -54.5t-70.5 -44t-94 -17q-60 0 -104.5 18t-68 47t-34.5 58.5t-11 58.5q0 49 19 85.5
t46 58t54 40.5t46 45t19 61v28h82z" />
    <glyph glyph-name="Adieresis.ss01" horiz-adv-x="619" 
d="M511 0l-44 136h-319l-44 -136h-87l239 700h109l238 -700h-92zM308 629l-137 -421h272zM248 860v-85h-90v85h90zM462 860v-85h-90v85h90z" />
    <glyph glyph-name="Edieresis.ss01" horiz-adv-x="575" 
d="M510 700v-74h-340v-232h319v-74h-319v-246h349v-74h-432v700h423zM239 860v-85h-90v85h90zM453 860v-85h-90v85h90z" />
    <glyph glyph-name="Idieresis.ss01" horiz-adv-x="363" 
d="M322 700v-72h-99v-556h99v-72h-282v72h99v556h-99v72h282zM119 860v-85h-90v85h90zM333 860v-85h-90v85h90z" />
    <glyph glyph-name="Odieresis.ss01" horiz-adv-x="752" 
d="M376 714q56 0 109.5 -19t102 -59t78 -114t29.5 -173q0 -94 -27.5 -166t-74 -114t-101.5 -62.5t-116 -20.5q-56 0 -109.5 19t-102 59t-78 114t-29.5 173q0 94 27.5 166t74 114t101.5 62.5t116 20.5zM376 640q-104 0 -168 -76t-64 -212q0 -138 63 -215t169 -77
q102 0 167.5 76.5t65.5 211.5q0 138 -63 215t-170 77zM314 860v-85h-90v85h90zM528 860v-85h-90v85h90z" />
    <glyph glyph-name="Udieresis.ss01" horiz-adv-x="667" 
d="M592 700v-456q0 -50 -13 -93.5t-41.5 -81.5t-81 -60.5t-123.5 -22.5q-73 0 -125.5 22.5t-80 61.5t-39.5 81.5t-12 92.5v456h83v-453q0 -187 175 -187q87 0 131 48.5t44 138.5v453h83zM272 860v-85h-90v85h90zM486 860v-85h-90v85h90z" />
    <glyph glyph-name="adieresis.ss01" horiz-adv-x="552" 
d="M276 532q108 0 153.5 -42.5t45.5 -125.5v-238q0 -80 18 -126h-86q-9 29 -13 67q-56 -78 -172 -78q-83 0 -129 43t-46 111q0 148 210 173l136 17v25q0 61 -24.5 85t-94.5 24q-66 0 -95.5 -24t-31.5 -75h-79q2 80 56 122t152 42zM393 271l-112 -14q-79 -11 -114 -36
t-35 -73q0 -40 25.5 -64.5t79.5 -24.5q66 0 111 37.5t45 93.5v81zM217 701v-86h-90v86h90zM431 701v-86h-90v86h90z" />
    <glyph glyph-name="edieresis.ss01" horiz-adv-x="572" 
d="M293 532q108 0 169.5 -77t61.5 -193v-19h-388q2 -88 45.5 -136.5t121.5 -48.5q99 0 148 83l68 -37q-75 -116 -219 -116q-116 0 -182 77.5t-66 195.5q0 120 63 195.5t178 75.5zM291 464q-68 0 -108.5 -43t-45.5 -115h302q-5 73 -43.5 115.5t-104.5 42.5zM227 701v-86h-90
v86h90zM441 701v-86h-90v86h90z" />
    <glyph glyph-name="idieresis.ss01" horiz-adv-x="245" 
d="M164 521v-521h-82v521h82zM61 701v-86h-90v86h90zM275 701v-86h-90v86h90z" />
    <glyph glyph-name="odieresis.ss01" horiz-adv-x="602" 
d="M301 532q112 0 180.5 -78t68.5 -194q0 -121 -66 -196t-183 -75q-115 0 -182 76t-67 195t67.5 195.5t181.5 76.5zM301 462q-75 0 -119.5 -54t-44.5 -146q0 -94 43.5 -148.5t120.5 -54.5q78 0 121 54t43 149q0 91 -44.5 145.5t-119.5 54.5zM239 701v-86h-90v86h90zM453 701
v-86h-90v86h90z" />
    <glyph glyph-name="divide.ss01" 
d="M351 163v-101h-102v101h102zM351 524v-101h-102v101h102zM496 329v-73h-392v73h392z" />
    <glyph glyph-name="udieresis.ss01" horiz-adv-x="575" 
d="M494 521v-521h-82v75q-26 -40 -68.5 -63t-90.5 -23q-84 0 -130 46.5t-46 136.5v349h82v-332q0 -67 26 -97.5t84 -30.5q62 0 102.5 43t40.5 120v297h82zM222 701v-86h-90v86h90zM436 701v-86h-90v86h90z" />
    <glyph glyph-name="ydieresis.ss01" horiz-adv-x="498" 
d="M480 521l-177 -549q-24 -75 -61.5 -112.5t-113.5 -37.5q-34 0 -58 6v64q18 -2 43 -2q54 0 76.5 24.5t39.5 85.5h-27l-184 521h89l151 -457l137 457h85zM187 701v-86h-90v86h90zM401 701v-86h-90v86h90z" />
    <glyph glyph-name="ij.ss01" horiz-adv-x="502" 
d="M421 521v-550q0 -75 -41.5 -111.5t-101.5 -36.5q-26 0 -53 5v65q12 -1 25 -1q49 0 69 21.5t20 85.5v522h82zM427 713v-88h-94v88h94zM164 521v-521h-82v521h82zM170 713v-88h-94v88h94z" />
    <glyph glyph-name="Ydieresis.ss01" horiz-adv-x="605" 
d="M588 700l-242 -415v-285h-84v284l-244 416h95l193 -339l190 339h92zM241 860v-85h-90v85h90zM455 860v-85h-90v85h90z" />
    <glyph glyph-name="uni02BB.ss01" horiz-adv-x="269" 
d="M85 532v96l62 145h50l-41 -145h27v-96h-98z" />
    <glyph glyph-name="uni02BC.ss01" horiz-adv-x="269" 
d="M178 739v-96l-62 -145h-50l41 145h-27v96h98z" />
    <glyph glyph-name="uni0307.ss01" horiz-adv-x="1" 
d="M-30 713v-88h-94v88h94z" />
    <glyph glyph-name="uni0308.ss01" horiz-adv-x="1" 
d="M-244 701v-86h-90v86h90zM-30 701v-86h-90v86h90z" />
    <glyph glyph-name="uni0326.ss01" horiz-adv-x="1" 
d="M-30 -77v-81l-46 -109h-43l28 109h-24v81h85z" />
    <glyph glyph-name="quoteleft.ss01" horiz-adv-x="268" 
d="M85 532v96l62 145h50l-41 -145h27v-96h-98z" />
    <glyph glyph-name="quoteright.ss01" horiz-adv-x="269" 
d="M178 739v-96l-62 -145h-50l41 145h-27v96h98z" />
    <glyph glyph-name="quotesinglbase.ss01" horiz-adv-x="269" 
d="M178 96v-96l-62 -145h-50l41 145h-27v96h98z" />
    <glyph glyph-name="quotedblleft.ss01" horiz-adv-x="442" 
d="M258 532v96l62 145h50l-41 -145h27v-96h-98zM85 532v96l62 145h50l-41 -145h27v-96h-98z" />
    <glyph glyph-name="quotedblright.ss01" horiz-adv-x="442" 
d="M178 739v-96l-62 -145h-50l41 145h-27v96h98zM351 739v-96l-62 -145h-50l41 145h-27v96h98z" />
    <glyph glyph-name="quotedblbase.ss01" horiz-adv-x="442" 
d="M178 96v-96l-62 -145h-50l41 145h-27v96h98zM351 96v-96l-62 -145h-50l41 145h-27v96h98z" />
    <glyph glyph-name="bullet.ss01" horiz-adv-x="334" 
d="M257 393v-179h-180v179h180z" />
    <glyph glyph-name="ellipsis.ss01" horiz-adv-x="790" 
d="M183 101v-101h-102v101h102zM446 101v-101h-102v101h102zM709 101v-101h-102v101h102z" />
    <glyph glyph-name="uni203D.ss01" horiz-adv-x="519" 
d="M260 711q61 0 107 -18t70 -47t35 -58.5t11 -58.5q0 -49 -19 -85.5t-46 -58t-54 -40.5t-46 -45t-19 -61v-37h-75l1 2l-16 272v157q-72 -24 -102 -115l-76 24q7 27 24 54.5t44.5 54t69.5 43.5t91 17zM299 476l-9 -116q11 13 34.5 35.5t36 37t24 39t11.5 52.5q0 95 -97 113
v-161zM211 0v101h102v-101h-102z" />
    <glyph glyph-name="uni2219.ss01" 
d="M390 393v-179h-180v179h180z" />
    <glyph glyph-name="dotmath.ss01" 
d="M351 346v-101h-102v101h102z" />
    <glyph glyph-name="adieresis.sc.ss01" horiz-adv-x="557" 
d="M452 0l-37 106h-277l-36 -106h-85l209 572h106l209 -572h-89zM277 512l-116 -339h231zM217 752v-86h-90v86h90zM431 752v-86h-90v86h90z" />
    <glyph glyph-name="edieresis.sc.ss01" horiz-adv-x="527" 
d="M463 572v-70h-295v-175h277v-70h-277v-186h302v-71h-383v572h376zM215 752v-86h-90v86h90zM429 752v-86h-90v86h90z" />
    <glyph glyph-name="idieresis.sc.ss01" horiz-adv-x="309" 
d="M268 572v-69h-74v-433h74v-70h-228v70h74v433h-74v69h228zM92 752v-86h-90v86h90zM306 752v-86h-90v86h90z" />
    <glyph glyph-name="odieresis.sc.ss01" horiz-adv-x="676" 
d="M339 584q39 0 76.5 -9t75 -31.5t66 -55.5t46 -85.5t17.5 -117.5q0 -77 -24.5 -136t-65.5 -93t-89.5 -51t-101.5 -17q-39 0 -77 9t-75.5 31t-66 55t-46 86t-17.5 118q0 77 24.5 136t65.5 93t89.5 51t102.5 17zM339 513q-89 0 -143.5 -59.5t-54.5 -166.5t53.5 -167.5
t144.5 -60.5q87 0 142.5 60t55.5 165q0 108 -53.5 168.5t-144.5 60.5zM277 752v-86h-90v86h90zM491 752v-86h-90v86h90z" />
    <glyph glyph-name="udieresis.sc.ss01" horiz-adv-x="609" 
d="M533 572v-367q0 -89 -54.5 -153t-174.5 -64q-65 0 -111.5 19.5t-71 52.5t-35 68.5t-10.5 76.5v367h81v-365q0 -148 148 -148q73 0 110.5 39t37.5 109v365h80zM242 752v-86h-90v86h90zM456 752v-86h-90v86h90z" />
    <glyph glyph-name="ydieresis.sc.ss01" horiz-adv-x="547" 
d="M529 572l-214 -340v-232h-81v230l-216 342h93l165 -266l163 266h90zM212 752v-86h-90v86h90zM426 752v-86h-90v86h90z" />
    <glyph glyph-name="exclamdown.case.ss01" horiz-adv-x="256" 
d="M179 700v-101h-102v101h102zM157 501l16 -274v-227h-90v227l16 274h58z" />
    <glyph glyph-name="questiondown.case.ss01" horiz-adv-x="519" 
d="M312 700v-101h-102v101h102zM302 485v-42q0 -37 -18.5 -67t-45 -51.5t-52.5 -42t-44.5 -48.5t-18.5 -61q0 -54 33.5 -85t95.5 -31q116 0 160 122l76 -24q-7 -27 -24.5 -54.5t-45 -54t-70.5 -43.5t-94 -17q-60 0 -104.5 18t-68 47t-34.5 58.5t-11 58.5q0 49 19 85.5t46 58
t54 40.5t46 45t19 61v27h82z" />
    <glyph glyph-name="uni0307.case.ss01" horiz-adv-x="1" 
d="M-30 873v-88h-94v88h94z" />
    <glyph glyph-name="uni0308.case.ss01" horiz-adv-x="1" 
d="M-244 860v-85h-90v85h90zM-30 860v-85h-90v85h90z" />
    <glyph glyph-name="one.ss02" horiz-adv-x="479" 
d="M242 0v370h-164v64h33q80 0 110.5 32.5t37.5 105.5h65v-572h-82z" />
    <glyph glyph-name="onesuperior.ss02" horiz-adv-x="400" 
d="M195 330v294h-107v51h19q56 0 76.5 16.5t25.5 58.5h63v-420h-77z" />
    <glyph glyph-name="onequarter.ss02" horiz-adv-x="874" 
d="M714 712l-433 -724h-70l433 724h70zM791 420v-274h64v-62h-64v-84h-76v84h-223v64l198 272h101zM715 344l-148 -198h148v198zM195 280v294h-107v51h19q56 0 76.5 16.5t25.5 58.5h63v-420h-77z" />
    <glyph glyph-name="onehalf.ss02" horiz-adv-x="924" 
d="M714 712l-433 -724h-70l433 724h70zM726 430q70 0 110.5 -34t40.5 -91q0 -120 -207 -243h215v-62h-321v59q120 80 174.5 137t54.5 107q0 66 -71 66q-37 0 -56 -21.5t-20 -58.5h-80q1 60 41.5 100.5t118.5 40.5zM195 280v294h-107v51h19q56 0 76.5 16.5t25.5 58.5h63v-420
h-77z" />
    <glyph glyph-name="uni2081.ss02" horiz-adv-x="400" 
d="M195 -161v294h-107v51h19q56 0 76.5 16.5t25.5 58.5h63v-420h-77z" />
    <glyph glyph-name="uni2150.ss02" horiz-adv-x="954" 
d="M714 712l-433 -724h-70l433 724h70zM914 420v-61q-74 -87 -109.5 -166t-50.5 -193h-85q17 121 57.5 201.5t113.5 156.5h-178v-48h-67v110h319zM195 280v294h-107v51h19q56 0 76.5 16.5t25.5 58.5h63v-420h-77z" />
    <glyph glyph-name="uni2151.ss02" horiz-adv-x="924" 
d="M714 712l-433 -724h-70l433 724h70zM708 -9q-105 0 -149 83l65 27q25 -50 86 -50q96 0 102 151q-37 -57 -115 -57q-60 0 -101 37t-41 102q0 67 47 106.5t119 39.5q77 0 123.5 -46t46.5 -139q0 -254 -183 -254zM720 205q39 0 63.5 23.5t24.5 59.5q0 37 -22.5 59.5
t-61.5 22.5t-63 -22.5t-24 -60.5q0 -37 22 -59.5t61 -22.5zM195 280v294h-107v51h19q56 0 76.5 16.5t25.5 58.5h63v-420h-77z" />
    <glyph glyph-name="uni2152.ss02" horiz-adv-x="1313" 
d="M710 712l-433 -724h-70l433 724h70zM718 0v294h-107v51h19q56 0 76.5 16.5t25.5 58.5h63v-420h-77zM1083 430q80 0 125 -55.5t45 -164.5t-44.5 -163.5t-125.5 -54.5q-80 0 -124.5 55t-44.5 163q0 109 44.5 164.5t124.5 55.5zM1083 368q-90 0 -90 -158q0 -156 90 -156
t90 156q0 158 -90 158zM181 280v294h-107v51h19q56 0 76.5 16.5t25.5 58.5h63v-420h-77z" />
    <glyph glyph-name="onethird.ss02" horiz-adv-x="924" 
d="M714 712l-433 -724h-70l433 724h70zM727 430q72 0 112.5 -31t40.5 -81q0 -38 -24 -62.5t-66 -30.5q45 -5 74 -31.5t29 -71.5q0 -60 -46.5 -95t-121.5 -35q-66 0 -111 30t-59 83l72 17q8 -32 33.5 -50t64.5 -18q38 0 62.5 18.5t24.5 53.5q0 32 -23 49.5t-61 17.5h-47v57
h41q34 0 56 15t22 45q0 29 -20.5 44.5t-54.5 15.5q-72 0 -89 -62l-71 11q13 50 56 80.5t106 30.5zM195 280v294h-107v51h19q56 0 76.5 16.5t25.5 58.5h63v-420h-77z" />
    <glyph glyph-name="uni2155.ss02" horiz-adv-x="934" 
d="M714 712l-433 -724h-70l433 724h70zM880 420l-9 -62h-197l-15 -105q42 39 103 39q59 0 101 -39.5t42 -104.5q0 -69 -46.5 -112.5t-129.5 -43.5q-66 0 -107.5 28.5t-57.5 71.5l70 23q22 -62 97 -62q42 0 67.5 26.5t25.5 65.5q0 38 -24 60.5t-64 22.5q-55 0 -89 -41l-68 11
l32 222h269zM195 280v294h-107v51h19q56 0 76.5 16.5t25.5 58.5h63v-420h-77z" />
    <glyph glyph-name="uni2159.ss02" horiz-adv-x="914" 
d="M714 712l-433 -724h-70l433 724h70zM727 430q103 0 142 -83l-66 -24q-20 47 -77 47q-95 0 -104 -148q36 60 117 60q59 0 101 -37t42 -101q0 -71 -46 -111.5t-119 -40.5q-78 0 -125 46.5t-47 142.5q0 121 48.5 185t133.5 64zM718 222q-38 0 -62.5 -22.5t-24.5 -59.5
q0 -38 24 -63t61 -25q38 0 61 23.5t23 63.5q0 38 -22 60.5t-60 22.5zM195 280v294h-107v51h19q56 0 76.5 16.5t25.5 58.5h63v-420h-77z" />
    <glyph glyph-name="oneeighth.ss02" horiz-adv-x="924" 
d="M714 712l-433 -724h-70l433 724h70zM722 -8q-89 0 -133.5 37t-44.5 85q0 82 92 109q-69 35 -69 95q0 44 39.5 78t115.5 34t115.5 -32t39.5 -74q0 -31 -22 -57t-55 -39q58 -19 80 -43.5t22 -65.5q0 -51 -43 -89t-137 -38zM720 254l23 -6q58 25 58 69q0 24 -19.5 39.5
t-57.5 15.5t-58 -15.5t-20 -38.5q0 -25 17 -39t57 -25zM723 52q50 0 74.5 19t24.5 45q0 30 -21 44.5t-80 31.5l-28 8q-67 -25 -67 -81q0 -29 25 -48t72 -19zM195 280v294h-107v51h19q56 0 76.5 16.5t25.5 58.5h63v-420h-77z" />
    <glyph glyph-name="uni215F.ss02" horiz-adv-x="574" 
d="M714 712l-433 -724h-70l433 724h70zM195 280v294h-107v51h19q56 0 76.5 16.5t25.5 58.5h63v-420h-77z" />
    <glyph glyph-name="uni2460.ss02" horiz-adv-x="900" 
d="M427 159v267h-97v47h17q51 0 70 15t23 53h57v-382h-70zM451 714q152 0 258 -106t106 -259t-105.5 -258t-258.5 -105q-152 0 -258.5 105.5t-106.5 257.5q0 153 106.5 259t258.5 106zM451 665q-131 0 -222 -92t-91 -224q0 -131 91 -222.5t222 -91.5q130 0 220 91.5
t90 222.5q0 132 -90 224t-220 92z" />
    <glyph glyph-name="uni2776.ss02" horiz-adv-x="900" 
d="M451 -14q-152 0 -258.5 105.5t-106.5 257.5q0 153 106.5 259t258.5 106t258 -106t106 -259t-105.5 -258t-258.5 -105zM427 159h70v382h-57q-17 -67 -110 -68v-54q66 2 97 30v-290z" />
    <glyph glyph-name="one.numr.ss02" horiz-adv-x="400" 
d="M195 280v294h-107v51h19q56 0 76.5 16.5t25.5 58.5h63v-420h-77z" />
    <glyph glyph-name="one.dnom.ss02" horiz-adv-x="400" 
d="M195 0v294h-107v51h19q56 0 76.5 16.5t25.5 58.5h63v-420h-77z" />
    <glyph glyph-name="one.tf.ss02" 
d="M308 0v498h-164v64h33q80 0 110.5 32t37.5 106h65v-700h-82z" />
    <glyph glyph-name="one.lf.ss02" horiz-adv-x="467" 
d="M251 0v482h-164v64h33q80 0 110.5 32t37.5 106h65v-684h-82z" />
    <glyph glyph-name="one.tosf.ss02" 
d="M308 0v370h-164v64h33q80 0 110.5 32.5t37.5 105.5h65v-572h-82z" />
    <glyph glyph-name="one.tf.sc.ss02" 
d="M308 0v370h-164v64h33q80 0 110.5 32.5t37.5 105.5h65v-572h-82z" />
    <glyph glyph-name="one.lf.sc.ss02" horiz-adv-x="479" 
d="M261 0v370h-164v64h33q80 0 110.5 32.5t37.5 105.5h65v-572h-82z" />
    <glyph glyph-name="circle.comp" horiz-adv-x="900" 
d="M451 714q152 0 258 -106t106 -259t-105.5 -258t-258.5 -105q-152 0 -258.5 105.5t-106.5 257.5q0 153 106.5 259t258.5 106zM451 665q-131 0 -222 -92t-91 -224q0 -131 91 -222.5t222 -91.5q130 0 220 91.5t90 222.5q0 132 -90 224t-220 92z" />
    </font>
</defs>
</svg>
