<?xml version="1.0" standalone="no"?>
<!DOCTYPE svg PUBLIC "-//W3C//DTD SVG 1.1//EN" "http://www.w3.org/Graphics/SVG/1.1/DTD/svg11.dtd" >
<svg>
<metadata>
Created by FontForge 20120731 at Tue Mar  1 22:19:38 2016
 By ,,,
2015 published by Monotype GmbH
</metadata>
<defs>
<font id="RealTextOT-Medium" horiz-adv-x="600" >
  <font-face 
    font-family="RealTextOT-Medium"
    font-weight="500"
    font-stretch="normal"
    units-per-em="1000"
    panose-1="2 11 6 4 2 1 1 1 1 2"
    ascent="800"
    descent="-200"
    x-height="527"
    cap-height="700"
    bbox="-453 -310 1408 981"
    underline-thickness="110"
    underline-position="-4"
    unicode-range="U+000D-1F310"
  />
<missing-glyph 
d="M531 700v-864h-462v864h462zM413 592h-227v-648h227v648z" />
    <glyph glyph-name="f_f" unicode="ff" horiz-adv-x="655" 
d="M583 615q-35 0 -50.5 -12t-15.5 -44v-37h134v-94h-134v-428h-128v428h-177v-428h-128v428h-72v94h72v47q0 61 46.5 102.5t136.5 41.5q85 0 164 -40q45 40 130 40q57 0 113 -18v-96q-48 16 -91 16zM389 522v45q0 16 3 31q-53 24 -111 24q-69 0 -69 -63v-37h177z" />
    <glyph glyph-name="f_f_i" unicode="ffi" horiz-adv-x="881" 
d="M513 522h300v-522h-128v428h-172v-428h-128v428h-173v-428h-128v428h-72v94h72v47q0 61 46.5 102.5t136.5 41.5q85 0 164 -39q50 39 146 39q73 0 137 -25v-96q-52 23 -115 23q-46 0 -66 -12t-20 -44v-37zM385 522v54q0 14 1 20q-51 23 -105 23q-35 0 -52 -13.5t-17 -46.5
v-37h173z" />
    <glyph glyph-name="f_f_j" unicode="ffj" horiz-adv-x="881" 
d="M513 522h300v-541q0 -83 -46 -124.5t-113 -41.5q-40 0 -67 7v96q12 -1 20 -1q46 0 62 19.5t16 81.5v410h-172v-428h-128v428h-173v-428h-128v428h-72v94h72v47q0 61 46.5 102.5t136.5 41.5q85 0 164 -39q50 39 146 39q73 0 137 -25v-96q-52 23 -115 23q-46 0 -66 -12
t-20 -44v-37zM385 522v54q0 14 1 20q-51 23 -105 23q-35 0 -52 -13.5t-17 -46.5v-37h173z" />
    <glyph glyph-name="f_f_l" unicode="ffl" horiz-adv-x="899" 
d="M852 97q10 0 21 1v-97q-29 -8 -66 -8q-128 0 -128 141v468q-45 13 -91 13q-39 0 -57 -12t-18 -44v-37h97v-94h-97v-428h-128v428h-173v-428h-128v428h-72v94h72v47q0 61 46.5 102.5t136.5 41.5q84 0 163 -39q47 39 134 39q52 0 116 -17l127 6v-548q0 -36 7 -46.5
t38 -10.5zM385 522v54q0 14 1 20q-51 23 -105 23q-35 0 -52 -13.5t-17 -46.5v-37h173z" />
    <glyph glyph-name="f_i" unicode="fi" horiz-adv-x="580" 
d="M276 713q73 0 137 -25v-96q-52 23 -115 23q-46 0 -66 -12t-20 -44v-37h300v-522h-128v428h-172v-428h-128v428h-72v94h72v54q0 61 47.5 99t144.5 38z" />
    <glyph glyph-name="f_j" unicode="fj" horiz-adv-x="580" 
d="M276 713q73 0 137 -25v-96q-52 23 -115 23q-46 0 -66 -12t-20 -44v-37h300v-541q0 -83 -46 -124.5t-113 -41.5q-40 0 -67 7v96q12 -1 20 -1q46 0 62 19.5t16 81.5v410h-172v-428h-128v428h-72v94h72v54q0 61 47.5 99t144.5 38z" />
    <glyph glyph-name="f_l" unicode="fl" horiz-adv-x="598" 
d="M263 713q52 0 116 -17l127 6v-548q0 -36 7 -46.5t38 -10.5q10 0 21 1v-97q-29 -8 -66 -8q-128 0 -128 141v468q-46 13 -91 13q-39 0 -57 -12t-18 -44v-37h97v-94h-97v-428h-128v428h-72v94h72v54q0 60 45.5 98.5t133.5 38.5z" />
    <glyph glyph-name=".notdef" 
d="M531 700v-864h-462v864h462zM413 592h-227v-648h227v648z" />
    <glyph glyph-name=".null" horiz-adv-x="0" 
 />
    <glyph glyph-name="nonmarkingreturn" horiz-adv-x="333" 
 />
    <glyph glyph-name="CR" unicode="&#xd;" horiz-adv-x="247" 
 />
    <glyph glyph-name="space" unicode=" " horiz-adv-x="247" 
 />
    <glyph glyph-name="exclam" unicode="!" horiz-adv-x="270" 
d="M205 703v-213l-21 -271h-98l-21 271v213h140zM136 152q34 0 58.5 -25t24.5 -59t-24.5 -58t-58.5 -24t-59 24.5t-25 58.5t24.5 58.5t59.5 24.5z" />
    <glyph glyph-name="quotedbl" unicode="&#x22;" horiz-adv-x="448" 
d="M179 716v-314h-114v314h114zM384 716v-314h-114v314h114z" />
    <glyph glyph-name="numbersign" unicode="#" 
d="M556 441h-85l-30 -209h74v-86h-86l-21 -146h-101l21 146h-98l-21 -146h-100l21 146h-74v86h86l30 209h-75v86h88l22 154h100l-22 -154h98l22 154h100l-22 -154h73v-86zM340 232l30 209h-98l-30 -209h98z" />
    <glyph glyph-name="dollar" unicode="$" horiz-adv-x="660" 
d="M381 834v-119q148 -16 235 -121l-94 -72q-54 73 -147 86v-195q139 -28 195 -77t56 -136q0 -91 -64 -148.5t-181 -67.5v-133h-84v134q-171 11 -262 129l87 78q76 -90 181 -100v215q-124 25 -180.5 77t-56.5 134q0 85 62.5 137.5t168.5 60.5v118h84zM302 428v182
q-49 -4 -75 -27t-26 -61q0 -37 19.5 -58t81.5 -36zM375 292v-200q54 5 83.5 31t29.5 68q0 38 -21.5 61.5t-91.5 39.5z" />
    <glyph glyph-name="percent" unicode="%" horiz-adv-x="1023" 
d="M227 716q83 0 137.5 -59t54.5 -171q0 -115 -54 -172.5t-138 -57.5t-138 57.5t-54 172.5q0 112 54 171t138 59zM775 712l-433 -724h-100l433 724h100zM228 635q-91 0 -91 -147q0 -151 91 -151q90 0 90 149t-90 149zM796 447q83 0 137.5 -59t54.5 -172q0 -115 -54 -173
t-138 -58t-138 58t-54 173q0 113 54 172t138 59zM796 364q-91 0 -91 -147q0 -149 91 -149q90 0 90 148t-90 148z" />
    <glyph glyph-name="ampersand" unicode="&#x26;" horiz-adv-x="713" 
d="M299 -13q-68 0 -126.5 21.5t-99.5 73.5t-41 126q0 121 137 192q-46 46 -65.5 79.5t-19.5 74.5q0 77 59.5 120t149.5 43q92 0 146 -43.5t54 -107.5q0 -55 -32.5 -96.5t-120.5 -86.5l174 -164q19 60 14 154h121q0 -78 -11.5 -129.5t-41.5 -99.5q39 -32 112 -53l-38 -104
q-87 18 -149 74q-90 -74 -222 -74zM272 447q55 29 77 52t22 60q0 28 -22.5 46t-57.5 18q-38 0 -60.5 -18.5t-22.5 -49.5q0 -28 13 -50t51 -58zM309 96q85 0 136 38l-206 199q-74 -47 -74 -121q0 -55 37.5 -85.5t106.5 -30.5z" />
    <glyph glyph-name="quotesingle" unicode="'" horiz-adv-x="243" 
d="M179 716v-314h-114v314h114z" />
    <glyph glyph-name="parenleft" unicode="(" horiz-adv-x="303" 
d="M181 780h100q-55 -134 -79.5 -236.5t-24.5 -240.5t24 -240t80 -236h-100q-140 235 -140 476q0 242 140 477z" />
    <glyph glyph-name="parenright" unicode=")" horiz-adv-x="303" 
d="M22 780h100q140 -235 140 -477q0 -241 -140 -476h-100q56 134 80 236t24 240t-24.5 240.5t-79.5 236.5z" />
    <glyph glyph-name="asterisk" unicode="*" horiz-adv-x="469" 
d="M292 716l-17 -148l133 62l36 -110l-144 -27l105 -104l-96 -69l-73 127l-70 -130l-97 67l102 110l-145 26l36 110l133 -62l-19 148h116z" />
    <glyph glyph-name="plus" unicode="+" 
d="M362 500v-155h147v-106h-147v-155h-124v155h-147v106h147v155h124z" />
    <glyph glyph-name="comma" unicode="," horiz-adv-x="291" 
d="M144 157q37 0 62 -25.5t25 -63.5q0 -123 -112 -240l-67 35q42 67 48 141q-42 27 -42 72q0 33 25 57t61 24z" />
    <glyph glyph-name="hyphen" unicode="-" horiz-adv-x="369" 
d="M325 360v-109h-280v109h280z" />
    <glyph glyph-name="period" unicode="." horiz-adv-x="291" 
d="M146 157q35 0 60 -25.5t25 -60.5q0 -34 -25 -59t-60 -25t-60.5 25t-25.5 60t25.5 60t60.5 25z" />
    <glyph glyph-name="slash" unicode="/" horiz-adv-x="533" 
d="M496 775l-352 -938h-107l353 938h106z" />
    <glyph glyph-name="zero" unicode="0" horiz-adv-x="627" 
d="M313 595q128 0 205 -83.5t77 -223.5t-76.5 -220.5t-205.5 -80.5t-205.5 80.5t-76.5 220.5t77 223.5t205 83.5zM313 492q-70 0 -110 -54.5t-40 -149.5q0 -93 39.5 -145t110.5 -52q70 0 109.5 51t39.5 146t-39.5 149.5t-109.5 54.5z" />
    <glyph glyph-name="one" unicode="1" horiz-adv-x="490" 
d="M52 0v105h162v247h-164v91h23q85 0 120.5 34t47.5 101h101v-473h136v-105h-426z" />
    <glyph glyph-name="two" unicode="2" horiz-adv-x="572" 
d="M294 591q102 0 164.5 -52.5t62.5 -134.5q0 -90 -61 -153.5t-217 -145.5h284v-105h-476v102q206 122 270 177.5t64 117.5q0 43 -25.5 67t-68.5 24q-54 0 -83.5 -32.5t-29.5 -83.5h-129q3 90 67.5 154.5t177.5 64.5z" />
    <glyph glyph-name="three" unicode="3" horiz-adv-x="575" 
d="M290 595q110 0 169.5 -52t59.5 -136q0 -62 -34.5 -103.5t-90.5 -53.5q60 -9 103 -54.5t43 -119.5q0 -102 -71.5 -162.5t-182.5 -60.5q-100 0 -170.5 51.5t-92.5 142.5l119 28q12 -55 48 -86.5t93 -31.5q56 0 91 31.5t35 91.5q0 55 -32 85.5t-86 30.5h-76v94h63
q46 0 78.5 24t32.5 82q0 49 -30 73.5t-75 24.5q-103 0 -128 -105l-119 21q17 81 84.5 133t168.5 52z" />
    <glyph glyph-name="four" unicode="4" horiz-adv-x="616" 
d="M490 578v-474h101v-104h-101v-130h-126v130h-327v107l290 471h163zM364 439l-199 -335h199v335z" />
    <glyph glyph-name="five" unicode="5" horiz-adv-x="589" 
d="M518 578l-16 -105h-290l-21 -165q58 55 144 55q90 0 155 -65t65 -170q0 -124 -71 -199.5t-197 -75.5q-100 0 -164.5 49.5t-87.5 117.5l117 34q12 -43 48.5 -70t88.5 -27q63 0 98 44.5t35 116.5q0 67 -34 103t-93 36q-79 0 -125 -66l-111 16l49 371h410z" />
    <glyph glyph-name="six" unicode="6" horiz-adv-x="589" 
d="M309 697q160 0 225 -145l-116 -36q-30 82 -108 82q-63 0 -100.5 -60t-45.5 -170q62 86 167 86q94 0 157 -62.5t63 -168.5t-70.5 -172t-179.5 -66q-118 0 -191.5 81.5t-73.5 245.5q0 181 74 283t199 102zM299 352q-55 0 -88.5 -37t-33.5 -95t34 -95.5t87 -37.5
q55 0 88.5 36.5t33.5 98.5q0 57 -31.5 93.5t-89.5 36.5z" />
    <glyph glyph-name="seven" unicode="7" horiz-adv-x="512" 
d="M503 578v-106q-117 -144 -179.5 -280t-82.5 -322h-137q10 106 36 195.5t67 163t82 127t99 116.5h-263v-80h-111v186h489z" />
    <glyph glyph-name="eight" unicode="8" horiz-adv-x="605" 
d="M300 697q114 0 176 -55t62 -129q0 -53 -27.5 -85t-77.5 -54q63 -23 102 -69t39 -110q0 -37 -14 -71.5t-43.5 -67t-85.5 -52t-131 -19.5q-70 0 -124 18.5t-84.5 49.5t-45.5 66t-15 73q0 59 34 102.5t92 67.5q-50 29 -70.5 65t-20.5 87q0 73 60.5 128t173.5 55zM301 599
q-48 0 -77.5 -24.5t-29.5 -65.5q0 -37 25 -57.5t84 -37.5l34 -10q74 45 74 105q0 36 -29.5 63t-80.5 27zM289 313l-34 11q-92 -46 -92 -124q0 -48 37.5 -80.5t100.5 -32.5q73 0 107.5 34.5t34.5 79.5q0 12 -2 21.5t-8 18t-10.5 15t-16 13t-18 10t-22.5 9.5t-23 8t-27 8.5
t-27 8.5z" />
    <glyph glyph-name="nine" unicode="9" horiz-adv-x="594" 
d="M293 595q119 0 191.5 -80t72.5 -253q0 -205 -72 -307t-209 -102q-168 0 -237 139l109 46q42 -83 129 -83q72 0 110 66.5t43 177.5q-61 -85 -170 -85q-92 0 -156.5 65.5t-64.5 172.5q0 110 72 176.5t182 66.5zM296 492q-55 0 -90 -36t-35 -102q0 -58 31.5 -97t90.5 -39
q54 0 87.5 39t33.5 98q0 66 -33 101.5t-85 35.5z" />
    <glyph glyph-name="colon" unicode=":" horiz-adv-x="291" 
d="M146 517q35 0 60 -25.5t25 -60.5q0 -34 -25 -59t-60 -25t-60.5 25t-25.5 60t25.5 60t60.5 25zM146 157q35 0 60 -25.5t25 -60.5q0 -34 -25 -59t-60 -25t-60.5 25t-25.5 60t25.5 60t60.5 25z" />
    <glyph glyph-name="semicolon" unicode=";" horiz-adv-x="291" 
d="M144 157q37 0 62 -25.5t25 -63.5q0 -123 -112 -240l-67 35q42 67 48 141q-42 27 -42 72q0 33 25 57t61 24zM145 517q35 0 60 -25.5t25 -60.5q0 -34 -25 -59t-60 -25t-60.5 25t-25.5 60t25.5 60t60.5 25z" />
    <glyph glyph-name="less" unicode="&#x3c;" 
d="M493 532v-125l-302 -117l302 -116v-125l-387 170v142z" />
    <glyph glyph-name="equal" unicode="=" 
d="M509 466v-110h-418v110h418zM509 249v-110h-418v110h418z" />
    <glyph glyph-name="greater" unicode="&#x3e;" 
d="M106 532l387 -171v-142l-387 -170v125l302 116l-302 117v125z" />
    <glyph glyph-name="question" unicode="?" horiz-adv-x="528" 
d="M269 714q115 0 174 -58t59 -131q0 -51 -19.5 -88t-47 -57.5t-55 -38t-47 -41t-19.5 -54.5v-27h-120v45q0 39 17.5 69.5t43 51t50.5 39t42.5 42.5t17.5 52q0 43 -26 65.5t-72 22.5q-92 0 -129 -102l-117 33q19 69 82.5 123t165.5 54zM257 152q34 0 58.5 -25t24.5 -59
t-24.5 -58t-58.5 -24t-59 24.5t-25 58.5t24.5 58.5t59.5 24.5z" />
    <glyph glyph-name="at" unicode="@" horiz-adv-x="1043" 
d="M550 717q192 0 308 -107.5t116 -274.5q0 -54 -13 -106.5t-38.5 -100t-71.5 -77t-105 -29.5q-58 0 -86.5 27.5t-33.5 66.5q-24 -44 -69 -68.5t-101 -24.5q-83 0 -133 56t-50 146q0 128 74 210.5t177 82.5q94 0 126 -68l7 43h98l-52 -316q-12 -68 45 -68q54 0 86 67t32 165
q0 127 -86 209t-231 82q-168 0 -271 -106.5t-103 -274.5q0 -152 91 -249t236 -97q105 0 200 33l29 -83q-117 -40 -228 -40q-192 0 -313.5 121.5t-121.5 312.5q0 206 134.5 337t347.5 131zM533 421q-68 0 -104 -59t-36 -141q0 -103 86 -103q56 0 97 51t41 150q0 102 -84 102z
" />
    <glyph glyph-name="A" unicode="A" horiz-adv-x="636" 
d="M489 0l-35 117h-279l-35 -117h-137l230 700h169l230 -700h-143zM314 595l-108 -370h216z" />
    <glyph glyph-name="B" unicode="B" horiz-adv-x="650" 
d="M470 378q155 -30 155 -177q0 -92 -66.5 -146.5t-202.5 -54.5h-282v700h243q270 0 270 -179q0 -113 -117 -143zM327 591h-121v-174h139q48 0 77 21.5t29 67.5t-30.5 65.5t-93.5 19.5zM206 109h155q57 0 91 25.5t34 75.5q0 108 -127 108h-153v-209z" />
    <glyph glyph-name="C" unicode="C" horiz-adv-x="724" 
d="M375 717q63 0 117.5 -18t104 -64.5t76.5 -118.5l-130 -36q-48 123 -168 123q-90 0 -142 -66.5t-52 -184.5q0 -120 49.5 -187.5t145.5 -67.5q136 0 184 139l126 -41q-38 -104 -122 -158t-192 -54q-48 0 -93 11.5t-88.5 39.5t-75.5 69t-51.5 105t-19.5 143q0 94 28 166.5
t75.5 115t105 63.5t122.5 21z" />
    <glyph glyph-name="D" unicode="D" horiz-adv-x="700" 
d="M74 700h221q75 0 138.5 -19.5t114 -59.5t79.5 -106.5t29 -154.5q0 -80 -20 -143t-52 -103t-76 -66.5t-89.5 -37t-94.5 -10.5h-250v700zM299 587h-93v-474h117q38 0 70 10.5t61.5 36t46.5 76.5t17 123q0 106 -53 167t-166 61z" />
    <glyph glyph-name="E" unicode="E" horiz-adv-x="583" 
d="M529 700v-112h-322v-176h301v-110h-301v-190h331v-112h-464v700h455z" />
    <glyph glyph-name="F" unicode="F" horiz-adv-x="551" 
d="M517 700v-112h-310v-193h287v-110h-287v-285h-133v700h443z" />
    <glyph glyph-name="G" unicode="G" horiz-adv-x="737" 
d="M375 717q99 0 176.5 -46t118.5 -141l-120 -44q-49 119 -176 119q-94 0 -143.5 -68t-49.5 -189q0 -120 49 -186.5t145 -66.5q77 0 125 39.5t48 110.5v31h-160v104h292v-380h-124v65q-72 -82 -198 -82q-59 0 -112 19.5t-100 60.5t-74.5 114t-27.5 170q0 95 27.5 168
t74.5 116t105 64.5t124 21.5z" />
    <glyph glyph-name="H" unicode="H" horiz-adv-x="714" 
d="M640 700v-700h-132v307h-301v-307h-133v700h133v-281h301v281h132z" />
    <glyph glyph-name="I" unicode="I" horiz-adv-x="386" 
d="M350 700v-109h-91v-482h91v-109h-315v109h91v482h-91v109h315z" />
    <glyph glyph-name="J" unicode="J" horiz-adv-x="402" 
d="M337 700v-485q0 -107 -48.5 -164t-166.5 -57q-50 0 -101 6v113q36 -2 55 -2q76 0 102 24t26 91v474h133z" />
    <glyph glyph-name="K" unicode="K" horiz-adv-x="671" 
d="M512 0l-210 319l-95 -109v-210h-133v700h133v-323l274 323h158l-247 -286l277 -414h-157z" />
    <glyph glyph-name="L" unicode="L" horiz-adv-x="535" 
d="M207 700v-584h307v-116h-440v700h133z" />
    <glyph glyph-name="M" unicode="M" horiz-adv-x="848" 
d="M750 700l50 -700h-128l-37 574l-139 -574h-146l-139 574l-36 -574h-127l51 700h203l123 -546l122 546h203z" />
    <glyph glyph-name="N" unicode="N" horiz-adv-x="708" 
d="M634 700v-700h-150l-288 488v-488h-122v700h147l290 -501v501h123z" />
    <glyph glyph-name="O" unicode="O" horiz-adv-x="765" 
d="M382 717q62 0 119 -19.5t108 -60t81.5 -115t30.5 -173.5q0 -94 -28.5 -166t-77 -114.5t-108 -64t-125.5 -21.5q-62 0 -118.5 19.5t-107.5 60.5t-81.5 115.5t-30.5 172.5q0 94 28.5 166.5t77 115t107.5 63.5t125 21zM382 604q-92 0 -146.5 -67.5t-54.5 -184.5
q0 -120 52 -188t149 -68q90 0 145.5 67t55.5 185q0 119 -52 187.5t-149 68.5z" />
    <glyph glyph-name="P" unicode="P" horiz-adv-x="632" 
d="M74 700h259q134 0 201 -64t67 -164q0 -107 -67.5 -169.5t-198.5 -62.5h-128v-240h-133v700zM207 350h135q122 0 122 123q0 52 -31.5 83.5t-87.5 31.5h-138v-238z" />
    <glyph glyph-name="Q" unicode="Q" horiz-adv-x="768" 
d="M382 717q49 0 95 -11t91 -38.5t78.5 -68.5t54 -105.5t20.5 -144.5q0 -189 -126 -291q53 -40 146 -55l-48 -127q-122 36 -194 129q-57 -22 -117 -22q-62 0 -118.5 19.5t-107.5 60.5t-81.5 115.5t-30.5 172.5q0 94 28.5 166.5t77 115t107.5 63.5t125 21zM382 603
q-92 0 -146.5 -67t-54.5 -184q0 -120 51.5 -187.5t149.5 -67.5q90 0 145.5 66.5t55.5 184.5q0 119 -52 187t-149 68z" />
    <glyph glyph-name="R" unicode="R" horiz-adv-x="644" 
d="M74 700h257q134 0 200 -59.5t66 -152.5q0 -146 -147 -195l184 -293h-155l-161 273h-111v-273h-133v700zM341 589h-134v-210h131q121 0 121 108q0 50 -31 76t-87 26z" />
    <glyph glyph-name="S" unicode="S" horiz-adv-x="650" 
d="M325 -17q-92 0 -172 33t-133 98l89 80q90 -98 219 -98q66 0 107.5 25.5t41.5 70.5q0 48 -36 72.5t-149 43.5q-121 21 -179 70.5t-58 136.5q0 92 73 147t191 55q185 0 286 -125l-94 -74q-71 87 -191 87q-61 0 -95.5 -23t-34.5 -64q0 -40 35 -61.5t143 -40.5
q129 -22 188 -73t59 -143q0 -100 -76.5 -158.5t-213.5 -58.5z" />
    <glyph glyph-name="T" unicode="T" horiz-adv-x="576" 
d="M554 700v-113h-200v-587h-133v587h-200v113h533z" />
    <glyph glyph-name="U" unicode="U" horiz-adv-x="685" 
d="M620 700v-447q0 -55 -15 -101.5t-46.5 -85.5t-87.5 -61t-130 -22q-76 0 -131.5 22.5t-86 61.5t-45 85.5t-14.5 100.5v447h133v-445q0 -83 35.5 -121t109.5 -38q145 0 145 159v445h133z" />
    <glyph glyph-name="V" unicode="V" horiz-adv-x="597" 
d="M593 700l-210 -700h-169l-211 700h143l155 -589l155 589h137z" />
    <glyph glyph-name="W" unicode="W" horiz-adv-x="852" 
d="M842 700l-147 -700h-153l-110 543l-103 -543h-158l-163 700h140l106 -567l107 567h143l113 -563l92 563h133z" />
    <glyph glyph-name="X" unicode="X" horiz-adv-x="643" 
d="M396 381l242 -381h-159l-163 282l-158 -282h-155l231 374l-203 326h153l133 -231l129 231h149l-198 -318z" />
    <glyph glyph-name="Y" unicode="Y" horiz-adv-x="614" 
d="M613 700l-241 -421v-279h-132v277l-241 423h150l159 -309l159 309h146z" />
    <glyph glyph-name="Z" unicode="Z" horiz-adv-x="603" 
d="M561 700v-107l-369 -480h378v-113h-546v103l373 487h-347v110h511z" />
    <glyph glyph-name="bracketleft" unicode="[" horiz-adv-x="314" 
d="M281 790v-102h-108v-757h108v-104h-236v963h236z" />
    <glyph glyph-name="backslash" unicode="\" horiz-adv-x="533" 
d="M143 775l353 -938h-107l-352 938h106z" />
    <glyph glyph-name="bracketright" unicode="]" horiz-adv-x="314" 
d="M33 688v102h236v-963h-236v104h108v757h-108z" />
    <glyph glyph-name="asciicircum" unicode="^" horiz-adv-x="616" 
d="M372 717l185 -384h-133l-119 273l-119 -273h-127l184 384h129z" />
    <glyph glyph-name="underscore" unicode="_" horiz-adv-x="571" 
d="M574 -59v-110h-577v110h577z" />
    <glyph glyph-name="grave" unicode="`" horiz-adv-x="317" 
d="M188 739l94 -146h-102l-152 146h160z" />
    <glyph glyph-name="a" unicode="a" horiz-adv-x="559" 
d="M280 540q114 0 165 -42t51 -124v-259q0 -71 18 -115h-129q-10 25 -15 55q-54 -68 -157 -68q-83 0 -130.5 45t-47.5 116q0 75 51 119.5t164 58.5l118 15v24q0 47 -19 64.5t-72 17.5q-50 0 -72 -17.5t-23 -58.5h-126q2 84 61 126.5t163 42.5zM368 255l-85 -12
q-63 -8 -90 -27.5t-27 -56.5q0 -69 79 -69q51 0 87 30.5t36 77.5v57z" />
    <glyph glyph-name="b" unicode="b" horiz-adv-x="616" 
d="M195 700v-228q54 68 148 68q105 0 169.5 -76.5t64.5 -200.5q0 -118 -64.5 -197t-166.5 -79t-154 69v-56h-125v700h128zM314 436q-58 0 -92 -44.5t-34 -129.5q0 -83 35.5 -127t91.5 -44q58 0 93 45.5t35 125.5q0 84 -33 129t-96 45z" />
    <glyph glyph-name="c" unicode="c" horiz-adv-x="566" 
d="M301 540q84 0 144 -37.5t90 -103.5l-111 -45q-33 82 -116 82q-62 0 -98.5 -44.5t-36.5 -126.5q0 -83 36 -128.5t99 -45.5q87 0 124 96l111 -46q-32 -71 -93 -112.5t-148 -41.5q-122 0 -192.5 77t-70.5 199t71.5 199.5t190.5 77.5z" />
    <glyph glyph-name="d" unicode="d" horiz-adv-x="616" 
d="M549 700v-700h-126v59q-54 -72 -153 -72q-105 0 -168 76.5t-63 199.5q0 122 66 199.5t169 77.5q93 0 147 -63v223h128zM301 436q-61 0 -95 -45t-34 -127q0 -84 33.5 -128.5t95.5 -44.5q58 0 92 44t34 129q0 83 -35 127.5t-91 44.5z" />
    <glyph glyph-name="e" unicode="e" horiz-adv-x="579" 
d="M294 540q116 0 182.5 -77.5t66.5 -203.5v-26h-372q3 -71 38.5 -107t98.5 -36q86 0 127 73l104 -53q-77 -123 -237 -123q-122 0 -192.5 77t-70.5 199q0 124 67 200.5t188 76.5zM293 443q-53 0 -85 -31.5t-37 -91.5h240q-9 123 -118 123z" />
    <glyph glyph-name="f" unicode="f" horiz-adv-x="350" 
d="M256 713q57 0 113 -18v-96q-48 16 -91 16q-35 0 -50.5 -12t-15.5 -44v-37h134v-94h-134v-428h-128v428h-72v94h72v45q0 66 42 106t130 40z" />
    <glyph glyph-name="g" unicode="g" horiz-adv-x="571" 
d="M553 570v-108q-53 0 -76 -10q26 -38 26 -89q0 -76 -59.5 -122.5t-165.5 -46.5q-54 0 -102 17q-15 -17 -15 -33q0 -22 15 -32.5t52 -10.5h97q109 0 162.5 -43t53.5 -112q0 -76 -68 -120.5t-193 -44.5q-131 0 -190.5 38t-59.5 102q0 67 75 105q-50 31 -50 89q0 53 58 92
q-67 46 -67 124q0 75 59 125t167 50q83 0 138 -30q49 60 143 60zM276 451q-50 0 -76.5 -22.5t-26.5 -61.5q0 -38 26 -60t76 -22t77 21.5t27 60.5q0 40 -26.5 62t-76.5 22zM295 34h-114q-39 -25 -39 -60q0 -33 31 -50t105 -17q135 0 135 66q0 33 -26 47t-92 14z" />
    <glyph glyph-name="h" unicode="h" horiz-adv-x="593" 
d="M195 700v-237q59 77 155 77q86 0 132.5 -53t46.5 -148v-339h-128v306q0 62 -19.5 94t-69.5 32q-51 0 -84 -38.5t-33 -100.5v-293h-128v700h128z" />
    <glyph glyph-name="i" unicode="i" horiz-adv-x="263" 
d="M195 527v-527h-128v527h128zM131 736q33 0 56 -22t23 -54q0 -31 -23.5 -53t-55.5 -22q-31 0 -54.5 22.5t-23.5 52.5q0 32 23.5 54t54.5 22z" />
    <glyph glyph-name="j" unicode="j" horiz-adv-x="263" 
d="M195 527v-546q0 -84 -45.5 -125t-112.5 -41q-41 0 -68 7v96q12 -1 21 -1q45 0 61 19.5t16 81.5v509h128zM131 736q33 0 56 -22t23 -54q0 -31 -23.5 -53t-55.5 -22q-31 0 -54.5 22.5t-23.5 52.5q0 32 23.5 54t54.5 22z" />
    <glyph glyph-name="k" unicode="k" horiz-adv-x="574" 
d="M195 700v-388l215 215h153l-206 -201l212 -326h-149l-150 240l-75 -73v-167h-128v700h128z" />
    <glyph glyph-name="l" unicode="l" horiz-adv-x="283" 
d="M191 700v-546q0 -36 7 -46.5t38 -10.5q10 0 22 1v-97q-29 -8 -67 -8q-128 0 -128 141v566h128z" />
    <glyph glyph-name="m" unicode="m" horiz-adv-x="886" 
d="M652 540q84 0 127.5 -52.5t43.5 -149.5v-338h-128v284q0 80 -16.5 114t-64.5 34q-47 0 -76 -37.5t-29 -98.5v-296h-128v284q0 81 -16 114.5t-65 33.5q-46 0 -75.5 -38t-29.5 -98v-296h-128v527h125v-60q56 73 146 73q108 0 147 -86q55 86 167 86z" />
    <glyph glyph-name="n" unicode="n" horiz-adv-x="593" 
d="M351 540q86 0 132 -52.5t46 -148.5v-339h-128v299q0 67 -19.5 100t-69.5 33q-51 0 -84 -38.5t-33 -100.5v-293h-128v527h125v-68q57 81 159 81z" />
    <glyph glyph-name="o" unicode="o" horiz-adv-x="614" 
d="M307 540q121 0 194.5 -79t73.5 -198q0 -124 -72 -200t-196 -76t-196 77t-72 199q0 123 72.5 200t195.5 77zM307 436q-62 0 -98 -44.5t-36 -126.5q0 -83 35.5 -128.5t98.5 -45.5t98.5 45.5t35.5 128.5q0 82 -36 126.5t-98 44.5z" />
    <glyph glyph-name="p" unicode="p" horiz-adv-x="615" 
d="M343 540q104 0 168 -76.5t64 -197.5t-64 -200t-169 -79q-96 0 -148 66v-218h-127v692h125v-56q55 69 151 69zM314 436q-58 0 -92 -43.5t-34 -127.5q0 -86 35 -130t91 -44q58 0 93 46t35 129q0 80 -33 125t-95 45z" />
    <glyph glyph-name="q" unicode="q" horiz-adv-x="616" 
d="M273 540q99 0 150 -67v54h126v-692h-128v220q-53 -68 -149 -68q-105 0 -169 77t-64 199q0 123 64.5 200t169.5 77zM301 436q-61 0 -95 -45t-34 -127q0 -84 33.5 -128.5t95.5 -44.5q58 0 92 44.5t34 129.5q0 83 -35 127t-91 44z" />
    <glyph glyph-name="r" unicode="r" horiz-adv-x="391" 
d="M335 540q18 0 38 -2v-127q-18 1 -31 1q-69 0 -108 -41t-39 -142v-229h-128v527h125v-86q52 99 143 99z" />
    <glyph glyph-name="s" unicode="s" horiz-adv-x="528" 
d="M268 540q136 0 219 -80l-69 -74q-65 56 -147 56q-92 0 -92 -55q0 -28 25 -40.5t103 -26.5q99 -17 145.5 -55.5t46.5 -111.5q0 -75 -62 -120.5t-173 -45.5q-156 0 -247 91l72 78q69 -69 167 -69q110 0 110 60q0 30 -25.5 45.5t-109.5 29.5q-93 16 -138 54.5t-45 103.5
q0 74 61.5 117t158.5 43z" />
    <glyph glyph-name="t" unicode="t" horiz-adv-x="376" 
d="M215 660v-138h131v-94h-131v-271q0 -34 14 -49.5t49 -15.5q33 0 79 12v-100q-51 -17 -110 -17q-160 0 -160 151v290h-72v94h72v138h128z" />
    <glyph glyph-name="u" unicode="u" horiz-adv-x="587" 
d="M518 527v-527h-125v61q-59 -74 -154 -74q-82 0 -129.5 46.5t-47.5 136.5v357h128v-328q0 -55 20 -78.5t65 -23.5q51 0 83 35t32 94v301h128z" />
    <glyph glyph-name="v" unicode="v" horiz-adv-x="515" 
d="M510 527l-176 -527h-155l-176 527h141l114 -414l117 414h135z" />
    <glyph glyph-name="w" unicode="w" horiz-adv-x="782" 
d="M772 527l-144 -527h-149l-87 388l-93 -388h-148l-143 527h139l82 -398l90 398h142l94 -398l86 398h131z" />
    <glyph glyph-name="x" unicode="x" horiz-adv-x="528" 
d="M501 527l-158 -239l183 -288h-151l-114 202l-112 -202h-148l181 283l-159 244h152l90 -159l91 159h145z" />
    <glyph glyph-name="y" unicode="y" horiz-adv-x="514" 
d="M510 527l-169 -552q-25 -81 -67.5 -120.5t-130.5 -39.5q-37 0 -69 7v93q22 -2 45 -2q54 0 74 18t32 69h-46l-176 527h142l119 -434l109 434h137z" />
    <glyph glyph-name="z" unicode="z" horiz-adv-x="478" 
d="M443 527v-99l-266 -321h273v-107h-431v97l270 326h-243v104h397z" />
    <glyph glyph-name="braceleft" unicode="{" horiz-adv-x="319" 
d="M301 790v-101h-15q-41 0 -53.5 -18t-12.5 -54v-194q0 -52 -29 -80.5t-62 -33.5q33 -5 62 -34t29 -81v-192q0 -36 12.5 -54t53.5 -18h15v-101h-47q-77 0 -120 41t-43 107v199q0 48 -13 67.5t-46 26.5v78q33 7 46 26t13 67v201q0 66 43 107t120 41h47z" />
    <glyph glyph-name="bar" unicode="|" horiz-adv-x="310" 
d="M203 774v-938h-97v938h97z" />
    <glyph glyph-name="braceright" unicode="}" horiz-adv-x="319" 
d="M18 689v101h47q77 0 120 -41t43 -107v-201q0 -48 13 -67t46 -26v-78q-33 -7 -46 -26.5t-13 -67.5v-199q0 -66 -43 -107t-120 -41h-47v101h15q41 0 53.5 18t12.5 54v192q0 52 29 81t62 34q-33 5 -62 33.5t-29 80.5v194q0 36 -12.5 54t-53.5 18h-15z" />
    <glyph glyph-name="asciitilde" unicode="~" 
d="M215 394q38 0 72.5 -15t60 -29.5t43.5 -14.5q47 0 79 55l68 -59q-54 -100 -153 -100q-37 0 -71.5 14.5t-60.5 29t-44 14.5q-47 0 -79 -55l-68 59q54 101 153 101z" />
    <glyph glyph-name="uni00A0" unicode="&#xa0;" horiz-adv-x="247" 
 />
    <glyph glyph-name="exclamdown" unicode="&#xa1;" horiz-adv-x="270" 
d="M135 539q33 0 57.5 -24t24.5 -58q0 -33 -24.5 -57.5t-57.5 -24.5q-34 0 -58.5 24t-24.5 58q0 33 24.5 57.5t58.5 24.5zM184 298l21 -249v-213h-140v213l21 249h98z" />
    <glyph glyph-name="cent" unicode="&#xa2;" 
d="M445 176l100 -36q-26 -64 -77.5 -103.5t-123.5 -47.5v-138h-77v138q-101 13 -157 87.5t-56 186.5q0 113 56 187t157 87v131h77v-130q68 -7 118.5 -43.5t75.5 -94.5l-98 -40q-16 38 -40 59t-63 26v-363q77 11 108 94zM173 265q0 -163 102 -182v361q-102 -20 -102 -179z
" />
    <glyph glyph-name="sterling" unicode="&#xa3;" horiz-adv-x="660" 
d="M374 717q82 0 137 -40.5t78 -107.5l-118 -36q-12 43 -34.5 63t-63.5 20q-43 0 -70 -27.5t-27 -75.5v-140h202v-72h-202v-72q0 -45 -9.5 -72t-37.5 -49h332v-108h-459l-15 97q39 16 52.5 43.5t13.5 86.5v74h-83v72h83v149q0 82 57.5 138.5t163.5 56.5z" />
    <glyph glyph-name="currency" unicode="&#xa4;" horiz-adv-x="631" 
d="M89 578l102 -101q57 32 124 32q70 0 126 -32l100 100l72 -71l-99 -99q34 -55 34 -125q0 -72 -35 -126l100 -99l-72 -71l-101 100q-57 -31 -124 -31q-68 0 -125 31l-102 -101l-71 71l101 101q-35 54 -35 125q0 69 34 124l-100 101zM315 412q-55 0 -85 -34.5t-30 -95.5
t30.5 -95.5t85.5 -34.5t85 34.5t30 95.5t-30.5 95.5t-85.5 34.5z" />
    <glyph glyph-name="yen" unicode="&#xa5;" horiz-adv-x="660" 
d="M637 700l-209 -354h125v-72h-157v-58h157v-72h-157v-144h-132v144h-157v72h157v58h-157v72h124l-208 354h151l158 -305l158 305h147z" />
    <glyph glyph-name="brokenbar" unicode="&#xa6;" horiz-adv-x="310" 
d="M203 774v-369h-97v369h97zM203 205v-369h-97v369h97z" />
    <glyph glyph-name="section" unicode="&#xa7;" 
d="M303 714q131 0 215 -79l-71 -73q-59 54 -141 54q-44 0 -67.5 -14.5t-23.5 -39.5q0 -28 26 -43t100 -28q99 -17 148.5 -56.5t49.5 -109.5q0 -71 -85 -133q58 -41 58 -111q0 -75 -61 -117.5t-158 -42.5q-131 0 -220 84l72 70q62 -56 146 -56q44 0 68.5 14.5t24.5 40.5
q0 28 -25 42.5t-97 27.5q-101 18 -151 57.5t-50 110.5q0 40 20 70.5t64 63.5q-58 39 -58 110q0 75 60 116.5t156 41.5zM225 410q-23 -27 -31 -44.5t-8 -40.5q0 -32 28.5 -53t107.5 -36l52 -10q24 28 32 45.5t8 41.5q0 33 -27.5 53.5t-103.5 33.5q-9 1 -28 4.5t-30 5.5z" />
    <glyph glyph-name="dieresis" unicode="&#xa8;" horiz-adv-x="439" 
d="M106 739q29 0 51.5 -21.5t22.5 -50.5q0 -30 -22 -51.5t-52 -21.5t-52 21.5t-22 51.5q0 29 22.5 50.5t51.5 21.5zM333 739q29 0 51.5 -21.5t22.5 -50.5q0 -30 -22 -51.5t-52 -21.5t-52 21.5t-22 51.5q0 29 22.5 50.5t51.5 21.5z" />
    <glyph glyph-name="copyright" unicode="&#xa9;" horiz-adv-x="900" 
d="M451 717q156 0 262 -106.5t106 -261.5t-106 -260.5t-262 -105.5q-157 0 -264 105.5t-107 260.5t107 261.5t264 106.5zM451 651q-127 0 -212.5 -88.5t-85.5 -213.5t85.5 -212.5t212.5 -87.5q128 0 212 87.5t84 212.5t-84 213.5t-212 88.5zM449 570q131 0 180 -122l-81 -23
q-26 74 -99 74q-51 0 -80 -38.5t-29 -109.5q0 -68 29 -108.5t82 -40.5q77 0 105 81l80 -25q-52 -127 -186 -127q-90 0 -143.5 61.5t-53.5 157.5q0 59 18 103.5t47.5 69t62.5 36t68 11.5z" />
    <glyph glyph-name="ordfeminine" unicode="&#xaa;" horiz-adv-x="430" 
d="M217 717q167 0 167 -125v-195q0 -54 13 -87h-104q-6 13 -12 41q-39 -51 -118 -51q-63 0 -99 34t-36 87q0 57 39 90.5t126 44.5l87 11v18q0 33 -13.5 45.5t-51.5 12.5q-36 0 -52 -12.5t-17 -42.5h-102q1 64 46.5 96.5t126.5 32.5zM279 499l-60 -8q-46 -6 -65.5 -20
t-19.5 -40q0 -49 57 -49q36 0 62 21.5t26 54.5v41z" />
    <glyph glyph-name="guillemotleft" unicode="&#xab;" horiz-adv-x="507" 
d="M178 499l71 -51l-94 -170l94 -170l-71 -51l-143 161v120zM401 499l71 -51l-94 -170l94 -170l-71 -51l-143 161v120z" />
    <glyph glyph-name="logicalnot" unicode="&#xac;" 
d="M509 346v-259h-127v149h-291v110h418z" />
    <glyph glyph-name="uni00AD" unicode="&#xad;" horiz-adv-x="369" 
d="M325 360v-109h-280v109h280z" />
    <glyph glyph-name="registered" unicode="&#xae;" horiz-adv-x="900" 
d="M451 717q156 0 262 -106.5t106 -261.5t-106 -260.5t-262 -105.5q-157 0 -264 105.5t-107 260.5t107 261.5t264 106.5zM451 651q-127 0 -212.5 -88.5t-85.5 -213.5t85.5 -212.5t212.5 -87.5q128 0 212 87.5t84 212.5t-84 213.5t-212 88.5zM301 567h164q74 0 115 -33.5
t41 -93.5q0 -44 -26 -73t-63 -40l101 -171h-95l-89 158h-66v-158h-82v411zM467 500h-84v-121h81q31 0 50.5 15t19.5 46q0 28 -19 44t-48 16z" />
    <glyph glyph-name="macron" unicode="&#xaf;" horiz-adv-x="405" 
d="M375 706v-88h-345v88h345z" />
    <glyph glyph-name="degree" unicode="&#xb0;" horiz-adv-x="516" 
d="M258 714q78 0 135.5 -50.5t57.5 -133.5t-57.5 -133t-135.5 -50q-77 0 -135 51t-58 133q0 83 58 133t135 50zM258 628q-35 0 -60.5 -24.5t-25.5 -72.5t25.5 -72.5t60.5 -24.5t60.5 24.5t25.5 71.5t-25.5 72.5t-60.5 25.5z" />
    <glyph glyph-name="plusminus" unicode="&#xb1;" 
d="M366 517v-154h147v-107h-147v-105h-124v105h-147v107h147v154h124zM505 110v-110h-418v110h418z" />
    <glyph glyph-name="twosuperior" unicode="&#xb2;" horiz-adv-x="400" 
d="M201 762q73 0 116 -35.5t43 -92.5q0 -64 -45 -115.5t-142 -105.5h194v-83h-335v80q122 82 169 129t47 92q0 49 -51 49q-55 0 -57 -71h-107q0 67 43 110t125 43z" />
    <glyph glyph-name="threesuperior" unicode="&#xb3;" horiz-adv-x="400" 
d="M204 762q75 0 117.5 -32.5t42.5 -82.5q0 -37 -23 -61t-62 -32q43 -6 70.5 -31.5t27.5 -69.5q0 -61 -47.5 -97t-128.5 -36q-69 0 -116.5 31t-61.5 88l98 23q14 -59 80 -59q29 0 47.5 14.5t18.5 40.5t-18.5 39.5t-49.5 13.5h-46v77h39q64 0 64 47q0 22 -15.5 33.5
t-40.5 11.5q-56 0 -72 -51l-97 16q14 53 60 85t113 32z" />
    <glyph glyph-name="acute" unicode="&#xb4;" horiz-adv-x="317" 
d="M288 739l-152 -146h-102l94 146h160z" />
    <glyph glyph-name="mu" unicode="&#xb5;" horiz-adv-x="592" 
d="M523 527v-527h-125v56q-44 -69 -123 -69q-53 0 -85 32v-184h-123v692h128v-325q0 -56 20.5 -81t64.5 -25q51 0 83 35.5t32 94.5v301h128z" />
    <glyph glyph-name="paragraph" unicode="&#xb6;" 
d="M538 700v-862h-79v791h-115v-791h-78v470q-91 4 -147 60t-56 135q0 86 59.5 141.5t165.5 55.5h250z" />
    <glyph glyph-name="periodcentered" unicode="&#xb7;" horiz-adv-x="291" 
d="M146 384q35 0 60 -25.5t25 -60.5q0 -34 -25 -59t-60 -25t-60.5 25t-25.5 60t25.5 60t60.5 25z" />
    <glyph glyph-name="cedilla" unicode="&#xb8;" horiz-adv-x="314" 
d="M179 10l-1 -55q50 -4 79 -29t29 -60q0 -49 -38 -76.5t-99 -27.5q-67 0 -119 28l32 62q36 -17 71 -17q52 0 52 33q0 23 -25.5 31t-78.5 8l18 103h80z" />
    <glyph glyph-name="onesuperior" unicode="&#xb9;" horiz-adv-x="400" 
d="M66 330v83h107v193h-108v69h12q60 0 84.5 18.5t30.5 56.5h85v-337h85v-83h-296z" />
    <glyph glyph-name="ordmasculine" unicode="&#xba;" horiz-adv-x="476" 
d="M237 717q93 0 149.5 -59.5t56.5 -149.5q0 -94 -55.5 -151t-150.5 -57q-96 0 -151.5 58t-55.5 150q0 93 56 151t151 58zM237 634q-46 0 -72 -32t-26 -92q0 -61 25.5 -94t72.5 -33q46 0 72 33t26 94q0 60 -26.5 92t-71.5 32z" />
    <glyph glyph-name="guillemotright" unicode="&#xbb;" horiz-adv-x="507" 
d="M330 499l142 -161v-120l-142 -161l-72 51l94 170l-94 170zM107 499l142 -161v-120l-142 -161l-72 51l94 170l-94 170z" />
    <glyph glyph-name="onequarter" unicode="&#xbc;" horiz-adv-x="943" 
d="M783 712l-433 -724h-100l433 724h100zM872 420v-265h56v-83h-56v-72h-102v72h-213v86l180 262h135zM770 318l-113 -163h113v163zM66 280v83h107v193h-108v69h12q60 0 84.5 18.5t30.5 56.5h85v-337h85v-83h-296z" />
    <glyph glyph-name="onehalf" unicode="&#xbd;" horiz-adv-x="993" 
d="M783 712l-433 -724h-100l433 724h100zM794 432q73 0 116 -35.5t43 -92.5q0 -64 -45 -115.5t-142 -105.5h194v-83h-335v80q122 82 169 129t47 92q0 49 -51 49q-55 0 -57 -71h-107q0 67 43 110t125 43zM66 280v83h107v193h-108v69h12q60 0 84.5 18.5t30.5 56.5h85v-337h85
v-83h-296z" />
    <glyph glyph-name="threequarters" unicode="&#xbe;" horiz-adv-x="903" 
d="M743 712l-433 -724h-100l433 724h100zM832 420v-265h56v-83h-56v-72h-102v72h-213v86l180 262h135zM730 318l-113 -163h113v163zM204 712q75 0 117.5 -32.5t42.5 -82.5q0 -37 -23 -61t-62 -32q43 -6 70.5 -31.5t27.5 -69.5q0 -61 -47.5 -97t-128.5 -36q-69 0 -116.5 31
t-61.5 88l98 23q14 -59 80 -59q29 0 47.5 14.5t18.5 40.5t-18.5 39.5t-49.5 13.5h-46v77h39q64 0 64 47q0 22 -15.5 33.5t-40.5 11.5q-56 0 -72 -51l-97 16q14 53 60 85t113 32z" />
    <glyph glyph-name="questiondown" unicode="&#xbf;" horiz-adv-x="528" 
d="M272 539q33 0 57.5 -24t24.5 -58q0 -33 -24.5 -57.5t-57.5 -24.5q-34 0 -58.5 24t-24.5 58q0 33 24.5 57.5t58.5 24.5zM334 306v-38q0 -39 -17.5 -69.5t-42.5 -51t-50.5 -39t-43 -42.5t-17.5 -52q0 -43 26.5 -66t71.5 -23q92 0 129 103l117 -33q-19 -69 -82.5 -123
t-165.5 -54q-115 0 -174 58t-59 131q0 51 19.5 88t47 57.5t55 37.5t47 40.5t19.5 54.5v21h120z" />
    <glyph glyph-name="Agrave" unicode="&#xc0;" horiz-adv-x="636" 
d="M489 0l-35 117h-279l-35 -117h-137l230 700h169l230 -700h-143zM314 595l-108 -370h216zM286 895l96 -142h-105l-157 142h166z" />
    <glyph glyph-name="Aacute" unicode="&#xc1;" horiz-adv-x="636" 
d="M489 0l-35 117h-279l-35 -117h-137l230 700h169l230 -700h-143zM314 595l-108 -370h216zM523 895l-158 -142h-104l95 142h167z" />
    <glyph glyph-name="Acircumflex" unicode="&#xc2;" horiz-adv-x="636" 
d="M489 0l-35 117h-279l-35 -117h-137l230 700h169l230 -700h-143zM314 595l-108 -370h216zM382 894l137 -141h-119l-82 67l-82 -67h-119l137 141h128z" />
    <glyph glyph-name="Atilde" unicode="&#xc3;" horiz-adv-x="636" 
d="M489 0l-35 117h-279l-35 -117h-137l230 700h169l230 -700h-143zM314 595l-108 -370h216zM256 889q41 0 80 -25t49 -25q28 0 44 37h71q-7 -55 -39.5 -89.5t-81.5 -34.5q-32 0 -57.5 12.5t-43 25t-28.5 12.5q-29 0 -45 -37h-70q8 55 40 89.5t81 34.5z" />
    <glyph glyph-name="Adieresis" unicode="&#xc4;" horiz-adv-x="636" 
d="M489 0l-35 117h-279l-35 -117h-137l230 700h169l230 -700h-143zM314 595l-108 -370h216zM205 899q29 0 51.5 -21.5t22.5 -50.5q0 -30 -22 -51.5t-52 -21.5t-52 21.5t-22 51.5q0 29 22.5 50.5t51.5 21.5zM432 899q29 0 51.5 -21.5t22.5 -50.5q0 -30 -22 -51.5t-52 -21.5
t-52 21.5t-22 51.5q0 29 22.5 50.5t51.5 21.5z" />
    <glyph glyph-name="Aring" unicode="&#xc5;" horiz-adv-x="636" 
d="M489 0l-35 117h-279l-35 -117h-137l230 700h169l230 -700h-143zM314 595l-108 -370h216zM318 981q53 0 91 -34.5t38 -88.5t-38 -88.5t-91 -34.5t-91 34.5t-38 88.5t38 88.5t91 34.5zM319 911q-21 0 -35 -14t-14 -39q0 -24 14 -38t35 -14q20 0 34 14t14 38q0 25 -14 39
t-34 14z" />
    <glyph glyph-name="AE" unicode="&#xc6;" horiz-adv-x="946" 
d="M869 700v-112h-344l28 -176h299v-110h-282l31 -190h319v-112h-439l-16 113h-279l-51 -113h-142l334 700h542zM398 588l-165 -366h218z" />
    <glyph glyph-name="Ccedilla" unicode="&#xc7;" horiz-adv-x="724" 
d="M375 717q63 0 117.5 -18t104 -64.5t76.5 -118.5l-130 -36q-48 123 -168 123q-90 0 -142 -66.5t-52 -184.5q0 -120 49.5 -187.5t145.5 -67.5q136 0 184 139l126 -41q-35 -95 -108.5 -148t-170.5 -62v-30q50 -4 79 -29t29 -60q0 -49 -38 -76.5t-99 -27.5q-66 0 -119 28
l32 62q36 -17 71 -17q52 0 52 33q0 23 -25.5 31t-78.5 8l14 79q-55 7 -103 31t-89 66t-64.5 111t-23.5 157q0 94 28 166.5t75.5 115t105 63.5t122.5 21z" />
    <glyph glyph-name="Egrave" unicode="&#xc8;" horiz-adv-x="583" 
d="M529 700v-112h-322v-176h301v-110h-301v-190h331v-112h-464v700h455zM269 895l96 -142h-105l-157 142h166z" />
    <glyph glyph-name="Eacute" unicode="&#xc9;" horiz-adv-x="583" 
d="M529 700v-112h-322v-176h301v-110h-301v-190h331v-112h-464v700h455zM506 895l-158 -142h-104l95 142h167z" />
    <glyph glyph-name="Ecircumflex" unicode="&#xca;" horiz-adv-x="583" 
d="M529 700v-112h-322v-176h301v-110h-301v-190h331v-112h-464v700h455zM365 894l137 -141h-119l-82 67l-82 -67h-119l137 141h128z" />
    <glyph glyph-name="Edieresis" unicode="&#xcb;" horiz-adv-x="583" 
d="M529 700v-112h-322v-176h301v-110h-301v-190h331v-112h-464v700h455zM188 899q29 0 51.5 -21.5t22.5 -50.5q0 -30 -22 -51.5t-52 -21.5t-52 21.5t-22 51.5q0 29 22.5 50.5t51.5 21.5zM415 899q29 0 51.5 -21.5t22.5 -50.5q0 -30 -22 -51.5t-52 -21.5t-52 21.5t-22 51.5
q0 29 22.5 50.5t51.5 21.5z" />
    <glyph glyph-name="Igrave" unicode="&#xcc;" horiz-adv-x="386" 
d="M350 700v-109h-91v-482h91v-109h-315v109h91v482h-91v109h315zM161 895l96 -142h-105l-157 142h166z" />
    <glyph glyph-name="Iacute" unicode="&#xcd;" horiz-adv-x="386" 
d="M350 700v-109h-91v-482h91v-109h-315v109h91v482h-91v109h315zM398 895l-158 -142h-104l95 142h167z" />
    <glyph glyph-name="Icircumflex" unicode="&#xce;" horiz-adv-x="386" 
d="M350 700v-109h-91v-482h91v-109h-315v109h91v482h-91v109h315zM257 894l137 -141h-119l-82 67l-82 -67h-119l137 141h128z" />
    <glyph glyph-name="Idieresis" unicode="&#xcf;" horiz-adv-x="386" 
d="M350 700v-109h-91v-482h91v-109h-315v109h91v482h-91v109h315zM80 899q29 0 51.5 -21.5t22.5 -50.5q0 -30 -22 -51.5t-52 -21.5t-52 21.5t-22 51.5q0 29 22.5 50.5t51.5 21.5zM307 899q29 0 51.5 -21.5t22.5 -50.5q0 -30 -22 -51.5t-52 -21.5t-52 21.5t-22 51.5
q0 29 22.5 50.5t51.5 21.5z" />
    <glyph glyph-name="Eth" unicode="&#xd0;" horiz-adv-x="724" 
d="M98 700h221q75 0 138.5 -19.5t114 -59.5t79.5 -106.5t29 -154.5q0 -80 -20 -143t-52 -103t-76 -66.5t-89.5 -37t-94.5 -10.5h-250v321h-75v89h75v290zM230 113h117q38 0 70 10.5t61.5 36t46.5 76.5t17 123q0 106 -53 167t-166 61h-93v-177h167v-89h-167v-208z" />
    <glyph glyph-name="Ntilde" unicode="&#xd1;" horiz-adv-x="708" 
d="M634 700v-700h-150l-288 488v-488h-122v700h147l290 -501v501h123zM292 889q41 0 80 -25t49 -25q28 0 44 37h71q-7 -55 -39.5 -89.5t-81.5 -34.5q-32 0 -57.5 12.5t-43 25t-28.5 12.5q-29 0 -45 -37h-70q8 55 40 89.5t81 34.5z" />
    <glyph glyph-name="Ograve" unicode="&#xd2;" horiz-adv-x="765" 
d="M382 717q62 0 119 -19.5t108 -60t81.5 -115t30.5 -173.5q0 -94 -28.5 -166t-77 -114.5t-108 -64t-125.5 -21.5q-62 0 -118.5 19.5t-107.5 60.5t-81.5 115.5t-30.5 172.5q0 94 28.5 166.5t77 115t107.5 63.5t125 21zM382 604q-92 0 -146.5 -67.5t-54.5 -184.5
q0 -120 52 -188t149 -68q90 0 145.5 67t55.5 185q0 119 -52 187.5t-149 68.5zM350 895l96 -142h-105l-157 142h166z" />
    <glyph glyph-name="Oacute" unicode="&#xd3;" horiz-adv-x="765" 
d="M382 717q62 0 119 -19.5t108 -60t81.5 -115t30.5 -173.5q0 -94 -28.5 -166t-77 -114.5t-108 -64t-125.5 -21.5q-62 0 -118.5 19.5t-107.5 60.5t-81.5 115.5t-30.5 172.5q0 94 28.5 166.5t77 115t107.5 63.5t125 21zM382 604q-92 0 -146.5 -67.5t-54.5 -184.5
q0 -120 52 -188t149 -68q90 0 145.5 67t55.5 185q0 119 -52 187.5t-149 68.5zM587 895l-158 -142h-104l95 142h167z" />
    <glyph glyph-name="Ocircumflex" unicode="&#xd4;" horiz-adv-x="765" 
d="M382 717q62 0 119 -19.5t108 -60t81.5 -115t30.5 -173.5q0 -94 -28.5 -166t-77 -114.5t-108 -64t-125.5 -21.5q-62 0 -118.5 19.5t-107.5 60.5t-81.5 115.5t-30.5 172.5q0 94 28.5 166.5t77 115t107.5 63.5t125 21zM382 604q-92 0 -146.5 -67.5t-54.5 -184.5
q0 -120 52 -188t149 -68q90 0 145.5 67t55.5 185q0 119 -52 187.5t-149 68.5zM446 894l137 -141h-119l-82 67l-82 -67h-119l137 141h128z" />
    <glyph glyph-name="Otilde" unicode="&#xd5;" horiz-adv-x="765" 
d="M382 717q62 0 119 -19.5t108 -60t81.5 -115t30.5 -173.5q0 -94 -28.5 -166t-77 -114.5t-108 -64t-125.5 -21.5q-62 0 -118.5 19.5t-107.5 60.5t-81.5 115.5t-30.5 172.5q0 94 28.5 166.5t77 115t107.5 63.5t125 21zM382 604q-92 0 -146.5 -67.5t-54.5 -184.5
q0 -120 52 -188t149 -68q90 0 145.5 67t55.5 185q0 119 -52 187.5t-149 68.5zM320 889q41 0 80 -25t49 -25q28 0 44 37h71q-7 -55 -39.5 -89.5t-81.5 -34.5q-32 0 -57.5 12.5t-43 25t-28.5 12.5q-29 0 -45 -37h-70q8 55 40 89.5t81 34.5z" />
    <glyph glyph-name="Odieresis" unicode="&#xd6;" horiz-adv-x="765" 
d="M382 717q62 0 119 -19.5t108 -60t81.5 -115t30.5 -173.5q0 -94 -28.5 -166t-77 -114.5t-108 -64t-125.5 -21.5q-62 0 -118.5 19.5t-107.5 60.5t-81.5 115.5t-30.5 172.5q0 94 28.5 166.5t77 115t107.5 63.5t125 21zM382 604q-92 0 -146.5 -67.5t-54.5 -184.5
q0 -120 52 -188t149 -68q90 0 145.5 67t55.5 185q0 119 -52 187.5t-149 68.5zM269 899q29 0 51.5 -21.5t22.5 -50.5q0 -30 -22 -51.5t-52 -21.5t-52 21.5t-22 51.5q0 29 22.5 50.5t51.5 21.5zM496 899q29 0 51.5 -21.5t22.5 -50.5q0 -30 -22 -51.5t-52 -21.5t-52 21.5
t-22 51.5q0 29 22.5 50.5t51.5 21.5z" />
    <glyph glyph-name="multiply" unicode="&#xd7;" 
d="M444 499l78 -77l-145 -145l145 -144l-78 -77l-144 144l-144 -144l-78 77l145 144l-145 145l78 77l144 -145z" />
    <glyph glyph-name="Oslash" unicode="&#xd8;" horiz-adv-x="765" 
d="M705 759l-83 -134q99 -97 99 -276q0 -94 -28.5 -166t-77 -114.5t-108 -64t-125.5 -21.5q-80 0 -150 32l-65 -105h-108l98 153q-113 99 -113 288q0 94 28.5 166.5t77 115t107.5 63.5t125 21q89 0 165 -38l52 80h106zM382 603q-92 0 -146.5 -67t-54.5 -184q0 -121 49 -186
l261 408q-44 29 -109 29zM382 97q90 0 145.5 66.5t55.5 184.5q0 106 -39 170l-255 -401q40 -20 93 -20z" />
    <glyph glyph-name="Ugrave" unicode="&#xd9;" horiz-adv-x="685" 
d="M620 700v-447q0 -55 -15 -101.5t-46.5 -85.5t-87.5 -61t-130 -22q-76 0 -131.5 22.5t-86 61.5t-45 85.5t-14.5 100.5v447h133v-445q0 -83 35.5 -121t109.5 -38q145 0 145 159v445h133zM311 895l96 -142h-105l-157 142h166z" />
    <glyph glyph-name="Uacute" unicode="&#xda;" horiz-adv-x="685" 
d="M620 700v-447q0 -55 -15 -101.5t-46.5 -85.5t-87.5 -61t-130 -22q-76 0 -131.5 22.5t-86 61.5t-45 85.5t-14.5 100.5v447h133v-445q0 -83 35.5 -121t109.5 -38q145 0 145 159v445h133zM548 895l-158 -142h-104l95 142h167z" />
    <glyph glyph-name="Ucircumflex" unicode="&#xdb;" horiz-adv-x="685" 
d="M620 700v-447q0 -55 -15 -101.5t-46.5 -85.5t-87.5 -61t-130 -22q-76 0 -131.5 22.5t-86 61.5t-45 85.5t-14.5 100.5v447h133v-445q0 -83 35.5 -121t109.5 -38q145 0 145 159v445h133zM407 894l137 -141h-119l-82 67l-82 -67h-119l137 141h128z" />
    <glyph glyph-name="Udieresis" unicode="&#xdc;" horiz-adv-x="685" 
d="M620 700v-447q0 -55 -15 -101.5t-46.5 -85.5t-87.5 -61t-130 -22q-76 0 -131.5 22.5t-86 61.5t-45 85.5t-14.5 100.5v447h133v-445q0 -83 35.5 -121t109.5 -38q145 0 145 159v445h133zM230 899q29 0 51.5 -21.5t22.5 -50.5q0 -30 -22 -51.5t-52 -21.5t-52 21.5t-22 51.5
q0 29 22.5 50.5t51.5 21.5zM457 899q29 0 51.5 -21.5t22.5 -50.5q0 -30 -22 -51.5t-52 -21.5t-52 21.5t-22 51.5q0 29 22.5 50.5t51.5 21.5z" />
    <glyph glyph-name="Yacute" unicode="&#xdd;" horiz-adv-x="614" 
d="M613 700l-241 -421v-279h-132v277l-241 423h150l159 -309l159 309h146zM512 895l-158 -142h-104l95 142h167z" />
    <glyph glyph-name="Thorn" unicode="&#xde;" horiz-adv-x="632" 
d="M207 700v-112h126q134 0 201 -65t67 -167q0 -109 -68 -172.5t-198 -63.5h-128v-120h-133v700h133zM344 476h-137v-247h134q54 0 88 30.5t34 96.5q0 54 -32 87t-87 33z" />
    <glyph glyph-name="germandbls" unicode="&#xdf;" horiz-adv-x="603" 
d="M285 713q101 0 154 -43.5t53 -107.5q0 -32 -15.5 -59t-33.5 -41.5t-33.5 -32t-15.5 -33.5q0 -19 20 -32.5t48.5 -26t56.5 -30t48 -53.5t20 -88q0 -73 -52 -125.5t-152 -52.5q-96 0 -160 54l59 82q38 -32 94 -32q36 0 57 19t21 56q0 29 -19 50t-46 34t-54.5 27.5t-46.5 40
t-19 62.5q0 28 15.5 53t34 39.5t34 35t15.5 41.5q0 33 -24 48t-59 15q-44 0 -67 -26.5t-23 -75.5v-511h-128v509q0 93 57 148.5t161 55.5z" />
    <glyph glyph-name="agrave" unicode="&#xe0;" horiz-adv-x="559" 
d="M280 540q114 0 165 -42t51 -124v-259q0 -71 18 -115h-129q-10 25 -15 55q-54 -68 -157 -68q-83 0 -130.5 45t-47.5 116q0 75 51 119.5t164 58.5l118 15v24q0 47 -19 64.5t-72 17.5q-50 0 -72 -17.5t-23 -58.5h-126q2 84 61 126.5t163 42.5zM368 255l-85 -12
q-63 -8 -90 -27.5t-27 -56.5q0 -69 79 -69q51 0 87 30.5t36 77.5v57zM252 739l94 -146h-102l-152 146h160z" />
    <glyph glyph-name="aacute" unicode="&#xe1;" horiz-adv-x="559" 
d="M280 540q114 0 165 -42t51 -124v-259q0 -71 18 -115h-129q-10 25 -15 55q-54 -68 -157 -68q-83 0 -130.5 45t-47.5 116q0 75 51 119.5t164 58.5l118 15v24q0 47 -19 64.5t-72 17.5q-50 0 -72 -17.5t-23 -58.5h-126q2 84 61 126.5t163 42.5zM368 255l-85 -12
q-63 -8 -90 -27.5t-27 -56.5q0 -69 79 -69q51 0 87 30.5t36 77.5v57zM479 739l-152 -146h-102l94 146h160z" />
    <glyph glyph-name="acircumflex" unicode="&#xe2;" horiz-adv-x="559" 
d="M280 540q114 0 165 -42t51 -124v-259q0 -71 18 -115h-129q-10 25 -15 55q-54 -68 -157 -68q-83 0 -130.5 45t-47.5 116q0 75 51 119.5t164 58.5l118 15v24q0 47 -19 64.5t-72 17.5q-50 0 -72 -17.5t-23 -58.5h-126q2 84 61 126.5t163 42.5zM368 255l-85 -12
q-63 -8 -90 -27.5t-27 -56.5q0 -69 79 -69q51 0 87 30.5t36 77.5v57zM350 739l137 -146h-119l-82 74l-82 -74h-119l137 146h128z" />
    <glyph glyph-name="atilde" unicode="&#xe3;" horiz-adv-x="559" 
d="M280 540q114 0 165 -42t51 -124v-259q0 -71 18 -115h-129q-10 25 -15 55q-54 -68 -157 -68q-83 0 -130.5 45t-47.5 116q0 75 51 119.5t164 58.5l118 15v24q0 47 -19 64.5t-72 17.5q-50 0 -72 -17.5t-23 -58.5h-126q2 84 61 126.5t163 42.5zM368 255l-85 -12
q-63 -8 -90 -27.5t-27 -56.5q0 -69 79 -69q51 0 87 30.5t36 77.5v57zM224 729q41 0 80 -25t49 -25q28 0 44 37h71q-7 -55 -39.5 -89.5t-81.5 -34.5q-32 0 -57.5 12.5t-43 25t-28.5 12.5q-29 0 -45 -37h-70q8 55 40 89.5t81 34.5z" />
    <glyph glyph-name="adieresis" unicode="&#xe4;" horiz-adv-x="559" 
d="M280 540q114 0 165 -42t51 -124v-259q0 -71 18 -115h-129q-10 25 -15 55q-54 -68 -157 -68q-83 0 -130.5 45t-47.5 116q0 75 51 119.5t164 58.5l118 15v24q0 47 -19 64.5t-72 17.5q-50 0 -72 -17.5t-23 -58.5h-126q2 84 61 126.5t163 42.5zM368 255l-85 -12
q-63 -8 -90 -27.5t-27 -56.5q0 -69 79 -69q51 0 87 30.5t36 77.5v57zM173 739q29 0 51.5 -21.5t22.5 -50.5q0 -30 -22 -51.5t-52 -21.5t-52 21.5t-22 51.5q0 29 22.5 50.5t51.5 21.5zM400 739q29 0 51.5 -21.5t22.5 -50.5q0 -30 -22 -51.5t-52 -21.5t-52 21.5t-22 51.5
q0 29 22.5 50.5t51.5 21.5z" />
    <glyph glyph-name="aring" unicode="&#xe5;" horiz-adv-x="559" 
d="M280 540q114 0 165 -42t51 -124v-259q0 -71 18 -115h-129q-10 25 -15 55q-54 -68 -157 -68q-83 0 -130.5 45t-47.5 116q0 75 51 119.5t164 58.5l118 15v24q0 47 -19 64.5t-72 17.5q-50 0 -72 -17.5t-23 -58.5h-126q2 84 61 126.5t163 42.5zM368 255l-85 -12
q-63 -8 -90 -27.5t-27 -56.5q0 -69 79 -69q51 0 87 30.5t36 77.5v57zM286 830q53 0 91 -34.5t38 -88.5t-38 -88.5t-91 -34.5t-91 34.5t-38 88.5t38 88.5t91 34.5zM287 759q-21 0 -35 -14t-14 -38q0 -25 14 -39t35 -14q20 0 34 14t14 39q0 24 -14 38t-34 14z" />
    <glyph glyph-name="ae" unicode="&#xe6;" horiz-adv-x="899" 
d="M616 540q115 0 181 -77.5t66 -203.5v-26h-370q2 -71 37 -107t98 -36q86 0 127 73l104 -53q-77 -123 -236 -123q-134 0 -204 100q-67 -100 -201 -100q-86 0 -134.5 44.5t-48.5 116.5q0 75 51 120t164 58l129 15q3 22 12 46q-10 32 -35.5 46t-77.5 14q-51 0 -73 -17.5
t-23 -58.5h-126q2 84 59.5 126.5t161.5 42.5q54 0 91 -11.5t51.5 -23.5t31.5 -33q23 26 67.5 47t97.5 21zM616 443q-53 0 -85 -31.5t-37 -91.5h240q-9 123 -118 123zM374 255l-94 -12q-60 -8 -87 -27.5t-27 -56.5q0 -69 80 -69q48 0 88.5 27t45.5 60q-6 38 -6 78z" />
    <glyph glyph-name="ccedilla" unicode="&#xe7;" horiz-adv-x="566" 
d="M301 540q84 0 144 -37.5t90 -103.5l-111 -45q-33 82 -116 82q-62 0 -98.5 -44.5t-36.5 -126.5q0 -83 36 -128.5t99 -45.5q87 0 124 96l111 -46q-62 -138 -209 -152v-34q50 -4 79 -29t29 -60q0 -49 -38 -76.5t-99 -27.5q-67 0 -119 28l32 62q36 -17 71 -17q52 0 52 33
q0 23 -25.5 31t-78.5 8l14 84q-100 15 -156 89.5t-56 182.5q0 122 71.5 199.5t190.5 77.5z" />
    <glyph glyph-name="egrave" unicode="&#xe8;" horiz-adv-x="579" 
d="M294 540q116 0 182.5 -77.5t66.5 -203.5v-26h-372q3 -71 38.5 -107t98.5 -36q86 0 127 73l104 -53q-77 -123 -237 -123q-122 0 -192.5 77t-70.5 199q0 124 67 200.5t188 76.5zM293 443q-53 0 -85 -31.5t-37 -91.5h240q-9 123 -118 123zM259 739l94 -146h-102l-152 146
h160z" />
    <glyph glyph-name="eacute" unicode="&#xe9;" horiz-adv-x="579" 
d="M294 540q116 0 182.5 -77.5t66.5 -203.5v-26h-372q3 -71 38.5 -107t98.5 -36q86 0 127 73l104 -53q-77 -123 -237 -123q-122 0 -192.5 77t-70.5 199q0 124 67 200.5t188 76.5zM293 443q-53 0 -85 -31.5t-37 -91.5h240q-9 123 -118 123zM486 739l-152 -146h-102l94 146
h160z" />
    <glyph glyph-name="ecircumflex" unicode="&#xea;" horiz-adv-x="579" 
d="M294 540q116 0 182.5 -77.5t66.5 -203.5v-26h-372q3 -71 38.5 -107t98.5 -36q86 0 127 73l104 -53q-77 -123 -237 -123q-122 0 -192.5 77t-70.5 199q0 124 67 200.5t188 76.5zM293 443q-53 0 -85 -31.5t-37 -91.5h240q-9 123 -118 123zM357 739l137 -146h-119l-82 74
l-82 -74h-119l137 146h128z" />
    <glyph glyph-name="edieresis" unicode="&#xeb;" horiz-adv-x="579" 
d="M294 540q116 0 182.5 -77.5t66.5 -203.5v-26h-372q3 -71 38.5 -107t98.5 -36q86 0 127 73l104 -53q-77 -123 -237 -123q-122 0 -192.5 77t-70.5 199q0 124 67 200.5t188 76.5zM293 443q-53 0 -85 -31.5t-37 -91.5h240q-9 123 -118 123zM180 739q29 0 51.5 -21.5
t22.5 -50.5q0 -30 -22 -51.5t-52 -21.5t-52 21.5t-22 51.5q0 29 22.5 50.5t51.5 21.5zM407 739q29 0 51.5 -21.5t22.5 -50.5q0 -30 -22 -51.5t-52 -21.5t-52 21.5t-22 51.5q0 29 22.5 50.5t51.5 21.5z" />
    <glyph glyph-name="igrave" unicode="&#xec;" horiz-adv-x="263" 
d="M195 527v-527h-128v527h128zM98 739l94 -146h-102l-152 146h160z" />
    <glyph glyph-name="iacute" unicode="&#xed;" horiz-adv-x="263" 
d="M195 527v-527h-128v527h128zM325 739l-152 -146h-102l94 146h160z" />
    <glyph glyph-name="icircumflex" unicode="&#xee;" horiz-adv-x="263" 
d="M195 527v-527h-128v527h128zM196 739l137 -146h-119l-82 74l-82 -74h-119l137 146h128z" />
    <glyph glyph-name="idieresis" unicode="&#xef;" horiz-adv-x="263" 
d="M195 527v-527h-128v527h128zM19 739q29 0 51.5 -21.5t22.5 -50.5q0 -30 -22 -51.5t-52 -21.5t-52 21.5t-22 51.5q0 29 22.5 50.5t51.5 21.5zM246 739q29 0 51.5 -21.5t22.5 -50.5q0 -30 -22 -51.5t-52 -21.5t-52 21.5t-22 51.5q0 29 22.5 50.5t51.5 21.5z" />
    <glyph glyph-name="eth" unicode="&#xf0;" horiz-adv-x="598" 
d="M435 758l-59 -93q183 -88 183 -350q0 -167 -72.5 -249.5t-192.5 -82.5q-115 0 -185 65.5t-70 176.5q0 108 64.5 171t159.5 63q117 0 169 -83q-6 144 -111 203l-42 -66h-95l61 94q-50 12 -120 14l21 94q88 -5 154 -22l42 65h93zM296 87q55 0 88 36.5t33 100.5
q0 60 -33.5 96t-90.5 36q-61 0 -92 -37t-31 -95q0 -65 34.5 -101t91.5 -36z" />
    <glyph glyph-name="ntilde" unicode="&#xf1;" horiz-adv-x="593" 
d="M351 540q86 0 132 -52.5t46 -148.5v-339h-128v299q0 67 -19.5 100t-69.5 33q-51 0 -84 -38.5t-33 -100.5v-293h-128v527h125v-68q57 81 159 81zM256 729q41 0 80 -25t49 -25q28 0 44 37h71q-7 -55 -39.5 -89.5t-81.5 -34.5q-32 0 -57.5 12.5t-43 25t-28.5 12.5
q-29 0 -45 -37h-70q8 55 40 89.5t81 34.5z" />
    <glyph glyph-name="ograve" unicode="&#xf2;" horiz-adv-x="614" 
d="M307 540q121 0 194.5 -79t73.5 -198q0 -124 -72 -200t-196 -76t-196 77t-72 199q0 123 72.5 200t195.5 77zM307 436q-62 0 -98 -44.5t-36 -126.5q0 -83 35.5 -128.5t98.5 -45.5t98.5 45.5t35.5 128.5q0 82 -36 126.5t-98 44.5zM273 739l94 -146h-102l-152 146h160z" />
    <glyph glyph-name="oacute" unicode="&#xf3;" horiz-adv-x="614" 
d="M307 540q121 0 194.5 -79t73.5 -198q0 -124 -72 -200t-196 -76t-196 77t-72 199q0 123 72.5 200t195.5 77zM307 436q-62 0 -98 -44.5t-36 -126.5q0 -83 35.5 -128.5t98.5 -45.5t98.5 45.5t35.5 128.5q0 82 -36 126.5t-98 44.5zM500 739l-152 -146h-102l94 146h160z" />
    <glyph glyph-name="ocircumflex" unicode="&#xf4;" horiz-adv-x="614" 
d="M307 540q121 0 194.5 -79t73.5 -198q0 -124 -72 -200t-196 -76t-196 77t-72 199q0 123 72.5 200t195.5 77zM307 436q-62 0 -98 -44.5t-36 -126.5q0 -83 35.5 -128.5t98.5 -45.5t98.5 45.5t35.5 128.5q0 82 -36 126.5t-98 44.5zM371 739l137 -146h-119l-82 74l-82 -74
h-119l137 146h128z" />
    <glyph glyph-name="otilde" unicode="&#xf5;" horiz-adv-x="614" 
d="M307 540q121 0 194.5 -79t73.5 -198q0 -124 -72 -200t-196 -76t-196 77t-72 199q0 123 72.5 200t195.5 77zM307 436q-62 0 -98 -44.5t-36 -126.5q0 -83 35.5 -128.5t98.5 -45.5t98.5 45.5t35.5 128.5q0 82 -36 126.5t-98 44.5zM245 729q41 0 80 -25t49 -25q28 0 44 37h71
q-7 -55 -39.5 -89.5t-81.5 -34.5q-32 0 -57.5 12.5t-43 25t-28.5 12.5q-29 0 -45 -37h-70q8 55 40 89.5t81 34.5z" />
    <glyph glyph-name="odieresis" unicode="&#xf6;" horiz-adv-x="614" 
d="M307 540q121 0 194.5 -79t73.5 -198q0 -124 -72 -200t-196 -76t-196 77t-72 199q0 123 72.5 200t195.5 77zM307 436q-62 0 -98 -44.5t-36 -126.5q0 -83 35.5 -128.5t98.5 -45.5t98.5 45.5t35.5 128.5q0 82 -36 126.5t-98 44.5zM194 739q29 0 51.5 -21.5t22.5 -50.5
q0 -30 -22 -51.5t-52 -21.5t-52 21.5t-22 51.5q0 29 22.5 50.5t51.5 21.5zM421 739q29 0 51.5 -21.5t22.5 -50.5q0 -30 -22 -51.5t-52 -21.5t-52 21.5t-22 51.5q0 29 22.5 50.5t51.5 21.5z" />
    <glyph glyph-name="divide" unicode="&#xf7;" 
d="M301 573q34 0 58.5 -25t24.5 -59t-24.5 -58t-58.5 -24t-58.5 24.5t-24.5 58.5t24.5 58.5t58.5 24.5zM509 352v-110h-418v110h418zM301 187q34 0 58.5 -25t24.5 -59t-24.5 -58t-58.5 -24t-58.5 24.5t-24.5 58.5t24.5 58.5t58.5 24.5z" />
    <glyph glyph-name="oslash" unicode="&#xf8;" horiz-adv-x="614" 
d="M564 601l-75 -130q86 -81 86 -208q0 -124 -72 -200t-196 -76q-57 0 -104 18l-50 -85h-103l78 128q-89 78 -89 215q0 123 72.5 200t195.5 77q55 0 108 -21l49 82h100zM307 436q-62 0 -98.5 -44.5t-36.5 -126.5q0 -75 27 -117l166 276q-25 12 -58 12zM418 373l-165 -272
q27 -10 54 -10q63 0 98.5 45.5t35.5 128.5q0 67 -23 108z" />
    <glyph glyph-name="ugrave" unicode="&#xf9;" horiz-adv-x="587" 
d="M518 527v-527h-125v61q-59 -74 -154 -74q-82 0 -129.5 46.5t-47.5 136.5v357h128v-328q0 -55 20 -78.5t65 -23.5q51 0 83 35t32 94v301h128zM257 739l94 -146h-102l-152 146h160z" />
    <glyph glyph-name="uacute" unicode="&#xfa;" horiz-adv-x="587" 
d="M518 527v-527h-125v61q-59 -74 -154 -74q-82 0 -129.5 46.5t-47.5 136.5v357h128v-328q0 -55 20 -78.5t65 -23.5q51 0 83 35t32 94v301h128zM484 739l-152 -146h-102l94 146h160z" />
    <glyph glyph-name="ucircumflex" unicode="&#xfb;" horiz-adv-x="587" 
d="M518 527v-527h-125v61q-59 -74 -154 -74q-82 0 -129.5 46.5t-47.5 136.5v357h128v-328q0 -55 20 -78.5t65 -23.5q51 0 83 35t32 94v301h128zM355 739l137 -146h-119l-82 74l-82 -74h-119l137 146h128z" />
    <glyph glyph-name="udieresis" unicode="&#xfc;" horiz-adv-x="587" 
d="M518 527v-527h-125v61q-59 -74 -154 -74q-82 0 -129.5 46.5t-47.5 136.5v357h128v-328q0 -55 20 -78.5t65 -23.5q51 0 83 35t32 94v301h128zM178 739q29 0 51.5 -21.5t22.5 -50.5q0 -30 -22 -51.5t-52 -21.5t-52 21.5t-22 51.5q0 29 22.5 50.5t51.5 21.5zM405 739
q29 0 51.5 -21.5t22.5 -50.5q0 -30 -22 -51.5t-52 -21.5t-52 21.5t-22 51.5q0 29 22.5 50.5t51.5 21.5z" />
    <glyph glyph-name="yacute" unicode="&#xfd;" horiz-adv-x="514" 
d="M510 527l-169 -552q-25 -81 -67.5 -120.5t-130.5 -39.5q-37 0 -69 7v93q22 -2 45 -2q54 0 74 18t32 69h-46l-176 527h142l119 -434l109 434h137zM451 739l-152 -146h-102l94 146h160z" />
    <glyph glyph-name="thorn" unicode="&#xfe;" horiz-adv-x="617" 
d="M195 700v-227q53 67 151 67q103 0 167 -76.5t64 -200.5q0 -118 -64.5 -197t-166.5 -79q-100 0 -151 65v-217h-128v865h128zM314 436q-58 0 -92 -44.5t-34 -129.5q0 -83 35.5 -127t90.5 -44q58 0 93.5 46t35.5 125q0 84 -33 129t-96 45z" />
    <glyph glyph-name="ydieresis" unicode="&#xff;" horiz-adv-x="514" 
d="M510 527l-169 -552q-25 -81 -67.5 -120.5t-130.5 -39.5q-37 0 -69 7v93q22 -2 45 -2q54 0 74 18t32 69h-46l-176 527h142l119 -434l109 434h137zM145 739q29 0 51.5 -21.5t22.5 -50.5q0 -30 -22 -51.5t-52 -21.5t-52 21.5t-22 51.5q0 29 22.5 50.5t51.5 21.5zM372 739
q29 0 51.5 -21.5t22.5 -50.5q0 -30 -22 -51.5t-52 -21.5t-52 21.5t-22 51.5q0 29 22.5 50.5t51.5 21.5z" />
    <glyph glyph-name="dotlessi" unicode="&#x131;" horiz-adv-x="263" 
d="M195 527v-527h-128v527h128z" />
    <glyph glyph-name="IJ" unicode="&#x132;" horiz-adv-x="804" 
d="M350 700v-109h-91v-482h91v-109h-315v109h91v482h-91v109h315zM739 700v-485q0 -107 -48.5 -164t-166.5 -57q-50 0 -101 6v113q36 -2 55 -2q76 0 102 24t26 91v474h133z" />
    <glyph glyph-name="ij" unicode="&#x133;" horiz-adv-x="542" 
d="M474 527v-546q0 -84 -45.5 -125t-112.5 -41q-41 0 -68 7v96q12 -1 21 -1q45 0 61 19.5t16 81.5v509h128zM410 736q33 0 56 -22t23 -54q0 -31 -23.5 -53t-55.5 -22q-31 0 -54.5 22.5t-23.5 52.5q0 32 23.5 54t54.5 22zM195 527v-527h-128v527h128zM131 736q33 0 56 -22
t23 -54q0 -31 -23.5 -53t-55.5 -22q-31 0 -54.5 22.5t-23.5 52.5q0 32 23.5 54t54.5 22z" />
    <glyph glyph-name="Lslash" unicode="&#x141;" horiz-adv-x="564" 
d="M231 116h307v-116h-440v266l-75 -40v96l75 40v338h133v-267l169 91v-96l-169 -91v-221z" />
    <glyph glyph-name="lslash" unicode="&#x142;" horiz-adv-x="294" 
d="M278 372l-77 -42v-176q0 -36 7 -46.5t38 -10.5q10 0 22 1v-97q-29 -8 -67 -8q-128 0 -128 141v125l-56 -31v93l56 31v348h128v-277l77 42v-93z" />
    <glyph glyph-name="OE" unicode="&#x152;" horiz-adv-x="980" 
d="M382 717q67 0 124 -17h419v-112h-312v-177h291v-108h-291v-191h321v-112h-432q-55 -17 -120 -17q-62 0 -118.5 19.5t-107.5 60.5t-81.5 115.5t-30.5 172.5q0 94 28.5 166.5t77 115t107.5 63.5t125 21zM382 606q-91 0 -146 -68t-55 -186q0 -120 52 -189t149 -69
q59 0 98 20v474q-41 18 -98 18z" />
    <glyph glyph-name="oe" unicode="&#x153;" horiz-adv-x="981" 
d="M702 540q113 0 178 -76.5t65 -200.5v-31h-371q7 -143 136 -143q86 0 128 72l103 -52q-77 -122 -236 -122q-138 0 -202 104q-69 -104 -199 -104q-123 0 -194 77t-71 199q0 123 72 200t194 77q135 0 201 -105q65 105 196 105zM695 442q-105 0 -120 -119h238
q-15 119 -118 119zM305 436q-62 0 -97 -44t-35 -127q0 -84 34.5 -129t97.5 -45q64 0 100 45.5t36 128.5q0 82 -37 126.5t-99 44.5z" />
    <glyph glyph-name="Scaron" unicode="&#x160;" horiz-adv-x="650" 
d="M325 -17q-92 0 -172 33t-133 98l89 80q90 -98 219 -98q66 0 107.5 25.5t41.5 70.5q0 48 -36 72.5t-149 43.5q-121 21 -179 70.5t-58 136.5q0 92 73 147t191 55q185 0 286 -125l-94 -74q-71 87 -191 87q-61 0 -95.5 -23t-34.5 -64q0 -40 35 -61.5t143 -40.5
q129 -22 188 -73t59 -143q0 -100 -76.5 -158.5t-213.5 -58.5zM525 904l-137 -141h-128l-137 141h119l82 -67l82 67h119z" />
    <glyph glyph-name="scaron" unicode="&#x161;" horiz-adv-x="528" 
d="M268 540q136 0 219 -80l-69 -74q-65 56 -147 56q-92 0 -92 -55q0 -28 25 -40.5t103 -26.5q99 -17 145.5 -55.5t46.5 -111.5q0 -75 -62 -120.5t-173 -45.5q-156 0 -247 91l72 78q69 -69 167 -69q110 0 110 60q0 30 -25.5 45.5t-109.5 29.5q-93 16 -138 54.5t-45 103.5
q0 74 61.5 117t158.5 43zM470 749l-137 -146h-128l-137 146h119l82 -74l82 74h119z" />
    <glyph glyph-name="Ydieresis" unicode="&#x178;" horiz-adv-x="614" 
d="M613 700l-241 -421v-279h-132v277l-241 423h150l159 -309l159 309h146zM194 899q29 0 51.5 -21.5t22.5 -50.5q0 -30 -22 -51.5t-52 -21.5t-52 21.5t-22 51.5q0 29 22.5 50.5t51.5 21.5zM421 899q29 0 51.5 -21.5t22.5 -50.5q0 -30 -22 -51.5t-52 -21.5t-52 21.5t-22 51.5
q0 29 22.5 50.5t51.5 21.5z" />
    <glyph glyph-name="Zcaron" unicode="&#x17d;" horiz-adv-x="603" 
d="M561 700v-107l-369 -480h378v-113h-546v103l373 487h-347v110h511zM500 904l-137 -141h-128l-137 141h119l82 -67l82 67h119z" />
    <glyph glyph-name="zcaron" unicode="&#x17e;" horiz-adv-x="478" 
d="M443 527v-99l-266 -321h273v-107h-431v97l270 326h-243v104h397zM438 749l-137 -146h-128l-137 146h119l82 -74l82 74h119z" />
    <glyph glyph-name="longs" unicode="&#x17f;" horiz-adv-x="344" 
d="M259 713q45 0 91 -14v-93q-36 9 -69 9q-35 0 -50.5 -12t-15.5 -44v-559h-128v428h-72v94h72v51q0 62 42.5 101t129.5 39z" />
    <glyph glyph-name="florin" unicode="&#x192;" horiz-adv-x="316" 
d="M230 714q53 0 113 -18v-96q-48 16 -91 16q-35 0 -50.5 -12t-15.5 -44v-37h134v-94h-134v-445q0 -84 -45.5 -125t-112.5 -41q-41 0 -68 7v96q12 -1 21 -1q45 0 61 19.5t16 81.5v408h-72v94h72v54q0 61 42.5 99t129.5 38z" />
    <glyph glyph-name="uni02BB" unicode="&#x2bb;" horiz-adv-x="292" 
d="M152 478q-36 0 -59.5 24t-23.5 60q0 117 107 229l63 -34q-38 -63 -45 -134q40 -26 40 -68q0 -32 -23.5 -54.5t-58.5 -22.5z" />
    <glyph glyph-name="uni02BC" unicode="&#x2bc;" horiz-adv-x="291" 
d="M140 757q36 0 59.5 -24t23.5 -60q0 -117 -107 -229l-63 34q38 63 45 134q-40 26 -40 68q0 32 23.5 54.5t58.5 22.5z" />
    <glyph glyph-name="circumflex" unicode="&#x2c6;" horiz-adv-x="462" 
d="M295 739l137 -146h-119l-82 74l-82 -74h-119l137 146h128z" />
    <glyph glyph-name="caron" unicode="&#x2c7;" horiz-adv-x="462" 
d="M432 749l-137 -146h-128l-137 146h119l82 -74l82 74h119z" />
    <glyph glyph-name="breve" unicode="&#x2d8;" horiz-adv-x="395" 
d="M291 740h74q-9 -70 -52.5 -110t-114.5 -40q-70 0 -114 40t-54 110h75q6 -31 32 -47t61 -16q34 0 60 16t33 47z" />
    <glyph glyph-name="dotaccent" unicode="&#x2d9;" horiz-adv-x="217" 
d="M109 736q33 0 56 -22t23 -54q0 -31 -23.5 -53t-55.5 -22q-31 0 -54.5 22.5t-23.5 52.5q0 32 23.5 54t54.5 22z" />
    <glyph glyph-name="ring" unicode="&#x2da;" horiz-adv-x="318" 
d="M159 830q53 0 91 -34.5t38 -88.5t-38 -88.5t-91 -34.5t-91 34.5t-38 88.5t38 88.5t91 34.5zM160 759q-21 0 -35 -14t-14 -38q0 -25 14 -39t35 -14q20 0 34 14t14 39q0 24 -14 38t-34 14z" />
    <glyph glyph-name="ogonek" unicode="&#x2db;" horiz-adv-x="303" 
d="M195 22l18 -22q-86 -50 -86 -115q0 -46 57 -46q29 0 64 13l24 -66q-49 -23 -107 -23q-65 0 -101.5 28.5t-36.5 80.5q0 48 45.5 88.5t122.5 61.5z" />
    <glyph glyph-name="tilde" unicode="&#x2dc;" horiz-adv-x="425" 
d="M151 729q41 0 80 -25t49 -25q28 0 44 37h71q-7 -55 -39.5 -89.5t-81.5 -34.5q-32 0 -57.5 12.5t-43 25t-28.5 12.5q-29 0 -45 -37h-70q8 55 40 89.5t81 34.5z" />
    <glyph glyph-name="hungarumlaut" unicode="&#x2dd;" horiz-adv-x="483" 
d="M259 746l-135 -153h-94l82 153h147zM453 746l-142 -153h-94l89 153h147z" />
    <glyph glyph-name="gravecomb" unicode="&#x300;" horiz-adv-x="1" 
d="M-129 739l94 -146h-102l-152 146h160z" />
    <glyph glyph-name="acutecomb" unicode="&#x301;" horiz-adv-x="1" 
d="M-29 739l-152 -146h-102l94 146h160z" />
    <glyph glyph-name="uni0302" unicode="&#x302;" horiz-adv-x="1" 
d="M-167 739l137 -146h-119l-82 74l-82 -74h-119l137 146h128z" />
    <glyph glyph-name="tildecomb" unicode="&#x303;" horiz-adv-x="1" 
d="M-274 729q41 0 80 -25t49 -25q28 0 44 37h71q-7 -55 -39.5 -89.5t-81.5 -34.5q-32 0 -57.5 12.5t-43 25t-28.5 12.5q-29 0 -45 -37h-70q8 55 40 89.5t81 34.5z" />
    <glyph glyph-name="uni0304" unicode="&#x304;" horiz-adv-x="1" 
d="M-30 706v-88h-345v88h345z" />
    <glyph glyph-name="uni0306" unicode="&#x306;" horiz-adv-x="1" 
d="M-104 740h74q-9 -70 -52.5 -110t-114.5 -40q-70 0 -114 40t-54 110h75q6 -31 32 -47t61 -16q34 0 60 16t33 47z" />
    <glyph glyph-name="uni0307" unicode="&#x307;" horiz-adv-x="1" 
d="M-108 736q33 0 56 -22t23 -54q0 -31 -23.5 -53t-55.5 -22q-31 0 -54.5 22.5t-23.5 52.5q0 32 23.5 54t54.5 22z" />
    <glyph glyph-name="uni0308" unicode="&#x308;" horiz-adv-x="1" 
d="M-333 739q29 0 51.5 -21.5t22.5 -50.5q0 -30 -22 -51.5t-52 -21.5t-52 21.5t-22 51.5q0 29 22.5 50.5t51.5 21.5zM-106 739q29 0 51.5 -21.5t22.5 -50.5q0 -30 -22 -51.5t-52 -21.5t-52 21.5t-22 51.5q0 29 22.5 50.5t51.5 21.5z" />
    <glyph glyph-name="uni030A" unicode="&#x30a;" horiz-adv-x="1" 
d="M-159 830q53 0 91 -34.5t38 -88.5t-38 -88.5t-91 -34.5t-91 34.5t-38 88.5t38 88.5t91 34.5zM-158 759q-21 0 -35 -14t-14 -38q0 -25 14 -39t35 -14q20 0 34 14t14 39q0 24 -14 38t-34 14z" />
    <glyph glyph-name="uni030B" unicode="&#x30b;" horiz-adv-x="1" 
d="M-224 746l-135 -153h-94l82 153h147zM-30 746l-142 -153h-94l89 153h147z" />
    <glyph glyph-name="uni030C" unicode="&#x30c;" horiz-adv-x="1" 
d="M-30 749l-137 -146h-128l-137 146h119l82 -74l82 74h119z" />
    <glyph glyph-name="uni0326" unicode="&#x326;" horiz-adv-x="1" 
d="M-98 -63q30 0 49 -20t19 -49q0 -82 -82 -178l-57 22q30 52 36 103q-34 22 -34 58q0 27 20 45.5t49 18.5z" />
    <glyph glyph-name="uni0327" unicode="&#x327;" horiz-adv-x="1" 
d="M-135 10l-1 -55q50 -4 79 -29t29 -60q0 -49 -38 -76.5t-99 -27.5q-67 0 -119 28l32 62q36 -17 71 -17q52 0 52 33q0 23 -25.5 31t-78.5 8l18 103h80z" />
    <glyph glyph-name="uni0328" unicode="&#x328;" horiz-adv-x="1" 
d="M-108 22l18 -22q-86 -50 -86 -115q0 -46 57 -46q29 0 64 13l24 -66q-49 -23 -107 -23q-65 0 -101.5 28.5t-36.5 80.5q0 48 45.5 88.5t122.5 61.5z" />
    <glyph glyph-name="uni0394" unicode="&#x394;" horiz-adv-x="636" 
d="M403 700l229 -700h-628l229 700h170zM172 109h285l-142 484z" />
    <glyph glyph-name="uni03A9" unicode="&#x3a9;" horiz-adv-x="765" 
d="M382 717q50 0 96.5 -11.5t91 -38.5t77.5 -67t53.5 -103t20.5 -141q0 -172 -110 -246h105v-110h-260v110q63 22 95 88t32 156q0 118 -52.5 183.5t-148.5 65.5q-92 0 -146.5 -64.5t-54.5 -181.5q0 -91 32.5 -158t95.5 -89v-110h-260v110h108q-113 75 -113 247
q0 93 28.5 164.5t77 113t107.5 62t125 20.5z" />
    <glyph glyph-name="uni03BC" unicode="&#x3bc;" horiz-adv-x="592" 
d="M523 527v-527h-125v56q-44 -69 -123 -69q-53 0 -85 32v-184h-123v692h128v-325q0 -56 20.5 -81t64.5 -25q51 0 83 35.5t32 94.5v301h128z" />
    <glyph glyph-name="pi" unicode="&#x3c0;" horiz-adv-x="644" 
d="M606 527v-103h-79v-424h-126v424h-160v-424h-125v424h-79v103h569z" />
    <glyph glyph-name="uni1E9E" unicode="&#x1e9e;" horiz-adv-x="700" 
d="M432 -19q-102 0 -182 42l42 95q52 -29 127 -29q46 0 82 27.5t36 81.5t-37 82t-135 47v85l130 151q-62 45 -148 45q-73 0 -111.5 -38t-38.5 -126v-444h-133v454q0 126 75.5 195t207.5 69q178 0 298 -133l-153 -182q182 -51 182 -206q0 -94 -67 -155t-175 -61z" />
    <glyph glyph-name="uni2007" unicode="&#x2007;" horiz-adv-x="627" 
 />
    <glyph glyph-name="uni2008" unicode="&#x2008;" horiz-adv-x="291" 
 />
    <glyph glyph-name="uni200B" unicode="&#x200b;" horiz-adv-x="0" 
 />
    <glyph glyph-name="figuredash" unicode="&#x2012;" 
d="M562 328v-110h-523v110h523z" />
    <glyph glyph-name="endash" unicode="&#x2013;" horiz-adv-x="539" 
d="M494 360v-109h-449v109h449z" />
    <glyph glyph-name="emdash" unicode="&#x2014;" horiz-adv-x="649" 
d="M605 360v-109h-560v109h560z" />
    <glyph glyph-name="quoteleft" unicode="&#x2018;" horiz-adv-x="292" 
d="M152 478q-36 0 -59.5 24t-23.5 60q0 117 107 229l63 -34q-38 -63 -45 -134q40 -26 40 -68q0 -32 -23.5 -54.5t-58.5 -22.5z" />
    <glyph glyph-name="quoteright" unicode="&#x2019;" horiz-adv-x="291" 
d="M140 757q36 0 59.5 -24t23.5 -60q0 -117 -107 -229l-63 34q38 63 45 134q-40 26 -40 68q0 32 23.5 54.5t58.5 22.5z" />
    <glyph glyph-name="quotesinglbase" unicode="&#x201a;" horiz-adv-x="291" 
d="M140 149q36 0 59.5 -24t23.5 -60q0 -117 -107 -229l-63 34q38 63 45 134q-40 26 -40 68q0 32 23.5 54.5t58.5 22.5z" />
    <glyph glyph-name="quotedblleft" unicode="&#x201c;" horiz-adv-x="499" 
d="M359 478q-36 0 -59.5 24t-23.5 60q0 117 107 229l63 -34q-38 -63 -45 -134q40 -26 40 -68q0 -32 -23.5 -54.5t-58.5 -22.5zM152 478q-36 0 -59.5 24t-23.5 60q0 117 107 229l63 -34q-38 -63 -45 -134q40 -26 40 -68q0 -32 -23.5 -54.5t-58.5 -22.5z" />
    <glyph glyph-name="quotedblright" unicode="&#x201d;" horiz-adv-x="498" 
d="M140 756q36 0 59.5 -24t23.5 -60q0 -117 -107 -229l-63 34q38 63 45 134q-40 26 -40 68q0 32 23.5 54.5t58.5 22.5zM347 756q36 0 59.5 -24t23.5 -60q0 -117 -107 -229l-63 34q38 63 45 134q-40 26 -40 68q0 32 23.5 54.5t58.5 22.5z" />
    <glyph glyph-name="quotedblbase" unicode="&#x201e;" horiz-adv-x="498" 
d="M140 149q36 0 59.5 -24t23.5 -60q0 -117 -107 -229l-63 34q38 63 45 134q-40 26 -40 68q0 32 23.5 54.5t58.5 22.5zM347 149q36 0 59.5 -24t23.5 -60q0 -117 -107 -229l-63 34q38 63 45 134q-40 26 -40 68q0 32 23.5 54.5t58.5 22.5z" />
    <glyph glyph-name="dagger" unicode="&#x2020;" horiz-adv-x="631" 
d="M377 700v-173h164v-105h-164v-586h-125v586h-164v105h164v173h125z" />
    <glyph glyph-name="daggerdbl" unicode="&#x2021;" horiz-adv-x="631" 
d="M377 700v-204h164v-105h-164v-239h164v-104h-164v-212h-125v212h-164v104h164v239h-164v105h164v204h125z" />
    <glyph glyph-name="bullet" unicode="&#x2022;" horiz-adv-x="348" 
d="M175 406q46 0 80 -34t34 -81q0 -46 -34 -79t-80 -33q-47 0 -81.5 33.5t-34.5 79.5q0 47 34.5 80.5t81.5 33.5z" />
    <glyph glyph-name="uni2023" unicode="&#x2023;" horiz-adv-x="369" 
d="M298 293l-229 -115v229z" />
    <glyph glyph-name="ellipsis" unicode="&#x2026;" horiz-adv-x="867" 
d="M138 142q31 0 54 -23t23 -55t-22.5 -54.5t-54.5 -22.5t-55 23t-23 54q0 32 23 55t55 23zM433 142q31 0 54 -23t23 -55t-23 -54.5t-54 -22.5q-32 0 -55 23t-23 54q0 32 23 55t55 23zM730 142q31 0 54 -23t23 -55t-22.5 -54.5t-54.5 -22.5t-55 23t-23 54q0 32 23 55t55 23z
" />
    <glyph glyph-name="perthousand" unicode="&#x2030;" horiz-adv-x="1443" 
d="M227 716q83 0 137.5 -59t54.5 -171q0 -115 -54 -172.5t-138 -57.5t-138 57.5t-54 172.5q0 112 54 171t138 59zM775 712l-433 -724h-100l433 724h100zM228 635q-91 0 -91 -147q0 -151 91 -151q90 0 90 149t-90 149zM796 447q83 0 137.5 -59t54.5 -172q0 -115 -54 -173
t-138 -58t-138 58t-54 173q0 113 54 172t138 59zM1215 447q84 0 138.5 -59t54.5 -172q0 -115 -54.5 -173t-138.5 -58t-137.5 58t-53.5 173q0 113 54 172t137 59zM796 364q-91 0 -91 -147q0 -149 91 -149q90 0 90 148t-90 148zM1215 364q-90 0 -90 -147q0 -149 90 -149
q91 0 91 148t-91 148z" />
    <glyph glyph-name="guilsinglleft" unicode="&#x2039;" horiz-adv-x="284" 
d="M178 499l71 -51l-94 -170l94 -170l-71 -51l-143 161v120z" />
    <glyph glyph-name="guilsinglright" unicode="&#x203a;" horiz-adv-x="284" 
d="M107 499l142 -161v-120l-142 -161l-72 51l94 170l-94 170z" />
    <glyph glyph-name="uni203D" unicode="&#x203d;" horiz-adv-x="528" 
d="M265 714q118 0 177.5 -58t59.5 -131q0 -50 -18.5 -86t-45.5 -57t-54 -39t-45.5 -42t-18.5 -55v-27h-109l-19 271v102q-41 -24 -62 -88l-109 33q22 69 84 123t160 54zM312 490l-10 -98q6 6 20.5 21.5t21 23.5t16 21.5t13 28t3.5 31.5q0 67 -64 85v-113zM265 152
q34 0 58.5 -25t24.5 -59t-24.5 -58t-58.5 -24t-59 24.5t-25 58.5t24.5 58.5t59.5 24.5z" />
    <glyph glyph-name="fraction" unicode="&#x2044;" horiz-adv-x="253" 
d="M393 712l-433 -724h-100l433 724h100z" />
    <glyph glyph-name="uni2070" unicode="&#x2070;" horiz-adv-x="400" 
d="M200 762q83 0 130 -56t47 -164q0 -110 -46.5 -166t-130.5 -56q-83 0 -129.5 56t-46.5 166q0 108 46 164t130 56zM199 679q-37 0 -53 -33t-16 -104t16 -105t53 -34q70 0 70 139q0 71 -16.5 104t-53.5 33z" />
    <glyph glyph-name="uni2074" unicode="&#x2074;" horiz-adv-x="400" 
d="M329 750v-265h56v-83h-56v-72h-102v72h-213v86l180 262h135zM227 648l-113 -163h113v163z" />
    <glyph glyph-name="uni2075" unicode="&#x2075;" horiz-adv-x="400" 
d="M354 750l-13 -82h-186l-12 -81q37 32 94 32q58 0 100 -39t42 -103q0 -70 -48.5 -113.5t-136.5 -43.5q-68 0 -112 29t-60 75l94 29q19 -52 80 -52q35 0 54.5 20.5t19.5 49.5q0 30 -19 47t-52 17q-44 0 -71 -32l-91 14l34 233h283z" />
    <glyph glyph-name="uni2076" unicode="&#x2076;" horiz-adv-x="400" 
d="M213 762q111 0 152 -88l-89 -30q-16 38 -63 38q-78 0 -88 -121q35 50 109 50q59 0 101 -36.5t42 -100.5q0 -73 -48.5 -113.5t-123.5 -40.5q-82 0 -132 48t-50 156q0 113 51.5 175.5t138.5 62.5zM205 531q-28 0 -46.5 -17.5t-18.5 -46.5t18 -47.5t45 -18.5t45 17.5
t18 48.5q0 29 -16 46.5t-45 17.5z" />
    <glyph glyph-name="uni2077" unicode="&#x2077;" horiz-adv-x="400" 
d="M367 750v-83q-69 -82 -102 -154.5t-46 -182.5h-114q16 121 55 194.5t107 141.5h-143v-48h-90v132h333z" />
    <glyph glyph-name="uni2078" unicode="&#x2078;" horiz-adv-x="400" 
d="M198 320q-93 0 -139.5 37.5t-46.5 86.5q0 76 82 105q-58 36 -58 96q0 48 41.5 82.5t120.5 34.5t121.5 -33t42.5 -77q0 -27 -18 -52.5t-49 -39.5q53 -19 72.5 -43t19.5 -65q0 -53 -45 -92.5t-144 -39.5zM198 593l23 -7q38 24 38 57q0 43 -59 43q-28 0 -43.5 -11.5
t-15.5 -31.5q0 -19 12.5 -29.5t44.5 -20.5zM198 401q40 0 59.5 14.5t19.5 34.5q0 23 -16 34.5t-64 25.5l-34 10q-42 -30 -42 -67q0 -24 20.5 -38t56.5 -14z" />
    <glyph glyph-name="uni2079" unicode="&#x2079;" horiz-adv-x="400" 
d="M185 317q-56 0 -96.5 24t-60.5 63l86 35q21 -42 73 -42q81 0 85 123q-36 -49 -107 -49q-59 0 -100.5 37.5t-41.5 103.5q0 69 49 109t124 40q82 0 131.5 -48.5t49.5 -153.5q0 -117 -49 -179.5t-143 -62.5zM196 553q30 0 47.5 17.5t17.5 47.5q0 29 -17 45.5t-45 16.5
q-29 0 -47.5 -17t-18.5 -48q0 -28 16.5 -45t46.5 -17z" />
    <glyph glyph-name="uni207A" unicode="&#x207a;" horiz-adv-x="377" 
d="M233 660v-96h96v-78h-96v-96h-89v96h-97v78h97v96h89z" />
    <glyph glyph-name="uni207B" unicode="&#x207b;" horiz-adv-x="377" 
d="M329 564v-78h-282v78h282z" />
    <glyph glyph-name="uni207C" unicode="&#x207c;" horiz-adv-x="377" 
d="M329 634v-79h-282v79h282zM329 496v-79h-282v79h282z" />
    <glyph glyph-name="uni2080" unicode="&#x2080;" horiz-adv-x="400" 
d="M200 267q83 0 130 -56t47 -164q0 -110 -46.5 -166t-130.5 -56q-83 0 -129.5 56t-46.5 166q0 108 46 164t130 56zM199 184q-37 0 -53 -33t-16 -104t16 -105t53 -34q70 0 70 139q0 71 -16.5 104t-53.5 33z" />
    <glyph glyph-name="uni2081" unicode="&#x2081;" horiz-adv-x="400" 
d="M66 -165v83h107v193h-108v69h12q60 0 84.5 18.5t30.5 56.5h85v-337h85v-83h-296z" />
    <glyph glyph-name="uni2082" unicode="&#x2082;" horiz-adv-x="400" 
d="M201 267q73 0 116 -35.5t43 -92.5q0 -64 -45 -115.5t-142 -105.5h194v-83h-335v80q122 82 169 129.5t47 91.5q0 49 -51 49q-55 0 -57 -71h-107q0 67 43 110t125 43z" />
    <glyph glyph-name="uni2083" unicode="&#x2083;" horiz-adv-x="400" 
d="M204 267q75 0 117.5 -32.5t42.5 -82.5q0 -37 -23 -61t-62 -32q43 -6 70.5 -31.5t27.5 -69.5q0 -61 -47.5 -97t-128.5 -36q-69 0 -116.5 31t-61.5 88l98 23q14 -59 80 -59q29 0 47.5 14.5t18.5 40.5t-18.5 39.5t-49.5 13.5h-46v77h39q64 0 64 47q0 22 -15.5 33.5
t-40.5 11.5q-56 0 -72 -51l-97 16q14 53 60 85t113 32z" />
    <glyph glyph-name="uni2084" unicode="&#x2084;" horiz-adv-x="400" 
d="M329 255v-265h56v-83h-56v-72h-102v72h-213v86l180 262h135zM227 153l-113 -163h113v163z" />
    <glyph glyph-name="uni2085" unicode="&#x2085;" horiz-adv-x="400" 
d="M354 255l-13 -82h-186l-12 -81q37 32 94 32q58 0 100 -39t42 -103q0 -70 -48.5 -113.5t-136.5 -43.5q-68 0 -112 29t-60 75l94 29q19 -52 80 -52q35 0 54.5 20.5t19.5 49.5q0 30 -19 47t-52 17q-44 0 -71 -32l-91 14l34 233h283z" />
    <glyph glyph-name="uni2086" unicode="&#x2086;" horiz-adv-x="400" 
d="M213 267q111 0 152 -88l-89 -30q-16 38 -63 38q-78 0 -88 -121q35 50 109 50q59 0 101 -36.5t42 -100.5q0 -73 -48.5 -113.5t-123.5 -40.5q-82 0 -132 48t-50 156q0 113 51.5 175.5t138.5 62.5zM205 36q-28 0 -46.5 -17.5t-18.5 -46.5t18 -47.5t45 -18.5t45 17.5t18 48.5
q0 29 -16 46.5t-45 17.5z" />
    <glyph glyph-name="uni2087" unicode="&#x2087;" horiz-adv-x="400" 
d="M367 255v-83q-69 -82 -102 -154.5t-46 -182.5h-114q16 121 55 194.5t107 141.5h-143v-48h-90v132h333z" />
    <glyph glyph-name="uni2088" unicode="&#x2088;" horiz-adv-x="400" 
d="M198 -175q-93 0 -139.5 37.5t-46.5 86.5q0 76 82 105q-58 36 -58 96q0 48 41.5 82.5t120.5 34.5t121.5 -33t42.5 -77q0 -27 -18 -52.5t-49 -39.5q53 -19 72.5 -43t19.5 -65q0 -53 -45 -92.5t-144 -39.5zM198 98l23 -7q38 24 38 57q0 43 -59 43q-28 0 -43.5 -11.5
t-15.5 -31.5q0 -19 12.5 -29.5t44.5 -20.5zM198 -94q40 0 59.5 14.5t19.5 34.5q0 23 -16.5 34.5t-63.5 25.5l-34 10q-42 -30 -42 -67q0 -24 20.5 -38t56.5 -14z" />
    <glyph glyph-name="uni2089" unicode="&#x2089;" horiz-adv-x="400" 
d="M185 -178q-56 0 -96.5 24t-60.5 63l86 35q21 -42 73 -42q81 0 85 123q-36 -49 -107 -49q-59 0 -100.5 37.5t-41.5 103.5q0 69 49 109t124 40q82 0 131.5 -48.5t49.5 -153.5q0 -117 -49 -179.5t-143 -62.5zM196 58q30 0 47.5 17.5t17.5 47.5q0 29 -17 45.5t-45 16.5
q-29 0 -47.5 -17t-18.5 -48q0 -28 16.5 -45t46.5 -17z" />
    <glyph glyph-name="uni208A" unicode="&#x208a;" horiz-adv-x="377" 
d="M233 170v-96h96v-78h-96v-96h-89v96h-97v78h97v96h89z" />
    <glyph glyph-name="uni208B" unicode="&#x208b;" horiz-adv-x="377" 
d="M329 74v-78h-282v78h282z" />
    <glyph glyph-name="uni208C" unicode="&#x208c;" horiz-adv-x="377" 
d="M329 137v-79h-282v79h282zM329 -1v-79h-282v79h282z" />
    <glyph glyph-name="uni208D" unicode="&#x208d;" horiz-adv-x="300" 
d="M166 294h72q-41 -73 -55.5 -126t-14.5 -121t14.5 -121t55.5 -125h-72q-90 116 -90 246q0 129 90 247z" />
    <glyph glyph-name="uni208E" unicode="&#x208e;" horiz-adv-x="300" 
d="M77 294h72q90 -118 90 -247q0 -130 -90 -246h-72q41 72 55.5 125t14.5 121t-14.5 121t-55.5 126z" />
    <glyph glyph-name="Euro" unicode="&#x20ac;" horiz-adv-x="660" 
d="M415 717q122 0 204 -75l-41 -110q-70 76 -158 76q-133 0 -165 -156h293l-25 -72h-277q-2 -44 0 -65h254l-25 -72h-222q12 -75 49.5 -112.5t113.5 -37.5q86 0 164 66v-125q-81 -51 -175 -51q-243 0 -282 260h-101l25 72h70q-2 32 0 65h-88l25 72h70q23 131 102 198t189 67
z" />
    <glyph glyph-name="uni20B9" unicode="&#x20b9;" 
d="M540 700v-75h-132q46 -39 57 -106h75v-72h-76q-14 -78 -81 -122.5t-149 -44.5h-18l268 -280h-154l-266 278v96h136q101 0 123 73h-259v72h265q-7 50 -41.5 78t-92.5 28h-131v75h476z" />
    <glyph glyph-name="uni20BA" unicode="&#x20ba;" 
d="M434 228h106q-6 -102 -78.5 -171.5t-199.5 -69.5q-73 0 -122 13v316l-81 -43v72l81 43v71l-81 -43v72l81 43v169h128v-101l177 94v-72l-177 -94v-70l177 94v-72l-177 -94v-290q12 -2 23 -2q63 0 98 37t45 98z" />
    <glyph glyph-name="uni20BD" unicode="&#x20bd;" 
d="M326 266h-129v-60h212v-72h-212v-134h-133v134h-53v72h53v60h-53v104h53v330h259q130 0 195.5 -59.5t65.5 -156.5q0 -103 -66 -160.5t-192 -57.5zM197 588v-218h130q120 0 120 113q0 51 -31 78t-86 27h-133z" />
    <glyph glyph-name="uni2105" unicode="&#x2105;" horiz-adv-x="900" 
d="M707 712l-433 -724h-100l433 724h100zM226 684q99 0 139 -84l-67 -28q-21 46 -70 46q-37 0 -58.5 -26t-21.5 -73q0 -48 21.5 -74.5t58.5 -26.5q52 0 75 55l67 -28q-43 -93 -144 -93q-76 0 -119 46t-43 121q0 73 44 119t118 46zM672 324q75 0 119.5 -47t44.5 -118
q0 -76 -43.5 -121.5t-120.5 -45.5q-76 0 -119.5 46.5t-43.5 120.5q0 73 44 119t119 46zM672 258q-37 0 -58.5 -26t-21.5 -73q0 -48 21 -74.5t59 -26.5t59 26.5t21 74.5q0 47 -21.5 73t-58.5 26z" />
    <glyph glyph-name="uni2113" unicode="&#x2113;" 
d="M370 -18q-86 0 -126 45.5t-40 116.5v56l-55 -59l-36 64l90 95v257q0 78 41 119.5t112 41.5q61 0 94.5 -32.5t33.5 -86.5q0 -70 -36 -139.5t-117 -173.5v-117q0 -83 74 -83q31 0 70 12v-96q-50 -20 -105 -20zM331 558v-153q64 110 64 179q0 53 -29 53q-35 0 -35 -79z" />
    <glyph glyph-name="uni2116" unicode="&#x2116;" horiz-adv-x="1200" 
d="M937 370q-76 0 -119.5 46.5t-43.5 120.5q0 73 44 119t119 46t119.5 -47t44.5 -118q0 -76 -43.5 -121.5t-120.5 -45.5zM697 700v-700h-150l-288 488v-488h-122v700h147l290 -501v501h123zM938 436q38 0 59 26.5t21 74.5q0 47 -21.5 73.5t-58.5 26.5t-58.5 -26t-21.5 -74
t21 -74.5t59 -26.5zM789 227v78h302v-78h-302z" />
    <glyph glyph-name="uni2117" unicode="&#x2117;" horiz-adv-x="900" 
d="M451 -17q-157 0 -264 105.5t-107 260.5t107 261.5t264 106.5q156 0 262 -106.5t106 -261.5t-106 -260.5t-262 -105.5zM451 49q128 0 212 87.5t84 212.5t-84 213.5t-212 88.5t-213 -88.5t-85 -213.5t84.5 -212.5t213.5 -87.5zM317 146v411h164q73 0 114.5 -33.5
t41.5 -93.5q0 -57 -40.5 -93.5t-118.5 -36.5h-79v-154h-82zM399 365h81q70 0 70 66q0 28 -19 43.5t-48 15.5h-84v-125z" />
    <glyph glyph-name="uni2120" unicode="&#x2120;" horiz-adv-x="1200" 
d="M311 711q117 0 189 -74l-67 -54q-43 48 -122 48q-35 0 -55.5 -12t-20.5 -31t21.5 -31t87.5 -25q87 -17 125 -48t38 -88q0 -63 -50.5 -99.5t-140.5 -36.5q-135 0 -207 82l70 58q56 -61 139 -61q39 0 64.5 13.5t25.5 36.5t-22 35t-93 26q-80 15 -120 47t-40 86
q0 57 49.5 92.5t128.5 35.5zM1050 700l28 -435h-100l-18 318l-87 -318h-109l-86 316l-17 -316h-98l26 435h147l84 -325l84 325h146z" />
    <glyph glyph-name="trademark" unicode="&#x2122;" horiz-adv-x="1000" 
d="M414 700v-87h-134v-348h-104v348h-135v87h373zM921 700l27 -435h-100l-17 318l-88 -318h-108l-86 316l-17 -316h-99l27 435h147l84 -325l83 325h147z" />
    <glyph glyph-name="Omega" unicode="&#x2126;" horiz-adv-x="781" 
d="M390 717q50 0 96.5 -11.5t91 -38.5t77.5 -67t53.5 -103t20.5 -141q0 -172 -110 -246h105v-110h-260v110q63 22 95 88t32 156q0 118 -52.5 183.5t-148.5 65.5q-92 0 -146.5 -64.5t-54.5 -181.5q0 -91 32.5 -158t95.5 -89v-110h-260v110h108q-113 75 -113 247
q0 93 28.5 164.5t77 113t107.5 62t125 20.5z" />
    <glyph glyph-name="estimated" unicode="&#x212e;" horiz-adv-x="945" 
d="M472 716q165 0 284 -107t119 -270h-657v-218q30 -45 104 -71t151 -26q75 0 147.5 25.5t112.5 72.5h58q-117 -138 -319 -138q-172 0 -287 103t-115 260q0 156 117.5 262.5t284.5 106.5zM473 676q-173 0 -255 -101v-196h509v196q-93 101 -254 101z" />
    <glyph glyph-name="uni2150" unicode="&#x2150;" horiz-adv-x="1023" 
d="M783 712l-433 -724h-100l433 724h100zM990 420v-83q-69 -82 -102 -154.5t-46 -182.5h-114q16 121 55 194.5t107 141.5h-143v-48h-90v132h333zM66 280v83h107v193h-108v69h12q60 0 84.5 18.5t30.5 56.5h85v-337h85v-83h-296z" />
    <glyph glyph-name="uni2151" unicode="&#x2151;" horiz-adv-x="993" 
d="M783 712l-433 -724h-100l433 724h100zM778 -12q-56 0 -96.5 24t-60.5 63l86 35q21 -42 73 -42q81 0 85 123q-36 -49 -107 -49q-59 0 -100.5 37.5t-41.5 103.5q0 69 49 109t124 40q82 0 131.5 -48.5t49.5 -153.5q0 -117 -49 -179.5t-143 -62.5zM789 224q30 0 47.5 17.5
t17.5 47.5q0 29 -17 45.5t-45 16.5q-29 0 -47.5 -17t-18.5 -48q0 -28 16.5 -45t46.5 -17zM66 280v83h107v193h-108v69h12q60 0 84.5 18.5t30.5 56.5h85v-337h85v-83h-296z" />
    <glyph glyph-name="uni2152" unicode="&#x2152;" horiz-adv-x="1383" 
d="M783 712l-433 -724h-100l433 724h100zM649 0v83h107v193h-108v69h12q60 0 84.5 18.5t30.5 56.5h85v-337h85v-83h-296zM1183 432q83 0 130 -56t47 -164q0 -110 -46.5 -166t-130.5 -56q-83 0 -129.5 56t-46.5 166q0 108 46 164t130 56zM1182 349q-37 0 -53 -33t-16 -104
t16 -105t53 -34q70 0 70 139q0 71 -16.5 104t-53.5 33zM66 280v83h107v193h-108v69h12q60 0 84.5 18.5t30.5 56.5h85v-337h85v-83h-296z" />
    <glyph glyph-name="onethird" unicode="&#x2153;" horiz-adv-x="993" 
d="M783 712l-433 -724h-100l433 724h100zM797 432q75 0 117.5 -32.5t42.5 -82.5q0 -37 -23 -61t-62 -32q43 -6 70.5 -31.5t27.5 -69.5q0 -61 -47.5 -97t-128.5 -36q-69 0 -116.5 31t-61.5 88l98 23q14 -59 80 -59q29 0 47.5 14.5t18.5 40.5t-18.5 39.5t-49.5 13.5h-46v77h39
q64 0 64 47q0 22 -15.5 33.5t-40.5 11.5q-56 0 -72 -51l-97 16q14 53 60 85t113 32zM66 280v83h107v193h-108v69h12q60 0 84.5 18.5t30.5 56.5h85v-337h85v-83h-296z" />
    <glyph glyph-name="twothirds" unicode="&#x2154;" horiz-adv-x="993" 
d="M783 712l-433 -724h-100l433 724h100zM797 432q75 0 117.5 -32.5t42.5 -82.5q0 -37 -23 -61t-62 -32q43 -6 70.5 -31.5t27.5 -69.5q0 -61 -47.5 -97t-128.5 -36q-69 0 -116.5 31t-61.5 88l98 23q14 -59 80 -59q29 0 47.5 14.5t18.5 40.5t-18.5 39.5t-49.5 13.5h-46v77h39
q64 0 64 47q0 22 -15.5 33.5t-40.5 11.5q-56 0 -72 -51l-97 16q14 53 60 85t113 32zM201 712q73 0 116 -35.5t43 -92.5q0 -64 -45 -115.5t-142 -105.5h194v-83h-335v80q122 82 169 129t47 92q0 49 -51 49q-55 0 -57 -71h-107q0 67 43 110t125 43z" />
    <glyph glyph-name="uni2155" unicode="&#x2155;" horiz-adv-x="1003" 
d="M783 712l-433 -724h-100l433 724h100zM957 420l-13 -82h-186l-12 -81q37 32 94 32q58 0 100 -39t42 -103q0 -70 -48.5 -113.5t-136.5 -43.5q-68 0 -112 29t-60 75l94 29q19 -52 80 -52q35 0 54.5 20.5t19.5 49.5q0 30 -19 47t-52 17q-44 0 -71 -32l-91 14l34 233h283z
M66 280v83h107v193h-108v69h12q60 0 84.5 18.5t30.5 56.5h85v-337h85v-83h-296z" />
    <glyph glyph-name="uni2156" unicode="&#x2156;" horiz-adv-x="1003" 
d="M783 712l-433 -724h-100l433 724h100zM957 420l-13 -82h-186l-12 -81q37 32 94 32q58 0 100 -39t42 -103q0 -70 -48.5 -113.5t-136.5 -43.5q-68 0 -112 29t-60 75l94 29q19 -52 80 -52q35 0 54.5 20.5t19.5 49.5q0 30 -19 47t-52 17q-44 0 -71 -32l-91 14l34 233h283z
M201 712q73 0 116 -35.5t43 -92.5q0 -64 -45 -115.5t-142 -105.5h194v-83h-335v80q122 82 169 129t47 92q0 49 -51 49q-55 0 -57 -71h-107q0 67 43 110t125 43z" />
    <glyph glyph-name="uni2157" unicode="&#x2157;" horiz-adv-x="963" 
d="M743 712l-433 -724h-100l433 724h100zM917 420l-13 -82h-186l-12 -81q37 32 94 32q58 0 100 -39t42 -103q0 -70 -48.5 -113.5t-136.5 -43.5q-68 0 -112 29t-60 75l94 29q19 -52 80 -52q35 0 54.5 20.5t19.5 49.5q0 30 -19 47t-52 17q-44 0 -71 -32l-91 14l34 233h283z
M204 712q75 0 117.5 -32.5t42.5 -82.5q0 -37 -23 -61t-62 -32q43 -6 70.5 -31.5t27.5 -69.5q0 -61 -47.5 -97t-128.5 -36q-69 0 -116.5 31t-61.5 88l98 23q14 -59 80 -59q29 0 47.5 14.5t18.5 40.5t-18.5 39.5t-49.5 13.5h-46v77h39q64 0 64 47q0 22 -15.5 33.5t-40.5 11.5
q-56 0 -72 -51l-97 16q14 53 60 85t113 32z" />
    <glyph glyph-name="uni2158" unicode="&#x2158;" horiz-adv-x="993" 
d="M773 712l-433 -724h-100l433 724h100zM947 420l-13 -82h-186l-12 -81q37 32 94 32q58 0 100 -39t42 -103q0 -70 -48.5 -113.5t-136.5 -43.5q-68 0 -112 29t-60 75l94 29q19 -52 80 -52q35 0 54.5 20.5t19.5 49.5q0 30 -19 47t-52 17q-44 0 -71 -32l-91 14l34 233h283z
M329 700v-265h56v-83h-56v-72h-102v72h-213v86l180 262h135zM227 598l-113 -163h113v163z" />
    <glyph glyph-name="uni2159" unicode="&#x2159;" horiz-adv-x="983" 
d="M783 712l-433 -724h-100l433 724h100zM796 432q111 0 152 -88l-89 -30q-16 38 -63 38q-78 0 -88 -121q35 50 109 50q59 0 101 -36.5t42 -100.5q0 -73 -48.5 -113.5t-123.5 -40.5q-82 0 -132 48t-50 156q0 113 51.5 175.5t138.5 62.5zM788 201q-28 0 -46.5 -17.5
t-18.5 -46.5t18 -47.5t45 -18.5t45 17.5t18 48.5q0 29 -16 46.5t-45 17.5zM66 280v83h107v193h-108v69h12q60 0 84.5 18.5t30.5 56.5h85v-337h85v-83h-296z" />
    <glyph glyph-name="uni215A" unicode="&#x215a;" horiz-adv-x="943" 
d="M743 712l-433 -724h-100l433 724h100zM756 432q111 0 152 -88l-89 -30q-16 38 -63 38q-78 0 -88 -121q35 50 109 50q59 0 101 -36.5t42 -100.5q0 -73 -48.5 -113.5t-123.5 -40.5q-82 0 -132 48t-50 156q0 113 51.5 175.5t138.5 62.5zM748 201q-28 0 -46.5 -17.5
t-18.5 -46.5t18 -47.5t45 -18.5t45 17.5t18 48.5q0 29 -16 46.5t-45 17.5zM354 700l-13 -82h-186l-12 -81q37 32 94 32q58 0 100 -39t42 -103q0 -70 -48.5 -113.5t-136.5 -43.5q-68 0 -112 29t-60 75l94 29q19 -52 80 -52q35 0 54.5 20.5t19.5 49.5q0 30 -19 47t-52 17
q-44 0 -71 -32l-91 14l34 233h283z" />
    <glyph glyph-name="oneeighth" unicode="&#x215b;" horiz-adv-x="993" 
d="M783 712l-433 -724h-100l433 724h100zM791 -10q-93 0 -139.5 37.5t-46.5 86.5q0 76 82 105q-58 36 -58 96q0 48 41.5 82.5t120.5 34.5t121.5 -33t42.5 -77q0 -27 -18 -52.5t-49 -39.5q53 -19 72.5 -43t19.5 -65q0 -53 -45 -92.5t-144 -39.5zM791 263l23 -7q38 24 38 57
q0 43 -59 43q-28 0 -43.5 -11.5t-15.5 -31.5q0 -19 12.5 -29.5t44.5 -20.5zM791 71q40 0 59.5 14.5t19.5 34.5q0 23 -16 34.5t-64 25.5l-34 10q-42 -30 -42 -67q0 -24 20.5 -38t56.5 -14zM66 280v83h107v193h-108v69h12q60 0 84.5 18.5t30.5 56.5h85v-337h85v-83h-296z" />
    <glyph glyph-name="threeeighths" unicode="&#x215c;" horiz-adv-x="953" 
d="M743 712l-433 -724h-100l433 724h100zM751 -10q-93 0 -139.5 37.5t-46.5 86.5q0 76 82 105q-58 36 -58 96q0 48 41.5 82.5t120.5 34.5t121.5 -33t42.5 -77q0 -27 -18 -52.5t-49 -39.5q53 -19 72.5 -43t19.5 -65q0 -53 -45 -92.5t-144 -39.5zM751 263l23 -7q38 24 38 57
q0 43 -59 43q-28 0 -43.5 -11.5t-15.5 -31.5q0 -19 12.5 -29.5t44.5 -20.5zM751 71q40 0 59.5 14.5t19.5 34.5q0 23 -16 34.5t-64 25.5l-34 10q-42 -30 -42 -67q0 -24 20.5 -38t56.5 -14zM204 712q75 0 117.5 -32.5t42.5 -82.5q0 -37 -23 -61t-62 -32q43 -6 70.5 -31.5
t27.5 -69.5q0 -61 -47.5 -97t-128.5 -36q-69 0 -116.5 31t-61.5 88l98 23q14 -59 80 -59q29 0 47.5 14.5t18.5 40.5t-18.5 39.5t-49.5 13.5h-46v77h39q64 0 64 47q0 22 -15.5 33.5t-40.5 11.5q-56 0 -72 -51l-97 16q14 53 60 85t113 32z" />
    <glyph glyph-name="fiveeighths" unicode="&#x215d;" horiz-adv-x="953" 
d="M743 712l-433 -724h-100l433 724h100zM751 -10q-93 0 -139.5 37.5t-46.5 86.5q0 76 82 105q-58 36 -58 96q0 48 41.5 82.5t120.5 34.5t121.5 -33t42.5 -77q0 -27 -18 -52.5t-49 -39.5q53 -19 72.5 -43t19.5 -65q0 -53 -45 -92.5t-144 -39.5zM751 263l23 -7q38 24 38 57
q0 43 -59 43q-28 0 -43.5 -11.5t-15.5 -31.5q0 -19 12.5 -29.5t44.5 -20.5zM751 71q40 0 59.5 14.5t19.5 34.5q0 23 -16 34.5t-64 25.5l-34 10q-42 -30 -42 -67q0 -24 20.5 -38t56.5 -14zM354 700l-13 -82h-186l-12 -81q37 32 94 32q58 0 100 -39t42 -103
q0 -70 -48.5 -113.5t-136.5 -43.5q-68 0 -112 29t-60 75l94 29q19 -52 80 -52q35 0 54.5 20.5t19.5 49.5q0 30 -19 47t-52 17q-44 0 -71 -32l-91 14l34 233h283z" />
    <glyph glyph-name="seveneighths" unicode="&#x215e;" horiz-adv-x="903" 
d="M693 712l-433 -724h-100l433 724h100zM701 -10q-93 0 -139.5 37.5t-46.5 86.5q0 76 82 105q-58 36 -58 96q0 48 41.5 82.5t120.5 34.5t121.5 -33t42.5 -77q0 -27 -18 -52.5t-49 -39.5q53 -19 72.5 -43t19.5 -65q0 -53 -45 -92.5t-144 -39.5zM701 263l23 -7q38 24 38 57
q0 43 -59 43q-28 0 -43.5 -11.5t-15.5 -31.5q0 -19 12.5 -29.5t44.5 -20.5zM701 71q40 0 59.5 14.5t19.5 34.5q0 23 -16 34.5t-64 25.5l-34 10q-42 -30 -42 -67q0 -24 20.5 -38t56.5 -14zM367 700v-83q-69 -82 -102 -154.5t-46 -182.5h-114q16 121 55 194.5t107 141.5h-143
v-48h-90v132h333z" />
    <glyph glyph-name="uni215F" unicode="&#x215f;" horiz-adv-x="643" 
d="M783 712l-433 -724h-100l433 724h100zM66 280v83h107v193h-108v69h12q60 0 84.5 18.5t30.5 56.5h85v-337h85v-83h-296z" />
    <glyph glyph-name="uni2189" unicode="&#x2189;" horiz-adv-x="943" 
d="M733 712l-433 -724h-100l433 724h100zM747 432q75 0 117.5 -32.5t42.5 -82.5q0 -37 -23 -61t-62 -32q43 -6 70.5 -31.5t27.5 -69.5q0 -61 -47.5 -97t-128.5 -36q-69 0 -116.5 31t-61.5 88l98 23q14 -59 80 -59q29 0 47.5 14.5t18.5 40.5t-18.5 39.5t-49.5 13.5h-46v77h39
q64 0 64 47q0 22 -15.5 33.5t-40.5 11.5q-56 0 -72 -51l-97 16q14 53 60 85t113 32zM200 712q83 0 130 -56t47 -164q0 -110 -46.5 -166t-130.5 -56q-83 0 -129.5 56t-46.5 166q0 108 46 164t130 56zM199 629q-37 0 -53 -33t-16 -104t16 -105t53 -34q70 0 70 139
q0 71 -16.5 104t-53.5 33z" />
    <glyph glyph-name="arrowleft" unicode="&#x2190;" horiz-adv-x="900" 
d="M402 660l87 -74l-194 -204h502v-106h-502l194 -204l-87 -74l-298 331z" />
    <glyph glyph-name="arrowup" unicode="&#x2191;" horiz-adv-x="900" 
d="M450 689l332 -299l-71 -81l-202 190v-499h-118v499l-201 -190l-72 81z" />
    <glyph glyph-name="arrowright" unicode="&#x2192;" horiz-adv-x="900" 
d="M499 660l298 -331l-298 -331l-87 74l194 204h-502v106h502l-194 204z" />
    <glyph glyph-name="arrowdown" unicode="&#x2193;" horiz-adv-x="900" 
d="M509 645v-498l202 189l71 -81l-332 -298l-332 298l72 81l201 -189v498h118z" />
    <glyph glyph-name="arrowboth" unicode="&#x2194;" horiz-adv-x="1280" 
d="M886 660l298 -331l-298 -331l-87 74l194 204h-705l194 -204l-87 -74l-298 331l298 331l87 -74l-194 -204h705l-194 204z" />
    <glyph glyph-name="arrowupdn" unicode="&#x2195;" horiz-adv-x="900" 
d="M450 881l332 -299l-71 -80l-202 190v-703l202 190l71 -80l-332 -299l-332 299l72 80l201 -190v703l-201 -190l-72 80z" />
    <glyph glyph-name="uni2196" unicode="&#x2196;" horiz-adv-x="905" 
d="M649 613l7 -110l-283 -5l358 -360l-80 -79l-356 358l-6 -280l-115 4l24 448z" />
    <glyph glyph-name="uni2197" unicode="&#x2197;" horiz-adv-x="905" 
d="M256 613l451 -24l24 -448l-115 -4l-6 280l-356 -358l-80 79l358 360l-283 5z" />
    <glyph glyph-name="uni2198" unicode="&#x2198;" horiz-adv-x="905" 
d="M254 575l356 -358l6 280l115 -5l-24 -447l-451 -24l-7 109l283 5l-358 361z" />
    <glyph glyph-name="uni2199" unicode="&#x2199;" horiz-adv-x="905" 
d="M651 575l80 -79l-358 -361l283 -5l-7 -109l-451 24l-24 447l115 5l6 -280z" />
    <glyph glyph-name="partialdiff" unicode="&#x2202;" horiz-adv-x="631" 
d="M126 613v102q214 -1 333.5 -101t119.5 -299q0 -168 -74 -250t-200 -82q-119 0 -194 66t-75 176q0 109 67 172t166 63q54 0 102 -21.5t74 -61.5q-13 126 -94 181t-225 55zM301 356q-63 0 -97.5 -37t-34.5 -95q0 -64 39 -100.5t99 -36.5q59 0 94.5 36t35.5 100q0 59 -38 96
t-98 37z" />
    <glyph glyph-name="emptyset" unicode="&#x2205;" horiz-adv-x="900" 
d="M751 714l-63 -85q60 -51 94 -124t34 -156q0 -153 -106 -259t-259 -106q-108 0 -198 57l-41 -55h-80l70 94q-118 107 -118 269q0 153 107 260t260 107q101 0 185 -50l35 48h80zM186 349q0 -110 76 -188l314 425q-59 32 -125 32q-111 0 -188 -79t-77 -190zM451 82
q111 0 187.5 78t76.5 189q0 119 -86 200l-317 -428q62 -39 139 -39z" />
    <glyph glyph-name="Delta" unicode="&#x2206;" horiz-adv-x="636" 
d="M403 700l229 -700h-628l229 700h170zM172 109h285l-142 484z" />
    <glyph glyph-name="product" unicode="&#x220f;" horiz-adv-x="631" 
d="M598 700v-102h-77v-598h-128v598h-155v-598h-128v598h-77v102h565z" />
    <glyph glyph-name="summation" unicode="&#x2211;" 
d="M548 700v-102h-345l189 -194v-89l-190 -210h346v-105h-496v94l238 265l-238 246v95h496z" />
    <glyph glyph-name="minus" unicode="&#x2212;" 
d="M509 347v-110h-418v110h418z" />
    <glyph glyph-name="uni2215" unicode="&#x2215;" 
d="M566 712l-433 -724h-100l433 724h100z" />
    <glyph glyph-name="uni2219" unicode="&#x2219;" 
d="M301 406q46 0 80 -34t34 -81q0 -46 -34 -79t-80 -33q-47 0 -81.5 33.5t-34.5 79.5q0 47 34.5 80.5t81.5 33.5z" />
    <glyph glyph-name="radical" unicode="&#x221a;" 
d="M714 867v-102h-188l-216 -765h-134l-190 522h130l121 -379l198 724h279z" />
    <glyph glyph-name="infinity" unicode="&#x221e;" horiz-adv-x="907" 
d="M641 478q102 0 158 -60.5t56 -152.5q0 -91 -58 -151.5t-161 -60.5q-115 0 -183 119q-34 -57 -77 -88t-109 -31q-102 0 -158.5 60.5t-56.5 152.5q0 91 58 151.5t161 60.5q115 0 183 -119q34 57 77.5 88t109.5 31zM277 377q-44 0 -71.5 -29t-27.5 -82t26 -82t69 -29
q48 0 76.5 33t50.5 88q-15 31 -26.5 49t-37 35t-59.5 17zM634 376q-47 0 -76 -33t-50 -88q11 -23 19 -36.5t23 -31t34.5 -25.5t45.5 -8q44 0 72 29t28 82t-26 82t-70 29z" />
    <glyph glyph-name="integral" unicode="&#x222b;" horiz-adv-x="300" 
d="M271 852q50 0 104 -16v-100q-45 15 -86 15q-76 0 -76 -58v-760q0 -64 -47 -105t-136 -41q-52 0 -106 16v100q47 -15 87 -15q76 0 76 61v759q0 63 47 103.5t137 40.5z" />
    <glyph glyph-name="congruent" unicode="&#x2245;" 
d="M517 424v-110h-418v110h418zM517 207v-110h-418v110h418zM215 697q38 0 72.5 -14.5t60 -29.5t43.5 -15q47 0 79 55l68 -59q-54 -100 -153 -100q-37 0 -71.5 14.5t-60.5 29t-44 14.5q-47 0 -79 -55l-68 59q54 101 153 101z" />
    <glyph glyph-name="approxequal" unicode="&#x2248;" 
d="M215 491q38 0 72.5 -14.5t60 -29.5t43.5 -15q47 0 79 55l68 -59q-54 -100 -153 -100q-37 0 -71.5 14.5t-60.5 29t-44 14.5q-47 0 -79 -55l-68 59q54 101 153 101zM215 296q38 0 72.5 -15t60 -29.5t43.5 -14.5q47 0 79 55l68 -59q-54 -100 -153 -100q-37 0 -71.5 14.5
t-60.5 29t-44 14.5q-47 0 -79 -55l-68 59q54 101 153 101z" />
    <glyph glyph-name="uni2259" unicode="&#x2259;" 
d="M348 700l130 -173h-117l-63 86l-63 -86h-116l131 173h98zM509 466v-110h-418v110h418zM509 249v-110h-418v110h418z" />
    <glyph glyph-name="notequal" unicode="&#x2260;" 
d="M510 356h-132l-61 -107h193v-110h-256l-69 -120h-92l69 120h-70v110h134l61 107h-195v110h259l65 113h90l-65 -113h69v-110z" />
    <glyph glyph-name="lessequal" unicode="&#x2264;" 
d="M509 599v-125l-313 -101l313 -102v-124l-418 155v142zM509 110v-110h-418v110h418z" />
    <glyph glyph-name="greaterequal" unicode="&#x2265;" 
d="M91 599l418 -155v-142l-418 -155v124l312 102l-312 101v125zM509 110v-110h-418v110h418z" />
    <glyph glyph-name="dotmath" unicode="&#x22c5;" 
d="M300 384q35 0 60 -25.5t25 -60.5q0 -34 -25 -59t-60 -25t-60.5 25t-25.5 60t25.5 60t60.5 25z" />
    <glyph glyph-name="uni2460" unicode="&#x2460;" horiz-adv-x="900" 
d="M320 159v75h97v176h-98v63h11q55 0 77 16.5t28 51.5h77v-307h77v-75h-269zM451 717q156 0 262 -106.5t106 -261.5t-106 -260.5t-262 -105.5q-157 0 -264 105.5t-107 260.5t107 261.5t264 106.5zM451 651q-127 0 -212.5 -88.5t-85.5 -213.5t85.5 -212.5t212.5 -87.5
q128 0 212 87.5t84 212.5t-84 213.5t-212 88.5z" />
    <glyph glyph-name="uni2461" unicode="&#x2461;" horiz-adv-x="900" 
d="M451 552q66 0 105 -32.5t39 -84.5q0 -58 -40.5 -105t-129.5 -96h177v-75h-305v73q110 74 153 117t43 84q0 44 -46 44q-50 0 -52 -64h-97q0 61 39 100t114 39zM451 717q156 0 262 -106.5t106 -261.5t-106 -260.5t-262 -105.5q-157 0 -264 105.5t-107 260.5t107 261.5
t264 106.5zM451 651q-127 0 -212.5 -88.5t-85.5 -213.5t85.5 -212.5t212.5 -87.5q128 0 212 87.5t84 212.5t-84 213.5t-212 88.5z" />
    <glyph glyph-name="uni2462" unicode="&#x2462;" horiz-adv-x="900" 
d="M453 552q68 0 107 -29.5t39 -75.5q0 -67 -77 -84q39 -6 64 -29.5t25 -62.5q0 -56 -43.5 -88.5t-116.5 -32.5q-63 0 -106 28.5t-56 79.5l89 21q13 -54 73 -54q26 0 43 13.5t17 36.5q0 24 -17 36.5t-45 12.5h-42v70h36q58 0 58 42q0 20 -14.5 30.5t-36.5 10.5
q-52 0 -66 -46l-88 14q13 48 55 77.5t102 29.5zM451 717q156 0 262 -106.5t106 -261.5t-106 -260.5t-262 -105.5q-157 0 -264 105.5t-107 260.5t107 261.5t264 106.5zM451 651q-127 0 -212.5 -88.5t-85.5 -213.5t85.5 -212.5t212.5 -87.5q128 0 212 87.5t84 212.5t-84 213.5
t-212 88.5z" />
    <glyph glyph-name="uni2463" unicode="&#x2463;" horiz-adv-x="900" 
d="M555 541v-241h51v-76h-51v-65h-93v65h-193v79l163 238h123zM462 448l-102 -148h102v148zM451 717q156 0 262 -106.5t106 -261.5t-106 -260.5t-262 -105.5q-157 0 -264 105.5t-107 260.5t107 261.5t264 106.5zM451 651q-127 0 -212.5 -88.5t-85.5 -213.5t85.5 -212.5
t212.5 -87.5q128 0 212 87.5t84 212.5t-84 213.5t-212 88.5z" />
    <glyph glyph-name="uni2464" unicode="&#x2464;" horiz-adv-x="900" 
d="M588 541l-12 -75h-169l-11 -73q35 29 85 29q53 0 91.5 -35.5t38.5 -93.5q0 -64 -44.5 -103.5t-124.5 -39.5q-62 0 -101.5 26.5t-54.5 67.5l85 27q18 -47 73 -47q32 0 49.5 18t17.5 45q0 28 -17 43t-47 15q-41 0 -65 -29l-82 13l31 212h257zM451 717q156 0 262 -106.5
t106 -261.5t-106 -260.5t-262 -105.5q-157 0 -264 105.5t-107 260.5t107 261.5t264 106.5zM451 651q-127 0 -212.5 -88.5t-85.5 -213.5t85.5 -212.5t212.5 -87.5q128 0 212 87.5t84 212.5t-84 213.5t-212 88.5z" />
    <glyph glyph-name="uni2465" unicode="&#x2465;" horiz-adv-x="900" 
d="M457 552q100 0 138 -80l-81 -28q-14 35 -57 35q-71 0 -80 -110q30 45 99 45q54 0 92 -33t38 -91q0 -66 -44 -103t-113 -37q-75 0 -120 43.5t-45 141.5q0 103 46.5 160t126.5 57zM449 342q-25 0 -42 -16t-17 -42q0 -27 16.5 -43.5t41.5 -16.5q24 0 40.5 16t16.5 44
q0 26 -14.5 42t-41.5 16zM451 717q156 0 262 -106.5t106 -261.5t-106 -260.5t-262 -105.5q-157 0 -264 105.5t-107 260.5t107 261.5t264 106.5zM451 651q-127 0 -212.5 -88.5t-85.5 -213.5t85.5 -212.5t212.5 -87.5q128 0 212 87.5t84 212.5t-84 213.5t-212 88.5z" />
    <glyph glyph-name="uni2466" unicode="&#x2466;" horiz-adv-x="900" 
d="M607 541v-76q-63 -74 -93 -140t-42 -166h-104q14 110 50 177t98 128h-130v-43h-82v120h303zM451 717q156 0 262 -106.5t106 -261.5t-106 -260.5t-262 -105.5q-157 0 -264 105.5t-107 260.5t107 261.5t264 106.5zM451 651q-127 0 -212.5 -88.5t-85.5 -213.5t85.5 -212.5
t212.5 -87.5q128 0 212 87.5t84 212.5t-84 213.5t-212 88.5z" />
    <glyph glyph-name="uni2467" unicode="&#x2467;" horiz-adv-x="900" 
d="M448 150q-85 0 -127 34t-42 79q0 69 74 95q-52 32 -52 87q0 44 37.5 75.5t109.5 31.5q71 0 110 -30t39 -70q0 -25 -16.5 -48.5t-44.5 -35.5q49 -17 66.5 -39t17.5 -59q0 -49 -41 -84.5t-131 -35.5zM448 398l21 -6q34 22 34 52q0 18 -14 28.5t-39 10.5t-39.5 -10.5
t-14.5 -28.5q0 -17 11.5 -27t40.5 -19zM448 224q37 0 54.5 13t17.5 31q0 21 -14.5 31.5t-58.5 23.5l-31 9q-38 -28 -38 -61q0 -21 18.5 -34t51.5 -13zM451 717q156 0 262 -106.5t106 -261.5t-106 -260.5t-262 -105.5q-157 0 -264 105.5t-107 260.5t107 261.5t264 106.5z
M451 651q-127 0 -212.5 -88.5t-85.5 -213.5t85.5 -212.5t212.5 -87.5q128 0 212 87.5t84 212.5t-84 213.5t-212 88.5z" />
    <glyph glyph-name="uni2468" unicode="&#x2468;" horiz-adv-x="900" 
d="M437 148q-50 0 -87.5 22t-55.5 57l79 32q18 -38 66 -38q74 0 77 112q-32 -45 -97 -45q-53 0 -91 34t-38 94q0 63 44.5 99.5t112.5 36.5q74 0 119.5 -44t45.5 -140q0 -106 -44.5 -163t-130.5 -57zM447 363q27 0 43 15.5t16 43.5q0 26 -15.5 41t-40.5 15q-26 0 -43 -15.5
t-17 -43.5q0 -25 15 -40.5t42 -15.5zM451 717q156 0 262 -106.5t106 -261.5t-106 -260.5t-262 -105.5q-157 0 -264 105.5t-107 260.5t107 261.5t264 106.5zM451 651q-127 0 -212.5 -88.5t-85.5 -213.5t85.5 -212.5t212.5 -87.5q128 0 212 87.5t84 212.5t-84 213.5t-212 88.5
z" />
    <glyph glyph-name="uni24EA" unicode="&#x24ea;" horiz-adv-x="900" 
d="M450 552q76 0 118.5 -51.5t42.5 -148.5q0 -100 -42 -151t-119 -51q-76 0 -118 51t-42 151q0 98 42 149t118 51zM449 476q-34 0 -48.5 -30t-14.5 -94q0 -65 14.5 -96t48.5 -31q64 0 64 127q0 124 -64 124zM451 717q156 0 262 -106.5t106 -261.5t-106 -260.5t-262 -105.5
q-157 0 -264 105.5t-107 260.5t107 261.5t264 106.5zM451 651q-127 0 -212.5 -88.5t-85.5 -213.5t85.5 -212.5t212.5 -87.5q128 0 212 87.5t84 212.5t-84 213.5t-212 88.5z" />
    <glyph glyph-name="uni24FF" unicode="&#x24ff;" horiz-adv-x="900" 
d="M451 -17q-157 0 -264 105.5t-107 260.5t107 261.5t264 106.5q156 0 262 -106.5t106 -261.5t-106 -260.5t-262 -105.5zM450 150q76 0 118 51t42 151q0 98 -42.5 149t-117.5 51q-76 0 -118 -51t-42 -149q0 -100 42 -151t118 -51zM450 226q-34 0 -48.5 31t-14.5 95
t14.5 94.5t48.5 30.5q63 0 63 -125q0 -126 -63 -126z" />
    <glyph glyph-name="filledbox" unicode="&#x25a0;" 
d="M110 454h379v-379h-379v379z" />
    <glyph glyph-name="uni25A1" unicode="&#x25a1;" 
d="M110 454h379v-379h-379v379zM210 354v-179h179v179h-179z" />
    <glyph glyph-name="uni25B3" unicode="&#x25b3;" horiz-adv-x="900" 
d="M100 0l352 709l348 -709h-700zM276 103h347l-172 357z" />
    <glyph glyph-name="uni25B4" unicode="&#x25b4;" 
d="M299 454l190 -379h-379z" />
    <glyph glyph-name="uni25B8" unicode="&#x25b8;" 
d="M489 264l-379 -189v379z" />
    <glyph glyph-name="uni25BD" unicode="&#x25bd;" horiz-adv-x="900" 
d="M452 -9l-352 709h700zM623 597h-347l175 -357z" />
    <glyph glyph-name="uni25BE" unicode="&#x25be;" 
d="M299 75l-189 379h379z" />
    <glyph glyph-name="uni25C2" unicode="&#x25c2;" 
d="M110 264l379 190v-379z" />
    <glyph glyph-name="uni25C6" unicode="&#x25c6;" 
d="M300 539l260 -273l-260 -278l-260 278z" />
    <glyph glyph-name="uni25C7" unicode="&#x25c7;" 
d="M300 539l260 -273l-260 -278l-260 278zM300 402l-129 -135l129 -143l130 143z" />
    <glyph glyph-name="lozenge" unicode="&#x25ca;" 
d="M375 700l200 -339l-200 -361h-150l-200 359l201 341h149zM299 619l-145 -259l147 -278l144 278z" />
    <glyph glyph-name="circle" unicode="&#x25cb;" 
d="M301 27q-101 0 -171.5 70.5t-70.5 171.5q0 100 71 170.5t171 70.5t170.5 -70.5t70.5 -170.5t-70.5 -171t-170.5 -71zM301 129q54 0 91.5 39.5t37.5 100.5q0 60 -37.5 99.5t-91.5 39.5q-55 0 -92.5 -39.5t-37.5 -99.5q0 -61 37.5 -100.5t92.5 -39.5z" />
    <glyph glyph-name="uni25CF" unicode="&#x25cf;" 
d="M301 27q-101 0 -171.5 70.5t-70.5 171.5q0 100 71 170.5t171 70.5t170.5 -70.5t70.5 -170.5t-70.5 -171t-170.5 -71z" />
    <glyph glyph-name="uni2605" unicode="&#x2605;" horiz-adv-x="900" 
d="M611 267l79 -277l-242 177l-242 -177l80 280l-201 195l266 -29l94 277l96 -278l273 29z" />
    <glyph glyph-name="uni2610" unicode="&#x2610;" horiz-adv-x="900" 
d="M100 0v700h700v-700h-700zM208 108h484v484h-484v-484z" />
    <glyph glyph-name="uni2611" unicode="&#x2611;" horiz-adv-x="900" 
d="M100 0v700h700v-700h-700zM208 108h484v484h-484v-484zM549 536h78l-175 -365h-83l-83 176h82l43 -98z" />
    <glyph glyph-name="uni2612" unicode="&#x2612;" horiz-adv-x="900" 
d="M100 0v700h700v-700h-700zM208 108h484v484h-484v-484zM662 558l-154 -216l87 -177h-96l-53 108l-100 -138h-97l156 223l-85 173h94l53 -108l98 135h97z" />
    <glyph glyph-name="uni2620" unicode="&#x2620;" 
d="M300 129q-41 0 -72 10l-33 65q-17 10 -23.5 17t-9.5 21v42q-31 35 -31 102q0 66 48.5 109.5t120.5 43.5t120.5 -43.5t48.5 -109.5q0 -67 -31 -102v-42q-3 -14 -9.5 -21t-23.5 -17l-33 -65q-31 -10 -72 -10zM138 231l-57 28q-30 -19 -49 -19q-11 0 -19 7t-8 20q0 31 36 35
l3 7q-13 11 -13 29q0 13 8.5 21t23.5 8q36 0 41 -58l34 -20v-58zM462 231v58l34 20q5 58 41 58q15 0 23.5 -8t8.5 -21q0 -18 -13 -29l3 -7q36 -4 36 -35q0 -13 -8 -20t-19 -7q-19 0 -49 19zM219 285q17 0 28.5 10.5t11.5 26.5q0 17 -11.5 28t-28.5 11q-16 0 -27.5 -11
t-11.5 -28q0 -16 11.5 -26.5t27.5 -10.5zM381 285q16 0 27.5 10.5t11.5 26.5q0 17 -11.5 28t-27.5 11q-17 0 -28.5 -11t-11.5 -28q0 -16 11.5 -26.5t28.5 -10.5zM265 235v-29q7 0 18 3.5t17 3.5t17 -3.5t18 -3.5v29q-16 45 -35 45t-35 -45zM90 32q-15 0 -23.5 8t-8.5 21
q0 18 13 29l-3 7q-36 4 -36 35q0 13 8 20t19 7q19 0 49 -19l71 38l25 -47l-73 -41q-5 -58 -41 -58zM510 32q-36 0 -41 58l-73 41l25 47l71 -38q30 19 49 19q11 0 19 -7t8 -20q0 -31 -36 -35l-3 -7q13 -11 13 -29q0 -13 -8.5 -21t-23.5 -8z" />
    <glyph glyph-name="smileface" unicode="&#x263a;" 
d="M301 -16q-116 0 -196.5 80.5t-80.5 197.5q0 116 80.5 196t196.5 80t196 -80t80 -196q0 -117 -80 -197.5t-196 -80.5zM302 55q82 0 138 57.5t56 149.5t-56 149t-138 57q-83 0 -139.5 -57t-56.5 -149t56.5 -149.5t139.5 -57.5zM218 296q-22 0 -36.5 14t-14.5 36
q0 20 14.5 34t36.5 14t36.5 -14t14.5 -34q0 -22 -14.5 -36t-36.5 -14zM378 296q-22 0 -36.5 14t-14.5 36q0 20 14.5 34t36.5 14t36.5 -14t14.5 -34q0 -22 -14.5 -36t-36.5 -14zM300 98q-63 0 -105.5 42.5t-49.5 100.5h59q22 -84 96 -84t96 84h59q-7 -58 -49.5 -100.5
t-105.5 -42.5z" />
    <glyph glyph-name="invsmileface" unicode="&#x263b;" 
d="M301 -16q-116 0 -196.5 80.5t-80.5 197.5q0 116 80.5 196t196.5 80t196 -80t80 -196q0 -117 -80 -197.5t-196 -80.5zM211 296q22 0 36.5 14t14.5 36q0 20 -14.5 34t-36.5 14t-36.5 -14t-14.5 -34q0 -22 14.5 -36t36.5 -14zM386 296q22 0 36.5 14t14.5 36q0 20 -14.5 34
t-36.5 14t-36.5 -14t-14.5 -34q0 -22 14.5 -36t36.5 -14zM300 79q63 0 105.5 42t49.5 100h-59q-22 -84 -96 -84t-96 84h-59q7 -58 49.5 -100t105.5 -42z" />
    <glyph glyph-name="sun" unicode="&#x263c;" 
d="M332 538v-113q29 -4 61 -24l85 87l47 -47l-87 -85q19 -24 27 -61h116v-63h-115q-8 -35 -26 -60l85 -83l-47 -46l-82 84q-29 -19 -64 -25v-113h-63v113q-37 6 -64 25l-82 -84l-46 46l84 83q-21 29 -25 60h-116v63h117q7 37 25 61l-85 85l46 47l85 -87q30 20 61 24v113h63z
M300 355q-38 0 -63.5 -26t-25.5 -66q0 -41 25 -66.5t64 -25.5t64.5 25.5t25.5 66.5q0 40 -25.5 66t-64.5 26z" />
    <glyph glyph-name="female" unicode="&#x2640;" 
d="M336 223v-64h94v-66h-94v-93h-69v93h-96v66h96v63q-58 11 -95.5 54.5t-37.5 102.5q0 68 48 115t117 47t117.5 -47t48.5 -115q0 -59 -36.5 -101.5t-92.5 -54.5zM215 379q0 -38 24 -62.5t61 -24.5t61 24.5t24 62.5t-24 63t-61 25t-61 -25t-24 -63z" />
    <glyph glyph-name="male" unicode="&#x2642;" 
d="M522 527l35 -248l-64 -9l-20 152l-134 -160q36 -46 36 -102q0 -69 -48.5 -114.5t-118.5 -45.5q-69 0 -116.5 46.5t-47.5 113.5q0 68 48 115t117 47q41 0 76 -18l136 162l-163 -11v63zM210 73q37 0 61 24.5t24 62.5t-24 62.5t-61 24.5t-61 -24.5t-24 -62.5t24 -62.5
t61 -24.5z" />
    <glyph glyph-name="spade" unicode="&#x2660;" 
d="M80 0l20 45q97 0 139.5 29.5t42.5 125.5q-39 -64 -114 -64q-45 0 -71.5 26t-26.5 72q0 34 13.5 66t50.5 74.5t67.5 72t98.5 92.5q68 -63 98.5 -92.5t67.5 -72t50.5 -74.5t13.5 -66q0 -46 -26.5 -72t-71.5 -26q-75 0 -114 64q0 -96 42.5 -125.5t139.5 -29.5l20 -45h-440z
" />
    <glyph glyph-name="club" unicode="&#x2663;" 
d="M80 0l20 45q97 0 139.5 29.5t42.5 125.5q-40 -66 -108 -66q-49 0 -81.5 32t-32.5 82q0 48 30 78t77 30q34 0 67 -14q-54 44 -54 99q0 48 33 77t87 29t87 -29t33 -77q0 -55 -54 -99q33 14 67 14q47 0 77 -30t30 -78q0 -50 -32.5 -82t-81.5 -32q-69 0 -108 66
q0 -96 42.5 -125.5t139.5 -29.5l20 -45h-440z" />
    <glyph glyph-name="heart" unicode="&#x2665;" 
d="M434 539q56 0 91 -33.5t35 -90.5q0 -29 -6.5 -55t-27 -57t-34.5 -51t-55 -60t-60.5 -58t-76.5 -70q-140 128 -181 175q-79 92 -79 176q0 57 35 90.5t91 33.5q49 0 79 -23t55 -69q25 46 55 69t79 23z" />
    <glyph glyph-name="diamond" unicode="&#x2666;" 
d="M300 539l220 -273l-220 -278l-220 278z" />
    <glyph glyph-name="musicalnote" unicode="&#x266a;" 
d="M363 527l45 -26q89 -49 89 -132q0 -33 -25 -85l-35 16q3 13 3 33q0 71 -55 105l-22 14v-343q0 -55 -41.5 -88.5t-97.5 -33.5q-50 0 -79 20.5t-29 55.5q0 39 32.5 63t78.5 24q45 0 69 -13v390h67z" />
    <glyph glyph-name="musicalnotedbl" unicode="&#x266b;" 
d="M564 582v-419q0 -55 -40.5 -91.5t-99.5 -36.5q-50 0 -78 18.5t-28 53.5q0 38 35 64t86 26q35 0 59 -13v267l-216 -55v-282q0 -57 -39 -92t-103 -35q-48 0 -77 20t-29 56q0 38 32.5 62.5t82.5 24.5q41 0 65 -13v354z" />
    <glyph glyph-name="uni2713" unicode="&#x2713;" 
d="M435 578h117l-261 -543h-123l-124 262h123l64 -145z" />
    <glyph glyph-name="uni2717" unicode="&#x2717;" 
d="M594 578l-206 -289l117 -237h-129l-71 145l-134 -185h-130l209 298l-114 232h127l71 -144l130 180h130z" />
    <glyph glyph-name="uni2776" unicode="&#x2776;" horiz-adv-x="900" 
d="M451 -17q-157 0 -264 105.5t-107 260.5t107 261.5t264 106.5q156 0 262 -106.5t106 -261.5t-106 -260.5t-262 -105.5zM319 159h269v76h-77v306h-77q-12 -36 -36.5 -52.5t-79.5 -15.5v-72q65 0 98 25v-191h-97v-76z" />
    <glyph glyph-name="uni2777" unicode="&#x2777;" horiz-adv-x="900" 
d="M451 -17q-157 0 -264 105.5t-107 260.5t107 261.5t264 106.5q156 0 262 -106.5t106 -261.5t-106 -260.5t-262 -105.5zM298 159h304v76h-176q89 50 129.5 96t40.5 105q0 52 -39 84t-105 32q-75 0 -114 -39t-39 -100h97q1 64 51 64q47 0 47 -44q0 -41 -43 -83.5
t-153 -117.5v-73z" />
    <glyph glyph-name="uni2778" unicode="&#x2778;" horiz-adv-x="900" 
d="M451 -17q-157 0 -264 105.5t-107 260.5t107 261.5t264 106.5q156 0 262 -106.5t106 -261.5t-106 -260.5t-262 -105.5zM451 150q73 0 116.5 32.5t43.5 88.5q0 39 -25 63t-64 29q77 17 77 85q0 45 -39 74.5t-107 29.5q-60 0 -102 -29t-55 -77l89 -15q14 47 65 47
q22 0 36.5 -10.5t14.5 -30.5q0 -44 -59 -44h-35v-69h42q62 0 62 -48q0 -50 -61 -50q-60 0 -72 53l-89 -21q13 -51 56 -79.5t106 -28.5z" />
    <glyph glyph-name="uni2779" unicode="&#x2779;" horiz-adv-x="900" 
d="M451 -17q-157 0 -264 105.5t-107 260.5t107 261.5t264 106.5q156 0 262 -106.5t106 -261.5t-106 -260.5t-262 -105.5zM462 159h92v65h51v76h-51v241h-123l-163 -238v-79h194v-65zM359 300l103 149v-149h-103z" />
    <glyph glyph-name="uni277A" unicode="&#x277a;" horiz-adv-x="900" 
d="M451 -17q-157 0 -264 105.5t-107 260.5t107 261.5t264 106.5q156 0 262 -106.5t106 -261.5t-106 -260.5t-262 -105.5zM443 150q80 0 124 40t44 103q0 58 -38.5 93.5t-91.5 35.5q-51 0 -85 -30l11 74h169l11 75h-257l-30 -212l83 -13q23 30 64 30q30 0 47.5 -15.5
t17.5 -43.5q0 -27 -18 -45t-50 -18q-55 0 -73 47l-85 -27q15 -41 55 -67.5t102 -26.5z" />
    <glyph glyph-name="uni277B" unicode="&#x277b;" horiz-adv-x="900" 
d="M451 -17q-157 0 -264 105.5t-107 260.5t107 261.5t264 106.5q156 0 262 -106.5t106 -261.5t-106 -260.5t-262 -105.5zM448 150q69 0 112.5 37t43.5 103q0 58 -38 91.5t-92 33.5q-67 0 -98 -46q9 110 80 110q43 0 57 -35l81 28q-38 80 -138 80q-80 0 -126.5 -57
t-46.5 -160q0 -97 45.5 -141t119.5 -44zM447 224q-24 0 -40.5 16.5t-16.5 43.5t16.5 42.5t42.5 15.5t41 -16t15 -42q0 -28 -16.5 -44t-41.5 -16z" />
    <glyph glyph-name="uni277C" unicode="&#x277c;" horiz-adv-x="900" 
d="M451 -17q-157 0 -264 105.5t-107 260.5t107 261.5t264 106.5q156 0 262 -106.5t106 -261.5t-106 -260.5t-262 -105.5zM369 159h103q12 100 42 166t93 141v75h-303v-120h82v44h130q-62 -62 -97.5 -129t-49.5 -177z" />
    <glyph glyph-name="uni277D" unicode="&#x277d;" horiz-adv-x="900" 
d="M451 -17q-157 0 -264 105.5t-107 260.5t107 261.5t264 106.5q156 0 262 -106.5t106 -261.5t-106 -260.5t-262 -105.5zM448 150q90 0 131 36t41 84q0 37 -18 59t-66 39q29 13 45 36t16 48q0 40 -39 70t-110 30t-109 -31t-38 -75q0 -56 53 -87q-75 -27 -75 -96
q0 -45 42 -79t127 -34zM469 392l-21 6q-29 8 -40.5 18.5t-11.5 27.5t14.5 28t38.5 11q55 0 55 -39q0 -30 -35 -52zM449 224q-33 0 -51.5 13t-18.5 34q0 35 38 61l31 -9q43 -13 58 -23.5t15 -31.5q0 -18 -17.5 -31t-54.5 -13z" />
    <glyph glyph-name="uni277E" unicode="&#x277e;" horiz-adv-x="900" 
d="M451 -17q-157 0 -264 105.5t-107 260.5t107 261.5t264 106.5q156 0 262 -106.5t106 -261.5t-106 -260.5t-262 -105.5zM437 149q86 0 130 56.5t44 162.5q0 96 -45 140t-119 44q-68 0 -112.5 -36.5t-44.5 -99.5q0 -60 38 -93.5t91 -33.5q65 0 98 44q-4 -112 -78 -112
q-46 0 -66 38l-79 -32q42 -78 143 -78zM447 363q-27 0 -42 16t-15 41q0 28 17 43t43 15q25 0 40.5 -15t15.5 -41q0 -27 -16 -43t-43 -16z" />
    <glyph glyph-name="fi" unicode="&#xfb01;" horiz-adv-x="580" 
d="M276 713q73 0 137 -25v-96q-52 23 -115 23q-46 0 -66 -12t-20 -44v-37h300v-522h-128v428h-172v-428h-128v428h-72v94h72v54q0 61 47.5 99t144.5 38z" />
    <glyph glyph-name="fl" unicode="&#xfb02;" horiz-adv-x="598" 
d="M263 713q52 0 116 -17l127 6v-548q0 -36 7 -46.5t38 -10.5q10 0 21 1v-97q-29 -8 -66 -8q-128 0 -128 141v468q-46 13 -91 13q-39 0 -57 -12t-18 -44v-37h97v-94h-97v-428h-128v428h-72v94h72v54q0 60 45.5 98.5t133.5 38.5z" />
    <glyph glyph-name="uniFEFF" unicode="&#xfeff;" horiz-adv-x="0" 
 />
    <glyph glyph-name="u1F310" unicode="&#x1f310;" horiz-adv-x="900" 
d="M450 714q152 0 259 -106.5t107 -257.5t-107 -257t-259 -106t-259 106t-107 257t107 257.5t259 106.5zM368 649q-82 -24 -140 -87q32 -21 60 -32q31 69 80 119zM672 562q-57 62 -138 86q50 -51 80 -118q32 15 58 32zM481 628v-127q34 1 76 10q-29 68 -76 117zM418 501v124
q-46 -49 -73 -114q32 -8 73 -10zM149 378h100q3 45 18 98q-46 20 -74 39q-38 -65 -44 -137zM653 378h98q-6 72 -44 137q-39 -24 -73 -38q16 -52 19 -99zM481 445v-67h108q-3 39 -14 80q-50 -12 -94 -13zM418 378v67q-43 1 -91 13q-11 -41 -14 -80h105zM249 322h-100
q6 -72 44 -136q29 18 74 38q-15 53 -18 98zM418 322h-105q3 -39 14 -80q48 12 91 13v67zM481 322v-67q44 -1 94 -13q11 41 14 80h-108zM751 322h-98q-3 -47 -19 -99q30 -12 73 -37q38 64 44 136zM481 199v-126q48 49 75 116q-40 9 -75 10zM418 76v123q-41 -2 -73 -10
q28 -66 73 -113zM228 139q58 -63 140 -87q-50 52 -80 119q-27 -12 -60 -32zM535 53q82 25 136 85q-24 16 -57 32q-29 -64 -79 -117z" />
    <glyph glyph-name="f_f.alt001" horiz-adv-x="655" 
d="M583 615q-35 0 -50.5 -12t-15.5 -44v-37h134v-94h-134v-428h-128v428h-177v-428h-128v428h-72v94h72v47q0 61 46.5 102.5t136.5 41.5q85 0 164 -40q45 40 130 40q45 0 91 -14v-93q-36 9 -69 9zM389 522v51q0 14 1 22q-52 24 -109 24q-35 0 -52 -13.5t-17 -46.5v-37h177z
" />
    <glyph glyph-name="f.alt001" horiz-adv-x="350" 
d="M256 713q45 0 91 -14v-93q-36 9 -69 9q-35 0 -50.5 -12t-15.5 -44v-37h134v-94h-134v-428h-128v428h-72v94h72v51q0 62 42.5 101t129.5 39z" />
    <glyph glyph-name="j.alt001" horiz-adv-x="263" 
d="M50 -185q-30 0 -54 7v96q8 -1 18 -1q29 0 41 15.5t12 60.5v534h128v-546q0 -84 -40.5 -125t-104.5 -41zM131 736q33 0 56 -22t23 -54q0 -31 -23.5 -53t-55.5 -22q-31 0 -54.5 22.5t-23.5 52.5q0 32 23.5 54t54.5 22z" />
    <glyph glyph-name="caron.alt001" horiz-adv-x="193" 
d="M236 738l-88 -150h-79l37 150h130z" />
    <glyph glyph-name="j.ss01.alt001" horiz-adv-x="263" 
d="M50 -185q-30 0 -54 7v96q8 -1 18 -1q29 0 41 15.5t12 60.5v534h128v-546q0 -84 -40.5 -125t-104.5 -41zM203 733v-128h-141v128h141z" />
    <glyph glyph-name="parenleft.numr" horiz-adv-x="300" 
d="M166 753h72q-41 -73 -55.5 -126t-14.5 -121t14.5 -121t55.5 -125h-72q-90 116 -90 246q0 129 90 247z" />
    <glyph glyph-name="parenright.numr" horiz-adv-x="300" 
d="M77 753h72q90 -118 90 -247q0 -130 -90 -246h-72q41 72 55.5 125t14.5 121t-14.5 121t-55.5 126z" />
    <glyph glyph-name="plus.numr" horiz-adv-x="377" 
d="M233 630v-96h96v-78h-96v-96h-89v96h-97v78h97v96h89z" />
    <glyph glyph-name="zero.numr" horiz-adv-x="400" 
d="M200 712q83 0 130 -56t47 -164q0 -110 -46.5 -166t-130.5 -56q-83 0 -129.5 56t-46.5 166q0 108 46 164t130 56zM199 629q-37 0 -53 -33t-16 -104t16 -105t53 -34q70 0 70 139q0 71 -16.5 104t-53.5 33z" />
    <glyph glyph-name="one.numr" horiz-adv-x="400" 
d="M66 280v83h107v193h-108v69h12q60 0 84.5 18.5t30.5 56.5h85v-337h85v-83h-296z" />
    <glyph glyph-name="two.numr" horiz-adv-x="400" 
d="M201 712q73 0 116 -35.5t43 -92.5q0 -64 -45 -115.5t-142 -105.5h194v-83h-335v80q122 82 169 129t47 92q0 49 -51 49q-55 0 -57 -71h-107q0 67 43 110t125 43z" />
    <glyph glyph-name="three.numr" horiz-adv-x="400" 
d="M204 712q75 0 117.5 -32.5t42.5 -82.5q0 -37 -23 -61t-62 -32q43 -6 70.5 -31.5t27.5 -69.5q0 -61 -47.5 -97t-128.5 -36q-69 0 -116.5 31t-61.5 88l98 23q14 -59 80 -59q29 0 47.5 14.5t18.5 40.5t-18.5 39.5t-49.5 13.5h-46v77h39q64 0 64 47q0 22 -15.5 33.5
t-40.5 11.5q-56 0 -72 -51l-97 16q14 53 60 85t113 32z" />
    <glyph glyph-name="four.numr" horiz-adv-x="400" 
d="M329 700v-265h56v-83h-56v-72h-102v72h-213v86l180 262h135zM227 598l-113 -163h113v163z" />
    <glyph glyph-name="five.numr" horiz-adv-x="400" 
d="M354 700l-13 -82h-186l-12 -81q37 32 94 32q58 0 100 -39t42 -103q0 -70 -48.5 -113.5t-136.5 -43.5q-68 0 -112 29t-60 75l94 29q19 -52 80 -52q35 0 54.5 20.5t19.5 49.5q0 30 -19 47t-52 17q-44 0 -71 -32l-91 14l34 233h283z" />
    <glyph glyph-name="six.numr" horiz-adv-x="400" 
d="M213 712q111 0 152 -88l-89 -30q-16 38 -63 38q-78 0 -88 -121q35 50 109 50q59 0 101 -36.5t42 -100.5q0 -73 -48.5 -113.5t-123.5 -40.5q-82 0 -132 48t-50 156q0 113 51.5 175.5t138.5 62.5zM205 481q-28 0 -46.5 -17.5t-18.5 -46.5t18 -47.5t45 -18.5t45 17.5
t18 48.5q0 29 -16 46.5t-45 17.5z" />
    <glyph glyph-name="seven.numr" horiz-adv-x="400" 
d="M367 700v-83q-69 -82 -102 -154.5t-46 -182.5h-114q16 121 55 194.5t107 141.5h-143v-48h-90v132h333z" />
    <glyph glyph-name="eight.numr" horiz-adv-x="400" 
d="M198 270q-93 0 -139.5 37.5t-46.5 86.5q0 76 82 105q-58 36 -58 96q0 48 41.5 82.5t120.5 34.5t121.5 -33t42.5 -77q0 -27 -18 -52.5t-49 -39.5q53 -19 72.5 -43t19.5 -65q0 -53 -45 -92.5t-144 -39.5zM198 543l23 -7q38 24 38 57q0 43 -59 43q-28 0 -43.5 -11.5
t-15.5 -31.5q0 -19 12.5 -29.5t44.5 -20.5zM198 351q40 0 59.5 14.5t19.5 34.5q0 23 -16 34.5t-64 25.5l-34 10q-42 -30 -42 -67q0 -24 20.5 -38t56.5 -14z" />
    <glyph glyph-name="nine.numr" horiz-adv-x="400" 
d="M185 267q-56 0 -96.5 24t-60.5 63l86 35q21 -42 73 -42q81 0 85 123q-36 -49 -107 -49q-59 0 -100.5 37.5t-41.5 103.5q0 69 49 109t124 40q82 0 131.5 -48.5t49.5 -153.5q0 -117 -49 -179.5t-143 -62.5zM196 503q30 0 47.5 17.5t17.5 47.5q0 29 -17 45.5t-45 16.5
q-29 0 -47.5 -17t-18.5 -48q0 -28 16.5 -45t46.5 -17z" />
    <glyph glyph-name="equal.numr" horiz-adv-x="377" 
d="M329 604v-79h-282v79h282zM329 466v-79h-282v79h282z" />
    <glyph glyph-name="minus.numr" horiz-adv-x="377" 
d="M329 534v-78h-282v78h282z" />
    <glyph glyph-name="parenleft.dnom" horiz-adv-x="300" 
d="M166 454h72q-41 -73 -55.5 -126t-14.5 -121q0 -67 14.5 -120.5t55.5 -125.5h-72q-90 116 -90 246q0 129 90 247z" />
    <glyph glyph-name="parenright.dnom" horiz-adv-x="300" 
d="M62 454h72q90 -118 90 -247q0 -130 -90 -246h-72q41 72 55.5 125.5t14.5 120.5q0 68 -14.5 121t-55.5 126z" />
    <glyph glyph-name="plus.dnom" horiz-adv-x="377" 
d="M233 330v-96h96v-78h-96v-96h-89v96h-97v78h97v96h89z" />
    <glyph glyph-name="zero.dnom" horiz-adv-x="400" 
d="M200 432q83 0 130 -56t47 -164q0 -110 -46.5 -166t-130.5 -56q-83 0 -129.5 56t-46.5 166q0 108 46 164t130 56zM199 349q-37 0 -53 -33t-16 -104t16 -105t53 -34q70 0 70 139q0 71 -16.5 104t-53.5 33z" />
    <glyph glyph-name="one.dnom" horiz-adv-x="400" 
d="M66 0v83h107v193h-108v69h12q60 0 84.5 18.5t30.5 56.5h85v-337h85v-83h-296z" />
    <glyph glyph-name="two.dnom" horiz-adv-x="400" 
d="M201 432q73 0 116 -35.5t43 -92.5q0 -64 -45 -115.5t-142 -105.5h194v-83h-335v80q122 82 169 129t47 92q0 49 -51 49q-55 0 -57 -71h-107q0 67 43 110t125 43z" />
    <glyph glyph-name="three.dnom" horiz-adv-x="400" 
d="M204 432q75 0 117.5 -32.5t42.5 -82.5q0 -37 -23 -61t-62 -32q43 -6 70.5 -31.5t27.5 -69.5q0 -61 -47.5 -97t-128.5 -36q-69 0 -116.5 31t-61.5 88l98 23q14 -59 80 -59q29 0 47.5 14.5t18.5 40.5t-18.5 39.5t-49.5 13.5h-46v77h39q64 0 64 47q0 22 -15.5 33.5
t-40.5 11.5q-56 0 -72 -51l-97 16q14 53 60 85t113 32z" />
    <glyph glyph-name="four.dnom" horiz-adv-x="400" 
d="M329 420v-265h56v-83h-56v-72h-102v72h-213v86l180 262h135zM227 318l-113 -163h113v163z" />
    <glyph glyph-name="five.dnom" horiz-adv-x="400" 
d="M354 420l-13 -82h-186l-12 -81q37 32 94 32q58 0 100 -39t42 -103q0 -70 -48.5 -113.5t-136.5 -43.5q-68 0 -112 29t-60 75l94 29q19 -52 80 -52q35 0 54.5 20.5t19.5 49.5q0 30 -19 47t-52 17q-44 0 -71 -32l-91 14l34 233h283z" />
    <glyph glyph-name="six.dnom" horiz-adv-x="400" 
d="M213 432q111 0 152 -88l-89 -30q-16 38 -63 38q-78 0 -88 -121q35 50 109 50q59 0 101 -36.5t42 -100.5q0 -73 -48.5 -113.5t-123.5 -40.5q-82 0 -132 48t-50 156q0 113 51.5 175.5t138.5 62.5zM205 201q-28 0 -46.5 -17.5t-18.5 -46.5t18 -47.5t45 -18.5t45 17.5
t18 48.5q0 29 -16 46.5t-45 17.5z" />
    <glyph glyph-name="seven.dnom" horiz-adv-x="400" 
d="M367 420v-83q-69 -82 -102 -154.5t-46 -182.5h-114q16 121 55 194.5t107 141.5h-143v-48h-90v132h333z" />
    <glyph glyph-name="eight.dnom" horiz-adv-x="400" 
d="M198 -10q-93 0 -139.5 37.5t-46.5 86.5q0 76 82 105q-58 36 -58 96q0 48 41.5 82.5t120.5 34.5t121.5 -33t42.5 -77q0 -27 -18 -52.5t-49 -39.5q53 -19 72.5 -43t19.5 -65q0 -53 -45 -92.5t-144 -39.5zM198 263l23 -7q38 24 38 57q0 43 -59 43q-28 0 -43.5 -11.5
t-15.5 -31.5q0 -19 12.5 -29.5t44.5 -20.5zM198 71q40 0 59.5 14.5t19.5 34.5q0 23 -16.5 34.5t-63.5 25.5l-34 10q-42 -30 -42 -67q0 -24 20.5 -38t56.5 -14z" />
    <glyph glyph-name="nine.dnom" horiz-adv-x="400" 
d="M185 -12q-56 0 -96.5 24t-60.5 63l86 35q21 -42 73 -42q81 0 85 123q-36 -49 -107 -49q-59 0 -100.5 37.5t-41.5 103.5q0 69 49 109t124 40q82 0 131.5 -48.5t49.5 -153.5q0 -117 -49 -179.5t-143 -62.5zM196 224q30 0 47.5 17.5t17.5 47.5q0 29 -17 45.5t-45 16.5
q-29 0 -47.5 -17t-18.5 -48q0 -28 16.5 -45t46.5 -17z" />
    <glyph glyph-name="equal.dnom" horiz-adv-x="377" 
d="M329 304v-79h-282v79h282zM329 166v-79h-282v79h282z" />
    <glyph glyph-name="minus.dnom" horiz-adv-x="377" 
d="M329 234v-78h-282v78h282z" />
    <glyph glyph-name="space.frac" horiz-adv-x="49" 
 />
    <glyph glyph-name="uni0394.osf" horiz-adv-x="627" 
d="M398 700l230 -700h-629l230 700h169zM167 109h286l-143 484z" />
    <glyph glyph-name="numbersign.tf" 
d="M556 441h-85l-27 -189h74v-86h-86l-24 -166h-101l24 166h-98l-24 -166h-100l24 166h-74v86h86l28 189h-76v86h88l25 173h100l-25 -173h98l25 173h100l-25 -173h73v-86zM343 252l28 189h-98l-28 -189h98z" />
    <glyph glyph-name="dollar.tf" 
d="M352 834v-118q116 -18 189 -115l-80 -64q-46 63 -115 79v-211q110 -29 156 -74.5t46 -130.5q0 -89 -53 -147t-143 -69v-133h-84v134q-143 14 -219 124l90 69q51 -81 134 -95v231q-101 27 -147.5 76.5t-46.5 127.5q0 85 50.5 137t138.5 62v117h84zM272 424v195
q-38 -7 -57.5 -33t-19.5 -64q0 -35 17 -58.5t60 -39.5zM345 296v-213q41 7 63.5 36.5t22.5 71.5q0 36 -18.5 62t-67.5 43z" />
    <glyph glyph-name="zero.tf" 
d="M300 718q122 0 191 -93.5t69 -274.5t-68.5 -274.5t-191.5 -93.5q-122 0 -190.5 93.5t-68.5 274.5t68.5 274.5t190.5 93.5zM300 614q-128 0 -128 -261q0 -267 128 -267q129 0 129 267q0 261 -129 261z" />
    <glyph glyph-name="one.tf" 
d="M109 0v105h162v370h-164v91h23q86 0 121 33.5t47 100.5h101v-595h136v-105h-426z" />
    <glyph glyph-name="two.tf" 
d="M302 714q107 0 168.5 -58.5t61.5 -148.5q0 -110 -75.5 -208t-228.5 -194h314v-105h-484v102q187 141 262 227t75 172q0 52 -24.5 80.5t-72.5 28.5q-50 0 -78 -34.5t-28 -101.5h-131q0 103 63 171.5t178 68.5z" />
    <glyph glyph-name="three.tf" 
d="M304 717q109 0 170 -52t61 -136q0 -62 -33.5 -102.5t-90.5 -52.5q61 -9 103 -53.5t42 -116.5q0 -102 -71 -161.5t-186 -59.5q-102 0 -170 51.5t-89 143.5l122 28q13 -54 48 -86t90 -32t88 30.5t33 90.5q0 53 -31 82.5t-83 29.5h-76v95h64q45 0 76.5 23.5t31.5 79.5
q0 48 -28.5 71.5t-71.5 23.5q-48 0 -81 -26.5t-45 -78.5l-122 20q16 81 83 134.5t166 53.5z" />
    <glyph glyph-name="four.tf" 
d="M480 700v-455h96v-106h-96v-139h-125v139h-330v110l292 451h163zM355 569l-202 -324h202v324z" />
    <glyph glyph-name="five.tf" 
d="M521 700l-16 -105h-291l-21 -163q59 54 145 54q90 0 155 -64.5t65 -168.5q0 -121 -71 -196.5t-197 -75.5q-100 0 -164.5 49.5t-87.5 117.5l117 35q12 -44 49 -71t88 -27q63 0 98 44.5t35 113.5q0 66 -34 102t-93 36q-79 0 -125 -67l-111 16l49 370h410z" />
    <glyph glyph-name="six.tf" 
d="M323 717q160 0 218 -144l-112 -37q-32 79 -107 79q-136 0 -151 -244q30 48 76 71t95 23q92 0 154 -63t62 -171q0 -113 -69.5 -180.5t-179.5 -67.5q-115 0 -189 81.5t-74 251.5q0 192 74.5 296.5t202.5 104.5zM311 362q-52 0 -87 -38t-35 -99t35 -100t84 -39q51 0 84 38
t33 103q0 61 -29.5 98t-84.5 37z" />
    <glyph glyph-name="seven.tf" 
d="M548 700v-106q-111 -137 -164.5 -270t-74.5 -324h-138q24 204 83.5 335.5t166.5 257.5h-252v-81h-111v188h490z" />
    <glyph glyph-name="eight.tf" 
d="M298 717q110 0 170.5 -56.5t60.5 -131.5q0 -97 -98 -144q133 -55 133 -188q0 -38 -13.5 -74t-42.5 -68.5t-83 -52t-127 -19.5q-132 0 -197 63t-65 148q0 127 120 176q-84 54 -84 158q0 76 58 132.5t168 56.5zM298 617q-45 0 -71.5 -25t-26.5 -67t23 -66t79 -35l33 -7
q65 44 65 108q0 38 -27 65t-75 27zM288 321l-38 9q-39 -22 -60 -51.5t-21 -76.5q0 -51 35 -83t95 -32q68 0 100.5 34.5t32.5 81.5q0 53 -35.5 77t-108.5 41z" />
    <glyph glyph-name="nine.tf" 
d="M298 717q118 0 188.5 -80.5t70.5 -252.5q0 -200 -70.5 -300.5t-205.5 -100.5q-79 0 -138 36.5t-90 101.5l111 46q39 -82 119 -82q135 0 143 235q-57 -82 -163 -82q-90 0 -152.5 63.5t-62.5 171.5q0 110 71.5 177t178.5 67zM301 613q-52 0 -85.5 -36.5t-33.5 -101.5
q0 -58 30 -95.5t85 -37.5q54 0 86.5 37t32.5 97q0 66 -31 101.5t-84 35.5z" />
    <glyph glyph-name="cent.tf" 
d="M445 176l100 -36q-26 -64 -77.5 -103.5t-123.5 -47.5v-138h-77v138q-101 13 -157 87.5t-56 186.5q0 113 56 187t157 87v131h77v-130q68 -7 118.5 -43.5t75.5 -94.5l-98 -40q-16 38 -40 59t-63 26v-363q77 11 108 94zM173 265q0 -163 102 -182v361q-102 -20 -102 -179z
" />
    <glyph glyph-name="sterling.tf" 
d="M339 717q76 0 128 -40.5t75 -108.5l-118 -32q-10 43 -30 63t-56 20q-38 0 -61 -27.5t-23 -76.5v-142h182v-72h-182v-72q0 -46 -9 -74t-36 -50h307v-105h-430l-15 97q36 14 49 42.5t13 86.5v75h-77v72h77v149q0 82 53 138.5t153 56.5z" />
    <glyph glyph-name="yen.tf" 
d="M573 700l-189 -354h121v-72h-146v-58h146v-72h-146v-144h-119v144h-146v72h146v58h-146v72h120l-188 354h142l133 -305l134 305h138z" />
    <glyph glyph-name="uni0394.tf" 
d="M384 700l203 -700h-573l201 700h169zM175 109h243l-121 481z" />
    <glyph glyph-name="uni2007.tf" 
 />
    <glyph glyph-name="figuredash.tf" 
d="M562 368v-110h-523v110h523z" />
    <glyph glyph-name="Euro.tf" horiz-adv-x="584" 
d="M377 717q116 0 192 -75l-40 -103q-65 76 -145 76q-124 0 -153 -163h272l-24 -72h-256q-2 -33 0 -65h237l-24 -72h-207q21 -159 151 -159q78 0 151 66v-116q-76 -51 -164 -51q-222 0 -260 260h-93l24 72h63v65h-80l24 72h64q22 132 94 198.5t174 66.5z" />
    <glyph glyph-name="dollar.lf" horiz-adv-x="679" 
d="M392 823v-118q146 -17 235 -122l-94 -71q-55 73 -147 86v-191q139 -28 194.5 -74.5t55.5 -132.5q0 -91 -64 -148.5t-180 -67.5v-133h-85v134q-172 13 -267 130l94 77q79 -89 180 -100v210q-125 25 -181 77t-56 134q0 81 62.5 133t167.5 60v117h85zM313 423v177
q-48 -5 -74.5 -27t-26.5 -56q0 -37 19.5 -58t81.5 -36zM386 287v-195q54 5 83.5 31t29.5 68q0 34 -21.5 57t-91.5 39z" />
    <glyph glyph-name="zero.lf" horiz-adv-x="612" 
d="M306 -15q-129 0 -206 93.5t-77 264.5t77 262.5t206 91.5t206 -91.5t77 -262.5t-77 -264.5t-206 -93.5zM306 92q71 0 110.5 66.5t39.5 184.5q0 123 -39 186t-111 63q-73 0 -112 -63t-39 -186q0 -118 39.5 -184.5t111.5 -66.5z" />
    <glyph glyph-name="one.lf" horiz-adv-x="474" 
d="M59 0v105h162v354h-164v91h23q86 0 121 33.5t47 100.5h101v-579h136v-105h-426z" />
    <glyph glyph-name="two.lf" horiz-adv-x="608" 
d="M310 697q107 0 169 -58t62 -150q0 -101 -76.5 -190.5t-234.5 -193.5h320v-105h-492v102q199 143 274 223.5t75 163.5q0 50 -26 76.5t-75 26.5q-115 0 -118 -134h-131q1 102 66.5 170.5t186.5 68.5z" />
    <glyph glyph-name="three.lf" horiz-adv-x="603" 
d="M301 697q113 0 174 -51t61 -134q0 -56 -35 -95.5t-93 -52.5q60 -8 105 -52t45 -112q0 -97 -73.5 -156t-187.5 -59q-104 0 -174.5 51.5t-92.5 141.5l124 28q11 -51 47.5 -83.5t93.5 -32.5t92.5 29.5t35.5 83.5q0 51 -32.5 79t-86.5 28h-75v94h63q46 0 79 22t33 73
q0 49 -31 72t-76 23q-101 0 -127 -98l-124 21q17 76 85 128t170 52z" />
    <glyph glyph-name="four.lf" horiz-adv-x="638" 
d="M502 684v-439h102v-106h-102v-139h-127v139h-344v109l307 436h164zM375 551l-210 -306h210v306z" />
    <glyph glyph-name="five.lf" horiz-adv-x="610" 
d="M294 -15q-100 0 -164.5 49t-87.5 117l117 34q12 -42 49 -69t88 -27q62 0 97.5 42.5t35.5 103.5q0 66 -34 102.5t-93 36.5q-78 0 -125 -67l-111 16l49 361h410l-17 -105h-291l-20 -157q59 55 145 55q90 0 155 -64.5t65 -166.5q0 -114 -71.5 -187.5t-196.5 -73.5z" />
    <glyph glyph-name="six.lf" horiz-adv-x="578" 
d="M304 697q160 0 225 -145l-116 -36q-30 82 -108 82q-63 0 -100.5 -60t-45.5 -170q62 86 167 86q94 0 157 -62.5t63 -168.5t-70.5 -172t-179.5 -66q-118 0 -191.5 81.5t-73.5 245.5q0 181 74 283t199 102zM294 352q-55 0 -88.5 -37t-33.5 -95t34 -95.5t87 -37.5
q55 0 88.5 36.5t33.5 98.5q0 57 -31.5 93.5t-89.5 36.5z" />
    <glyph glyph-name="seven.lf" horiz-adv-x="521" 
d="M501 684v-102q-116 -134 -169.5 -264t-72.5 -318h-138q21 203 81.5 331.5t173.5 248.5h-244v-79h-110v183h479z" />
    <glyph glyph-name="eight.lf" horiz-adv-x="589" 
d="M292 697q114 0 176 -55t62 -129q0 -53 -27.5 -85t-77.5 -54q63 -23 102 -69t39 -110q0 -37 -14 -71.5t-43.5 -67t-85.5 -52t-131 -19.5q-70 0 -124 18.5t-84.5 49.5t-45.5 66t-15 73q0 59 34 102.5t92 67.5q-50 29 -70.5 65t-20.5 87q0 73 60.5 128t173.5 55zM293 599
q-48 0 -77.5 -24.5t-29.5 -65.5q0 -37 25 -57.5t84 -37.5l34 -10q74 45 74 105q0 36 -29.5 63t-80.5 27zM281 313l-34 11q-92 -46 -92 -124q0 -48 37.5 -80.5t100.5 -32.5q73 0 107.5 34.5t34.5 79.5q0 12 -2 21.5t-8 18t-10.5 15t-16 13t-18 10t-22.5 9.5t-23 8t-27 8.5
t-27 8.5z" />
    <glyph glyph-name="nine.lf" horiz-adv-x="611" 
d="M299 718q120 0 192.5 -79.5t72.5 -250.5q0 -202 -72 -304.5t-209 -102.5q-167 0 -237 138l106 48q43 -83 131 -83q73 0 109.5 65t40.5 175q-59 -83 -166 -83q-92 0 -156.5 65t-64.5 171q0 110 71.5 175.5t181.5 65.5zM302 615q-55 0 -89.5 -35.5t-34.5 -100.5
q0 -56 32 -94.5t90 -38.5q54 0 87.5 38t33.5 96q0 65 -33 100t-86 35z" />
    <glyph glyph-name="cent.lf" horiz-adv-x="619" 
d="M454 176l100 -36q-26 -64 -77.5 -103.5t-123.5 -47.5v-138h-77v138q-101 13 -157 87.5t-56 186.5q0 113 56 187t157 87v131h77v-130q68 -7 118.5 -43.5t75.5 -94.5l-98 -40q-16 38 -40 59t-63 26v-363q77 11 108 94zM182 265q0 -163 102 -182v361q-102 -20 -102 -179z
" />
    <glyph glyph-name="sterling.lf" horiz-adv-x="679" 
d="M381 717q82 0 136.5 -40t78.5 -108l-118 -36q-12 43 -35 63t-63 20q-43 0 -70 -27.5t-27 -75.5v-140h202v-72h-202v-72q0 -45 -9.5 -72t-37.5 -49h332v-108h-459l-15 97q39 16 52.5 43.5t13.5 86.5v74h-83v72h83v149q0 82 57.5 138.5t163.5 56.5z" />
    <glyph glyph-name="yen.lf" horiz-adv-x="679" 
d="M644 700l-209 -354h125v-72h-157v-58h157v-72h-157v-144h-132v144h-157v72h157v58h-157v72h124l-208 354h151l158 -305l158 305h147z" />
    <glyph glyph-name="uni0394.lf" horiz-adv-x="636" 
d="M385 681l230 -681h-629l230 681h169zM155 109h284l-142 473z" />
    <glyph glyph-name="figuredash.lf" 
d="M562 368v-110h-523v110h523z" />
    <glyph glyph-name="Euro.lf" horiz-adv-x="679" 
d="M422 717q122 0 204 -75l-41 -110q-70 76 -158 76q-133 0 -165 -156h293l-25 -72h-277q-2 -44 0 -65h254l-25 -72h-222q12 -75 49.5 -112.5t113.5 -37.5q86 0 164 66v-125q-81 -51 -175 -51q-243 0 -282 260h-101l25 72h70q-2 32 0 65h-88l25 72h70q23 131 102 198t189 67
z" />
    <glyph glyph-name="dollar.tosf" 
d="M352 834v-118q116 -18 189 -115l-80 -64q-46 63 -115 79v-211q110 -29 156 -74.5t46 -130.5q0 -89 -53 -147t-143 -69v-133h-84v134q-143 14 -219 124l90 69q51 -81 134 -95v231q-101 27 -147.5 76.5t-46.5 127.5q0 85 50.5 137t138.5 62v117h84zM272 424v195
q-38 -7 -57.5 -33t-19.5 -64q0 -35 17 -58.5t60 -39.5zM345 296v-213q41 7 63.5 36.5t22.5 71.5q0 36 -18.5 62t-67.5 43z" />
    <glyph glyph-name="zero.tosf" 
d="M300 595q122 0 195.5 -82.5t73.5 -224.5q0 -139 -73.5 -220t-195.5 -81t-195.5 81t-73.5 220q0 142 73.5 224.5t195.5 82.5zM300 492q-65 0 -101.5 -54t-36.5 -151q0 -92 36.5 -144t101.5 -52t101.5 51.5t36.5 144.5q0 96 -36.5 150.5t-101.5 54.5z" />
    <glyph glyph-name="one.tosf" 
d="M109 0v105h162v247h-164v91h23q85 0 120.5 34t47.5 101h101v-473h136v-105h-426z" />
    <glyph glyph-name="two.tosf" 
d="M306 591q102 0 164.5 -52.5t62.5 -134.5q0 -90 -61 -153.5t-217 -145.5h284v-105h-476v102q206 122 270 177.5t64 117.5q0 43 -25.5 67t-68.5 24q-54 0 -83.5 -32.5t-29.5 -83.5h-129q3 90 67.5 154.5t177.5 64.5z" />
    <glyph glyph-name="three.tosf" 
d="M309 595q110 0 169.5 -52t59.5 -136q0 -62 -34.5 -103.5t-90.5 -53.5q60 -9 103 -54.5t43 -119.5q0 -102 -71.5 -162.5t-182.5 -60.5q-100 0 -170.5 51.5t-92.5 142.5l119 28q12 -55 48 -86.5t93 -31.5q56 0 91 31.5t35 91.5q0 55 -32 85.5t-86 30.5h-76v94h63
q46 0 78.5 24t32.5 82q0 49 -30 73.5t-75 24.5q-103 0 -128 -105l-119 21q17 81 84.5 133t168.5 52z" />
    <glyph glyph-name="four.tosf" 
d="M476 578v-474h100v-104h-100v-130h-126v130h-325v107l288 471h163zM350 439l-198 -335h198v335z" />
    <glyph glyph-name="five.tosf" 
d="M526 578l-16 -105h-290l-21 -165q58 55 144 55q90 0 155 -65t65 -170q0 -124 -71 -199.5t-197 -75.5q-100 0 -164.5 49.5t-87.5 117.5l117 34q12 -43 48.5 -70t88.5 -27q63 0 98 44.5t35 116.5q0 67 -34 103t-93 36q-79 0 -125 -66l-111 16l49 371h410z" />
    <glyph glyph-name="six.tosf" 
d="M310 697q160 0 225 -145l-116 -36q-30 82 -108 82q-63 0 -100.5 -60t-45.5 -170q62 86 167 86q94 0 157 -62.5t63 -168.5t-70.5 -172t-179.5 -66q-118 0 -191.5 81.5t-73.5 245.5q0 181 74 283t199 102zM300 352q-55 0 -88.5 -37t-33.5 -95t34 -95.5t87 -37.5
q55 0 88.5 36.5t33.5 98.5q0 57 -31.5 93.5t-89.5 36.5z" />
    <glyph glyph-name="seven.tosf" 
d="M550 578v-106q-117 -144 -179.5 -280t-82.5 -322h-137q10 106 36 195.5t67 163t82 127t99 116.5h-263v-80h-111v186h489z" />
    <glyph glyph-name="eight.tosf" 
d="M298 697q106 0 164.5 -54t58.5 -126q0 -100 -105 -148q139 -44 139 -177q0 -38 -13.5 -72.5t-41.5 -66t-80 -50t-122 -18.5q-65 0 -115.5 18t-79.5 48t-43.5 64t-14.5 70q0 63 35 109.5t94 69.5q-95 55 -95 151q0 73 56.5 127.5t162.5 54.5zM299 599q-43 0 -69 -24
t-26 -64q0 -74 95 -100l31 -9q66 48 66 111q0 36 -25.5 61t-71.5 25zM290 310l-33 12q-83 -45 -83 -131q0 -44 34 -74t90 -30q63 0 94.5 32t31.5 74q0 26 -8.5 45t-29.5 32t-40 21t-56 19z" />
    <glyph glyph-name="nine.tosf" 
d="M296 595q119 0 191.5 -80t72.5 -253q0 -205 -72 -307t-209 -102q-168 0 -237 139l109 46q41 -83 129 -83q72 0 110 66.5t43 177.5q-61 -85 -170 -85q-92 0 -156.5 65.5t-64.5 172.5q0 110 72 176.5t182 66.5zM299 492q-55 0 -90 -36t-35 -102q0 -58 31.5 -97t90.5 -39
q54 0 87.5 39t33.5 98q0 66 -33 101.5t-85 35.5z" />
    <glyph glyph-name="cent.tosf" 
d="M445 176l100 -36q-26 -64 -77.5 -103.5t-123.5 -47.5v-138h-77v138q-101 13 -157 87.5t-56 186.5q0 113 56 187t157 87v131h77v-130q68 -7 118.5 -43.5t75.5 -94.5l-98 -40q-16 38 -40 59t-63 26v-363q77 11 108 94zM173 265q0 -163 102 -182v361q-102 -20 -102 -179z
" />
    <glyph glyph-name="sterling.tosf" 
d="M339 717q76 0 128 -40.5t75 -108.5l-118 -32q-10 43 -30 63t-56 20q-38 0 -61 -27.5t-23 -76.5v-142h182v-72h-182v-72q0 -46 -9 -74t-36 -50h307v-105h-430l-15 97q36 14 49 42.5t13 86.5v75h-77v72h77v149q0 82 53 138.5t153 56.5z" />
    <glyph glyph-name="yen.tosf" 
d="M573 700l-189 -354h121v-72h-146v-58h146v-72h-146v-144h-119v144h-146v72h146v58h-146v72h120l-188 354h142l133 -305l134 305h138z" />
    <glyph glyph-name="uni0394.tosf" 
d="M385 681l202 -681h-572l201 681h169zM176 109h243l-122 466z" />
    <glyph glyph-name="uni2007.tosf" 
 />
    <glyph glyph-name="figuredash.tosf" 
d="M562 328v-110h-523v110h523z" />
    <glyph glyph-name="Euro.tosf" 
d="M385 717q116 0 192 -75l-40 -103q-65 76 -145 76q-124 0 -153 -163h272l-24 -72h-256q-2 -33 0 -65h237l-24 -72h-207q21 -159 151 -159q78 0 151 66v-116q-76 -51 -164 -51q-222 0 -260 260h-93l24 72h63v65h-80l24 72h64q22 132 94 198.5t174 66.5z" />
    <glyph glyph-name="numbersign.sc" 
d="M544 346h-86l-17 -114h73v-86h-85l-21 -146h-101l21 146h-98l-21 -146h-100l21 146h-75v86h87l17 114h-74v86h86l21 146h101l-21 -146h98l21 146h100l-21 -146h74v-86zM341 232l16 114h-98l-16 -114h98z" />
    <glyph glyph-name="dollar.sc" 
d="M349 700v-111q129 -16 210 -118l-91 -64q-53 71 -126 82v-146q125 -28 174 -66t49 -111q0 -74 -57.5 -123.5t-158.5 -57.5v-133h-78v133q-156 11 -238 122l82 72q71 -86 163 -96v163q-116 24 -165.5 64.5t-49.5 111.5t56 116.5t152 51.5v110h78zM278 357v134
q-91 -4 -91 -62q0 -25 17 -41t74 -31zM343 233v-149q49 3 73 23t24 50q0 29 -18.5 45.5t-78.5 30.5z" />
    <glyph glyph-name="percent.sc" horiz-adv-x="1009" 
d="M222 591q77 0 130.5 -54.5t53.5 -145.5t-53.5 -145t-130.5 -54t-130.5 54t-53.5 145t53.5 145.5t130.5 54.5zM732 587l-354 -598h-101l356 598h99zM223 513q-43 0 -65 -32.5t-22 -89.5q0 -56 22 -88.5t65 -32.5q42 0 64 32.5t22 88.5q0 57 -22 89.5t-64 32.5zM786 386
q76 0 130 -55t54 -145q0 -92 -53.5 -146t-130.5 -54t-130.5 54t-53.5 146q0 90 54 145t130 55zM786 307q-43 0 -65 -32.5t-22 -88.5t22 -88.5t65 -32.5q42 0 64 32.5t22 88.5t-22 88.5t-64 32.5z" />
    <glyph glyph-name="a.sc" horiz-adv-x="570" 
d="M428 0l-30 94h-233l-30 -94h-132l199 578h164l199 -578h-137zM281 486l-87 -296h175z" />
    <glyph glyph-name="b.sc" horiz-adv-x="589" 
d="M440 313q124 -27 124 -144q0 -77 -59 -123t-180 -46h-251v578h217q240 0 240 -152q0 -43 -25.5 -72t-65.5 -41zM304 476h-103v-127h117q82 0 82 65q0 33 -23 47.5t-73 14.5zM201 103h133q96 0 96 72q0 81 -98 81h-131v-153z" />
    <glyph glyph-name="c.sc" horiz-adv-x="652" 
d="M335 592q88 0 159 -40.5t106 -129.5l-122 -35q-39 98 -142 98q-75 0 -117.5 -51t-42.5 -144t41 -145.5t121 -52.5q111 0 153 113l123 -38q-36 -89 -110.5 -135t-169.5 -46q-54 0 -103.5 16.5t-92.5 51t-68.5 95.5t-25.5 141q0 78 24.5 137.5t66.5 94.5t92.5 52.5
t107.5 17.5z" />
    <glyph glyph-name="d.sc" horiz-adv-x="633" 
d="M74 578h199q139 0 227.5 -69.5t88.5 -212.5q0 -81 -25.5 -141t-68.5 -92.5t-92 -47.5t-104 -15h-225v578zM277 472h-77v-366h98q159 0 159 190q0 176 -180 176z" />
    <glyph glyph-name="e.sc" horiz-adv-x="531" 
d="M478 578v-105h-277v-128h259v-102h-259v-138h284v-105h-411v578h404z" />
    <glyph glyph-name="f.sc" horiz-adv-x="503" 
d="M469 578v-105h-268v-142h247v-102h-247v-229h-127v578h395z" />
    <glyph glyph-name="g.sc" horiz-adv-x="663" 
d="M335 592q90 0 158 -37t102 -112l-118 -45q-39 90 -141 90q-77 0 -118.5 -53t-41.5 -148q0 -94 40 -145.5t121 -51.5q64 0 103 32.5t39 88.5v13h-137v97h264v-321h-120v54q-63 -68 -166 -68q-52 0 -99 16t-88 50t-65 94t-24 140q0 78 24 138.5t65.5 96t92.5 53.5t109 18z
" />
    <glyph glyph-name="h.sc" horiz-adv-x="654" 
d="M580 578v-578h-128v247h-251v-247h-127v578h127v-226h251v226h128z" />
    <glyph glyph-name="i.sc" horiz-adv-x="326" 
d="M290 578v-103h-64v-373h64v-102h-255v102h64v373h-64v103h255z" />
    <glyph glyph-name="j.sc" horiz-adv-x="369" 
d="M304 578v-392q0 -93 -44 -142t-151 -49q-38 0 -88 5v104q16 -1 48 -1q64 0 86.5 18.5t22.5 71.5v385h126z" />
    <glyph glyph-name="k.sc" horiz-adv-x="614" 
d="M459 0l-178 252l-80 -84v-168h-127v578h127v-254l231 254h156l-221 -237l246 -341h-154z" />
    <glyph glyph-name="l.sc" horiz-adv-x="487" 
d="M201 578v-468h266v-110h-393v578h127z" />
    <glyph glyph-name="m.sc" horiz-adv-x="749" 
d="M659 578l39 -578h-120l-29 439l-108 -439h-138l-109 439l-29 -439h-117l40 578h183l102 -440l103 440h183z" />
    <glyph glyph-name="n.sc" horiz-adv-x="645" 
d="M571 578v-578h-141l-238 385v-385h-118v578h140l239 -399v399h118z" />
    <glyph glyph-name="o.sc" horiz-adv-x="685" 
d="M343 592q55 0 105 -16t95 -50t71.5 -95t26.5 -143q0 -149 -87 -225.5t-211 -76.5q-55 0 -105.5 16.5t-95 50.5t-71.5 95t-27 142q0 78 25 137.5t68 94.5t95 52.5t111 17.5zM343 487q-77 0 -122 -52t-45 -145q0 -94 43 -146.5t124 -52.5q75 0 120.5 51.5t45.5 144.5
q0 94 -42.5 147t-123.5 53z" />
    <glyph glyph-name="p.sc" horiz-adv-x="573" 
d="M74 578h231q120 0 179 -53.5t59 -138.5q0 -91 -60 -142.5t-176 -51.5h-106v-192h-127v578zM201 294h112q98 0 98 92q0 41 -25 64t-71 23h-114v-179z" />
    <glyph glyph-name="q.sc" horiz-adv-x="692" 
d="M342 592q55 0 105.5 -16t95 -50t71.5 -95t27 -143q0 -148 -98 -229q44 -24 127 -38l-46 -117q-104 29 -169 103q-54 -21 -113 -21q-55 0 -105 16.5t-94.5 50.5t-71.5 95t-27 142q0 78 25 137.5t68 94.5t95 52.5t110 17.5zM342 487q-77 0 -122 -52t-45 -145
q0 -94 43 -146.5t124 -52.5q75 0 120.5 51.5t45.5 144.5q0 94 -42.5 147t-123.5 53z" />
    <glyph glyph-name="r.sc" horiz-adv-x="587" 
d="M74 578h229q118 0 177.5 -49t59.5 -129q0 -122 -127 -161l164 -239h-151l-139 218h-86v-218h-127v578zM313 475h-112v-158h108q98 0 98 81q0 77 -94 77z" />
    <glyph glyph-name="s.sc" horiz-adv-x="588" 
d="M289 592q160 0 259 -106l-93 -67q-65 70 -165 70q-48 0 -76 -16.5t-28 -46.5q0 -29 29 -45.5t119 -30.5q115 -19 166.5 -61.5t51.5 -119.5q0 -84 -68 -133.5t-188 -49.5q-176 0 -276 113l93 72q79 -82 186 -82q53 0 87 19t34 53t-30.5 51.5t-124.5 32.5
q-107 18 -158.5 60.5t-51.5 116.5q0 77 64 123.5t170 46.5z" />
    <glyph glyph-name="t.sc" horiz-adv-x="515" 
d="M493 578v-107h-173v-471h-126v471h-173v107h472z" />
    <glyph glyph-name="u.sc" horiz-adv-x="624" 
d="M558 578v-362q0 -99 -60.5 -164.5t-187.5 -65.5q-67 0 -116 19t-76.5 52.5t-40.5 73t-13 85.5v362h127v-363q0 -124 120 -124q121 0 121 124v363h126z" />
    <glyph glyph-name="v.sc" horiz-adv-x="536" 
d="M531 578l-186 -578h-155l-187 578h139l128 -464l129 464h132z" />
    <glyph glyph-name="w.sc" horiz-adv-x="755" 
d="M745 578l-131 -578h-142l-90 422l-83 -422h-147l-144 578h132l86 -441l88 441h139l90 -437l76 437h126z" />
    <glyph glyph-name="x.sc" horiz-adv-x="589" 
d="M364 315l220 -315h-158l-138 220l-1 1v-1l-132 -220h-152l210 307l1 1l-188 270h148l115 -181l111 181h144z" />
    <glyph glyph-name="y.sc" horiz-adv-x="551" 
d="M550 578l-212 -349v-229h-127v227l-212 351h145l132 -243l133 243h141z" />
    <glyph glyph-name="z.sc" horiz-adv-x="539" 
d="M498 578v-101l-309 -368h317v-109h-482v97l311 374h-289v107h452z" />
    <glyph glyph-name="cent.sc" 
d="M453 204l115 -36q-28 -77 -86.5 -122.5t-135.5 -56.5v-138h-87v138q-98 13 -162.5 86.5t-64.5 214.5q0 137 63.5 212t163.5 87v129h87v-129q155 -21 211 -169l-118 -33q-31 87 -101 101v-399q83 15 115 115zM158 290q0 -177 109 -200v398q-109 -25 -109 -198z" />
    <glyph glyph-name="sterling.sc" 
d="M344 591q79 0 132.5 -39.5t76.5 -104.5l-119 -36q-12 41 -33.5 61t-60.5 20q-40 0 -65.5 -26t-25.5 -73v-67h195v-69h-195v-43q0 -40 -10 -64t-36 -44h323v-106h-448l-14 95q37 15 49.5 39.5t12.5 75.5v47h-79v69h79v73q0 81 57.5 136.5t160.5 55.5z" />
    <glyph glyph-name="yen.sc" 
d="M573 578l-179 -296h126v-70h-156v-43h156v-70h-156v-99h-128v99h-153v70h153v43h-153v70h124l-180 296h144l131 -270l132 270h139z" />
    <glyph glyph-name="section.sc" horiz-adv-x="609" 
d="M325 591q124 0 206 -75l-69 -68q-57 51 -137 51q-83 0 -83 -44q0 -24 23 -36.5t96 -25.5q97 -18 143.5 -54t46.5 -101q0 -38 -21 -67t-68 -61q59 -38 59 -106q0 -67 -59 -107t-152 -40q-130 0 -215 77l69 68q60 -52 145 -52q88 0 88 44q0 24 -22 36.5t-93 25.5
q-98 18 -145.5 56t-47.5 103q0 38 20.5 67t67.5 61q-59 38 -59 103q0 67 57 106t150 39zM300 301l-45 9q-27 -28 -36.5 -44t-9.5 -36q0 -30 28.5 -47t103.5 -32l44 -8q28 27 37.5 44t9.5 37q0 29 -28 45t-104 32z" />
    <glyph glyph-name="degree.sc" horiz-adv-x="516" 
d="M258 656q78 0 135.5 -50.5t57.5 -133.5t-57.5 -133t-135.5 -50q-77 0 -135 51t-58 133q0 83 58 133t135 50zM258 570q-35 0 -60.5 -24.5t-25.5 -72.5t25.5 -72.5t60.5 -24.5t60.5 24.5t25.5 71.5t-25.5 72.5t-60.5 25.5z" />
    <glyph glyph-name="germandbls.sc" horiz-adv-x="1192" 
d="M289 592q160 0 259 -106l-93 -67q-65 70 -165 70q-48 0 -76 -16.5t-28 -46.5q0 -29 29 -45.5t119 -30.5q115 -19 166.5 -61.5t51.5 -119.5q0 -84 -68 -133.5t-188 -49.5q-176 0 -276 113l93 72q79 -82 186 -82q53 0 87 19t34 53t-30.5 51.5t-124.5 32.5
q-107 18 -158.5 60.5t-51.5 116.5q0 77 64 123.5t170 46.5zM893 592q160 0 259 -106l-93 -67q-65 70 -165 70q-48 0 -76 -16.5t-28 -46.5q0 -29 29 -45.5t119 -30.5q115 -19 166.5 -61.5t51.5 -119.5q0 -84 -68 -133.5t-188 -49.5q-176 0 -276 113l93 72q79 -82 186 -82
q53 0 87 19t34 53t-30.5 51.5t-124.5 32.5q-107 18 -158.5 60.5t-51.5 116.5q0 77 64 123.5t170 46.5z" />
    <glyph glyph-name="agrave.sc" horiz-adv-x="570" 
d="M428 0l-30 94h-233l-30 -94h-132l199 578h164l199 -578h-137zM281 486l-87 -296h175zM251 790l94 -146h-102l-152 146h160z" />
    <glyph glyph-name="aacute.sc" horiz-adv-x="570" 
d="M428 0l-30 94h-233l-30 -94h-132l199 578h164l199 -578h-137zM281 486l-87 -296h175zM478 790l-152 -146h-102l94 146h160z" />
    <glyph glyph-name="acircumflex.sc" horiz-adv-x="570" 
d="M428 0l-30 94h-233l-30 -94h-132l199 578h164l199 -578h-137zM281 486l-87 -296h175zM349 790l137 -146h-119l-82 74l-82 -74h-119l137 146h128z" />
    <glyph glyph-name="atilde.sc" horiz-adv-x="570" 
d="M428 0l-30 94h-233l-30 -94h-132l199 578h164l199 -578h-137zM281 486l-87 -296h175zM223 780q41 0 80 -25t49 -25q28 0 44 37h71q-7 -55 -39.5 -89.5t-81.5 -34.5q-32 0 -57.5 12.5t-43 25t-28.5 12.5q-29 0 -45 -37h-70q8 55 40 89.5t81 34.5z" />
    <glyph glyph-name="adieresis.sc" horiz-adv-x="570" 
d="M428 0l-30 94h-233l-30 -94h-132l199 578h164l199 -578h-137zM281 486l-87 -296h175zM172 790q29 0 51.5 -21.5t22.5 -50.5q0 -30 -22 -51.5t-52 -21.5t-52 21.5t-22 51.5q0 29 22.5 50.5t51.5 21.5zM399 790q29 0 51.5 -21.5t22.5 -50.5q0 -30 -22 -51.5t-52 -21.5
t-52 21.5t-22 51.5q0 29 22.5 50.5t51.5 21.5z" />
    <glyph glyph-name="aring.sc" horiz-adv-x="570" 
d="M428 0l-30 94h-233l-30 -94h-132l199 578h164l199 -578h-137zM281 486l-87 -296h175zM285 881q53 0 91 -34.5t38 -88.5t-38 -88.5t-91 -34.5t-91 34.5t-38 88.5t38 88.5t91 34.5zM286 810q-21 0 -35 -14t-14 -38q0 -25 14 -39t35 -14q20 0 34 14t14 39q0 24 -14 38
t-34 14z" />
    <glyph glyph-name="ae.sc" horiz-adv-x="840" 
d="M770 578v-105h-295l22 -128h259v-101h-241l23 -139h276v-105h-385l-14 89h-242l-43 -89h-137l297 578h480zM356 471l-138 -278h182z" />
    <glyph glyph-name="ccedilla.sc" horiz-adv-x="652" 
d="M335 592q88 0 159 -40.5t106 -129.5l-122 -35q-39 98 -142 98q-75 0 -117.5 -51t-42.5 -144t41 -145.5t121 -52.5q111 0 153 113l123 -38q-33 -83 -100.5 -128.5t-155.5 -51.5v-32q50 -4 79 -29t29 -60q0 -49 -38 -76.5t-99 -27.5q-67 0 -119 28l32 62q36 -17 71 -17
q52 0 52 33q0 23 -25.5 31t-78.5 8l14 84q-99 17 -165 90.5t-66 208.5q0 78 24.5 137.5t66.5 94.5t92.5 52.5t107.5 17.5z" />
    <glyph glyph-name="egrave.sc" horiz-adv-x="531" 
d="M478 578v-105h-277v-128h259v-102h-259v-138h284v-105h-411v578h404zM242 790l94 -146h-102l-152 146h160z" />
    <glyph glyph-name="eacute.sc" horiz-adv-x="531" 
d="M478 578v-105h-277v-128h259v-102h-259v-138h284v-105h-411v578h404zM469 790l-152 -146h-102l94 146h160z" />
    <glyph glyph-name="ecircumflex.sc" horiz-adv-x="531" 
d="M478 578v-105h-277v-128h259v-102h-259v-138h284v-105h-411v578h404zM340 790l137 -146h-119l-82 74l-82 -74h-119l137 146h128z" />
    <glyph glyph-name="edieresis.sc" horiz-adv-x="531" 
d="M478 578v-105h-277v-128h259v-102h-259v-138h284v-105h-411v578h404zM163 790q29 0 51.5 -21.5t22.5 -50.5q0 -30 -22 -51.5t-52 -21.5t-52 21.5t-22 51.5q0 29 22.5 50.5t51.5 21.5zM390 790q29 0 51.5 -21.5t22.5 -50.5q0 -30 -22 -51.5t-52 -21.5t-52 21.5t-22 51.5
q0 29 22.5 50.5t51.5 21.5z" />
    <glyph glyph-name="igrave.sc" horiz-adv-x="326" 
d="M290 578v-103h-64v-373h64v-102h-255v102h64v373h-64v103h255zM129 790l94 -146h-102l-152 146h160z" />
    <glyph glyph-name="iacute.sc" horiz-adv-x="326" 
d="M290 578v-103h-64v-373h64v-102h-255v102h64v373h-64v103h255zM356 790l-152 -146h-102l94 146h160z" />
    <glyph glyph-name="icircumflex.sc" horiz-adv-x="326" 
d="M290 578v-103h-64v-373h64v-102h-255v102h64v373h-64v103h255zM227 790l137 -146h-119l-82 74l-82 -74h-119l137 146h128z" />
    <glyph glyph-name="idieresis.sc" horiz-adv-x="326" 
d="M290 578v-103h-64v-373h64v-102h-255v102h64v373h-64v103h255zM50 790q29 0 51.5 -21.5t22.5 -50.5q0 -30 -22 -51.5t-52 -21.5t-52 21.5t-22 51.5q0 29 22.5 50.5t51.5 21.5zM277 790q29 0 51.5 -21.5t22.5 -50.5q0 -30 -22 -51.5t-52 -21.5t-52 21.5t-22 51.5
q0 29 22.5 50.5t51.5 21.5z" />
    <glyph glyph-name="eth.sc" horiz-adv-x="640" 
d="M81 578h199q139 0 227.5 -69.5t88.5 -212.5q0 -81 -25.5 -141t-68.5 -92.5t-92 -47.5t-104 -15h-225v260h-72v84h72v234zM207 106h98q159 0 159 190q0 176 -180 176h-77v-128h161v-84h-161v-154z" />
    <glyph glyph-name="ntilde.sc" horiz-adv-x="645" 
d="M571 578v-578h-141l-238 385v-385h-118v578h140l239 -399v399h118zM261 780q41 0 80 -25t49 -25q28 0 44 37h71q-7 -55 -39.5 -89.5t-81.5 -34.5q-32 0 -57.5 12.5t-43 25t-28.5 12.5q-29 0 -45 -37h-70q8 55 40 89.5t81 34.5z" />
    <glyph glyph-name="ograve.sc" horiz-adv-x="685" 
d="M343 592q55 0 105 -16t95 -50t71.5 -95t26.5 -143q0 -149 -87 -225.5t-211 -76.5q-55 0 -105.5 16.5t-95 50.5t-71.5 95t-27 142q0 78 25 137.5t68 94.5t95 52.5t111 17.5zM343 487q-77 0 -122 -52t-45 -145q0 -94 43 -146.5t124 -52.5q75 0 120.5 51.5t45.5 144.5
q0 94 -42.5 147t-123.5 53zM309 790l94 -146h-102l-152 146h160z" />
    <glyph glyph-name="oacute.sc" horiz-adv-x="685" 
d="M343 592q55 0 105 -16t95 -50t71.5 -95t26.5 -143q0 -149 -87 -225.5t-211 -76.5q-55 0 -105.5 16.5t-95 50.5t-71.5 95t-27 142q0 78 25 137.5t68 94.5t95 52.5t111 17.5zM343 487q-77 0 -122 -52t-45 -145q0 -94 43 -146.5t124 -52.5q75 0 120.5 51.5t45.5 144.5
q0 94 -42.5 147t-123.5 53zM536 790l-152 -146h-102l94 146h160z" />
    <glyph glyph-name="ocircumflex.sc" horiz-adv-x="685" 
d="M343 592q55 0 105 -16t95 -50t71.5 -95t26.5 -143q0 -149 -87 -225.5t-211 -76.5q-55 0 -105.5 16.5t-95 50.5t-71.5 95t-27 142q0 78 25 137.5t68 94.5t95 52.5t111 17.5zM343 487q-77 0 -122 -52t-45 -145q0 -94 43 -146.5t124 -52.5q75 0 120.5 51.5t45.5 144.5
q0 94 -42.5 147t-123.5 53zM407 790l137 -146h-119l-82 74l-82 -74h-119l137 146h128z" />
    <glyph glyph-name="otilde.sc" horiz-adv-x="685" 
d="M343 592q55 0 105 -16t95 -50t71.5 -95t26.5 -143q0 -149 -87 -225.5t-211 -76.5q-55 0 -105.5 16.5t-95 50.5t-71.5 95t-27 142q0 78 25 137.5t68 94.5t95 52.5t111 17.5zM343 487q-77 0 -122 -52t-45 -145q0 -94 43 -146.5t124 -52.5q75 0 120.5 51.5t45.5 144.5
q0 94 -42.5 147t-123.5 53zM281 780q41 0 80 -25t49 -25q28 0 44 37h71q-7 -55 -39.5 -89.5t-81.5 -34.5q-32 0 -57.5 12.5t-43 25t-28.5 12.5q-29 0 -45 -37h-70q8 55 40 89.5t81 34.5z" />
    <glyph glyph-name="odieresis.sc" horiz-adv-x="685" 
d="M343 592q55 0 105 -16t95 -50t71.5 -95t26.5 -143q0 -149 -87 -225.5t-211 -76.5q-55 0 -105.5 16.5t-95 50.5t-71.5 95t-27 142q0 78 25 137.5t68 94.5t95 52.5t111 17.5zM343 487q-77 0 -122 -52t-45 -145q0 -94 43 -146.5t124 -52.5q75 0 120.5 51.5t45.5 144.5
q0 94 -42.5 147t-123.5 53zM230 790q29 0 51.5 -21.5t22.5 -50.5q0 -30 -22 -51.5t-52 -21.5t-52 21.5t-22 51.5q0 29 22.5 50.5t51.5 21.5zM457 790q29 0 51.5 -21.5t22.5 -50.5q0 -30 -22 -51.5t-52 -21.5t-52 21.5t-22 51.5q0 29 22.5 50.5t51.5 21.5z" />
    <glyph glyph-name="oslash.sc" horiz-adv-x="685" 
d="M633 662l-88 -140q96 -79 96 -234q0 -149 -87 -225.5t-211 -76.5q-68 0 -124 24l-61 -96h-105l90 140q-99 82 -99 236q0 78 25 137.5t68 94.5t95 52.5t111 17.5q65 0 127 -25l59 95h104zM343 488q-78 0 -123 -52t-45 -146t36 -143l209 327q-34 14 -77 14zM475 426
l-206 -323q30 -13 73 -13q76 0 122 52t46 145q0 89 -35 139z" />
    <glyph glyph-name="ugrave.sc" horiz-adv-x="624" 
d="M558 578v-362q0 -99 -60.5 -164.5t-187.5 -65.5q-67 0 -116 19t-76.5 52.5t-40.5 73t-13 85.5v362h127v-363q0 -124 120 -124q121 0 121 124v363h126zM278 790l94 -146h-102l-152 146h160z" />
    <glyph glyph-name="uacute.sc" horiz-adv-x="624" 
d="M558 578v-362q0 -99 -60.5 -164.5t-187.5 -65.5q-67 0 -116 19t-76.5 52.5t-40.5 73t-13 85.5v362h127v-363q0 -124 120 -124q121 0 121 124v363h126zM505 790l-152 -146h-102l94 146h160z" />
    <glyph glyph-name="ucircumflex.sc" horiz-adv-x="624" 
d="M558 578v-362q0 -99 -60.5 -164.5t-187.5 -65.5q-67 0 -116 19t-76.5 52.5t-40.5 73t-13 85.5v362h127v-363q0 -124 120 -124q121 0 121 124v363h126zM376 790l137 -146h-119l-82 74l-82 -74h-119l137 146h128z" />
    <glyph glyph-name="udieresis.sc" horiz-adv-x="624" 
d="M558 578v-362q0 -99 -60.5 -164.5t-187.5 -65.5q-67 0 -116 19t-76.5 52.5t-40.5 73t-13 85.5v362h127v-363q0 -124 120 -124q121 0 121 124v363h126zM199 790q29 0 51.5 -21.5t22.5 -50.5q0 -30 -22 -51.5t-52 -21.5t-52 21.5t-22 51.5q0 29 22.5 50.5t51.5 21.5z
M426 790q29 0 51.5 -21.5t22.5 -50.5q0 -30 -22 -51.5t-52 -21.5t-52 21.5t-22 51.5q0 29 22.5 50.5t51.5 21.5z" />
    <glyph glyph-name="yacute.sc" horiz-adv-x="551" 
d="M550 578l-212 -349v-229h-127v227l-212 351h145l132 -243l133 243h141zM468 790l-152 -146h-102l94 146h160z" />
    <glyph glyph-name="thorn.sc" horiz-adv-x="573" 
d="M201 578v-92h104q120 0 179 -53t59 -140q0 -92 -59.5 -144.5t-176.5 -52.5h-106v-96h-127v578h127zM315 382h-114v-184h111q99 0 99 95q0 42 -25 65.5t-71 23.5z" />
    <glyph glyph-name="ydieresis.sc" horiz-adv-x="551" 
d="M550 578l-212 -349v-229h-127v227l-212 351h145l132 -243l133 243h141zM162 790q29 0 51.5 -21.5t22.5 -50.5q0 -30 -22 -51.5t-52 -21.5t-52 21.5t-22 51.5q0 29 22.5 50.5t51.5 21.5zM389 790q29 0 51.5 -21.5t22.5 -50.5q0 -30 -22 -51.5t-52 -21.5t-52 21.5t-22 51.5
q0 29 22.5 50.5t51.5 21.5z" />
    <glyph glyph-name="dotlessi.sc" horiz-adv-x="326" 
d="M290 578v-103h-64v-373h64v-102h-255v102h64v373h-64v103h255z" />
    <glyph glyph-name="ij.sc" horiz-adv-x="711" 
d="M290 578v-103h-64v-373h64v-102h-255v102h64v373h-64v103h255zM646 578v-392q0 -93 -44 -142t-151 -49q-38 0 -88 5v104q16 -1 48 -1q64 0 86.5 18.5t22.5 71.5v385h126z" />
    <glyph glyph-name="lslash.sc" horiz-adv-x="494" 
d="M208 110h266v-110h-393v220l-72 -38v90l72 38v268h127v-202l135 71v-89l-135 -71v-177z" />
    <glyph glyph-name="oe.sc" horiz-adv-x="877" 
d="M347 592q51 0 107 -14h370v-105h-268v-128h250v-101h-250v-139h275v-105h-381q-54 -14 -106 -14q-54 0 -104.5 16.5t-95.5 50t-72.5 95t-27.5 142.5q0 78 25.5 137.5t69.5 94.5t96.5 52.5t111.5 17.5zM346 487q-77 0 -123.5 -52t-46.5 -145q0 -94 44.5 -146.5
t125.5 -52.5q46 0 83 14v368q-40 14 -83 14z" />
    <glyph glyph-name="scaron.sc" horiz-adv-x="588" 
d="M289 592q160 0 259 -106l-93 -67q-65 70 -165 70q-48 0 -76 -16.5t-28 -46.5q0 -29 29 -45.5t119 -30.5q115 -19 166.5 -61.5t51.5 -119.5q0 -84 -68 -133.5t-188 -49.5q-176 0 -276 113l93 72q79 -82 186 -82q53 0 87 19t34 53t-30.5 51.5t-124.5 32.5
q-107 18 -158.5 60.5t-51.5 116.5q0 77 64 123.5t170 46.5zM498 800l-137 -146h-128l-137 146h119l82 -74l82 74h119z" />
    <glyph glyph-name="zcaron.sc" horiz-adv-x="539" 
d="M498 578v-101l-309 -368h317v-109h-482v97l311 374h-289v107h452zM467 800l-137 -146h-128l-137 146h119l82 -74l82 74h119z" />
    <glyph glyph-name="longs.sc" horiz-adv-x="588" 
d="M289 592q160 0 259 -106l-93 -67q-65 70 -165 70q-48 0 -76 -16.5t-28 -46.5q0 -29 29 -45.5t119 -30.5q115 -19 166.5 -61.5t51.5 -119.5q0 -84 -68 -133.5t-188 -49.5q-176 0 -276 113l93 72q79 -82 186 -82q53 0 87 19t34 53t-30.5 51.5t-124.5 32.5
q-107 18 -158.5 60.5t-51.5 116.5q0 77 64 123.5t170 46.5z" />
    <glyph glyph-name="florin.sc" horiz-adv-x="327" 
d="M222 591q59 0 113 -18v-96q-48 16 -91 16q-35 0 -50.5 -12t-15.5 -44v-37h134v-94h-134v-322q0 -84 -45.5 -125t-112.5 -41q-41 0 -68 7v96q12 -1 21 -1q45 0 61 19.5t16 81.5v285h-72v94h72v54q0 61 42.5 99t129.5 38z" />
    <glyph glyph-name="uni0394.sc" horiz-adv-x="570" 
d="M366 578l199 -578h-562l199 578h164zM282 480l-118 -384h236z" />
    <glyph glyph-name="uni03A9.sc" horiz-adv-x="694" 
d="M346 592q79 0 145 -29.5t110 -95t44 -157.5q0 -141 -122 -206h118v-104h-246v104q52 23 85 76t33 126q0 85 -45.5 133.5t-121.5 48.5q-75 0 -121 -50t-46 -132q0 -73 33 -126t86 -76v-104h-246v104h117q-122 66 -122 205q0 136 88 209.5t211 73.5z" />
    <glyph glyph-name="uni1E9E.sc" horiz-adv-x="626" 
d="M389 -14q-91 0 -155 35l40 86q43 -23 98 -23q39 0 68 21.5t29 62.5t-32.5 62.5t-114.5 37.5v74l109 118q-45 30 -117 30q-122 0 -122 -125v-365h-128v373q0 103 66.5 161t183.5 58q156 0 259 -111l-130 -145q70 -19 113.5 -60.5t43.5 -108.5q0 -79 -57.5 -130t-153.5 -51
z" />
    <glyph glyph-name="figuredash.sc" 
d="M562 328v-110h-523v110h523z" />
    <glyph glyph-name="dagger.sc" horiz-adv-x="631" 
d="M377 578v-153h164v-105h-164v-320h-125v320h-164v105h164v153h125z" />
    <glyph glyph-name="daggerdbl.sc" horiz-adv-x="631" 
d="M377 578v-114h164v-102h-164v-137h164v-103h-164v-122h-125v122h-164v103h164v137h-164v102h164v114h125z" />
    <glyph glyph-name="perthousand.sc" horiz-adv-x="1420" 
d="M222 591q77 0 130.5 -54.5t53.5 -145.5t-53.5 -145t-130.5 -54t-130.5 54t-53.5 145t53.5 145.5t130.5 54.5zM732 587l-354 -598h-101l356 598h99zM223 513q-43 0 -65 -32.5t-22 -89.5q0 -56 22 -88.5t65 -32.5q42 0 64 32.5t22 88.5q0 57 -22 89.5t-64 32.5zM786 386
q76 0 130 -55t54 -145q0 -92 -53.5 -146t-130.5 -54t-130.5 54t-53.5 146q0 90 54 145t130 55zM1195 386q76 0 130 -55t54 -145q0 -92 -53.5 -146t-130.5 -54t-130.5 54t-53.5 146q0 90 54 145t130 55zM786 307q-43 0 -65 -32.5t-22 -88.5t22 -88.5t65 -32.5q42 0 64 32.5
t22 88.5t-22 88.5t-64 32.5zM1195 307q-43 0 -65 -32.5t-22 -88.5t22 -88.5t65 -32.5q42 0 64 32.5t22 88.5t-22 88.5t-64 32.5z" />
    <glyph glyph-name="Euro.sc" 
d="M380 591q111 0 182 -70l-36 -96q-60 68 -141 68q-107 0 -137 -108h259l-23 -68h-246q-2 -27 0 -54h230l-23 -67h-198q27 -113 135 -113q78 0 153 63v-113q-73 -49 -164 -49q-96 0 -162 54t-86 158h-86l24 67h57q-2 27 0 54h-77l24 68h60q24 97 91.5 151.5t163.5 54.5z
" />
    <glyph glyph-name="partialdiff.sc" 
d="M125 492v99q425 0 425 -330q0 -139 -73 -207t-183 -68q-106 0 -175.5 56t-69.5 147q0 93 64 145.5t156 52.5q98 0 151 -64q-8 66 -50 104.5t-100.5 51.5t-144.5 13zM295 289q-56 0 -85.5 -28t-29.5 -73q0 -48 32.5 -75t84.5 -27q50 0 82.5 27t32.5 73q0 47 -31.5 75
t-85.5 28z" />
    <glyph glyph-name="product.sc" 
d="M550 578v-102h-50v-544h-122v544h-156v-544h-123v544h-49v102h500z" />
    <glyph glyph-name="summation.sc" 
d="M551 578v-98h-335l163 -143v-85l-164 -152h336v-100h-487v89l213 205l-213 193v91h487z" />
    <glyph glyph-name="radical.sc" 
d="M694 700v-102h-189l-208 -598h-135l-176 422h130l111 -302l191 580h276z" />
    <glyph glyph-name="integral.sc" horiz-adv-x="300" 
d="M271 732q50 0 104 -16v-100q-45 15 -86 15q-76 0 -76 -58v-640q0 -64 -47 -105t-136 -41q-52 0 -106 16v100q47 -15 87 -15q76 0 76 61v639q0 63 47 103.5t137 40.5z" />
    <glyph glyph-name="lozenge.sc" 
d="M375 578l200 -279l-200 -299h-150l-200 297l201 281h149zM299 507l-145 -209l147 -226l144 225z" />
    <glyph glyph-name="fi.sc" horiz-adv-x="845" 
d="M469 578v-105h-268v-142h247v-102h-247v-229h-127v578h395zM809 578v-103h-64v-373h64v-102h-255v102h64v373h-64v103h255z" />
    <glyph glyph-name="fl.sc" horiz-adv-x="1006" 
d="M469 578v-105h-268v-142h247v-102h-247v-229h-127v578h395zM720 578v-468h266v-110h-393v578h127z" />
    <glyph glyph-name="dollar.tf.sc" 
d="M349 700v-111q129 -16 210 -118l-91 -64q-53 71 -126 82v-146q125 -28 174 -66t49 -111q0 -74 -57.5 -123.5t-158.5 -57.5v-133h-78v133q-156 11 -238 122l82 72q71 -86 163 -96v163q-116 24 -165.5 64.5t-49.5 111.5t56 116.5t152 51.5v110h78zM278 357v134
q-91 -4 -91 -62q0 -25 17 -41t74 -31zM343 233v-149q49 3 73 23t24 50q0 29 -18.5 45.5t-78.5 30.5z" />
    <glyph glyph-name="zero.tf.sc" 
d="M301 595q122 0 195.5 -82.5t73.5 -224.5q0 -139 -73.5 -220t-195.5 -81t-195.5 81t-73.5 220q0 142 73.5 224.5t195.5 82.5zM301 492q-65 0 -101.5 -54t-36.5 -151q0 -92 36.5 -144t101.5 -52t101.5 51.5t36.5 144.5q0 96 -36.5 150.5t-101.5 54.5z" />
    <glyph glyph-name="one.tf.sc" 
d="M109 0v105h162v247h-164v91h23q85 0 120.5 34t47.5 101h101v-473h136v-105h-426z" />
    <glyph glyph-name="two.tf.sc" 
d="M306 591q102 0 164.5 -52.5t62.5 -134.5q0 -90 -61 -153.5t-217 -145.5h284v-105h-476v102q206 122 270 177.5t64 117.5q0 43 -25.5 67t-68.5 24q-54 0 -83.5 -32.5t-29.5 -83.5h-129q3 90 67.5 154.5t177.5 64.5z" />
    <glyph glyph-name="three.tf.sc" 
d="M325 594q105 0 164 -44t59 -113q0 -47 -27.5 -82t-75.5 -48q55 -9 89.5 -43t34.5 -92q0 -85 -68.5 -135t-180.5 -50q-102 0 -170.5 47.5t-86.5 128.5l121 25q24 -98 135 -98q53 0 84.5 22.5t31.5 63.5q0 83 -98 83h-70v85h59q96 0 96 79q0 33 -26 51.5t-74 18.5
q-101 0 -123 -92l-121 20q16 74 81.5 123.5t165.5 49.5z" />
    <glyph glyph-name="four.tf.sc" 
d="M493 578v-365h88v-102h-88v-111h-126v111h-308v103l269 364h165zM369 463l-181 -250h181v250z" />
    <glyph glyph-name="five.tf.sc" 
d="M530 578l-16 -104h-262l-18 -116q54 47 133 47q80 0 139 -55t59 -142q0 -99 -68 -160t-182 -61q-97 0 -157.5 42.5t-81.5 106.5l123 29q31 -75 117 -75q51 0 83.5 31.5t32.5 80.5q0 50 -29.5 77.5t-78.5 27.5q-61 0 -110 -55l-114 14l47 312h383z" />
    <glyph glyph-name="six.tf.sc" 
d="M334 595q150 0 207 -123l-117 -34q-24 58 -91 58q-111 0 -126 -167q49 68 148 68q84 0 146.5 -55.5t62.5 -145.5q0 -94 -68.5 -151.5t-171.5 -57.5q-108 0 -179.5 68t-71.5 209q0 157 70.5 244t190.5 87zM324 298q-49 0 -78 -29t-29 -76t30.5 -75.5t76.5 -28.5
q47 0 77.5 28t30.5 77q0 45 -28.5 74.5t-79.5 29.5z" />
    <glyph glyph-name="seven.tf.sc" 
d="M563 578v-102q-94 -113 -146 -222.5t-75 -253.5h-150q32 162 90.5 269.5t152.5 204.5h-221v-56h-109v160h458z" />
    <glyph glyph-name="eight.tf.sc" horiz-adv-x="605" 
d="M311 591q103 0 163 -47t60 -112q0 -76 -86 -114q120 -45 120 -155q0 -77 -62 -126.5t-192 -49.5q-124 0 -187 49.5t-63 126.5q0 100 105 141q-70 42 -70 126q0 67 56 114t156 47zM313 493q-40 0 -63.5 -16.5t-23.5 -49.5q0 -30 20.5 -47t68.5 -26l42 -8q51 33 51 79
q0 29 -25 48.5t-70 19.5zM301 254l-43 9q-63 -28 -63 -92q0 -39 32.5 -61t87.5 -22q122 0 122 81q0 38 -28 53t-108 32z" />
    <glyph glyph-name="nine.tf.sc" 
d="M296 -13q-157 0 -216 124l117 34q27 -59 101 -59q110 0 126 168q-49 -68 -148 -68q-84 0 -146.5 55.5t-62.5 145.5q0 93 69.5 150.5t171.5 57.5q109 0 179.5 -67.5t70.5 -208.5q0 -158 -69.5 -245t-192.5 -87zM307 285q49 0 78 28.5t29 75.5t-30.5 75.5t-76.5 28.5
q-47 0 -77.5 -28t-30.5 -77q0 -45 28.5 -74t79.5 -29z" />
    <glyph glyph-name="cent.tf.sc" 
d="M453 204l115 -36q-28 -77 -86.5 -122.5t-135.5 -56.5v-138h-87v138q-98 13 -162.5 86.5t-64.5 214.5q0 137 63.5 212t163.5 87v129h87v-129q155 -21 211 -169l-118 -33q-31 87 -101 101v-399q83 15 115 115zM158 290q0 -177 109 -200v398q-109 -25 -109 -198z" />
    <glyph glyph-name="sterling.tf.sc" 
d="M344 591q79 0 132.5 -39.5t76.5 -104.5l-119 -36q-12 41 -33.5 61t-60.5 20q-40 0 -65.5 -26t-25.5 -73v-67h195v-69h-195v-43q0 -40 -10 -64t-36 -44h323v-106h-448l-14 95q37 15 49.5 39.5t12.5 75.5v47h-79v69h79v73q0 81 57.5 136.5t160.5 55.5z" />
    <glyph glyph-name="yen.tf.sc" 
d="M573 578l-179 -296h126v-70h-156v-43h156v-70h-156v-99h-128v99h-153v70h153v43h-153v70h124l-180 296h144l131 -270l132 270h139z" />
    <glyph glyph-name="figuredash.tf.sc" 
d="M562 328v-110h-523v110h523z" />
    <glyph glyph-name="Euro.tf.sc" 
d="M380 591q111 0 182 -70l-36 -96q-60 68 -141 68q-107 0 -137 -108h259l-23 -68h-246q-2 -27 0 -54h230l-23 -67h-198q27 -113 135 -113q78 0 153 63v-113q-73 -49 -164 -49q-96 0 -162 54t-86 158h-86l24 67h57q-2 27 0 54h-77l24 68h60q24 97 91.5 151.5t163.5 54.5z
" />
    <glyph glyph-name="dollar.lf.sc" horiz-adv-x="619" 
d="M358 700v-111q129 -16 210 -118l-91 -64q-53 71 -126 82v-146q125 -28 174 -66t49 -111q0 -74 -57.5 -123.5t-158.5 -57.5v-133h-78v133q-156 11 -238 122l82 72q71 -86 163 -96v163q-116 24 -165.5 64.5t-49.5 111.5t56 116.5t152 51.5v110h78zM287 357v134
q-91 -4 -91 -62q0 -25 17 -41t74 -31zM352 233v-149q49 3 73 23t24 50q0 29 -18.5 45.5t-78.5 30.5z" />
    <glyph glyph-name="zero.lf.sc" horiz-adv-x="611" 
d="M305 595q128 0 205 -83.5t77 -223.5t-76.5 -220.5t-205.5 -80.5t-205.5 80.5t-76.5 220.5t77 223.5t205 83.5zM305 492q-70 0 -110 -54.5t-40 -149.5q0 -93 39.5 -145t110.5 -52q70 0 109.5 51t39.5 146t-39.5 149.5t-109.5 54.5z" />
    <glyph glyph-name="one.lf.sc" horiz-adv-x="474" 
d="M61 0v105h162v247h-164v91h23q85 0 120.5 34t47.5 101h101v-473h136v-105h-426z" />
    <glyph glyph-name="two.lf.sc" horiz-adv-x="556" 
d="M286 591q102 0 164.5 -52.5t62.5 -134.5q0 -90 -61 -153.5t-217 -145.5h284v-105h-476v102q206 122 270 177.5t64 117.5q0 43 -25.5 67t-68.5 24q-54 0 -83.5 -32.5t-29.5 -83.5h-129q3 90 67.5 154.5t177.5 64.5z" />
    <glyph glyph-name="three.lf.sc" horiz-adv-x="592" 
d="M300 594q105 0 164 -44t59 -113q0 -47 -27.5 -82t-75.5 -48q55 -9 89.5 -43t34.5 -92q0 -85 -68.5 -135t-180.5 -50q-102 0 -170.5 47.5t-86.5 128.5l121 25q25 -98 135 -98q53 0 84.5 22.5t31.5 63.5q0 83 -98 83h-70v85h59q96 0 96 79q0 33 -26 51.5t-74 18.5
q-101 0 -123 -92l-121 20q16 74 81.5 123.5t165.5 49.5z" />
    <glyph glyph-name="four.lf.sc" horiz-adv-x="595" 
d="M471 578v-365h88v-102h-88v-111h-126v111h-308v103l269 364h165zM347 463l-181 -250h181v250z" />
    <glyph glyph-name="five.lf.sc" horiz-adv-x="586" 
d="M500 578l-16 -104h-262l-18 -116q54 47 133 47q80 0 139 -55t59 -142q0 -99 -68 -160t-182 -61q-97 0 -157.5 42.5t-81.5 106.5l123 29q31 -75 117 -75q51 0 83.5 31.5t32.5 80.5q0 50 -29.5 77.5t-78.5 27.5q-61 0 -110 -55l-114 14l47 312h383z" />
    <glyph glyph-name="six.lf.sc" horiz-adv-x="595" 
d="M314 595q150 0 207 -123l-117 -34q-24 58 -91 58q-111 0 -126 -167q49 68 148 68q84 0 146.5 -55.5t62.5 -145.5q0 -94 -68.5 -151.5t-171.5 -57.5q-108 0 -179.5 68t-71.5 209q0 157 70.5 244t190.5 87zM304 298q-49 0 -78 -29t-29 -76t30.5 -75.5t76.5 -28.5
q47 0 77.5 28t30.5 77q0 45 -28.5 74.5t-79.5 29.5z" />
    <glyph glyph-name="seven.lf.sc" horiz-adv-x="516" 
d="M489 578v-102q-94 -113 -146 -222.5t-75 -253.5h-150q32 162 90.5 269.5t152.5 204.5h-221v-56h-109v160h458z" />
    <glyph glyph-name="eight.lf.sc" horiz-adv-x="594" 
d="M291 591q103 0 163 -47t60 -112q0 -76 -86 -114q120 -45 120 -155q0 -77 -62 -126.5t-192 -49.5q-124 0 -187 49.5t-63 126.5q0 100 105 141q-70 42 -70 126q0 67 56 114t156 47zM293 493q-40 0 -63.5 -16.5t-23.5 -49.5q0 -30 20.5 -47t68.5 -26l42 -8q51 33 51 79
q0 29 -25 48.5t-70 19.5zM281 254l-43 9q-63 -28 -63 -92q0 -39 32.5 -61t87.5 -22q122 0 122 81q0 38 -28 53t-108 32z" />
    <glyph glyph-name="nine.lf.sc" horiz-adv-x="598" 
d="M276 -13q-157 0 -216 124l117 34q27 -59 101 -59q110 0 126 168q-49 -68 -148 -68q-84 0 -146.5 55.5t-62.5 145.5q0 93 69.5 150.5t171.5 57.5q109 0 179.5 -67.5t70.5 -208.5q0 -158 -69.5 -245t-192.5 -87zM287 285q49 0 78 28.5t29 75.5t-30.5 75.5t-76.5 28.5
q-47 0 -77.5 -28t-30.5 -77q0 -45 28.5 -74t79.5 -29z" />
    <glyph glyph-name="cent.lf.sc" horiz-adv-x="619" 
d="M462 204l115 -36q-28 -77 -86.5 -122.5t-135.5 -56.5v-138h-87v138q-98 13 -162.5 86.5t-64.5 214.5q0 137 63.5 212t163.5 87v129h87v-129q155 -21 211 -169l-118 -33q-31 87 -101 101v-399q83 15 115 115zM167 290q0 -177 109 -200v398q-109 -25 -109 -198z" />
    <glyph glyph-name="sterling.lf.sc" horiz-adv-x="619" 
d="M353 591q79 0 132.5 -39.5t76.5 -104.5l-119 -36q-12 41 -33.5 61t-60.5 20q-40 0 -65.5 -26t-25.5 -73v-67h195v-69h-195v-43q0 -40 -10 -64t-36 -44h323v-106h-448l-14 95q37 15 49.5 39.5t12.5 75.5v47h-79v69h79v73q0 81 57.5 136.5t160.5 55.5z" />
    <glyph glyph-name="yen.lf.sc" horiz-adv-x="619" 
d="M582 578l-179 -296h126v-70h-156v-43h156v-70h-156v-99h-128v99h-153v70h153v43h-153v70h124l-180 296h144l131 -270l132 270h139z" />
    <glyph glyph-name="figuredash.lf.sc" 
d="M562 328v-110h-523v110h523z" />
    <glyph glyph-name="Euro.lf.sc" horiz-adv-x="619" 
d="M389 591q111 0 182 -70l-36 -96q-60 68 -141 68q-107 0 -137 -108h259l-23 -68h-246q-1 -27 0 -54h230l-23 -67h-198q27 -113 135 -113q78 0 153 63v-113q-73 -49 -164 -49q-96 0 -162 54t-86 158h-86l24 67h57q-1 27 0 54h-77l24 68h60q24 97 91.5 151.5t163.5 54.5z
" />
    <glyph glyph-name="parenleft.case" horiz-adv-x="303" 
d="M181 826h100q-55 -134 -79.5 -236.5t-24.5 -240.5t24 -240t80 -236h-100q-140 235 -140 476q0 242 140 477z" />
    <glyph glyph-name="parenright.case" horiz-adv-x="303" 
d="M22 826h100q140 -235 140 -477q0 -241 -140 -476h-100q56 134 80 236t24 240t-24.5 240.5t-79.5 236.5z" />
    <glyph glyph-name="hyphen.case" horiz-adv-x="369" 
d="M325 404v-109h-280v109h280z" />
    <glyph glyph-name="at.case" horiz-adv-x="1043" 
d="M550 817q192 0 308 -107.5t116 -274.5q0 -54 -13 -106.5t-38.5 -100t-71.5 -77t-105 -29.5q-58 0 -86.5 27.5t-33.5 66.5q-24 -44 -69 -68.5t-101 -24.5q-83 0 -133 56t-50 146q0 128 74 210.5t177 82.5q94 0 126 -68l7 43h98l-52 -316q-12 -68 45 -68q54 0 86 67t32 165
q0 127 -86 209t-231 82q-168 0 -271 -106.5t-103 -274.5q0 -152 91 -249t236 -97q105 0 200 33l29 -83q-117 -40 -228 -40q-192 0 -313.5 121.5t-121.5 312.5q0 206 134.5 337t347.5 131zM533 521q-68 0 -104 -59t-36 -141q0 -103 86 -103q56 0 97 51t41 150q0 102 -84 102z
" />
    <glyph glyph-name="bracketleft.case" horiz-adv-x="314" 
d="M281 836v-102h-108v-757h108v-104h-236v963h236z" />
    <glyph glyph-name="bracketright.case" horiz-adv-x="314" 
d="M33 734v102h236v-963h-236v104h108v757h-108z" />
    <glyph glyph-name="braceleft.case" horiz-adv-x="319" 
d="M301 836v-101h-15q-41 0 -53.5 -18t-12.5 -54v-194q0 -52 -29 -80.5t-62 -33.5q33 -5 62 -34t29 -81v-192q0 -36 12.5 -54t53.5 -18h15v-101h-47q-77 0 -120 41t-43 107v199q0 48 -13 67.5t-46 26.5v78q33 7 46 26t13 67v201q0 66 43 107t120 41h47z" />
    <glyph glyph-name="braceright.case" horiz-adv-x="319" 
d="M18 735v101h47q77 0 120 -41t43 -107v-201q0 -48 13 -67t46 -26v-78q-33 -7 -46 -26.5t-13 -67.5v-199q0 -66 -43 -107t-120 -41h-47v101h15q41 0 53.5 18t12.5 54v192q0 52 29 81t62 34q-33 5 -62 33.5t-29 80.5v194q0 36 -12.5 54t-53.5 18h-15z" />
    <glyph glyph-name="exclamdown.case" horiz-adv-x="270" 
d="M135 716q33 0 57.5 -24t24.5 -57q0 -34 -24.5 -58t-57.5 -24q-34 0 -58.5 23.5t-24.5 57.5t24.5 58t58.5 24zM184 483l21 -270v-213h-140v213l21 270h98z" />
    <glyph glyph-name="guillemotleft.case" horiz-adv-x="507" 
d="M178 571l71 -51l-94 -170l94 -170l-71 -51l-143 161v120zM401 571l71 -51l-94 -170l94 -170l-71 -51l-143 161v120z" />
    <glyph glyph-name="uni00AD.case" horiz-adv-x="369" 
d="M325 404v-109h-280v109h280z" />
    <glyph glyph-name="guillemotright.case" horiz-adv-x="507" 
d="M330 571l142 -161v-120l-142 -161l-72 51l94 170l-94 170zM107 571l142 -161v-120l-142 -161l-72 51l94 170l-94 170z" />
    <glyph glyph-name="questiondown.case" horiz-adv-x="528" 
d="M272 716q33 0 57.5 -24t24.5 -57q0 -34 -24.5 -58t-57.5 -24q-34 0 -58.5 23.5t-24.5 57.5t24.5 58t58.5 24zM334 471v-38q0 -39 -17.5 -69.5t-42.5 -51t-50.5 -39t-43 -42.5t-17.5 -52q0 -43 26 -65.5t72 -22.5q92 0 129 102l117 -33q-19 -69 -82.5 -123t-165.5 -54
q-115 0 -174 58t-59 131q0 51 19.5 88t47 57.5t55 38t47 41t19.5 54.5v20h120z" />
    <glyph glyph-name="gravecomb.case" horiz-adv-x="1" 
d="M-129 895l96 -142h-105l-157 142h166z" />
    <glyph glyph-name="acutecomb.case" horiz-adv-x="1" 
d="M-27 895l-158 -142h-104l95 142h167z" />
    <glyph glyph-name="uni0302.case" horiz-adv-x="1" 
d="M-167 894l137 -141h-119l-82 67l-82 -67h-119l137 141h128z" />
    <glyph glyph-name="tildecomb.case" horiz-adv-x="1" 
d="M-274 889q41 0 80 -25t49 -25q28 0 44 37h71q-7 -55 -39.5 -89.5t-81.5 -34.5q-32 0 -57.5 12.5t-43 25t-28.5 12.5q-29 0 -45 -37h-70q8 55 40 89.5t81 34.5z" />
    <glyph glyph-name="uni0304.case" horiz-adv-x="1" 
d="M-30 866v-88h-345v88h345z" />
    <glyph glyph-name="uni0306.case" horiz-adv-x="1" 
d="M-104 898h74q-9 -70 -52.5 -108t-114.5 -38t-114.5 38.5t-53.5 107.5h75q12 -57 93 -59q80 0 93 59z" />
    <glyph glyph-name="uni0307.case" horiz-adv-x="1" 
d="M-110 896q33 0 56 -22t23 -54q0 -31 -23.5 -53t-55.5 -22q-31 0 -54.5 22.5t-23.5 52.5q0 32 23.5 54t54.5 22z" />
    <glyph glyph-name="uni0308.case" horiz-adv-x="1" 
d="M-330 899q29 0 51.5 -21.5t22.5 -50.5q0 -30 -22 -51.5t-52 -21.5t-52 21.5t-22 51.5q0 29 22.5 50.5t51.5 21.5zM-103 899q29 0 51.5 -21.5t22.5 -50.5q0 -30 -22 -51.5t-52 -21.5t-52 21.5t-22 51.5q0 29 22.5 50.5t51.5 21.5z" />
    <glyph glyph-name="uni030A.case" horiz-adv-x="1" 
d="M-159 981q53 0 91 -34.5t38 -88.5t-38 -88.5t-91 -34.5t-91 34.5t-38 88.5t38 88.5t91 34.5zM-158 911q-21 0 -35 -14t-14 -39q0 -24 14 -38t35 -14q20 0 34 14t14 38q0 25 -14 39t-34 14z" />
    <glyph glyph-name="uni030B.case" horiz-adv-x="1" 
d="M-223 901l-138 -149h-91l85 149h144zM-30 901l-144 -149h-91l91 149h144z" />
    <glyph glyph-name="uni030C.case" horiz-adv-x="1" 
d="M-30 904l-137 -141h-128l-137 141h119l82 -67l82 67h119z" />
    <glyph glyph-name="endash.case" horiz-adv-x="539" 
d="M494 404v-109h-449v109h449z" />
    <glyph glyph-name="emdash.case" horiz-adv-x="649" 
d="M605 404v-109h-560v109h560z" />
    <glyph glyph-name="guilsinglleft.case" horiz-adv-x="284" 
d="M178 571l71 -51l-94 -170l94 -170l-71 -51l-143 161v120z" />
    <glyph glyph-name="guilsinglright.case" horiz-adv-x="284" 
d="M107 571l142 -161v-120l-142 -161l-72 51l94 170l-94 170z" />
    <glyph glyph-name="zero.zero" horiz-adv-x="629" 
d="M314 595q128 0 205.5 -83.5t77.5 -223.5t-77 -220.5t-206 -80.5t-206 80.5t-77 220.5t77.5 223.5t205.5 83.5zM314 492q-71 0 -111 -54.5t-40 -149.5q0 -79 26 -126l217 299q-35 31 -92 31zM314 91q71 0 111 51t40 146q0 74 -21 120l-211 -295q32 -22 81 -22z" />
    <glyph glyph-name="zero.tf.zero" 
d="M300 718q123 0 193.5 -94t70.5 -274t-70.5 -274t-193.5 -94q-122 0 -192.5 94t-70.5 274t70.5 274t192.5 94zM300 615q-135 0 -135 -262q0 -88 11 -148l218 372q-28 38 -94 38zM299 85q66 0 101 68.5t35 199.5q0 88 -11 145l-218 -373q29 -40 93 -40z" />
    <glyph glyph-name="zero.lf.zero" horiz-adv-x="612" 
d="M306 697q129 0 206 -91.5t77 -262.5t-77 -264.5t-206 -93.5t-206 93.5t-77 264.5t77 262.5t206 91.5zM308 597q-74 0 -114.5 -63.5t-40.5 -188.5q0 -91 22 -152l219 373q-34 31 -86 31zM305 93q72 0 113 66.5t41 185.5q0 100 -25 161l-220 -376q36 -37 91 -37z" />
    <glyph glyph-name="zero.tosf.zero" 
d="M300 595q122 0 195.5 -82.5t73.5 -224.5q0 -139 -73.5 -220t-195.5 -81t-195.5 81t-73.5 220q0 142 73.5 224.5t195.5 82.5zM300 495q-65 0 -102.5 -55.5t-37.5 -152.5q0 -83 23 -131l186 322q-27 17 -69 17zM300 87q65 0 102.5 53t37.5 147q0 92 -27 144l-187 -325
q31 -19 74 -19z" />
    <glyph glyph-name="zero.tf.sc.zero" 
d="M300 595q122 0 195.5 -82.5t73.5 -224.5q0 -139 -73.5 -220t-195.5 -81t-195.5 81t-73.5 220q0 142 73.5 224.5t195.5 82.5zM300 495q-65 0 -102.5 -55.5t-37.5 -152.5q0 -83 23 -131l186 322q-27 17 -69 17zM300 87q65 0 102.5 53t37.5 147q0 92 -27 144l-187 -325
q31 -19 74 -19z" />
    <glyph glyph-name="zero.lf.sc.zero" horiz-adv-x="629" 
d="M314 595q128 0 205.5 -83.5t77.5 -223.5t-77 -220.5t-206 -80.5t-206 80.5t-77 220.5t77.5 223.5t205.5 83.5zM314 492q-71 0 -111 -54.5t-40 -149.5q0 -79 26 -126l217 299q-35 31 -92 31zM314 91q71 0 111 51t40 146q0 74 -21 120l-211 -295q32 -22 81 -22z" />
    <glyph glyph-name="exclam.ss01" horiz-adv-x="270" 
d="M205 703v-213l-21 -264h-98l-21 264v213h140zM208 143v-143h-145v143h145z" />
    <glyph glyph-name="comma.ss01" horiz-adv-x="286" 
d="M216 145v-145l-76 -164h-79l45 164h-37v145h147z" />
    <glyph glyph-name="period.ss01" horiz-adv-x="287" 
d="M217 145v-145h-147v145h147z" />
    <glyph glyph-name="colon.ss01" horiz-adv-x="286" 
d="M217 145v-145h-147v145h147zM217 505v-145h-147v145h147z" />
    <glyph glyph-name="semicolon.ss01" horiz-adv-x="296" 
d="M216 145v-145l-76 -164h-79l45 164h-37v145h147zM217 506v-145h-147v145h147z" />
    <glyph glyph-name="question.ss01" horiz-adv-x="528" 
d="M269 714q115 0 174 -58t59 -131q0 -43 -13.5 -76.5t-34.5 -52t-44.5 -36.5t-44.5 -31.5t-34.5 -34.5t-13.5 -48v-27h-126v45q0 39 18 69.5t43.5 51t51 39t43.5 42.5t18 52q0 43 -26 65.5t-72 22.5q-92 0 -129 -102l-117 33q19 69 82.5 123t165.5 54zM329 143v-143h-145
v143h145z" />
    <glyph glyph-name="i.ss01" horiz-adv-x="263" 
d="M195 527v-527h-128v527h128zM203 733v-128h-141v128h141z" />
    <glyph glyph-name="j.ss01" horiz-adv-x="263" 
d="M195 527v-546q0 -84 -45.5 -125t-112.5 -41q-41 0 -68 7v96q12 -1 21 -1q45 0 61 19.5t16 81.5v509h128zM203 733v-128h-141v128h141z" />
    <glyph glyph-name="exclamdown.ss01" horiz-adv-x="270" 
d="M207 527v-142h-144v142h144zM184 291l21 -242v-213h-140v213l21 242h98z" />
    <glyph glyph-name="periodcentered.ss01" horiz-adv-x="287" 
d="M217 372v-145h-147v145h147z" />
    <glyph glyph-name="questiondown.ss01" horiz-adv-x="528" 
d="M346 527v-142h-144v142h144zM337 306v-38q0 -39 -18 -69.5t-43.5 -51t-51 -39t-43.5 -42.5t-18 -52q0 -43 26.5 -66t71.5 -23q92 0 129 103l117 -33q-19 -69 -82.5 -123t-165.5 -54q-115 0 -174 58t-59 131q0 51 19 88t46.5 57.5t54.5 37.5t46 40.5t19 54.5v21h126z" />
    <glyph glyph-name="Adieresis.ss01" horiz-adv-x="636" 
d="M489 0l-35 117h-279l-35 -117h-137l230 700h169l230 -700h-143zM314 595l-108 -370h216zM270 890v-121h-125v121h125zM491 890v-121h-125v121h125z" />
    <glyph glyph-name="Edieresis.ss01" horiz-adv-x="583" 
d="M529 700v-112h-322v-176h301v-110h-301v-190h331v-112h-464v700h455zM253 890v-121h-125v121h125zM474 890v-121h-125v121h125z" />
    <glyph glyph-name="Idieresis.ss01" horiz-adv-x="386" 
d="M350 700v-109h-91v-482h91v-109h-315v109h91v482h-91v109h315zM145 890v-121h-125v121h125zM366 890v-121h-125v121h125z" />
    <glyph glyph-name="Odieresis.ss01" horiz-adv-x="765" 
d="M382 717q62 0 119 -19.5t108 -60t81.5 -115t30.5 -173.5q0 -94 -28.5 -166t-77 -114.5t-108 -64t-125.5 -21.5q-62 0 -118.5 19.5t-107.5 60.5t-81.5 115.5t-30.5 172.5q0 94 28.5 166.5t77 115t107.5 63.5t125 21zM382 604q-92 0 -146.5 -67.5t-54.5 -184.5
q0 -120 52 -188t149 -68q90 0 145.5 67t55.5 185q0 119 -52 187.5t-149 68.5zM334 890v-121h-125v121h125zM555 890v-121h-125v121h125z" />
    <glyph glyph-name="Udieresis.ss01" horiz-adv-x="685" 
d="M620 700v-447q0 -55 -15 -101.5t-46.5 -85.5t-87.5 -61t-130 -22q-76 0 -131.5 22.5t-86 61.5t-45 85.5t-14.5 100.5v447h133v-445q0 -83 35.5 -121t109.5 -38q145 0 145 159v445h133zM295 890v-121h-125v121h125zM516 890v-121h-125v121h125z" />
    <glyph glyph-name="adieresis.ss01" horiz-adv-x="559" 
d="M280 540q114 0 165 -42t51 -124v-259q0 -71 18 -115h-129q-10 25 -15 55q-54 -68 -157 -68q-83 0 -130.5 45t-47.5 116q0 75 51 119.5t164 58.5l118 15v24q0 47 -19 64.5t-72 17.5q-50 0 -72 -17.5t-23 -58.5h-126q2 84 61 126.5t163 42.5zM368 255l-85 -12
q-63 -8 -90 -27.5t-27 -56.5q0 -69 79 -69q51 0 87 30.5t36 77.5v57zM238 730v-122h-125v122h125zM459 730v-122h-125v122h125z" />
    <glyph glyph-name="edieresis.ss01" horiz-adv-x="579" 
d="M294 540q116 0 182.5 -77.5t66.5 -203.5v-26h-372q3 -71 38.5 -107t98.5 -36q86 0 127 73l104 -53q-77 -123 -237 -123q-122 0 -192.5 77t-70.5 199q0 124 67 200.5t188 76.5zM293 443q-53 0 -85 -31.5t-37 -91.5h240q-9 123 -118 123zM245 730v-122h-125v122h125z
M466 730v-122h-125v122h125z" />
    <glyph glyph-name="idieresis.ss01" horiz-adv-x="263" 
d="M195 527v-527h-128v527h128zM84 730v-122h-125v122h125zM305 730v-122h-125v122h125z" />
    <glyph glyph-name="odieresis.ss01" horiz-adv-x="614" 
d="M307 540q121 0 194.5 -79t73.5 -198q0 -124 -72 -200t-196 -76t-196 77t-72 199q0 123 72.5 200t195.5 77zM307 436q-62 0 -98 -44.5t-36 -126.5q0 -83 35.5 -128.5t98.5 -45.5t98.5 45.5t35.5 128.5q0 82 -36 126.5t-98 44.5zM259 730v-122h-125v122h125zM480 730v-122
h-125v122h125z" />
    <glyph glyph-name="divide.ss01" 
d="M373 176v-142h-144v142h144zM373 562v-142h-144v142h144zM509 352v-110h-418v110h418z" />
    <glyph glyph-name="udieresis.ss01" horiz-adv-x="587" 
d="M518 527v-527h-125v61q-59 -74 -154 -74q-82 0 -129.5 46.5t-47.5 136.5v357h128v-328q0 -55 20 -78.5t65 -23.5q51 0 83 35t32 94v301h128zM243 730v-122h-125v122h125zM464 730v-122h-125v122h125z" />
    <glyph glyph-name="ydieresis.ss01" horiz-adv-x="514" 
d="M510 527l-169 -552q-25 -81 -67.5 -120.5t-130.5 -39.5q-37 0 -69 7v93q22 -2 45 -2q54 0 74 18t32 69h-46l-176 527h142l119 -434l109 434h137zM210 730v-122h-125v122h125zM431 730v-122h-125v122h125z" />
    <glyph glyph-name="ij.ss01" horiz-adv-x="542" 
d="M474 527v-546q0 -84 -45.5 -125t-112.5 -41q-41 0 -68 7v96q12 -1 21 -1q45 0 61 19.5t16 81.5v509h128zM482 733v-128h-141v128h141zM195 527v-527h-128v527h128zM203 733v-128h-141v128h141z" />
    <glyph glyph-name="Ydieresis.ss01" horiz-adv-x="614" 
d="M613 700l-241 -421v-279h-132v277l-241 423h150l159 -309l159 309h146zM259 890v-121h-125v121h125zM480 890v-121h-125v121h125z" />
    <glyph glyph-name="uni02BB.ss01" horiz-adv-x="288" 
d="M78 488v138l73 156h75l-43 -156h35v-138h-140z" />
    <glyph glyph-name="uni02BC.ss01" horiz-adv-x="288" 
d="M209 748v-138l-73 -156h-75l43 156h-35v138h140z" />
    <glyph glyph-name="uni0307.ss01" horiz-adv-x="1" 
d="M-26 733v-128h-141v128h141z" />
    <glyph glyph-name="uni0308.ss01" horiz-adv-x="1" 
d="M-257 730v-122h-125v122h125zM-36 730v-122h-125v122h125z" />
    <glyph glyph-name="uni0326.ss01" horiz-adv-x="1" 
d="M-29 -73v-110l-61 -120h-61l33 120h-30v110h119z" />
    <glyph glyph-name="quoteleft.ss01" horiz-adv-x="288" 
d="M78 488v138l73 156h75l-43 -156h35v-138h-140z" />
    <glyph glyph-name="quoteright.ss01" horiz-adv-x="288" 
d="M209 748v-138l-73 -156h-75l43 156h-35v138h140z" />
    <glyph glyph-name="quotesinglbase.ss01" horiz-adv-x="288" 
d="M209 138v-138l-73 -156h-75l43 156h-35v138h140z" />
    <glyph glyph-name="quotedblleft.ss01" horiz-adv-x="490" 
d="M281 488v138l73 156h75l-43 -156h35v-138h-140zM78 488v138l73 156h75l-43 -156h35v-138h-140z" />
    <glyph glyph-name="quotedblright.ss01" horiz-adv-x="490" 
d="M209 748v-138l-73 -156h-75l43 156h-35v138h140zM411 748v-138l-73 -156h-75l43 156h-35v138h140z" />
    <glyph glyph-name="quotedblbase.ss01" horiz-adv-x="490" 
d="M209 138v-138l-73 -156h-75l43 156h-35v138h140zM411 138v-138l-73 -156h-75l43 156h-35v138h140z" />
    <glyph glyph-name="bullet.ss01" horiz-adv-x="343" 
d="M274 392v-202h-205v202h205z" />
    <glyph glyph-name="ellipsis.ss01" horiz-adv-x="844" 
d="M213 142v-142h-144v142h144zM494 142v-142h-144v142h144zM776 142v-142h-144v142h144z" />
    <glyph glyph-name="uni203D.ss01" horiz-adv-x="528" 
d="M265 714q118 0 177.5 -58t59.5 -131q0 -50 -18.5 -86t-45.5 -57t-54 -39t-45.5 -42t-18.5 -55v-27h-109l-19 271v102q-41 -24 -62 -88l-109 33q22 69 84 123t160 54zM312 490l-10 -98q6 6 20.5 21.5t21 23.5t16 21.5t13 28t3.5 31.5q0 67 -64 85v-113zM193 0v143h145
v-143h-145z" />
    <glyph glyph-name="uni2219.ss01" 
d="M402 392v-202h-205v202h205z" />
    <glyph glyph-name="dotmath.ss01" 
d="M373 372v-145h-147v145h147z" />
    <glyph glyph-name="adieresis.sc.ss01" horiz-adv-x="570" 
d="M428 0l-30 94h-233l-30 -94h-132l199 578h164l199 -578h-137zM281 486l-87 -296h175zM237 781v-122h-125v122h125zM458 781v-122h-125v122h125z" />
    <glyph glyph-name="edieresis.sc.ss01" horiz-adv-x="531" 
d="M478 578v-105h-277v-128h259v-102h-259v-138h284v-105h-411v578h404zM228 781v-122h-125v122h125zM449 781v-122h-125v122h125z" />
    <glyph glyph-name="idieresis.sc.ss01" horiz-adv-x="326" 
d="M290 578v-103h-64v-373h64v-102h-255v102h64v373h-64v103h255zM115 781v-122h-125v122h125zM336 781v-122h-125v122h125z" />
    <glyph glyph-name="odieresis.sc.ss01" horiz-adv-x="685" 
d="M343 592q55 0 105 -16t95 -50t71.5 -95t26.5 -143q0 -149 -87 -225.5t-211 -76.5q-55 0 -105.5 16.5t-95 50.5t-71.5 95t-27 142q0 78 25 137.5t68 94.5t95 52.5t111 17.5zM343 487q-77 0 -122 -52t-45 -145q0 -94 43 -146.5t124 -52.5q75 0 120.5 51.5t45.5 144.5
q0 94 -42.5 147t-123.5 53zM295 781v-122h-125v122h125zM516 781v-122h-125v122h125z" />
    <glyph glyph-name="udieresis.sc.ss01" horiz-adv-x="624" 
d="M558 578v-362q0 -99 -60.5 -164.5t-187.5 -65.5q-67 0 -116 19t-76.5 52.5t-40.5 73t-13 85.5v362h127v-363q0 -124 120 -124q121 0 121 124v363h126zM264 781v-122h-125v122h125zM485 781v-122h-125v122h125z" />
    <glyph glyph-name="ydieresis.sc.ss01" horiz-adv-x="551" 
d="M550 578l-212 -349v-229h-127v227l-212 351h145l132 -243l133 243h141zM227 781v-122h-125v122h125zM448 781v-122h-125v122h125z" />
    <glyph glyph-name="exclamdown.case.ss01" horiz-adv-x="270" 
d="M207 700v-142h-144v142h144zM184 477l21 -264v-213h-140v213l21 264h98z" />
    <glyph glyph-name="questiondown.case.ss01" horiz-adv-x="528" 
d="M347 700v-142h-144v142h144zM337 468v-35q0 -39 -18 -69.5t-43.5 -51t-51 -39t-43.5 -42.5t-18 -52q0 -43 26 -65.5t72 -22.5q92 0 129 102l117 -33q-19 -69 -82.5 -123t-165.5 -54q-115 0 -174 58t-59 131q0 43 13.5 76.5t34.5 52t44.5 36.5t44.5 31t34.5 34.5
t13.5 48.5v17h126z" />
    <glyph glyph-name="uni0307.case.ss01" horiz-adv-x="1" 
d="M-26 904v-127h-142v127h142z" />
    <glyph glyph-name="uni0308.case.ss01" horiz-adv-x="1" 
d="M-257 890v-121h-125v121h125zM-36 890v-121h-125v121h125z" />
    <glyph glyph-name="one.ss02" horiz-adv-x="490" 
d="M228 0v352h-164v91h25q86 0 120 34t43 101h104v-578h-128z" />
    <glyph glyph-name="onesuperior.ss02" horiz-adv-x="400" 
d="M186 330v276h-108v69h12q60 0 84.5 18.5t30.5 56.5h85v-420h-104z" />
    <glyph glyph-name="onequarter.ss02" horiz-adv-x="903" 
d="M743 712l-433 -724h-100l433 724h100zM832 420v-265h56v-83h-56v-72h-102v72h-213v86l180 262h135zM730 318l-113 -163h113v163zM186 280v276h-108v69h12q60 0 84.5 18.5t30.5 56.5h85v-420h-104z" />
    <glyph glyph-name="onehalf.ss02" horiz-adv-x="953" 
d="M743 712l-433 -724h-100l433 724h100zM754 432q73 0 116 -35.5t43 -92.5q0 -64 -45 -115.5t-142 -105.5h194v-83h-335v80q122 82 169 129t47 92q0 49 -51 49q-55 0 -57 -71h-107q0 67 43 110t125 43zM186 280v276h-108v69h12q60 0 84.5 18.5t30.5 56.5h85v-420h-104z" />
    <glyph glyph-name="uni2081.ss02" horiz-adv-x="400" 
d="M186 -165v276h-108v69h12q60 0 84.5 18.5t30.5 56.5h85v-420h-104z" />
    <glyph glyph-name="uni2150.ss02" horiz-adv-x="983" 
d="M743 712l-433 -724h-100l433 724h100zM950 420v-83q-69 -82 -102 -154.5t-46 -182.5h-114q16 121 55 194.5t107 141.5h-143v-48h-90v132h333zM186 280v276h-108v69h12q60 0 84.5 18.5t30.5 56.5h85v-420h-104z" />
    <glyph glyph-name="uni2151.ss02" horiz-adv-x="953" 
d="M743 712l-433 -724h-100l433 724h100zM738 -12q-56 0 -96.5 24t-60.5 63l86 35q21 -42 73 -42q81 0 85 123q-36 -49 -107 -49q-59 0 -100.5 37.5t-41.5 103.5q0 69 49 109t124 40q82 0 131.5 -48.5t49.5 -153.5q0 -117 -49 -179.5t-143 -62.5zM749 224q30 0 47.5 17.5
t17.5 47.5q0 29 -17 45.5t-45 16.5q-29 0 -47.5 -17t-18.5 -48q0 -28 16.5 -45t46.5 -17zM186 280v276h-108v69h12q60 0 84.5 18.5t30.5 56.5h85v-420h-104z" />
    <glyph glyph-name="uni2152.ss02" horiz-adv-x="1324" 
d="M739 712l-433 -724h-100l433 724h100zM735 0v276h-108v69h12q60 0 84.5 18.5t30.5 56.5h85v-420h-104zM1109 432q83 0 130 -56t47 -164q0 -110 -46.5 -166t-130.5 -56q-83 0 -129.5 56t-46.5 166q0 108 46 164t130 56zM1108 349q-37 0 -53 -33t-16 -104t16 -105t53 -34
q70 0 70 139q0 71 -16.5 104t-53.5 33zM172 280v276h-108v69h12q60 0 84.5 18.5t30.5 56.5h85v-420h-104z" />
    <glyph glyph-name="onethird.ss02" horiz-adv-x="953" 
d="M743 712l-433 -724h-100l433 724h100zM757 432q75 0 117.5 -32.5t42.5 -82.5q0 -37 -23 -61t-62 -32q43 -6 70.5 -31.5t27.5 -69.5q0 -61 -47.5 -97t-128.5 -36q-69 0 -116.5 31t-61.5 88l98 23q14 -59 80 -59q29 0 47.5 14.5t18.5 40.5t-18.5 39.5t-49.5 13.5h-46v77h39
q64 0 64 47q0 22 -15.5 33.5t-40.5 11.5q-56 0 -72 -51l-97 16q14 53 60 85t113 32zM186 280v276h-108v69h12q60 0 84.5 18.5t30.5 56.5h85v-420h-104z" />
    <glyph glyph-name="uni2155.ss02" horiz-adv-x="963" 
d="M743 712l-433 -724h-100l433 724h100zM917 420l-13 -82h-186l-12 -81q37 32 94 32q58 0 100 -39t42 -103q0 -70 -48.5 -113.5t-136.5 -43.5q-68 0 -112 29t-60 75l94 29q19 -52 80 -52q35 0 54.5 20.5t19.5 49.5q0 30 -19 47t-52 17q-44 0 -71 -32l-91 14l34 233h283z
M186 280v276h-108v69h12q60 0 84.5 18.5t30.5 56.5h85v-420h-104z" />
    <glyph glyph-name="uni2159.ss02" horiz-adv-x="943" 
d="M743 712l-433 -724h-100l433 724h100zM756 432q111 0 152 -88l-89 -30q-16 38 -63 38q-78 0 -88 -121q35 50 109 50q59 0 101 -36.5t42 -100.5q0 -73 -48.5 -113.5t-123.5 -40.5q-82 0 -132 48t-50 156q0 113 51.5 175.5t138.5 62.5zM748 201q-28 0 -46.5 -17.5
t-18.5 -46.5t18 -47.5t45 -18.5t45 17.5t18 48.5q0 29 -16 46.5t-45 17.5zM186 280v276h-108v69h12q60 0 84.5 18.5t30.5 56.5h85v-420h-104z" />
    <glyph glyph-name="oneeighth.ss02" horiz-adv-x="953" 
d="M743 712l-433 -724h-100l433 724h100zM751 -10q-93 0 -139.5 37.5t-46.5 86.5q0 76 82 105q-58 36 -58 96q0 48 41.5 82.5t120.5 34.5t121.5 -33t42.5 -77q0 -27 -18 -52.5t-49 -39.5q53 -19 72.5 -43t19.5 -65q0 -53 -45 -92.5t-144 -39.5zM751 263l23 -7q38 24 38 57
q0 43 -59 43q-28 0 -43.5 -11.5t-15.5 -31.5q0 -19 12.5 -29.5t44.5 -20.5zM751 71q40 0 59.5 14.5t19.5 34.5q0 23 -16 34.5t-64 25.5l-34 10q-42 -30 -42 -67q0 -24 20.5 -38t56.5 -14zM186 280v276h-108v69h12q60 0 84.5 18.5t30.5 56.5h85v-420h-104z" />
    <glyph glyph-name="uni215F.ss02" horiz-adv-x="603" 
d="M743 712l-433 -724h-100l433 724h100zM186 280v276h-108v69h12q60 0 84.5 18.5t30.5 56.5h85v-420h-104z" />
    <glyph glyph-name="uni2460.ss02" horiz-adv-x="900" 
d="M418 159v251h-98v63h11q55 0 77 16.5t27 51.5h78v-382h-95zM451 717q156 0 262 -106.5t106 -261.5t-106 -260.5t-262 -105.5q-157 0 -264 105.5t-107 260.5t107 261.5t264 106.5zM451 651q-127 0 -212.5 -88.5t-85.5 -213.5t85.5 -212.5t212.5 -87.5q128 0 212 87.5
t84 212.5t-84 213.5t-212 88.5z" />
    <glyph glyph-name="uni2776.ss02" horiz-adv-x="900" 
d="M451 -17q-157 0 -264 105.5t-107 260.5t107 261.5t264 106.5q156 0 262 -106.5t106 -261.5t-106 -260.5t-262 -105.5zM418 159h94v382h-76q-12 -35 -36 -51.5t-80 -16.5v-72q65 0 98 25v-267z" />
    <glyph glyph-name="one.numr.ss02" horiz-adv-x="400" 
d="M186 280v276h-108v69h12q60 0 84.5 18.5t30.5 56.5h85v-420h-104z" />
    <glyph glyph-name="one.dnom.ss02" horiz-adv-x="400" 
d="M186 0v276h-108v69h12q60 0 84.5 18.5t30.5 56.5h85v-420h-104z" />
    <glyph glyph-name="one.tf.ss02" 
d="M291 0v474h-164v92h25q86 0 120 33.5t43 100.5h104v-700h-128z" />
    <glyph glyph-name="one.lf.ss02" horiz-adv-x="474" 
d="M235 0v458h-164v92h25q86 0 120 33.5t43 100.5h104v-684h-128z" />
    <glyph glyph-name="one.tosf.ss02" 
d="M291 0v352h-164v91h25q86 0 120 34t43 101h104v-578h-128z" />
    <glyph glyph-name="one.tf.sc.ss02" 
d="M291 0v352h-164v91h25q86 0 120 34t43 101h104v-578h-128z" />
    <glyph glyph-name="one.lf.sc.ss02" horiz-adv-x="490" 
d="M245 0v352h-164v91h25q86 0 120 34t43 101h104v-578h-128z" />
    <glyph glyph-name="circle.comp" horiz-adv-x="900" 
d="M451 717q156 0 262 -106.5t106 -261.5t-106 -260.5t-262 -105.5q-157 0 -264 105.5t-107 260.5t107 261.5t264 106.5zM451 651q-127 0 -212.5 -88.5t-85.5 -213.5t85.5 -212.5t212.5 -87.5q128 0 212 87.5t84 212.5t-84 213.5t-212 88.5z" />
    </font>
</defs>
</svg>
