<?xml version="1.0" standalone="no"?>
<!DOCTYPE svg PUBLIC "-//W3C//DTD SVG 1.1//EN" "http://www.w3.org/Graphics/SVG/1.1/DTD/svg11.dtd" >
<svg>
<metadata>
Created by FontForge 20120731 at Tue Mar  1 22:19:45 2016
 By ,,,
2015 published by Monotype GmbH
</metadata>
<defs>
<font id="RealTextOT" horiz-adv-x="600" >
  <font-face 
    font-family="RealTextOT"
    font-weight="400"
    font-stretch="normal"
    units-per-em="1000"
    panose-1="2 11 5 4 2 1 1 1 1 2"
    ascent="800"
    descent="-200"
    x-height="522"
    cap-height="700"
    bbox="-412 -292 1388 961"
    underline-thickness="89"
    underline-position="-18"
    unicode-range="U+000D-1F310"
  />
<missing-glyph 
d="M531 700v-862h-462v862h462zM429 610h-258v-682h258v682z" />
    <glyph glyph-name="f_f" unicode="ff" horiz-adv-x="637" 
d="M561 632q-39 0 -56.5 -14.5t-17.5 -51.5v-44h139v-77h-139v-445h-100v445h-193v-445h-100v445h-72v77h72v51q0 57 44.5 98t130.5 41q80 0 158 -39q42 39 122 39q47 0 101 -16v-81q-45 17 -89 17zM387 522v48q0 22 4 38q-56 29 -119 29q-78 0 -78 -71v-44h193z" />
    <glyph glyph-name="f_f_i" unicode="ffi" horiz-adv-x="850" 
d="M483 522h289v-522h-100v445h-189v-445h-100v445h-189v-445h-100v445h-72v77h72v51q0 57 44.5 98t130.5 41q80 0 159 -39q51 39 137 39q68 0 127 -26v-80q-59 26 -115 26q-48 0 -71 -14.5t-23 -51.5v-44zM383 522v57q0 13 3 27q-56 26 -113 26q-40 0 -59.5 -14.5
t-19.5 -51.5v-44h189z" />
    <glyph glyph-name="f_f_j" unicode="ffj" horiz-adv-x="850" 
d="M483 522h289v-549q0 -77 -42.5 -115t-103.5 -38q-32 0 -56 6v80q11 -1 21 -1q48 0 64.5 19.5t16.5 81.5v439h-189v-445h-100v445h-189v-445h-100v445h-72v77h72v51q0 57 44.5 98t130.5 41q80 0 159 -39q51 39 137 39q68 0 127 -26v-80q-59 26 -115 26q-48 0 -71 -14.5
t-23 -51.5v-44zM383 522v57q0 13 3 27q-56 26 -113 26q-40 0 -59.5 -14.5t-19.5 -51.5v-44h189z" />
    <glyph glyph-name="f_f_l" unicode="ffl" horiz-adv-x="869" 
d="M812 80q12 0 24 1v-81q-26 -6 -55 -6q-114 0 -114 127v496q-47 15 -100 15q-42 0 -63 -14.5t-21 -51.5v-44h110v-77h-110v-445h-100v445h-189v-445h-100v445h-72v77h72v51q0 57 44.5 98t130.5 41q80 0 158 -39q47 39 129 39q54 0 111 -17l100 5v-562q0 -36 7 -47t38 -11z
M383 522v57q0 13 3 27q-56 26 -113 26q-40 0 -59.5 -14.5t-19.5 -51.5v-44h189z" />
    <glyph glyph-name="f_i" unicode="fi" horiz-adv-x="561" 
d="M276 712q68 0 127 -26v-80q-59 26 -115 26q-48 0 -71 -14.5t-23 -51.5v-44h289v-522h-100v445h-189v-445h-100v445h-72v77h72v57q0 56 46 94.5t136 38.5z" />
    <glyph glyph-name="f_j" unicode="fj" horiz-adv-x="561" 
d="M276 712q68 0 127 -26v-80q-59 26 -115 26q-48 0 -71 -14.5t-23 -51.5v-44h289v-549q0 -77 -42.5 -115t-103.5 -38q-32 0 -56 6v80q11 -1 21 -1q48 0 64.5 19.5t16.5 81.5v439h-189v-445h-100v445h-72v77h72v57q0 56 46 94.5t136 38.5z" />
    <glyph glyph-name="f_l" unicode="fl" horiz-adv-x="580" 
d="M267 712q54 0 111 -17l100 5v-562q0 -36 7 -47t38 -11q12 0 24 1v-81q-25 -6 -55 -6q-114 0 -114 127v496q-47 15 -100 15q-42 0 -63 -14.5t-21 -51.5v-44h110v-77h-110v-445h-100v445h-72v77h72v57q0 55 44.5 94t128.5 39z" />
    <glyph glyph-name=".notdef" 
d="M531 700v-862h-462v862h462zM429 610h-258v-682h258v682z" />
    <glyph glyph-name=".null" horiz-adv-x="0" 
 />
    <glyph glyph-name="nonmarkingreturn" horiz-adv-x="333" 
 />
    <glyph glyph-name="CR" unicode="&#xd;" horiz-adv-x="260" 
 />
    <glyph glyph-name="space" unicode=" " horiz-adv-x="260" 
 />
    <glyph glyph-name="exclam" unicode="!" horiz-adv-x="256" 
d="M183 703v-222l-20 -274h-70l-20 274v222h110zM129 131q29 0 50 -21.5t21 -50.5t-21 -50t-50 -21q-30 0 -51 21.5t-21 50.5t21 50t51 21z" />
    <glyph glyph-name="quotedbl" unicode="&#x22;" horiz-adv-x="420" 
d="M159 716v-304h-88v304h88zM349 716v-304h-88v304h88z" />
    <glyph glyph-name="numbersign" unicode="#" 
d="M549 447h-86l-31 -219h76v-74h-87l-22 -154h-86l22 154h-110l-22 -154h-85l22 154h-78v74h89l31 219h-79v74h90l23 159h85l-23 -159h110l23 159h85l-23 -159h76v-74zM346 228l31 219h-110l-31 -219h110z" />
    <glyph glyph-name="dollar" unicode="$" horiz-adv-x="658" 
d="M375 834v-119q147 -16 231 -122l-80 -56q-51 78 -154 92v-227q136 -28 189 -75.5t53 -131.5q0 -87 -61.5 -144.5t-177.5 -65.5v-134h-73v135q-170 12 -257 129l75 62q75 -93 185 -105v250q-225 46 -225 201q0 83 60.5 134.5t161.5 58.5v118h73zM305 416v215
q-59 -5 -90 -32t-31 -72t23 -69.5t98 -41.5zM372 309v-238q65 6 100.5 37.5t35.5 81.5q0 45 -25.5 73t-110.5 46z" />
    <glyph glyph-name="percent" unicode="%" horiz-adv-x="1014" 
d="M230 715q78 0 132.5 -57.5t54.5 -170.5q0 -114 -54.5 -171.5t-132.5 -57.5q-79 0 -133.5 57.5t-54.5 171.5q0 113 54.5 170.5t133.5 57.5zM762 712l-433 -724h-85l433 724h85zM230 643q-100 0 -100 -155q0 -158 100 -158q98 0 98 156q0 157 -98 157zM785 445
q78 0 132.5 -58t54.5 -171q0 -114 -54.5 -171.5t-132.5 -57.5q-79 0 -133.5 57.5t-54.5 171.5q0 113 54.5 171t133.5 58zM785 372q-100 0 -100 -155q0 -157 100 -157q98 0 98 155q0 157 -98 157z" />
    <glyph glyph-name="ampersand" unicode="&#x26;" horiz-adv-x="699" 
d="M296 -12q-67 0 -124 21.5t-96.5 72.5t-39.5 124q0 123 140 195q-48 47 -68 80t-20 75q0 77 56 118.5t139 41.5q85 0 136 -41.5t51 -103.5q0 -54 -33.5 -96.5t-124.5 -89.5l199 -190q24 66 19 174h98q0 -78 -11.5 -130.5t-41.5 -103.5q45 -39 123 -62l-32 -85
q-82 18 -148 79q-87 -79 -222 -79zM257 437q63 31 88.5 58t25.5 71q0 30 -25.5 50.5t-65.5 20.5q-44 0 -69.5 -21.5t-25.5 -56.5q0 -32 15 -57t57 -65zM301 76q100 0 160 47l-231 225q-92 -55 -92 -142q0 -61 42.5 -95.5t120.5 -34.5z" />
    <glyph glyph-name="quotesingle" unicode="'" horiz-adv-x="230" 
d="M159 716v-304h-88v304h88z" />
    <glyph glyph-name="parenleft" unicode="(" horiz-adv-x="281" 
d="M180 780h77q-57 -132 -82 -235.5t-25 -241.5t25 -241t82 -235h-77q-136 240 -136 476q0 237 136 477z" />
    <glyph glyph-name="parenright" unicode=")" horiz-adv-x="281" 
d="M24 780h77q136 -240 136 -477q0 -236 -136 -476h-77q57 132 82 235t25 241t-25 241.5t-82 235.5z" />
    <glyph glyph-name="asterisk" unicode="*" horiz-adv-x="459" 
d="M277 716l-16 -150l136 61l29 -92l-144 -28l106 -106l-81 -58l-76 127l-72 -130l-82 54l103 113l-147 28l29 92l136 -61l-17 150h96z" />
    <glyph glyph-name="plus" unicode="+" 
d="M349 493v-156h150v-89h-150v-156h-98v156h-151v89h151v156h98z" />
    <glyph glyph-name="comma" unicode="," horiz-adv-x="275" 
d="M136 131q31 0 52 -21.5t21 -53.5q0 -112 -103 -225l-53 26q39 64 46 142q-35 22 -35 61q0 29 21.5 50t50.5 21z" />
    <glyph glyph-name="hyphen" unicode="-" horiz-adv-x="360" 
d="M310 347v-89h-260v89h260z" />
    <glyph glyph-name="period" unicode="." horiz-adv-x="275" 
d="M138 131q29 0 50 -21.5t21 -50.5t-21 -50t-50 -21q-30 0 -51 21.5t-21 50.5t21 50t51 21z" />
    <glyph glyph-name="slash" unicode="/" horiz-adv-x="520" 
d="M476 775l-352 -936h-80l353 936h79z" />
    <glyph glyph-name="zero" unicode="0" horiz-adv-x="609" 
d="M305 592q121 0 195.5 -83t74.5 -223q0 -138 -74.5 -218t-195.5 -80q-122 0 -196.5 80t-74.5 218q0 140 75 223t196 83zM305 508q-78 0 -123.5 -59t-45.5 -163q0 -101 45.5 -158t123.5 -57q77 0 122 56.5t45 158.5q0 103 -45 162.5t-122 59.5z" />
    <glyph glyph-name="one" unicode="1" horiz-adv-x="479" 
d="M61 0v84h161v272h-166v77h27q83 0 117 35.5t46 105.5h76v-490h141v-84h-402z" />
    <glyph glyph-name="two" unicode="2" horiz-adv-x="571" 
d="M292 586q100 0 158 -51.5t58 -130.5q0 -90 -64.5 -158.5t-235.5 -161.5h308v-84h-456v82q211 130 277 190t66 126q0 50 -30.5 77.5t-80.5 27.5q-61 0 -96 -36.5t-35 -90.5h-102q3 85 64 147.5t169 62.5z" />
    <glyph glyph-name="three" unicode="3" horiz-adv-x="574" 
d="M289 592q107 0 164 -51t57 -135q0 -62 -34 -102.5t-88 -52.5q57 -8 100 -54.5t43 -120.5q0 -102 -70 -162t-176 -60q-95 0 -164.5 51t-90.5 141l96 22q12 -59 53 -94.5t106 -35.5q64 0 103.5 35t39.5 105q0 61 -35 95t-94 34h-80v75h67q51 0 86.5 27t35.5 92
q0 54 -34.5 81.5t-86.5 27.5q-56 0 -94 -30t-51 -86l-95 17q13 76 78.5 128.5t163.5 52.5z" />
    <glyph glyph-name="four" unicode="4" horiz-adv-x="609" 
d="M472 574v-490h112v-84h-112v-130h-98v130h-329v88l304 486h123zM374 458l-226 -374h226v374z" />
    <glyph glyph-name="five" unicode="5" horiz-adv-x="588" 
d="M510 574l-14 -85h-299l-24 -183q61 57 149 57q91 0 157 -65.5t66 -167.5q0 -125 -68.5 -200.5t-188.5 -75.5q-96 0 -158.5 49t-83.5 112l90 27q13 -44 55 -74.5t99 -30.5q72 0 112.5 51t40.5 133q0 75 -39 116.5t-105 41.5q-91 0 -143 -75l-87 12l49 358h392z" />
    <glyph glyph-name="six" unicode="6" horiz-adv-x="578" 
d="M307 696q152 0 212 -142l-89 -29q-35 91 -122 91q-73 0 -116 -68.5t-50 -187.5q61 94 171 94q98 0 160 -63.5t62 -169.5q0 -103 -67.5 -169t-171.5 -66q-113 0 -183 80.5t-70 245.5q0 180 72 282t192 102zM294 371q-64 0 -103 -42.5t-39 -108.5q0 -67 40 -109.5
t102 -42.5q63 0 101.5 41t38.5 112q0 65 -37 107.5t-103 42.5z" />
    <glyph glyph-name="seven" unicode="7" horiz-adv-x="497" 
d="M487 574v-85q-125 -148 -189.5 -288t-85.5 -331h-106q21 202 91.5 340t195.5 278h-290v-80h-88v166h472z" />
    <glyph glyph-name="eight" unicode="8" horiz-adv-x="594" 
d="M295 696q109 0 167 -54.5t58 -128.5q0 -55 -28 -86t-80 -54q66 -24 105 -70t39 -106q0 -29 -7.5 -57t-26.5 -56.5t-47.5 -49.5t-75 -34.5t-104.5 -13.5q-67 0 -119 18.5t-81 50t-43.5 67t-14.5 73.5q0 55 35 99.5t94 66.5q-52 27 -74 63.5t-22 88.5q0 74 58 128.5
t167 54.5zM295 617q-56 0 -91 -28.5t-35 -76.5q0 -42 29.5 -65t100.5 -43l34 -9q90 51 90 117q0 43 -33.5 74t-94.5 31zM276 326l-26 8q-113 -45 -113 -136q0 -54 42.5 -92t115.5 -38q84 0 122.5 41t38.5 92q0 13 -2.5 24.5t-9 20.5t-12.5 16.5t-18.5 14.5t-21 11t-26 10
t-27.5 9t-31.5 9.5t-31.5 9.5z" />
    <glyph glyph-name="nine" unicode="9" horiz-adv-x="583" 
d="M288 592q113 0 182.5 -79.5t69.5 -249.5q0 -409 -269 -409q-159 0 -226 133l85 37q48 -88 142 -88q83 0 125 76t46 195q-30 -47 -77.5 -70.5t-98.5 -23.5q-95 0 -159.5 67t-64.5 172q0 108 69 174t176 66zM290 507q-63 0 -104 -40.5t-41 -114.5q0 -64 36.5 -109
t104.5 -45q62 0 101.5 44.5t39.5 109.5q0 75 -38 115t-99 40z" />
    <glyph glyph-name="colon" unicode=":" horiz-adv-x="276" 
d="M138 501q29 0 50 -21.5t21 -50.5t-21 -50t-50 -21q-30 0 -51 21.5t-21 50.5t21 50t51 21zM138 131q29 0 50 -21.5t21 -50.5t-21 -50t-50 -21q-30 0 -51 21.5t-21 50.5t21 50t51 21z" />
    <glyph glyph-name="semicolon" unicode=";" horiz-adv-x="276" 
d="M136 131q31 0 52 -21.5t21 -53.5q0 -112 -103 -225l-53 26q39 64 46 142q-35 22 -35 61q0 29 21.5 50t50.5 21zM138 500q29 0 50 -21.5t21 -50.5t-21 -50t-50 -21q-30 0 -51 21.5t-21 50.5t21 50t51 21z" />
    <glyph glyph-name="less" unicode="&#x3c;" 
d="M490 520v-96l-315 -131l315 -131v-96l-380 169v116z" />
    <glyph glyph-name="equal" unicode="=" 
d="M499 452v-89h-399v89h399zM499 242v-89h-399v89h399z" />
    <glyph glyph-name="greater" unicode="&#x3e;" 
d="M110 520l380 -169v-116l-380 -169v96l315 131l-315 131v96z" />
    <glyph glyph-name="question" unicode="?" horiz-adv-x="519" 
d="M264 714q61 0 107.5 -19t70.5 -49t35.5 -60.5t11.5 -59.5q0 -51 -19 -88t-46 -57.5t-54 -38.5t-46 -43.5t-19 -59.5v-32h-100v50q0 37 18.5 67t44.5 51t52 41t44.5 46t18.5 58q0 52 -31 79t-85 27q-105 0 -148 -114l-93 28q18 63 78.5 118.5t159.5 55.5zM258 131
q29 0 50 -21.5t21 -50.5t-21 -50t-50 -21q-30 0 -51 21.5t-21 50.5t21 50t51 21z" />
    <glyph glyph-name="at" unicode="@" horiz-adv-x="1031" 
d="M546 716q186 0 300.5 -106.5t114.5 -274.5q0 -54 -13.5 -107t-39 -99.5t-69.5 -75.5t-98 -29q-57 0 -84 27.5t-33 64.5q-22 -43 -68 -67.5t-101 -24.5q-83 0 -132 55.5t-49 143.5q0 130 73.5 212t175.5 82q41 0 76 -17t50 -53l8 46h87l-53 -321q-6 -35 7 -53t41 -18
q58 0 93 69.5t35 169.5q0 131 -89 216t-234 85q-171 0 -275 -107.5t-104 -282.5q0 -154 92.5 -253t242.5 -99q100 0 199 34l26 -73q-120 -40 -225 -40q-186 0 -307.5 119.5t-121.5 309.5q0 208 132.5 337.5t342.5 129.5zM530 433q-75 0 -114.5 -63t-39.5 -148
q0 -116 98 -116q62 0 106.5 53.5t44.5 157.5q0 116 -95 116z" />
    <glyph glyph-name="A" unicode="A" horiz-adv-x="625" 
d="M500 0l-41 127h-301l-40 -127h-106l234 700h133l233 -700h-112zM309 614l-123 -399h245z" />
    <glyph glyph-name="B" unicode="B" horiz-adv-x="637" 
d="M452 378q74 -14 113.5 -60.5t39.5 -117.5q0 -91 -64.5 -145.5t-189.5 -54.5h-269v700h230q255 0 255 -180q0 -112 -115 -142zM324 610h-139v-197h158q54 0 87 25t33 76t-34 73.5t-105 22.5zM185 90h173q64 0 102 30t38 86q0 123 -141 123h-172v-239z" />
    <glyph glyph-name="C" unicode="C" horiz-adv-x="716" 
d="M372 716q59 0 110.5 -17t100 -62.5t74.5 -117.5l-102 -29q-49 134 -184 134q-99 0 -156 -72.5t-57 -199.5q0 -129 54.5 -202.5t158.5 -73.5q150 0 200 150l99 -33q-36 -103 -117 -156t-182 -53q-45 0 -87.5 11t-85.5 38t-74.5 67.5t-51.5 105t-20 145.5q0 95 27 167.5
t73.5 114.5t102 62.5t117.5 20.5z" />
    <glyph glyph-name="D" unicode="D" horiz-adv-x="692" 
d="M82 700h209q153 0 250.5 -86.5t97.5 -253.5q0 -80 -19.5 -143.5t-50.5 -103t-73.5 -66t-86 -37t-90.5 -10.5h-237v700zM296 608h-112v-516h135q41 0 76 11.5t68 39.5t51.5 83t18.5 133q0 112 -57.5 180.5t-179.5 68.5z" />
    <glyph glyph-name="E" unicode="E" horiz-adv-x="578" 
d="M517 700v-90h-333v-208h312v-90h-312v-222h342v-90h-444v700h435z" />
    <glyph glyph-name="F" unicode="F" horiz-adv-x="545" 
d="M505 700v-90h-321v-223h298v-90h-298v-297h-102v700h423z" />
    <glyph glyph-name="G" unicode="G" horiz-adv-x="734" 
d="M372 716q92 0 168 -45t114 -140l-92 -37q-52 132 -192 132q-103 0 -157.5 -74t-54.5 -205q0 -129 54 -201t159 -72q86 0 139.5 45t53.5 127v36h-174v89h276v-371h-102v70q-71 -86 -201 -86q-45 0 -87 11t-83.5 37.5t-72 67t-49.5 104t-19 142.5q0 95 27 168.5t73.5 116
t102 64t117.5 21.5z" />
    <glyph glyph-name="H" unicode="H" horiz-adv-x="705" 
d="M622 700v-700h-102v318h-336v-318h-102v700h102v-292h336v292h102z" />
    <glyph glyph-name="I" unicode="I" horiz-adv-x="372" 
d="M333 700v-88h-96v-524h96v-88h-293v88h95v524h-95v88h293z" />
    <glyph glyph-name="J" unicode="J" horiz-adv-x="395" 
d="M324 700v-499q0 -100 -44 -153.5t-152 -53.5q-50 0 -101 6v90q36 -2 56 -2q83 0 111 25.5t28 98.5v488h102z" />
    <glyph glyph-name="K" unicode="K" horiz-adv-x="656" 
d="M524 0l-231 337l-109 -128v-209h-102v700h102v-354l300 354h123l-245 -287l282 -413h-120z" />
    <glyph glyph-name="L" unicode="L" horiz-adv-x="528" 
d="M184 700v-608h316v-92h-418v700h102z" />
    <glyph glyph-name="M" unicode="M" horiz-adv-x="831" 
d="M725 700l52 -700h-100l-45 606l-160 -606h-116l-160 606l-43 -606h-99l52 700h166l144 -578l145 578h164z" />
    <glyph glyph-name="N" unicode="N" horiz-adv-x="696" 
d="M614 700v-700h-109l-325 525v-525h-98v700h104l330 -540v540h98z" />
    <glyph glyph-name="O" unicode="O" horiz-adv-x="753" 
d="M376 716q45 0 88.5 -11t87 -38t76 -67.5t53 -105t20.5 -145.5q0 -95 -28 -167.5t-75.5 -114.5t-103.5 -62.5t-118 -20.5q-57 0 -111 19t-103.5 59t-79.5 114.5t-30 174.5q0 77 18.5 139.5t50 103.5t74 69t87.5 40.5t94 12.5zM377 626q-100 0 -159.5 -73.5t-59.5 -200.5
q0 -129 57 -203.5t162 -74.5q97 0 157.5 74t60.5 200q0 128 -56.5 203t-161.5 75z" />
    <glyph glyph-name="P" unicode="P" horiz-adv-x="618" 
d="M82 700h249q124 0 187 -64t63 -156q0 -101 -63 -163.5t-184 -62.5h-150v-254h-102v700zM184 342h157q58 0 96 33t38 104q0 59 -35.5 95t-96.5 36h-159v-268z" />
    <glyph glyph-name="Q" unicode="Q" horiz-adv-x="755" 
d="M376 716q45 0 88.5 -11t87 -38t76 -67.5t53 -105t20.5 -145.5q0 -196 -126 -296q53 -43 148 -61l-41 -103q-114 34 -183 120q-60 -25 -123 -25q-57 0 -111 19t-103.5 59t-79.5 114.5t-30 174.5q0 77 18.5 139.5t50 103.5t74 69t87.5 40.5t94 12.5zM377 624
q-101 0 -160 -72.5t-59 -199.5q0 -128 56.5 -202t162.5 -74q98 0 158 73t60 199q0 128 -56.5 202t-161.5 74z" />
    <glyph glyph-name="R" unicode="R" horiz-adv-x="631" 
d="M82 700h243q125 0 187.5 -59t62.5 -146q0 -152 -153 -195l186 -300h-117l-172 286h-135v-286h-102v700zM337 610h-153v-238h151q134 0 134 122q0 56 -35 86t-97 30z" />
    <glyph glyph-name="S" unicode="S" horiz-adv-x="643" 
d="M319 -16q-86 0 -163.5 32t-128.5 99l73 62q86 -103 221 -103q73 0 121 31.5t48 84.5q0 56 -40 85.5t-161 48.5q-227 36 -227 195q0 89 69.5 143t181.5 54q178 0 275 -125l-79 -58q-65 93 -196 93q-68 0 -107.5 -27.5t-39.5 -75.5q0 -47 37.5 -71.5t154.5 -44.5
q125 -22 181.5 -72.5t56.5 -139.5q0 -94 -71 -152.5t-206 -58.5z" />
    <glyph glyph-name="T" unicode="T" horiz-adv-x="576" 
d="M544 700v-90h-205v-610h-102v610h-205v90h512z" />
    <glyph glyph-name="U" unicode="U" horiz-adv-x="670" 
d="M599 700v-455q0 -50 -13 -93.5t-41.5 -82.5t-82.5 -62t-128 -23q-75 0 -129 23t-81.5 62.5t-39.5 82.5t-12 93v455h102v-452q0 -90 40 -132t121 -42q162 0 162 174v452h102z" />
    <glyph glyph-name="V" unicode="V" horiz-adv-x="581" 
d="M568 700l-211 -700h-133l-212 700h111l170 -609l171 609h104z" />
    <glyph glyph-name="W" unicode="W" horiz-adv-x="840" 
d="M823 700l-152 -700h-120l-125 567l-117 -567h-126l-166 700h107l124 -593l122 593h114l128 -590l111 590h100z" />
    <glyph glyph-name="X" unicode="X" horiz-adv-x="640" 
d="M379 381l249 -381h-124l-189 299l-182 -299h-121l238 374l-205 326h121l150 -247l147 247h117z" />
    <glyph glyph-name="Y" unicode="Y" horiz-adv-x="611" 
d="M599 700l-242 -418v-282h-102v280l-242 420h116l179 -325l178 325h113z" />
    <glyph glyph-name="Z" unicode="Z" horiz-adv-x="601" 
d="M557 700v-86l-394 -522h401v-92h-532v81l398 529h-369v90h496z" />
    <glyph glyph-name="bracketleft" unicode="[" horiz-adv-x="300" 
d="M267 790v-80h-115v-801h115v-82h-214v963h214z" />
    <glyph glyph-name="backslash" unicode="\" horiz-adv-x="520" 
d="M123 775l353 -936h-80l-352 936h79z" />
    <glyph glyph-name="bracketright" unicode="]" horiz-adv-x="300" 
d="M33 710v80h214v-963h-214v82h115v801h-115z" />
    <glyph glyph-name="asciicircum" unicode="^" 
d="M352 716l182 -375h-109l-128 288l-127 -288h-104l182 375h104z" />
    <glyph glyph-name="underscore" unicode="_" horiz-adv-x="559" 
d="M561 -62v-89h-563v89h563z" />
    <glyph glyph-name="grave" unicode="`" horiz-adv-x="283" 
d="M162 731l91 -138h-88l-135 138h132z" />
    <glyph glyph-name="a" unicode="a" horiz-adv-x="552" 
d="M275 534q109 0 157 -42t48 -123v-256q0 -70 18 -113h-104q-10 25 -13 57q-57 -69 -161 -69q-83 0 -130.5 44.5t-47.5 114.5q0 148 207 173l131 16v26q0 53 -22 73t-85 20q-59 0 -85.5 -20t-27.5 -66h-97q2 83 58 124t154 41zM380 261l-101 -13q-71 -9 -102 -31t-31 -64
q0 -80 92 -80q58 0 100 34.5t42 87.5v66z" />
    <glyph glyph-name="b" unicode="b" horiz-adv-x="607" 
d="M177 700v-240q55 74 152 74q105 0 168 -75t63 -199q0 -114 -62.5 -193t-162.5 -79q-107 0 -158 73v-61h-100v700h100zM313 448q-64 0 -102 -48.5t-38 -141.5q0 -89 40 -137t100 -48q64 0 103.5 50t39.5 135q0 91 -36.5 140.5t-106.5 49.5z" />
    <glyph glyph-name="c" unicode="c" horiz-adv-x="561" 
d="M298 534q77 0 135 -37t85 -99l-87 -36q-38 86 -129 86q-69 0 -110 -49t-41 -136q0 -90 40 -140t111 -50q55 0 86.5 27.5t52.5 77.5l88 -38q-30 -69 -89 -110.5t-142 -41.5q-117 0 -184 76.5t-67 196.5t68 196.5t183 76.5z" />
    <glyph glyph-name="d" unicode="d" horiz-adv-x="607" 
d="M530 700v-700h-100v62q-55 -74 -154 -74q-104 0 -166.5 75.5t-62.5 196.5q0 120 63.5 197t167.5 77q97 0 152 -71v237h100zM294 448q-67 0 -105 -49t-38 -137q0 -91 36.5 -140t106.5 -49q64 0 102 48t38 141q0 89 -39.5 137.5t-100.5 48.5z" />
    <glyph glyph-name="e" unicode="e" horiz-adv-x="571" 
d="M292 534q110 0 172 -77t62 -196v-23h-376q2 -81 41 -123.5t111 -42.5q94 0 137 80l83 -44q-73 -120 -223 -120q-118 0 -185 77t-67 196q0 122 64 197.5t181 75.5zM291 451q-61 0 -97.5 -35.5t-42.5 -100.5h271q-4 66 -38.5 101t-92.5 35z" />
    <glyph glyph-name="f" unicode="f" horiz-adv-x="344" 
d="M256 712q47 0 101 -16v-81q-45 17 -89 17q-39 0 -56.5 -14.5t-17.5 -51.5v-44h139v-77h-139v-445h-100v445h-72v77h72v48q0 63 39.5 102.5t122.5 39.5z" />
    <glyph glyph-name="g" unicode="g" horiz-adv-x="555" 
d="M532 557v-89q-51 0 -77 -12q28 -41 28 -95q0 -75 -58.5 -120.5t-155.5 -45.5q-58 0 -103 19q-17 -20 -17 -37q0 -49 68 -49h103q106 0 155 -41.5t49 -107.5q0 -72 -65.5 -115.5t-180.5 -43.5q-124 0 -182.5 39.5t-58.5 102.5q0 66 75 106q-50 31 -50 88q0 49 52 86
q-61 46 -61 119q0 74 56 123.5t158 49.5q79 0 133 -30q42 53 132 53zM269 458q-56 0 -86.5 -25.5t-30.5 -69.5q0 -43 29.5 -68t86.5 -25t87.5 24.5t30.5 68.5q0 45 -29.5 70t-87.5 25zM291 47h-112q-28 -18 -38.5 -34t-10.5 -37q0 -78 148 -78q73 0 111 20.5t38 56.5
q0 38 -29.5 55t-106.5 17z" />
    <glyph glyph-name="h" unicode="h" horiz-adv-x="582" 
d="M177 700v-244q56 78 153 78q87 0 133.5 -53t46.5 -148v-333h-100v308q0 68 -22 104t-80 36q-56 0 -93.5 -43t-37.5 -110v-295h-100v700h100z" />
    <glyph glyph-name="i" unicode="i" horiz-adv-x="255" 
d="M177 522v-522h-100v522h100zM127 718q26 0 46 -19.5t20 -45.5t-20 -45.5t-46 -19.5q-27 0 -46.5 19.5t-19.5 45.5t19.5 45.5t46.5 19.5z" />
    <glyph glyph-name="j" unicode="j" horiz-adv-x="255" 
d="M178 522v-549q0 -77 -42.5 -115t-103.5 -38q-31 0 -57 6v80q12 -1 22 -1q48 0 64.5 19.5t16.5 81.5v516h100zM127 718q26 0 46 -19.5t20 -45.5t-20 -45.5t-46 -19.5q-27 0 -46.5 19.5t-19.5 45.5t19.5 45.5t46.5 19.5z" />
    <glyph glyph-name="k" unicode="k" horiz-adv-x="556" 
d="M177 700v-410l237 232h124l-208 -200l214 -322h-117l-165 256l-85 -81v-175h-100v700h100z" />
    <glyph glyph-name="l" unicode="l" horiz-adv-x="274" 
d="M172 700v-562q0 -36 7 -47t39 -11q11 0 23 1v-81q-25 -6 -55 -6q-114 0 -114 127v579h100z" />
    <glyph glyph-name="m" unicode="m" horiz-adv-x="877" 
d="M632 534q85 0 129 -52.5t44 -148.5v-333h-100v279q0 90 -18.5 129.5t-74.5 39.5q-53 0 -87 -43t-34 -111v-294h-100v279q0 90 -18.5 129.5t-74.5 39.5q-53 0 -87 -43t-34 -111v-294h-100v522h100v-60q54 72 141 72q108 0 147 -88q56 88 167 88z" />
    <glyph glyph-name="n" unicode="n" horiz-adv-x="582" 
d="M330 534q87 0 133.5 -53t46.5 -148v-333h-100v299q0 74 -22 111.5t-80 37.5q-56 0 -93.5 -43t-37.5 -110v-295h-100v522h100v-68q56 80 153 80z" />
    <glyph glyph-name="o" unicode="o" horiz-adv-x="602" 
d="M301 534q113 0 183 -78t70 -195q0 -122 -67.5 -197.5t-185.5 -75.5q-117 0 -185.5 76.5t-68.5 196.5t69 196.5t185 76.5zM301 448q-69 0 -109.5 -49t-40.5 -136q0 -90 39.5 -140t110.5 -50t110 50t39 140q0 87 -40.5 136t-108.5 49z" />
    <glyph glyph-name="p" unicode="p" horiz-adv-x="606" 
d="M330 534q102 0 165 -75.5t63 -194.5q0 -118 -62 -197t-167 -79q-102 0 -153 73v-223h-99v684h99v-60q56 72 154 72zM314 448q-65 0 -103 -47.5t-38 -138.5q0 -93 39 -141t100 -48q64 0 103.5 50.5t39.5 140.5q0 85 -36.5 134.5t-104.5 49.5z" />
    <glyph glyph-name="q" unicode="q" horiz-adv-x="607" 
d="M277 534q102 0 153 -72v60h100v-684h-100v225q-56 -75 -154 -75q-104 0 -166.5 75.5t-62.5 196.5q0 120 63 197t167 77zM294 448q-67 0 -105 -49t-38 -137q0 -91 36.5 -140t106.5 -49q64 0 102 48.5t38 141.5q0 89 -39.5 137t-100.5 48z" />
    <glyph glyph-name="r" unicode="r" horiz-adv-x="379" 
d="M320 534q19 0 37 -2v-104q-18 1 -31 1q-149 0 -149 -187v-242h-100v522h100v-87q53 99 143 99z" />
    <glyph glyph-name="s" unicode="s" horiz-adv-x="519" 
d="M260 534q130 0 210 -80l-60 -61q-60 58 -150 58q-50 0 -77.5 -18t-27.5 -48q0 -32 27.5 -47t104.5 -27q99 -16 146.5 -52t47.5 -109t-58.5 -117.5t-164.5 -44.5q-154 0 -236 92l65 64q64 -72 169 -72q62 0 92.5 19.5t30.5 53.5t-28.5 52t-117.5 32q-178 28 -178 152
q0 70 56.5 111.5t148.5 41.5z" />
    <glyph glyph-name="t" unicode="t" horiz-adv-x="365" 
d="M194 660v-138h135v-77h-135v-305q0 -35 15 -51.5t51 -16.5q38 0 83 13v-81q-54 -16 -102 -16q-147 0 -147 138v319h-72v77h72v138h100z" />
    <glyph glyph-name="u" unicode="u" horiz-adv-x="576" 
d="M499 522v-522h-100v60q-28 -34 -68 -53t-82 -19q-83 0 -130 46t-47 134v354h100v-332q0 -61 22.5 -88t73.5 -27q58 0 94.5 39t36.5 106v302h100z" />
    <glyph glyph-name="v" unicode="v" horiz-adv-x="501" 
d="M490 522l-181 -522h-117l-179 522h109l130 -422l135 422h103z" />
    <glyph glyph-name="w" unicode="w" horiz-adv-x="771" 
d="M754 522l-150 -522h-118l-99 392l-104 -392h-117l-148 522h109l101 -411l103 411h110l107 -411l104 411h102z" />
    <glyph glyph-name="x" unicode="x" horiz-adv-x="517" 
d="M478 522l-157 -236l183 -286h-118l-129 210l-128 -210h-117l183 281l-158 241h119l104 -167l103 167h115z" />
    <glyph glyph-name="y" unicode="y" horiz-adv-x="501" 
d="M489 522l-175 -556q-24 -74 -62 -110t-118 -36q-36 0 -61 6v79q19 -2 42 -2q53 0 74.5 20.5t35.5 76.5h-33l-179 522h109l137 -444l127 444h103z" />
    <glyph glyph-name="z" unicode="z" horiz-adv-x="473" 
d="M436 522v-79l-284 -357h288v-86h-413v76l288 362h-258v84h379z" />
    <glyph glyph-name="braceleft" unicode="{" horiz-adv-x="300" 
d="M282 790v-82h-14q-45 0 -58.5 -19.5t-13.5 -57.5v-214q0 -48 -28 -75.5t-57 -32.5q29 -5 57 -33t28 -76v-211q0 -38 13.5 -57.5t58.5 -19.5h14v-82h-34q-71 0 -111.5 39t-40.5 101v215q0 48 -13 67.5t-45 26.5v60q32 7 45 26t13 67v218q0 62 40.5 101t111.5 39h34z" />
    <glyph glyph-name="bar" unicode="|" horiz-adv-x="300" 
d="M188 774v-936h-75v936h75z" />
    <glyph glyph-name="braceright" unicode="}" horiz-adv-x="300" 
d="M18 708v82h34q71 0 111.5 -39t40.5 -101v-218q0 -48 13 -67t45 -26v-60q-32 -7 -45 -26.5t-13 -67.5v-215q0 -62 -40.5 -101t-111.5 -39h-34v82h14q45 0 58.5 19.5t13.5 57.5v211q0 48 28 76t57 33q-29 5 -57 32.5t-28 75.5v214q0 38 -13.5 57.5t-58.5 19.5h-14z" />
    <glyph glyph-name="asciitilde" unicode="~" 
d="M215 387q49 0 104.5 -30t72.5 -30q45 0 75 53l57 -48q-47 -92 -139 -92q-49 0 -104.5 30t-72.5 30q-45 0 -75 -53l-57 48q47 92 139 92z" />
    <glyph glyph-name="uni00A0" unicode="&#xa0;" horiz-adv-x="260" 
 />
    <glyph glyph-name="exclamdown" unicode="&#xa1;" horiz-adv-x="256" 
d="M128 532q29 0 50 -21t21 -50t-21 -50.5t-50 -21.5q-30 0 -51 21t-21 50t21 50.5t51 21.5zM163 304l20 -244v-222h-110v222l20 244h70z" />
    <glyph glyph-name="cent" unicode="&#xa2;" 
d="M456 169l79 -29q-54 -136 -200 -151v-138h-62v139q-101 11 -155.5 85t-54.5 186t55 185.5t155 85.5v136h62v-135q68 -7 118.5 -43t73.5 -92l-77 -32q-18 40 -45.5 62t-72.5 27v-387q87 11 124 101zM159 263q0 -177 118 -194v385q-118 -18 -118 -191z" />
    <glyph glyph-name="sterling" unicode="&#xa3;" horiz-adv-x="660" 
d="M376 716q77 0 129 -41t74 -104l-96 -28q-13 46 -39 68t-72 22q-48 0 -79.5 -30.5t-31.5 -84.5v-151h214v-62h-214v-99q0 -45 -9.5 -71t-37.5 -48h336v-87h-438l-12 77q40 16 53.5 43.5t13.5 82.5v102h-85v62h85v156q0 81 53.5 137t155.5 56z" />
    <glyph glyph-name="currency" unicode="&#xa4;" horiz-adv-x="620" 
d="M84 568l100 -100q57 36 126 36q72 0 127 -36l99 99l61 -60l-98 -99q35 -57 35 -126q0 -71 -36 -127l99 -98l-61 -61l-100 99q-58 -35 -125 -35q-69 0 -127 35l-100 -100l-61 61l100 100q-35 54 -35 126q0 69 34 126l-99 100zM310 422q-60 0 -94 -37.5t-34 -102.5
t34.5 -102.5t94.5 -37.5q61 0 95 37.5t34 102.5t-34.5 102.5t-95.5 37.5z" />
    <glyph glyph-name="yen" unicode="&#xa5;" horiz-adv-x="658" 
d="M622 700l-207 -344h130v-62h-165v-71h165v-62h-165v-161h-102v161h-165v62h165v71h-165v62h130l-207 344h116l179 -315l178 315h113z" />
    <glyph glyph-name="brokenbar" unicode="&#xa6;" horiz-adv-x="300" 
d="M188 774v-369h-75v369h75zM188 207v-369h-75v369h75z" />
    <glyph glyph-name="section" unicode="&#xa7;" 
d="M302 712q129 0 210 -78l-61 -62q-61 58 -149 58q-50 0 -78 -18t-28 -49q0 -33 28 -50t104 -29q100 -16 150.5 -54.5t50.5 -111.5q0 -67 -84 -133q58 -37 58 -108t-57.5 -112.5t-150.5 -41.5q-127 0 -212 82l62 59q62 -59 150 -59q50 0 79 18.5t29 48.5q0 33 -28 50
t-104 29q-100 16 -150.5 54.5t-50.5 111.5q0 68 84 133q-58 37 -58 108t56.5 112.5t149.5 41.5zM216 419q-28 -33 -37.5 -52t-9.5 -45q0 -36 32.5 -57.5t121.5 -38.5q9 -2 29 -5.5t30 -5.5q29 34 38.5 52.5t9.5 45.5q0 36 -33 58.5t-121 37.5q-10 1 -30 4.5t-30 5.5z" />
    <glyph glyph-name="dieresis" unicode="&#xa8;" horiz-adv-x="400" 
d="M93 719q25 0 44 -18.5t19 -43.5t-19 -43.5t-44 -18.5t-44 18.5t-19 43.5t19 43.5t44 18.5zM307 719q25 0 44 -18.5t19 -43.5t-19 -43.5t-44 -18.5t-44 18.5t-19 43.5t19 43.5t44 18.5z" />
    <glyph glyph-name="copyright" unicode="&#xa9;" horiz-adv-x="900" 
d="M451 716q152 0 258.5 -106.5t106.5 -260.5q0 -153 -106 -259t-259 -106t-260 106t-107 259t107 260t260 107zM451 658q-128 0 -216.5 -90t-88.5 -219q0 -128 88.5 -217.5t216.5 -89.5t215.5 89t87.5 218t-87.5 219t-215.5 90zM447 570q129 0 175 -121l-66 -19
q-26 81 -109 81q-56 0 -87 -41.5t-31 -119.5q0 -73 31 -117t90 -44q85 0 114 88l64 -22q-50 -126 -180 -126q-91 0 -140.5 63.5t-49.5 156.5q0 60 18 105.5t47.5 69.5t60.5 35t63 11z" />
    <glyph glyph-name="ordfeminine" unicode="&#xaa;" horiz-adv-x="425" 
d="M213 716q158 0 158 -124v-193q0 -54 13 -86h-87q-7 16 -11 42q-41 -51 -120 -51q-62 0 -97.5 33.5t-35.5 86.5q0 111 159 131l93 12v19q0 37 -15 51t-59 14q-41 0 -59 -14t-19 -46h-84q3 125 164 125zM285 506l-70 -9q-50 -6 -71.5 -21.5t-21.5 -45.5q0 -55 64 -55
q41 0 70 24t29 61v46z" />
    <glyph glyph-name="guillemotleft" unicode="&#xab;" horiz-adv-x="465" 
d="M174 480l52 -37l-90 -165l90 -165l-52 -37l-132 151v102zM373 480l52 -37l-90 -165l90 -165l-52 -37l-132 151v102z" />
    <glyph glyph-name="logicalnot" unicode="&#xac;" 
d="M499 337v-245h-98v156h-301v89h399z" />
    <glyph glyph-name="uni00AD" unicode="&#xad;" horiz-adv-x="360" 
d="M310 347v-89h-260v89h260z" />
    <glyph glyph-name="registered" unicode="&#xae;" horiz-adv-x="900" 
d="M451 716q152 0 258.5 -106.5t106.5 -260.5q0 -153 -106 -259t-259 -106t-260 106t-107 259t107 260t260 107zM451 658q-128 0 -216.5 -90t-88.5 -219q0 -128 88.5 -217.5t216.5 -89.5t215.5 89t87.5 218t-87.5 219t-215.5 90zM308 570h160q67 0 107 -34t40 -93
q0 -45 -28 -75t-65 -39l103 -178h-74l-96 168h-81v-168h-66v419zM469 514h-96v-140h94q33 0 55 18t22 53q0 32 -22 50.5t-53 18.5z" />
    <glyph glyph-name="macron" unicode="&#xaf;" horiz-adv-x="385" 
d="M355 689v-70h-325v70h325z" />
    <glyph glyph-name="degree" unicode="&#xb0;" horiz-adv-x="498" 
d="M249 712q76 0 131.5 -49t55.5 -131t-55.5 -130.5t-131.5 -48.5q-74 0 -130.5 49.5t-56.5 130.5t56 130t131 49zM250 637q-38 0 -66.5 -26.5t-28.5 -77.5t28.5 -78t66.5 -27q39 0 67.5 26.5t28.5 77.5t-29 78t-67 27z" />
    <glyph glyph-name="plusminus" unicode="&#xb1;" 
d="M354 493v-156h150v-89h-150v-112h-98v112h-151v89h151v156h98zM494 90v-89h-399v89h399z" />
    <glyph glyph-name="twosuperior" unicode="&#xb2;" horiz-adv-x="400" 
d="M202 761q72 0 114.5 -34.5t42.5 -92.5q0 -64 -48 -118t-148 -111h203v-75h-331v72q119 79 170.5 131t51.5 98q0 56 -59 56q-63 0 -65 -73h-97q1 64 43 105.5t123 41.5z" />
    <glyph glyph-name="threesuperior" unicode="&#xb3;" horiz-adv-x="400" 
d="M203 761q74 0 116.5 -31.5t42.5 -81.5q0 -38 -24 -62t-65 -32q45 -5 73.5 -31t28.5 -71q0 -60 -47.5 -95.5t-126.5 -35.5q-68 0 -114.5 30.5t-60.5 85.5l87 20q16 -61 87 -61q34 0 55 15.5t21 45.5q0 28 -20.5 43.5t-54.5 15.5h-47v68h40q30 0 50.5 13t20.5 40
q0 26 -18 38.5t-46 12.5q-64 0 -80 -55l-87 14q15 52 60 83t109 31z" />
    <glyph glyph-name="acute" unicode="&#xb4;" horiz-adv-x="283" 
d="M253 731l-136 -138h-87l90 138h133z" />
    <glyph glyph-name="mu" unicode="&#xb5;" horiz-adv-x="581" 
d="M504 522v-522h-100v57q-47 -73 -130 -73q-62 0 -97 40v-186h-100v684h100v-332q0 -60 23.5 -88.5t73.5 -28.5q57 0 93.5 40t36.5 107v302h100z" />
    <glyph glyph-name="paragraph" unicode="&#xb6;" 
d="M530 700v-862h-59v808h-134v-808h-58v484q-88 2 -145 57t-57 130q0 83 57 137t158 54h238z" />
    <glyph glyph-name="periodcentered" unicode="&#xb7;" horiz-adv-x="275" 
d="M138 367q29 0 50 -21.5t21 -50.5t-21 -50t-50 -21q-30 0 -51 21.5t-21 50.5t21 50t51 21z" />
    <glyph glyph-name="cedilla" unicode="&#xb8;" horiz-adv-x="288" 
d="M158 10l-1 -56q47 -4 75.5 -29t28.5 -56q0 -47 -34.5 -73t-87.5 -26q-64 0 -109 26l28 51q30 -16 66 -16q57 0 57 38q0 41 -104 41l19 100h62z" />
    <glyph glyph-name="onesuperior" unicode="&#xb9;" horiz-adv-x="400" 
d="M69 330v75h108v211h-107v61h16q58 0 80 17t28 56h77v-345h88v-75h-290z" />
    <glyph glyph-name="ordmasculine" unicode="&#xba;" horiz-adv-x="464" 
d="M232 716q88 0 142 -58.5t54 -147.5q0 -93 -52 -149.5t-144 -56.5q-91 0 -143.5 57.5t-52.5 148.5t53.5 148.5t142.5 57.5zM232 644q-49 0 -77.5 -35t-28.5 -98q0 -64 28 -100t78 -36t78 35.5t28 100.5q0 63 -28.5 98t-77.5 35z" />
    <glyph glyph-name="guillemotright" unicode="&#xbb;" horiz-adv-x="465" 
d="M293 480l132 -151v-102l-132 -151l-52 37l89 165l-89 165zM94 480l132 -151v-102l-132 -151l-52 37l89 165l-89 165z" />
    <glyph glyph-name="onequarter" unicode="&#xbc;" horiz-adv-x="928" 
d="M768 712l-433 -724h-85l433 724h85zM853 420v-269h58v-74h-58v-77h-92v77h-218v76l187 267h123zM761 329l-127 -178h127v178zM69 280v75h108v211h-107v61h16q58 0 80 17t28 56h77v-345h88v-75h-290z" />
    <glyph glyph-name="onehalf" unicode="&#xbd;" horiz-adv-x="978" 
d="M768 712l-433 -724h-85l433 724h85zM780 431q72 0 114.5 -34.5t42.5 -92.5q0 -64 -48 -118t-148 -111h203v-75h-331v72q119 79 170.5 131t51.5 98q0 56 -59 56q-63 0 -65 -73h-97q1 64 43 105.5t123 41.5zM69 280v75h108v211h-107v61h16q58 0 80 17t28 56h77v-345h88v-75
h-290z" />
    <glyph glyph-name="threequarters" unicode="&#xbe;" horiz-adv-x="888" 
d="M728 712l-433 -724h-85l433 724h85zM813 420v-269h58v-74h-58v-77h-92v77h-218v76l187 267h123zM721 329l-127 -178h127v178zM203 711q74 0 116.5 -31.5t42.5 -81.5q0 -38 -24 -62t-65 -32q45 -5 73.5 -31t28.5 -71q0 -60 -47.5 -95.5t-126.5 -35.5q-68 0 -114.5 30.5
t-60.5 85.5l87 20q16 -61 87 -61q34 0 55 15.5t21 45.5q0 28 -20.5 43.5t-54.5 15.5h-47v68h40q30 0 50.5 13t20.5 40q0 26 -18 38.5t-46 12.5q-64 0 -80 -55l-87 14q15 52 60 83t109 31z" />
    <glyph glyph-name="questiondown" unicode="&#xbf;" horiz-adv-x="519" 
d="M261 532q29 0 50 -21t21 -50t-21 -50.5t-50 -21.5q-30 0 -51 21t-21 50t21 50.5t51 21.5zM314 315v-38q0 -37 -18.5 -67t-44.5 -51t-52 -41t-44.5 -46t-18.5 -58q0 -53 31.5 -80t84.5 -27q105 0 148 115l93 -28q-18 -63 -78.5 -118.5t-159.5 -55.5q-61 0 -107.5 19
t-70.5 49t-35.5 60.5t-11.5 59.5q0 51 19 88t46 57.5t54 38.5t46 43.5t19 59.5v20h100z" />
    <glyph glyph-name="Agrave" unicode="&#xc0;" horiz-adv-x="625" 
d="M500 0l-41 127h-301l-40 -127h-106l234 700h133l233 -700h-112zM309 614l-123 -399h245zM277 886l91 -133h-88l-140 133h137z" />
    <glyph glyph-name="Aacute" unicode="&#xc1;" horiz-adv-x="625" 
d="M500 0l-41 127h-301l-40 -127h-106l234 700h133l233 -700h-112zM309 614l-123 -399h245zM494 886l-141 -133h-87l90 133h138z" />
    <glyph glyph-name="Acircumflex" unicode="&#xc2;" horiz-adv-x="625" 
d="M500 0l-41 127h-301l-40 -127h-106l234 700h133l233 -700h-112zM309 614l-123 -399h245zM362 886l135 -133h-96l-88 71l-88 -71h-96l135 133h98z" />
    <glyph glyph-name="Atilde" unicode="&#xc3;" horiz-adv-x="625" 
d="M500 0l-41 127h-301l-40 -127h-106l234 700h133l233 -700h-112zM309 614l-123 -399h245zM253 877q30 0 55 -13t42 -26t28 -13q29 0 45 41h59q-6 -49 -35 -80.5t-74 -31.5q-40 0 -77.5 26t-48.5 26q-30 0 -45 -40h-58q6 48 35 79.5t74 31.5z" />
    <glyph glyph-name="Adieresis" unicode="&#xc4;" horiz-adv-x="625" 
d="M500 0l-41 127h-301l-40 -127h-106l234 700h133l233 -700h-112zM309 614l-123 -399h245zM206 879q25 0 44 -18.5t19 -43.5t-19 -43.5t-44 -18.5t-44 18.5t-19 43.5t19 43.5t44 18.5zM420 879q25 0 44 -18.5t19 -43.5t-19 -43.5t-44 -18.5t-44 18.5t-19 43.5t19 43.5
t44 18.5z" />
    <glyph glyph-name="Aring" unicode="&#xc5;" horiz-adv-x="625" 
d="M500 0l-41 127h-301l-40 -127h-106l234 700h133l233 -700h-112zM309 614l-123 -399h245zM313 961q49 0 84 -32t35 -82t-35 -82t-84 -32t-84 32t-35 82t35 82t84 32zM313 904q-22 0 -37.5 -15.5t-15.5 -41.5q0 -27 15.5 -42t37.5 -15q23 0 38 15t15 42q0 26 -15 41.5
t-38 15.5z" />
    <glyph glyph-name="AE" unicode="&#xc6;" horiz-adv-x="952" 
d="M868 700v-90h-363l33 -208h315v-90h-300l35 -222h332v-90h-425l-18 122h-305l-59 -122h-110l354 700h511zM406 605l-192 -395h250z" />
    <glyph glyph-name="Ccedilla" unicode="&#xc7;" horiz-adv-x="716" 
d="M372 716q59 0 110.5 -17t100 -62.5t74.5 -117.5l-102 -29q-49 134 -184 134q-99 0 -156 -72.5t-57 -199.5q0 -129 54.5 -202.5t158.5 -73.5q150 0 200 150l99 -33q-34 -98 -108.5 -150t-168.5 -58v-31q47 -4 75.5 -29t28.5 -56q0 -47 -34.5 -73t-87.5 -26q-64 0 -109 26
l28 51q30 -16 66 -16q57 0 57 38q0 41 -104 41l14 77q-52 6 -98.5 28.5t-87.5 64t-65 111.5t-24 160q0 95 27 167.5t73.5 114.5t102 62.5t117.5 20.5z" />
    <glyph glyph-name="Egrave" unicode="&#xc8;" horiz-adv-x="578" 
d="M517 700v-90h-333v-208h312v-90h-312v-222h342v-90h-444v700h435zM264 886l91 -133h-88l-140 133h137z" />
    <glyph glyph-name="Eacute" unicode="&#xc9;" horiz-adv-x="578" 
d="M517 700v-90h-333v-208h312v-90h-312v-222h342v-90h-444v700h435zM481 886l-141 -133h-87l90 133h138z" />
    <glyph glyph-name="Ecircumflex" unicode="&#xca;" horiz-adv-x="578" 
d="M517 700v-90h-333v-208h312v-90h-312v-222h342v-90h-444v700h435zM349 886l135 -133h-96l-88 71l-88 -71h-96l135 133h98z" />
    <glyph glyph-name="Edieresis" unicode="&#xcb;" horiz-adv-x="578" 
d="M517 700v-90h-333v-208h312v-90h-312v-222h342v-90h-444v700h435zM193 879q25 0 44 -18.5t19 -43.5t-19 -43.5t-44 -18.5t-44 18.5t-19 43.5t19 43.5t44 18.5zM407 879q25 0 44 -18.5t19 -43.5t-19 -43.5t-44 -18.5t-44 18.5t-19 43.5t19 43.5t44 18.5z" />
    <glyph glyph-name="Igrave" unicode="&#xcc;" horiz-adv-x="372" 
d="M333 700v-88h-96v-524h96v-88h-293v88h95v524h-95v88h293zM150 886l91 -133h-88l-140 133h137z" />
    <glyph glyph-name="Iacute" unicode="&#xcd;" horiz-adv-x="372" 
d="M333 700v-88h-96v-524h96v-88h-293v88h95v524h-95v88h293zM367 886l-141 -133h-87l90 133h138z" />
    <glyph glyph-name="Icircumflex" unicode="&#xce;" horiz-adv-x="372" 
d="M333 700v-88h-96v-524h96v-88h-293v88h95v524h-95v88h293zM235 886l135 -133h-96l-88 71l-88 -71h-96l135 133h98z" />
    <glyph glyph-name="Idieresis" unicode="&#xcf;" horiz-adv-x="372" 
d="M333 700v-88h-96v-524h96v-88h-293v88h95v524h-95v88h293zM79 879q25 0 44 -18.5t19 -43.5t-19 -43.5t-44 -18.5t-44 18.5t-19 43.5t19 43.5t44 18.5zM293 879q25 0 44 -18.5t19 -43.5t-19 -43.5t-44 -18.5t-44 18.5t-19 43.5t19 43.5t44 18.5z" />
    <glyph glyph-name="Eth" unicode="&#xd0;" horiz-adv-x="717" 
d="M107 700h209q153 0 250.5 -86.5t97.5 -253.5q0 -80 -19.5 -143.5t-50.5 -103t-73.5 -66t-86 -37t-90.5 -10.5h-237v331h-80v69h80v300zM209 92h135q41 0 76 11.5t68 39.5t51.5 83t18.5 133q0 112 -57.5 180.5t-179.5 68.5h-112v-208h187v-69h-187v-239z" />
    <glyph glyph-name="Ntilde" unicode="&#xd1;" horiz-adv-x="696" 
d="M614 700v-700h-109l-325 525v-525h-98v700h104l330 -540v540h98zM289 877q30 0 55 -13t42 -26t28 -13q29 0 45 41h59q-6 -49 -35 -80.5t-74 -31.5q-40 0 -77.5 26t-48.5 26q-30 0 -45 -40h-58q6 48 35 79.5t74 31.5z" />
    <glyph glyph-name="Ograve" unicode="&#xd2;" horiz-adv-x="753" 
d="M376 716q45 0 88.5 -11t87 -38t76 -67.5t53 -105t20.5 -145.5q0 -95 -28 -167.5t-75.5 -114.5t-103.5 -62.5t-118 -20.5q-57 0 -111 19t-103.5 59t-79.5 114.5t-30 174.5q0 77 18.5 139.5t50 103.5t74 69t87.5 40.5t94 12.5zM377 626q-100 0 -159.5 -73.5t-59.5 -200.5
q0 -129 57 -203.5t162 -74.5q97 0 157.5 74t60.5 200q0 128 -56.5 203t-161.5 75zM341 886l91 -133h-88l-140 133h137z" />
    <glyph glyph-name="Oacute" unicode="&#xd3;" horiz-adv-x="753" 
d="M376 716q45 0 88.5 -11t87 -38t76 -67.5t53 -105t20.5 -145.5q0 -95 -28 -167.5t-75.5 -114.5t-103.5 -62.5t-118 -20.5q-57 0 -111 19t-103.5 59t-79.5 114.5t-30 174.5q0 77 18.5 139.5t50 103.5t74 69t87.5 40.5t94 12.5zM377 626q-100 0 -159.5 -73.5t-59.5 -200.5
q0 -129 57 -203.5t162 -74.5q97 0 157.5 74t60.5 200q0 128 -56.5 203t-161.5 75zM558 886l-141 -133h-87l90 133h138z" />
    <glyph glyph-name="Ocircumflex" unicode="&#xd4;" horiz-adv-x="753" 
d="M376 716q45 0 88.5 -11t87 -38t76 -67.5t53 -105t20.5 -145.5q0 -95 -28 -167.5t-75.5 -114.5t-103.5 -62.5t-118 -20.5q-57 0 -111 19t-103.5 59t-79.5 114.5t-30 174.5q0 77 18.5 139.5t50 103.5t74 69t87.5 40.5t94 12.5zM377 626q-100 0 -159.5 -73.5t-59.5 -200.5
q0 -129 57 -203.5t162 -74.5q97 0 157.5 74t60.5 200q0 128 -56.5 203t-161.5 75zM426 886l135 -133h-96l-88 71l-88 -71h-96l135 133h98z" />
    <glyph glyph-name="Otilde" unicode="&#xd5;" horiz-adv-x="753" 
d="M376 716q45 0 88.5 -11t87 -38t76 -67.5t53 -105t20.5 -145.5q0 -95 -28 -167.5t-75.5 -114.5t-103.5 -62.5t-118 -20.5q-57 0 -111 19t-103.5 59t-79.5 114.5t-30 174.5q0 77 18.5 139.5t50 103.5t74 69t87.5 40.5t94 12.5zM377 626q-100 0 -159.5 -73.5t-59.5 -200.5
q0 -129 57 -203.5t162 -74.5q97 0 157.5 74t60.5 200q0 128 -56.5 203t-161.5 75zM317 877q30 0 55 -13t42 -26t28 -13q29 0 45 41h59q-6 -49 -35 -80.5t-74 -31.5q-40 0 -77.5 26t-48.5 26q-30 0 -45 -40h-58q6 48 35 79.5t74 31.5z" />
    <glyph glyph-name="Odieresis" unicode="&#xd6;" horiz-adv-x="753" 
d="M376 716q45 0 88.5 -11t87 -38t76 -67.5t53 -105t20.5 -145.5q0 -95 -28 -167.5t-75.5 -114.5t-103.5 -62.5t-118 -20.5q-57 0 -111 19t-103.5 59t-79.5 114.5t-30 174.5q0 77 18.5 139.5t50 103.5t74 69t87.5 40.5t94 12.5zM377 626q-100 0 -159.5 -73.5t-59.5 -200.5
q0 -129 57 -203.5t162 -74.5q97 0 157.5 74t60.5 200q0 128 -56.5 203t-161.5 75zM270 879q25 0 44 -18.5t19 -43.5t-19 -43.5t-44 -18.5t-44 18.5t-19 43.5t19 43.5t44 18.5zM484 879q25 0 44 -18.5t19 -43.5t-19 -43.5t-44 -18.5t-44 18.5t-19 43.5t19 43.5t44 18.5z" />
    <glyph glyph-name="multiply" unicode="&#xd7;" 
d="M444 485l63 -63l-145 -145l145 -144l-63 -63l-144 145l-145 -145l-63 63l145 144l-145 145l63 63l145 -145z" />
    <glyph glyph-name="Oslash" unicode="&#xd8;" horiz-adv-x="753" 
d="M688 759l-82 -135q95 -98 95 -275q0 -95 -28 -167.5t-75.5 -114.5t-103.5 -62.5t-118 -20.5q-84 0 -155 37l-70 -111h-85l97 151q-111 99 -111 290q0 77 18.5 139.5t50 103.5t74 69t87.5 40.5t94 12.5q95 0 172 -46l58 89h82zM377 624q-101 0 -160 -72.5t-59 -199.5
q0 -133 60 -207l283 442q-51 37 -124 37zM377 76q98 0 158 73t60 199q0 119 -48 190l-277 -436q46 -26 107 -26z" />
    <glyph glyph-name="Ugrave" unicode="&#xd9;" horiz-adv-x="670" 
d="M599 700v-455q0 -50 -13 -93.5t-41.5 -82.5t-82.5 -62t-128 -23q-75 0 -129 23t-81.5 62.5t-39.5 82.5t-12 93v455h102v-452q0 -90 40 -132t121 -42q162 0 162 174v452h102zM300 886l91 -133h-88l-140 133h137z" />
    <glyph glyph-name="Uacute" unicode="&#xda;" horiz-adv-x="670" 
d="M599 700v-455q0 -50 -13 -93.5t-41.5 -82.5t-82.5 -62t-128 -23q-75 0 -129 23t-81.5 62.5t-39.5 82.5t-12 93v455h102v-452q0 -90 40 -132t121 -42q162 0 162 174v452h102zM517 886l-141 -133h-87l90 133h138z" />
    <glyph glyph-name="Ucircumflex" unicode="&#xdb;" horiz-adv-x="670" 
d="M599 700v-455q0 -50 -13 -93.5t-41.5 -82.5t-82.5 -62t-128 -23q-75 0 -129 23t-81.5 62.5t-39.5 82.5t-12 93v455h102v-452q0 -90 40 -132t121 -42q162 0 162 174v452h102zM385 886l135 -133h-96l-88 71l-88 -71h-96l135 133h98z" />
    <glyph glyph-name="Udieresis" unicode="&#xdc;" horiz-adv-x="670" 
d="M599 700v-455q0 -50 -13 -93.5t-41.5 -82.5t-82.5 -62t-128 -23q-75 0 -129 23t-81.5 62.5t-39.5 82.5t-12 93v455h102v-452q0 -90 40 -132t121 -42q162 0 162 174v452h102zM229 879q25 0 44 -18.5t19 -43.5t-19 -43.5t-44 -18.5t-44 18.5t-19 43.5t19 43.5t44 18.5z
M443 879q25 0 44 -18.5t19 -43.5t-19 -43.5t-44 -18.5t-44 18.5t-19 43.5t19 43.5t44 18.5z" />
    <glyph glyph-name="Yacute" unicode="&#xdd;" horiz-adv-x="611" 
d="M599 700l-242 -418v-282h-102v280l-242 420h116l179 -325l178 325h113zM487 886l-141 -133h-87l90 133h138z" />
    <glyph glyph-name="Thorn" unicode="&#xde;" horiz-adv-x="618" 
d="M184 700v-116h147q124 0 187 -66t63 -158q0 -102 -63.5 -166.5t-183.5 -64.5h-150v-129h-102v700h102zM343 493h-159v-275h157q58 0 96 34.5t38 106.5q0 59 -36 96.5t-96 37.5z" />
    <glyph glyph-name="germandbls" unicode="&#xdf;" horiz-adv-x="587" 
d="M277 712q92 0 141.5 -42t49.5 -106q0 -32 -16.5 -59.5t-36 -43t-36 -34t-16.5 -34.5q0 -17 15 -30t37 -21.5t48.5 -22.5t48.5 -31t37 -50.5t15 -77.5q0 -70 -48.5 -121t-142.5 -51q-102 0 -164 58l54 65q43 -39 108 -39q43 0 67 22.5t24 65.5q0 32 -20.5 54.5t-49 36.5
t-57.5 28.5t-49.5 40.5t-20.5 63q0 29 16.5 54.5t36 40.5t36 37t16.5 44q0 38 -27.5 54.5t-65.5 16.5q-49 0 -74.5 -28.5t-25.5 -79.5v-522h-100v522q0 83 52.5 136.5t147.5 53.5z" />
    <glyph glyph-name="agrave" unicode="&#xe0;" horiz-adv-x="552" 
d="M275 534q109 0 157 -42t48 -123v-256q0 -70 18 -113h-104q-10 25 -13 57q-57 -69 -161 -69q-83 0 -130.5 44.5t-47.5 114.5q0 148 207 173l131 16v26q0 53 -22 73t-85 20q-59 0 -85.5 -20t-27.5 -66h-97q2 83 58 124t154 41zM380 261l-101 -13q-71 -9 -102 -31t-31 -64
q0 -80 92 -80q58 0 100 34.5t42 87.5v66zM241 731l91 -138h-88l-135 138h132z" />
    <glyph glyph-name="aacute" unicode="&#xe1;" horiz-adv-x="552" 
d="M275 534q109 0 157 -42t48 -123v-256q0 -70 18 -113h-104q-10 25 -13 57q-57 -69 -161 -69q-83 0 -130.5 44.5t-47.5 114.5q0 148 207 173l131 16v26q0 53 -22 73t-85 20q-59 0 -85.5 -20t-27.5 -66h-97q2 83 58 124t154 41zM380 261l-101 -13q-71 -9 -102 -31t-31 -64
q0 -80 92 -80q58 0 100 34.5t42 87.5v66zM453 731l-136 -138h-87l90 138h133z" />
    <glyph glyph-name="acircumflex" unicode="&#xe2;" horiz-adv-x="552" 
d="M275 534q109 0 157 -42t48 -123v-256q0 -70 18 -113h-104q-10 25 -13 57q-57 -69 -161 -69q-83 0 -130.5 44.5t-47.5 114.5q0 148 207 173l131 16v26q0 53 -22 73t-85 20q-59 0 -85.5 -20t-27.5 -66h-97q2 83 58 124t154 41zM380 261l-101 -13q-71 -9 -102 -31t-31 -64
q0 -80 92 -80q58 0 100 34.5t42 87.5v66zM330 731l135 -138h-96l-88 76l-88 -76h-96l135 138h98z" />
    <glyph glyph-name="atilde" unicode="&#xe3;" horiz-adv-x="552" 
d="M275 534q109 0 157 -42t48 -123v-256q0 -70 18 -113h-104q-10 25 -13 57q-57 -69 -161 -69q-83 0 -130.5 44.5t-47.5 114.5q0 148 207 173l131 16v26q0 53 -22 73t-85 20q-59 0 -85.5 -20t-27.5 -66h-97q2 83 58 124t154 41zM380 261l-101 -13q-71 -9 -102 -31t-31 -64
q0 -80 92 -80q58 0 100 34.5t42 87.5v66zM221 717q30 0 55 -13t42 -26t28 -13q29 0 45 41h59q-6 -49 -35 -80.5t-74 -31.5q-40 0 -77.5 26t-48.5 26q-30 0 -45 -40h-58q6 48 35 79.5t74 31.5z" />
    <glyph glyph-name="adieresis" unicode="&#xe4;" horiz-adv-x="552" 
d="M275 534q109 0 157 -42t48 -123v-256q0 -70 18 -113h-104q-10 25 -13 57q-57 -69 -161 -69q-83 0 -130.5 44.5t-47.5 114.5q0 148 207 173l131 16v26q0 53 -22 73t-85 20q-59 0 -85.5 -20t-27.5 -66h-97q2 83 58 124t154 41zM380 261l-101 -13q-71 -9 -102 -31t-31 -64
q0 -80 92 -80q58 0 100 34.5t42 87.5v66zM174 719q25 0 44 -18.5t19 -43.5t-19 -43.5t-44 -18.5t-44 18.5t-19 43.5t19 43.5t44 18.5zM388 719q25 0 44 -18.5t19 -43.5t-19 -43.5t-44 -18.5t-44 18.5t-19 43.5t19 43.5t44 18.5z" />
    <glyph glyph-name="aring" unicode="&#xe5;" horiz-adv-x="552" 
d="M275 534q109 0 157 -42t48 -123v-256q0 -70 18 -113h-104q-10 25 -13 57q-57 -69 -161 -69q-83 0 -130.5 44.5t-47.5 114.5q0 148 207 173l131 16v26q0 53 -22 73t-85 20q-59 0 -85.5 -20t-27.5 -66h-97q2 83 58 124t154 41zM380 261l-101 -13q-71 -9 -102 -31t-31 -64
q0 -80 92 -80q58 0 100 34.5t42 87.5v66zM281 811q49 0 84 -32t35 -82t-35 -82t-84 -32t-84 32t-35 82t35 82t84 32zM281 754q-22 0 -37.5 -15.5t-15.5 -41.5t15.5 -41.5t37.5 -15.5q23 0 38 15.5t15 41.5t-15 41.5t-38 15.5z" />
    <glyph glyph-name="ae" unicode="&#xe6;" horiz-adv-x="900" 
d="M622 534q110 0 171.5 -77t61.5 -196v-23h-375q2 -81 40.5 -123.5t109.5 -42.5q95 0 137 80l84 -44q-73 -120 -224 -120q-134 0 -204 106q-64 -106 -203 -106q-83 0 -130.5 44.5t-47.5 114.5q0 149 207 173l140 16q3 22 12 50q-13 36 -40.5 52.5t-87.5 16.5
q-59 0 -85.5 -20t-27.5 -66h-97q2 83 58 124t155 41q44 0 76 -6.5t51.5 -20.5t28.5 -23t20 -25q22 27 68 51t102 24zM386 261l-107 -13q-71 -8 -102 -30t-31 -65q0 -36 22.5 -58t70.5 -22q55 0 101 31t52 71q-6 36 -6 68v18zM622 451q-62 0 -98 -35.5t-42 -100.5h271
q-4 66 -38.5 101t-92.5 35z" />
    <glyph glyph-name="ccedilla" unicode="&#xe7;" horiz-adv-x="561" 
d="M298 534q77 0 135 -37t85 -99l-87 -36q-38 86 -129 86q-69 0 -110 -49t-41 -136q0 -90 40 -140t111 -50q55 0 86.5 27.5t52.5 77.5l88 -38q-61 -138 -207 -151v-35q47 -4 75.5 -29t28.5 -56q0 -47 -34.5 -73t-87.5 -26q-64 0 -109 26l28 51q30 -16 66 -16q57 0 57 38
q0 41 -104 41l15 81q-99 13 -154.5 86.5t-55.5 183.5q0 120 68 196.5t183 76.5z" />
    <glyph glyph-name="egrave" unicode="&#xe8;" horiz-adv-x="571" 
d="M292 534q110 0 172 -77t62 -196v-23h-376q2 -81 41 -123.5t111 -42.5q94 0 137 80l83 -44q-73 -120 -223 -120q-118 0 -185 77t-67 196q0 122 64 197.5t181 75.5zM291 451q-61 0 -97.5 -35.5t-42.5 -100.5h271q-4 66 -38.5 101t-92.5 35zM249 731l91 -138h-88l-135 138
h132z" />
    <glyph glyph-name="eacute" unicode="&#xe9;" horiz-adv-x="571" 
d="M292 534q110 0 172 -77t62 -196v-23h-376q2 -81 41 -123.5t111 -42.5q94 0 137 80l83 -44q-73 -120 -223 -120q-118 0 -185 77t-67 196q0 122 64 197.5t181 75.5zM291 451q-61 0 -97.5 -35.5t-42.5 -100.5h271q-4 66 -38.5 101t-92.5 35zM461 731l-136 -138h-87l90 138
h133z" />
    <glyph glyph-name="ecircumflex" unicode="&#xea;" horiz-adv-x="571" 
d="M292 534q110 0 172 -77t62 -196v-23h-376q2 -81 41 -123.5t111 -42.5q94 0 137 80l83 -44q-73 -120 -223 -120q-118 0 -185 77t-67 196q0 122 64 197.5t181 75.5zM291 451q-61 0 -97.5 -35.5t-42.5 -100.5h271q-4 66 -38.5 101t-92.5 35zM338 731l135 -138h-96l-88 76
l-88 -76h-96l135 138h98z" />
    <glyph glyph-name="edieresis" unicode="&#xeb;" horiz-adv-x="571" 
d="M292 534q110 0 172 -77t62 -196v-23h-376q2 -81 41 -123.5t111 -42.5q94 0 137 80l83 -44q-73 -120 -223 -120q-118 0 -185 77t-67 196q0 122 64 197.5t181 75.5zM291 451q-61 0 -97.5 -35.5t-42.5 -100.5h271q-4 66 -38.5 101t-92.5 35zM182 719q25 0 44 -18.5t19 -43.5
t-19 -43.5t-44 -18.5t-44 18.5t-19 43.5t19 43.5t44 18.5zM396 719q25 0 44 -18.5t19 -43.5t-19 -43.5t-44 -18.5t-44 18.5t-19 43.5t19 43.5t44 18.5z" />
    <glyph glyph-name="igrave" unicode="&#xec;" horiz-adv-x="255" 
d="M177 522v-522h-100v522h100zM87 731l91 -138h-88l-135 138h132z" />
    <glyph glyph-name="iacute" unicode="&#xed;" horiz-adv-x="255" 
d="M177 522v-522h-100v522h100zM299 731l-136 -138h-87l90 138h133z" />
    <glyph glyph-name="icircumflex" unicode="&#xee;" horiz-adv-x="255" 
d="M177 522v-522h-100v522h100zM176 731l135 -138h-96l-88 76l-88 -76h-96l135 138h98z" />
    <glyph glyph-name="idieresis" unicode="&#xef;" horiz-adv-x="255" 
d="M177 522v-522h-100v522h100zM20 719q25 0 44 -18.5t19 -43.5t-19 -43.5t-44 -18.5t-44 18.5t-19 43.5t19 43.5t44 18.5zM234 719q25 0 44 -18.5t19 -43.5t-19 -43.5t-44 -18.5t-44 18.5t-19 43.5t19 43.5t44 18.5z" />
    <glyph glyph-name="eth" unicode="&#xf0;" horiz-adv-x="590" 
d="M431 756l-59 -92q171 -86 171 -352q0 -165 -69 -246.5t-183 -81.5q-110 0 -177 66t-67 175q0 106 63 170t160 64q52 0 99 -23t73 -67q-6 160 -116 224l-43 -68h-85l61 95q-52 15 -125 17l17 77q86 -5 153 -24l43 66h84zM291 68q63 0 101 42t38 115q0 67 -37.5 108
t-103.5 41q-70 0 -105 -41.5t-35 -107.5q0 -75 39 -116t103 -41z" />
    <glyph glyph-name="ntilde" unicode="&#xf1;" horiz-adv-x="582" 
d="M330 534q87 0 133.5 -53t46.5 -148v-333h-100v299q0 74 -22 111.5t-80 37.5q-56 0 -93.5 -43t-37.5 -110v-295h-100v522h100v-68q56 80 153 80zM254 717q30 0 55 -13t42 -26t28 -13q29 0 45 41h59q-6 -49 -35 -80.5t-74 -31.5q-40 0 -77.5 26t-48.5 26q-30 0 -45 -40h-58
q6 48 35 79.5t74 31.5z" />
    <glyph glyph-name="ograve" unicode="&#xf2;" horiz-adv-x="602" 
d="M301 534q113 0 183 -78t70 -195q0 -122 -67.5 -197.5t-185.5 -75.5q-117 0 -185.5 76.5t-68.5 196.5t69 196.5t185 76.5zM301 448q-69 0 -109.5 -49t-40.5 -136q0 -90 39.5 -140t110.5 -50t110 50t39 140q0 87 -40.5 136t-108.5 49zM261 731l91 -138h-88l-135 138h132z
" />
    <glyph glyph-name="oacute" unicode="&#xf3;" horiz-adv-x="602" 
d="M301 534q113 0 183 -78t70 -195q0 -122 -67.5 -197.5t-185.5 -75.5q-117 0 -185.5 76.5t-68.5 196.5t69 196.5t185 76.5zM301 448q-69 0 -109.5 -49t-40.5 -136q0 -90 39.5 -140t110.5 -50t110 50t39 140q0 87 -40.5 136t-108.5 49zM473 731l-136 -138h-87l90 138h133z
" />
    <glyph glyph-name="ocircumflex" unicode="&#xf4;" horiz-adv-x="602" 
d="M301 534q113 0 183 -78t70 -195q0 -122 -67.5 -197.5t-185.5 -75.5q-117 0 -185.5 76.5t-68.5 196.5t69 196.5t185 76.5zM301 448q-69 0 -109.5 -49t-40.5 -136q0 -90 39.5 -140t110.5 -50t110 50t39 140q0 87 -40.5 136t-108.5 49zM350 731l135 -138h-96l-88 76l-88 -76
h-96l135 138h98z" />
    <glyph glyph-name="otilde" unicode="&#xf5;" horiz-adv-x="602" 
d="M301 534q113 0 183 -78t70 -195q0 -122 -67.5 -197.5t-185.5 -75.5q-117 0 -185.5 76.5t-68.5 196.5t69 196.5t185 76.5zM301 448q-69 0 -109.5 -49t-40.5 -136q0 -90 39.5 -140t110.5 -50t110 50t39 140q0 87 -40.5 136t-108.5 49zM241 717q30 0 55 -13t42 -26t28 -13
q29 0 45 41h59q-6 -49 -35 -80.5t-74 -31.5q-40 0 -77.5 26t-48.5 26q-30 0 -45 -40h-58q6 48 35 79.5t74 31.5z" />
    <glyph glyph-name="odieresis" unicode="&#xf6;" horiz-adv-x="602" 
d="M301 534q113 0 183 -78t70 -195q0 -122 -67.5 -197.5t-185.5 -75.5q-117 0 -185.5 76.5t-68.5 196.5t69 196.5t185 76.5zM301 448q-69 0 -109.5 -49t-40.5 -136q0 -90 39.5 -140t110.5 -50t110 50t39 140q0 87 -40.5 136t-108.5 49zM194 719q25 0 44 -18.5t19 -43.5
t-19 -43.5t-44 -18.5t-44 18.5t-19 43.5t19 43.5t44 18.5zM408 719q25 0 44 -18.5t19 -43.5t-19 -43.5t-44 -18.5t-44 18.5t-19 43.5t19 43.5t44 18.5z" />
    <glyph glyph-name="divide" unicode="&#xf7;" 
d="M301 548q29 0 50 -21.5t21 -50.5t-21 -50t-50 -21q-30 0 -51 21.5t-21 50.5t21 50t51 21zM499 337v-89h-399v89h399zM301 179q29 0 50 -21.5t21 -50.5t-21 -50t-50 -21q-30 0 -51 21.5t-21 50.5t21 50t51 21z" />
    <glyph glyph-name="oslash" unicode="&#xf8;" horiz-adv-x="602" 
d="M545 596l-73 -128q82 -77 82 -207q0 -122 -67.5 -197.5t-185.5 -75.5q-61 0 -107 21l-52 -89h-86l78 127q-87 76 -87 214q0 120 69 196.5t185 76.5q59 0 110 -24l51 86h83zM301 448q-69 0 -109.5 -49t-40.5 -136q0 -84 35 -133l183 303q-30 15 -68 15zM420 386l-183 -299
q30 -14 64 -14q71 0 110.5 50t39.5 140q0 72 -31 123z" />
    <glyph glyph-name="ugrave" unicode="&#xf9;" horiz-adv-x="576" 
d="M499 522v-522h-100v60q-28 -34 -68 -53t-82 -19q-83 0 -130 46t-47 134v354h100v-332q0 -61 22.5 -88t73.5 -27q58 0 94.5 39t36.5 106v302h100zM246 731l91 -138h-88l-135 138h132z" />
    <glyph glyph-name="uacute" unicode="&#xfa;" horiz-adv-x="576" 
d="M499 522v-522h-100v60q-28 -34 -68 -53t-82 -19q-83 0 -130 46t-47 134v354h100v-332q0 -61 22.5 -88t73.5 -27q58 0 94.5 39t36.5 106v302h100zM458 731l-136 -138h-87l90 138h133z" />
    <glyph glyph-name="ucircumflex" unicode="&#xfb;" horiz-adv-x="576" 
d="M499 522v-522h-100v60q-28 -34 -68 -53t-82 -19q-83 0 -130 46t-47 134v354h100v-332q0 -61 22.5 -88t73.5 -27q58 0 94.5 39t36.5 106v302h100zM335 731l135 -138h-96l-88 76l-88 -76h-96l135 138h98z" />
    <glyph glyph-name="udieresis" unicode="&#xfc;" horiz-adv-x="576" 
d="M499 522v-522h-100v60q-28 -34 -68 -53t-82 -19q-83 0 -130 46t-47 134v354h100v-332q0 -61 22.5 -88t73.5 -27q58 0 94.5 39t36.5 106v302h100zM179 719q25 0 44 -18.5t19 -43.5t-19 -43.5t-44 -18.5t-44 18.5t-19 43.5t19 43.5t44 18.5zM393 719q25 0 44 -18.5
t19 -43.5t-19 -43.5t-44 -18.5t-44 18.5t-19 43.5t19 43.5t44 18.5z" />
    <glyph glyph-name="yacute" unicode="&#xfd;" horiz-adv-x="501" 
d="M489 522l-175 -556q-24 -74 -62 -110t-118 -36q-36 0 -61 6v79q19 -2 42 -2q53 0 74.5 20.5t35.5 76.5h-33l-179 522h109l137 -444l127 444h103zM423 731l-136 -138h-87l90 138h133z" />
    <glyph glyph-name="thorn" unicode="&#xfe;" horiz-adv-x="608" 
d="M177 700v-238q56 72 152 72q105 0 168 -74.5t63 -198.5q0 -114 -62.5 -193.5t-162.5 -79.5q-107 0 -158 73v-223h-100v862h100zM313 448q-64 0 -102 -48.5t-38 -141.5q0 -89 40 -137t100 -48q64 0 103.5 50.5t39.5 135.5q0 91 -36.5 140t-106.5 49z" />
    <glyph glyph-name="ydieresis" unicode="&#xff;" horiz-adv-x="501" 
d="M489 522l-175 -556q-24 -74 -62 -110t-118 -36q-36 0 -61 6v79q19 -2 42 -2q53 0 74.5 20.5t35.5 76.5h-33l-179 522h109l137 -444l127 444h103zM144 719q25 0 44 -18.5t19 -43.5t-19 -43.5t-44 -18.5t-44 18.5t-19 43.5t19 43.5t44 18.5zM358 719q25 0 44 -18.5
t19 -43.5t-19 -43.5t-44 -18.5t-44 18.5t-19 43.5t19 43.5t44 18.5z" />
    <glyph glyph-name="dotlessi" unicode="&#x131;" horiz-adv-x="255" 
d="M177 522v-522h-100v522h100z" />
    <glyph glyph-name="IJ" unicode="&#x132;" horiz-adv-x="783" 
d="M333 700v-88h-96v-524h96v-88h-293v88h95v524h-95v88h293zM712 700v-499q0 -100 -44 -153.5t-152 -53.5q-50 0 -101 6v90q36 -2 56 -2q83 0 111 25.5t28 98.5v488h102z" />
    <glyph glyph-name="ij" unicode="&#x133;" horiz-adv-x="526" 
d="M449 522v-549q0 -77 -42.5 -115t-103.5 -38q-31 0 -57 6v80q12 -1 22 -1q48 0 64.5 19.5t16.5 81.5v516h100zM398 718q26 0 46 -19.5t20 -45.5t-20 -45.5t-46 -19.5q-27 0 -46.5 19.5t-19.5 45.5t19.5 45.5t46.5 19.5zM177 522v-522h-100v522h100zM127 718q26 0 46 -19.5
t20 -45.5t-20 -45.5t-46 -19.5q-27 0 -46.5 19.5t-19.5 45.5t19.5 45.5t46.5 19.5z" />
    <glyph glyph-name="Lslash" unicode="&#x141;" horiz-adv-x="557" 
d="M209 92h316v-92h-418v281l-80 -43v78l80 43v341h102v-286l189 101v-78l-189 -101v-244z" />
    <glyph glyph-name="lslash" unicode="&#x142;" horiz-adv-x="284" 
d="M261 369l-79 -44v-187q0 -36 7 -47t39 -11q11 0 23 1v-81q-25 -6 -55 -6q-114 0 -114 127v149l-60 -33v79l60 33v351h100v-296l79 44v-79z" />
    <glyph glyph-name="OE" unicode="&#x152;" horiz-adv-x="977" 
d="M376 716q65 0 118 -16h422v-90h-323v-208h302v-90h-302v-222h332v-90h-431q-51 -16 -118 -16q-57 0 -111 19t-103.5 59t-79.5 114.5t-30 174.5q0 77 18.5 139.5t50 103.5t74 69t87.5 40.5t94 12.5zM376 628q-100 0 -159 -74t-59 -202q0 -129 57 -204.5t161 -75.5
q67 0 115 24v509q-46 23 -115 23z" />
    <glyph glyph-name="oe" unicode="&#x153;" horiz-adv-x="974" 
d="M696 534q110 0 171.5 -77t61.5 -196v-23h-375q2 -81 40.5 -123.5t109.5 -42.5q95 0 137 80l83 -44q-73 -120 -223 -120q-146 0 -205 117q-66 -117 -198 -117q-116 0 -183.5 76.5t-67.5 196.5q0 121 68 197t183 76q140 0 202 -120q62 120 196 120zM692 451
q-120 0 -136 -136h269q-17 136 -133 136zM298 448q-68 0 -107.5 -49t-39.5 -136q0 -90 38.5 -140t108.5 -50q71 0 111.5 50t40.5 140q0 86 -41.5 135.5t-110.5 49.5z" />
    <glyph glyph-name="Scaron" unicode="&#x160;" horiz-adv-x="643" 
d="M319 -16q-86 0 -163.5 32t-128.5 99l73 62q86 -103 221 -103q73 0 121 31.5t48 84.5q0 56 -40 85.5t-161 48.5q-227 36 -227 195q0 89 69.5 143t181.5 54q178 0 275 -125l-79 -58q-65 93 -196 93q-68 0 -107.5 -27.5t-39.5 -75.5q0 -47 37.5 -71.5t154.5 -44.5
q125 -22 181.5 -72.5t56.5 -139.5q0 -94 -71 -152.5t-206 -58.5zM501 896l-135 -133h-98l-135 133h96l88 -71l88 71h96z" />
    <glyph glyph-name="scaron" unicode="&#x161;" horiz-adv-x="519" 
d="M260 534q130 0 210 -80l-60 -61q-60 58 -150 58q-50 0 -77.5 -18t-27.5 -48q0 -32 27.5 -47t104.5 -27q99 -16 146.5 -52t47.5 -109t-58.5 -117.5t-164.5 -44.5q-154 0 -236 92l65 64q64 -72 169 -72q62 0 92.5 19.5t30.5 53.5t-28.5 52t-117.5 32q-178 28 -178 152
q0 70 56.5 111.5t148.5 41.5zM445 741l-135 -138h-98l-135 138h96l88 -76l88 76h96z" />
    <glyph glyph-name="Ydieresis" unicode="&#x178;" horiz-adv-x="611" 
d="M599 700l-242 -418v-282h-102v280l-242 420h116l179 -325l178 325h113zM199 879q25 0 44 -18.5t19 -43.5t-19 -43.5t-44 -18.5t-44 18.5t-19 43.5t19 43.5t44 18.5zM413 879q25 0 44 -18.5t19 -43.5t-19 -43.5t-44 -18.5t-44 18.5t-19 43.5t19 43.5t44 18.5z" />
    <glyph glyph-name="Zcaron" unicode="&#x17d;" horiz-adv-x="601" 
d="M557 700v-86l-394 -522h401v-92h-532v81l398 529h-369v90h496zM485 896l-135 -133h-98l-135 133h96l88 -71l88 71h96z" />
    <glyph glyph-name="zcaron" unicode="&#x17e;" horiz-adv-x="473" 
d="M436 522v-79l-284 -357h288v-86h-413v76l288 362h-258v84h379zM421 741l-135 -138h-98l-135 138h96l88 -76l88 76h96z" />
    <glyph glyph-name="longs" unicode="&#x17f;" horiz-adv-x="331" 
d="M256 712q36 0 78 -12v-78q-37 10 -66 10q-39 0 -56.5 -14.5t-17.5 -51.5v-566h-100v445h-72v77h72v57q0 57 39.5 95t122.5 38z" />
    <glyph glyph-name="florin" unicode="&#x192;" horiz-adv-x="299" 
d="M229 712q47 0 101 -16v-81q-45 17 -89 17q-39 0 -56.5 -14.5t-17.5 -51.5v-44h139v-77h-139v-472q0 -77 -42.5 -115t-103.5 -38q-31 0 -56 6v80q12 -1 21 -1q48 0 64.5 19.5t16.5 81.5v439h-72v77h72v57q0 57 39.5 95t122.5 38z" />
    <glyph glyph-name="uni02BB" unicode="&#x2bb;" horiz-adv-x="280" 
d="M147 500q-30 0 -50 20.5t-20 51.5q0 106 98 214l51 -25q-37 -61 -44 -135q33 -21 33 -58q0 -28 -20 -48t-48 -20z" />
    <glyph glyph-name="uni02BC" unicode="&#x2bc;" horiz-adv-x="279" 
d="M132 753q30 0 50 -20.5t20 -51.5q0 -106 -98 -214l-51 25q37 61 44 135q-33 21 -33 58q0 28 20 48t48 20z" />
    <glyph glyph-name="circumflex" unicode="&#x2c6;" horiz-adv-x="428" 
d="M263 731l135 -138h-96l-88 76l-88 -76h-96l135 138h98z" />
    <glyph glyph-name="caron" unicode="&#x2c7;" horiz-adv-x="428" 
d="M398 741l-135 -138h-98l-135 138h96l88 -76l88 76h96z" />
    <glyph glyph-name="breve" unicode="&#x2d8;" horiz-adv-x="373" 
d="M284 728h59q-8 -64 -50 -102.5t-107 -38.5t-106.5 38.5t-49.5 102.5h59q7 -34 35.5 -51t61.5 -17t62 17t36 51z" />
    <glyph glyph-name="dotaccent" unicode="&#x2d9;" horiz-adv-x="192" 
d="M96 718q26 0 46 -19.5t20 -45.5t-20 -45.5t-46 -19.5q-27 0 -46.5 19.5t-19.5 45.5t19.5 45.5t46.5 19.5z" />
    <glyph glyph-name="ring" unicode="&#x2da;" horiz-adv-x="298" 
d="M149 811q49 0 84 -32t35 -82t-35 -82t-84 -32t-84 32t-35 82t35 82t84 32zM149 754q-22 0 -37.5 -15.5t-15.5 -41.5t15.5 -41.5t37.5 -15.5q23 0 38 15.5t15 41.5t-15 41.5t-38 15.5z" />
    <glyph glyph-name="ogonek" unicode="&#x2db;" horiz-adv-x="284" 
d="M183 21l14 -21q-90 -48 -90 -117q0 -49 60 -49q27 0 66 13l21 -54q-50 -22 -100 -22q-61 0 -94.5 27t-33.5 77q0 44 44.5 85t112.5 61z" />
    <glyph glyph-name="tilde" unicode="&#x2dc;" horiz-adv-x="398" 
d="M139 717q30 0 55 -13t42 -26t28 -13q29 0 45 41h59q-6 -49 -35 -80.5t-74 -31.5q-40 0 -77.5 26t-48.5 26q-30 0 -45 -40h-58q6 48 35 79.5t74 31.5z" />
    <glyph glyph-name="hungarumlaut" unicode="&#x2dd;" horiz-adv-x="442" 
d="M233 736l-126 -143h-77l76 143h127zM412 736l-131 -143h-77l81 143h127z" />
    <glyph glyph-name="gravecomb" unicode="&#x300;" horiz-adv-x="1" 
d="M-121 731l91 -138h-88l-135 138h132z" />
    <glyph glyph-name="acutecomb" unicode="&#x301;" horiz-adv-x="1" 
d="M-30 731l-136 -138h-87l90 138h133z" />
    <glyph glyph-name="uni0302" unicode="&#x302;" horiz-adv-x="1" 
d="M-165 731l135 -138h-96l-88 76l-88 -76h-96l135 138h98z" />
    <glyph glyph-name="tildecomb" unicode="&#x303;" horiz-adv-x="1" 
d="M-259 717q30 0 55 -13t42 -26t28 -13q29 0 45 41h59q-6 -49 -35 -80.5t-74 -31.5q-40 0 -77.5 26t-48.5 26q-30 0 -45 -40h-58q6 48 35 79.5t74 31.5z" />
    <glyph glyph-name="uni0304" unicode="&#x304;" horiz-adv-x="1" 
d="M-30 689v-70h-325v70h325z" />
    <glyph glyph-name="uni0306" unicode="&#x306;" horiz-adv-x="1" 
d="M-89 728h59q-8 -64 -50 -102.5t-107 -38.5t-106.5 38.5t-49.5 102.5h59q7 -34 35.5 -51t61.5 -17t62 17t36 51z" />
    <glyph glyph-name="uni0307" unicode="&#x307;" horiz-adv-x="1" 
d="M-96 718q26 0 46 -19.5t20 -45.5t-20 -45.5t-46 -19.5q-27 0 -46.5 19.5t-19.5 45.5t19.5 45.5t46.5 19.5z" />
    <glyph glyph-name="uni0308" unicode="&#x308;" horiz-adv-x="1" 
d="M-307 719q25 0 44 -18.5t19 -43.5t-19 -43.5t-44 -18.5t-44 18.5t-19 43.5t19 43.5t44 18.5zM-93 719q25 0 44 -18.5t19 -43.5t-19 -43.5t-44 -18.5t-44 18.5t-19 43.5t19 43.5t44 18.5z" />
    <glyph glyph-name="uni030A" unicode="&#x30a;" horiz-adv-x="1" 
d="M-149 811q49 0 84 -32t35 -82t-35 -82t-84 -32t-84 32t-35 82t35 82t84 32zM-149 754q-22 0 -37.5 -15.5t-15.5 -41.5t15.5 -41.5t37.5 -15.5q23 0 38 15.5t15 41.5t-15 41.5t-38 15.5z" />
    <glyph glyph-name="uni030B" unicode="&#x30b;" horiz-adv-x="1" 
d="M-209 736l-126 -143h-77l76 143h127zM-30 736l-131 -143h-77l81 143h127z" />
    <glyph glyph-name="uni030C" unicode="&#x30c;" horiz-adv-x="1" 
d="M-30 741l-135 -138h-98l-135 138h96l88 -76l88 76h96z" />
    <glyph glyph-name="uni0326" unicode="&#x326;" horiz-adv-x="1" 
d="M-89 -68q26 0 42 -17t16 -44q0 -76 -70 -163l-51 16q28 54 32 100q-29 20 -29 50q0 24 18 41t42 17z" />
    <glyph glyph-name="uni0327" unicode="&#x327;" horiz-adv-x="1" 
d="M-130 10l-1 -56q47 -4 75.5 -29t28.5 -56q0 -47 -34.5 -73t-87.5 -26q-64 0 -109 26l28 51q30 -16 66 -16q57 0 57 38q0 41 -104 41l19 100h62z" />
    <glyph glyph-name="uni0328" unicode="&#x328;" horiz-adv-x="1" 
d="M-101 21l14 -21q-90 -48 -90 -117q0 -49 60 -49q27 0 66 13l21 -54q-50 -22 -100 -22q-61 0 -94.5 27t-33.5 77q0 44 44.5 85t112.5 61z" />
    <glyph glyph-name="uni0394" unicode="&#x394;" horiz-adv-x="625" 
d="M379 700l233 -700h-600l234 700h133zM146 88h326l-163 522z" />
    <glyph glyph-name="uni03A9" unicode="&#x3a9;" horiz-adv-x="753" 
d="M376 716q58 0 112 -18t103.5 -57.5t79.5 -113t30 -173.5q0 -185 -116 -262h115v-92h-244v92q67 25 103 96t36 165q0 128 -56.5 199.5t-162.5 71.5q-100 0 -159 -70.5t-59 -196.5q0 -96 36.5 -168t102.5 -97v-92h-244v92h116q-117 78 -117 264q0 95 28 167t75.5 112.5
t103 60.5t117.5 20z" />
    <glyph glyph-name="uni03BC" unicode="&#x3bc;" horiz-adv-x="581" 
d="M504 522v-522h-100v57q-47 -73 -130 -73q-62 0 -97 40v-186h-100v684h100v-332q0 -60 23.5 -88.5t73.5 -28.5q57 0 93.5 40t36.5 107v302h100z" />
    <glyph glyph-name="pi" unicode="&#x3c0;" horiz-adv-x="644" 
d="M597 522v-82h-82v-440h-100v440h-185v-440h-100v440h-82v82h549z" />
    <glyph glyph-name="uni1E9E" unicode="&#x1e9e;" horiz-adv-x="694" 
d="M423 -18q-111 0 -194 50l46 77q62 -37 149 -37q50 0 91 30.5t41 91.5q0 59 -37 88.5t-141 50.5v78l137 163q-67 54 -170 54q-82 0 -126.5 -42.5t-44.5 -142.5v-443h-102v455q0 126 73.5 194.5t199.5 68.5q169 0 291 -130l-158 -191q87 -23 135.5 -68.5t48.5 -134.5
q0 -92 -67.5 -152t-171.5 -60z" />
    <glyph glyph-name="uni2007" unicode="&#x2007;" horiz-adv-x="609" 
 />
    <glyph glyph-name="uni2008" unicode="&#x2008;" horiz-adv-x="275" 
 />
    <glyph glyph-name="uni200B" unicode="&#x200b;" horiz-adv-x="0" 
 />
    <glyph glyph-name="figuredash" unicode="&#x2012;" 
d="M560 318v-89h-520v89h520z" />
    <glyph glyph-name="endash" unicode="&#x2013;" horiz-adv-x="520" 
d="M470 347v-89h-420v89h420z" />
    <glyph glyph-name="emdash" unicode="&#x2014;" horiz-adv-x="620" 
d="M570 347v-89h-520v89h520z" />
    <glyph glyph-name="quoteleft" unicode="&#x2018;" horiz-adv-x="280" 
d="M147 500q-30 0 -50 20.5t-20 51.5q0 106 98 214l51 -25q-37 -61 -44 -135q33 -21 33 -58q0 -28 -20 -48t-48 -20z" />
    <glyph glyph-name="quoteright" unicode="&#x2019;" horiz-adv-x="279" 
d="M132 753q30 0 50 -20.5t20 -51.5q0 -106 -98 -214l-51 25q37 61 44 135q-33 21 -33 58q0 28 20 48t48 20z" />
    <glyph glyph-name="quotesinglbase" unicode="&#x201a;" horiz-adv-x="279" 
d="M132 125q30 0 50 -20.5t20 -51.5q0 -106 -98 -214l-51 25q37 61 44 135q-33 21 -33 58q0 28 20 48t48 20z" />
    <glyph glyph-name="quotedblleft" unicode="&#x201c;" horiz-adv-x="468" 
d="M336 500q-30 0 -50 20.5t-20 51.5q0 106 98 214l51 -25q-37 -61 -44 -135q33 -21 33 -58q0 -28 -20 -48t-48 -20zM147 500q-30 0 -50 20.5t-20 51.5q0 106 98 214l51 -25q-37 -61 -44 -135q33 -21 33 -58q0 -28 -20 -48t-48 -20z" />
    <glyph glyph-name="quotedblright" unicode="&#x201d;" horiz-adv-x="467" 
d="M132 752q30 0 50 -20.5t20 -51.5q0 -106 -98 -214l-51 25q37 61 44 135q-33 21 -33 58q0 28 20 48t48 20zM320 752q30 0 50 -20.5t20 -51.5q0 -106 -98 -214l-51 25q37 61 44 135q-33 21 -33 58q0 28 20 48t48 20z" />
    <glyph glyph-name="quotedblbase" unicode="&#x201e;" horiz-adv-x="467" 
d="M132 125q30 0 50 -20.5t20 -51.5q0 -106 -98 -214l-51 25q37 61 44 135q-33 21 -33 58q0 28 20 48t48 20zM320 125q30 0 50 -20.5t20 -51.5q0 -106 -98 -214l-51 25q37 61 44 135q-33 21 -33 58q0 28 20 48t48 20z" />
    <glyph glyph-name="dagger" unicode="&#x2020;" horiz-adv-x="619" 
d="M356 700v-178h168v-84h-168v-600h-96v600h-167v84h167v178h96z" />
    <glyph glyph-name="daggerdbl" unicode="&#x2021;" horiz-adv-x="619" 
d="M356 700v-212h168v-85h-168v-263h168v-85h-168v-217h-96v217h-167v85h167v263h-167v85h167v212h96z" />
    <glyph glyph-name="bullet" unicode="&#x2022;" horiz-adv-x="331" 
d="M166 394q42 0 71.5 -30t29.5 -72t-29.5 -71.5t-71.5 -29.5t-72 30t-30 72t29.5 71.5t72.5 29.5z" />
    <glyph glyph-name="uni2023" unicode="&#x2023;" horiz-adv-x="358" 
d="M282 296l-207 -104v206z" />
    <glyph glyph-name="ellipsis" unicode="&#x2026;" horiz-adv-x="850" 
d="M131 118q27 0 46 -19.5t19 -45.5q0 -27 -19 -46t-46 -19t-46 19.5t-19 46.5q0 26 19 45t46 19zM424 118q27 0 46 -19.5t19 -45.5q0 -27 -19 -46t-46 -19t-46 19.5t-19 46.5q0 26 19 45t46 19zM719 118q27 0 46 -19.5t19 -45.5q0 -27 -19 -46t-46 -19t-46 19.5t-19 46.5
q0 26 19 45t46 19z" />
    <glyph glyph-name="perthousand" unicode="&#x2030;" horiz-adv-x="1430" 
d="M230 715q78 0 132.5 -57.5t54.5 -170.5q0 -114 -54.5 -171.5t-132.5 -57.5q-79 0 -133.5 57.5t-54.5 171.5q0 113 54.5 170.5t133.5 57.5zM762 712l-433 -724h-85l433 724h85zM230 643q-100 0 -100 -155q0 -158 100 -158q98 0 98 156q0 157 -98 157zM785 445
q78 0 132.5 -58t54.5 -171q0 -114 -54.5 -171.5t-132.5 -57.5q-79 0 -133.5 57.5t-54.5 171.5q0 113 54.5 171t133.5 58zM1200 445q79 0 133.5 -58t54.5 -171q0 -114 -54.5 -171.5t-133.5 -57.5q-78 0 -132.5 57.5t-54.5 171.5q0 113 54.5 171t132.5 58zM785 372
q-100 0 -100 -155q0 -157 100 -157q98 0 98 155q0 157 -98 157zM1200 372q-99 0 -99 -155q0 -157 99 -157t99 155q0 157 -99 157z" />
    <glyph glyph-name="guilsinglleft" unicode="&#x2039;" horiz-adv-x="265" 
d="M173 480l52 -37l-90 -165l90 -165l-52 -37l-132 151v102z" />
    <glyph glyph-name="guilsinglright" unicode="&#x203a;" horiz-adv-x="265" 
d="M93 480l132 -151v-102l-132 -151l-52 37l89 165l-89 165z" />
    <glyph glyph-name="uni203D" unicode="&#x203d;" horiz-adv-x="519" 
d="M259 714q63 0 110.5 -19t72 -49t36 -60.5t11.5 -59.5q0 -51 -19 -88t-46 -57.5t-54 -38.5t-46 -43.5t-19 -59.5v-32h-90l-20 274v132q-53 -26 -76 -101l-93 28q7 27 24.5 55t44.5 56t70 45.5t94 17.5zM305 481l-9 -104q6 6 29 29.5t31 34t17.5 33t9.5 46.5q0 82 -78 101
v-140zM258 131q29 0 50 -21.5t21 -50.5t-21 -50t-50 -21q-30 0 -51 21.5t-21 50.5t21 50t51 21z" />
    <glyph glyph-name="fraction" unicode="&#x2044;" horiz-adv-x="238" 
d="M378 712l-433 -724h-85l433 724h85z" />
    <glyph glyph-name="uni2070" unicode="&#x2070;" horiz-adv-x="400" 
d="M200 761q81 0 127 -56t46 -164q0 -109 -45.5 -164.5t-127.5 -55.5q-83 0 -128.5 55.5t-45.5 164.5t45.5 164.5t128.5 55.5zM200 686q-40 0 -58.5 -35t-18.5 -110q0 -74 18.5 -109.5t58.5 -35.5q78 0 78 145q0 75 -19 110t-59 35z" />
    <glyph glyph-name="uni2074" unicode="&#x2074;" horiz-adv-x="400" 
d="M325 750v-269h58v-74h-58v-77h-92v77h-218v76l187 267h123zM233 659l-127 -178h127v178z" />
    <glyph glyph-name="uni2075" unicode="&#x2075;" horiz-adv-x="400" 
d="M351 750l-11 -75h-191l-13 -90q39 35 98 35t101 -39.5t42 -104.5q0 -68 -48 -111.5t-135 -43.5q-67 0 -110 28.5t-59 74.5l84 26q21 -55 87 -55q38 0 60 22t22 55t-21 52.5t-57 19.5q-50 0 -78 -36l-82 13l33 229h278z" />
    <glyph glyph-name="uni2076" unicode="&#x2076;" horiz-adv-x="400" 
d="M214 761q108 0 148 -85l-80 -28q-18 41 -69 41q-84 0 -93 -129q38 51 111 51q59 0 101 -36t42 -100q0 -73 -47.5 -113.5t-122.5 -40.5q-80 0 -129 47t-49 148q0 118 50 181.5t138 63.5zM205 539q-32 0 -53 -19t-21 -52t20 -54t52 -21t52 20.5t20 54.5q0 33 -18.5 52
t-51.5 19z" />
    <glyph glyph-name="uni2077" unicode="&#x2077;" horiz-adv-x="400" 
d="M363 750v-74q-71 -85 -104.5 -160t-47.5 -186h-103q16 120 56 196.5t111 148.5h-159v-48h-80v123h327z" />
    <glyph glyph-name="uni2078" unicode="&#x2078;" horiz-adv-x="400" 
d="M198 321q-91 0 -137 37.5t-46 86.5q0 76 85 105q-61 35 -61 95q0 47 40.5 81.5t118.5 34.5t119.5 -32.5t41.5 -75.5q0 -30 -20 -55.5t-51 -38.5q56 -19 76.5 -43.5t20.5 -64.5q0 -52 -45 -91t-142 -39zM196 589l25 -7q46 22 46 61q0 48 -67 48q-32 0 -49 -13t-17 -34
t14 -33t48 -22zM198 393q44 0 66 16t22 38q0 27 -18 39.5t-72 28.5l-31 9q-51 -29 -51 -73q0 -27 21.5 -42.5t62.5 -15.5z" />
    <glyph glyph-name="uni2079" unicode="&#x2079;" horiz-adv-x="400" 
d="M184 318q-108 0 -154 86l78 31q23 -44 78 -44q87 0 91 130q-38 -49 -109 -49q-59 0 -100.5 36.5t-41.5 103.5q0 68 48.5 108t121.5 40q81 0 129.5 -47.5t48.5 -145.5q0 -122 -48.5 -185.5t-141.5 -63.5zM196 545q34 0 54.5 19.5t20.5 52.5t-19.5 51.5t-52.5 18.5
t-53.5 -19t-20.5 -53q0 -32 19 -51t52 -19z" />
    <glyph glyph-name="uni207A" unicode="&#x207a;" horiz-adv-x="367" 
d="M220 653v-95h95v-67h-95v-95h-75v95h-95v67h95v95h75z" />
    <glyph glyph-name="uni207B" unicode="&#x207b;" horiz-adv-x="367" 
d="M315 558v-67h-265v67h265z" />
    <glyph glyph-name="uni207C" unicode="&#x207c;" horiz-adv-x="367" 
d="M315 625v-69h-265v69h265zM315 494v-68h-265v68h265z" />
    <glyph glyph-name="uni2080" unicode="&#x2080;" horiz-adv-x="400" 
d="M200 269q81 0 127 -56t46 -164q0 -109 -45.5 -164.5t-127.5 -55.5q-83 0 -128.5 55.5t-45.5 164.5t45.5 164.5t128.5 55.5zM200 194q-40 0 -58.5 -35t-18.5 -110q0 -74 18.5 -109.5t58.5 -35.5q78 0 78 145q0 75 -19 110t-59 35z" />
    <glyph glyph-name="uni2081" unicode="&#x2081;" horiz-adv-x="400" 
d="M69 -162v75h108v211h-107v61h16q58 0 80 17t28 56h77v-345h88v-75h-290z" />
    <glyph glyph-name="uni2082" unicode="&#x2082;" horiz-adv-x="400" 
d="M202 269q72 0 114.5 -34.5t42.5 -92.5q0 -64 -48 -118t-148 -111h203v-75h-331v72q119 79 170.5 131t51.5 98q0 56 -59 56q-63 0 -65 -73h-97q1 64 43 105.5t123 41.5z" />
    <glyph glyph-name="uni2083" unicode="&#x2083;" horiz-adv-x="400" 
d="M203 269q74 0 116.5 -31.5t42.5 -81.5q0 -38 -24 -62t-65 -32q45 -5 73.5 -31t28.5 -71q0 -60 -47.5 -95.5t-126.5 -35.5q-68 0 -114.5 30.5t-60.5 85.5l87 20q16 -61 87 -61q34 0 55 15.5t21 45.5q0 28 -20.5 43.5t-54.5 15.5h-47v68h40q30 0 50.5 13t20.5 40
q0 26 -18 38.5t-46 12.5q-64 0 -80 -55l-87 14q15 52 60 83t109 31z" />
    <glyph glyph-name="uni2084" unicode="&#x2084;" horiz-adv-x="400" 
d="M325 258v-269h58v-74h-58v-77h-92v77h-218v76l187 267h123zM233 167l-127 -178h127v178z" />
    <glyph glyph-name="uni2085" unicode="&#x2085;" horiz-adv-x="400" 
d="M351 258l-11 -75h-191l-13 -90q39 35 98 35t101 -39.5t42 -104.5q0 -68 -48 -111.5t-135 -43.5q-67 0 -110 28.5t-59 74.5l84 26q21 -55 87 -55q38 0 60 22t22 55t-21 52.5t-57 19.5q-50 0 -78 -36l-82 13l33 229h278z" />
    <glyph glyph-name="uni2086" unicode="&#x2086;" horiz-adv-x="400" 
d="M214 269q108 0 148 -85l-80 -28q-18 41 -69 41q-84 0 -93 -129q38 51 111 51q59 0 101 -36t42 -100q0 -73 -47.5 -113.5t-122.5 -40.5q-80 0 -129 47t-49 148q0 118 50 181.5t138 63.5zM205 47q-32 0 -53 -19t-21 -52t20 -54t52 -21t52 20.5t20 54.5q0 33 -18.5 52
t-51.5 19z" />
    <glyph glyph-name="uni2087" unicode="&#x2087;" horiz-adv-x="400" 
d="M363 258v-74q-71 -85 -104.5 -160t-47.5 -186h-103q16 120 56 196.5t111 148.5h-159v-48h-80v123h327z" />
    <glyph glyph-name="uni2088" unicode="&#x2088;" horiz-adv-x="400" 
d="M198 -171q-91 0 -137 37.5t-46 86.5q0 76 85 105q-61 35 -61 95q0 47 40.5 81.5t118.5 34.5t119.5 -32.5t41.5 -75.5q0 -30 -20 -55.5t-51 -38.5q56 -19 76.5 -43.5t20.5 -64.5q0 -52 -45 -91t-142 -39zM196 97l25 -7q46 22 46 61q0 48 -67 48q-32 0 -49 -13t-17 -34
t14 -33t48 -22zM198 -99q44 0 66 16t22 38q0 27 -18 39.5t-72 28.5l-31 9q-51 -29 -51 -73q0 -27 21.5 -42.5t62.5 -15.5z" />
    <glyph glyph-name="uni2089" unicode="&#x2089;" horiz-adv-x="400" 
d="M184 -174q-108 0 -154 86l78 31q23 -44 78 -44q87 0 91 130q-38 -49 -109 -49q-59 0 -100.5 36.5t-41.5 103.5q0 68 48.5 108t121.5 40q81 0 129.5 -47.5t48.5 -145.5q0 -122 -48.5 -185.5t-141.5 -63.5zM196 53q34 0 54.5 19.5t20.5 52.5t-19.5 51.5t-52.5 18.5
t-53.5 -19t-20.5 -53q0 -32 19 -51t52 -19z" />
    <glyph glyph-name="uni208A" unicode="&#x208a;" horiz-adv-x="366" 
d="M220 163v-95h95v-67h-95v-95h-75v95h-95v67h95v95h75z" />
    <glyph glyph-name="uni208B" unicode="&#x208b;" horiz-adv-x="366" 
d="M315 68v-67h-265v67h265z" />
    <glyph glyph-name="uni208C" unicode="&#x208c;" horiz-adv-x="366" 
d="M315 125v-69h-265v69h265zM315 -6v-68h-265v68h265z" />
    <glyph glyph-name="uni208D" unicode="&#x208d;" horiz-adv-x="300" 
d="M174 290h61q-43 -71 -58 -124.5t-15 -118.5t15 -118.5t58 -124.5h-62q-40 53 -63.5 119.5t-23.5 123.5t23.5 123.5t64.5 119.5z" />
    <glyph glyph-name="uni208E" unicode="&#x208e;" horiz-adv-x="300" 
d="M85 290h61q41 -53 64.5 -119.5t23.5 -123.5t-23.5 -123.5t-63.5 -119.5h-62q43 71 57.5 124.5t14.5 118.5t-14.5 118.5t-57.5 124.5z" />
    <glyph glyph-name="Euro" unicode="&#x20ac;" horiz-adv-x="660" 
d="M407 716q117 0 194 -73l-34 -93q-72 78 -161 78q-149 0 -181 -181h306l-22 -61h-292q-3 -41 0 -80h263l-22 -62h-234q10 -86 50.5 -129t125.5 -43q94 0 168 69v-107q-77 -50 -168 -50q-237 0 -273 260h-100l22 62h73q-2 39 0 80h-88l21 61h73q21 134 96 201.5t183 67.5z
" />
    <glyph glyph-name="uni20B9" unicode="&#x20b9;" 
d="M533 700v-65h-127q49 -43 57 -118h70v-62h-72q-14 -80 -81.5 -123.5t-154.5 -43.5h-36l283 -288h-117l-284 288v86h145q115 0 136 81h-281v62h287q-5 52 -41 85t-101 33h-145v65h462z" />
    <glyph glyph-name="uni20BA" unicode="&#x20ba;" 
d="M449 221h80q-8 -94 -73.5 -163.5t-185.5 -69.5q-63 0 -111 13v333l-90 -48v62l90 48v80l-90 -48v62l90 48v162h100v-109l185 99v-62l-185 -99v-80l185 98v-61l-185 -99v-309q19 -4 43 -4q59 0 98 41t49 106z" />
    <glyph glyph-name="uni20BD" unicode="&#x20bd;" 
d="M329 274h-150v-72h225v-62h-225v-140h-102v140h-55v62h55v72h-55v83h55v343h249q125 0 187.5 -60.5t62.5 -150.5q0 -100 -62.5 -157.5t-184.5 -57.5zM179 610v-253h157q134 0 134 131q0 58 -35 90t-97 32h-159z" />
    <glyph glyph-name="uni2105" unicode="&#x2105;" horiz-adv-x="900" 
d="M700 712l-433 -724h-85l433 724h85zM230 680q45 0 79 -22t50 -59l-52 -21q-23 48 -77 48q-41 0 -65.5 -29t-24.5 -79q0 -52 24 -81.5t66 -29.5q33 0 51.5 16t31.5 43l53 -22q-17 -41 -52 -66t-84 -25q-74 0 -115 46t-41 119q0 71 42 116.5t114 45.5zM670 320
q70 0 113 -46.5t43 -115.5q0 -74 -41 -119.5t-115 -45.5q-72 0 -113.5 46t-41.5 119q0 71 42 116.5t113 45.5zM670 266q-41 0 -65 -29t-24 -79q0 -52 23.5 -81.5t65.5 -29.5q43 0 66.5 29.5t23.5 81.5q0 50 -24.5 79t-65.5 29z" />
    <glyph glyph-name="uni2113" unicode="&#x2113;" 
d="M373 -18q-77 0 -113.5 43t-36.5 116v73l-62 -66l-28 55l90 99v270q0 72 37 109t96 37q53 0 81.5 -29t28.5 -77q0 -67 -32.5 -137.5t-110.5 -181.5v-137q0 -86 78 -86q24 0 66 10v-80q-45 -18 -94 -18zM323 566v-165q70 129 70 196q0 57 -32 57q-38 0 -38 -88z" />
    <glyph glyph-name="uni2116" unicode="&#x2116;" horiz-adv-x="1200" 
d="M692 700v-700h-109l-325 525v-525h-98v700h104l330 -540v540h98zM933 373q-72 0 -113.5 46t-41.5 119q0 71 42 116.5t113 45.5q70 0 113 -46.5t43 -115.5q0 -74 -41 -119.5t-115 -45.5zM933 427q43 0 66.5 29.5t23.5 81.5q0 50 -24.5 79t-65.5 29t-65 -29t-24 -79
q0 -52 23.5 -81.5t65.5 -29.5zM792 232v67h285v-67h-285z" />
    <glyph glyph-name="uni2117" unicode="&#x2117;" horiz-adv-x="900" 
d="M451 -16q-153 0 -260 106t-107 259t107 260t260 107q152 0 258.5 -106.5t106.5 -260.5q0 -153 -106 -259t-259 -106zM451 42q128 0 215.5 89t87.5 218t-87.5 219t-215.5 90t-216.5 -90t-88.5 -219q0 -128 88.5 -217.5t216.5 -89.5zM324 140v419h160q67 0 107 -34t40 -93
q0 -54 -40.5 -91t-109.5 -37h-91v-164h-66zM390 359h94q34 0 55.5 18.5t21.5 56.5q0 32 -22 50.5t-53 18.5h-96v-144z" />
    <glyph glyph-name="uni2120" unicode="&#x2120;" horiz-adv-x="1200" 
d="M312 711q115 0 183 -75l-57 -45q-40 51 -126 51q-42 0 -66 -14t-24 -37q0 -22 23.5 -35.5t97.5 -27.5q86 -17 124 -48t38 -87q0 -60 -48.5 -96t-138.5 -36q-58 0 -112 20t-89 62l59 50q56 -65 143 -65q44 0 74.5 16.5t30.5 43.5t-25.5 42t-102.5 29q-157 30 -157 128
q0 55 48.5 89.5t124.5 34.5zM1037 700l29 -435h-87l-21 328l-95 -328h-96l-94 325l-21 -325h-85l27 435h128l95 -339l93 339h127z" />
    <glyph glyph-name="trademark" unicode="&#x2122;" horiz-adv-x="1000" 
d="M416 700v-77h-140v-358h-89v358h-141v77h370zM911 700l29 -435h-87l-21 328l-95 -328h-96l-94 325l-21 -325h-86l28 435h128l95 -339l93 339h127z" />
    <glyph glyph-name="Omega" unicode="&#x2126;" horiz-adv-x="769" 
d="M384 716q58 0 112 -18t103.5 -57.5t79.5 -113t30 -173.5q0 -185 -116 -262h115v-92h-244v92q67 25 103 96t36 165q0 128 -56.5 199.5t-162.5 71.5q-100 0 -159 -70.5t-59 -196.5q0 -96 36.5 -168t102.5 -97v-92h-244v92h116q-117 78 -117 264q0 95 28 167t75.5 112.5
t103 60.5t117.5 20z" />
    <glyph glyph-name="estimated" unicode="&#x212e;" horiz-adv-x="945" 
d="M472 716q165 0 284 -107t119 -270h-657v-219q30 -45 104 -71t151 -26q76 0 148.5 26t112.5 73h57q-117 -138 -319 -138q-172 0 -287 103t-115 260q0 156 117.5 262.5t284.5 106.5zM473 677q-173 0 -255 -101v-197h509v197q-93 101 -254 101z" />
    <glyph glyph-name="uni2150" unicode="&#x2150;" horiz-adv-x="1008" 
d="M768 712l-433 -724h-85l433 724h85zM971 420v-74q-71 -85 -104.5 -160t-47.5 -186h-103q16 120 56 196.5t111 148.5h-159v-48h-80v123h327zM69 280v75h108v211h-107v61h16q58 0 80 17t28 56h77v-345h88v-75h-290z" />
    <glyph glyph-name="uni2151" unicode="&#x2151;" horiz-adv-x="978" 
d="M768 712l-433 -724h-85l433 724h85zM762 -11q-108 0 -154 86l78 31q23 -44 78 -44q87 0 91 130q-38 -49 -109 -49q-59 0 -100.5 36.5t-41.5 103.5q0 68 48.5 108t121.5 40q81 0 129.5 -47.5t48.5 -145.5q0 -122 -48.5 -185.5t-141.5 -63.5zM774 216q34 0 54.5 19.5
t20.5 52.5t-19.5 51.5t-52.5 18.5t-53.5 -19t-20.5 -53q0 -32 19 -51t52 -19zM69 280v75h108v211h-107v61h16q58 0 80 17t28 56h77v-345h88v-75h-290z" />
    <glyph glyph-name="uni2152" unicode="&#x2152;" horiz-adv-x="1368" 
d="M768 712l-433 -724h-85l433 724h85zM637 0v75h108v211h-107v61h16q58 0 80 17t28 56h77v-345h88v-75h-290zM1168 431q81 0 127 -56t46 -164q0 -109 -45.5 -164.5t-127.5 -55.5q-83 0 -128.5 55.5t-45.5 164.5t45.5 164.5t128.5 55.5zM1168 356q-40 0 -58.5 -35
t-18.5 -110q0 -74 18.5 -109.5t58.5 -35.5q78 0 78 145q0 75 -19 110t-59 35zM69 280v75h108v211h-107v61h16q58 0 80 17t28 56h77v-345h88v-75h-290z" />
    <glyph glyph-name="onethird" unicode="&#x2153;" horiz-adv-x="978" 
d="M768 712l-433 -724h-85l433 724h85zM781 431q74 0 116.5 -31.5t42.5 -81.5q0 -38 -24 -62t-65 -32q45 -5 73.5 -31t28.5 -71q0 -60 -47.5 -95.5t-126.5 -35.5q-68 0 -114.5 30.5t-60.5 85.5l87 20q16 -61 87 -61q34 0 55 15.5t21 45.5q0 28 -20.5 43.5t-54.5 15.5h-47v68
h40q30 0 50.5 13t20.5 40q0 26 -18 38.5t-46 12.5q-64 0 -80 -55l-87 14q15 52 60 83t109 31zM69 280v75h108v211h-107v61h16q58 0 80 17t28 56h77v-345h88v-75h-290z" />
    <glyph glyph-name="twothirds" unicode="&#x2154;" horiz-adv-x="978" 
d="M768 712l-433 -724h-85l433 724h85zM781 431q74 0 116.5 -31.5t42.5 -81.5q0 -38 -24 -62t-65 -32q45 -5 73.5 -31t28.5 -71q0 -60 -47.5 -95.5t-126.5 -35.5q-68 0 -114.5 30.5t-60.5 85.5l87 20q16 -61 87 -61q34 0 55 15.5t21 45.5q0 28 -20.5 43.5t-54.5 15.5h-47v68
h40q30 0 50.5 13t20.5 40q0 26 -18 38.5t-46 12.5q-64 0 -80 -55l-87 14q15 52 60 83t109 31zM202 711q72 0 114.5 -34.5t42.5 -92.5q0 -64 -48 -118t-148 -111h203v-75h-331v72q119 79 170.5 131t51.5 98q0 56 -59 56q-63 0 -65 -73h-97q1 64 43 105.5t123 41.5z" />
    <glyph glyph-name="uni2155" unicode="&#x2155;" horiz-adv-x="988" 
d="M768 712l-433 -724h-85l433 724h85zM939 420l-11 -75h-191l-13 -90q39 35 98 35t101 -39.5t42 -104.5q0 -68 -48 -111.5t-135 -43.5q-67 0 -110 28.5t-59 74.5l84 26q21 -55 87 -55q38 0 60 22t22 55t-21 52.5t-57 19.5q-50 0 -78 -36l-82 13l33 229h278zM69 280v75h108
v211h-107v61h16q58 0 80 17t28 56h77v-345h88v-75h-290z" />
    <glyph glyph-name="uni2156" unicode="&#x2156;" horiz-adv-x="988" 
d="M768 712l-433 -724h-85l433 724h85zM939 420l-11 -75h-191l-13 -90q39 35 98 35t101 -39.5t42 -104.5q0 -68 -48 -111.5t-135 -43.5q-67 0 -110 28.5t-59 74.5l84 26q21 -55 87 -55q38 0 60 22t22 55t-21 52.5t-57 19.5q-50 0 -78 -36l-82 13l33 229h278zM202 711
q72 0 114.5 -34.5t42.5 -92.5q0 -64 -48 -118t-148 -111h203v-75h-331v72q119 79 170.5 131t51.5 98q0 56 -59 56q-63 0 -65 -73h-97q1 64 43 105.5t123 41.5z" />
    <glyph glyph-name="uni2157" unicode="&#x2157;" horiz-adv-x="948" 
d="M728 712l-433 -724h-85l433 724h85zM899 420l-11 -75h-191l-13 -90q39 35 98 35t101 -39.5t42 -104.5q0 -68 -48 -111.5t-135 -43.5q-67 0 -110 28.5t-59 74.5l84 26q21 -55 87 -55q38 0 60 22t22 55t-21 52.5t-57 19.5q-50 0 -78 -36l-82 13l33 229h278zM203 711
q74 0 116.5 -31.5t42.5 -81.5q0 -38 -24 -62t-65 -32q45 -5 73.5 -31t28.5 -71q0 -60 -47.5 -95.5t-126.5 -35.5q-68 0 -114.5 30.5t-60.5 85.5l87 20q16 -61 87 -61q34 0 55 15.5t21 45.5q0 28 -20.5 43.5t-54.5 15.5h-47v68h40q30 0 50.5 13t20.5 40q0 26 -18 38.5
t-46 12.5q-64 0 -80 -55l-87 14q15 52 60 83t109 31z" />
    <glyph glyph-name="uni2158" unicode="&#x2158;" horiz-adv-x="978" 
d="M758 712l-433 -724h-85l433 724h85zM929 420l-11 -75h-191l-13 -90q39 35 98 35t101 -39.5t42 -104.5q0 -68 -48 -111.5t-135 -43.5q-67 0 -110 28.5t-59 74.5l84 26q21 -55 87 -55q38 0 60 22t22 55t-21 52.5t-57 19.5q-50 0 -78 -36l-82 13l33 229h278zM325 700v-269
h58v-74h-58v-77h-92v77h-218v76l187 267h123zM233 609l-127 -178h127v178z" />
    <glyph glyph-name="uni2159" unicode="&#x2159;" horiz-adv-x="968" 
d="M768 712l-433 -724h-85l433 724h85zM782 431q108 0 148 -85l-80 -28q-18 41 -69 41q-84 0 -93 -129q38 51 111 51q59 0 101 -36t42 -100q0 -73 -47.5 -113.5t-122.5 -40.5q-80 0 -129 47t-49 148q0 118 50 181.5t138 63.5zM773 209q-32 0 -53 -19t-21 -52t20 -54t52 -21
t52 20.5t20 54.5q0 33 -18.5 52t-51.5 19zM69 280v75h108v211h-107v61h16q58 0 80 17t28 56h77v-345h88v-75h-290z" />
    <glyph glyph-name="uni215A" unicode="&#x215a;" horiz-adv-x="928" 
d="M728 712l-433 -724h-85l433 724h85zM742 431q108 0 148 -85l-80 -28q-18 41 -69 41q-84 0 -93 -129q38 51 111 51q59 0 101 -36t42 -100q0 -73 -47.5 -113.5t-122.5 -40.5q-80 0 -129 47t-49 148q0 118 50 181.5t138 63.5zM733 209q-32 0 -53 -19t-21 -52t20 -54t52 -21
t52 20.5t20 54.5q0 33 -18.5 52t-51.5 19zM351 700l-11 -75h-191l-13 -90q39 35 98 35t101 -39.5t42 -104.5q0 -68 -48 -111.5t-135 -43.5q-67 0 -110 28.5t-59 74.5l84 26q21 -55 87 -55q38 0 60 22t22 55t-21 52.5t-57 19.5q-50 0 -78 -36l-82 13l33 229h278z" />
    <glyph glyph-name="oneeighth" unicode="&#x215b;" horiz-adv-x="978" 
d="M768 712l-433 -724h-85l433 724h85zM776 -9q-91 0 -137 37.5t-46 86.5q0 76 85 105q-61 35 -61 95q0 47 40.5 81.5t118.5 34.5t119.5 -32.5t41.5 -75.5q0 -30 -20 -55.5t-51 -38.5q56 -19 76.5 -43.5t20.5 -64.5q0 -52 -45 -91t-142 -39zM774 259l25 -7q46 22 46 61
q0 48 -67 48q-32 0 -49 -13t-17 -34t14 -33t48 -22zM776 63q44 0 66 16t22 38q0 27 -18 39.5t-72 28.5l-31 9q-51 -29 -51 -73q0 -27 21.5 -42.5t62.5 -15.5zM69 280v75h108v211h-107v61h16q58 0 80 17t28 56h77v-345h88v-75h-290z" />
    <glyph glyph-name="threeeighths" unicode="&#x215c;" horiz-adv-x="938" 
d="M728 712l-433 -724h-85l433 724h85zM736 -9q-91 0 -137 37.5t-46 86.5q0 76 85 105q-61 35 -61 95q0 47 40.5 81.5t118.5 34.5t119.5 -32.5t41.5 -75.5q0 -30 -20 -55.5t-51 -38.5q56 -19 76.5 -43.5t20.5 -64.5q0 -52 -45 -91t-142 -39zM734 259l25 -7q46 22 46 61
q0 48 -67 48q-32 0 -49 -13t-17 -34t14 -33t48 -22zM736 63q44 0 66 16t22 38q0 27 -18 39.5t-72 28.5l-31 9q-51 -29 -51 -73q0 -27 21.5 -42.5t62.5 -15.5zM203 711q74 0 116.5 -31.5t42.5 -81.5q0 -38 -24 -62t-65 -32q45 -5 73.5 -31t28.5 -71q0 -60 -47.5 -95.5
t-126.5 -35.5q-68 0 -114.5 30.5t-60.5 85.5l87 20q16 -61 87 -61q34 0 55 15.5t21 45.5q0 28 -20.5 43.5t-54.5 15.5h-47v68h40q30 0 50.5 13t20.5 40q0 26 -18 38.5t-46 12.5q-64 0 -80 -55l-87 14q15 52 60 83t109 31z" />
    <glyph glyph-name="fiveeighths" unicode="&#x215d;" horiz-adv-x="938" 
d="M728 712l-433 -724h-85l433 724h85zM736 -9q-91 0 -137 37.5t-46 86.5q0 76 85 105q-61 35 -61 95q0 47 40.5 81.5t118.5 34.5t119.5 -32.5t41.5 -75.5q0 -30 -20 -55.5t-51 -38.5q56 -19 76.5 -43.5t20.5 -64.5q0 -52 -45 -91t-142 -39zM734 259l25 -7q46 22 46 61
q0 48 -67 48q-32 0 -49 -13t-17 -34t14 -33t48 -22zM736 63q44 0 66 16t22 38q0 27 -18 39.5t-72 28.5l-31 9q-51 -29 -51 -73q0 -27 21.5 -42.5t62.5 -15.5zM351 700l-11 -75h-191l-13 -90q39 35 98 35t101 -39.5t42 -104.5q0 -68 -48 -111.5t-135 -43.5q-67 0 -110 28.5
t-59 74.5l84 26q21 -55 87 -55q38 0 60 22t22 55t-21 52.5t-57 19.5q-50 0 -78 -36l-82 13l33 229h278z" />
    <glyph glyph-name="seveneighths" unicode="&#x215e;" horiz-adv-x="888" 
d="M678 712l-433 -724h-85l433 724h85zM686 -9q-91 0 -137 37.5t-46 86.5q0 76 85 105q-61 35 -61 95q0 47 40.5 81.5t118.5 34.5t119.5 -32.5t41.5 -75.5q0 -30 -20 -55.5t-51 -38.5q56 -19 76.5 -43.5t20.5 -64.5q0 -52 -45 -91t-142 -39zM684 259l25 -7q46 22 46 61
q0 48 -67 48q-32 0 -49 -13t-17 -34t14 -33t48 -22zM686 63q44 0 66 16t22 38q0 27 -18 39.5t-72 28.5l-31 9q-51 -29 -51 -73q0 -27 21.5 -42.5t62.5 -15.5zM363 700v-74q-71 -85 -104.5 -160t-47.5 -186h-103q16 120 56 196.5t111 148.5h-159v-48h-80v123h327z" />
    <glyph glyph-name="uni215F" unicode="&#x215f;" horiz-adv-x="628" 
d="M768 712l-433 -724h-85l433 724h85zM69 280v75h108v211h-107v61h16q58 0 80 17t28 56h77v-345h88v-75h-290z" />
    <glyph glyph-name="uni2189" unicode="&#x2189;" horiz-adv-x="928" 
d="M718 712l-433 -724h-85l433 724h85zM731 431q74 0 116.5 -31.5t42.5 -81.5q0 -38 -24 -62t-65 -32q45 -5 73.5 -31t28.5 -71q0 -60 -47.5 -95.5t-126.5 -35.5q-68 0 -114.5 30.5t-60.5 85.5l87 20q16 -61 87 -61q34 0 55 15.5t21 45.5q0 28 -20.5 43.5t-54.5 15.5h-47v68
h40q30 0 50.5 13t20.5 40q0 26 -18 38.5t-46 12.5q-64 0 -80 -55l-87 14q15 52 60 83t109 31zM200 711q81 0 127 -56t46 -164q0 -109 -45.5 -164.5t-127.5 -55.5q-83 0 -128.5 55.5t-45.5 164.5t45.5 164.5t128.5 55.5zM200 636q-40 0 -58.5 -35t-18.5 -110
q0 -74 18.5 -109.5t58.5 -35.5q78 0 78 145q0 75 -19 110t-59 35z" />
    <glyph glyph-name="arrowleft" unicode="&#x2190;" horiz-adv-x="900" 
d="M397 648l72 -62l-199 -213h519v-88h-519l199 -213l-72 -62l-287 319z" />
    <glyph glyph-name="arrowup" unicode="&#x2191;" horiz-adv-x="900" 
d="M450 679l319 -287l-59 -67l-211 200v-525h-98v525l-212 -200l-59 67z" />
    <glyph glyph-name="arrowright" unicode="&#x2192;" horiz-adv-x="900" 
d="M503 648l286 -319l-286 -319l-73 62l200 213h-520v88h520l-200 213z" />
    <glyph glyph-name="arrowdown" unicode="&#x2193;" horiz-adv-x="900" 
d="M499 640v-525l211 200l59 -67l-319 -288l-320 288l59 67l212 -200v525h98z" />
    <glyph glyph-name="arrowboth" unicode="&#x2194;" horiz-adv-x="1280" 
d="M893 648l286 -319l-286 -319l-73 62l200 213h-760l199 -213l-72 -62l-287 319l287 319l72 -62l-199 -213h760l-200 213z" />
    <glyph glyph-name="arrowupdn" unicode="&#x2195;" horiz-adv-x="900" 
d="M450 880l319 -288l-59 -66l-211 199v-770l211 199l59 -66l-319 -288l-320 288l59 66l212 -199v770l-212 -199l-59 66z" />
    <glyph glyph-name="uni2196" unicode="&#x2196;" horiz-adv-x="900" 
d="M636 605l7 -91l-291 -9l368 -371l-67 -65l-368 370l-9 -292l-95 4l23 432z" />
    <glyph glyph-name="uni2197" unicode="&#x2197;" horiz-adv-x="900" 
d="M264 605l433 -22l23 -432l-95 -4l-10 292l-367 -370l-67 65l368 371l-292 9z" />
    <glyph glyph-name="uni2198" unicode="&#x2198;" horiz-adv-x="900" 
d="M248 564l367 -369l10 291l95 -4l-23 -432l-433 -22l-7 91l292 9l-368 371z" />
    <glyph glyph-name="uni2199" unicode="&#x2199;" horiz-adv-x="900" 
d="M653 564l67 -65l-368 -371l291 -9l-7 -91l-432 22l-23 432l95 4l9 -291z" />
    <glyph glyph-name="partialdiff" unicode="&#x2202;" horiz-adv-x="619" 
d="M128 631v83q199 -2 315 -102t116 -300q0 -166 -70 -247t-190 -81q-112 0 -185 66.5t-73 174.5q0 106 66.5 170t166.5 64q53 0 104 -23.5t77 -66.5q-29 262 -327 262zM292 374q-71 0 -110 -42.5t-39 -106.5q0 -74 45 -115.5t111 -41.5q67 0 107.5 42t40.5 115
q0 65 -43.5 107t-111.5 42z" />
    <glyph glyph-name="emptyset" unicode="&#x2205;" horiz-adv-x="900" 
d="M742 712l-58 -79q62 -51 97 -125t35 -159q0 -153 -106 -259t-259 -106q-110 0 -202 59l-40 -55h-70l66 89q-57 51 -89 121.5t-32 150.5q0 153 107 260t260 107q102 0 187 -51l34 47h70zM169 349q0 -121 85 -204l335 454q-64 36 -138 36q-118 0 -200 -83.5t-82 -202.5z
M451 65q118 0 199.5 82.5t81.5 201.5q0 133 -97 217l-337 -457q69 -44 153 -44z" />
    <glyph glyph-name="Delta" unicode="&#x2206;" horiz-adv-x="625" 
d="M379 700l233 -700h-600l234 700h133zM146 88h326l-163 522z" />
    <glyph glyph-name="product" unicode="&#x220f;" horiz-adv-x="620" 
d="M585 700v-82h-82v-618h-100v618h-185v-618h-100v618h-82v82h549z" />
    <glyph glyph-name="summation" unicode="&#x2211;" 
d="M542 700v-82h-368l206 -220v-77l-207 -237h369v-84h-486v74l246 285l-246 266v75h486z" />
    <glyph glyph-name="minus" unicode="&#x2212;" 
d="M499 337v-89h-399v89h399z" />
    <glyph glyph-name="uni2215" unicode="&#x2215;" 
d="M559 712l-433 -724h-85l433 724h85z" />
    <glyph glyph-name="uni2219" unicode="&#x2219;" 
d="M300 394q42 0 71.5 -30t29.5 -72t-29.5 -71.5t-71.5 -29.5t-72 30t-30 72t29.5 71.5t72.5 29.5z" />
    <glyph glyph-name="radical" unicode="&#x221a;" 
d="M697 867v-82h-184l-228 -785h-102l-191 522h104l135 -397l210 742h256z" />
    <glyph glyph-name="infinity" unicode="&#x221e;" horiz-adv-x="899" 
d="M631 471q100 0 154 -59t54 -147t-55 -146.5t-157 -58.5q-113 0 -178 121q-31 -56 -73 -88.5t-107 -32.5q-100 0 -154 59t-54 147t55 146.5t157 58.5q112 0 178 -121q65 121 180 121zM272 391q-51 0 -82.5 -33t-31.5 -92t30 -92t80 -33q54 0 86 37t57 98q-14 29 -21.5 42
t-24.5 34t-40 30t-53 9zM632 390q-54 0 -86.5 -37.5t-56.5 -97.5q13 -27 21 -41.5t25 -34.5t40 -29.5t53 -9.5q51 0 82.5 33t31.5 92t-30 92t-80 33z" />
    <glyph glyph-name="integral" unicode="&#x222b;" horiz-adv-x="300" 
d="M271 852q47 0 101 -16v-80q-48 16 -89 16t-62.5 -14.5t-21.5 -51.5v-786q0 -56 -43.5 -94.5t-127.5 -38.5q-47 0 -101 16v81q48 -16 89 -16q85 0 85 65v786q0 56 43 94.5t127 38.5z" />
    <glyph glyph-name="congruent" unicode="&#x2245;" 
d="M509 409v-89h-399v89h399zM509 199v-89h-399v89h399zM215 690q49 0 104.5 -30t72.5 -30q45 0 75 53l57 -48q-47 -92 -139 -92q-49 0 -104.5 30t-72.5 30q-45 0 -75 -53l-57 48q47 92 139 92z" />
    <glyph glyph-name="approxequal" unicode="&#x2248;" 
d="M215 481q49 0 104.5 -30t72.5 -30q45 0 75 53l57 -48q-47 -92 -139 -92q-49 0 -104.5 30t-72.5 30q-45 0 -75 -53l-57 48q47 92 139 92zM215 292q49 0 104.5 -30t72.5 -30q45 0 75 53l57 -48q-47 -92 -139 -92q-49 0 -104.5 30t-72.5 30q-45 0 -75 -53l-57 48
q47 92 139 92z" />
    <glyph glyph-name="uni2259" unicode="&#x2259;" 
d="M338 700l131 -178h-100l-69 97l-69 -97h-100l132 178h75zM499 452v-89h-399v89h399zM499 242v-89h-399v89h399z" />
    <glyph glyph-name="notequal" unicode="&#x2260;" 
d="M499 363h-121l-68 -121h189v-89h-238l-73 -131h-85l74 131h-77v89h127l67 121h-194v89h244l70 124h82l-69 -124h72v-89z" />
    <glyph glyph-name="lessequal" unicode="&#x2264;" 
d="M499 570v-96l-324 -121l324 -121v-96l-399 159v116zM499 89v-89h-399v89h399z" />
    <glyph glyph-name="greaterequal" unicode="&#x2265;" 
d="M100 570l399 -159v-116l-399 -159v96l325 121l-325 121v96zM499 89v-89h-399v89h399z" />
    <glyph glyph-name="dotmath" unicode="&#x22c5;" 
d="M300 367q29 0 50 -21.5t21 -50.5t-21 -50t-50 -21q-30 0 -51 21.5t-21 50.5t21 50t51 21z" />
    <glyph glyph-name="uni2460" unicode="&#x2460;" horiz-adv-x="900" 
d="M321 159v68h98v192h-97v55h14q53 0 73 15.5t25 51.5h70v-314h80v-68h-263zM451 716q152 0 258.5 -106.5t106.5 -260.5q0 -153 -106 -259t-259 -106t-260 106t-107 259t107 260t260 107zM451 658q-128 0 -216.5 -90.5t-88.5 -218.5t88.5 -217.5t216.5 -89.5
q127 0 215 89.5t88 217.5t-88 218.5t-215 90.5z" />
    <glyph glyph-name="uni2461" unicode="&#x2461;" horiz-adv-x="900" 
d="M452 551q65 0 103.5 -31.5t38.5 -84.5q0 -58 -43.5 -106.5t-134.5 -101.5h185v-68h-301v65q109 72 155.5 119.5t46.5 89.5q0 51 -54 51q-57 0 -59 -67h-88q1 58 39 96t112 38zM451 716q152 0 258.5 -106.5t106.5 -260.5q0 -153 -106 -259t-259 -106t-260 106t-107 259
t107 260t260 107zM451 658q-128 0 -216.5 -90.5t-88.5 -218.5t88.5 -217.5t216.5 -89.5q127 0 215 89.5t88 217.5t-88 218.5t-215 90.5z" />
    <glyph glyph-name="uni2462" unicode="&#x2462;" horiz-adv-x="900" 
d="M453 551q67 0 105.5 -29t38.5 -74q0 -34 -21.5 -56t-59.5 -29q41 -5 67 -29t26 -64q0 -55 -43 -87t-115 -32q-62 0 -104 28t-55 77l79 18q14 -55 79 -55q31 0 50 14t19 41q0 26 -18.5 40t-49.5 14h-43v62h36q27 0 46 12t19 36q0 46 -58 46q-59 0 -73 -50l-79 13
q14 48 54.5 76t99.5 28zM451 716q152 0 258.5 -106.5t106.5 -260.5q0 -153 -106 -259t-259 -106t-260 106t-107 259t107 260t260 107zM451 658q-128 0 -216.5 -90.5t-88.5 -218.5t88.5 -217.5t216.5 -89.5q127 0 215 89.5t88 217.5t-88 218.5t-215 90.5z" />
    <glyph glyph-name="uni2463" unicode="&#x2463;" horiz-adv-x="900" 
d="M549 541v-245h53v-67h-53v-70h-83v70h-198v69l170 243h111zM466 458l-116 -162h116v162zM451 716q152 0 258.5 -106.5t106.5 -260.5q0 -153 -106 -259t-259 -106t-260 106t-107 259t107 260t260 107zM451 658q-128 0 -216.5 -90.5t-88.5 -218.5t88.5 -217.5t216.5 -89.5
q127 0 215 89.5t88 217.5t-88 218.5t-215 90.5z" />
    <glyph glyph-name="uni2464" unicode="&#x2464;" horiz-adv-x="900" 
d="M585 541l-10 -68h-174l-11 -82q35 32 89 32q53 0 91.5 -36t38.5 -95q0 -62 -44 -101.5t-123 -39.5q-61 0 -99.5 26t-53.5 67l76 24q20 -50 79 -50q35 0 55 20t20 50q0 31 -19.5 48.5t-51.5 17.5q-46 0 -71 -33l-75 12l30 208h253zM451 716q152 0 258.5 -106.5
t106.5 -260.5q0 -153 -106 -259t-259 -106t-260 106t-107 259t107 260t260 107zM451 658q-128 0 -216.5 -90.5t-88.5 -218.5t88.5 -217.5t216.5 -89.5q127 0 215 89.5t88 217.5t-88 218.5t-215 90.5z" />
    <glyph glyph-name="uni2465" unicode="&#x2465;" horiz-adv-x="900" 
d="M457 551q98 0 134 -77l-73 -26q-16 37 -62 37q-76 0 -85 -117q34 46 101 46q54 0 92 -32.5t38 -90.5q0 -66 -43 -103t-112 -37q-73 0 -117 42.5t-44 134.5q0 108 45.5 165.5t125.5 57.5zM448 349q-29 0 -48 -17.5t-19 -47.5t18.5 -49t47.5 -19t47 18.5t18 49.5
q0 30 -17 47.5t-47 17.5zM451 716q152 0 258.5 -106.5t106.5 -260.5q0 -153 -106 -259t-259 -106t-260 106t-107 259t107 260t260 107zM451 658q-128 0 -216.5 -90.5t-88.5 -218.5t88.5 -217.5t216.5 -89.5q127 0 215 89.5t88 217.5t-88 218.5t-215 90.5z" />
    <glyph glyph-name="uni2466" unicode="&#x2466;" horiz-adv-x="900" 
d="M604 541v-67q-64 -77 -95 -145.5t-43 -169.5h-94q15 108 51.5 177.5t100.5 136.5h-145v-44h-72v112h297zM451 716q152 0 258.5 -106.5t106.5 -260.5q0 -153 -106 -259t-259 -106t-260 106t-107 259t107 260t260 107zM451 658q-128 0 -216.5 -90.5t-88.5 -218.5
t88.5 -217.5t216.5 -89.5q127 0 215 89.5t88 217.5t-88 218.5t-215 90.5z" />
    <glyph glyph-name="uni2467" unicode="&#x2467;" horiz-adv-x="900" 
d="M448 151q-83 0 -124.5 34t-41.5 79q0 70 77 95q-56 31 -56 86q0 43 37 74.5t108 31.5t108.5 -29.5t37.5 -68.5q0 -27 -18 -50.5t-46 -35.5q50 -17 69 -39.5t19 -58.5q0 -47 -41 -82.5t-129 -35.5zM446 394l23 -6q42 21 42 56q0 43 -61 43q-29 0 -44.5 -12t-15.5 -31
t12.5 -30t43.5 -20zM448 216q40 0 60 14.5t20 34.5q0 24 -16.5 36t-65.5 26l-28 8q-46 -26 -46 -66q0 -24 19 -38.5t57 -14.5zM451 716q152 0 258.5 -106.5t106.5 -260.5q0 -153 -106 -259t-259 -106t-260 106t-107 259t107 260t260 107zM451 658q-128 0 -216.5 -90.5
t-88.5 -218.5t88.5 -217.5t216.5 -89.5q127 0 215 89.5t88 217.5t-88 218.5t-215 90.5z" />
    <glyph glyph-name="uni2468" unicode="&#x2468;" horiz-adv-x="900" 
d="M436 149q-97 0 -140 78l71 28q22 -40 71 -40q79 0 83 119q-34 -45 -99 -45q-54 0 -91.5 33t-37.5 94q0 63 44 99t110 36q73 0 117.5 -43.5t44.5 -132.5q0 -111 -44 -168.5t-129 -57.5zM447 355q31 0 49.5 18t18.5 48t-17.5 46.5t-47.5 16.5t-48.5 -17t-18.5 -48
q0 -29 17 -46.5t47 -17.5zM451 716q152 0 258.5 -106.5t106.5 -260.5q0 -153 -106 -259t-259 -106t-260 106t-107 259t107 260t260 107zM451 658q-128 0 -216.5 -90.5t-88.5 -218.5t88.5 -217.5t216.5 -89.5q127 0 215 89.5t88 217.5t-88 218.5t-215 90.5z" />
    <glyph glyph-name="uni24EA" unicode="&#x24ea;" horiz-adv-x="900" 
d="M450 551q74 0 115.5 -51t41.5 -149q0 -100 -41 -150t-116 -50t-116.5 50t-41.5 150q0 98 41.5 149t116.5 51zM450 483q-37 0 -53.5 -31.5t-16.5 -100.5q0 -132 70 -132q71 0 71 132t-71 132zM451 716q152 0 258.5 -106.5t106.5 -260.5q0 -153 -106 -259t-259 -106
t-260 106t-107 259t107 260t260 107zM451 658q-128 0 -216.5 -90.5t-88.5 -218.5t88.5 -217.5t216.5 -89.5q127 0 215 89.5t88 217.5t-88 218.5t-215 90.5z" />
    <glyph glyph-name="uni24FF" unicode="&#x24ff;" horiz-adv-x="900" 
d="M451 -16q-153 0 -260 106t-107 259t107 260t260 107q152 0 258.5 -106.5t106.5 -260.5q0 -153 -106 -259t-259 -106zM450 151q74 0 115.5 50.5t41.5 149.5t-41.5 149.5t-115.5 50.5q-76 0 -117 -50.5t-41 -149.5t41.5 -149.5t116.5 -50.5zM450 219q-70 0 -70 132
q0 69 16.5 100.5t53.5 31.5q71 0 71 -132t-71 -132z" />
    <glyph glyph-name="filledbox" unicode="&#x25a0;" 
d="M110 454h379v-379h-379v379z" />
    <glyph glyph-name="uni25A1" unicode="&#x25a1;" 
d="M110 454h379v-379h-379v379zM200 364v-199h199v199h-199z" />
    <glyph glyph-name="uni25B3" unicode="&#x25b3;" horiz-adv-x="900" 
d="M100 0l352 709l348 -709h-700zM249 88h402l-200 407z" />
    <glyph glyph-name="uni25B4" unicode="&#x25b4;" 
d="M299 454l190 -379h-379z" />
    <glyph glyph-name="uni25B8" unicode="&#x25b8;" 
d="M489 264l-379 -189v379z" />
    <glyph glyph-name="uni25BD" unicode="&#x25bd;" horiz-adv-x="900" 
d="M452 -9l-352 709h700zM651 612h-402l202 -407z" />
    <glyph glyph-name="uni25BE" unicode="&#x25be;" 
d="M299 75l-189 379h379z" />
    <glyph glyph-name="uni25C2" unicode="&#x25c2;" 
d="M110 264l379 190v-379z" />
    <glyph glyph-name="uni25C6" unicode="&#x25c6;" 
d="M300 539l260 -273l-260 -278l-260 278z" />
    <glyph glyph-name="uni25C7" unicode="&#x25c7;" 
d="M300 539l260 -273l-260 -278l-260 278zM300 419l-146 -153l146 -159l147 159z" />
    <glyph glyph-name="lozenge" unicode="&#x25ca;" 
d="M361 700l208 -339l-208 -361h-122l-208 359l208 341h122zM299 637l-164 -277l166 -297l164 297z" />
    <glyph glyph-name="circle" unicode="&#x25cb;" 
d="M301 27q-101 0 -171.5 70.5t-70.5 171.5q0 100 71 170.5t171 70.5t170.5 -70.5t70.5 -170.5t-70.5 -171t-170.5 -71zM301 112q61 0 104 45t43 112t-43 111.5t-104 44.5q-62 0 -105 -44.5t-43 -111.5q0 -68 43 -112.5t105 -44.5z" />
    <glyph glyph-name="uni25CF" unicode="&#x25cf;" 
d="M301 27q-101 0 -171.5 70.5t-70.5 171.5q0 100 71 170.5t171 70.5t170.5 -70.5t70.5 -170.5t-70.5 -171t-170.5 -71z" />
    <glyph glyph-name="uni2605" unicode="&#x2605;" horiz-adv-x="900" 
d="M611 267l79 -277l-242 177l-242 -177l80 280l-201 195l266 -29l94 277l96 -278l273 29z" />
    <glyph glyph-name="uni2610" unicode="&#x2610;" horiz-adv-x="900" 
d="M100 0v700h700v-700h-700zM190 90h520v520h-520v-520z" />
    <glyph glyph-name="uni2611" unicode="&#x2611;" horiz-adv-x="900" 
d="M100 0v700h700v-700h-700zM190 90h520v520h-520v-520zM557 541h67l-179 -375h-70l-83 177h71l48 -107z" />
    <glyph glyph-name="uni2612" unicode="&#x2612;" horiz-adv-x="900" 
d="M100 0v700h700v-700h-700zM190 90h520v520h-520v-520zM665 570l-163 -226l93 -189h-82l-66 134l-121 -167h-83l170 238l-88 180h81l61 -126l115 156h83z" />
    <glyph glyph-name="uni2620" unicode="&#x2620;" 
d="M300 129q-41 0 -72 10l-33 65q-17 10 -23.5 17t-9.5 21v42q-31 35 -31 102q0 66 48.5 109.5t120.5 43.5t120.5 -43.5t48.5 -109.5q0 -67 -31 -102v-42q-3 -14 -9.5 -21t-23.5 -17l-33 -65q-31 -10 -72 -10zM138 231l-57 28q-30 -19 -49 -19q-11 0 -19 7t-8 20q0 31 36 35
l3 7q-13 11 -13 29q0 13 8.5 21t23.5 8q36 0 41 -58l34 -20v-58zM462 231v58l34 20q5 58 41 58q15 0 23.5 -8t8.5 -21q0 -18 -13 -29l3 -7q36 -4 36 -35q0 -13 -8 -20t-19 -7q-19 0 -49 19zM219 285q17 0 28.5 10.5t11.5 26.5q0 17 -11.5 28t-28.5 11q-16 0 -27.5 -11
t-11.5 -28q0 -16 11.5 -26.5t27.5 -10.5zM381 285q16 0 27.5 10.5t11.5 26.5q0 17 -11.5 28t-27.5 11q-17 0 -28.5 -11t-11.5 -28q0 -16 11.5 -26.5t28.5 -10.5zM265 235v-29q7 0 18 3.5t17 3.5t17 -3.5t18 -3.5v29q-16 45 -35 45t-35 -45zM90 32q-15 0 -23.5 8t-8.5 21
q0 18 13 29l-3 7q-36 4 -36 35q0 13 8 20t19 7q19 0 49 -19l71 38l25 -47l-73 -41q-5 -58 -41 -58zM510 32q-36 0 -41 58l-73 41l25 47l71 -38q30 19 49 19q11 0 19 -7t8 -20q0 -31 -36 -35l-3 -7q13 -11 13 -29q0 -13 -8.5 -21t-23.5 -8z" />
    <glyph glyph-name="smileface" unicode="&#x263a;" 
d="M301 -15q-114 0 -194 79.5t-80 194.5q0 114 80 193.5t194 79.5q113 0 192.5 -79.5t79.5 -193.5q0 -115 -79.5 -194.5t-192.5 -79.5zM301 46q84 0 142.5 60t58.5 153q0 92 -58.5 152t-142.5 60q-85 0 -143.5 -60t-58.5 -152q0 -93 58.5 -153t143.5 -60zM218 298
q-22 0 -35.5 13.5t-13.5 34.5q0 20 13.5 33t35.5 13t35.5 -13t13.5 -33q0 -21 -13.5 -34.5t-35.5 -13.5zM378 298q-22 0 -35.5 13.5t-13.5 34.5q0 20 13.5 33t35.5 13t35.5 -13t13.5 -33q0 -21 -13.5 -34.5t-35.5 -13.5zM300 96q-63 0 -105.5 42.5t-49.5 101.5h55
q22 -89 100 -89q77 0 99 89h55q-7 -58 -49 -101t-105 -43z" />
    <glyph glyph-name="invsmileface" unicode="&#x263b;" 
d="M301 -15q-114 0 -194 79.5t-80 194.5q0 114 80 193.5t194 79.5q113 0 192.5 -79.5t79.5 -193.5q0 -115 -79.5 -194.5t-192.5 -79.5zM211 298q22 0 35.5 13.5t13.5 34.5q0 20 -13.5 33t-35.5 13t-35.5 -13t-13.5 -33q0 -21 13.5 -34.5t35.5 -13.5zM385 298q22 0 35.5 13.5
t13.5 34.5q0 20 -13.5 33t-35.5 13t-35.5 -13t-13.5 -33q0 -21 13.5 -34.5t35.5 -13.5zM300 77q63 0 105 43t49 101h-55q-22 -89 -99 -89q-78 0 -100 89h-55q7 -59 49.5 -101.5t105.5 -42.5z" />
    <glyph glyph-name="sun" unicode="&#x263c;" 
d="M324 536v-112q39 -5 72 -28l83 85l38 -37l-85 -83q26 -33 34 -75h114v-49h-114q-8 -42 -32 -72l83 -81l-38 -37l-81 83q-32 -22 -74 -28v-115h-49v115q-44 7 -74 28l-81 -83l-37 37l82 81q-26 36 -31 72h-115v49h116q4 40 31 75l-83 83l37 37l82 -85q33 24 73 28v112h49z
M300 363q-43 0 -70.5 -28.5t-27.5 -72.5q0 -43 27.5 -71t70.5 -28q44 0 71.5 27.5t27.5 71.5t-28 72.5t-71 28.5z" />
    <glyph glyph-name="female" unicode="&#x2640;" 
d="M329 226v-74h95v-53h-95v-99h-57v99h-98v53h98v73q-57 8 -95 51t-38 102q0 67 46.5 112.5t113.5 45.5t113.5 -45.5t46.5 -112.5q0 -59 -37 -100.5t-93 -51.5zM206 378q0 -41 26 -68t67 -27q40 0 67 27t27 68t-27 68.5t-67 27.5q-41 0 -67 -27.5t-26 -68.5z" />
    <glyph glyph-name="male" unicode="&#x2642;" 
d="M518 522l33 -242l-57 -8l-20 156l-144 -169q38 -44 38 -104q0 -68 -47.5 -111.5t-114.5 -43.5q-66 0 -112 45t-46 110q0 67 46.5 112.5t113.5 45.5q42 0 75 -18l144 172l-168 -11v57zM208 60q41 0 67.5 27t26.5 68t-27 68.5t-67 27.5q-41 0 -67 -27.5t-26 -68.5t26 -68
t67 -27z" />
    <glyph glyph-name="spade" unicode="&#x2660;" 
d="M80 0l20 45q97 0 139.5 29.5t42.5 125.5q-39 -64 -114 -64q-45 0 -71.5 26t-26.5 72q0 34 13.5 66t50.5 74.5t67.5 72t98.5 92.5q68 -63 98.5 -92.5t67.5 -72t50.5 -74.5t13.5 -66q0 -46 -26.5 -72t-71.5 -26q-75 0 -114 64q0 -96 42.5 -125.5t139.5 -29.5l20 -45h-440z
" />
    <glyph glyph-name="club" unicode="&#x2663;" 
d="M80 0l20 45q97 0 139.5 29.5t42.5 125.5q-40 -66 -108 -66q-49 0 -81.5 32t-32.5 82q0 48 30 78t77 30q34 0 67 -14q-54 44 -54 99q0 48 33 77t87 29t87 -29t33 -77q0 -55 -54 -99q33 14 67 14q47 0 77 -30t30 -78q0 -50 -32.5 -82t-81.5 -32q-69 0 -108 66
q0 -96 42.5 -125.5t139.5 -29.5l20 -45h-440z" />
    <glyph glyph-name="heart" unicode="&#x2665;" 
d="M434 539q56 0 91 -33.5t35 -90.5q0 -29 -6.5 -55t-27 -57t-34.5 -51t-55 -60t-60.5 -58t-76.5 -70q-140 128 -181 175q-79 92 -79 176q0 57 35 90.5t91 33.5q49 0 79 -23t55 -69q25 46 55 69t79 23z" />
    <glyph glyph-name="diamond" unicode="&#x2666;" 
d="M300 539l220 -273l-220 -278l-220 278z" />
    <glyph glyph-name="musicalnote" unicode="&#x266a;" 
d="M359 522l47 -29q46 -28 65 -56.5t19 -68.5q0 -32 -22 -78l-30 12q4 16 4 31q0 38 -14 62.5t-45 45.5l-24 15v-358q0 -45 -39.5 -77.5t-94.5 -32.5q-50 0 -78.5 20t-28.5 54q0 38 32 62t77 24q46 0 72 -14v388h60z" />
    <glyph glyph-name="musicalnotedbl" unicode="&#x266b;" 
d="M562 580v-422q0 -51 -40.5 -85.5t-96.5 -34.5q-49 0 -76.5 18t-27.5 52q0 38 36 64t88 26q33 0 57 -13v281l-224 -58v-302q0 -51 -38 -84.5t-98 -33.5q-48 0 -76.5 19.5t-28.5 54.5q0 37 31.5 61.5t82.5 24.5q43 0 67 -13v356z" />
    <glyph glyph-name="uni2713" unicode="&#x2713;" 
d="M438 574h96l-256 -536h-99l-119 254h102l68 -153z" />
    <glyph glyph-name="uni2717" unicode="&#x2717;" 
d="M585 574l-204 -283l116 -236h-102l-82 167l-152 -208h-104l213 297l-110 225h101l77 -157l143 195h104z" />
    <glyph glyph-name="uni2776" unicode="&#x2776;" horiz-adv-x="900" 
d="M451 -16q-153 0 -260 106t-107 259t107 260t260 107q152 0 258.5 -106.5t106.5 -260.5q0 -153 -106 -259t-259 -106zM321 159h263v68h-79v314h-70q-10 -34 -34.5 -50t-78.5 -16v-65q64 0 97 26v-209h-98v-68z" />
    <glyph glyph-name="uni2777" unicode="&#x2777;" horiz-adv-x="900" 
d="M451 -16q-153 0 -260 106t-107 259t107 260t260 107q152 0 258.5 -106.5t106.5 -260.5q0 -153 -106 -259t-259 -106zM300 159h301v68h-184q90 52 133.5 101.5t43.5 107.5q0 52 -38.5 83.5t-103.5 31.5q-74 0 -112 -38t-39 -96h88q2 67 59 67q53 0 53 -51
q0 -42 -46.5 -89.5t-154.5 -119.5v-65z" />
    <glyph glyph-name="uni2778" unicode="&#x2778;" horiz-adv-x="900" 
d="M451 -16q-153 0 -260 106t-107 259t107 260t260 107q152 0 258.5 -106.5t106.5 -260.5q0 -153 -106 -259t-259 -106zM451 151q72 0 115 32.5t43 86.5q0 41 -26 65t-67 28q38 7 59.5 29t21.5 56q0 46 -38 74.5t-106 28.5q-59 0 -99.5 -28t-54.5 -75l79 -13q15 50 73 50
q26 0 42 -11.5t16 -34.5q0 -25 -18.5 -36.5t-45.5 -11.5h-37v-63h43q31 0 49.5 -13.5t18.5 -39.5q0 -27 -19 -41.5t-49 -14.5q-64 0 -80 56l-79 -19q13 -49 55 -77t104 -28z" />
    <glyph glyph-name="uni2779" unicode="&#x2779;" horiz-adv-x="900" 
d="M451 -16q-153 0 -260 106t-107 259t107 260t260 107q152 0 258.5 -106.5t106.5 -260.5q0 -153 -106 -259t-259 -106zM466 159h83v70h54v68h-54v244h-111l-170 -242v-70h198v-70zM350 297l116 161v-161h-116z" />
    <glyph glyph-name="uni277A" unicode="&#x277a;" horiz-adv-x="900" 
d="M451 -16q-153 0 -260 106t-107 259t107 260t260 107q152 0 258.5 -106.5t106.5 -260.5q0 -153 -106 -259t-259 -106zM443 151q79 0 122.5 39.5t43.5 101.5q0 59 -38.5 95t-91.5 36t-89 -32l12 82h173l10 68h-252l-30 -208l75 -12q24 32 70 32q32 0 51.5 -17t19.5 -47
q0 -31 -19.5 -51t-54.5 -20q-60 0 -79 51l-77 -24q15 -42 53.5 -68t100.5 -26z" />
    <glyph glyph-name="uni277B" unicode="&#x277b;" horiz-adv-x="900" 
d="M451 -16q-153 0 -260 106t-107 259t107 260t260 107q152 0 258.5 -106.5t106.5 -260.5q0 -153 -106 -259t-259 -106zM448 151q68 0 111 37t43 103q0 58 -38 91t-92 33q-68 0 -100 -47q7 118 84 118q46 0 63 -38l72 26q-36 77 -134 77q-80 0 -125.5 -57.5t-45.5 -164.5
q0 -92 44 -135t118 -43zM447 216q-29 0 -47.5 19.5t-18.5 49.5t19 47.5t49 17.5q29 0 46 -17.5t17 -47.5q0 -31 -18 -50t-47 -19z" />
    <glyph glyph-name="uni277C" unicode="&#x277c;" horiz-adv-x="900" 
d="M451 -16q-153 0 -260 106t-107 259t107 260t260 107q152 0 258.5 -106.5t106.5 -260.5q0 -153 -106 -259t-259 -106zM374 159h93q13 102 43.5 170t94.5 145v67h-297v-111h73v43h144q-64 -65 -100 -135t-51 -179z" />
    <glyph glyph-name="uni277D" unicode="&#x277d;" horiz-adv-x="900" 
d="M451 -16q-153 0 -260 106t-107 259t107 260t260 107q152 0 258.5 -106.5t106.5 -260.5q0 -153 -106 -259t-259 -106zM449 151q88 0 128.5 35.5t40.5 82.5q0 37 -18.5 59.5t-69.5 38.5q29 12 46.5 35.5t17.5 50.5q0 39 -37.5 68.5t-107.5 29.5q-71 0 -108 -31.5t-37 -73.5
q0 -54 55 -87q-77 -26 -77 -95q0 -45 41.5 -79t125.5 -34zM469 389l-22 6q-32 8 -44.5 19.5t-12.5 30.5t15.5 31t44.5 12t45 -12t16 -32q0 -35 -42 -55zM449 216q-38 0 -57.5 14.5t-19.5 38.5q0 40 46 66l29 -8q48 -13 64.5 -25t16.5 -37q0 -20 -19.5 -34.5t-59.5 -14.5z
" />
    <glyph glyph-name="uni277E" unicode="&#x277e;" horiz-adv-x="900" 
d="M451 -16q-153 0 -260 106t-107 259t107 260t260 107q152 0 258.5 -106.5t106.5 -260.5q0 -153 -106 -259t-259 -106zM437 149q85 0 128.5 58t43.5 169q0 89 -44 132t-117 43q-67 0 -111 -36t-44 -98q0 -61 38 -94.5t91 -33.5q65 0 99 45q-5 -119 -82 -119q-50 0 -72 41
l-70 -29q41 -78 140 -78zM448 355q-31 0 -48 17.5t-17 46.5q0 31 18.5 48.5t49.5 17.5q30 0 47.5 -17t17.5 -47t-18.5 -48t-49.5 -18z" />
    <glyph glyph-name="fi" unicode="&#xfb01;" horiz-adv-x="561" 
d="M276 712q68 0 127 -26v-80q-59 26 -115 26q-48 0 -71 -14.5t-23 -51.5v-44h289v-522h-100v445h-189v-445h-100v445h-72v77h72v57q0 56 46 94.5t136 38.5z" />
    <glyph glyph-name="fl" unicode="&#xfb02;" horiz-adv-x="580" 
d="M267 712q54 0 111 -17l100 5v-562q0 -36 7 -47t38 -11q12 0 24 1v-81q-25 -6 -55 -6q-114 0 -114 127v496q-47 15 -100 15q-42 0 -63 -14.5t-21 -51.5v-44h110v-77h-110v-445h-100v445h-72v77h72v57q0 55 44.5 94t128.5 39z" />
    <glyph glyph-name="uniFEFF" unicode="&#xfeff;" horiz-adv-x="0" 
 />
    <glyph glyph-name="u1F310" unicode="&#x1f310;" horiz-adv-x="900" 
d="M450 715q151 0 257 -106t106 -257t-106 -257t-257 -106t-257.5 106t-106.5 257t106.5 257t257.5 106zM372 654q-89 -23 -149 -91q35 -22 65 -34q33 74 84 125zM676 563q-61 68 -148 91q51 -51 84 -125q27 11 64 34zM477 637v-136q42 1 84 11q-31 75 -84 125zM422 501v135
q-53 -51 -83 -124q42 -10 83 -11zM143 376h108q3 56 19 105q-44 17 -79 41q-42 -67 -48 -146zM649 376h107q-6 80 -48 145q-41 -26 -78 -40q16 -49 19 -105zM422 376v74q-51 1 -100 14q-12 -44 -15 -88h115zM477 450v-74h116q-3 44 -15 88q-50 -13 -101 -14zM251 327h-108
q6 -80 48 -145q44 27 79 40q-16 49 -19 105zM422 327h-115q3 -44 15 -88q49 13 100 14v74zM477 327v-74q51 -1 101 -14q12 44 15 88h-116zM756 327h-107q-3 -56 -19 -105q37 -14 78 -40q42 65 48 145zM477 203v-137q54 52 84 126q-42 10 -84 11zM422 67v136q-41 -1 -83 -11
q31 -75 83 -125zM223 140q60 -68 150 -91q-53 53 -85 126q-32 -13 -65 -35zM527 49q89 23 149 91q-34 23 -64 35q-32 -73 -85 -126z" />
    <glyph glyph-name="f_f.alt001" horiz-adv-x="648" 
d="M562 632q-39 0 -56.5 -14.5t-17.5 -51.5v-44h139v-77h-139v-445h-100v445h-194v-445h-100v445h-72v77h72v51q0 57 44.5 98t130.5 41q80 0 158 -39q42 39 123 39q36 0 78 -12v-78q-37 10 -66 10zM388 522v57q0 9 2 25q-56 28 -117 28q-40 0 -59.5 -14.5t-19.5 -51.5v-44
h194z" />
    <glyph glyph-name="f.alt001" horiz-adv-x="354" 
d="M256 712q36 0 78 -12v-78q-37 10 -66 10q-39 0 -56.5 -14.5t-17.5 -51.5v-44h139v-77h-139v-445h-100v445h-72v77h72v57q0 57 39.5 95t122.5 38z" />
    <glyph glyph-name="j.alt001" horiz-adv-x="255" 
d="M45 -180q-27 0 -48 6v80q9 -1 20 -1q34 0 47 17t13 68v532h100v-549q0 -77 -37.5 -115t-94.5 -38zM127 718q26 0 46 -19.5t20 -45.5t-20 -45.5t-46 -19.5q-27 0 -46.5 19.5t-19.5 45.5t19.5 45.5t46.5 19.5z" />
    <glyph glyph-name="caron.alt001" horiz-adv-x="162" 
d="M202 730l-82 -143h-68l40 143h110z" />
    <glyph glyph-name="j.ss01.alt001" horiz-adv-x="255" 
d="M45 -180q-27 0 -48 6v80q9 -1 20 -1q34 0 47 17t13 68v532h100v-549q0 -77 -37.5 -115t-94.5 -38zM184 718v-106h-114v106h114z" />
    <glyph glyph-name="parenleft.numr" horiz-adv-x="300" 
d="M174 748h61q-43 -71 -58 -124.5t-15 -118.5t15 -118.5t58 -124.5h-62q-40 53 -63.5 119.5t-23.5 123.5t23.5 123.5t64.5 119.5z" />
    <glyph glyph-name="parenright.numr" horiz-adv-x="300" 
d="M85 748h61q41 -53 64.5 -119.5t23.5 -123.5t-23.5 -123.5t-63.5 -119.5h-62q43 71 57.5 124.5t14.5 118.5t-14.5 118.5t-57.5 124.5z" />
    <glyph glyph-name="plus.numr" horiz-adv-x="367" 
d="M220 623v-95h95v-67h-95v-95h-75v95h-95v67h95v95h75z" />
    <glyph glyph-name="zero.numr" horiz-adv-x="400" 
d="M200 711q81 0 127 -56t46 -164q0 -109 -45.5 -164.5t-127.5 -55.5q-83 0 -128.5 55.5t-45.5 164.5t45.5 164.5t128.5 55.5zM200 636q-40 0 -58.5 -35t-18.5 -110q0 -74 18.5 -109.5t58.5 -35.5q78 0 78 145q0 75 -19 110t-59 35z" />
    <glyph glyph-name="one.numr" horiz-adv-x="400" 
d="M69 280v75h108v211h-107v61h16q58 0 80 17t28 56h77v-345h88v-75h-290z" />
    <glyph glyph-name="two.numr" horiz-adv-x="400" 
d="M202 711q72 0 114.5 -34.5t42.5 -92.5q0 -64 -48 -118t-148 -111h203v-75h-331v72q119 79 170.5 131t51.5 98q0 56 -59 56q-63 0 -65 -73h-97q1 64 43 105.5t123 41.5z" />
    <glyph glyph-name="three.numr" horiz-adv-x="400" 
d="M203 711q74 0 116.5 -31.5t42.5 -81.5q0 -38 -24 -62t-65 -32q45 -5 73.5 -31t28.5 -71q0 -60 -47.5 -95.5t-126.5 -35.5q-68 0 -114.5 30.5t-60.5 85.5l87 20q16 -61 87 -61q34 0 55 15.5t21 45.5q0 28 -20.5 43.5t-54.5 15.5h-47v68h40q30 0 50.5 13t20.5 40
q0 26 -18 38.5t-46 12.5q-64 0 -80 -55l-87 14q15 52 60 83t109 31z" />
    <glyph glyph-name="four.numr" horiz-adv-x="400" 
d="M325 700v-269h58v-74h-58v-77h-92v77h-218v76l187 267h123zM233 609l-127 -178h127v178z" />
    <glyph glyph-name="five.numr" horiz-adv-x="400" 
d="M351 700l-11 -75h-191l-13 -90q39 35 98 35t101 -39.5t42 -104.5q0 -68 -48 -111.5t-135 -43.5q-67 0 -110 28.5t-59 74.5l84 26q21 -55 87 -55q38 0 60 22t22 55t-21 52.5t-57 19.5q-50 0 -78 -36l-82 13l33 229h278z" />
    <glyph glyph-name="six.numr" horiz-adv-x="400" 
d="M214 711q108 0 148 -85l-80 -28q-18 41 -69 41q-84 0 -93 -129q38 51 111 51q59 0 101 -36t42 -100q0 -73 -47.5 -113.5t-122.5 -40.5q-80 0 -129 47t-49 148q0 118 50 181.5t138 63.5zM205 489q-32 0 -53 -19t-21 -52t20 -54t52 -21t52 20.5t20 54.5q0 33 -18.5 52
t-51.5 19z" />
    <glyph glyph-name="seven.numr" horiz-adv-x="400" 
d="M363 700v-74q-71 -85 -104.5 -160t-47.5 -186h-103q16 120 56 196.5t111 148.5h-159v-48h-80v123h327z" />
    <glyph glyph-name="eight.numr" horiz-adv-x="400" 
d="M198 271q-91 0 -137 37.5t-46 86.5q0 76 85 105q-61 35 -61 95q0 47 40.5 81.5t118.5 34.5t119.5 -32.5t41.5 -75.5q0 -30 -20 -55.5t-51 -38.5q56 -19 76.5 -43.5t20.5 -64.5q0 -52 -45 -91t-142 -39zM196 539l25 -7q46 22 46 61q0 48 -67 48q-32 0 -49 -13t-17 -34
t14 -33t48 -22zM198 343q44 0 66 16t22 38q0 27 -18 39.5t-72 28.5l-31 9q-51 -29 -51 -73q0 -27 21.5 -42.5t62.5 -15.5z" />
    <glyph glyph-name="nine.numr" horiz-adv-x="400" 
d="M184 268q-108 0 -154 86l78 31q23 -44 78 -44q87 0 91 130q-38 -49 -109 -49q-59 0 -100.5 36.5t-41.5 103.5q0 68 48.5 108t121.5 40q81 0 129.5 -47.5t48.5 -145.5q0 -122 -48.5 -185.5t-141.5 -63.5zM196 495q34 0 54.5 19.5t20.5 52.5t-19.5 51.5t-52.5 18.5
t-53.5 -19t-20.5 -53q0 -32 19 -51t52 -19z" />
    <glyph glyph-name="equal.numr" horiz-adv-x="367" 
d="M315 595v-69h-265v69h265zM315 464v-68h-265v68h265z" />
    <glyph glyph-name="minus.numr" horiz-adv-x="367" 
d="M315 528v-67h-265v67h265z" />
    <glyph glyph-name="parenleft.dnom" horiz-adv-x="300" 
d="M174 450h61q-43 -71 -58 -124.5t-15 -118.5t15 -118.5t58 -124.5h-62q-40 53 -63.5 119.5t-23.5 123.5t23.5 123.5t64.5 119.5z" />
    <glyph glyph-name="parenright.dnom" horiz-adv-x="300" 
d="M65 450h61q41 -53 64.5 -119.5t23.5 -123.5t-23.5 -123.5t-63.5 -119.5h-62q43 71 57.5 124.5t14.5 118.5t-14.5 118.5t-57.5 124.5z" />
    <glyph glyph-name="plus.dnom" horiz-adv-x="366" 
d="M220 323v-95h95v-67h-95v-95h-75v95h-95v67h95v95h75z" />
    <glyph glyph-name="zero.dnom" horiz-adv-x="400" 
d="M200 431q81 0 127 -56t46 -164q0 -109 -45.5 -164.5t-127.5 -55.5q-83 0 -128.5 55.5t-45.5 164.5t45.5 164.5t128.5 55.5zM200 356q-40 0 -58.5 -35t-18.5 -110q0 -74 18.5 -109.5t58.5 -35.5q78 0 78 145q0 75 -19 110t-59 35z" />
    <glyph glyph-name="one.dnom" horiz-adv-x="400" 
d="M69 0v75h108v211h-107v61h16q58 0 80 17t28 56h77v-345h88v-75h-290z" />
    <glyph glyph-name="two.dnom" horiz-adv-x="400" 
d="M202 431q72 0 114.5 -34.5t42.5 -92.5q0 -64 -48 -118t-148 -111h203v-75h-331v72q119 79 170.5 131t51.5 98q0 56 -59 56q-63 0 -65 -73h-97q1 64 43 105.5t123 41.5z" />
    <glyph glyph-name="three.dnom" horiz-adv-x="400" 
d="M203 431q74 0 116.5 -31.5t42.5 -81.5q0 -38 -24 -62t-65 -32q45 -5 73.5 -31t28.5 -71q0 -60 -47.5 -95.5t-126.5 -35.5q-68 0 -114.5 30.5t-60.5 85.5l87 20q16 -61 87 -61q34 0 55 15.5t21 45.5q0 28 -20.5 43.5t-54.5 15.5h-47v68h40q30 0 50.5 13t20.5 40
q0 26 -18 38.5t-46 12.5q-64 0 -80 -55l-87 14q15 52 60 83t109 31z" />
    <glyph glyph-name="four.dnom" horiz-adv-x="400" 
d="M325 420v-269h58v-74h-58v-77h-92v77h-218v76l187 267h123zM233 329l-127 -178h127v178z" />
    <glyph glyph-name="five.dnom" horiz-adv-x="400" 
d="M351 420l-11 -75h-191l-13 -90q39 35 98 35t101 -39.5t42 -104.5q0 -68 -48 -111.5t-135 -43.5q-67 0 -110 28.5t-59 74.5l84 26q21 -55 87 -55q38 0 60 22t22 55t-21 52.5t-57 19.5q-50 0 -78 -36l-82 13l33 229h278z" />
    <glyph glyph-name="six.dnom" horiz-adv-x="400" 
d="M214 431q108 0 148 -85l-80 -28q-18 41 -69 41q-84 0 -93 -129q38 51 111 51q59 0 101 -36t42 -100q0 -73 -47.5 -113.5t-122.5 -40.5q-80 0 -129 47t-49 148q0 118 50 181.5t138 63.5zM205 209q-32 0 -53 -19t-21 -52t20 -54t52 -21t52 20.5t20 54.5q0 33 -18.5 52
t-51.5 19z" />
    <glyph glyph-name="seven.dnom" horiz-adv-x="400" 
d="M363 420v-74q-71 -85 -104.5 -160t-47.5 -186h-103q16 120 56 196.5t111 148.5h-159v-48h-80v123h327z" />
    <glyph glyph-name="eight.dnom" horiz-adv-x="400" 
d="M198 -9q-91 0 -137 37.5t-46 86.5q0 76 85 105q-61 35 -61 95q0 47 40.5 81.5t118.5 34.5t119.5 -32.5t41.5 -75.5q0 -30 -20 -55.5t-51 -38.5q56 -19 76.5 -43.5t20.5 -64.5q0 -52 -45 -91t-142 -39zM196 259l25 -7q46 22 46 61q0 48 -67 48q-32 0 -49 -13t-17 -34
t14 -33t48 -22zM198 63q44 0 66 16t22 38q0 27 -18 39.5t-72 28.5l-31 9q-51 -29 -51 -73q0 -27 21.5 -42.5t62.5 -15.5z" />
    <glyph glyph-name="nine.dnom" horiz-adv-x="400" 
d="M184 -11q-108 0 -154 86l78 31q23 -44 78 -44q87 0 91 130q-38 -49 -109 -49q-59 0 -100.5 36.5t-41.5 103.5q0 68 48.5 108t121.5 40q81 0 129.5 -47.5t48.5 -145.5q0 -122 -48.5 -185.5t-141.5 -63.5zM196 216q34 0 54.5 19.5t20.5 52.5t-19.5 51.5t-52.5 18.5
t-53.5 -19t-20.5 -53q0 -32 19 -51t52 -19z" />
    <glyph glyph-name="equal.dnom" horiz-adv-x="367" 
d="M315 295v-69h-265v69h265zM315 164v-68h-265v68h265z" />
    <glyph glyph-name="minus.dnom" horiz-adv-x="366" 
d="M315 228v-67h-265v67h265z" />
    <glyph glyph-name="space.frac" horiz-adv-x="52" 
 />
    <glyph glyph-name="uni0394.osf" horiz-adv-x="610" 
d="M372 700l233 -700h-600l234 700h133zM139 88h326l-163 522z" />
    <glyph glyph-name="numbersign.tf" 
d="M549 447h-86l-29 -199h77v-74h-87l-25 -174h-86l25 174h-110l-25 -174h-85l25 174h-78v74h89l28 199h-79v74h90l26 179h85l-26 -179h110l26 179h85l-26 -179h76v-74zM349 248l28 199h-110l-28 -199h110z" />
    <glyph glyph-name="dollar.tf" 
d="M345 834v-118q117 -18 182 -113l-63 -50q-17 27 -49.5 51.5t-72.5 32.5v-241q106 -29 149 -73t43 -128q0 -86 -50 -143t-139 -67v-134h-73v135q-141 14 -209 121l74 53q54 -83 138 -96v264q-181 49 -181 195q0 82 47.5 133.5t130.5 60.5v117h73zM274 413v226
q-41 -6 -65.5 -36.5t-24.5 -75.5q0 -43 19 -69.5t71 -44.5zM343 312v-249q46 7 72.5 42t26.5 85q0 43 -20.5 73t-78.5 49z" />
    <glyph glyph-name="zero.tf" 
d="M300 718q118 0 185.5 -94t67.5 -274t-67.5 -274t-185.5 -94q-117 0 -184.5 94t-67.5 274t67.5 274t184.5 94zM300 633q-150 0 -150 -280q0 -140 38.5 -213t111.5 -73t111 73t38 213q0 280 -149 280z" />
    <glyph glyph-name="one.tf" 
d="M121 0v84h161v398h-166v77h27q83 0 117 35.5t46 105.5h76v-616h141v-84h-402z" />
    <glyph glyph-name="two.tf" 
d="M302 712q102 0 159.5 -58t57.5 -145q0 -223 -321 -425h331v-84h-460v82q191 145 268 236.5t77 184.5q0 59 -29 92t-84 33q-60 0 -93 -37.5t-33 -109.5h-102q0 97 60.5 164t168.5 67z" />
    <glyph glyph-name="three.tf" 
d="M307 716q105 0 162 -51t57 -135q0 -62 -32.5 -102t-84.5 -52q55 -8 96.5 -53t41.5 -117q0 -102 -69 -162t-178 -60q-97 0 -162.5 51t-85.5 143l99 22q12 -58 51.5 -95t101.5 -37t100 35t38 105q0 59 -34 92.5t-89 33.5h-79v75h67q48 0 82.5 26.5t34.5 89.5q0 54 -33 81
t-82 27q-55 0 -92 -30.5t-50 -86.5l-96 16q13 76 77.5 130t158.5 54z" />
    <glyph glyph-name="four.tf" 
d="M463 700v-463h106v-86h-106v-151h-98v151h-336v90l310 459h124zM365 591l-230 -354h230v354z" />
    <glyph glyph-name="five.tf" 
d="M513 700l-14 -84h-299l-24 -184q61 57 149 57q91 0 157 -65.5t66 -167.5q0 -124 -68.5 -199t-188.5 -75q-96 0 -158.5 49t-83.5 112l90 27q13 -44 54.5 -74t99.5 -30q72 0 112.5 50.5t40.5 130.5q0 75 -39 116.5t-105 41.5q-90 0 -143 -75l-87 12l49 358h392z" />
    <glyph glyph-name="six.tf" 
d="M324 716q153 0 209 -143l-89 -28q-35 88 -121 88q-152 0 -170 -274q30 53 80 79t101 26q94 0 154.5 -64.5t60.5 -173.5q0 -108 -66.5 -175t-172.5 -67q-108 0 -179.5 82t-71.5 246q0 194 72 299t193 105zM315 379q-61 0 -102 -43t-41 -111q0 -69 41 -113t98 -44
q58 0 97 42t39 116q0 68 -34.5 110.5t-97.5 42.5z" />
    <glyph glyph-name="seven.tf" 
d="M543 700v-87q-118 -138 -174.5 -278.5t-77.5 -334.5h-108q24 208 84 344.5t170 267.5h-283v-80h-88v168h477z" />
    <glyph glyph-name="eight.tf" 
d="M298 716q105 0 161.5 -56t56.5 -130q0 -97 -100 -145q136 -56 136 -188q0 -38 -13 -73t-40.5 -68t-79 -52.5t-121.5 -19.5q-126 0 -188.5 63t-62.5 148q0 62 33 107.5t90 67.5q-89 53 -89 160q0 74 56.5 130t160.5 56zM298 635q-53 0 -85 -28.5t-32 -77.5q0 -46 27 -73.5
t92 -40.5l35 -7q80 49 80 121q0 44 -30.5 75t-86.5 31zM281 334l-32 7q-99 -44 -99 -143q0 -56 39.5 -93t108.5 -37q78 0 114.5 40.5t36.5 92.5q0 27 -9 47t-22 33t-37.5 23.5t-45 16t-54.5 13.5z" />
    <glyph glyph-name="nine.tf" 
d="M299 716q112 0 178.5 -79.5t66.5 -248.5q0 -404 -263 -404q-74 0 -130 35t-88 99l86 40q44 -91 133 -91q152 0 161 264q-57 -89 -170 -89q-91 0 -152.5 63.5t-61.5 169.5q0 107 68 174t172 67zM299 632q-59 0 -98 -41.5t-39 -115.5q0 -64 34.5 -106t98.5 -42
q62 0 99.5 41.5t37.5 106.5q0 76 -36.5 116.5t-96.5 40.5z" />
    <glyph glyph-name="cent.tf" 
d="M456 169l79 -29q-54 -136 -200 -151v-138h-62v139q-101 11 -155.5 85t-54.5 186t55 185.5t155 85.5v136h62v-135q68 -7 118.5 -43t73.5 -92l-77 -32q-18 40 -45.5 62t-72.5 27v-387q87 11 124 101zM159 263q0 -177 118 -194v385q-118 -18 -118 -191z" />
    <glyph glyph-name="sterling.tf" 
d="M341 716q72 0 120.5 -40.5t69.5 -104.5l-95 -25q-12 46 -34.5 68t-63.5 22q-43 0 -70.5 -31.5t-27.5 -86.5v-151h194v-62h-194v-99q0 -45 -9 -73t-35 -50h309v-83h-410l-12 77q36 12 49.5 41.5t13.5 84.5v102h-79v62h79v156q0 81 50 137t145 56z" />
    <glyph glyph-name="yen.tf" 
d="M564 700l-192 -344h129v-62h-153v-71h153v-62h-153v-161h-97v161h-152v62h152v71h-152v62h128l-191 344h107l158 -315l159 315h104z" />
    <glyph glyph-name="uni0394.tf" 
d="M366 700l215 -700h-561l213 700h133zM151 88h292l-146 519z" />
    <glyph glyph-name="uni2007.tf" 
 />
    <glyph glyph-name="figuredash.tf" 
d="M560 358v-89h-520v89h520z" />
    <glyph glyph-name="Euro.tf" horiz-adv-x="584" 
d="M378 716q110 0 182 -73l-34 -87q-66 77 -147 77q-138 0 -165 -186h280l-20 -61h-266q-3 -41 0 -80h241l-21 -62h-215q16 -179 161 -179q87 0 154 69v-100q-72 -50 -157 -50q-221 0 -254 260h-92l21 62h66q-2 39 0 80h-80l20 61h66q20 134 90 201.5t170 67.5z" />
    <glyph glyph-name="dollar.lf" horiz-adv-x="684" 
d="M388 819v-118q149 -16 231 -122l-80 -55q-52 77 -154 91v-219q137 -29 189.5 -74.5t52.5 -126.5q0 -87 -61.5 -144.5t-177.5 -65.5v-134h-73v135q-170 12 -257 129l75 62q75 -93 185 -105v243q-225 46 -225 202q0 78 60.5 128t161.5 57v117h73zM317 409v208
q-58 -5 -89.5 -31t-31.5 -65q0 -45 23 -70t98 -42zM384 302v-231q65 6 100.5 37.5t35.5 81.5q0 40 -26 67t-110 45z" />
    <glyph glyph-name="zero.lf" horiz-adv-x="595" 
d="M298 -14q-123 0 -197.5 93.5t-74.5 262.5q0 171 74 262.5t198 91.5q122 0 196.5 -91.5t74.5 -262.5q0 -169 -74.5 -262.5t-196.5 -93.5zM298 70q77 0 122.5 72.5t45.5 199.5q0 132 -45 201t-123 69q-80 0 -125 -69t-45 -201q0 -127 46 -199.5t124 -72.5z" />
    <glyph glyph-name="one.lf" horiz-adv-x="463" 
d="M68 0v84h161v382h-166v77h27q83 0 117 35.5t46 105.5h76v-600h141v-84h-402z" />
    <glyph glyph-name="two.lf" horiz-adv-x="611" 
d="M310 696q104 0 163.5 -57.5t59.5 -145.5q0 -101 -85 -201t-250 -208h341v-84h-469v82q202 147 280.5 234t78.5 177q0 56 -32 87.5t-88 31.5q-66 0 -102 -37t-37 -110h-102q2 98 65 164.5t177 66.5z" />
    <glyph glyph-name="three.lf" horiz-adv-x="605" 
d="M302 696q109 0 168 -51t59 -137q0 -54 -35.5 -93.5t-91.5 -50.5q58 -8 103 -51.5t45 -111.5q0 -97 -71.5 -156t-181.5 -59q-102 0 -170 50.5t-89 139.5l99 22q13 -55 54.5 -91.5t105.5 -36.5q66 0 107.5 34t41.5 97q0 56 -36 88.5t-95 32.5h-80v75h68q50 0 87 25.5
t37 80.5q0 57 -36 84t-89 27q-58 0 -95.5 -30t-50.5 -80l-98 16q14 70 80 123t164 53z" />
    <glyph glyph-name="four.lf" horiz-adv-x="635" 
d="M481 684v-447h111v-86h-111v-151h-98v151h-347v90l321 443h124zM383 580l-245 -343h245v343z" />
    <glyph glyph-name="five.lf" horiz-adv-x="612" 
d="M295 -14q-96 0 -158.5 49t-83.5 112l90 27q13 -44 55 -74.5t99 -30.5q71 0 112 48.5t41 119.5q0 75 -39 116.5t-105 41.5q-90 0 -143 -75l-87 12l48 352h392l-14 -84h-299l-23 -178q61 57 149 57q91 0 157 -65.5t66 -167.5q0 -114 -69 -187t-188 -73z" />
    <glyph glyph-name="six.lf" horiz-adv-x="572" 
d="M299 696q152 0 212 -142l-89 -29q-35 91 -122 91q-73 0 -116 -68.5t-50 -187.5q61 94 171 94q98 0 160 -63.5t62 -169.5q0 -103 -67.5 -169t-171.5 -66q-113 0 -183 80.5t-70 245.5q0 180 72 282t192 102zM286 371q-64 0 -103 -42.5t-39 -108.5q0 -67 40 -109.5
t102 -42.5q63 0 101.5 41t38.5 112q0 65 -37 107.5t-103 42.5z" />
    <glyph glyph-name="seven.lf" horiz-adv-x="512" 
d="M486 684v-87q-124 -133 -178 -265.5t-74 -331.5h-108q24 213 81.5 343t173.5 253h-270v-80h-88v168h463z" />
    <glyph glyph-name="eight.lf" horiz-adv-x="578" 
d="M287 696q109 0 167 -54.5t58 -128.5q0 -55 -28 -86t-80 -54q66 -24 105 -70t39 -106q0 -29 -7.5 -57t-26.5 -56.5t-47.5 -49.5t-75 -34.5t-104.5 -13.5q-67 0 -119 18.5t-81 50t-43.5 67t-14.5 73.5q0 55 35 99.5t94 66.5q-52 27 -74 63.5t-22 88.5q0 74 58 128.5
t167 54.5zM287 617q-56 0 -91 -28.5t-35 -76.5q0 -42 29.5 -65t100.5 -43l34 -9q90 51 90 117q0 43 -33.5 74t-94.5 31zM268 326l-26 8q-113 -45 -113 -136q0 -54 42.5 -92t115.5 -38q84 0 122.5 41t38.5 92q0 13 -2.5 24.5t-9 20.5t-12.5 16.5t-18.5 14.5t-21 11t-26 10
t-27.5 9t-31.5 9.5t-31.5 9.5z" />
    <glyph glyph-name="nine.lf" horiz-adv-x="607" 
d="M295 718q113 0 182.5 -79.5t69.5 -249.5q0 -204 -69 -305.5t-200 -101.5q-159 0 -226 133l84 39q50 -89 143 -89q56 0 94 38t54 95.5t19 133.5q-59 -90 -172 -90q-95 0 -159.5 66t-64.5 171q0 107 69 173t176 66zM297 633q-63 0 -104 -40t-41 -114q0 -64 37 -108t104 -44
q63 0 102 44t39 108q0 75 -38 114.5t-99 39.5z" />
    <glyph glyph-name="cent.lf" horiz-adv-x="624" 
d="M468 169l79 -29q-54 -136 -200 -151v-138h-62v139q-101 11 -155.5 85t-54.5 186t55 185.5t155 85.5v136h62v-135q68 -7 118.5 -43t73.5 -92l-77 -32q-18 40 -45.5 62t-72.5 27v-387q87 11 124 101zM171 263q0 -177 118 -194v385q-118 -18 -118 -191z" />
    <glyph glyph-name="sterling.lf" horiz-adv-x="684" 
d="M383 716q77 0 129 -41t74 -104l-96 -28q-13 46 -39 68t-72 22q-48 0 -79.5 -30.5t-31.5 -84.5v-152h214v-61h-214v-99q0 -45 -9.5 -71t-37.5 -48h336v-87h-438l-12 77q40 16 53.5 43.5t13.5 82.5v102h-85v61h85v157q0 81 53.5 137t155.5 56z" />
    <glyph glyph-name="yen.lf" horiz-adv-x="681" 
d="M629 700l-207 -344h130v-62h-165v-71h165v-62h-165v-161h-102v161h-165v62h165v71h-165v62h130l-207 344h116l179 -315l178 315h113z" />
    <glyph glyph-name="uni0394.lf" horiz-adv-x="625" 
d="M359 680l233 -680h-600l234 680h133zM126 88h326l-163 511z" />
    <glyph glyph-name="figuredash.lf" 
d="M560 358v-89h-520v89h520z" />
    <glyph glyph-name="Euro.lf" horiz-adv-x="684" 
d="M414 716q117 0 194 -73l-34 -93q-71 78 -161 78q-149 0 -181 -181h306l-22 -61h-292q-3 -41 0 -80h263l-22 -62h-234q10 -86 50.5 -129t125.5 -43q94 0 168 69v-107q-77 -50 -168 -50q-237 0 -273 260h-100l22 62h73q-2 39 0 80h-88l21 61h73q21 134 96 201.5t183 67.5z
" />
    <glyph glyph-name="dollar.tosf" 
d="M345 834v-118q117 -18 182 -113l-63 -50q-17 27 -49.5 51.5t-72.5 32.5v-241q106 -29 149 -73t43 -128q0 -86 -50 -143t-139 -67v-134h-73v135q-141 14 -209 121l74 53q54 -83 138 -96v264q-181 49 -181 195q0 82 47.5 133.5t130.5 60.5v117h73zM274 413v226
q-41 -6 -65.5 -36.5t-24.5 -75.5q0 -43 19 -69.5t71 -44.5zM343 312v-249q46 7 72.5 42t26.5 85q0 43 -20.5 73t-78.5 49z" />
    <glyph glyph-name="zero.tosf" 
d="M300 592q116 0 188 -82.5t72 -223.5q0 -137 -72 -217.5t-188 -80.5q-117 0 -189 80.5t-72 217.5q0 141 72 223.5t189 82.5zM300 508q-73 0 -115.5 -58.5t-42.5 -164.5q0 -99 42.5 -156.5t115.5 -57.5t115.5 56.5t42.5 157.5q0 105 -42.5 164t-115.5 59z" />
    <glyph glyph-name="one.tosf" 
d="M121 0v84h161v272h-166v77h27q83 0 117 35.5t46 105.5h76v-490h141v-84h-402z" />
    <glyph glyph-name="two.tosf" 
d="M304 586q100 0 158 -51.5t58 -130.5q0 -90 -64.5 -158.5t-235.5 -161.5h308v-84h-456v82q211 130 277 190t66 126q0 50 -30.5 77.5t-80.5 27.5q-61 0 -96 -36.5t-35 -90.5h-102q3 85 64 147.5t169 62.5z" />
    <glyph glyph-name="three.tosf" 
d="M308 592q107 0 164 -51t57 -135q0 -62 -34 -102.5t-88 -52.5q57 -8 100 -54.5t43 -120.5q0 -102 -70 -162t-176 -60q-95 0 -164.5 51t-90.5 141l96 22q12 -59 53 -94.5t106 -35.5q64 0 103.5 35t39.5 105q0 61 -35 95t-94 34h-80v75h67q51 0 86.5 27t35.5 92
q0 54 -34.5 81.5t-86.5 27.5q-56 0 -94 -30t-51 -86l-95 17q13 76 78.5 128.5t163.5 52.5z" />
    <glyph glyph-name="four.tosf" 
d="M457 574v-490h112v-84h-112v-130h-98v130h-329v88l304 486h123zM359 458l-226 -374h226v374z" />
    <glyph glyph-name="five.tosf" 
d="M518 574l-14 -85h-299l-24 -183q61 57 149 57q91 0 157 -65.5t66 -167.5q0 -125 -68.5 -200.5t-188.5 -75.5q-96 0 -158.5 49t-83.5 112l90 27q13 -44 55 -74.5t99 -30.5q72 0 112.5 51t40.5 133q0 75 -39 116.5t-105 41.5q-91 0 -143 -75l-87 12l49 358h392z" />
    <glyph glyph-name="six.tosf" 
d="M312 696q152 0 212 -142l-89 -29q-35 91 -122 91q-73 0 -116 -68.5t-50 -187.5q61 94 171 94q98 0 160 -63.5t62 -169.5q0 -103 -67.5 -169t-171.5 -66q-113 0 -183 80.5t-70 245.5q0 180 72 282t192 102zM299 371q-64 0 -103 -42.5t-39 -108.5q0 -67 40 -109.5
t102 -42.5q63 0 101.5 41t38.5 112q0 65 -37 107.5t-103 42.5z" />
    <glyph glyph-name="seven.tosf" 
d="M543 574v-85q-125 -148 -189.5 -288t-85.5 -331h-106q21 202 91.5 340t195.5 278h-290v-80h-88v166h472z" />
    <glyph glyph-name="eight.tosf" 
d="M298 696q102 0 156.5 -52.5t54.5 -125.5q0 -103 -107 -151q142 -47 142 -176q0 -37 -12.5 -71t-39 -65.5t-76.5 -50t-118 -18.5q-63 0 -111.5 18t-76 48t-41.5 63.5t-14 69.5q0 60 36.5 108t96.5 69q-100 54 -100 153q0 73 54 127t156 54zM298 617q-50 0 -80.5 -27.5
t-30.5 -75.5q0 -44 27 -71t87 -43l30 -8q79 51 79 125q0 42 -29.5 71t-82.5 29zM283 322l-26 8q-101 -43 -101 -144q0 -49 39 -83.5t103 -34.5q74 0 109 37.5t35 85.5q0 30 -9.5 50.5t-34.5 35.5t-47 23t-68 22z" />
    <glyph glyph-name="nine.tosf" 
d="M297 592q113 0 182.5 -79.5t69.5 -249.5q0 -409 -269 -409q-159 0 -226 133l85 37q48 -88 142 -88q83 0 125 76t46 195q-30 -47 -77.5 -70.5t-98.5 -23.5q-95 0 -159.5 67t-64.5 172q0 108 69 174t176 66zM299 507q-63 0 -104 -40.5t-41 -114.5q0 -64 36.5 -109
t104.5 -45q62 0 101.5 44.5t39.5 109.5q0 75 -38 115t-99 40z" />
    <glyph glyph-name="cent.tosf" 
d="M456 169l79 -29q-54 -136 -200 -151v-138h-62v139q-101 11 -155.5 85t-54.5 186t55 185.5t155 85.5v136h62v-135q68 -7 118.5 -43t73.5 -92l-77 -32q-18 40 -45.5 62t-72.5 27v-387q87 11 124 101zM159 263q0 -177 118 -194v385q-118 -18 -118 -191z" />
    <glyph glyph-name="sterling.tosf" 
d="M341 716q72 0 120.5 -40.5t69.5 -104.5l-95 -25q-12 46 -34.5 68t-63.5 22q-43 0 -70.5 -31.5t-27.5 -86.5v-151h194v-62h-194v-99q0 -45 -9 -73t-35 -50h309v-83h-410l-12 77q36 12 49.5 41.5t13.5 84.5v102h-79v62h79v156q0 81 50 137t145 56z" />
    <glyph glyph-name="yen.tosf" 
d="M564 700l-192 -344h129v-62h-153v-71h153v-62h-153v-161h-97v161h-152v62h152v71h-152v62h128l-191 344h107l158 -315l159 315h104z" />
    <glyph glyph-name="uni0394.tosf" 
d="M366 680l215 -680h-561l213 680h133zM152 88h290l-145 502z" />
    <glyph glyph-name="uni2007.tosf" 
 />
    <glyph glyph-name="figuredash.tosf" 
d="M560 318v-89h-520v89h520z" />
    <glyph glyph-name="Euro.tosf" 
d="M386 716q110 0 182 -73l-34 -87q-66 77 -147 77q-138 0 -165 -186h280l-20 -61h-266q-3 -41 0 -80h241l-21 -62h-215q16 -179 161 -179q87 0 154 69v-100q-72 -50 -157 -50q-221 0 -254 260h-92l21 62h66q-2 39 0 80h-80l20 61h66q20 134 90 201.5t170 67.5z" />
    <glyph glyph-name="numbersign.sc" 
d="M536 346h-88l-16 -118h76v-74h-87l-22 -154h-86l22 154h-110l-22 -154h-85l22 154h-78v74h89l17 118h-78v74h89l22 154h85l-22 -154h110l22 154h85l-22 -154h77v-74zM346 228l17 118h-110l-17 -118h110z" />
    <glyph glyph-name="dollar.sc" horiz-adv-x="598" 
d="M343 699v-115q131 -16 208 -121l-74 -54q-50 78 -137 90v-165q124 -29 170 -67t46 -108q0 -69 -55 -118t-158 -56v-132h-65v132q-156 12 -237 126l70 61q70 -94 170 -104v188q-112 23 -160 62t-48 105q0 69 55.5 113.5t149.5 48.5v114h65zM281 347v154q-109 -5 -109 -73
q0 -29 19.5 -46t89.5 -35zM340 244v-176q58 4 87 28t29 60q0 34 -21.5 52.5t-94.5 35.5z" />
    <glyph glyph-name="percent.sc" horiz-adv-x="1012" 
d="M227 586q73 0 127 -54t54 -144t-54 -144t-127 -54t-127 54t-54 144t54 144t127 54zM726 586l-352 -596h-86l355 596h83zM226 517q-46 0 -71 -35t-25 -95q0 -59 25 -93.5t71 -34.5q47 0 72 34.5t25 93.5q0 61 -25 95.5t-72 34.5zM786 384q73 0 127 -54t54 -144t-54 -144
t-127 -54t-127 54t-54 144t54 144t127 54zM785 315q-46 0 -71 -35t-25 -95q0 -59 25 -93.5t71 -34.5q47 0 72 34.5t25 93.5q0 61 -25 95.5t-72 34.5z" />
    <glyph glyph-name="a.sc" horiz-adv-x="563" 
d="M442 0l-33 99h-261l-33 -99h-103l205 574h129l204 -574h-108zM278 502l-104 -323h209z" />
    <glyph glyph-name="b.sc" horiz-adv-x="579" 
d="M427 311q57 -13 88 -50.5t31 -93.5q0 -76 -57 -121.5t-168 -45.5h-239v574h206q225 0 225 -151q0 -41 -24.5 -71t-61.5 -41zM304 488h-122v-144h138q94 0 94 75q0 36 -26 52.5t-84 16.5zM182 86h152q52 0 81 22t29 63q0 93 -112 93h-150v-178z" />
    <glyph glyph-name="c.sc" horiz-adv-x="647" 
d="M334 587q82 0 151 -39.5t104 -128.5l-97 -26q-43 107 -159 107q-83 0 -131 -56.5t-48 -155.5q0 -100 45.5 -157.5t133.5 -57.5q127 0 171 123l97 -29q-34 -89 -106.5 -134.5t-161.5 -45.5q-50 0 -97 15.5t-89.5 48t-68.5 94t-26 143.5q0 78 24 137.5t65 93.5t89.5 51
t103.5 17z" />
    <glyph glyph-name="d.sc" horiz-adv-x="627" 
d="M82 574h190q134 0 218 -70.5t84 -208.5q0 -81 -24.5 -141t-66.5 -92t-88.5 -47t-98.5 -15h-214v574zM276 487h-96v-400h116q35 0 64 9t56 31t42 64.5t15 102.5q0 88 -47 140.5t-150 52.5z" />
    <glyph glyph-name="e.sc" horiz-adv-x="528" 
d="M469 574v-86h-289v-153h271v-85h-271v-164h296v-86h-394v574h387z" />
    <glyph glyph-name="f.sc" horiz-adv-x="499" 
d="M459 574v-86h-279v-165h258v-85h-258v-238h-98v574h377z" />
    <glyph glyph-name="g.sc" horiz-adv-x="663" 
d="M334 587q81 0 148 -37t101 -112l-93 -34q-20 45 -60 71.5t-97 26.5q-88 0 -134 -58t-46 -160q0 -100 45.5 -156.5t134.5 -56.5q72 0 117 38t45 104v15h-151v83h250v-311h-99v58q-65 -71 -169 -71q-50 0 -95.5 15.5t-87 47.5t-66.5 92.5t-25 140.5q0 78 24 138.5t65 95.5
t89.5 52.5t103.5 17.5z" />
    <glyph glyph-name="h.sc" horiz-adv-x="644" 
d="M562 574v-574h-99v255h-282v-255h-99v574h99v-233h282v233h99z" />
    <glyph glyph-name="i.sc" horiz-adv-x="309" 
d="M270 574v-85h-66v-405h66v-84h-230v84h66v405h-66v85h230z" />
    <glyph glyph-name="j.sc" horiz-adv-x="365" 
d="M294 574v-402q0 -86 -40 -131.5t-138 -45.5q-39 0 -89 5v83q16 -1 50 -1q71 0 95 19.5t24 77.5v395h98z" />
    <glyph glyph-name="k.sc" horiz-adv-x="598" 
d="M468 0l-196 270l-92 -98v-172h-98v574h98v-279l256 279h120l-219 -236l248 -338h-117z" />
    <glyph glyph-name="l.sc" horiz-adv-x="482" 
d="M180 574v-485h274v-89h-372v574h98z" />
    <glyph glyph-name="m.sc" horiz-adv-x="737" 
d="M637 574l41 -574h-94l-35 460l-127 -460h-113l-129 459l-34 -459h-92l42 574h146l125 -464l124 464h146z" />
    <glyph glyph-name="n.sc" horiz-adv-x="636" 
d="M554 574v-574h-101l-276 409v-409h-95v574h98l279 -422v422h95z" />
    <glyph glyph-name="o.sc" horiz-adv-x="677" 
d="M338 587q50 0 97.5 -15.5t91.5 -48.5t70.5 -94t26.5 -143q0 -78 -25 -137.5t-67 -93.5t-91 -51t-103 -17q-51 0 -98 15.5t-91 48t-70.5 94t-26.5 143.5q0 78 24.5 137.5t66.5 93.5t91 51t104 17zM339 500q-85 0 -135 -56.5t-50 -155.5t48 -157t137 -58q82 0 133 57
t51 155q0 100 -47.5 157.5t-136.5 57.5z" />
    <glyph glyph-name="p.sc" horiz-adv-x="561" 
d="M82 574h223q110 0 164.5 -53.5t54.5 -129.5q0 -84 -55 -135.5t-162 -51.5h-126v-204h-99v574zM181 287h133q48 0 78.5 25t30.5 79q0 44 -28.5 70.5t-79.5 26.5h-134v-201z" />
    <glyph glyph-name="q.sc" horiz-adv-x="676" 
d="M338 587q50 0 97.5 -15.5t91 -48.5t70 -94t26.5 -143q0 -150 -96 -231q41 -29 126 -44l-40 -97q-95 26 -159 95q-54 -22 -116 -22q-51 0 -98.5 15.5t-91 48t-70 94t-26.5 143.5q0 78 24.5 137.5t66.5 93.5t91 51t104 17zM338 500q-85 0 -135 -56.5t-50 -155.5t48 -157
t137 -58q82 0 133 57t51 155q0 100 -47.5 157.5t-136.5 57.5z" />
    <glyph glyph-name="r.sc" horiz-adv-x="577" 
d="M82 574h216q111 0 166.5 -49.5t55.5 -121.5q0 -124 -129 -161l163 -242h-115l-151 229h-107v-229h-99v574zM310 488h-129v-176h127q110 0 110 90q0 42 -28 64t-80 22z" />
    <glyph glyph-name="s.sc" horiz-adv-x="582" 
d="M283 587q156 0 250 -109l-81 -52q-53 76 -169 76q-57 0 -89 -20t-32 -56q0 -34 32 -52t131 -34q110 -18 160 -60.5t50 -116.5q0 -78 -63 -127t-181 -49q-169 0 -264 113l76 58q75 -87 190 -87q60 0 100 24t40 64t-34.5 61.5t-137.5 37.5q-200 30 -200 165q0 74 61 119
t161 45z" />
    <glyph glyph-name="t.sc" horiz-adv-x="517" 
d="M485 574v-86h-178v-488h-98v488h-177v86h453z" />
    <glyph glyph-name="u.sc" horiz-adv-x="611" 
d="M539 574v-366q0 -42 -11.5 -78.5t-37 -70t-73.5 -53t-113 -19.5q-54 0 -95.5 13.5t-66.5 35t-41.5 51.5t-22.5 59t-6 62v366h98v-364q0 -137 135 -137q136 0 136 137v364h98z" />
    <glyph glyph-name="v.sc" horiz-adv-x="523" 
d="M510 574l-188 -574h-122l-188 574h108l144 -480l145 480h101z" />
    <glyph glyph-name="w.sc" horiz-adv-x="748" 
d="M730 574l-134 -574h-112l-106 440l-98 -440h-118l-145 574h102l102 -463l103 463h110l106 -460l92 460h98z" />
    <glyph glyph-name="x.sc" horiz-adv-x="581" 
d="M348 313l221 -313h-124l-160 236l-155 -236h-118l214 305l-186 269h119l128 -193l125 193h115z" />
    <glyph glyph-name="y.sc" horiz-adv-x="553" 
d="M541 574l-215 -344v-230h-98v228l-215 346h113l153 -254l152 254h110z" />
    <glyph glyph-name="z.sc" horiz-adv-x="540" 
d="M497 574v-80l-334 -406h339v-88h-470v76l336 412h-311v86h440z" />
    <glyph glyph-name="cent.sc" 
d="M465 196l94 -29q-28 -78 -86.5 -123t-132.5 -54v-139h-76v138q-44 6 -82 24.5t-71.5 52t-52.5 91t-19 131.5q0 138 63 211.5t162 85.5v133h76v-133q154 -21 208 -166l-95 -26q-33 93 -117 109v-430q97 16 129 124zM141 288q0 -90 32 -147t95 -69v430q-61 -13 -94 -69
t-33 -145z" />
    <glyph glyph-name="sterling.sc" 
d="M344 586q76 0 127 -40t72 -101l-94 -28q-13 44 -38.5 66t-70.5 22q-47 0 -76.5 -29.5t-29.5 -82.5v-74h207v-60h-207v-57q0 -43 -10 -69t-38 -48h329v-85h-429l-11 75q39 16 52 42.5t13 81.5v60h-83v60h83v79q0 78 52.5 133t151.5 55z" />
    <glyph glyph-name="yen.sc" horiz-adv-x="598" 
d="M567 574l-189 -293h133v-60h-162v-50h162v-60h-162v-111h-100v111h-162v60h162v50h-162v60h133l-189 293h114l156 -283l155 283h111z" />
    <glyph glyph-name="section.sc" horiz-adv-x="620" 
d="M336 586q125 0 205 -78l-62 -58q-58 55 -145 55q-96 0 -96 -52q0 -29 24 -42t100 -27q98 -17 145.5 -52.5t47.5 -102.5q0 -36 -20.5 -64.5t-67.5 -63.5q57 -38 57 -102q0 -62 -55.5 -101.5t-144.5 -39.5q-129 0 -210 78l63 58q59 -56 149 -56q100 0 100 53q0 28 -24.5 42
t-99.5 27q-98 17 -145.5 52.5t-47.5 101.5q0 36 19.5 64.5t66.5 64.5q-55 38 -55 102q0 63 53.5 102t142.5 39zM260 314q-32 -33 -42.5 -51t-10.5 -40q0 -32 31 -49t115 -34q8 -2 25 -5.5t26 -4.5q32 32 42.5 50t10.5 41q0 32 -31.5 49t-114.5 34q-9 2 -26 5t-25 5z" />
    <glyph glyph-name="degree.sc" horiz-adv-x="498" 
d="M249 652q76 0 131.5 -49t55.5 -131t-55.5 -130.5t-131.5 -48.5q-74 0 -130.5 49.5t-56.5 130.5t56 130t131 49zM250 577q-38 0 -66.5 -26.5t-28.5 -77.5t28.5 -78t66.5 -27q39 0 67.5 26.5t28.5 77.5t-29 78t-67 27z" />
    <glyph glyph-name="germandbls.sc" horiz-adv-x="1180" 
d="M283 587q156 0 250 -109l-81 -52q-53 76 -169 76q-57 0 -89 -20t-32 -56q0 -34 32 -52t131 -34q110 -18 160 -60.5t50 -116.5q0 -78 -63 -127t-181 -49q-169 0 -264 113l76 58q75 -87 190 -87q60 0 100 24t40 64t-34.5 61.5t-137.5 37.5q-200 30 -200 165q0 74 61 119
t161 45zM881 587q156 0 250 -109l-81 -52q-53 76 -169 76q-57 0 -89 -20t-32 -56q0 -34 32 -52t131 -34q110 -18 160 -60.5t50 -116.5q0 -78 -63 -127t-181 -49q-169 0 -264 113l76 58q75 -87 190 -87q60 0 100 24t40 64t-34.5 61.5t-137.5 37.5q-200 30 -200 165
q0 74 61 119t161 45z" />
    <glyph glyph-name="agrave.sc" horiz-adv-x="563" 
d="M442 0l-33 99h-261l-33 -99h-103l205 574h129l204 -574h-108zM278 502l-104 -323h209zM241 783l91 -138h-88l-135 138h132z" />
    <glyph glyph-name="aacute.sc" horiz-adv-x="563" 
d="M442 0l-33 99h-261l-33 -99h-103l205 574h129l204 -574h-108zM278 502l-104 -323h209zM453 783l-136 -138h-87l90 138h133z" />
    <glyph glyph-name="acircumflex.sc" horiz-adv-x="563" 
d="M442 0l-33 99h-261l-33 -99h-103l205 574h129l204 -574h-108zM278 502l-104 -323h209zM330 783l135 -138h-96l-88 76l-88 -76h-96l135 138h98z" />
    <glyph glyph-name="atilde.sc" horiz-adv-x="563" 
d="M442 0l-33 99h-261l-33 -99h-103l205 574h129l204 -574h-108zM278 502l-104 -323h209zM221 769q30 0 55 -13t42 -26t28 -13q29 0 45 41h59q-6 -49 -35 -80.5t-74 -31.5q-40 0 -77.5 26t-48.5 26q-30 0 -45 -40h-58q6 48 35 79.5t74 31.5z" />
    <glyph glyph-name="adieresis.sc" horiz-adv-x="563" 
d="M442 0l-33 99h-261l-33 -99h-103l205 574h129l204 -574h-108zM278 502l-104 -323h209zM174 771q25 0 44 -18.5t19 -43.5t-19 -43.5t-44 -18.5t-44 18.5t-19 43.5t19 43.5t44 18.5zM388 771q25 0 44 -18.5t19 -43.5t-19 -43.5t-44 -18.5t-44 18.5t-19 43.5t19 43.5
t44 18.5z" />
    <glyph glyph-name="aring.sc" horiz-adv-x="563" 
d="M442 0l-33 99h-261l-33 -99h-103l205 574h129l204 -574h-108zM278 502l-104 -323h209zM281 863q49 0 84 -32t35 -82t-35 -82t-84 -32t-84 32t-35 82t35 82t84 32zM281 806q-22 0 -37.5 -15.5t-15.5 -41.5t15.5 -41.5t37.5 -15.5q23 0 38 15.5t15 41.5t-15 41.5t-38 15.5z
" />
    <glyph glyph-name="ae.sc" horiz-adv-x="843" 
d="M766 574v-86h-316l27 -153h276v-85h-260l29 -164h289v-86h-374l-16 97h-262l-50 -97h-106l313 574h450zM357 481l-155 -299h205z" />
    <glyph glyph-name="ccedilla.sc" horiz-adv-x="647" 
d="M334 587q82 0 151 -39.5t104 -128.5l-97 -26q-43 107 -159 107q-83 0 -131 -56.5t-48 -155.5q0 -100 45.5 -157.5t133.5 -57.5q127 0 171 123l97 -29q-32 -85 -101 -130.5t-154 -48.5v-34q47 -4 75.5 -29t28.5 -56q0 -47 -34.5 -73t-87.5 -26q-64 0 -109 26l28 51
q30 -16 66 -16q57 0 57 38q0 41 -104 41l15 81q-97 16 -163 88t-66 209q0 78 24 137.5t65 93.5t89.5 51t103.5 17z" />
    <glyph glyph-name="egrave.sc" horiz-adv-x="528" 
d="M469 574v-86h-289v-153h271v-85h-271v-164h296v-86h-394v574h387zM236 783l91 -138h-88l-135 138h132z" />
    <glyph glyph-name="eacute.sc" horiz-adv-x="528" 
d="M469 574v-86h-289v-153h271v-85h-271v-164h296v-86h-394v574h387zM448 783l-136 -138h-87l90 138h133z" />
    <glyph glyph-name="ecircumflex.sc" horiz-adv-x="528" 
d="M469 574v-86h-289v-153h271v-85h-271v-164h296v-86h-394v574h387zM325 783l135 -138h-96l-88 76l-88 -76h-96l135 138h98z" />
    <glyph glyph-name="edieresis.sc" horiz-adv-x="528" 
d="M469 574v-86h-289v-153h271v-85h-271v-164h296v-86h-394v574h387zM169 771q25 0 44 -18.5t19 -43.5t-19 -43.5t-44 -18.5t-44 18.5t-19 43.5t19 43.5t44 18.5zM383 771q25 0 44 -18.5t19 -43.5t-19 -43.5t-44 -18.5t-44 18.5t-19 43.5t19 43.5t44 18.5z" />
    <glyph glyph-name="igrave.sc" horiz-adv-x="309" 
d="M270 574v-85h-66v-405h66v-84h-230v84h66v405h-66v85h230zM115 783l91 -138h-88l-135 138h132z" />
    <glyph glyph-name="iacute.sc" horiz-adv-x="309" 
d="M270 574v-85h-66v-405h66v-84h-230v84h66v405h-66v85h230zM327 783l-136 -138h-87l90 138h133z" />
    <glyph glyph-name="icircumflex.sc" horiz-adv-x="309" 
d="M270 574v-85h-66v-405h66v-84h-230v84h66v405h-66v85h230zM204 783l135 -138h-96l-88 76l-88 -76h-96l135 138h98z" />
    <glyph glyph-name="idieresis.sc" horiz-adv-x="309" 
d="M270 574v-85h-66v-405h66v-84h-230v84h66v405h-66v85h230zM48 771q25 0 44 -18.5t19 -43.5t-19 -43.5t-44 -18.5t-44 18.5t-19 43.5t19 43.5t44 18.5zM262 771q25 0 44 -18.5t19 -43.5t-19 -43.5t-44 -18.5t-44 18.5t-19 43.5t19 43.5t44 18.5z" />
    <glyph glyph-name="eth.sc" horiz-adv-x="637" 
d="M92 574h190q134 0 218 -70.5t84 -208.5q0 -81 -24.5 -141t-66.5 -92t-88.5 -47t-98.5 -15h-214v268h-79v68h79v238zM190 87h116q35 0 64 9t56 31t42 64.5t15 102.5q0 88 -47 140.5t-150 52.5h-96v-151h184v-68h-184v-181z" />
    <glyph glyph-name="ntilde.sc" horiz-adv-x="636" 
d="M554 574v-574h-101l-276 409v-409h-95v574h98l279 -422v422h95zM259 769q30 0 55 -13t42 -26t28 -13q29 0 45 41h59q-6 -49 -35 -80.5t-74 -31.5q-40 0 -77.5 26t-48.5 26q-30 0 -45 -40h-58q6 48 35 79.5t74 31.5z" />
    <glyph glyph-name="ograve.sc" horiz-adv-x="677" 
d="M338 587q50 0 97.5 -15.5t91.5 -48.5t70.5 -94t26.5 -143q0 -78 -25 -137.5t-67 -93.5t-91 -51t-103 -17q-51 0 -98 15.5t-91 48t-70.5 94t-26.5 143.5q0 78 24.5 137.5t66.5 93.5t91 51t104 17zM339 500q-85 0 -135 -56.5t-50 -155.5t48 -157t137 -58q82 0 133 57
t51 155q0 100 -47.5 157.5t-136.5 57.5zM299 783l91 -138h-88l-135 138h132z" />
    <glyph glyph-name="oacute.sc" horiz-adv-x="677" 
d="M338 587q50 0 97.5 -15.5t91.5 -48.5t70.5 -94t26.5 -143q0 -78 -25 -137.5t-67 -93.5t-91 -51t-103 -17q-51 0 -98 15.5t-91 48t-70.5 94t-26.5 143.5q0 78 24.5 137.5t66.5 93.5t91 51t104 17zM339 500q-85 0 -135 -56.5t-50 -155.5t48 -157t137 -58q82 0 133 57
t51 155q0 100 -47.5 157.5t-136.5 57.5zM511 783l-136 -138h-87l90 138h133z" />
    <glyph glyph-name="ocircumflex.sc" horiz-adv-x="677" 
d="M338 587q50 0 97.5 -15.5t91.5 -48.5t70.5 -94t26.5 -143q0 -78 -25 -137.5t-67 -93.5t-91 -51t-103 -17q-51 0 -98 15.5t-91 48t-70.5 94t-26.5 143.5q0 78 24.5 137.5t66.5 93.5t91 51t104 17zM339 500q-85 0 -135 -56.5t-50 -155.5t48 -157t137 -58q82 0 133 57
t51 155q0 100 -47.5 157.5t-136.5 57.5zM388 783l135 -138h-96l-88 76l-88 -76h-96l135 138h98z" />
    <glyph glyph-name="otilde.sc" horiz-adv-x="677" 
d="M338 587q50 0 97.5 -15.5t91.5 -48.5t70.5 -94t26.5 -143q0 -78 -25 -137.5t-67 -93.5t-91 -51t-103 -17q-51 0 -98 15.5t-91 48t-70.5 94t-26.5 143.5q0 78 24.5 137.5t66.5 93.5t91 51t104 17zM339 500q-85 0 -135 -56.5t-50 -155.5t48 -157t137 -58q82 0 133 57
t51 155q0 100 -47.5 157.5t-136.5 57.5zM279 769q30 0 55 -13t42 -26t28 -13q29 0 45 41h59q-6 -49 -35 -80.5t-74 -31.5q-40 0 -77.5 26t-48.5 26q-30 0 -45 -40h-58q6 48 35 79.5t74 31.5z" />
    <glyph glyph-name="odieresis.sc" horiz-adv-x="677" 
d="M338 587q50 0 97.5 -15.5t91.5 -48.5t70.5 -94t26.5 -143q0 -78 -25 -137.5t-67 -93.5t-91 -51t-103 -17q-51 0 -98 15.5t-91 48t-70.5 94t-26.5 143.5q0 78 24.5 137.5t66.5 93.5t91 51t104 17zM339 500q-85 0 -135 -56.5t-50 -155.5t48 -157t137 -58q82 0 133 57
t51 155q0 100 -47.5 157.5t-136.5 57.5zM232 771q25 0 44 -18.5t19 -43.5t-19 -43.5t-44 -18.5t-44 18.5t-19 43.5t19 43.5t44 18.5zM446 771q25 0 44 -18.5t19 -43.5t-19 -43.5t-44 -18.5t-44 18.5t-19 43.5t19 43.5t44 18.5z" />
    <glyph glyph-name="oslash.sc" horiz-adv-x="677" 
d="M620 669l-92 -148q96 -79 96 -235q0 -78 -25 -137.5t-67 -93.5t-91 -51t-103 -17q-71 0 -131 28l-65 -105h-86l91 143q-95 79 -95 235q0 78 24.5 137.5t66.5 93.5t91 51t104 17q70 0 130 -28l69 110h83zM339 500q-85 0 -135 -56.5t-50 -155.5q0 -102 45 -159l225 355
q-35 16 -85 16zM478 444l-225 -354q37 -17 86 -17q83 0 134 57t51 155q0 104 -46 159z" />
    <glyph glyph-name="ugrave.sc" horiz-adv-x="611" 
d="M539 574v-366q0 -42 -11.5 -78.5t-37 -70t-73.5 -53t-113 -19.5q-54 0 -95.5 13.5t-66.5 35t-41.5 51.5t-22.5 59t-6 62v366h98v-364q0 -137 135 -137q136 0 136 137v364h98zM266 783l91 -138h-88l-135 138h132z" />
    <glyph glyph-name="uacute.sc" horiz-adv-x="611" 
d="M539 574v-366q0 -42 -11.5 -78.5t-37 -70t-73.5 -53t-113 -19.5q-54 0 -95.5 13.5t-66.5 35t-41.5 51.5t-22.5 59t-6 62v366h98v-364q0 -137 135 -137q136 0 136 137v364h98zM478 783l-136 -138h-87l90 138h133z" />
    <glyph glyph-name="ucircumflex.sc" horiz-adv-x="611" 
d="M539 574v-366q0 -42 -11.5 -78.5t-37 -70t-73.5 -53t-113 -19.5q-54 0 -95.5 13.5t-66.5 35t-41.5 51.5t-22.5 59t-6 62v366h98v-364q0 -137 135 -137q136 0 136 137v364h98zM355 783l135 -138h-96l-88 76l-88 -76h-96l135 138h98z" />
    <glyph glyph-name="udieresis.sc" horiz-adv-x="611" 
d="M539 574v-366q0 -42 -11.5 -78.5t-37 -70t-73.5 -53t-113 -19.5q-54 0 -95.5 13.5t-66.5 35t-41.5 51.5t-22.5 59t-6 62v366h98v-364q0 -137 135 -137q136 0 136 137v364h98zM199 771q25 0 44 -18.5t19 -43.5t-19 -43.5t-44 -18.5t-44 18.5t-19 43.5t19 43.5t44 18.5z
M413 771q25 0 44 -18.5t19 -43.5t-19 -43.5t-44 -18.5t-44 18.5t-19 43.5t19 43.5t44 18.5z" />
    <glyph glyph-name="yacute.sc" horiz-adv-x="553" 
d="M541 574l-215 -344v-230h-98v228l-215 346h113l153 -254l152 254h110zM449 783l-136 -138h-87l90 138h133z" />
    <glyph glyph-name="thorn.sc" horiz-adv-x="561" 
d="M181 574v-95h124q110 0 164.5 -54t54.5 -130q0 -85 -55 -137.5t-162 -52.5h-126v-105h-99v574h99zM315 393h-134v-203h133q48 0 78.5 24.5t30.5 79.5q0 45 -28.5 72t-79.5 27z" />
    <glyph glyph-name="ydieresis.sc" horiz-adv-x="553" 
d="M541 574l-215 -344v-230h-98v228l-215 346h113l153 -254l152 254h110zM170 771q25 0 44 -18.5t19 -43.5t-19 -43.5t-44 -18.5t-44 18.5t-19 43.5t19 43.5t44 18.5zM384 771q25 0 44 -18.5t19 -43.5t-19 -43.5t-44 -18.5t-44 18.5t-19 43.5t19 43.5t44 18.5z" />
    <glyph glyph-name="dotlessi.sc" horiz-adv-x="309" 
d="M270 574v-85h-66v-405h66v-84h-230v84h66v405h-66v85h230z" />
    <glyph glyph-name="ij.sc" horiz-adv-x="690" 
d="M270 574v-85h-66v-405h66v-84h-230v84h66v405h-66v85h230zM619 574v-402q0 -86 -40 -131.5t-138 -45.5q-39 0 -89 5v83q16 -1 50 -1q71 0 95 19.5t24 77.5v395h98z" />
    <glyph glyph-name="lslash.sc" horiz-adv-x="492" 
d="M190 89h274v-89h-372v233l-79 -42v76l79 42v265h98v-214l154 81v-76l-154 -81v-195z" />
    <glyph glyph-name="oe.sc" horiz-adv-x="880" 
d="M343 587q49 0 101 -13h377v-86h-279v-153h261v-85h-261v-164h286v-86h-384q-49 -13 -101 -13q-51 0 -99 15.5t-92.5 48t-72 94t-27.5 143.5q0 78 25.5 137.5t68.5 93.5t92.5 51t104.5 17zM343 500q-85 0 -137 -57t-52 -155q0 -99 49.5 -157t139.5 -58q57 0 101 19v391
q-49 17 -101 17z" />
    <glyph glyph-name="scaron.sc" horiz-adv-x="582" 
d="M283 587q156 0 250 -109l-81 -52q-53 76 -169 76q-57 0 -89 -20t-32 -56q0 -34 32 -52t131 -34q110 -18 160 -60.5t50 -116.5q0 -78 -63 -127t-181 -49q-169 0 -264 113l76 58q75 -87 190 -87q60 0 100 24t40 64t-34.5 61.5t-137.5 37.5q-200 30 -200 165q0 74 61 119
t161 45zM475 793l-135 -138h-98l-135 138h96l88 -76l88 76h96z" />
    <glyph glyph-name="zcaron.sc" horiz-adv-x="540" 
d="M497 574v-80l-334 -406h339v-88h-470v76l336 412h-311v86h440zM454 793l-135 -138h-98l-135 138h96l88 -76l88 76h96z" />
    <glyph glyph-name="longs.sc" horiz-adv-x="582" 
d="M283 587q156 0 250 -109l-81 -52q-53 76 -169 76q-57 0 -89 -20t-32 -56q0 -34 32 -52t131 -34q110 -18 160 -60.5t50 -116.5q0 -78 -63 -127t-181 -49q-169 0 -264 113l76 58q75 -87 190 -87q60 0 100 24t40 64t-34.5 61.5t-137.5 37.5q-200 30 -200 165q0 74 61 119
t161 45z" />
    <glyph glyph-name="florin.sc" horiz-adv-x="314" 
d="M221 586q47 0 101 -16v-81q-48 16 -89 16q-39 0 -56.5 -14t-17.5 -51v-44h139v-77h-139v-346q0 -77 -42.5 -115t-103.5 -38q-31 0 -56 6v80q12 -1 21 -1q48 0 64.5 19.5t16.5 81.5v313h-72v77h72v57q0 57 39.5 95t122.5 38z" />
    <glyph glyph-name="uni0394.sc" horiz-adv-x="563" 
d="M346 574l204 -574h-538l205 574h129zM279 492l-137 -412h273z" />
    <glyph glyph-name="uni03A9.sc" horiz-adv-x="687" 
d="M343 587q54 0 104 -17t91.5 -50t66.5 -88t25 -125q0 -151 -135 -219h134v-88h-238v88q59 28 98 84.5t39 134.5q0 90 -50 142t-135 52q-83 0 -133.5 -54t-50.5 -140q0 -78 39 -134.5t98 -84.5v-88h-238v88h134q-135 68 -135 219q0 70 25 125t66.5 88t91 50t103.5 17z" />
    <glyph glyph-name="uni1E9E.sc" horiz-adv-x="619" 
d="M380 -13q-98 0 -165 43l41 68q52 -29 117 -29q43 0 77 24t34 71q0 45 -32.5 68.5t-118.5 39.5v68l115 126q-47 37 -136 37q-141 0 -141 -141v-362h-99v371q0 102 64.5 159t175.5 57q150 0 251 -107l-135 -151q159 -41 159 -165q0 -77 -57.5 -127t-149.5 -50z" />
    <glyph glyph-name="figuredash.sc" 
d="M560 318v-89h-520v89h520z" />
    <glyph glyph-name="dagger.sc" horiz-adv-x="620" 
d="M356 574v-159h168v-84h-168v-331h-96v331h-167v84h167v159h96z" />
    <glyph glyph-name="daggerdbl.sc" horiz-adv-x="620" 
d="M356 574v-120h168v-84h-168v-156h168v-84h-168v-130h-96v130h-167v84h167v156h-167v84h167v120h96z" />
    <glyph glyph-name="perthousand.sc" horiz-adv-x="1426" 
d="M227 586q73 0 127 -54t54 -144t-54 -144t-127 -54t-127 54t-54 144t54 144t127 54zM726 586l-352 -596h-86l355 596h83zM226 517q-46 0 -71 -35t-25 -95q0 -59 25 -93.5t71 -34.5q47 0 72 34.5t25 93.5q0 61 -25 95.5t-72 34.5zM786 384q73 0 127 -54t54 -144t-54 -144
t-127 -54t-127 54t-54 144t54 144t127 54zM1196 384q73 0 127 -54t54 -144t-54 -144t-127 -54t-127 54t-54 144t54 144t127 54zM785 315q-46 0 -71 -35t-25 -95q0 -59 25 -93.5t71 -34.5q47 0 72 34.5t25 93.5q0 61 -25 95.5t-72 34.5zM1195 315q-46 0 -71 -35t-25 -95
q0 -59 25 -93.5t71 -34.5q47 0 72 34.5t25 93.5q0 61 -25 95.5t-72 34.5z" />
    <glyph glyph-name="Euro.sc" 
d="M380 586q110 0 181 -71l-32 -87q-64 74 -149 74q-121 0 -151 -121h277l-21 -61h-265q-1 -30 0 -61h246l-20 -60h-219q25 -131 148 -131q88 0 157 67v-103q-74 -48 -159 -48q-95 0 -160 55.5t-83 159.5h-92l21 60h66q-1 31 0 61h-81l20 61h69q23 95 88 150t159 55z" />
    <glyph glyph-name="partialdiff.sc" 
d="M128 503v83q201 -1 307.5 -79.5t106.5 -249.5q0 -70 -20.5 -123.5t-56 -84.5t-78.5 -46t-92 -15q-101 0 -169 56t-68 145q0 90 64.5 144t157.5 54q105 0 158 -70q-7 55 -33.5 93t-70.5 57.5t-93 27.5t-113 8zM295 305q-64 0 -98.5 -32t-34.5 -84q0 -57 37.5 -87.5
t96.5 -30.5q58 0 96.5 31.5t38.5 85.5q0 53 -36.5 85t-99.5 32z" />
    <glyph glyph-name="product.sc" 
d="M544 574v-83h-52v-556h-100v556h-184v-556h-100v556h-53v83h489z" />
    <glyph glyph-name="summation.sc" 
d="M549 574v-81h-352l176 -158v-77l-177 -176h353v-82h-479v72l220 224l-220 204v74h479z" />
    <glyph glyph-name="radical.sc" 
d="M677 700v-82h-184l-219 -618h-102l-180 422h104l124 -319l206 597h251z" />
    <glyph glyph-name="integral.sc" horiz-adv-x="300" 
d="M271 732q47 0 101 -16v-80q-48 16 -89 16t-62.5 -14.5t-21.5 -51.5v-666q0 -56 -43.5 -94.5t-127.5 -38.5q-47 0 -101 16v81q48 -16 89 -16q85 0 85 65v666q0 56 43 94.5t127 38.5z" />
    <glyph glyph-name="lozenge.sc" 
d="M361 574l208 -276l-208 -298h-122l-208 296l208 278h122zM299 521l-164 -224l166 -244l164 244z" />
    <glyph glyph-name="fi.sc" horiz-adv-x="824" 
d="M459 574v-86h-279v-165h258v-85h-258v-238h-98v574h377zM785 574v-85h-66v-405h66v-84h-230v84h66v405h-66v85h230z" />
    <glyph glyph-name="fl.sc" horiz-adv-x="997" 
d="M459 574v-86h-279v-165h258v-85h-258v-238h-98v574h377zM695 574v-485h274v-89h-372v574h98z" />
    <glyph glyph-name="dollar.tf.sc" 
d="M343 699v-115q131 -16 208 -121l-74 -54q-50 78 -137 90v-165q124 -29 170 -67t46 -108q0 -69 -55 -118t-158 -56v-132h-65v132q-156 12 -237 126l70 61q70 -94 170 -104v188q-112 23 -160 62t-48 105q0 69 55.5 113.5t149.5 48.5v114h65zM281 347v154q-109 -5 -109 -73
q0 -29 19.5 -46t89.5 -35zM340 244v-176q58 4 87 28t29 60q0 34 -21.5 52.5t-94.5 35.5z" />
    <glyph glyph-name="zero.tf.sc" 
d="M300 592q116 0 188 -82.5t72 -223.5q0 -137 -72 -217.5t-188 -80.5q-117 0 -189 80.5t-72 217.5q0 141 72 223.5t189 82.5zM300 508q-73 0 -115.5 -58.5t-42.5 -164.5q0 -99 42.5 -156.5t115.5 -57.5t115.5 56.5t42.5 157.5q0 105 -42.5 164t-115.5 59z" />
    <glyph glyph-name="one.tf.sc" 
d="M121 0v84h161v272h-166v77h27q83 0 117 35.5t46 105.5h76v-490h141v-84h-402z" />
    <glyph glyph-name="two.tf.sc" 
d="M304 586q100 0 158 -51.5t58 -130.5q0 -90 -64.5 -158.5t-235.5 -161.5h308v-84h-456v82q211 130 277 190t66 126q0 50 -30.5 77.5t-80.5 27.5q-61 0 -96 -36.5t-35 -90.5h-102q3 85 64 147.5t169 62.5z" />
    <glyph glyph-name="three.tf.sc" 
d="M330 592q102 0 159 -43t57 -112q0 -44 -26 -80t-74 -50q122 -23 122 -133q0 -85 -67 -135.5t-176 -50.5q-98 0 -166.5 47t-86.5 129l96 20q29 -112 157 -112q62 0 99.5 26t37.5 75q0 93 -111 93h-80v75h67q109 0 109 90q0 36 -31 57t-86 21q-120 0 -144 -105l-96 16
q14 74 79 123t161 49z" />
    <glyph glyph-name="four.tf.sc" 
d="M480 574v-371h92v-83h-92v-120h-99v120h-315v83l290 371h124zM381 471l-208 -268h208v268z" />
    <glyph glyph-name="five.tf.sc" 
d="M524 574l-14 -85h-269l-20 -133q55 51 137 51q81 0 140 -55.5t59 -140.5q0 -99 -66.5 -161t-175.5 -62q-91 0 -147.5 42.5t-77.5 100.5l94 24q38 -83 135 -83q60 0 97.5 37.5t37.5 95.5q0 57 -34.5 89.5t-90.5 32.5q-71 0 -127 -65l-89 11l46 301h365z" />
    <glyph glyph-name="six.tf.sc" 
d="M335 592q143 0 198 -121l-93 -27q-27 67 -106 67q-60 0 -98 -46t-47 -141q50 73 153 73q88 0 150.5 -56.5t62.5 -146.5q0 -89 -66.5 -147.5t-164.5 -58.5q-48 0 -89.5 15t-75.5 46t-54 84.5t-20 123.5q0 159 68 247t182 88zM325 316q-59 0 -93 -34.5t-34 -88.5t36 -88
t91 -34t90.5 33t35.5 90q0 52 -33 87t-93 35z" />
    <glyph glyph-name="seven.tf.sc" 
d="M555 574v-81q-99 -111 -155.5 -226.5t-81.5 -266.5h-119q34 170 94.5 284t154.5 205h-247v-48h-86v133h440z" />
    <glyph glyph-name="eight.tf.sc" 
d="M314 586q97 0 154.5 -46.5t57.5 -112.5q0 -74 -83 -111q118 -47 118 -154q0 -77 -60 -125.5t-184 -48.5q-117 0 -178 49.5t-61 127.5q0 101 100 139q-67 43 -67 125q0 66 53.5 111.5t149.5 45.5zM314 505q-48 0 -76.5 -19.5t-28.5 -57.5q0 -34 25 -53t83 -29l45 -8
q65 34 65 88q0 34 -30.5 56.5t-82.5 22.5zM299 263l-45 10q-37 -14 -56 -38t-19 -67q0 -45 37.5 -71.5t101.5 -26.5q142 0 142 96q0 43 -29.5 59t-112.5 34q-12 3 -19 4z" />
    <glyph glyph-name="nine.tf.sc" 
d="M300 -12q-150 0 -208 121l93 26q30 -67 116 -67q128 0 145 188q-51 -73 -153 -73q-88 0 -150.5 56.5t-62.5 146.5q0 88 67.5 147t165.5 59q101 0 169 -66.5t68 -202.5q0 -160 -66.5 -247.5t-183.5 -87.5zM311 264q58 0 92 34.5t34 88.5q0 53 -35.5 87t-90.5 34t-91 -33
t-36 -89q0 -52 33.5 -87t93.5 -35z" />
    <glyph glyph-name="cent.tf.sc" 
d="M465 196l94 -29q-28 -78 -86.5 -123t-132.5 -54v-139h-76v138q-44 6 -82 24.5t-71.5 52t-52.5 91t-19 131.5q0 138 63 211.5t162 85.5v133h76v-133q154 -21 208 -166l-95 -26q-33 93 -117 109v-430q97 16 129 124zM141 288q0 -90 32 -147t95 -69v430q-61 -13 -94 -69
t-33 -145z" />
    <glyph glyph-name="sterling.tf.sc" 
d="M344 586q76 0 127 -40t72 -101l-94 -28q-13 44 -38.5 66t-70.5 22q-47 0 -76.5 -29.5t-29.5 -82.5v-74h207v-60h-207v-57q0 -43 -10 -69t-38 -48h329v-85h-429l-11 75q39 16 52 42.5t13 81.5v60h-83v60h83v79q0 78 52.5 133t151.5 55z" />
    <glyph glyph-name="yen.tf.sc" 
d="M568 574l-189 -293h133v-60h-162v-50h162v-60h-162v-111h-100v111h-162v60h162v50h-162v60h133l-189 293h114l156 -283l155 283h111z" />
    <glyph glyph-name="figuredash.tf.sc" 
d="M560 318v-89h-520v89h520z" />
    <glyph glyph-name="Euro.tf.sc" 
d="M380 586q110 0 181 -71l-32 -87q-64 74 -149 74q-121 0 -151 -121h277l-21 -61h-265q-1 -30 0 -61h246l-20 -60h-219q25 -131 148 -131q88 0 157 67v-103q-74 -48 -159 -48q-95 0 -160 55.5t-83 159.5h-92l21 60h66q-1 31 0 61h-81l20 61h69q23 95 88 150t159 55z" />
    <glyph glyph-name="dollar.lf.sc" horiz-adv-x="624" 
d="M355 699v-115q131 -16 208 -121l-74 -54q-50 78 -137 90v-165q124 -29 170 -67t46 -108q0 -69 -55 -118t-158 -56v-132h-65v132q-156 12 -237 126l70 61q70 -94 170 -104v188q-112 23 -160 62t-48 105q0 69 55.5 113.5t149.5 48.5v114h65zM293 347v154q-109 -5 -109 -73
q0 -29 19.5 -46t89.5 -35zM352 244v-176q58 4 87 28t29 60q0 34 -21.5 52.5t-94.5 35.5z" />
    <glyph glyph-name="zero.lf.sc" horiz-adv-x="593" 
d="M297 592q121 0 195.5 -83t74.5 -223q0 -138 -74.5 -218t-195.5 -80q-122 0 -196.5 80t-74.5 218q0 140 75 223t196 83zM297 508q-78 0 -123.5 -59t-45.5 -163q0 -101 45.5 -158t123.5 -57q77 0 122 56.5t45 158.5q0 103 -45 162.5t-122 59.5z" />
    <glyph glyph-name="one.lf.sc" horiz-adv-x="463" 
d="M73 0v84h161v272h-166v77h27q83 0 117 35.5t46 105.5h76v-490h141v-84h-402z" />
    <glyph glyph-name="two.lf.sc" horiz-adv-x="555" 
d="M284 586q100 0 158 -51.5t58 -130.5q0 -90 -64.5 -158.5t-235.5 -161.5h308v-84h-456v82q211 130 277 190t66 126q0 50 -30.5 77.5t-80.5 27.5q-61 0 -96 -36.5t-35 -90.5h-102q3 85 64 147.5t169 62.5z" />
    <glyph glyph-name="three.lf.sc" horiz-adv-x="605" 
d="M309 592q102 0 159 -43t57 -112q0 -44 -26 -80t-74 -50q122 -23 122 -133q0 -85 -67 -135.5t-176 -50.5q-98 0 -166.5 47t-86.5 129l96 20q29 -112 157 -112q62 0 99.5 26t37.5 75q0 93 -111 93h-80v75h67q109 0 109 90q0 36 -31 57t-86 21q-120 0 -144 -105l-96 16
q14 74 79 123t161 49z" />
    <glyph glyph-name="four.lf.sc" horiz-adv-x="595" 
d="M458 574v-371h92v-83h-92v-120h-99v120h-315v83l290 371h124zM359 471l-208 -268h208v268z" />
    <glyph glyph-name="five.lf.sc" horiz-adv-x="591" 
d="M493 574l-14 -85h-269l-20 -133q55 51 137 51q81 0 140 -55.5t59 -140.5q0 -99 -66.5 -161t-175.5 -62q-91 0 -147.5 42.5t-77.5 100.5l94 24q38 -83 135 -83q60 0 97.5 37.5t37.5 95.5q0 57 -34.5 89.5t-90.5 32.5q-71 0 -127 -65l-89 11l46 301h365z" />
    <glyph glyph-name="six.lf.sc" horiz-adv-x="599" 
d="M315 592q143 0 198 -121l-93 -27q-27 67 -106 67q-60 0 -98 -46t-47 -141q50 73 153 73q88 0 150.5 -56.5t62.5 -146.5q0 -89 -66.5 -147.5t-164.5 -58.5q-48 0 -89.5 15t-75.5 46t-54 84.5t-20 123.5q0 159 68 247t182 88zM305 316q-59 0 -93 -34.5t-34 -88.5t36 -88
t91 -34t90.5 33t35.5 90q0 52 -33 87t-93 35z" />
    <glyph glyph-name="seven.lf.sc" horiz-adv-x="509" 
d="M477 574v-81q-99 -111 -155.5 -226.5t-81.5 -266.5h-119q34 170 94.5 284t154.5 205h-247v-48h-86v133h440z" />
    <glyph glyph-name="eight.lf.sc" horiz-adv-x="589" 
d="M289 586q97 0 154.5 -46.5t57.5 -112.5q0 -74 -83 -111q118 -47 118 -154q0 -77 -60 -125.5t-184 -48.5q-117 0 -178 49.5t-61 127.5q0 101 100 139q-67 43 -67 125q0 66 53.5 111.5t149.5 45.5zM289 505q-48 0 -76.5 -19.5t-28.5 -57.5q0 -34 25 -53t83 -29l45 -8
q65 34 65 88q0 34 -30.5 56.5t-82.5 22.5zM274 263l-45 10q-37 -14 -56 -38t-19 -67q0 -45 37.5 -71.5t101.5 -26.5q142 0 142 96q0 43 -29.5 59t-112.5 34q-12 3 -19 4z" />
    <glyph glyph-name="nine.lf.sc" horiz-adv-x="596" 
d="M275 -12q-150 0 -208 121l93 26q30 -67 116 -67q128 0 145 188q-51 -73 -153 -73q-88 0 -150.5 56.5t-62.5 146.5q0 88 67.5 147t165.5 59q101 0 169 -66.5t68 -202.5q0 -160 -66.5 -247.5t-183.5 -87.5zM286 264q58 0 92 34.5t34 88.5q0 53 -35.5 87t-90.5 34t-91 -33
t-36 -89q0 -52 33.5 -87t93.5 -35z" />
    <glyph glyph-name="cent.lf.sc" horiz-adv-x="624" 
d="M477 196l94 -29q-28 -78 -86.5 -123t-132.5 -54v-139h-76v138q-44 6 -82 24.5t-71.5 52t-52.5 91t-19 131.5q0 138 63 211.5t162 85.5v133h76v-133q154 -21 208 -166l-95 -26q-33 93 -117 109v-430q97 16 129 124zM153 288q0 -90 32 -147t95 -69v430q-61 -13 -94 -69
t-33 -145z" />
    <glyph glyph-name="sterling.lf.sc" horiz-adv-x="624" 
d="M356 586q76 0 127 -40t72 -101l-94 -28q-13 44 -38.5 66t-70.5 22q-47 0 -76.5 -29.5t-29.5 -82.5v-74h207v-60h-207v-57q0 -43 -10 -69t-38 -48h329v-85h-429l-11 75q39 16 52 42.5t13 81.5v60h-83v60h83v79q0 78 52.5 133t151.5 55z" />
    <glyph glyph-name="yen.lf.sc" horiz-adv-x="624" 
d="M580 574l-189 -293h133v-60h-162v-50h162v-60h-162v-111h-100v111h-162v60h162v50h-162v60h133l-189 293h114l156 -283l155 283h111z" />
    <glyph glyph-name="figuredash.lf.sc" 
d="M560 318v-89h-520v89h520z" />
    <glyph glyph-name="Euro.lf.sc" horiz-adv-x="624" 
d="M392 586q110 0 181 -71l-32 -87q-64 74 -149 74q-121 0 -151 -121h277l-21 -61h-265q-1 -30 0 -61h246l-20 -60h-219q25 -131 148 -131q88 0 157 67v-103q-74 -48 -159 -48q-95 0 -160 55.5t-83 159.5h-92l21 60h66q-1 31 0 61h-81l20 61h69q23 95 88 150t159 55z" />
    <glyph glyph-name="parenleft.case" horiz-adv-x="281" 
d="M180 826h77q-57 -132 -82 -235.5t-25 -241.5t25 -241t82 -235h-77q-136 240 -136 476q0 237 136 477z" />
    <glyph glyph-name="parenright.case" horiz-adv-x="281" 
d="M24 826h77q136 -240 136 -477q0 -236 -136 -476h-77q57 132 82 235t25 241t-25 241.5t-82 235.5z" />
    <glyph glyph-name="hyphen.case" horiz-adv-x="360" 
d="M310 394v-89h-260v89h260z" />
    <glyph glyph-name="at.case" horiz-adv-x="1031" 
d="M546 816q186 0 300.5 -106.5t114.5 -274.5q0 -54 -13.5 -107t-39 -99.5t-69.5 -75.5t-98 -29q-57 0 -84 27.5t-33 64.5q-22 -43 -68 -67.5t-101 -24.5q-83 0 -132 55.5t-49 143.5q0 130 73.5 212t175.5 82q41 0 76 -17t50 -53l8 46h87l-53 -321q-6 -35 7 -53t41 -18
q58 0 93 69.5t35 169.5q0 131 -89 216t-234 85q-171 0 -275 -107.5t-104 -282.5q0 -154 92.5 -253t242.5 -99q100 0 199 34l26 -73q-120 -40 -225 -40q-186 0 -307.5 119.5t-121.5 309.5q0 208 132.5 337.5t342.5 129.5zM530 533q-75 0 -114.5 -63t-39.5 -148
q0 -116 98 -116q62 0 106.5 53.5t44.5 157.5q0 116 -95 116z" />
    <glyph glyph-name="bracketleft.case" horiz-adv-x="300" 
d="M267 836v-80h-115v-801h115v-82h-214v963h214z" />
    <glyph glyph-name="bracketright.case" horiz-adv-x="300" 
d="M33 756v80h214v-963h-214v82h115v801h-115z" />
    <glyph glyph-name="braceleft.case" horiz-adv-x="300" 
d="M282 836v-82h-14q-45 0 -58.5 -19.5t-13.5 -57.5v-214q0 -48 -28 -75.5t-57 -32.5q29 -5 57 -33t28 -76v-211q0 -38 13.5 -57.5t58.5 -19.5h14v-82h-34q-71 0 -111.5 39t-40.5 101v215q0 48 -13 67.5t-45 26.5v60q32 7 45 26t13 67v218q0 62 40.5 101t111.5 39h34z" />
    <glyph glyph-name="braceright.case" horiz-adv-x="300" 
d="M18 754v82h34q71 0 111.5 -39t40.5 -101v-218q0 -48 13 -67t45 -26v-60q-32 -7 -45 -26.5t-13 -67.5v-215q0 -62 -40.5 -101t-111.5 -39h-34v82h14q45 0 58.5 19.5t13.5 57.5v211q0 48 28 76t57 33q-29 5 -57 32.5t-28 75.5v214q0 38 -13.5 57.5t-58.5 19.5h-14z" />
    <glyph glyph-name="exclamdown.case" horiz-adv-x="256" 
d="M128 715q29 0 50 -21t21 -50t-21 -50.5t-50 -21.5q-30 0 -51 21t-21 50t21 50.5t51 21.5zM163 496l20 -274v-222h-110v222l20 274h70z" />
    <glyph glyph-name="guillemotleft.case" horiz-adv-x="465" 
d="M174 552l52 -37l-90 -165l90 -165l-52 -37l-132 151v102zM373 552l52 -37l-90 -165l90 -165l-52 -37l-132 151v102z" />
    <glyph glyph-name="uni00AD.case" horiz-adv-x="360" 
d="M310 394v-89h-260v89h260z" />
    <glyph glyph-name="guillemotright.case" horiz-adv-x="465" 
d="M293 552l132 -151v-102l-132 -151l-52 37l89 165l-89 165zM94 552l132 -151v-102l-132 -151l-52 37l89 165l-89 165z" />
    <glyph glyph-name="questiondown.case" horiz-adv-x="519" 
d="M260 715q29 0 50 -21t21 -50t-21 -50t-50 -21q-30 0 -51 20.5t-21 49.5t21 50.5t51 21.5zM314 479v-38q0 -37 -18.5 -67t-44.5 -51t-52 -41t-44.5 -46.5t-18.5 -58.5q0 -52 31.5 -79t84.5 -27q105 0 148 115l93 -28q-18 -63 -78.5 -118.5t-159.5 -55.5q-61 0 -107.5 19
t-70.5 49t-35.5 60.5t-11.5 59.5q0 51 19 88t46 57.5t54 38.5t46 43.5t19 59.5v20h100z" />
    <glyph glyph-name="gravecomb.case" horiz-adv-x="1" 
d="M-121 886l91 -133h-88l-140 133h137z" />
    <glyph glyph-name="acutecomb.case" horiz-adv-x="1" 
d="M-30 886l-141 -133h-87l90 133h138z" />
    <glyph glyph-name="uni0302.case" horiz-adv-x="1" 
d="M-165 886l135 -133h-96l-88 71l-88 -71h-96l135 133h98z" />
    <glyph glyph-name="tildecomb.case" horiz-adv-x="1" 
d="M-259 877q30 0 55 -13t42 -26t28 -13q29 0 45 41h59q-6 -49 -35 -80.5t-74 -31.5q-40 0 -77.5 26t-48.5 26q-30 0 -45 -40h-58q6 48 35 79.5t74 31.5z" />
    <glyph glyph-name="uni0304.case" horiz-adv-x="1" 
d="M-30 849v-70h-325v70h325z" />
    <glyph glyph-name="uni0306.case" horiz-adv-x="1" 
d="M-89 883h59q-7 -64 -49 -100t-108 -36t-107 36t-49 100h59q13 -63 97 -63q35 0 63 15t35 48z" />
    <glyph glyph-name="uni0307.case" horiz-adv-x="1" 
d="M-96 878q26 0 46 -19.5t20 -45.5t-20 -45.5t-46 -19.5q-27 0 -46.5 19.5t-19.5 45.5t19.5 45.5t46.5 19.5z" />
    <glyph glyph-name="uni0308.case" horiz-adv-x="1" 
d="M-307 879q25 0 44 -18.5t19 -43.5t-19 -43.5t-44 -18.5t-44 18.5t-19 43.5t19 43.5t44 18.5zM-93 879q25 0 44 -18.5t19 -43.5t-19 -43.5t-44 -18.5t-44 18.5t-19 43.5t19 43.5t44 18.5z" />
    <glyph glyph-name="uni030A.case" horiz-adv-x="1" 
d="M-149 961q49 0 84 -32t35 -82t-35 -82t-84 -32t-84 32t-35 82t35 82t84 32zM-149 904q-22 0 -37.5 -15.5t-15.5 -41.5q0 -27 15.5 -42t37.5 -15q23 0 38 15t15 42q0 26 -15 41.5t-38 15.5z" />
    <glyph glyph-name="uni030B.case" horiz-adv-x="1" 
d="M-209 886l-128 -133h-74l79 133h123zM-30 886l-133 -133h-74l84 133h123z" />
    <glyph glyph-name="uni030C.case" horiz-adv-x="1" 
d="M-30 896l-135 -133h-98l-135 133h96l88 -71l88 71h96z" />
    <glyph glyph-name="endash.case" horiz-adv-x="520" 
d="M470 394v-89h-420v89h420z" />
    <glyph glyph-name="emdash.case" horiz-adv-x="620" 
d="M570 394v-89h-520v89h520z" />
    <glyph glyph-name="guilsinglleft.case" horiz-adv-x="265" 
d="M173 552l52 -37l-90 -165l90 -165l-52 -37l-132 151v102z" />
    <glyph glyph-name="guilsinglright.case" horiz-adv-x="265" 
d="M93 552l132 -151v-102l-132 -151l-52 37l89 165l-89 165z" />
    <glyph glyph-name="zero.zero" horiz-adv-x="609" 
d="M305 592q121 0 195.5 -83t74.5 -223q0 -138 -74.5 -218t-195.5 -80q-122 0 -196.5 80t-74.5 218q0 140 75 223t196 83zM305 508q-78 0 -123.5 -59t-45.5 -163q0 -88 34 -142l237 326q-41 38 -102 38zM305 71q77 0 122 56.5t45 158.5q0 79 -28 135l-231 -323
q37 -27 92 -27z" />
    <glyph glyph-name="zero.tf.zero" 
d="M300 718q118 0 185.5 -94t67.5 -274t-67.5 -274t-185.5 -94q-117 0 -184.5 94t-67.5 274t67.5 274t184.5 94zM300 633q-150 0 -150 -280q0 -109 15 -170l240 408q-32 42 -105 42zM300 67q73 0 111 73t38 213q0 103 -14 167l-241 -407q34 -46 106 -46z" />
    <glyph glyph-name="zero.lf.zero" horiz-adv-x="595" 
d="M298 696q122 0 196.5 -91.5t74.5 -262.5q0 -169 -74.5 -262.5t-196.5 -93.5q-123 0 -197.5 93.5t-74.5 262.5q0 171 74 262.5t198 91.5zM298 612q-80 0 -125 -69t-45 -201q0 -100 30 -169l237 402q-40 37 -97 37zM298 70q77 0 122.5 72.5t45.5 199.5q0 108 -32 178
l-239 -405q42 -45 103 -45z" />
    <glyph glyph-name="zero.tosf.zero" 
d="M300 592q116 0 188 -82.5t72 -223.5q0 -137 -72 -217.5t-188 -80.5q-117 0 -189 80.5t-72 217.5q0 141 72 223.5t189 82.5zM300 508q-73 0 -115.5 -58.5t-42.5 -164.5q0 -91 33 -146l202 349q-34 20 -77 20zM300 71q73 0 115.5 56.5t42.5 157.5q0 103 -38 162l-203 -353
q35 -23 83 -23z" />
    <glyph glyph-name="zero.tf.sc.zero" 
d="M300 592q116 0 188 -82.5t72 -223.5q0 -137 -72 -217.5t-188 -80.5q-117 0 -189 80.5t-72 217.5q0 141 72 223.5t189 82.5zM300 508q-73 0 -115.5 -58.5t-42.5 -164.5q0 -91 33 -146l202 349q-34 20 -77 20zM300 71q73 0 115.5 56.5t42.5 157.5q0 103 -38 162l-203 -353
q35 -23 83 -23z" />
    <glyph glyph-name="zero.lf.sc.zero" horiz-adv-x="609" 
d="M305 592q121 0 195.5 -83t74.5 -223q0 -138 -74.5 -218t-195.5 -80q-122 0 -196.5 80t-74.5 218q0 140 75 223t196 83zM305 508q-78 0 -123.5 -59t-45.5 -163q0 -88 34 -142l237 326q-41 38 -102 38zM305 71q77 0 122 56.5t45 158.5q0 79 -28 135l-231 -323
q37 -27 92 -27z" />
    <glyph glyph-name="exclam.ss01" horiz-adv-x="256" 
d="M183 703v-222l-20 -274h-70l-20 274v222h110zM190 122v-122h-124v122h124z" />
    <glyph glyph-name="comma.ss01" horiz-adv-x="275" 
d="M199 122v-122l-72 -161h-65l46 161h-33v122h124z" />
    <glyph glyph-name="period.ss01" horiz-adv-x="275" 
d="M200 122v-122h-124v122h124z" />
    <glyph glyph-name="colon.ss01" horiz-adv-x="275" 
d="M200 122v-122h-124v122h124zM200 490v-122h-124v122h124z" />
    <glyph glyph-name="semicolon.ss01" horiz-adv-x="288" 
d="M199 122v-122l-72 -161h-65l46 161h-33v122h124zM200 489v-122h-124v122h124z" />
    <glyph glyph-name="question.ss01" horiz-adv-x="519" 
d="M264 714q61 0 107.5 -19t70.5 -49t35.5 -60.5t11.5 -59.5q0 -51 -19 -88t-46 -57.5t-54 -38.5t-46 -43.5t-19 -59.5v-32h-100v50q0 37 18.5 67t44.5 51t52 41t44.5 46t18.5 58q0 52 -31 79t-85 27q-105 0 -148 -114l-93 28q18 63 78.5 118.5t159.5 55.5zM320 122v-122
h-124v122h124z" />
    <glyph glyph-name="i.ss01" horiz-adv-x="255" 
d="M177 522v-522h-100v522h100zM184 718v-106h-114v106h114z" />
    <glyph glyph-name="j.ss01" horiz-adv-x="255" 
d="M178 522v-549q0 -77 -42.5 -115t-103.5 -38q-31 0 -57 6v80q12 -1 22 -1q48 0 64.5 19.5t16.5 81.5v516h100zM184 718v-106h-114v106h114z" />
    <glyph glyph-name="exclamdown.ss01" horiz-adv-x="256" 
d="M190 522v-122h-124v122h124zM163 304l20 -244v-222h-110v222l20 244h70z" />
    <glyph glyph-name="periodcentered.ss01" horiz-adv-x="275" 
d="M200 357v-122h-124v122h124z" />
    <glyph glyph-name="questiondown.ss01" horiz-adv-x="519" 
d="M325 522v-122h-124v122h124zM314 315v-38q0 -37 -18.5 -67t-44.5 -51t-52 -41t-44.5 -46t-18.5 -58q0 -53 31.5 -80t84.5 -27q105 0 148 115l93 -28q-18 -63 -78.5 -118.5t-159.5 -55.5q-61 0 -107.5 19t-70.5 49t-35.5 60.5t-11.5 59.5q0 51 19 88t46 57.5t54 38.5
t46 43.5t19 59.5v20h100z" />
    <glyph glyph-name="Adieresis.ss01" horiz-adv-x="625" 
d="M500 0l-41 127h-301l-40 -127h-106l234 700h133l233 -700h-112zM309 614l-123 -399h245zM260 871v-103h-108v103h108zM474 871v-103h-108v103h108z" />
    <glyph glyph-name="Edieresis.ss01" horiz-adv-x="578" 
d="M517 700v-90h-333v-208h312v-90h-312v-222h342v-90h-444v700h435zM247 871v-103h-108v103h108zM461 871v-103h-108v103h108z" />
    <glyph glyph-name="Idieresis.ss01" horiz-adv-x="372" 
d="M333 700v-88h-96v-524h96v-88h-293v88h95v524h-95v88h293zM133 871v-103h-108v103h108zM347 871v-103h-108v103h108z" />
    <glyph glyph-name="Odieresis.ss01" horiz-adv-x="753" 
d="M376 716q45 0 88.5 -11t87 -38t76 -67.5t53 -105t20.5 -145.5q0 -95 -28 -167.5t-75.5 -114.5t-103.5 -62.5t-118 -20.5q-57 0 -111 19t-103.5 59t-79.5 114.5t-30 174.5q0 77 18.5 139.5t50 103.5t74 69t87.5 40.5t94 12.5zM377 626q-100 0 -159.5 -73.5t-59.5 -200.5
q0 -129 57 -203.5t162 -74.5q97 0 157.5 74t60.5 200q0 128 -56.5 203t-161.5 75zM324 871v-103h-108v103h108zM538 871v-103h-108v103h108z" />
    <glyph glyph-name="Udieresis.ss01" horiz-adv-x="670" 
d="M599 700v-455q0 -50 -13 -93.5t-41.5 -82.5t-82.5 -62t-128 -23q-75 0 -129 23t-81.5 62.5t-39.5 82.5t-12 93v455h102v-452q0 -90 40 -132t121 -42q162 0 162 174v452h102zM283 871v-103h-108v103h108zM497 871v-103h-108v103h108z" />
    <glyph glyph-name="adieresis.ss01" horiz-adv-x="552" 
d="M275 534q109 0 157 -42t48 -123v-256q0 -70 18 -113h-104q-10 25 -13 57q-57 -69 -161 -69q-83 0 -130.5 44.5t-47.5 114.5q0 148 207 173l131 16v26q0 53 -22 73t-85 20q-59 0 -85.5 -20t-27.5 -66h-97q2 83 58 124t154 41zM380 261l-101 -13q-71 -9 -102 -31t-31 -64
q0 -80 92 -80q58 0 100 34.5t42 87.5v66zM228 709v-103h-108v103h108zM442 709v-103h-108v103h108z" />
    <glyph glyph-name="edieresis.ss01" horiz-adv-x="571" 
d="M292 534q110 0 172 -77t62 -196v-23h-376q2 -81 41 -123.5t111 -42.5q94 0 137 80l83 -44q-73 -120 -223 -120q-118 0 -185 77t-67 196q0 122 64 197.5t181 75.5zM291 451q-61 0 -97.5 -35.5t-42.5 -100.5h271q-4 66 -38.5 101t-92.5 35zM236 709v-103h-108v103h108z
M450 709v-103h-108v103h108z" />
    <glyph glyph-name="idieresis.ss01" horiz-adv-x="255" 
d="M177 522v-522h-100v522h100zM74 709v-103h-108v103h108zM288 709v-103h-108v103h108z" />
    <glyph glyph-name="odieresis.ss01" horiz-adv-x="602" 
d="M301 534q113 0 183 -78t70 -195q0 -122 -67.5 -197.5t-185.5 -75.5q-117 0 -185.5 76.5t-68.5 196.5t69 196.5t185 76.5zM301 448q-69 0 -109.5 -49t-40.5 -136q0 -90 39.5 -140t110.5 -50t110 50t39 140q0 87 -40.5 136t-108.5 49zM248 709v-103h-108v103h108zM462 709
v-103h-108v103h108z" />
    <glyph glyph-name="divide.ss01" 
d="M363 171v-122h-124v122h124zM363 539v-122h-124v122h124zM499 337v-89h-399v89h399z" />
    <glyph glyph-name="udieresis.ss01" horiz-adv-x="576" 
d="M499 522v-522h-100v60q-28 -34 -68 -53t-82 -19q-83 0 -130 46t-47 134v354h100v-332q0 -61 22.5 -88t73.5 -27q58 0 94.5 39t36.5 106v302h100zM233 709v-103h-108v103h108zM447 709v-103h-108v103h108z" />
    <glyph glyph-name="ydieresis.ss01" horiz-adv-x="501" 
d="M489 522l-175 -556q-24 -74 -62 -110t-118 -36q-36 0 -61 6v79q19 -2 42 -2q53 0 74.5 20.5t35.5 76.5h-33l-179 522h109l137 -444l127 444h103zM198 709v-103h-108v103h108zM412 709v-103h-108v103h108z" />
    <glyph glyph-name="ij.ss01" horiz-adv-x="526" 
d="M449 522v-549q0 -77 -42.5 -115t-103.5 -38q-31 0 -57 6v80q12 -1 22 -1q48 0 64.5 19.5t16.5 81.5v516h100zM455 718v-106h-114v106h114zM177 522v-522h-100v522h100zM184 718v-106h-114v106h114z" />
    <glyph glyph-name="Ydieresis.ss01" horiz-adv-x="611" 
d="M599 700l-242 -418v-282h-102v280l-242 420h116l179 -325l178 325h113zM253 871v-103h-108v103h108zM467 871v-103h-108v103h108z" />
    <glyph glyph-name="uni02BB.ss01" horiz-adv-x="281" 
d="M87 510v116l68 153h62l-44 -153h32v-116h-118z" />
    <glyph glyph-name="uni02BC.ss01" horiz-adv-x="281" 
d="M192 745v-116l-68 -153h-62l44 153h-32v116h118z" />
    <glyph glyph-name="uni0307.ss01" horiz-adv-x="1" 
d="M-30 718v-106h-114v106h114z" />
    <glyph glyph-name="uni0308.ss01" horiz-adv-x="1" 
d="M-244 709v-103h-108v103h108zM-30 709v-103h-108v103h108z" />
    <glyph glyph-name="uni0326.ss01" horiz-adv-x="1" 
d="M-30 -76v-97l-51 -111h-52l30 111h-28v97h101z" />
    <glyph glyph-name="quoteleft.ss01" horiz-adv-x="280" 
d="M87 510v116l68 153h62l-44 -153h32v-116h-118z" />
    <glyph glyph-name="quoteright.ss01" horiz-adv-x="280" 
d="M192 745v-116l-68 -153h-62l44 153h-32v116h118z" />
    <glyph glyph-name="quotesinglbase.ss01" horiz-adv-x="280" 
d="M192 116v-116l-68 -153h-62l44 153h-32v116h118z" />
    <glyph glyph-name="quotedblleft.ss01" horiz-adv-x="468" 
d="M275 510v116l68 153h62l-44 -153h32v-116h-118zM87 510v116l68 153h62l-44 -153h32v-116h-118z" />
    <glyph glyph-name="quotedblright.ss01" horiz-adv-x="468" 
d="M192 745v-116l-68 -153h-62l44 153h-32v116h118zM379 745v-116l-68 -153h-62l44 153h-32v116h118z" />
    <glyph glyph-name="quotedblbase.ss01" horiz-adv-x="468" 
d="M192 116v-116l-68 -153h-62l44 153h-32v116h118zM379 116v-116l-68 -153h-62l44 153h-32v116h118z" />
    <glyph glyph-name="bullet.ss01" horiz-adv-x="338" 
d="M262 383v-183h-186v183h186z" />
    <glyph glyph-name="ellipsis.ss01" horiz-adv-x="824" 
d="M200 122v-122h-124v122h124zM475 122v-122h-124v122h124zM749 122v-122h-124v122h124z" />
    <glyph glyph-name="uni203D.ss01" horiz-adv-x="519" 
d="M259 714q63 0 110.5 -19t72 -49t36 -60.5t11.5 -59.5q0 -51 -19 -88t-46 -57.5t-54 -38.5t-46 -43.5t-19 -59.5v-32h-90l-20 274v132q-53 -26 -76 -101l-93 28q7 27 24.5 55t44.5 56t70 45.5t94 17.5zM305 481l-9 -104q6 6 29 29.5t31 34t17.5 33t9.5 46.5q0 82 -78 101
v-140zM198 0v122h124v-122h-124z" />
    <glyph glyph-name="uni2219.ss01" 
d="M393 383v-183h-186v183h186z" />
    <glyph glyph-name="dotmath.ss01" 
d="M362 357v-122h-124v122h124z" />
    <glyph glyph-name="adieresis.sc.ss01" horiz-adv-x="563" 
d="M442 0l-33 99h-261l-33 -99h-103l205 574h129l204 -574h-108zM278 502l-104 -323h209zM228 761v-103h-108v103h108zM442 761v-103h-108v103h108z" />
    <glyph glyph-name="edieresis.sc.ss01" horiz-adv-x="528" 
d="M469 574v-86h-289v-153h271v-85h-271v-164h296v-86h-394v574h387zM223 761v-103h-108v103h108zM437 761v-103h-108v103h108z" />
    <glyph glyph-name="idieresis.sc.ss01" horiz-adv-x="309" 
d="M270 574v-85h-66v-405h66v-84h-230v84h66v405h-66v85h230zM102 761v-103h-108v103h108zM316 761v-103h-108v103h108z" />
    <glyph glyph-name="odieresis.sc.ss01" horiz-adv-x="677" 
d="M338 587q50 0 97.5 -15.5t91.5 -48.5t70.5 -94t26.5 -143q0 -78 -25 -137.5t-67 -93.5t-91 -51t-103 -17q-51 0 -98 15.5t-91 48t-70.5 94t-26.5 143.5q0 78 24.5 137.5t66.5 93.5t91 51t104 17zM339 500q-85 0 -135 -56.5t-50 -155.5t48 -157t137 -58q82 0 133 57
t51 155q0 100 -47.5 157.5t-136.5 57.5zM286 761v-103h-108v103h108zM500 761v-103h-108v103h108z" />
    <glyph glyph-name="udieresis.sc.ss01" horiz-adv-x="611" 
d="M539 574v-366q0 -42 -11.5 -78.5t-37 -70t-73.5 -53t-113 -19.5q-54 0 -95.5 13.5t-66.5 35t-41.5 51.5t-22.5 59t-6 62v366h98v-364q0 -137 135 -137q136 0 136 137v364h98zM253 761v-103h-108v103h108zM467 761v-103h-108v103h108z" />
    <glyph glyph-name="ydieresis.sc.ss01" horiz-adv-x="553" 
d="M541 574l-215 -344v-230h-98v228l-215 346h113l153 -254l152 254h110zM224 761v-103h-108v103h108zM438 761v-103h-108v103h108z" />
    <glyph glyph-name="exclamdown.case.ss01" horiz-adv-x="256" 
d="M190 700v-122h-124v122h124zM163 496l20 -274v-222h-110v222l20 274h70z" />
    <glyph glyph-name="questiondown.case.ss01" horiz-adv-x="519" 
d="M326 700v-122h-124v122h124zM314 479v-38q0 -37 -18.5 -67t-44.5 -51t-52 -41t-44.5 -46.5t-18.5 -58.5q0 -52 31.5 -79t84.5 -27q105 0 148 115l93 -28q-18 -63 -78.5 -118.5t-159.5 -55.5q-61 0 -107.5 19t-70.5 49t-35.5 60.5t-11.5 59.5q0 51 19 88t46 57.5t54 38.5
t46 43.5t19 59.5v20h100z" />
    <glyph glyph-name="uni0307.case.ss01" horiz-adv-x="1" 
d="M-30 886v-106h-114v106h114z" />
    <glyph glyph-name="uni0308.case.ss01" horiz-adv-x="1" 
d="M-244 871v-103h-108v103h108zM-30 871v-103h-108v103h108z" />
    <glyph glyph-name="one.ss02" horiz-adv-x="479" 
d="M237 0v356h-166v77h27q83 0 116.5 36t42.5 105h80v-574h-100z" />
    <glyph glyph-name="onesuperior.ss02" horiz-adv-x="400" 
d="M189 330v286h-107v61h15q59 0 81 17t28 56h77v-420h-94z" />
    <glyph glyph-name="onequarter.ss02" horiz-adv-x="888" 
d="M728 712l-433 -724h-85l433 724h85zM813 420v-269h58v-74h-58v-77h-92v77h-218v76l187 267h123zM721 329l-127 -178h127v178zM189 280v286h-107v61h15q59 0 81 17t28 56h77v-420h-94z" />
    <glyph glyph-name="onehalf.ss02" horiz-adv-x="938" 
d="M728 712l-433 -724h-85l433 724h85zM740 431q72 0 114.5 -34.5t42.5 -92.5q0 -64 -48 -118t-148 -111h203v-75h-331v72q119 79 170.5 131t51.5 98q0 56 -59 56q-63 0 -65 -73h-97q1 64 43 105.5t123 41.5zM189 280v286h-107v61h15q59 0 81 17t28 56h77v-420h-94z" />
    <glyph glyph-name="uni2081.ss02" horiz-adv-x="400" 
d="M189 -162v286h-107v61h15q59 0 81 17t28 56h77v-420h-94z" />
    <glyph glyph-name="uni2150.ss02" horiz-adv-x="968" 
d="M728 712l-433 -724h-85l433 724h85zM931 420v-74q-71 -85 -104.5 -160t-47.5 -186h-103q16 120 56 196.5t111 148.5h-159v-48h-80v123h327zM189 280v286h-107v61h15q59 0 81 17t28 56h77v-420h-94z" />
    <glyph glyph-name="uni2151.ss02" horiz-adv-x="938" 
d="M728 712l-433 -724h-85l433 724h85zM722 -11q-108 0 -154 86l78 31q23 -44 78 -44q87 0 91 130q-38 -49 -109 -49q-59 0 -100.5 36.5t-41.5 103.5q0 68 48.5 108t121.5 40q81 0 129.5 -47.5t48.5 -145.5q0 -122 -48.5 -185.5t-141.5 -63.5zM734 216q34 0 54.5 19.5
t20.5 52.5t-19.5 51.5t-52.5 18.5t-53.5 -19t-20.5 -53q0 -32 19 -51t52 -19zM189 280v286h-107v61h15q59 0 81 17t28 56h77v-420h-94z" />
    <glyph glyph-name="uni2152.ss02" horiz-adv-x="1312" 
d="M725 712l-433 -724h-85l433 724h85zM725 0v286h-107v61h15q59 0 81 17t28 56h77v-420h-94zM1096 431q81 0 127 -56t46 -164q0 -109 -45.5 -164.5t-127.5 -55.5q-83 0 -128.5 55.5t-45.5 164.5t45.5 164.5t128.5 55.5zM1096 356q-40 0 -58.5 -35t-18.5 -110
q0 -74 18.5 -109.5t58.5 -35.5q78 0 78 145q0 75 -19 110t-59 35zM176 280v286h-107v61h15q59 0 81 17t28 56h77v-420h-94z" />
    <glyph glyph-name="onethird.ss02" horiz-adv-x="938" 
d="M728 712l-433 -724h-85l433 724h85zM741 431q74 0 116.5 -31.5t42.5 -81.5q0 -38 -24 -62t-65 -32q45 -5 73.5 -31t28.5 -71q0 -60 -47.5 -95.5t-126.5 -35.5q-68 0 -114.5 30.5t-60.5 85.5l87 20q16 -61 87 -61q34 0 55 15.5t21 45.5q0 28 -20.5 43.5t-54.5 15.5h-47v68
h40q30 0 50.5 13t20.5 40q0 26 -18 38.5t-46 12.5q-64 0 -80 -55l-87 14q15 52 60 83t109 31zM189 280v286h-107v61h15q59 0 81 17t28 56h77v-420h-94z" />
    <glyph glyph-name="uni2155.ss02" horiz-adv-x="948" 
d="M728 712l-433 -724h-85l433 724h85zM899 420l-11 -75h-191l-13 -90q39 35 98 35t101 -39.5t42 -104.5q0 -68 -48 -111.5t-135 -43.5q-67 0 -110 28.5t-59 74.5l84 26q21 -55 87 -55q38 0 60 22t22 55t-21 52.5t-57 19.5q-50 0 -78 -36l-82 13l33 229h278zM189 280v286
h-107v61h15q59 0 81 17t28 56h77v-420h-94z" />
    <glyph glyph-name="uni2159.ss02" horiz-adv-x="928" 
d="M728 712l-433 -724h-85l433 724h85zM742 431q108 0 148 -85l-80 -28q-18 41 -69 41q-84 0 -93 -129q38 51 111 51q59 0 101 -36t42 -100q0 -73 -47.5 -113.5t-122.5 -40.5q-80 0 -129 47t-49 148q0 118 50 181.5t138 63.5zM733 209q-32 0 -53 -19t-21 -52t20 -54t52 -21
t52 20.5t20 54.5q0 33 -18.5 52t-51.5 19zM189 280v286h-107v61h15q59 0 81 17t28 56h77v-420h-94z" />
    <glyph glyph-name="oneeighth.ss02" horiz-adv-x="938" 
d="M728 712l-433 -724h-85l433 724h85zM736 -9q-91 0 -137 37.5t-46 86.5q0 76 85 105q-61 35 -61 95q0 47 40.5 81.5t118.5 34.5t119.5 -32.5t41.5 -75.5q0 -30 -20 -55.5t-51 -38.5q56 -19 76.5 -43.5t20.5 -64.5q0 -52 -45 -91t-142 -39zM734 259l25 -7q46 22 46 61
q0 48 -67 48q-32 0 -49 -13t-17 -34t14 -33t48 -22zM736 63q44 0 66 16t22 38q0 27 -18 39.5t-72 28.5l-31 9q-51 -29 -51 -73q0 -27 21.5 -42.5t62.5 -15.5zM189 280v286h-107v61h15q59 0 81 17t28 56h77v-420h-94z" />
    <glyph glyph-name="uni215F.ss02" horiz-adv-x="588" 
d="M728 712l-433 -724h-85l433 724h85zM189 280v286h-107v61h15q59 0 81 17t28 56h77v-420h-94z" />
    <glyph glyph-name="uni2460.ss02" horiz-adv-x="900" 
d="M420 159v260h-97v55h13q54 0 74 15.5t25 51.5h70v-382h-85zM451 716q152 0 258.5 -106.5t106.5 -260.5q0 -153 -106 -259t-259 -106t-260 106t-107 259t107 260t260 107zM451 658q-128 0 -216.5 -90.5t-88.5 -218.5t88.5 -217.5t216.5 -89.5q127 0 215 89.5t88 217.5
t-88 218.5t-215 90.5z" />
    <glyph glyph-name="uni2776.ss02" horiz-adv-x="900" 
d="M451 -16q-153 0 -260 106t-107 259t107 260t260 107q152 0 258.5 -106.5t106.5 -260.5q0 -153 -106 -259t-259 -106zM420 159h85v382h-69q-10 -34 -34.5 -50t-78.5 -16v-65q64 0 97 26v-277z" />
    <glyph glyph-name="one.numr.ss02" horiz-adv-x="400" 
d="M189 280v286h-107v61h15q59 0 81 17t28 56h77v-420h-94z" />
    <glyph glyph-name="one.dnom.ss02" horiz-adv-x="400" 
d="M189 0v286h-107v61h15q59 0 81 17t28 56h77v-420h-94z" />
    <glyph glyph-name="one.tf.ss02" 
d="M303 0v481h-166v78h27q83 0 116.5 36t42.5 105h80v-700h-100z" />
    <glyph glyph-name="one.lf.ss02" horiz-adv-x="463" 
d="M244 0v464h-166v78h27q83 0 116.5 36t42.5 105h80v-683h-100z" />
    <glyph glyph-name="one.tosf.ss02" 
d="M303 0v356h-166v77h27q83 0 116.5 36t42.5 105h80v-574h-100z" />
    <glyph glyph-name="one.tf.sc.ss02" 
d="M303 0v356h-166v77h27q83 0 116.5 36t42.5 105h80v-574h-100z" />
    <glyph glyph-name="one.lf.sc.ss02" horiz-adv-x="479" 
d="M257 0v356h-166v77h27q83 0 116.5 36t42.5 105h80v-574h-100z" />
    <glyph glyph-name="circle.comp" horiz-adv-x="900" 
d="M451 716q152 0 258.5 -106.5t106.5 -260.5q0 -153 -106 -259t-259 -106t-260 106t-107 259t107 260t260 107zM451 658q-128 0 -216.5 -90.5t-88.5 -218.5t88.5 -217.5t216.5 -89.5q127 0 215 89.5t88 217.5t-88 218.5t-215 90.5z" />
    </font>
</defs>
</svg>
