<?xml version="1.0" standalone="no"?>
<!DOCTYPE svg PUBLIC "-//W3C//DTD SVG 1.1//EN" "http://www.w3.org/Graphics/SVG/1.1/DTD/svg11.dtd" >
<svg>
<metadata>
Created by FontForge 20120731 at Tue Mar  1 22:19:48 2016
 By ,,,
2015 published by Monotype GmbH
</metadata>
<defs>
<font id="RealTextOT-Demibold" horiz-adv-x="600" >
  <font-face 
    font-family="RealTextOT-Demibold"
    font-weight="600"
    font-stretch="normal"
    units-per-em="1000"
    panose-1="2 11 7 4 2 1 1 1 1 2"
    ascent="800"
    descent="-200"
    x-height="531"
    cap-height="700"
    bbox="-480 -320 1421 995"
    underline-thickness="122"
    underline-position="4"
    unicode-range="U+000D-1F310"
  />
<missing-glyph 
d="M531 700v-865h-462v865h462zM404 581h-209v-627h209v627z" />
    <glyph glyph-name="f_f" unicode="ff" horiz-adv-x="677" 
d="M604 605q-33 0 -47 -11t-14 -40v-32h131v-104h-131v-418h-146v418h-166v-418h-146v418h-72v104h72v44q0 65 48.5 106.5t140.5 41.5q87 0 168 -40q45 40 133 40q58 0 121 -19v-106q-50 16 -92 16zM397 522v42q0 9 2 27q-49 22 -104 22q-64 0 -64 -59v-32h166z" />
    <glyph glyph-name="f_f_i" unicode="ffi" horiz-adv-x="912" 
d="M541 522h308v-522h-146v418h-162v-418h-146v418h-164v-418h-146v418h-72v104h72v44q0 65 48.5 106.5t140.5 41.5q87 0 167 -40q51 40 152 40q79 0 144 -24v-107q-52 22 -115 22q-44 0 -62.5 -11t-18.5 -40v-32zM395 522v52q0 11 1 16q-46 20 -101 20q-64 0 -64 -56v-32
h164z" />
    <glyph glyph-name="f_f_j" unicode="ffj" horiz-adv-x="912" 
d="M541 522h308v-535q0 -89 -48 -132t-120 -43q-46 0 -75 7v107q12 -1 20 -1q44 0 60.5 20t16.5 80v393h-162v-418h-146v418h-164v-418h-146v418h-72v104h72v44q0 65 48.5 106.5t140.5 41.5q87 0 167 -40q51 40 152 40q79 0 144 -24v-107q-52 22 -115 22q-44 0 -62.5 -11
t-18.5 -40v-32zM395 522v52q0 11 1 16q-46 20 -101 20q-64 0 -64 -56v-32h164z" />
    <glyph glyph-name="f_f_l" unicode="ffl" horiz-adv-x="931" 
d="M887 107q10 0 20 1v-107q-29 -8 -74 -8q-137 0 -137 150v450q-42 12 -85 12q-37 0 -53.5 -11t-16.5 -40v-32h89v-104h-89v-418h-146v418h-164v-418h-146v418h-72v104h72v44q0 65 48.5 106.5t140.5 41.5q86 0 166 -39q47 39 139 39q55 0 119 -18l144 7v-539q0 -37 7 -47
t38 -10zM395 522v52q0 11 1 16q-46 20 -101 20q-64 0 -64 -56v-32h164z" />
    <glyph glyph-name="f_i" unicode="fi" horiz-adv-x="602" 
d="M283 714q79 0 144 -24v-107q-52 22 -115 22q-44 0 -62.5 -11t-18.5 -40v-32h308v-522h-146v418h-162v-418h-146v418h-72v104h72v52q0 65 48.5 102.5t149.5 37.5z" />
    <glyph glyph-name="f_j" unicode="fj" horiz-adv-x="602" 
d="M283 714q79 0 144 -24v-107q-52 22 -115 22q-44 0 -62.5 -11t-18.5 -40v-32h308v-535q0 -89 -48 -132t-120 -43q-46 0 -75 7v107q12 -1 20 -1q44 0 60.5 20t16.5 80v393h-162v-418h-146v418h-72v104h72v52q0 65 48.5 102.5t149.5 37.5z" />
    <glyph glyph-name="f_l" unicode="fl" horiz-adv-x="621" 
d="M269 714q55 0 119 -18l144 7v-539q0 -37 7 -47t38 -10q10 0 20 1v-107q-29 -8 -74 -8q-137 0 -137 150v450q-42 12 -85 12q-37 0 -53.5 -11t-16.5 -40v-32h89v-104h-89v-418h-146v418h-72v104h72v52q0 64 46 102t138 38z" />
    <glyph glyph-name=".notdef" 
d="M531 700v-865h-462v865h462zM404 581h-209v-627h209v627z" />
    <glyph glyph-name=".null" horiz-adv-x="0" 
 />
    <glyph glyph-name="nonmarkingreturn" horiz-adv-x="333" 
 />
    <glyph glyph-name="CR" unicode="&#xd;" horiz-adv-x="238" 
 />
    <glyph glyph-name="space" unicode=" " horiz-adv-x="238" 
 />
    <glyph glyph-name="exclam" unicode="!" horiz-adv-x="279" 
d="M219 703v-208l-22 -268h-117l-21 268v208h160zM140 163q37 0 63.5 -26.5t26.5 -63.5q0 -35 -26.5 -61.5t-63.5 -26.5t-64 26.5t-27 62.5q0 37 27 63t64 26z" />
    <glyph glyph-name="quotedbl" unicode="&#x22;" horiz-adv-x="468" 
d="M191 716v-319h-130v319h130zM406 716v-319h-130v319h130z" />
    <glyph glyph-name="numbersign" unicode="#" 
d="M560 437h-85l-29 -203h73v-93h-86l-20 -141h-110l20 141h-91l-20 -141h-109l20 141h-71v93h85l29 203h-73v94h86l22 151h109l-22 -151h91l22 151h109l-21 -151h71v-94zM337 234l29 203h-91l-29 -203h91z" />
    <glyph glyph-name="dollar" unicode="$" horiz-adv-x="660" 
d="M384 834v-119q145 -16 238 -121l-103 -81q-56 69 -143 83v-177q140 -27 198 -76t58 -139q0 -93 -66 -151.5t-182 -68.5v-133h-92v133q-170 11 -265 129l95 88q76 -87 178 -96v192q-129 26 -187 78t-58 139t64 140.5t173 61.5v118h92zM301 436v162q-89 -11 -89 -79
q0 -32 17.5 -50.5t71.5 -32.5zM376 281v-177q48 6 73.5 29t25.5 59q0 33 -19 53.5t-80 35.5z" />
    <glyph glyph-name="percent" unicode="%" horiz-adv-x="1029" 
d="M226 717q86 0 140.5 -60t54.5 -171q0 -116 -54 -174t-141 -58q-88 0 -141.5 58t-53.5 174q0 112 54 171.5t141 59.5zM783 712l-433 -724h-109l433 724h109zM226 630q-86 0 -86 -142q0 -147 86 -147q85 0 85 145q0 144 -85 144zM803 448q86 0 140.5 -60t54.5 -172
q0 -116 -54 -174t-141 -58q-88 0 -141.5 58t-53.5 174q0 112 54 172t141 60zM804 360q-86 0 -86 -143q0 -145 86 -145q85 0 85 144t-85 144z" />
    <glyph glyph-name="ampersand" unicode="&#x26;" horiz-adv-x="723" 
d="M303 -14q-111 0 -191.5 57t-80.5 167q0 120 136 190q-44 44 -64 77.5t-20 74.5q0 79 61 122t157 43t152.5 -44t56.5 -110q0 -55 -31.5 -96.5t-118.5 -85.5l157 -146q18 58 11 141h136q0 -78 -11.5 -129t-41.5 -98q35 -27 105 -47l-41 -116q-91 19 -151 72
q-91 -72 -221 -72zM282 453q50 27 69.5 48t19.5 54q0 25 -20.5 42t-52.5 17q-34 0 -54.5 -17t-20.5 -45q0 -25 12 -45t47 -54zM314 108q75 0 121 33l-190 183q-62 -43 -62 -107q0 -52 34.5 -80.5t96.5 -28.5z" />
    <glyph glyph-name="quotesingle" unicode="'" horiz-adv-x="252" 
d="M191 716v-319h-130v319h130z" />
    <glyph glyph-name="parenleft" unicode="(" horiz-adv-x="318" 
d="M183 780h114q-54 -135 -78 -237.5t-24 -239.5t24 -238.5t78 -237.5h-114q-143 233 -143 476q0 244 143 477z" />
    <glyph glyph-name="parenright" unicode=")" horiz-adv-x="318" 
d="M21 780h114q143 -233 143 -477q0 -243 -143 -476h-114q54 136 78 237.5t24 238.5t-24 239.5t-78 237.5z" />
    <glyph glyph-name="asterisk" unicode="*" horiz-adv-x="476" 
d="M302 716l-19 -146l131 62l40 -122l-143 -25l104 -104l-106 -76l-71 127l-68 -129l-107 74l102 108l-144 25l40 122l132 -62l-20 146h129z" />
    <glyph glyph-name="plus" unicode="+" 
d="M370 505v-154h145v-118h-145v-154h-140v154h-145v118h145v154h140z" />
    <glyph glyph-name="comma" unicode="," horiz-adv-x="301" 
d="M149 173q42 0 69 -27.5t27 -70.5q0 -129 -117 -249l-76 40q44 71 50 141q-47 30 -47 80q0 35 27 60.5t67 25.5z" />
    <glyph glyph-name="hyphen" unicode="-" horiz-adv-x="376" 
d="M335 369v-123h-294v123h294z" />
    <glyph glyph-name="period" unicode="." horiz-adv-x="301" 
d="M151 173q38 0 66 -27.5t28 -66.5q0 -38 -28 -65.5t-66 -27.5t-66.5 28t-28.5 66t28.5 65.5t66.5 27.5z" />
    <glyph glyph-name="slash" unicode="/" horiz-adv-x="542" 
d="M510 775l-352 -939h-125l353 939h124z" />
    <glyph glyph-name="zero" unicode="0" horiz-adv-x="638" 
d="M319 598q133 0 211.5 -84t78.5 -225t-78.5 -222t-211.5 -81t-211 81t-78 222t78.5 225t210.5 84zM319 481q-66 0 -102 -51t-36 -141q0 -89 36 -137.5t102 -48.5t102 48t36 138q0 89 -36.5 140.5t-101.5 51.5z" />
    <glyph glyph-name="one" unicode="1" horiz-adv-x="497" 
d="M47 0v117h161v234h-162v100h21q87 0 123 32t47 97h117v-463h132v-117h-439z" />
    <glyph glyph-name="two" unicode="2" horiz-adv-x="572" 
d="M293 595q104 0 169.5 -53.5t65.5 -137.5q0 -89 -59 -149.5t-205 -137.5h269v-117h-490v114q203 118 266 171t63 112q0 38 -23 60t-61 22q-48 0 -74 -30.5t-26 -79.5h-147q3 94 69.5 160t182.5 66z" />
    <glyph glyph-name="three" unicode="3" horiz-adv-x="575" 
d="M290 598q111 0 172.5 -53.5t61.5 -136.5q0 -62 -34.5 -104t-92.5 -55q63 -9 106 -54t43 -119q0 -102 -73 -163t-187 -61q-103 0 -174.5 52t-93.5 144l133 32q11 -54 44.5 -82.5t85.5 -28.5q51 0 83 29t32 84q0 51 -30 79.5t-81 28.5h-74v104h61q44 0 74.5 22.5t30.5 76.5
q0 46 -27.5 68t-68.5 22q-93 0 -117 -97l-133 23q18 85 87 137t172 52z" />
    <glyph glyph-name="four" unicode="4" horiz-adv-x="621" 
d="M503 580v-463h93v-117h-93v-130h-145v130h-326v119l282 461h189zM358 428l-183 -311h183v311z" />
    <glyph glyph-name="five" unicode="5" horiz-adv-x="590" 
d="M523 580l-18 -117h-285l-19 -154q57 54 143 54q88 0 152.5 -64.5t64.5 -171.5q0 -124 -73 -199.5t-203 -75.5q-101 0 -167 49.5t-91 121.5l134 39q12 -44 45 -68.5t81 -24.5q58 0 89.5 40.5t31.5 105.5q0 62 -30.5 95.5t-85.5 33.5q-72 0 -113 -62l-128 19l50 379h422z
" />
    <glyph glyph-name="six" unicode="6" horiz-adv-x="598" 
d="M315 697q164 0 233 -146l-133 -41q-30 76 -100 76q-57 0 -91.5 -55t-41.5 -160q61 83 164 83q92 0 156 -62t64 -167q0 -108 -72.5 -174t-185.5 -66q-122 0 -197.5 82t-75.5 243q0 183 75.5 285t204.5 102zM305 340q-49 0 -79 -33t-30 -87q0 -53 30.5 -87t78.5 -34
q50 0 80 33.5t30 89.5q0 52 -28.5 85t-81.5 33z" />
    <glyph glyph-name="seven" unicode="7" horiz-adv-x="521" 
d="M514 580v-118q-113 -143 -174 -276t-80 -316h-158q10 106 36 195.5t67.5 161.5t81.5 123.5t97 111.5h-246v-80h-125v198h501z" />
    <glyph glyph-name="eight" unicode="8" horiz-adv-x="613" 
d="M304 697q117 0 182 -55.5t65 -128.5q0 -92 -104 -138q61 -23 100 -69t39 -112q0 -37 -14.5 -72t-45 -66.5t-88 -51t-134.5 -19.5q-139 0 -208 62t-69 144q0 118 125 171q-49 30 -69 66.5t-20 85.5q0 73 62.5 128t178.5 55zM304 587q-42 0 -68 -22t-26 -58q0 -33 22 -52.5
t73 -34.5l34 -10q65 43 65 97q0 32 -27 56t-73 24zM298 304l-41 14q-78 -46 -78 -116q0 -45 34.5 -74t91.5 -29q65 0 97 30.5t32 70.5q0 29 -19 49t-38.5 28t-66.5 23q-8 3 -12 4z" />
    <glyph glyph-name="nine" unicode="9" horiz-adv-x="602" 
d="M297 598q123 0 197.5 -81t74.5 -254q0 -204 -74.5 -307.5t-215.5 -103.5q-176 0 -244 143l124 52q38 -80 122 -80q64 0 99.5 60t41.5 168q-62 -81 -166 -81q-91 0 -155.5 64.5t-64.5 173.5q0 113 74 179.5t187 66.5zM300 482q-50 0 -81 -33t-31 -93q0 -54 28.5 -89.5
t80.5 -35.5q49 0 79 35t30 91q0 61 -29 93t-77 32z" />
    <glyph glyph-name="colon" unicode=":" horiz-adv-x="301" 
d="M151 527q38 0 66 -27.5t28 -66.5q0 -38 -28 -65.5t-66 -27.5t-66.5 28t-28.5 66t28.5 65.5t66.5 27.5zM151 173q38 0 66 -27.5t28 -66.5q0 -38 -28 -65.5t-66 -27.5t-66.5 28t-28.5 66t28.5 65.5t66.5 27.5z" />
    <glyph glyph-name="semicolon" unicode=";" horiz-adv-x="301" 
d="M149 173q42 0 69 -27.5t27 -70.5q0 -129 -117 -249l-76 40q44 71 50 141q-47 30 -47 80q0 35 27 60.5t67 25.5zM149 527q38 0 66 -27.5t28 -66.5q0 -38 -28 -65.5t-66 -27.5t-66.5 28t-28.5 66t28.5 65.5t66.5 27.5z" />
    <glyph glyph-name="less" unicode="&#x3c;" 
d="M496 539v-143l-295 -107l295 -108v-143l-392 171v159z" />
    <glyph glyph-name="equal" unicode="=" 
d="M515 475v-123h-430v123h430zM515 253v-123h-430v123h430z" />
    <glyph glyph-name="greater" unicode="&#x3e;" 
d="M104 539l392 -171v-159l-392 -171v143l294 108l-294 107v143z" />
    <glyph glyph-name="question" unicode="?" horiz-adv-x="534" 
d="M273 714q115 0 176.5 -56.5t61.5 -133.5q0 -43 -14 -76.5t-35.5 -52t-46 -36t-46 -30.5t-35.5 -32.5t-14 -44.5v-25h-133v41q0 40 17 71.5t41.5 51.5t49.5 37.5t42 39.5t17 48q0 38 -23 58t-63 20q-83 0 -118 -94l-132 36q21 73 85.5 125.5t169.5 52.5zM257 163
q37 0 63.5 -26.5t26.5 -63.5q0 -35 -26.5 -61.5t-63.5 -26.5t-64 26.5t-27 62.5q0 37 27 63t64 26z" />
    <glyph glyph-name="at" unicode="@" horiz-adv-x="1051" 
d="M554 717q196 0 312 -108t116 -274q0 -53 -12.5 -105t-38 -100.5t-72.5 -78.5t-109 -30q-59 0 -88.5 28t-34.5 68q-24 -45 -69 -70t-102 -25q-82 0 -133 57t-51 148q0 127 74.5 209.5t177.5 82.5q43 0 77 -17.5t50 -49.5l7 41h104l-52 -310q-12 -70 44 -70q52 0 82.5 66
t30.5 162q0 125 -84.5 205.5t-230.5 80.5q-166 0 -268.5 -106t-102.5 -270q0 -150 89.5 -246.5t232.5 -96.5q106 0 201 32l31 -89q-117 -39 -231 -39q-196 0 -317 122t-121 315q0 206 136 337t352 131zM536 414q-63 0 -97 -56.5t-34 -136.5q0 -95 79 -95q52 0 90.5 49.5
t38.5 144.5q0 94 -77 94z" />
    <glyph glyph-name="A" unicode="A" horiz-adv-x="648" 
d="M485 0l-32 110h-264l-32 -110h-156l227 700h192l227 -700h-162zM321 583l-98 -351h196z" />
    <glyph glyph-name="B" unicode="B" horiz-adv-x="663" 
d="M483 378q158 -31 158 -176q0 -92 -68.5 -147t-211.5 -55h-290v700h251q148 0 214.5 -45.5t66.5 -133.5q0 -113 -120 -143zM333 579h-110v-160h126q44 0 71 20t27 62q0 43 -28.5 60.5t-85.5 17.5zM223 121h144q52 0 83.5 23t31.5 69q0 98 -117 98h-142v-190z" />
    <glyph glyph-name="C" unicode="C" horiz-adv-x="734" 
d="M379 717q103 0 184.5 -48t122.5 -156l-148 -39q-45 115 -159 115q-84 0 -132.5 -62.5t-48.5 -174.5q0 -114 47 -177.5t136 -63.5q67 0 108.5 32.5t65.5 98.5l145 -45q-40 -105 -126 -159.5t-200 -54.5q-63 0 -120 20.5t-106 62.5t-78 115.5t-29 169.5q0 94 28 166.5
t76.5 115t107.5 63.5t126 21z" />
    <glyph glyph-name="D" unicode="D" horiz-adv-x="709" 
d="M71 700h228q76 0 141 -19t117 -58t82 -106.5t30 -156.5q0 -99 -29.5 -171.5t-80 -112t-108 -58t-122.5 -18.5h-258v700zM304 575h-80v-450h105q36 0 66.5 10t58 34.5t43.5 73t16 116.5q0 216 -209 216z" />
    <glyph glyph-name="E" unicode="E" horiz-adv-x="590" 
d="M538 700v-126h-315v-156h294v-122h-294v-170h324v-126h-476v700h467z" />
    <glyph glyph-name="F" unicode="F" horiz-adv-x="559" 
d="M527 700v-126h-304v-174h281v-123h-281v-277h-152v700h456z" />
    <glyph glyph-name="G" unicode="G" horiz-adv-x="743" 
d="M379 717q220 0 304 -187l-138 -50q-48 112 -166 112q-88 0 -134.5 -64t-46.5 -179q0 -116 45.5 -178.5t136.5 -62.5q71 0 115 36.5t44 101.5v26h-150v113h303v-385h-139v63q-71 -80 -197 -80q-60 0 -114 20t-100 61.5t-73.5 114.5t-27.5 169q0 94 27.5 166.5t75.5 116
t107.5 65t127.5 21.5z" />
    <glyph glyph-name="H" unicode="H" horiz-adv-x="724" 
d="M654 700v-700h-152v300h-279v-300h-152v700h152v-274h279v274h152z" />
    <glyph glyph-name="I" unicode="I" horiz-adv-x="399" 
d="M363 700v-121h-88v-458h88v-121h-329v121h88v458h-88v121h329z" />
    <glyph glyph-name="J" unicode="J" horiz-adv-x="410" 
d="M350 700v-476q0 -111 -52 -170.5t-176 -59.5q-50 0 -101 6v128q36 -2 55 -2q71 0 96 23.5t25 85.5v465h153z" />
    <glyph glyph-name="K" unicode="K" horiz-adv-x="684" 
d="M508 0l-197 307l-88 -98v-209h-152v700h152v-308l261 308h180l-249 -285l273 -415h-180z" />
    <glyph glyph-name="L" unicode="L" horiz-adv-x="544" 
d="M223 700v-569h303v-131h-455v700h152z" />
    <glyph glyph-name="M" unicode="M" horiz-adv-x="864" 
d="M767 700l51 -700h-146l-34 553l-124 -553h-166l-124 553l-33 -553h-145l51 700h226l110 -527l108 527h226z" />
    <glyph glyph-name="N" unicode="N" horiz-adv-x="719" 
d="M649 700v-700h-176l-264 466v-466h-138v700h176l264 -477v477h138z" />
    <glyph glyph-name="O" unicode="O" horiz-adv-x="776" 
d="M388 717q65 0 124 -19.5t111 -60.5t82.5 -115t30.5 -173q0 -92 -28.5 -164t-78 -115t-111 -65t-130.5 -22q-64 0 -123 20t-110.5 61.5t-82.5 115.5t-31 171q0 94 29 166.5t78.5 115t110 63.5t129.5 21zM388 590q-86 0 -138 -63t-52 -175q0 -114 49 -178t141 -64
q85 0 137.5 63t52.5 175q0 113 -49 177.5t-141 64.5z" />
    <glyph glyph-name="P" unicode="P" horiz-adv-x="645" 
d="M71 700h265q141 0 211 -63.5t70 -169.5q0 -112 -70.5 -174t-208.5 -62h-115v-231h-152v700zM223 354h121q116 0 116 114q0 49 -29.5 77.5t-82.5 28.5h-125v-220z" />
    <glyph glyph-name="Q" unicode="Q" horiz-adv-x="780" 
d="M388 717q65 0 124 -19.5t111 -60.5t82.5 -115t30.5 -173q0 -185 -126 -287q52 -38 146 -51l-52 -143q-128 35 -203 135q-53 -20 -113 -20q-64 0 -123 20t-110.5 61.5t-82.5 115.5t-31 171q0 94 29 166.5t78.5 115t110 63.5t129.5 21zM388 589q-86 0 -138 -63t-52 -174
q0 -114 49 -177.5t141 -63.5q85 0 137.5 62.5t52.5 174.5q0 113 -49 177t-141 64z" />
    <glyph glyph-name="R" unicode="R" horiz-adv-x="657" 
d="M71 700h266q139 0 208 -60t69 -157q0 -142 -144 -194l183 -289h-179l-154 265h-97v-265h-152v700zM347 576h-124v-193h120q114 0 114 99q0 94 -110 94z" />
    <glyph glyph-name="S" unicode="S" horiz-adv-x="658" 
d="M332 -17q-202 0 -314 130l99 91q92 -94 218 -94q61 0 99 22t38 62q0 41 -34 63t-140 41q-127 23 -186 73t-59 141q0 94 75 149.5t198 55.5q186 0 294 -124l-104 -84q-74 82 -189 82q-56 0 -87 -20t-31 -56t33 -55.5t135 -37.5q133 -23 193 -73.5t60 -144.5
q0 -103 -80 -162t-218 -59z" />
    <glyph glyph-name="T" unicode="T" horiz-adv-x="580" 
d="M565 700v-127h-198v-573h-152v573h-198v127h548z" />
    <glyph glyph-name="U" unicode="U" horiz-adv-x="698" 
d="M638 700v-442q0 -121 -71.5 -198t-217.5 -77q-148 0 -217.5 77t-69.5 198v442h152v-440q0 -78 33 -114t103 -36q135 0 135 150v440h153z" />
    <glyph glyph-name="V" unicode="V" horiz-adv-x="612" 
d="M612 700l-208 -700h-192l-211 700h162l146 -576l144 576h159z" />
    <glyph glyph-name="W" unicode="W" horiz-adv-x="863" 
d="M858 700l-145 -700h-173l-102 528l-93 -528h-179l-160 700h162l92 -550l99 550h161l103 -546l81 546h154z" />
    <glyph glyph-name="X" unicode="X" horiz-adv-x="647" 
d="M411 382l236 -382h-181l-147 272l-142 -272h-176l226 374l-202 326h174l121 -221l118 221h169z" />
    <glyph glyph-name="Y" unicode="Y" horiz-adv-x="620" 
d="M624 700l-240 -422v-278h-152v276l-240 424h173l145 -299l147 299h167z" />
    <glyph glyph-name="Z" unicode="Z" horiz-adv-x="608" 
d="M565 700v-120l-352 -454h363v-126h-555v117l357 460h-333v123h520z" />
    <glyph glyph-name="bracketleft" unicode="[" horiz-adv-x="323" 
d="M292 790v-117h-105v-728h105v-118h-251v963h251z" />
    <glyph glyph-name="backslash" unicode="\" horiz-adv-x="542" 
d="M157 775l353 -939h-125l-352 939h124z" />
    <glyph glyph-name="bracketright" unicode="]" horiz-adv-x="323" 
d="M31 673v117h251v-963h-251v118h105v728h-105z" />
    <glyph glyph-name="asciicircum" unicode="^" horiz-adv-x="627" 
d="M522 717l186 -389h-148l-114 264l-113 -264h-142l186 389h145z" />
    <glyph glyph-name="underscore" unicode="_" horiz-adv-x="578" 
d="M581 -57v-122h-585v122h585z" />
    <glyph glyph-name="grave" unicode="`" horiz-adv-x="338" 
d="M205 744l97 -151h-111l-164 151h178z" />
    <glyph glyph-name="a" unicode="a" horiz-adv-x="568" 
d="M286 545q224 0 224 -168v-261q0 -74 18 -116h-145q-12 25 -17 54q-52 -67 -155 -67q-83 0 -130.5 45t-47.5 117q0 77 51.5 121.5t168.5 59.5l111 14v23q0 43 -17 59t-64 16q-44 0 -64 -16.5t-21 -53.5h-144q2 86 63 129.5t169 43.5zM364 251l-75 -10q-57 -7 -82 -25.5
t-25 -52.5q0 -29 18 -46t53 -17q46 0 78.5 28t32.5 71v52z" />
    <glyph glyph-name="b" unicode="b" horiz-adv-x="626" 
d="M210 700v-221q53 65 145 65q106 0 171.5 -77.5t65.5 -202.5q0 -121 -66 -199.5t-168 -78.5q-101 0 -152 67v-53h-142v700h146zM318 428q-55 0 -86 -41.5t-31 -122.5q0 -80 32.5 -121t85.5 -41q55 0 87 42.5t32 119.5q0 164 -120 164z" />
    <glyph glyph-name="c" unicode="c" horiz-adv-x="573" 
d="M306 544q175 0 243 -144l-127 -50q-30 78 -108 78q-58 0 -91.5 -41t-33.5 -120q0 -80 33 -122.5t92 -42.5q82 0 115 90l126 -50q-73 -156 -249 -156q-125 0 -197.5 77.5t-72.5 201.5t73.5 201.5t196.5 77.5z" />
    <glyph glyph-name="d" unicode="d" horiz-adv-x="626" 
d="M564 700v-700h-142v58q-55 -72 -154 -72q-105 0 -168.5 78t-63.5 201q0 124 67.5 201.5t169.5 77.5q91 0 145 -59v215h146zM309 429q-57 0 -88.5 -42.5t-31.5 -120.5q0 -80 31 -121.5t89 -41.5q55 0 86 41t32 122q0 80 -32.5 121.5t-85.5 41.5z" />
    <glyph glyph-name="e" unicode="e" horiz-adv-x="589" 
d="M298 544q120 0 189 -78t69 -208v-28h-370q4 -65 37.5 -97.5t91.5 -32.5q80 0 120 69l117 -57q-80 -126 -246 -126q-125 0 -197.5 78t-72.5 201q0 125 69.5 202t192.5 77zM298 438q-49 0 -78.5 -29t-33.5 -86h220q-7 115 -108 115z" />
    <glyph glyph-name="f" unicode="f" horiz-adv-x="365" 
d="M263 714q58 0 121 -19v-106q-50 16 -92 16q-33 0 -47 -11t-14 -40v-32h131v-104h-131v-418h-146v418h-72v104h72v42q0 69 44 109.5t134 40.5z" />
    <glyph glyph-name="g" unicode="g" horiz-adv-x="586" 
d="M569 579v-119q-49 0 -75 -10q25 -35 25 -85q0 -77 -60.5 -124.5t-170.5 -47.5q-55 0 -103 16q-14 -16 -14 -31q0 -21 15 -30.5t52 -9.5h92q112 0 168.5 -43.5t56.5 -114.5q0 -79 -69.5 -123.5t-201.5 -44.5q-256 0 -256 138q0 68 76 105q-51 31 -51 89q0 56 62 96
q-71 47 -71 127q0 77 61 127t174 50q78 0 141 -29q53 64 149 64zM283 448q-45 0 -69.5 -21t-24.5 -57q0 -35 24 -55.5t69 -20.5t70 20t25 56q0 37 -24 57.5t-70 20.5zM301 26h-115q-34 -22 -34 -54q0 -30 28.5 -45t99.5 -15q126 0 126 60q0 29 -23.5 41.5t-81.5 12.5z" />
    <glyph glyph-name="h" unicode="h" horiz-adv-x="604" 
d="M210 700v-234q61 79 156 79q86 0 133 -52.5t47 -148.5v-344h-146v305q0 59 -18 88t-64 29q-48 0 -78 -36t-30 -94v-292h-146v700h146z" />
    <glyph glyph-name="i" unicode="i" horiz-adv-x="273" 
d="M210 531v-531h-146v531h146zM135 749q36 0 61.5 -24t25.5 -59q0 -34 -25.5 -58t-61.5 -24q-35 0 -60.5 24t-25.5 58q0 35 25.5 59t60.5 24z" />
    <glyph glyph-name="j" unicode="j" horiz-adv-x="273" 
d="M210 531v-544q0 -89 -48 -132t-120 -43q-45 0 -74 7v107q11 -1 20 -1q44 0 60 20t16 80v506h146zM135 749q36 0 61.5 -24t25.5 -59q0 -34 -25.5 -58t-61.5 -24q-35 0 -60.5 24t-25.5 58q0 35 25.5 59t60.5 24z" />
    <glyph glyph-name="k" unicode="k" horiz-adv-x="589" 
d="M210 700v-375l202 206h170l-204 -202l211 -329h-169l-141 230l-69 -68v-162h-146v700h146z" />
    <glyph glyph-name="l" unicode="l" horiz-adv-x="293" 
d="M204 700v-536q0 -37 7 -47t38 -10q10 0 21 1v-107q-30 -8 -75 -8q-137 0 -137 150v557h146z" />
    <glyph glyph-name="m" unicode="m" horiz-adv-x="896" 
d="M669 545q84 0 127 -52.5t43 -150.5v-342h-146v289q0 72 -15.5 102.5t-58.5 30.5q-42 0 -68.5 -34.5t-26.5 -90.5v-297h-146v289q0 74 -14.5 103.5t-58.5 29.5q-42 0 -68.5 -34.5t-26.5 -90.5v-297h-146v531h142v-62q56 76 149 76q108 0 146 -87q58 87 168 87z" />
    <glyph glyph-name="n" unicode="n" horiz-adv-x="604" 
d="M368 545q85 0 131.5 -52.5t46.5 -148.5v-344h-146v300q0 63 -18 92.5t-64 29.5q-48 0 -78 -36t-30 -94v-292h-146v531h142v-70q56 84 162 84z" />
    <glyph glyph-name="o" unicode="o" horiz-adv-x="626" 
d="M313 544q126 0 202 -79t76 -200q0 -126 -75 -202.5t-203 -76.5t-202.5 77.5t-74.5 201.5t75 201.5t202 77.5zM313 428q-58 0 -91 -41t-33 -120q0 -80 32.5 -122.5t91.5 -42.5t91.5 42.5t32.5 122.5q0 79 -33 120t-91 41z" />
    <glyph glyph-name="p" unicode="p" horiz-adv-x="625" 
d="M356 544q104 0 169 -77.5t65 -199.5q0 -124 -65 -202.5t-171 -78.5q-93 0 -145 62v-215h-145v698h141v-56q54 69 151 69zM318 428q-55 0 -86 -41t-31 -121q0 -81 32 -122.5t85 -41.5q55 0 87 43t33 123q0 77 -31 118.5t-89 41.5z" />
    <glyph glyph-name="q" unicode="q" horiz-adv-x="626" 
d="M273 545q95 0 149 -65v51h142v-698h-146v218q-53 -64 -146 -64q-106 0 -171 77.5t-65 200.5q0 125 66 202.5t171 77.5zM309 429q-57 0 -88.5 -42.5t-31.5 -120.5q0 -80 31 -121.5t89 -41.5q55 0 86.5 41t31.5 122q0 80 -32.5 121.5t-85.5 41.5z" />
    <glyph glyph-name="r" unicode="r" horiz-adv-x="402" 
d="M348 545q22 0 40 -3v-142q-19 1 -32 1q-69 0 -107.5 -40t-38.5 -141v-220h-146v531h142v-86q51 100 142 100z" />
    <glyph glyph-name="s" unicode="s" horiz-adv-x="538" 
d="M276 544q140 0 225 -80l-75 -82q-67 55 -145 55q-85 0 -85 -49q0 -25 24 -37t103 -26q98 -18 144 -57t46 -112q0 -77 -64 -123.5t-178 -46.5q-159 0 -255 91l75 86q73 -67 167 -67q102 0 102 53q0 26 -23.5 40t-104.5 28q-95 17 -140.5 56t-45.5 107q0 77 64.5 120.5
t165.5 43.5z" />
    <glyph glyph-name="t" unicode="t" horiz-adv-x="388" 
d="M231 660v-138h128v-104h-128v-249q0 -34 13.5 -49.5t48.5 -15.5q32 0 76 11v-111q-52 -18 -115 -18q-91 0 -130 41.5t-39 119.5v271h-72v104h72v138h146z" />
    <glyph glyph-name="u" unicode="u" horiz-adv-x="598" 
d="M535 531v-531h-141v63q-60 -77 -158 -77q-80 0 -128.5 46.5t-48.5 138.5v360h146v-326q0 -50 18.5 -71.5t59.5 -21.5q48 0 77 33t29 87v299h146z" />
    <glyph glyph-name="v" unicode="v" horiz-adv-x="528" 
d="M528 531l-174 -531h-179l-174 531h162l102 -411l107 411h156z" />
    <glyph glyph-name="w" unicode="w" horiz-adv-x="793" 
d="M788 531l-140 -531h-170l-80 387l-85 -387h-169l-138 531h157l71 -391l82 391h162l86 -391l74 391h150z" />
    <glyph glyph-name="x" unicode="x" horiz-adv-x="538" 
d="M517 531l-157 -241l182 -290h-173l-103 197l-102 -197h-168l180 285l-160 246h173l81 -156l83 156h164z" />
    <glyph glyph-name="y" unicode="y" horiz-adv-x="526" 
d="M525 531l-164 -550q-26 -86 -71 -127.5t-139 -41.5q-41 0 -74 7v102q24 -2 47 -2q54 0 74 16t31 65h-56l-174 531h163l107 -428l99 428h157z" />
    <glyph glyph-name="z" unicode="z" horiz-adv-x="485" 
d="M450 531v-112l-255 -300h263v-119h-442v109l258 305h-232v117h408z" />
    <glyph glyph-name="braceleft" unicode="{" horiz-adv-x="331" 
d="M313 790v-113h-16q-37 0 -49.5 -17t-12.5 -52v-181q0 -55 -29.5 -84t-65.5 -34q36 -5 65.5 -34.5t29.5 -84.5v-179q0 -35 12.5 -52t49.5 -17h16v-113h-56q-80 0 -124.5 42t-44.5 110v190q0 48 -13.5 67.5t-46.5 26.5v88q34 7 47 26t13 67v192q0 68 44.5 110t124.5 42h56z
" />
    <glyph glyph-name="bar" unicode="|" horiz-adv-x="316" 
d="M214 774v-939h-112v939h112z" />
    <glyph glyph-name="braceright" unicode="}" horiz-adv-x="331" 
d="M18 677v113h56q80 0 124.5 -42t44.5 -110v-192q0 -48 13 -67t47 -26v-88q-33 -7 -46.5 -26.5t-13.5 -67.5v-190q0 -68 -44.5 -110t-124.5 -42h-56v113h16q37 0 49.5 17t12.5 52v179q0 55 29.5 84.5t65.5 34.5q-36 5 -65.5 34t-29.5 84v181q0 35 -12.5 52t-49.5 17h-16z
" />
    <glyph glyph-name="asciitilde" unicode="~" 
d="M215 398q50 0 104 -29t72 -29q48 0 81 56l75 -65q-24 -45 -65 -75.5t-97 -30.5q-48 0 -103 29t-73 29q-49 0 -81 -57l-75 65q59 107 162 107z" />
    <glyph glyph-name="uni00A0" unicode="&#xa0;" horiz-adv-x="238" 
 />
    <glyph glyph-name="exclamdown" unicode="&#xa1;" horiz-adv-x="279" 
d="M139 543q36 0 62.5 -26t26.5 -62t-26.5 -62t-62.5 -26t-62.5 26t-26.5 62t26.5 62t62.5 26zM197 294l22 -251v-208h-160v208l21 251h117z" />
    <glyph glyph-name="cent" unicode="&#xa2;" 
d="M439 181l112 -41q-56 -134 -202 -152v-137h-86v138q-102 14 -158.5 88.5t-56.5 187.5t57 187t158 89v127h86v-126q143 -17 195 -141l-110 -45q-15 38 -37 58t-58 26v-349q70 13 100 90zM181 267q0 -155 92 -174v345q-92 -20 -92 -171z" />
    <glyph glyph-name="sterling" unicode="&#xa3;" horiz-adv-x="660" 
d="M373 717q85 0 142 -40t80 -109l-131 -42q-11 41 -31.5 59.5t-58.5 18.5q-40 0 -64 -25t-24 -69v-133h194v-78h-194v-56q0 -45 -9.5 -72t-38.5 -49h330v-122h-473l-16 111q38 15 51 42.5t13 88.5v57h-81v78h81v144q0 83 60.5 139.5t169.5 56.5z" />
    <glyph glyph-name="currency" unicode="&#xa4;" horiz-adv-x="638" 
d="M93 585l103 -103q59 31 123 31q69 0 124 -31l102 102l78 -78l-99 -99q33 -58 33 -125q0 -69 -34 -126l100 -99l-78 -78l-103 102q-57 -30 -122 -30q-67 0 -124 30l-103 -103l-78 78l101 101q-34 57 -34 125q0 66 33 124l-100 101zM319 405q-51 0 -79 -32.5t-28 -90.5
t28.5 -90.5t79.5 -32.5q50 0 78.5 32.5t28.5 90.5t-28.5 90.5t-79.5 32.5z" />
    <glyph glyph-name="yen" unicode="&#xa5;" horiz-adv-x="660" 
d="M646 700l-210 -362h120v-78h-150v-51h150v-78h-150v-131h-152v131h-150v78h150v51h-150v78h119l-209 362h174l144 -299l146 299h168z" />
    <glyph glyph-name="brokenbar" unicode="&#xa6;" horiz-adv-x="316" 
d="M214 774v-369h-112v369h112zM214 204v-369h-112v369h112z" />
    <glyph glyph-name="section" unicode="&#xa7;" 
d="M304 715q133 0 218 -80l-77 -78q-59 51 -136 51q-82 0 -82 -47q0 -25 24.5 -38.5t97.5 -26.5q99 -19 147.5 -58t48.5 -108q0 -42 -20.5 -72.5t-64.5 -62.5q58 -40 58 -112q0 -78 -63 -120.5t-163 -42.5q-135 0 -225 85l77 76q64 -54 145 -54q83 0 83 48q0 25 -23.5 38.5
t-92.5 26.5q-102 19 -151.5 59.5t-49.5 109.5q0 42 20.5 72.5t64.5 61.5q-59 42 -59 112q0 76 62.5 118t160.5 42zM231 405q-35 -40 -35 -78q0 -31 25.5 -51t98.5 -34l49 -9q35 41 35 80q0 31 -24.5 50.5t-91.5 31.5q-10 2 -29 5t-28 5z" />
    <glyph glyph-name="dieresis" unicode="&#xa8;" horiz-adv-x="464" 
d="M114 753q33 0 57 -23.5t24 -56.5q0 -32 -24.5 -55.5t-56.5 -23.5t-56.5 23.5t-24.5 55.5q0 33 24 56.5t57 23.5zM351 753q33 0 57 -23.5t24 -56.5q0 -32 -24.5 -55.5t-56.5 -23.5t-56.5 23.5t-24.5 55.5q0 33 24 56.5t57 23.5z" />
    <glyph glyph-name="copyright" unicode="&#xa9;" horiz-adv-x="900" 
d="M451 717q159 0 265.5 -106.5t106.5 -261.5t-106 -260.5t-266 -105.5q-159 0 -266 105.5t-107 260.5t107 261.5t266 106.5zM451 647q-128 0 -211 -87.5t-83 -210.5t83 -209.5t211 -86.5t210 86t82 210t-82 211t-210 87zM450 570q132 0 183 -123l-91 -25q-27 70 -92 70
q-48 0 -76 -36.5t-28 -104.5q0 -65 27.5 -103t78.5 -38q72 0 99 77l89 -28q-54 -127 -189 -127q-89 0 -145.5 60t-56.5 159q0 111 60 165t141 54z" />
    <glyph glyph-name="ordfeminine" unicode="&#xaa;" horiz-adv-x="437" 
d="M222 717q172 0 172 -126v-195q0 -55 14 -88h-114q-8 16 -13 40q-39 -50 -118 -50q-64 0 -100 33.5t-36 88.5q0 58 39.5 91.5t129.5 44.5l83 10v18q0 30 -12 41.5t-47 11.5q-33 0 -47.5 -11.5t-15.5 -38.5h-114q2 64 48.5 97t130.5 33zM279 495l-55 -8q-44 -7 -61.5 -19.5
t-17.5 -36.5q0 -45 53 -45q34 0 57.5 20t23.5 51v38z" />
    <glyph glyph-name="guillemotleft" unicode="&#xab;" horiz-adv-x="535" 
d="M181 511l84 -59l-98 -174l98 -174l-84 -59l-150 168v130zM420 511l84 -59l-98 -174l98 -174l-84 -59l-150 168v130z" />
    <glyph glyph-name="logicalnot" unicode="&#xac;" 
d="M515 351v-268h-145v146h-285v122h430z" />
    <glyph glyph-name="uni00AD" unicode="&#xad;" horiz-adv-x="376" 
d="M335 369v-123h-294v123h294z" />
    <glyph glyph-name="registered" unicode="&#xae;" horiz-adv-x="900" 
d="M451 717q159 0 265.5 -106.5t106.5 -261.5t-106 -260.5t-266 -105.5q-159 0 -266 105.5t-107 260.5t107 261.5t266 106.5zM451 647q-128 0 -211 -87.5t-83 -210.5t83 -209.5t211 -86.5t210 86t82 210t-82 211t-210 87zM297 566h166q78 0 120.5 -34t42.5 -94
q0 -42 -25 -71.5t-62 -40.5l100 -167h-109l-84 152h-56v-152h-93v407zM465 491h-75v-109h72q66 0 66 55q0 26 -17.5 40t-45.5 14z" />
    <glyph glyph-name="macron" unicode="&#xaf;" horiz-adv-x="417" 
d="M387 717v-99h-357v99h357z" />
    <glyph glyph-name="degree" unicode="&#xb0;" horiz-adv-x="525" 
d="M263 715q79 0 137.5 -51t58.5 -135t-58.5 -134.5t-137.5 -50.5t-138 51t-59 135t59 134.5t138 50.5zM264 622q-34 0 -57.5 -23.5t-23.5 -68.5q0 -46 23.5 -69.5t57.5 -23.5q33 0 56.5 23.5t23.5 68.5t-23.5 69t-56.5 24z" />
    <glyph glyph-name="plusminus" unicode="&#xb1;" 
d="M373 534v-154h145v-118h-145v-102h-140v102h-145v118h145v154h140zM512 123v-123h-430v123h430z" />
    <glyph glyph-name="twosuperior" unicode="&#xb2;" horiz-adv-x="400" 
d="M201 763q74 0 117.5 -36t43.5 -93q0 -64 -43 -113.5t-139 -101.5h187v-89h-336v86q123 83 167.5 127t44.5 88q0 45 -46 45q-52 0 -52 -70h-113q0 70 43 113.5t126 43.5z" />
    <glyph glyph-name="threesuperior" unicode="&#xb3;" horiz-adv-x="400" 
d="M203 762q76 0 119 -32t43 -83q0 -73 -83 -93q43 -6 69.5 -31.5t26.5 -68.5q0 -62 -48 -98.5t-129 -36.5q-71 0 -118.5 31.5t-61.5 90.5l104 24q14 -58 75 -58q28 0 45 13.5t17 38.5q0 24 -17.5 37t-46.5 13h-45v80h37q61 0 61 45q0 41 -51 41q-52 0 -67 -48l-104 16
q13 53 59.5 86t114.5 33z" />
    <glyph glyph-name="acute" unicode="&#xb4;" horiz-adv-x="338" 
d="M311 744l-164 -151h-111l97 151h178z" />
    <glyph glyph-name="mu" unicode="&#xb5;" horiz-adv-x="603" 
d="M540 531v-531h-141v57q-43 -69 -119 -69q-47 0 -79 30v-185h-137v698h146v-321q0 -53 19.5 -76.5t58.5 -23.5q47 0 76.5 33.5t29.5 88.5v299h146z" />
    <glyph glyph-name="paragraph" unicode="&#xb6;" 
d="M543 700v-862h-91v780h-103v-780h-92v460q-92 7 -147.5 63.5t-55.5 136.5q0 88 61 145t170 57h258z" />
    <glyph glyph-name="periodcentered" unicode="&#xb7;" horiz-adv-x="301" 
d="M151 395q38 0 66 -27.5t28 -66.5q0 -38 -28 -65.5t-66 -27.5t-66.5 28t-28.5 66t28.5 65.5t66.5 27.5z" />
    <glyph glyph-name="cedilla" unicode="&#xb8;" horiz-adv-x="331" 
d="M193 10l-1 -54q52 -5 81.5 -30t29.5 -62q0 -51 -41 -79t-107 -28q-71 0 -125 28l34 70q39 -17 76 -17q49 0 49 30q0 21 -25 29t-79 8l17 105h91z" />
    <glyph glyph-name="onesuperior" unicode="&#xb9;" horiz-adv-x="400" 
d="M64 330v89h106v180h-108v74h10q61 0 87.5 20t31.5 57h89v-331h84v-89h-300z" />
    <glyph glyph-name="ordmasculine" unicode="&#xba;" horiz-adv-x="487" 
d="M243 718q96 0 154.5 -60t58.5 -151q0 -95 -57.5 -152.5t-155.5 -57.5q-99 0 -156.5 58.5t-57.5 151.5q0 94 57.5 152.5t156.5 58.5zM243 627q-44 0 -68.5 -30t-24.5 -88q0 -59 24 -90t69 -31q44 0 68.5 31t24.5 90q0 58 -25 88t-68 30z" />
    <glyph glyph-name="guillemotright" unicode="&#xbb;" horiz-adv-x="535" 
d="M354 511l150 -168v-130l-150 -168l-84 59l98 174l-98 174zM115 511l150 -168v-130l-150 -168l-84 59l98 174l-98 174z" />
    <glyph glyph-name="onequarter" unicode="&#xbc;" horiz-adv-x="952" 
d="M792 712l-433 -724h-109l433 724h109zM883 420v-263h55v-88h-55v-69h-108v69h-210v91l175 260h143zM774 309l-103 -152h103v152zM64 280v89h106v180h-108v74h10q61 0 87.5 20t31.5 57h89v-331h84v-89h-300z" />
    <glyph glyph-name="onehalf" unicode="&#xbd;" horiz-adv-x="1002" 
d="M792 712l-433 -724h-109l433 724h109zM803 433q74 0 117.5 -36t43.5 -93q0 -64 -43 -113.5t-139 -101.5h187v-89h-336v86q123 83 167.5 127t44.5 88q0 45 -46 45q-52 0 -52 -70h-113q0 70 43 113.5t126 43.5zM64 280v89h106v180h-108v74h10q61 0 87.5 20t31.5 57h89v-331
h84v-89h-300z" />
    <glyph glyph-name="threequarters" unicode="&#xbe;" horiz-adv-x="912" 
d="M752 712l-433 -724h-109l433 724h109zM843 420v-263h55v-88h-55v-69h-108v69h-210v91l175 260h143zM734 309l-103 -152h103v152zM203 712q76 0 119 -32t43 -83q0 -73 -83 -93q43 -6 69.5 -31.5t26.5 -68.5q0 -62 -48 -98.5t-129 -36.5q-71 0 -118.5 31.5t-61.5 90.5
l104 24q14 -58 75 -58q28 0 45 13.5t17 38.5q0 24 -17.5 37t-46.5 13h-45v80h37q61 0 61 45q0 41 -51 41q-52 0 -67 -48l-104 16q13 53 59.5 86t114.5 33z" />
    <glyph glyph-name="questiondown" unicode="&#xbf;" horiz-adv-x="534" 
d="M277 543q36 0 62.5 -26t26.5 -62t-26.5 -62t-62.5 -26t-62.5 26t-26.5 62t26.5 62t62.5 26zM347 300v-38q0 -40 -17 -71.5t-41.5 -51.5t-49.5 -37.5t-42 -39.5t-17 -48q0 -37 23 -57t63 -20q83 0 117 94l133 -36q-21 -73 -85.5 -126t-169.5 -53q-114 0 -176 57t-62 133
q0 43 14 76.5t35 52t46 36.5t46 30.5t35 32.5t14 45v21h134z" />
    <glyph glyph-name="Agrave" unicode="&#xc0;" horiz-adv-x="648" 
d="M485 0l-32 110h-264l-32 -110h-156l227 700h192l227 -700h-162zM321 583l-98 -351h196zM296 902l99 -149h-114l-169 149h184z" />
    <glyph glyph-name="Aacute" unicode="&#xc1;" horiz-adv-x="648" 
d="M485 0l-32 110h-264l-32 -110h-156l227 700h192l227 -700h-162zM321 583l-98 -351h196zM543 902l-168 -149h-115l99 149h184z" />
    <glyph glyph-name="Acircumflex" unicode="&#xc2;" horiz-adv-x="648" 
d="M485 0l-32 110h-264l-32 -110h-156l227 700h192l227 -700h-162zM321 583l-98 -351h196zM398 900l138 -147h-133l-79 66l-79 -66h-133l138 147h148z" />
    <glyph glyph-name="Atilde" unicode="&#xc3;" horiz-adv-x="648" 
d="M485 0l-32 110h-264l-32 -110h-156l227 700h192l227 -700h-162zM321 583l-98 -351h196zM260 896q32 0 58.5 -12t44.5 -24t29 -12q28 0 44 36h79q-7 -60 -42.5 -96t-85.5 -36q-33 0 -59.5 12t-44.5 24t-29 12q-28 0 -44 -35h-78q9 61 42.5 96t85.5 35z" />
    <glyph glyph-name="Adieresis" unicode="&#xc4;" horiz-adv-x="648" 
d="M485 0l-32 110h-264l-32 -110h-156l227 700h192l227 -700h-162zM321 583l-98 -351h196zM206 913q33 0 57 -23.5t24 -56.5q0 -32 -24.5 -55.5t-56.5 -23.5t-56.5 23.5t-24.5 55.5q0 33 24 56.5t57 23.5zM443 913q33 0 57 -23.5t24 -56.5q0 -32 -24.5 -55.5t-56.5 -23.5
t-56.5 23.5t-24.5 55.5q0 33 24 56.5t57 23.5z" />
    <glyph glyph-name="Aring" unicode="&#xc5;" horiz-adv-x="648" 
d="M485 0l-32 110h-264l-32 -110h-156l227 700h192l227 -700h-162zM321 583l-98 -351h196zM324 995q56 0 96 -36t40 -93t-40 -93t-96 -36t-96 36t-40 93t40 93t96 36zM324 916q-20 0 -33 -13.5t-13 -36.5t13 -36.5t33 -13.5t33 13.5t13 36.5t-13 36.5t-33 13.5z" />
    <glyph glyph-name="AE" unicode="&#xc6;" horiz-adv-x="946" 
d="M873 700v-126h-331l25 -156h288v-122h-270l27 -170h311v-126h-448l-14 108h-262l-46 -108h-162l320 700h562zM396 578l-149 -349h197z" />
    <glyph glyph-name="Ccedilla" unicode="&#xc7;" horiz-adv-x="734" 
d="M379 717q103 0 184.5 -48t122.5 -156l-148 -39q-45 115 -159 115q-84 0 -132.5 -62.5t-48.5 -174.5q0 -114 47 -177.5t136 -63.5q67 0 108.5 32.5t65.5 98.5l145 -45q-37 -95 -110.5 -148.5t-171.5 -63.5v-29q52 -5 81.5 -30t29.5 -62q0 -51 -41 -79t-107 -28
q-71 0 -125 28l34 70q39 -17 76 -17q49 0 49 30q0 21 -25 29t-79 8l13 82q-57 7 -105.5 31.5t-89.5 67t-64.5 110.5t-23.5 155q0 94 28 166.5t76.5 115t107.5 63.5t126 21z" />
    <glyph glyph-name="Egrave" unicode="&#xc8;" horiz-adv-x="590" 
d="M538 700v-126h-315v-156h294v-122h-294v-170h324v-126h-476v700h467zM276 902l99 -149h-114l-169 149h184z" />
    <glyph glyph-name="Eacute" unicode="&#xc9;" horiz-adv-x="590" 
d="M538 700v-126h-315v-156h294v-122h-294v-170h324v-126h-476v700h467zM523 902l-168 -149h-115l99 149h184z" />
    <glyph glyph-name="Ecircumflex" unicode="&#xca;" horiz-adv-x="590" 
d="M538 700v-126h-315v-156h294v-122h-294v-170h324v-126h-476v700h467zM378 900l138 -147h-133l-79 66l-79 -66h-133l138 147h148z" />
    <glyph glyph-name="Edieresis" unicode="&#xcb;" horiz-adv-x="590" 
d="M538 700v-126h-315v-156h294v-122h-294v-170h324v-126h-476v700h467zM186 913q33 0 57 -23.5t24 -56.5q0 -32 -24.5 -55.5t-56.5 -23.5t-56.5 23.5t-24.5 55.5q0 33 24 56.5t57 23.5zM423 913q33 0 57 -23.5t24 -56.5q0 -32 -24.5 -55.5t-56.5 -23.5t-56.5 23.5
t-24.5 55.5q0 33 24 56.5t57 23.5z" />
    <glyph glyph-name="Igrave" unicode="&#xcc;" horiz-adv-x="399" 
d="M363 700v-121h-88v-458h88v-121h-329v121h88v458h-88v121h329zM170 902l99 -149h-114l-169 149h184z" />
    <glyph glyph-name="Iacute" unicode="&#xcd;" horiz-adv-x="399" 
d="M363 700v-121h-88v-458h88v-121h-329v121h88v458h-88v121h329zM417 902l-168 -149h-115l99 149h184z" />
    <glyph glyph-name="Icircumflex" unicode="&#xce;" horiz-adv-x="399" 
d="M363 700v-121h-88v-458h88v-121h-329v121h88v458h-88v121h329zM272 900l138 -147h-133l-79 66l-79 -66h-133l138 147h148z" />
    <glyph glyph-name="Idieresis" unicode="&#xcf;" horiz-adv-x="399" 
d="M363 700v-121h-88v-458h88v-121h-329v121h88v458h-88v121h329zM80 913q33 0 57 -23.5t24 -56.5q0 -32 -24.5 -55.5t-56.5 -23.5t-56.5 23.5t-24.5 55.5q0 33 24 56.5t57 23.5zM317 913q33 0 57 -23.5t24 -56.5q0 -32 -24.5 -55.5t-56.5 -23.5t-56.5 23.5t-24.5 55.5
q0 33 24 56.5t57 23.5z" />
    <glyph glyph-name="Eth" unicode="&#xd0;" horiz-adv-x="732" 
d="M94 700h228q76 0 141 -19t117 -58t82 -106.5t30 -156.5q0 -99 -29.5 -171.5t-80 -112t-108 -58t-122.5 -18.5h-258v314h-71v103h71v283zM247 125h105q36 0 66.5 10t58 34.5t43.5 73t16 116.5q0 216 -209 216h-80v-158h154v-103h-154v-189z" />
    <glyph glyph-name="Ntilde" unicode="&#xd1;" horiz-adv-x="719" 
d="M649 700v-700h-176l-264 466v-466h-138v700h176l264 -477v477h138zM296 896q32 0 58.5 -12t44.5 -24t29 -12q28 0 44 36h79q-7 -60 -42.5 -96t-85.5 -36q-33 0 -59.5 12t-44.5 24t-29 12q-28 0 -44 -35h-78q9 61 42.5 96t85.5 35z" />
    <glyph glyph-name="Ograve" unicode="&#xd2;" horiz-adv-x="776" 
d="M388 717q65 0 124 -19.5t111 -60.5t82.5 -115t30.5 -173q0 -92 -28.5 -164t-78 -115t-111 -65t-130.5 -22q-64 0 -123 20t-110.5 61.5t-82.5 115.5t-31 171q0 94 29 166.5t78.5 115t110 63.5t129.5 21zM388 590q-86 0 -138 -63t-52 -175q0 -114 49 -178t141 -64
q85 0 137.5 63t52.5 175q0 113 -49 177.5t-141 64.5zM360 902l99 -149h-114l-169 149h184z" />
    <glyph glyph-name="Oacute" unicode="&#xd3;" horiz-adv-x="776" 
d="M388 717q65 0 124 -19.5t111 -60.5t82.5 -115t30.5 -173q0 -92 -28.5 -164t-78 -115t-111 -65t-130.5 -22q-64 0 -123 20t-110.5 61.5t-82.5 115.5t-31 171q0 94 29 166.5t78.5 115t110 63.5t129.5 21zM388 590q-86 0 -138 -63t-52 -175q0 -114 49 -178t141 -64
q85 0 137.5 63t52.5 175q0 113 -49 177.5t-141 64.5zM607 902l-168 -149h-115l99 149h184z" />
    <glyph glyph-name="Ocircumflex" unicode="&#xd4;" horiz-adv-x="776" 
d="M388 717q65 0 124 -19.5t111 -60.5t82.5 -115t30.5 -173q0 -92 -28.5 -164t-78 -115t-111 -65t-130.5 -22q-64 0 -123 20t-110.5 61.5t-82.5 115.5t-31 171q0 94 29 166.5t78.5 115t110 63.5t129.5 21zM388 590q-86 0 -138 -63t-52 -175q0 -114 49 -178t141 -64
q85 0 137.5 63t52.5 175q0 113 -49 177.5t-141 64.5zM462 900l138 -147h-133l-79 66l-79 -66h-133l138 147h148z" />
    <glyph glyph-name="Otilde" unicode="&#xd5;" horiz-adv-x="776" 
d="M388 717q65 0 124 -19.5t111 -60.5t82.5 -115t30.5 -173q0 -92 -28.5 -164t-78 -115t-111 -65t-130.5 -22q-64 0 -123 20t-110.5 61.5t-82.5 115.5t-31 171q0 94 29 166.5t78.5 115t110 63.5t129.5 21zM388 590q-86 0 -138 -63t-52 -175q0 -114 49 -178t141 -64
q85 0 137.5 63t52.5 175q0 113 -49 177.5t-141 64.5zM324 896q32 0 58.5 -12t44.5 -24t29 -12q28 0 44 36h79q-7 -60 -42.5 -96t-85.5 -36q-32 0 -59 12t-45 24t-29 12q-28 0 -44 -35h-78q9 61 42.5 96t85.5 35z" />
    <glyph glyph-name="Odieresis" unicode="&#xd6;" horiz-adv-x="776" 
d="M388 717q65 0 124 -19.5t111 -60.5t82.5 -115t30.5 -173q0 -92 -28.5 -164t-78 -115t-111 -65t-130.5 -22q-64 0 -123 20t-110.5 61.5t-82.5 115.5t-31 171q0 94 29 166.5t78.5 115t110 63.5t129.5 21zM388 590q-86 0 -138 -63t-52 -175q0 -114 49 -178t141 -64
q85 0 137.5 63t52.5 175q0 113 -49 177.5t-141 64.5zM270 913q33 0 57 -23.5t24 -56.5q0 -32 -24.5 -55.5t-56.5 -23.5t-56.5 23.5t-24.5 55.5q0 33 24 56.5t57 23.5zM507 913q33 0 57 -23.5t24 -56.5q0 -32 -24.5 -55.5t-56.5 -23.5t-56.5 23.5t-24.5 55.5q0 33 24 56.5
t57 23.5z" />
    <glyph glyph-name="multiply" unicode="&#xd7;" 
d="M444 508l87 -86l-145 -145l145 -144l-87 -86l-144 144l-144 -144l-87 86l145 144l-145 145l87 86l144 -145z" />
    <glyph glyph-name="Oslash" unicode="&#xd8;" horiz-adv-x="776" 
d="M719 759l-84 -135q101 -98 101 -275q0 -92 -28.5 -164t-78 -115t-111 -65t-130.5 -22q-76 0 -145 28l-62 -101h-123l99 154q-116 99 -116 287q0 94 29 166.5t78.5 115t110 63.5t129.5 21q89 0 161 -34l49 76h121zM388 589q-86 0 -138 -63t-52 -174q0 -114 43 -173
l247 386q-40 24 -100 24zM388 111q85 0 137.5 62.5t52.5 174.5q0 97 -32 156l-240 -378q34 -15 82 -15z" />
    <glyph glyph-name="Ugrave" unicode="&#xd9;" horiz-adv-x="698" 
d="M638 700v-442q0 -121 -71.5 -198t-217.5 -77q-148 0 -217.5 77t-69.5 198v442h152v-440q0 -78 33 -114t103 -36q135 0 135 150v440h153zM321 902l99 -149h-114l-169 149h184z" />
    <glyph glyph-name="Uacute" unicode="&#xda;" horiz-adv-x="698" 
d="M638 700v-442q0 -121 -71.5 -198t-217.5 -77q-148 0 -217.5 77t-69.5 198v442h152v-440q0 -78 33 -114t103 -36q135 0 135 150v440h153zM568 902l-168 -149h-115l99 149h184z" />
    <glyph glyph-name="Ucircumflex" unicode="&#xdb;" horiz-adv-x="698" 
d="M638 700v-442q0 -121 -71.5 -198t-217.5 -77q-148 0 -217.5 77t-69.5 198v442h152v-440q0 -78 33 -114t103 -36q135 0 135 150v440h153zM423 900l138 -147h-133l-79 66l-79 -66h-133l138 147h148z" />
    <glyph glyph-name="Udieresis" unicode="&#xdc;" horiz-adv-x="698" 
d="M638 700v-442q0 -121 -71.5 -198t-217.5 -77q-148 0 -217.5 77t-69.5 198v442h152v-440q0 -78 33 -114t103 -36q135 0 135 150v440h153zM231 913q33 0 57 -23.5t24 -56.5q0 -32 -24.5 -55.5t-56.5 -23.5t-56.5 23.5t-24.5 55.5q0 33 24 56.5t57 23.5zM468 913
q33 0 57 -23.5t24 -56.5q0 -32 -24.5 -55.5t-56.5 -23.5t-56.5 23.5t-24.5 55.5q0 33 24 56.5t57 23.5z" />
    <glyph glyph-name="Yacute" unicode="&#xdd;" horiz-adv-x="620" 
d="M624 700l-240 -422v-278h-152v276l-240 424h173l145 -299l147 299h167zM528 902l-168 -149h-115l99 149h184z" />
    <glyph glyph-name="Thorn" unicode="&#xde;" horiz-adv-x="645" 
d="M223 700v-109h113q141 0 211 -65t70 -173q0 -113 -70.5 -176.5t-208.5 -63.5h-115v-113h-152v700h152zM348 465h-125v-229h122q51 0 83 28t32 90q0 51 -30 81t-82 30z" />
    <glyph glyph-name="germandbls" unicode="&#xdf;" horiz-adv-x="619" 
d="M294 714q107 0 162.5 -44.5t55.5 -109.5q0 -32 -14.5 -58.5t-32 -40t-32 -31t-14.5 -33.5q0 -18 19.5 -31t46.5 -25t54.5 -29.5t47 -53.5t19.5 -87q0 -76 -54 -129.5t-159 -53.5q-91 0 -158 51l62 94q35 -29 86 -29q71 0 71 68q0 28 -18 47.5t-44 32.5t-52.5 27t-44.5 39
t-18 61q0 28 15 52.5t32.5 39t32.5 34t15 39.5q0 30 -22.5 44t-54.5 14q-42 0 -63.5 -25.5t-21.5 -72.5v-504h-146v500q0 99 60 156.5t170 57.5z" />
    <glyph glyph-name="agrave" unicode="&#xe0;" horiz-adv-x="568" 
d="M286 545q224 0 224 -168v-261q0 -74 18 -116h-145q-12 25 -17 54q-52 -67 -155 -67q-83 0 -130.5 45t-47.5 117q0 77 51.5 121.5t168.5 59.5l111 14v23q0 43 -17 59t-64 16q-44 0 -64 -16.5t-21 -53.5h-144q2 86 63 129.5t169 43.5zM364 251l-75 -10q-57 -7 -82 -25.5
t-25 -52.5q0 -29 18 -46t53 -17q46 0 78.5 28t32.5 71v52zM261 744l97 -151h-111l-164 151h178z" />
    <glyph glyph-name="aacute" unicode="&#xe1;" horiz-adv-x="568" 
d="M286 545q224 0 224 -168v-261q0 -74 18 -116h-145q-12 25 -17 54q-52 -67 -155 -67q-83 0 -130.5 45t-47.5 117q0 77 51.5 121.5t168.5 59.5l111 14v23q0 43 -17 59t-64 16q-44 0 -64 -16.5t-21 -53.5h-144q2 86 63 129.5t169 43.5zM364 251l-75 -10q-57 -7 -82 -25.5
t-25 -52.5q0 -29 18 -46t53 -17q46 0 78.5 28t32.5 71v52zM498 744l-164 -151h-111l97 151h178z" />
    <glyph glyph-name="acircumflex" unicode="&#xe2;" horiz-adv-x="568" 
d="M286 545q224 0 224 -168v-261q0 -74 18 -116h-145q-12 25 -17 54q-52 -67 -155 -67q-83 0 -130.5 45t-47.5 117q0 77 51.5 121.5t168.5 59.5l111 14v23q0 43 -17 59t-64 16q-44 0 -64 -16.5t-21 -53.5h-144q2 86 63 129.5t169 43.5zM364 251l-75 -10q-57 -7 -82 -25.5
t-25 -52.5q0 -29 18 -46t53 -17q46 0 78.5 28t32.5 71v52zM365 744l138 -151h-133l-79 73l-79 -73h-133l138 151h148z" />
    <glyph glyph-name="atilde" unicode="&#xe3;" horiz-adv-x="568" 
d="M286 545q224 0 224 -168v-261q0 -74 18 -116h-145q-12 25 -17 54q-52 -67 -155 -67q-83 0 -130.5 45t-47.5 117q0 77 51.5 121.5t168.5 59.5l111 14v23q0 43 -17 59t-64 16q-44 0 -64 -16.5t-21 -53.5h-144q2 86 63 129.5t169 43.5zM364 251l-75 -10q-57 -7 -82 -25.5
t-25 -52.5q0 -29 18 -46t53 -17q46 0 78.5 28t32.5 71v52zM227 736q32 0 58.5 -12t44.5 -24t29 -12q28 0 44 36h79q-7 -60 -42.5 -96t-85.5 -36q-32 0 -59 12t-45 24t-29 12q-28 0 -44 -35h-78q9 61 42.5 96t85.5 35z" />
    <glyph glyph-name="adieresis" unicode="&#xe4;" horiz-adv-x="568" 
d="M286 545q224 0 224 -168v-261q0 -74 18 -116h-145q-12 25 -17 54q-52 -67 -155 -67q-83 0 -130.5 45t-47.5 117q0 77 51.5 121.5t168.5 59.5l111 14v23q0 43 -17 59t-64 16q-44 0 -64 -16.5t-21 -53.5h-144q2 86 63 129.5t169 43.5zM364 251l-75 -10q-57 -7 -82 -25.5
t-25 -52.5q0 -29 18 -46t53 -17q46 0 78.5 28t32.5 71v52zM173 753q33 0 57 -23.5t24 -56.5q0 -32 -24.5 -55.5t-56.5 -23.5t-56.5 23.5t-24.5 55.5q0 33 24 56.5t57 23.5zM410 753q33 0 57 -23.5t24 -56.5q0 -32 -24.5 -55.5t-56.5 -23.5t-56.5 23.5t-24.5 55.5
q0 33 24 56.5t57 23.5z" />
    <glyph glyph-name="aring" unicode="&#xe5;" horiz-adv-x="568" 
d="M286 545q224 0 224 -168v-261q0 -74 18 -116h-145q-12 25 -17 54q-52 -67 -155 -67q-83 0 -130.5 45t-47.5 117q0 77 51.5 121.5t168.5 59.5l111 14v23q0 43 -17 59t-64 16q-44 0 -64 -16.5t-21 -53.5h-144q2 86 63 129.5t169 43.5zM364 251l-75 -10q-57 -7 -82 -25.5
t-25 -52.5q0 -29 18 -46t53 -17q46 0 78.5 28t32.5 71v52zM291 842q56 0 96 -36t40 -92q0 -57 -40 -93t-96 -36t-96 36t-40 93q0 56 40 92t96 36zM291 764q-20 0 -33 -13.5t-13 -36.5t13.5 -37t32.5 -14t32.5 14t13.5 37t-13 36.5t-33 13.5z" />
    <glyph glyph-name="ae" unicode="&#xe6;" horiz-adv-x="904" 
d="M615 544q119 0 187.5 -78t68.5 -208v-28h-368q4 -65 37 -97.5t90 -32.5q80 0 120 69l117 -57q-79 -126 -244 -126q-135 0 -203 98q-69 -97 -201 -97q-88 0 -137 44.5t-49 116.5q0 78 51.5 123.5t168.5 58.5l122 14q2 15 11 44q-8 29 -31.5 41.5t-69.5 12.5t-66 -16.5
t-21 -53.5h-144q2 86 61 129.5t166 43.5q74 0 110 -16.5t61 -48.5q25 26 68 45t95 19zM616 438q-49 0 -78.5 -29t-33.5 -86h220q-7 115 -108 115zM371 251l-87 -11q-53 -6 -77.5 -24.5t-24.5 -53.5q0 -62 72 -62q44 0 80.5 24.5t41.5 54.5q-5 34 -5 72z" />
    <glyph glyph-name="ccedilla" unicode="&#xe7;" horiz-adv-x="573" 
d="M306 544q175 0 243 -144l-127 -50q-30 78 -108 78q-58 0 -91.5 -41t-33.5 -120q0 -80 33 -122.5t92 -42.5q82 0 115 90l126 -50q-64 -137 -212 -154v-32q52 -5 81.5 -30t29.5 -62q0 -51 -41 -79t-107 -28q-71 0 -125 28l34 70q39 -17 76 -17q49 0 49 30q0 21 -25 29
t-79 8l14 86q-100 17 -157 91t-57 183q0 124 73.5 201.5t196.5 77.5z" />
    <glyph glyph-name="egrave" unicode="&#xe8;" horiz-adv-x="589" 
d="M298 544q120 0 189 -78t69 -208v-28h-370q4 -65 37.5 -97.5t91.5 -32.5q80 0 120 69l117 -57q-80 -126 -246 -126q-125 0 -197.5 78t-72.5 201q0 125 69.5 202t192.5 77zM298 438q-49 0 -78.5 -29t-33.5 -86h220q-7 115 -108 115zM267 744l97 -151h-111l-164 151h178z
" />
    <glyph glyph-name="eacute" unicode="&#xe9;" horiz-adv-x="589" 
d="M298 544q120 0 189 -78t69 -208v-28h-370q4 -65 37.5 -97.5t91.5 -32.5q80 0 120 69l117 -57q-80 -126 -246 -126q-125 0 -197.5 78t-72.5 201q0 125 69.5 202t192.5 77zM298 438q-49 0 -78.5 -29t-33.5 -86h220q-7 115 -108 115zM504 744l-164 -151h-111l97 151h178z
" />
    <glyph glyph-name="ecircumflex" unicode="&#xea;" horiz-adv-x="589" 
d="M298 544q120 0 189 -78t69 -208v-28h-370q4 -65 37.5 -97.5t91.5 -32.5q80 0 120 69l117 -57q-80 -126 -246 -126q-125 0 -197.5 78t-72.5 201q0 125 69.5 202t192.5 77zM298 438q-49 0 -78.5 -29t-33.5 -86h220q-7 115 -108 115zM371 744l138 -151h-133l-79 73l-79 -73
h-133l138 151h148z" />
    <glyph glyph-name="edieresis" unicode="&#xeb;" horiz-adv-x="589" 
d="M298 544q120 0 189 -78t69 -208v-28h-370q4 -65 37.5 -97.5t91.5 -32.5q80 0 120 69l117 -57q-80 -126 -246 -126q-125 0 -197.5 78t-72.5 201q0 125 69.5 202t192.5 77zM298 438q-49 0 -78.5 -29t-33.5 -86h220q-7 115 -108 115zM179 753q33 0 57 -23.5t24 -56.5
q0 -32 -24.5 -55.5t-56.5 -23.5t-56.5 23.5t-24.5 55.5q0 33 24 56.5t57 23.5zM416 753q33 0 57 -23.5t24 -56.5q0 -32 -24.5 -55.5t-56.5 -23.5t-56.5 23.5t-24.5 55.5q0 33 24 56.5t57 23.5z" />
    <glyph glyph-name="igrave" unicode="&#xec;" horiz-adv-x="273" 
d="M210 531v-531h-146v531h146zM106 744l97 -151h-111l-164 151h178z" />
    <glyph glyph-name="iacute" unicode="&#xed;" horiz-adv-x="273" 
d="M210 531v-531h-146v531h146zM343 744l-164 -151h-111l97 151h178z" />
    <glyph glyph-name="icircumflex" unicode="&#xee;" horiz-adv-x="273" 
d="M210 531v-531h-146v531h146zM210 744l138 -151h-133l-79 73l-79 -73h-133l138 151h148z" />
    <glyph glyph-name="idieresis" unicode="&#xef;" horiz-adv-x="273" 
d="M210 531v-531h-146v531h146zM18 753q33 0 57 -23.5t24 -56.5q0 -32 -24.5 -55.5t-56.5 -23.5t-56.5 23.5t-24.5 55.5q0 33 24 56.5t57 23.5zM255 753q33 0 57 -23.5t24 -56.5q0 -32 -24.5 -55.5t-56.5 -23.5t-56.5 23.5t-24.5 55.5q0 33 24 56.5t57 23.5z" />
    <glyph glyph-name="eth" unicode="&#xf0;" horiz-adv-x="607" 
d="M440 760l-60 -94q192 -90 192 -351q0 -166 -74.5 -249t-199.5 -83q-119 0 -190.5 65.5t-71.5 176.5q0 110 65 172t160 62q114 0 168 -79q-7 136 -110 191l-42 -65h-100l60 93q-45 10 -116 12l25 105q86 -5 153 -22l42 66h99zM301 99q50 0 80.5 33t30.5 91q0 56 -31 88.5
t-83 32.5q-55 0 -83.5 -33.5t-28.5 -86.5q0 -60 31 -92.5t84 -32.5z" />
    <glyph glyph-name="ntilde" unicode="&#xf1;" horiz-adv-x="604" 
d="M368 545q85 0 131.5 -52.5t46.5 -148.5v-344h-146v300q0 63 -18 92.5t-64 29.5q-48 0 -78 -36t-30 -94v-292h-146v531h142v-70q56 84 162 84zM259 736q32 0 58.5 -12t44.5 -24t29 -12q28 0 44 36h79q-7 -60 -42.5 -96t-85.5 -36q-32 0 -59 12t-45 24t-29 12
q-28 0 -44 -35h-78q9 61 42.5 96t85.5 35z" />
    <glyph glyph-name="ograve" unicode="&#xf2;" horiz-adv-x="626" 
d="M313 544q126 0 202 -79t76 -200q0 -126 -75 -202.5t-203 -76.5t-202.5 77.5t-74.5 201.5t75 201.5t202 77.5zM313 428q-58 0 -91 -41t-33 -120q0 -80 32.5 -122.5t91.5 -42.5t91.5 42.5t32.5 122.5q0 79 -33 120t-91 41zM283 744l97 -151h-111l-164 151h178z" />
    <glyph glyph-name="oacute" unicode="&#xf3;" horiz-adv-x="626" 
d="M313 544q126 0 202 -79t76 -200q0 -126 -75 -202.5t-203 -76.5t-202.5 77.5t-74.5 201.5t75 201.5t202 77.5zM313 428q-58 0 -91 -41t-33 -120q0 -80 32.5 -122.5t91.5 -42.5t91.5 42.5t32.5 122.5q0 79 -33 120t-91 41zM520 744l-164 -151h-111l97 151h178z" />
    <glyph glyph-name="ocircumflex" unicode="&#xf4;" horiz-adv-x="626" 
d="M313 544q126 0 202 -79t76 -200q0 -126 -75 -202.5t-203 -76.5t-202.5 77.5t-74.5 201.5t75 201.5t202 77.5zM313 428q-58 0 -91 -41t-33 -120q0 -80 32.5 -122.5t91.5 -42.5t91.5 42.5t32.5 122.5q0 79 -33 120t-91 41zM387 744l138 -151h-133l-79 73l-79 -73h-133
l138 151h148z" />
    <glyph glyph-name="otilde" unicode="&#xf5;" horiz-adv-x="626" 
d="M313 544q126 0 202 -79t76 -200q0 -126 -75 -202.5t-203 -76.5t-202.5 77.5t-74.5 201.5t75 201.5t202 77.5zM313 428q-58 0 -91 -41t-33 -120q0 -80 32.5 -122.5t91.5 -42.5t91.5 42.5t32.5 122.5q0 79 -33 120t-91 41zM249 736q32 0 58.5 -12t44.5 -24t29 -12
q28 0 44 36h79q-7 -60 -42.5 -96t-85.5 -36q-32 0 -59 12t-45 24t-29 12q-28 0 -44 -35h-78q9 61 42.5 96t85.5 35z" />
    <glyph glyph-name="odieresis" unicode="&#xf6;" horiz-adv-x="626" 
d="M313 544q126 0 202 -79t76 -200q0 -126 -75 -202.5t-203 -76.5t-202.5 77.5t-74.5 201.5t75 201.5t202 77.5zM313 428q-58 0 -91 -41t-33 -120q0 -80 32.5 -122.5t91.5 -42.5t91.5 42.5t32.5 122.5q0 79 -33 120t-91 41zM195 753q33 0 57 -23.5t24 -56.5
q0 -32 -24.5 -55.5t-56.5 -23.5t-56.5 23.5t-24.5 55.5q0 33 24 56.5t57 23.5zM432 753q33 0 57 -23.5t24 -56.5q0 -32 -24.5 -55.5t-56.5 -23.5t-56.5 23.5t-24.5 55.5q0 33 24 56.5t57 23.5z" />
    <glyph glyph-name="divide" unicode="&#xf7;" 
d="M301 588q37 0 63.5 -26.5t26.5 -63.5q0 -36 -26.5 -62.5t-63.5 -26.5t-64 26.5t-27 63.5t27 63t64 26zM515 361v-123h-430v123h430zM301 191q37 0 63.5 -26.5t26.5 -63.5q0 -36 -26.5 -62.5t-63.5 -26.5t-64 26.5t-27 63.5t27 63t64 26z" />
    <glyph glyph-name="oslash" unicode="&#xf8;" horiz-adv-x="626" 
d="M579 605l-76 -132q88 -82 88 -208t-75 -202.5t-203 -76.5q-56 0 -102 17l-48 -83h-114l78 129q-91 77 -91 216q0 124 75 201.5t202 77.5q57 0 106 -20l49 81h111zM314 428q-59 0 -92.5 -41t-33.5 -120q0 -67 22 -108l156 260q-22 9 -52 9zM420 365l-154 -255q22 -8 48 -8
q59 0 92 42.5t33 122.5q0 58 -19 98z" />
    <glyph glyph-name="ugrave" unicode="&#xf9;" horiz-adv-x="598" 
d="M535 531v-531h-141v63q-60 -77 -158 -77q-80 0 -128.5 46.5t-48.5 138.5v360h146v-326q0 -50 18.5 -71.5t59.5 -21.5q48 0 77 33t29 87v299h146zM267 744l97 -151h-111l-164 151h178z" />
    <glyph glyph-name="uacute" unicode="&#xfa;" horiz-adv-x="598" 
d="M535 531v-531h-141v63q-60 -77 -158 -77q-80 0 -128.5 46.5t-48.5 138.5v360h146v-326q0 -50 18.5 -71.5t59.5 -21.5q48 0 77 33t29 87v299h146zM504 744l-164 -151h-111l97 151h178z" />
    <glyph glyph-name="ucircumflex" unicode="&#xfb;" horiz-adv-x="598" 
d="M535 531v-531h-141v63q-60 -77 -158 -77q-80 0 -128.5 46.5t-48.5 138.5v360h146v-326q0 -50 18.5 -71.5t59.5 -21.5q48 0 77 33t29 87v299h146zM371 744l138 -151h-133l-79 73l-79 -73h-133l138 151h148z" />
    <glyph glyph-name="udieresis" unicode="&#xfc;" horiz-adv-x="598" 
d="M535 531v-531h-141v63q-60 -77 -158 -77q-80 0 -128.5 46.5t-48.5 138.5v360h146v-326q0 -50 18.5 -71.5t59.5 -21.5q48 0 77 33t29 87v299h146zM179 753q33 0 57 -23.5t24 -56.5q0 -32 -24.5 -55.5t-56.5 -23.5t-56.5 23.5t-24.5 55.5q0 33 24 56.5t57 23.5zM416 753
q33 0 57 -23.5t24 -56.5q0 -32 -24.5 -55.5t-56.5 -23.5t-56.5 23.5t-24.5 55.5q0 33 24 56.5t57 23.5z" />
    <glyph glyph-name="yacute" unicode="&#xfd;" horiz-adv-x="526" 
d="M525 531l-164 -550q-26 -86 -71 -127.5t-139 -41.5q-41 0 -74 7v102q24 -2 47 -2q54 0 74 16t31 65h-56l-174 531h163l107 -428l99 428h157zM471 744l-164 -151h-111l97 151h178z" />
    <glyph glyph-name="thorn" unicode="&#xfe;" horiz-adv-x="627" 
d="M210 700v-222q52 66 151 66q102 0 166.5 -77.5t64.5 -201.5q0 -121 -66 -200t-168 -79q-95 0 -148 61v-214h-146v867h146zM318 428q-54 0 -85.5 -41.5t-31.5 -122.5q0 -79 32 -120.5t85 -41.5q56 0 88 43t32 120q0 163 -120 163z" />
    <glyph glyph-name="ydieresis" unicode="&#xff;" horiz-adv-x="526" 
d="M525 531l-164 -550q-26 -86 -71 -127.5t-139 -41.5q-41 0 -74 7v102q24 -2 47 -2q54 0 74 16t31 65h-56l-174 531h163l107 -428l99 428h157zM146 753q33 0 57 -23.5t24 -56.5q0 -32 -24.5 -55.5t-56.5 -23.5t-56.5 23.5t-24.5 55.5q0 33 24 56.5t57 23.5zM383 753
q33 0 57 -23.5t24 -56.5q0 -32 -24.5 -55.5t-56.5 -23.5t-56.5 23.5t-24.5 55.5q0 33 24 56.5t57 23.5z" />
    <glyph glyph-name="dotlessi" unicode="&#x131;" horiz-adv-x="273" 
d="M210 531v-531h-146v531h146z" />
    <glyph glyph-name="IJ" unicode="&#x132;" horiz-adv-x="821" 
d="M363 700v-121h-88v-458h88v-121h-329v121h88v458h-88v121h329zM761 700v-476q0 -111 -52 -170.5t-176 -59.5q-50 0 -101 6v128q36 -2 55 -2q71 0 96 23.5t25 85.5v465h153z" />
    <glyph glyph-name="ij" unicode="&#x133;" horiz-adv-x="558" 
d="M495 531v-544q0 -89 -48 -132t-120 -43q-45 0 -74 7v107q11 -1 20 -1q44 0 60 20t16 80v506h146zM420 749q36 0 61.5 -24t25.5 -59q0 -34 -25.5 -58t-61.5 -24q-35 0 -60.5 24t-25.5 58q0 35 25.5 59t60.5 24zM210 531v-531h-146v531h146zM135 749q36 0 61.5 -24
t25.5 -59q0 -34 -25.5 -58t-61.5 -24q-35 0 -60.5 24t-25.5 58q0 35 25.5 59t60.5 24z" />
    <glyph glyph-name="Lslash" unicode="&#x141;" horiz-adv-x="571" 
d="M246 131h303v-131h-455v257l-71 -38v107l71 38v336h152v-255l158 84v-106l-158 -85v-207z" />
    <glyph glyph-name="lslash" unicode="&#x142;" horiz-adv-x="305" 
d="M290 373l-76 -41v-168q0 -37 7 -47t38 -10q10 0 21 1v-107q-30 -8 -75 -8q-137 0 -137 150v109l-53 -29v102l53 29v346h146v-266l76 42v-103z" />
    <glyph glyph-name="OE" unicode="&#x152;" horiz-adv-x="984" 
d="M388 717q71 0 128 -17h417v-126h-305v-157h284v-120h-284v-171h314v-126h-433q-55 -17 -121 -17q-64 0 -123 20t-110.5 61.5t-82.5 115.5t-31 171q0 94 29 166.5t78.5 115t110 63.5t129.5 21zM388 591q-86 0 -138 -63.5t-52 -175.5q0 -114 49 -178.5t141 -64.5
q52 0 87 16v452q-34 14 -87 14z" />
    <glyph glyph-name="oe" unicode="&#x153;" horiz-adv-x="992" 
d="M708 545q117 0 184 -77t67 -204v-36h-370q10 -128 128 -128q79 0 122 67l115 -58q-80 -123 -243 -123q-134 0 -201 96q-72 -96 -200 -96q-127 0 -200.5 77.5t-73.5 201.5t74.5 201.5t200.5 77.5q134 0 201 -97q69 98 196 98zM700 436q-95 0 -110 -108h218
q-14 108 -108 108zM312 428q-58 0 -90.5 -41t-32.5 -120q0 -80 32 -122.5t91 -42.5t92 42.5t33 122.5q0 79 -33.5 120t-91.5 41z" />
    <glyph glyph-name="Scaron" unicode="&#x160;" horiz-adv-x="658" 
d="M332 -17q-202 0 -314 130l99 91q92 -94 218 -94q61 0 99 22t38 62q0 41 -34 63t-140 41q-127 23 -186 73t-59 141q0 94 75 149.5t198 55.5q186 0 294 -124l-104 -84q-74 82 -189 82q-56 0 -87 -20t-31 -56t33 -55.5t135 -37.5q133 -23 193 -73.5t60 -144.5
q0 -103 -80 -162t-218 -59zM543 910l-138 -147h-148l-138 147h133l79 -65l79 65h133z" />
    <glyph glyph-name="scaron" unicode="&#x161;" horiz-adv-x="538" 
d="M276 544q140 0 225 -80l-75 -82q-67 55 -145 55q-85 0 -85 -49q0 -25 24 -37t103 -26q98 -18 144 -57t46 -112q0 -77 -64 -123.5t-178 -46.5q-159 0 -255 91l75 86q73 -67 167 -67q102 0 102 53q0 26 -23.5 40t-104.5 28q-95 17 -140.5 56t-45.5 107q0 77 64.5 120.5
t165.5 43.5zM489 754l-138 -151h-148l-138 151h133l79 -72l79 72h133z" />
    <glyph glyph-name="Ydieresis" unicode="&#x178;" horiz-adv-x="620" 
d="M624 700l-240 -422v-278h-152v276l-240 424h173l145 -299l147 299h167zM191 913q33 0 57 -23.5t24 -56.5q0 -32 -24.5 -55.5t-56.5 -23.5t-56.5 23.5t-24.5 55.5q0 33 24 56.5t57 23.5zM428 913q33 0 57 -23.5t24 -56.5q0 -32 -24.5 -55.5t-56.5 -23.5t-56.5 23.5
t-24.5 55.5q0 33 24 56.5t57 23.5z" />
    <glyph glyph-name="Zcaron" unicode="&#x17d;" horiz-adv-x="608" 
d="M565 700v-120l-352 -454h363v-126h-555v117l357 460h-333v123h520zM512 910l-138 -147h-148l-138 147h133l79 -65l79 65h133z" />
    <glyph glyph-name="zcaron" unicode="&#x17e;" horiz-adv-x="485" 
d="M450 531v-112l-255 -300h263v-119h-442v109l258 305h-232v117h408zM451 754l-138 -151h-148l-138 151h133l79 -72l79 72h133z" />
    <glyph glyph-name="longs" unicode="&#x17f;" horiz-adv-x="357" 
d="M263 714q45 0 102 -15v-104q-38 10 -73 10q-33 0 -47 -11t-14 -40v-554h-146v418h-72v104h72v47q0 65 44 105t134 40z" />
    <glyph glyph-name="florin" unicode="&#x192;" horiz-adv-x="327" 
d="M232 715q58 0 121 -19v-105q-47 15 -92 15q-33 0 -47 -10.5t-14 -39.5v-33h130v-104h-130v-428q0 -88 -48 -131.5t-120 -43.5q-40 0 -74 8v106q11 -1 20 -1q44 0 60 20t16 81v389h-72v104h72v52q0 65 43.5 102.5t134.5 37.5z" />
    <glyph glyph-name="uni02BB" unicode="&#x2bb;" horiz-adv-x="299" 
d="M154 463q-40 0 -65.5 26.5t-25.5 67.5q0 123 111 237l72 -38q-41 -68 -47 -135q45 -29 45 -76q0 -34 -26 -58t-64 -24z" />
    <glyph glyph-name="uni02BC" unicode="&#x2bc;" horiz-adv-x="298" 
d="M145 761q40 0 65.5 -26.5t25.5 -67.5q0 -123 -111 -237l-72 38q41 68 47 135q-45 29 -45 76q0 34 26 58t64 24z" />
    <glyph glyph-name="circumflex" unicode="&#x2c6;" horiz-adv-x="484" 
d="M316 744l138 -151h-133l-79 73l-79 -73h-133l138 151h148z" />
    <glyph glyph-name="caron" unicode="&#x2c7;" horiz-adv-x="484" 
d="M454 754l-138 -151h-148l-138 151h133l79 -72l79 72h133z" />
    <glyph glyph-name="breve" unicode="&#x2d8;" horiz-adv-x="410" 
d="M295 748h85q-12 -74 -56 -115.5t-119 -41.5q-73 0 -118.5 41.5t-56.5 115.5h85q12 -58 90 -60q77 0 90 60z" />
    <glyph glyph-name="dotaccent" unicode="&#x2d9;" horiz-adv-x="233" 
d="M118 749q36 0 61.5 -24t25.5 -59q0 -34 -25.5 -58t-61.5 -24q-35 0 -60.5 24t-25.5 58q0 35 25.5 59t60.5 24z" />
    <glyph glyph-name="ring" unicode="&#x2da;" horiz-adv-x="332" 
d="M166 842q56 0 96 -36t40 -92q0 -57 -40 -93t-96 -36t-96 36t-40 93q0 56 40 92t96 36zM166 764q-20 0 -33 -13.5t-13 -36.5t13.5 -37t32.5 -14t32.5 14t13.5 37t-13 36.5t-33 13.5z" />
    <glyph glyph-name="ogonek" unicode="&#x2db;" horiz-adv-x="315" 
d="M203 22l21 -22q-84 -52 -84 -114q0 -44 55 -44q28 0 64 12l26 -73q-52 -23 -111 -23q-68 0 -107 29.5t-39 83.5q0 49 46 89.5t129 61.5z" />
    <glyph glyph-name="tilde" unicode="&#x2dc;" horiz-adv-x="443" 
d="M158 736q32 0 58.5 -12t44.5 -24t29 -12q28 0 44 36h79q-7 -60 -42.5 -96t-85.5 -36q-32 0 -59 12t-45 24t-29 12q-28 0 -44 -35h-78q9 61 42.5 96t85.5 35z" />
    <glyph glyph-name="hungarumlaut" unicode="&#x2dd;" horiz-adv-x="510" 
d="M276 754l-142 -161h-104l87 161h159zM480 754l-150 -161h-104l94 161h160z" />
    <glyph glyph-name="gravecomb" unicode="&#x300;" horiz-adv-x="1" 
d="M-133 744l97 -151h-111l-164 151h178z" />
    <glyph glyph-name="acutecomb" unicode="&#x301;" horiz-adv-x="1" 
d="M-27 744l-164 -151h-111l97 151h178z" />
    <glyph glyph-name="uni0302" unicode="&#x302;" horiz-adv-x="1" 
d="M-168 744l138 -151h-133l-79 73l-79 -73h-133l138 151h148z" />
    <glyph glyph-name="tildecomb" unicode="&#x303;" horiz-adv-x="1" 
d="M-285 736q32 0 58.5 -12t44.5 -24t29 -12q28 0 44 36h79q-7 -60 -42.5 -96t-85.5 -36q-32 0 -59 12t-45 24t-29 12q-28 0 -44 -35h-78q9 61 42.5 96t85.5 35z" />
    <glyph glyph-name="uni0304" unicode="&#x304;" horiz-adv-x="1" 
d="M-30 717v-99h-357v99h357z" />
    <glyph glyph-name="uni0306" unicode="&#x306;" horiz-adv-x="1" 
d="M-115 748h85q-12 -74 -56 -115.5t-119 -41.5q-73 0 -118.5 41.5t-56.5 115.5h85q12 -58 90 -60q77 0 90 60z" />
    <glyph glyph-name="uni0307" unicode="&#x307;" horiz-adv-x="1" 
d="M-115 749q36 0 61.5 -24t25.5 -59q0 -34 -25.5 -58t-61.5 -24q-35 0 -60.5 24t-25.5 58q0 35 25.5 59t60.5 24z" />
    <glyph glyph-name="uni0308" unicode="&#x308;" horiz-adv-x="1" 
d="M-350 753q33 0 57 -23.5t24 -56.5q0 -32 -24.5 -55.5t-56.5 -23.5t-56.5 23.5t-24.5 55.5q0 33 24 56.5t57 23.5zM-113 753q33 0 57 -23.5t24 -56.5q0 -32 -24.5 -55.5t-56.5 -23.5t-56.5 23.5t-24.5 55.5q0 33 24 56.5t57 23.5z" />
    <glyph glyph-name="uni030A" unicode="&#x30a;" horiz-adv-x="1" 
d="M-166 842q56 0 96 -36t40 -92q0 -57 -40 -93t-96 -36t-96 36t-40 93q0 56 40 92t96 36zM-166 764q-20 0 -33 -13.5t-13 -36.5t13.5 -37t32.5 -14t32.5 14t13.5 37t-13 36.5t-33 13.5z" />
    <glyph glyph-name="uni030B" unicode="&#x30b;" horiz-adv-x="1" 
d="M-234 754l-142 -161h-104l87 161h159zM-30 754l-150 -161h-104l94 161h160z" />
    <glyph glyph-name="uni030C" unicode="&#x30c;" horiz-adv-x="1" 
d="M-30 754l-138 -151h-148l-138 151h133l79 -72l79 72h133z" />
    <glyph glyph-name="uni0326" unicode="&#x326;" horiz-adv-x="1" 
d="M-104 -60q34 0 54 -21.5t20 -53.5q0 -85 -89 -185l-60 25q32 53 39 105q-37 24 -37 62q0 28 21.5 48t51.5 20z" />
    <glyph glyph-name="uni0327" unicode="&#x327;" horiz-adv-x="1" 
d="M-138 10l-1 -54q52 -5 81.5 -30t29.5 -62q0 -51 -41 -79t-107 -28q-71 0 -125 28l34 70q39 -17 76 -17q49 0 49 30q0 21 -25 29t-79 8l17 105h91z" />
    <glyph glyph-name="uni0328" unicode="&#x328;" horiz-adv-x="1" 
d="M-112 22l21 -22q-84 -52 -84 -114q0 -44 55 -44q28 0 64 12l26 -73q-52 -23 -111 -23q-68 0 -107 29.5t-39 83.5q0 49 46 89.5t129 61.5z" />
    <glyph glyph-name="uni0394" unicode="&#x394;" horiz-adv-x="648" 
d="M420 700l227 -700h-646l227 700h192zM190 121h261l-130 461z" />
    <glyph glyph-name="uni03A9" unicode="&#x3a9;" horiz-adv-x="776" 
d="M388 717q67 0 126.5 -20t110.5 -60.5t81 -112.5t30 -167q0 -162 -107 -237h100v-120h-271v120q60 22 90.5 84.5t30.5 149.5q0 112 -50.5 173.5t-140.5 61.5q-87 0 -138.5 -60.5t-51.5 -171.5q0 -88 30 -151.5t91 -85.5v-120h-271v120h105q-112 73 -112 238q0 92 29 163
t78.5 112.5t110 62.5t129.5 21z" />
    <glyph glyph-name="uni03BC" unicode="&#x3bc;" horiz-adv-x="603" 
d="M540 531v-531h-141v57q-43 -69 -119 -69q-47 0 -79 30v-185h-137v698h146v-321q0 -53 19.5 -76.5t58.5 -23.5q47 0 76.5 33.5t29.5 88.5v299h146z" />
    <glyph glyph-name="pi" unicode="&#x3c0;" horiz-adv-x="648" 
d="M615 531v-116h-76v-415h-142v415h-145v-415h-141v415h-77v116h581z" />
    <glyph glyph-name="uni1E9E" unicode="&#x1e9e;" horiz-adv-x="707" 
d="M440 -19q-96 0 -174 36l39 107q45 -24 113 -24q44 0 77 25t33 75q0 51 -37.5 78t-131.5 45v89l126 144q-55 39 -133 39q-137 0 -137 -151v-444h-153v453q0 126 77 195.5t213 69.5q183 0 301 -135l-148 -177q81 -22 130.5 -73t49.5 -134q0 -95 -67 -156.5t-178 -61.5z" />
    <glyph glyph-name="uni2007" unicode="&#x2007;" horiz-adv-x="638" 
 />
    <glyph glyph-name="uni2008" unicode="&#x2008;" horiz-adv-x="301" 
 />
    <glyph glyph-name="uni200B" unicode="&#x200b;" horiz-adv-x="0" 
 />
    <glyph glyph-name="figuredash" unicode="&#x2012;" 
d="M562 334v-122h-524v122h524z" />
    <glyph glyph-name="endash" unicode="&#x2013;" horiz-adv-x="551" 
d="M510 369v-123h-469v123h469z" />
    <glyph glyph-name="emdash" unicode="&#x2014;" horiz-adv-x="669" 
d="M628 369v-123h-587v123h587z" />
    <glyph glyph-name="quoteleft" unicode="&#x2018;" horiz-adv-x="299" 
d="M154 463q-40 0 -65.5 26.5t-25.5 67.5q0 123 111 237l72 -38q-41 -68 -47 -135q45 -29 45 -76q0 -34 -26 -58t-64 -24z" />
    <glyph glyph-name="quoteright" unicode="&#x2019;" horiz-adv-x="298" 
d="M145 761q40 0 65.5 -26.5t25.5 -67.5q0 -123 -111 -237l-72 38q41 68 47 135q-45 29 -45 76q0 34 26 58t64 24z" />
    <glyph glyph-name="quotesinglbase" unicode="&#x201a;" horiz-adv-x="298" 
d="M145 165q40 0 65.5 -26.5t25.5 -67.5q0 -123 -111 -237l-72 38q41 68 47 135q-45 29 -45 76q0 34 26 58t64 24z" />
    <glyph glyph-name="quotedblleft" unicode="&#x201c;" horiz-adv-x="518" 
d="M373 463q-40 0 -65.5 26.5t-25.5 67.5q0 123 111 237l72 -38q-41 -68 -47 -135q45 -29 45 -76q0 -34 -26 -58t-64 -24zM154 463q-40 0 -65.5 26.5t-25.5 67.5q0 123 111 237l72 -38q-41 -68 -47 -135q45 -29 45 -76q0 -34 -26 -58t-64 -24z" />
    <glyph glyph-name="quotedblright" unicode="&#x201d;" horiz-adv-x="517" 
d="M145 760q40 0 65.5 -26.5t25.5 -67.5q0 -123 -111 -237l-72 38q41 68 47 135q-45 29 -45 76q0 34 26 58t64 24zM364 760q40 0 65.5 -26.5t25.5 -67.5q0 -123 -111 -237l-72 38q41 68 47 135q-45 29 -45 76q0 34 26 58t64 24z" />
    <glyph glyph-name="quotedblbase" unicode="&#x201e;" horiz-adv-x="517" 
d="M145 165q40 0 65.5 -26.5t25.5 -67.5q0 -123 -111 -237l-72 38q41 68 47 135q-45 29 -45 76q0 34 26 58t64 24zM364 165q40 0 65.5 -26.5t25.5 -67.5q0 -123 -111 -237l-72 38q41 68 47 135q-45 29 -45 76q0 34 26 58t64 24z" />
    <glyph glyph-name="dagger" unicode="&#x2020;" horiz-adv-x="638" 
d="M390 700v-169h162v-118h-162v-578h-144v578h-162v118h162v169h144z" />
    <glyph glyph-name="daggerdbl" unicode="&#x2021;" horiz-adv-x="638" 
d="M390 700v-197h162v-118h-162v-225h162v-118h-162v-207h-144v207h-162v118h162v225h-162v118h162v197h144z" />
    <glyph glyph-name="bullet" unicode="&#x2022;" horiz-adv-x="357" 
d="M179 415q50 0 86.5 -36t36.5 -87q0 -49 -36.5 -85t-86.5 -36t-87 36.5t-37 85.5q0 50 37 86t87 36z" />
    <glyph glyph-name="uni2023" unicode="&#x2023;" horiz-adv-x="375" 
d="M308 292l-243 -123v243z" />
    <glyph glyph-name="ellipsis" unicode="&#x2026;" horiz-adv-x="876" 
d="M142 156q35 0 60.5 -25t25.5 -60t-25.5 -60t-60.5 -25t-60.5 25.5t-25.5 60.5q0 34 25.5 59t60.5 25zM437 156q35 0 60.5 -25t25.5 -60t-25.5 -60t-60.5 -25t-60.5 25.5t-25.5 60.5q0 34 25.5 59t60.5 25zM734 156q35 0 60.5 -25t25.5 -60t-25.5 -60t-60.5 -25
t-60.5 25.5t-25.5 60.5q0 34 25.5 59t60.5 25z" />
    <glyph glyph-name="perthousand" unicode="&#x2030;" horiz-adv-x="1452" 
d="M226 717q86 0 140.5 -60t54.5 -171q0 -116 -54 -174t-141 -58q-88 0 -141.5 58t-53.5 174q0 112 54 171.5t141 59.5zM783 712l-433 -724h-109l433 724h109zM226 630q-86 0 -86 -142q0 -147 86 -147q85 0 85 145q0 144 -85 144zM803 448q86 0 140.5 -60t54.5 -172
q0 -116 -54 -174t-141 -58q-88 0 -141.5 58t-53.5 174q0 112 54 172t141 60zM1225 448q87 0 141.5 -60t54.5 -172q0 -116 -54 -174t-142 -58q-87 0 -140.5 58t-53.5 174q0 112 54 172t140 60zM804 360q-86 0 -86 -143q0 -145 86 -145q85 0 85 144t-85 144zM1226 360
q-85 0 -85 -143q0 -145 85 -145q86 0 86 144t-86 144z" />
    <glyph glyph-name="guilsinglleft" unicode="&#x2039;" horiz-adv-x="296" 
d="M181 511l84 -59l-98 -174l98 -174l-84 -59l-150 168v130z" />
    <glyph glyph-name="guilsinglright" unicode="&#x203a;" horiz-adv-x="296" 
d="M115 511l150 -168v-130l-150 -168l-84 59l98 174l-98 174z" />
    <glyph glyph-name="uni203D" unicode="&#x203d;" horiz-adv-x="534" 
d="M269 714q117 0 179.5 -56.5t62.5 -133.5q0 -48 -18.5 -84t-45.5 -57t-54 -39t-45.5 -40.5t-18.5 -51.5v-25h-120l-18 268v84q-34 -22 -54 -80l-119 37q24 73 88 125.5t163 52.5zM317 495l-10 -93q5 6 18 20t18.5 21.5t14 20t11.5 25t3 27.5q0 58 -55 75v-96zM270 163
q37 0 63.5 -26.5t26.5 -63.5q0 -35 -26.5 -61.5t-63.5 -26.5t-64 26.5t-27 62.5q0 37 27 63t64 26z" />
    <glyph glyph-name="fraction" unicode="&#x2044;" horiz-adv-x="262" 
d="M402 712l-433 -724h-109l433 724h109z" />
    <glyph glyph-name="uni2070" unicode="&#x2070;" horiz-adv-x="400" 
d="M200 763q84 0 131 -56.5t47 -164.5q0 -110 -47 -166.5t-131 -56.5q-85 0 -131.5 56.5t-46.5 166.5q0 108 46.5 164.5t131.5 56.5zM200 675q-36 0 -50.5 -32t-14.5 -100q0 -69 15 -102.5t50 -33.5q65 0 65 136q0 67 -15 99.5t-50 32.5z" />
    <glyph glyph-name="uni2074" unicode="&#x2074;" horiz-adv-x="400" 
d="M331 750v-263h55v-88h-55v-69h-108v69h-210v91l175 260h143zM222 639l-103 -152h103v152z" />
    <glyph glyph-name="uni2075" unicode="&#x2075;" horiz-adv-x="400" 
d="M355 750l-13 -86h-184l-12 -76q38 31 92 31q58 0 100 -39t42 -102q0 -71 -48.5 -115t-137.5 -44q-69 0 -113.5 29.5t-60.5 75.5l99 31q19 -50 77 -50q34 0 52 18.5t18 46.5t-17.5 44t-49.5 16q-44 0 -67 -30l-97 14l34 236h286z" />
    <glyph glyph-name="uni2076" unicode="&#x2076;" horiz-adv-x="400" 
d="M212 763q114 0 154 -90l-94 -32q-14 37 -60 37q-74 0 -85 -117q33 50 108 50q59 0 101 -37t42 -101q0 -72 -49 -113t-125 -41q-82 0 -132.5 49t-50.5 160q0 110 52 172.5t139 62.5zM206 525q-26 0 -43 -15.5t-17 -43.5t17 -44.5t40 -16.5q25 0 42 16.5t17 45.5
q0 26 -14.5 42t-41.5 16z" />
    <glyph glyph-name="uni2077" unicode="&#x2077;" horiz-adv-x="400" 
d="M368 750v-89q-68 -80 -100 -150.5t-45 -180.5h-120q15 122 53.5 193.5t105.5 136.5h-135v-48h-95v138h336z" />
    <glyph glyph-name="uni2078" unicode="&#x2078;" horiz-adv-x="400" 
d="M198 319q-94 0 -140.5 37.5t-46.5 86.5q0 75 81 106q-57 36 -57 96q0 49 42 83.5t121 34.5q80 0 123 -33.5t43 -77.5q0 -26 -16.5 -51.5t-47.5 -39.5q50 -19 69 -43.5t19 -64.5q0 -54 -45 -94t-145 -40zM199 595l22 -6q34 24 34 54q0 19 -14.5 29.5t-40.5 10.5
q-25 0 -40 -10.5t-15 -29.5q0 -18 12 -29t42 -19zM199 406q37 0 55.5 13.5t18.5 32.5q0 22 -16.5 33t-60.5 23l-33 9q-37 -27 -37 -62q0 -23 19.5 -36t53.5 -13z" />
    <glyph glyph-name="uni2079" unicode="&#x2079;" horiz-adv-x="400" 
d="M184 317q-56 0 -97.5 23.5t-60.5 63.5l92 37q20 -40 68 -40q78 0 84 119q-34 -49 -107 -49q-59 0 -100.5 37.5t-41.5 103.5q0 69 49.5 109.5t124.5 40.5q82 0 132.5 -49t50.5 -159q0 -113 -49.5 -175t-144.5 -62zM194 558q27 0 43.5 16t16.5 44q0 27 -16 42.5t-40 15.5
q-26 0 -43.5 -16t-17.5 -45q0 -25 15 -41t42 -16z" />
    <glyph glyph-name="uni207A" unicode="&#x207a;" horiz-adv-x="384" 
d="M242 665v-97h97v-85h-97v-97h-98v97h-98v85h98v97h98z" />
    <glyph glyph-name="uni207B" unicode="&#x207b;" horiz-adv-x="384" 
d="M339 568v-85h-293v85h293z" />
    <glyph glyph-name="uni207C" unicode="&#x207c;" horiz-adv-x="384" 
d="M339 640v-86h-293v86h293zM339 497v-86h-293v86h293z" />
    <glyph glyph-name="uni2080" unicode="&#x2080;" horiz-adv-x="400" 
d="M200 266q84 0 131 -56.5t47 -164.5q0 -110 -47 -166.5t-131 -56.5q-85 0 -131.5 56.5t-46.5 166.5q0 108 46.5 164.5t131.5 56.5zM200 178q-36 0 -50.5 -32t-14.5 -100q0 -69 15 -102.5t50 -33.5q65 0 65 136q0 67 -15 99.5t-50 32.5z" />
    <glyph glyph-name="uni2081" unicode="&#x2081;" horiz-adv-x="400" 
d="M64 -167v89h106v180h-108v74h10q61 0 87.5 20t31.5 57h89v-331h84v-89h-300z" />
    <glyph glyph-name="uni2082" unicode="&#x2082;" horiz-adv-x="400" 
d="M201 266q74 0 117.5 -36t43.5 -93q0 -64 -43 -113.5t-139 -101.5h187v-89h-336v86q123 83 167.5 127t44.5 88q0 45 -46 45q-52 0 -52 -70h-113q0 70 43 113.5t126 43.5z" />
    <glyph glyph-name="uni2083" unicode="&#x2083;" horiz-adv-x="400" 
d="M203 265q76 0 119 -32t43 -83q0 -73 -83 -93q43 -6 69.5 -31.5t26.5 -68.5q0 -62 -48 -98.5t-129 -36.5q-71 0 -118.5 31.5t-61.5 90.5l104 24q14 -58 75 -58q28 0 45 13.5t17 38.5q0 24 -17.5 37t-46.5 13h-45v80h37q61 0 61 45q0 41 -51 41q-52 0 -67 -48l-104 16
q13 53 59.5 86t114.5 33z" />
    <glyph glyph-name="uni2084" unicode="&#x2084;" horiz-adv-x="400" 
d="M331 253v-263h55v-88h-55v-69h-108v69h-210v91l175 260h143zM222 142l-103 -152h103v152z" />
    <glyph glyph-name="uni2085" unicode="&#x2085;" horiz-adv-x="400" 
d="M355 253l-13 -86h-184l-12 -76q38 31 92 31q58 0 100 -39t42 -102q0 -71 -48.5 -115t-137.5 -44q-69 0 -113.5 29.5t-60.5 75.5l99 31q19 -50 77 -50q34 0 52 18.5t18 46.5t-17.5 44t-49.5 16q-44 0 -67 -30l-97 14l34 236h286z" />
    <glyph glyph-name="uni2086" unicode="&#x2086;" horiz-adv-x="400" 
d="M212 266q114 0 154 -90l-94 -32q-14 37 -60 37q-74 0 -85 -117q33 50 108 50q59 0 101 -37t42 -101q0 -72 -49 -113t-125 -41q-82 0 -132.5 49t-50.5 160q0 110 52 172.5t139 62.5zM206 28q-26 0 -43 -15.5t-17 -43.5q0 -27 17 -44t40 -17q25 0 42 16.5t17 45.5
q0 26 -14.5 42t-41.5 16z" />
    <glyph glyph-name="uni2087" unicode="&#x2087;" horiz-adv-x="400" 
d="M368 253v-89q-68 -80 -100 -150.5t-45 -180.5h-120q15 122 53.5 193.5t105.5 136.5h-135v-48h-95v138h336z" />
    <glyph glyph-name="uni2088" unicode="&#x2088;" horiz-adv-x="400" 
d="M198 -178q-94 0 -140.5 37.5t-46.5 86.5q0 75 81 106q-57 36 -57 96q0 49 42 83.5t121 34.5q80 0 123 -33.5t43 -77.5q0 -26 -16.5 -51.5t-47.5 -39.5q50 -19 69 -43.5t19 -64.5q0 -54 -45 -94t-145 -40zM199 98l22 -6q34 24 34 54q0 19 -14.5 29.5t-40.5 10.5
q-25 0 -40 -10.5t-15 -29.5q0 -18 12 -29t42 -19zM199 -91q37 0 55.5 13.5t18.5 32.5q0 22 -16.5 33t-60.5 23l-33 9q-37 -27 -37 -62q0 -23 19.5 -36t53.5 -13z" />
    <glyph glyph-name="uni2089" unicode="&#x2089;" horiz-adv-x="400" 
d="M184 -180q-56 0 -97.5 23.5t-60.5 63.5l92 37q20 -40 68 -40q78 0 84 119q-34 -49 -107 -49q-59 0 -100.5 37.5t-41.5 103.5q0 69 49.5 109.5t124.5 40.5q82 0 132.5 -49t50.5 -159q0 -113 -49.5 -175t-144.5 -62zM194 61q27 0 43.5 16t16.5 44q0 27 -16 42.5t-40 15.5
q-26 0 -43.5 -16t-17.5 -45q0 -25 15 -41t42 -16z" />
    <glyph glyph-name="uni208A" unicode="&#x208a;" horiz-adv-x="384" 
d="M242 175v-97h97v-85h-97v-97h-98v97h-98v85h98v97h98z" />
    <glyph glyph-name="uni208B" unicode="&#x208b;" horiz-adv-x="384" 
d="M339 78v-85h-293v85h293z" />
    <glyph glyph-name="uni208C" unicode="&#x208c;" horiz-adv-x="384" 
d="M339 144v-86h-293v86h293zM339 1v-86h-293v86h293z" />
    <glyph glyph-name="uni208D" unicode="&#x208d;" horiz-adv-x="300" 
d="M162 296h78q-40 -73 -54.5 -126t-14.5 -123q0 -69 14.5 -122t54.5 -126h-79q-91 118 -91 248q0 131 92 249z" />
    <glyph glyph-name="uni208E" unicode="&#x208e;" horiz-adv-x="300" 
d="M70 296h78q92 -118 92 -249q0 -132 -91 -248h-79q40 73 54.5 126t14.5 122q0 70 -14.5 123t-54.5 126z" />
    <glyph glyph-name="Euro" unicode="&#x20ac;" horiz-adv-x="660" 
d="M421 717q126 0 210 -77l-45 -120q-71 76 -156 76q-123 0 -155 -141h284l-26 -79h-269v-55h250l-27 -78h-214q12 -69 48 -103.5t106 -34.5q81 0 161 65v-135q-80 -52 -179 -52q-115 0 -191.5 62.5t-98.5 197.5h-100l27 78h68q-2 27 0 55h-88l27 79h69q24 130 105.5 196
t193.5 66z" />
    <glyph glyph-name="uni20B9" unicode="&#x20b9;" 
d="M543 700v-81h-136q44 -36 56 -99h80v-79h-80q-14 -76 -79 -120t-136 -44h-17l260 -277h-178l-255 272v102h129q91 0 114 67h-243v79h249q-7 47 -41 73t-88 26h-120v81h485z" />
    <glyph glyph-name="uni20BA" unicode="&#x20ba;" 
d="M425 233h121q-5 -107 -81.5 -176.5t-207.5 -69.5q-79 0 -130 12v305l-75 -40v79l75 40v65l-75 -39v78l75 39v174h146v-97l173 91v-78l-173 -91v-65l173 92v-78l-173 -92v-277q4 -1 13 -1q116 0 139 129z" />
    <glyph glyph-name="uni20BD" unicode="&#x20bd;" 
d="M322 261h-114v-53h204v-78h-204v-130h-153v130h-51v78h51v53h-51v117h51v322h265q134 0 201 -59t67 -160q0 -106 -68 -163t-198 -57zM208 574v-196h112q111 0 111 102q0 46 -28 70t-79 24h-116z" />
    <glyph glyph-name="uni2105" unicode="&#x2105;" horiz-adv-x="900" 
d="M711 712l-433 -724h-109l433 724h109zM222 686q104 0 145 -86l-76 -31q-19 45 -66 45q-34 0 -54 -24.5t-20 -69.5q0 -46 20 -70.5t54 -24.5q49 0 70 51l76 -31q-44 -93 -149 -93q-77 0 -121.5 46.5t-44.5 121.5q0 73 44.5 119.5t121.5 46.5zM673 326q78 0 124 -47
t46 -119q0 -76 -45.5 -122t-124.5 -46t-124 46.5t-45 121.5q0 74 45 120t124 46zM674 254q-34 0 -54 -24t-20 -70t19.5 -70.5t54.5 -24.5q36 0 55.5 24.5t19.5 70.5t-20 70t-55 24z" />
    <glyph glyph-name="uni2113" unicode="&#x2113;" 
d="M368 -18q-92 0 -134.5 47t-42.5 118v44l-50 -53l-41 69l90 91v249q0 82 44 126.5t123 44.5q66 0 102 -34t36 -94q0 -73 -38 -142t-121 -167v-103q0 -81 73 -81q37 0 72 13v-107q-55 -21 -113 -21zM335 552v-145q62 96 62 168q0 52 -29 52q-33 0 -33 -75z" />
    <glyph glyph-name="uni2116" unicode="&#x2116;" horiz-adv-x="1200" 
d="M941 369q-79 0 -124 46.5t-45 121.5q0 74 45 120t124 46q78 0 124 -47t46 -119q0 -76 -45.5 -122t-124.5 -46zM699 700v-700h-176l-264 465v-465h-138v700h176l264 -477v477h138zM941 441q36 0 55.5 25t19.5 71q0 45 -20 69.5t-55 24.5q-34 0 -54 -24t-20 -70t19.5 -71
t54.5 -25zM786 224v85h313v-85h-313z" />
    <glyph glyph-name="uni2117" unicode="&#x2117;" horiz-adv-x="900" 
d="M451 -17q-159 0 -266 105.5t-107 260.5t107 261.5t266 106.5t265.5 -106.5t106.5 -261.5t-106 -260.5t-266 -105.5zM451 53q128 0 210 86t82 210t-82 211t-210 87q-130 0 -212 -87.5t-82 -210.5q0 -122 82 -209t212 -87zM312 149v407h166q78 0 120.5 -33.5t42.5 -94.5
q0 -57 -40.5 -93.5t-118.5 -36.5h-77v-149h-93zM405 369h73q66 0 66 59q0 26 -17.5 40t-45.5 14h-76v-113z" />
    <glyph glyph-name="uni2120" unicode="&#x2120;" horiz-adv-x="1200" 
d="M311 711q118 0 193 -73l-73 -59q-48 46 -118 46q-32 0 -51 -11t-19 -28q0 -18 20.5 -29t82.5 -23q86 -16 124.5 -47t38.5 -88q0 -66 -52 -102.5t-141 -36.5q-136 0 -211 81l77 62q60 -58 136 -58q36 0 58 12t22 33q0 20 -20 31t-85 24q-83 16 -122.5 48t-39.5 88
q0 58 50 94t130 36zM1059 700l27 -435h-108l-16 312l-82 -312h-116l-82 310l-16 -310h-105l26 435h158l79 -317l77 317h158z" />
    <glyph glyph-name="trademark" unicode="&#x2122;" horiz-adv-x="1000" 
d="M414 700v-92h-132v-343h-112v343h-132v92h376zM927 700l26 -435h-107l-16 312l-83 -312h-115l-82 310l-16 -310h-106l27 435h158l78 -317l77 317h159z" />
    <glyph glyph-name="Omega" unicode="&#x2126;" horiz-adv-x="788" 
d="M394 717q67 0 126.5 -20t110.5 -60.5t81 -112.5t30 -167q0 -162 -107 -237h100v-120h-271v120q60 22 90.5 84.5t30.5 149.5q0 112 -50.5 173.5t-140.5 61.5q-87 0 -138.5 -60.5t-51.5 -171.5q0 -88 30 -151.5t91 -85.5v-120h-271v120h105q-112 73 -112 238q0 92 29 163
t78.5 112.5t110 62.5t129.5 21z" />
    <glyph glyph-name="estimated" unicode="&#x212e;" horiz-adv-x="945" 
d="M472 716q165 0 284 -107t119 -270h-657v-218q30 -45 104 -71t151 -26q75 0 147.5 25.5t112.5 72.5h58q-117 -138 -319 -138q-172 0 -287 103t-115 260q0 156 117.5 262.5t284.5 106.5zM473 676q-173 0 -255 -101v-196h509v196q-93 101 -254 101z" />
    <glyph glyph-name="uni2150" unicode="&#x2150;" horiz-adv-x="1032" 
d="M792 712l-433 -724h-109l433 724h109zM1000 420v-89q-68 -80 -100 -150.5t-45 -180.5h-120q15 122 53.5 193.5t105.5 136.5h-135v-48h-95v138h336zM64 280v89h106v180h-108v74h10q61 0 87.5 20t31.5 57h89v-331h84v-89h-300z" />
    <glyph glyph-name="uni2151" unicode="&#x2151;" horiz-adv-x="1002" 
d="M792 712l-433 -724h-109l433 724h109zM786 -12q-56 0 -97.5 23.5t-60.5 63.5l92 37q20 -40 68 -40q78 0 84 119q-34 -49 -107 -49q-59 0 -100.5 37.5t-41.5 103.5q0 69 49.5 109.5t124.5 40.5q82 0 132.5 -49t50.5 -159q0 -113 -49.5 -175t-144.5 -62zM796 229
q27 0 43.5 16t16.5 44q0 27 -16 42.5t-40 15.5q-26 0 -43.5 -16t-17.5 -45q0 -25 15 -41t42 -16zM64 280v89h106v180h-108v74h10q61 0 87.5 20t31.5 57h89v-331h84v-89h-300z" />
    <glyph glyph-name="uni2152" unicode="&#x2152;" horiz-adv-x="1392" 
d="M792 712l-433 -724h-109l433 724h109zM656 0v89h106v180h-108v74h10q61 0 87.5 20t31.5 57h89v-331h84v-89h-300zM1192 433q84 0 131 -56.5t47 -164.5q0 -110 -47 -166.5t-131 -56.5q-85 0 -131.5 56.5t-46.5 166.5q0 108 46.5 164.5t131.5 56.5zM1192 345
q-36 0 -50.5 -32t-14.5 -100q0 -69 15 -102.5t50 -33.5q65 0 65 136q0 67 -15 99.5t-50 32.5zM64 280v89h106v180h-108v74h10q61 0 87.5 20t31.5 57h89v-331h84v-89h-300z" />
    <glyph glyph-name="onethird" unicode="&#x2153;" horiz-adv-x="1002" 
d="M792 712l-433 -724h-109l433 724h109zM805 432q76 0 119 -32t43 -83q0 -73 -83 -93q43 -6 69.5 -31.5t26.5 -68.5q0 -62 -48 -98.5t-129 -36.5q-71 0 -118.5 31.5t-61.5 90.5l104 24q14 -58 75 -58q28 0 45 13.5t17 38.5q0 24 -17.5 37t-46.5 13h-45v80h37q61 0 61 45
q0 41 -51 41q-52 0 -67 -48l-104 16q13 53 59.5 86t114.5 33zM64 280v89h106v180h-108v74h10q61 0 87.5 20t31.5 57h89v-331h84v-89h-300z" />
    <glyph glyph-name="twothirds" unicode="&#x2154;" horiz-adv-x="1002" 
d="M792 712l-433 -724h-109l433 724h109zM805 432q76 0 119 -32t43 -83q0 -73 -83 -93q43 -6 69.5 -31.5t26.5 -68.5q0 -62 -48 -98.5t-129 -36.5q-71 0 -118.5 31.5t-61.5 90.5l104 24q14 -58 75 -58q28 0 45 13.5t17 38.5q0 24 -17.5 37t-46.5 13h-45v80h37q61 0 61 45
q0 41 -51 41q-52 0 -67 -48l-104 16q13 53 59.5 86t114.5 33zM201 713q74 0 117.5 -36t43.5 -93q0 -64 -43 -113.5t-139 -101.5h187v-89h-336v86q123 83 167.5 127t44.5 88q0 45 -46 45q-52 0 -52 -70h-113q0 70 43 113.5t126 43.5z" />
    <glyph glyph-name="uni2155" unicode="&#x2155;" horiz-adv-x="1012" 
d="M792 712l-433 -724h-109l433 724h109zM967 420l-13 -86h-184l-12 -76q38 31 92 31q58 0 100 -39t42 -102q0 -71 -48.5 -115t-137.5 -44q-69 0 -113.5 29.5t-60.5 75.5l99 31q19 -50 77 -50q34 0 52 18.5t18 46.5t-17.5 44t-49.5 16q-44 0 -67 -30l-97 14l34 236h286z
M64 280v89h106v180h-108v74h10q61 0 87.5 20t31.5 57h89v-331h84v-89h-300z" />
    <glyph glyph-name="uni2156" unicode="&#x2156;" horiz-adv-x="1012" 
d="M792 712l-433 -724h-109l433 724h109zM967 420l-13 -86h-184l-12 -76q38 31 92 31q58 0 100 -39t42 -102q0 -71 -48.5 -115t-137.5 -44q-69 0 -113.5 29.5t-60.5 75.5l99 31q19 -50 77 -50q34 0 52 18.5t18 46.5t-17.5 44t-49.5 16q-44 0 -67 -30l-97 14l34 236h286z
M201 713q74 0 117.5 -36t43.5 -93q0 -64 -43 -113.5t-139 -101.5h187v-89h-336v86q123 83 167.5 127t44.5 88q0 45 -46 45q-52 0 -52 -70h-113q0 70 43 113.5t126 43.5z" />
    <glyph glyph-name="uni2157" unicode="&#x2157;" horiz-adv-x="972" 
d="M752 712l-433 -724h-109l433 724h109zM927 420l-13 -86h-184l-12 -76q38 31 92 31q58 0 100 -39t42 -102q0 -71 -48.5 -115t-137.5 -44q-69 0 -113.5 29.5t-60.5 75.5l99 31q19 -50 77 -50q34 0 52 18.5t18 46.5t-17.5 44t-49.5 16q-44 0 -67 -30l-97 14l34 236h286z
M203 712q76 0 119 -32t43 -83q0 -73 -83 -93q43 -6 69.5 -31.5t26.5 -68.5q0 -62 -48 -98.5t-129 -36.5q-71 0 -118.5 31.5t-61.5 90.5l104 24q14 -58 75 -58q28 0 45 13.5t17 38.5q0 24 -17.5 37t-46.5 13h-45v80h37q61 0 61 45q0 41 -51 41q-52 0 -67 -48l-104 16
q13 53 59.5 86t114.5 33z" />
    <glyph glyph-name="uni2158" unicode="&#x2158;" horiz-adv-x="1002" 
d="M782 712l-433 -724h-109l433 724h109zM957 420l-13 -86h-184l-12 -76q38 31 92 31q58 0 100 -39t42 -102q0 -71 -48.5 -115t-137.5 -44q-69 0 -113.5 29.5t-60.5 75.5l99 31q19 -50 77 -50q34 0 52 18.5t18 46.5t-17.5 44t-49.5 16q-44 0 -67 -30l-97 14l34 236h286z
M331 700v-263h55v-88h-55v-69h-108v69h-210v91l175 260h143zM222 589l-103 -152h103v152z" />
    <glyph glyph-name="uni2159" unicode="&#x2159;" horiz-adv-x="992" 
d="M792 712l-433 -724h-109l433 724h109zM804 433q114 0 154 -90l-94 -32q-14 37 -60 37q-74 0 -85 -117q33 50 108 50q59 0 101 -37t42 -101q0 -72 -49 -113t-125 -41q-82 0 -132.5 49t-50.5 160q0 110 52 172.5t139 62.5zM798 195q-26 0 -43 -15.5t-17 -43.5t17 -44.5
t40 -16.5q25 0 42 16.5t17 45.5q0 26 -14.5 42t-41.5 16zM64 280v89h106v180h-108v74h10q61 0 87.5 20t31.5 57h89v-331h84v-89h-300z" />
    <glyph glyph-name="uni215A" unicode="&#x215a;" horiz-adv-x="952" 
d="M752 712l-433 -724h-109l433 724h109zM764 433q114 0 154 -90l-94 -32q-14 37 -60 37q-74 0 -85 -117q33 50 108 50q59 0 101 -37t42 -101q0 -72 -49 -113t-125 -41q-82 0 -132.5 49t-50.5 160q0 110 52 172.5t139 62.5zM758 195q-26 0 -43 -15.5t-17 -43.5t17 -44.5
t40 -16.5q25 0 42 16.5t17 45.5q0 26 -14.5 42t-41.5 16zM355 700l-13 -86h-184l-12 -76q38 31 92 31q58 0 100 -39t42 -102q0 -71 -48.5 -115t-137.5 -44q-69 0 -113.5 29.5t-60.5 75.5l99 31q19 -50 77 -50q34 0 52 18.5t18 46.5t-17.5 44t-49.5 16q-44 0 -67 -30l-97 14
l34 236h286z" />
    <glyph glyph-name="oneeighth" unicode="&#x215b;" horiz-adv-x="1002" 
d="M792 712l-433 -724h-109l433 724h109zM800 -11q-94 0 -140.5 37.5t-46.5 86.5q0 75 81 106q-57 36 -57 96q0 49 42 83.5t121 34.5q80 0 123 -33.5t43 -77.5q0 -26 -16.5 -51.5t-47.5 -39.5q50 -19 69 -43.5t19 -64.5q0 -54 -45 -94t-145 -40zM801 265l22 -6q34 24 34 54
q0 19 -14.5 29.5t-40.5 10.5q-25 0 -40 -10.5t-15 -29.5q0 -18 12 -29t42 -19zM801 76q37 0 55.5 13.5t18.5 32.5q0 22 -16.5 33t-60.5 23l-33 9q-37 -27 -37 -62q0 -23 19.5 -36t53.5 -13zM64 280v89h106v180h-108v74h10q61 0 87.5 20t31.5 57h89v-331h84v-89h-300z" />
    <glyph glyph-name="threeeighths" unicode="&#x215c;" horiz-adv-x="962" 
d="M752 712l-433 -724h-109l433 724h109zM760 -11q-94 0 -140.5 37.5t-46.5 86.5q0 75 81 106q-57 36 -57 96q0 49 42 83.5t121 34.5q80 0 123 -33.5t43 -77.5q0 -26 -16.5 -51.5t-47.5 -39.5q50 -19 69 -43.5t19 -64.5q0 -54 -45 -94t-145 -40zM761 265l22 -6q34 24 34 54
q0 19 -14.5 29.5t-40.5 10.5q-25 0 -40 -10.5t-15 -29.5q0 -18 12 -29t42 -19zM761 76q37 0 55.5 13.5t18.5 32.5q0 22 -16.5 33t-60.5 23l-33 9q-37 -27 -37 -62q0 -23 19.5 -36t53.5 -13zM203 712q76 0 119 -32t43 -83q0 -73 -83 -93q43 -6 69.5 -31.5t26.5 -68.5
q0 -62 -48 -98.5t-129 -36.5q-71 0 -118.5 31.5t-61.5 90.5l104 24q14 -58 75 -58q28 0 45 13.5t17 38.5q0 24 -17.5 37t-46.5 13h-45v80h37q61 0 61 45q0 41 -51 41q-52 0 -67 -48l-104 16q13 53 59.5 86t114.5 33z" />
    <glyph glyph-name="fiveeighths" unicode="&#x215d;" horiz-adv-x="962" 
d="M752 712l-433 -724h-109l433 724h109zM760 -11q-94 0 -140.5 37.5t-46.5 86.5q0 75 81 106q-57 36 -57 96q0 49 42 83.5t121 34.5q80 0 123 -33.5t43 -77.5q0 -26 -16.5 -51.5t-47.5 -39.5q50 -19 69 -43.5t19 -64.5q0 -54 -45 -94t-145 -40zM761 265l22 -6q34 24 34 54
q0 19 -14.5 29.5t-40.5 10.5q-25 0 -40 -10.5t-15 -29.5q0 -18 12 -29t42 -19zM761 76q37 0 55.5 13.5t18.5 32.5q0 22 -16.5 33t-60.5 23l-33 9q-37 -27 -37 -62q0 -23 19.5 -36t53.5 -13zM355 700l-13 -86h-184l-12 -76q38 31 92 31q58 0 100 -39t42 -102
q0 -71 -48.5 -115t-137.5 -44q-69 0 -113.5 29.5t-60.5 75.5l99 31q19 -50 77 -50q34 0 52 18.5t18 46.5t-17.5 44t-49.5 16q-44 0 -67 -30l-97 14l34 236h286z" />
    <glyph glyph-name="seveneighths" unicode="&#x215e;" horiz-adv-x="912" 
d="M702 712l-433 -724h-109l433 724h109zM710 -11q-94 0 -140.5 37.5t-46.5 86.5q0 75 81 106q-57 36 -57 96q0 49 42 83.5t121 34.5q80 0 123 -33.5t43 -77.5q0 -26 -16.5 -51.5t-47.5 -39.5q50 -19 69 -43.5t19 -64.5q0 -54 -45 -94t-145 -40zM711 265l22 -6q34 24 34 54
q0 19 -14.5 29.5t-40.5 10.5q-25 0 -40 -10.5t-15 -29.5q0 -18 12 -29t42 -19zM711 76q37 0 55.5 13.5t18.5 32.5q0 22 -16.5 33t-60.5 23l-33 9q-37 -27 -37 -62q0 -23 19.5 -36t53.5 -13zM368 700v-89q-68 -80 -100 -150.5t-45 -180.5h-120q15 122 53.5 193.5t105.5 136.5
h-135v-48h-95v138h336z" />
    <glyph glyph-name="uni215F" unicode="&#x215f;" horiz-adv-x="652" 
d="M792 712l-433 -724h-109l433 724h109zM64 280v89h106v180h-108v74h10q61 0 87.5 20t31.5 57h89v-331h84v-89h-300z" />
    <glyph glyph-name="uni2189" unicode="&#x2189;" horiz-adv-x="952" 
d="M742 712l-433 -724h-109l433 724h109zM755 432q76 0 119 -32t43 -83q0 -73 -83 -93q43 -6 69.5 -31.5t26.5 -68.5q0 -62 -48 -98.5t-129 -36.5q-71 0 -118.5 31.5t-61.5 90.5l104 24q14 -58 75 -58q28 0 45 13.5t17 38.5q0 24 -17.5 37t-46.5 13h-45v80h37q61 0 61 45
q0 41 -51 41q-52 0 -67 -48l-104 16q13 53 59.5 86t114.5 33zM200 713q84 0 131 -56.5t47 -164.5q0 -110 -47 -166.5t-131 -56.5q-85 0 -131.5 56.5t-46.5 166.5q0 108 46.5 164.5t131.5 56.5zM200 625q-36 0 -50.5 -32t-14.5 -100q0 -69 15 -102.5t50 -33.5q65 0 65 136
q0 67 -15 99.5t-50 32.5z" />
    <glyph glyph-name="arrowleft" unicode="&#x2190;" horiz-adv-x="900" 
d="M404 668l97 -82l-191 -199h491v-116h-491l191 -199l-97 -82l-305 339z" />
    <glyph glyph-name="arrowup" unicode="&#x2191;" horiz-adv-x="900" 
d="M450 695l340 -307l-79 -90l-196 185v-483h-131v483l-195 -185l-80 90z" />
    <glyph glyph-name="arrowright" unicode="&#x2192;" horiz-adv-x="900" 
d="M496 668l305 -339l-305 -339l-97 82l191 199h-491v116h491l-191 199z" />
    <glyph glyph-name="arrowdown" unicode="&#x2193;" horiz-adv-x="900" 
d="M515 649v-483l196 185l79 -90l-340 -307l-341 307l80 90l195 -185v483h131z" />
    <glyph glyph-name="arrowboth" unicode="&#x2194;" horiz-adv-x="1280" 
d="M880 668l306 -339l-306 -339l-96 82l191 199h-670l191 -199l-97 -82l-305 339l305 339l97 -82l-191 -199h670l-191 199z" />
    <glyph glyph-name="arrowupdn" unicode="&#x2195;" horiz-adv-x="900" 
d="M450 881l340 -306l-79 -88l-196 185v-662l196 184l79 -88l-340 -306l-341 306l80 88l195 -184v662l-195 -185l-80 88z" />
    <glyph glyph-name="uni2196" unicode="&#x2196;" horiz-adv-x="909" 
d="M657 617l8 -120l-278 -2l352 -355l-89 -87l-349 351l-3 -274l-128 5l24 457z" />
    <glyph glyph-name="uni2197" unicode="&#x2197;" horiz-adv-x="909" 
d="M251 617l463 -25l25 -457l-128 -5l-3 274l-349 -351l-89 87l352 355l-278 2z" />
    <glyph glyph-name="uni2198" unicode="&#x2198;" horiz-adv-x="909" 
d="M259 581l349 -350l3 273l128 -4l-25 -458l-463 -25l-7 121l278 2l-352 354z" />
    <glyph glyph-name="uni2199" unicode="&#x2199;" horiz-adv-x="909" 
d="M650 581l89 -87l-352 -354l278 -2l-8 -121l-463 25l-24 458l128 4l3 -273z" />
    <glyph glyph-name="partialdiff" unicode="&#x2202;" horiz-adv-x="638" 
d="M127 602v114q224 -1 345.5 -101t121.5 -299q0 -169 -77.5 -251t-207.5 -82q-123 0 -199 65.5t-76 176.5t67.5 173t165.5 62q120 0 173 -77q-12 118 -90 168.5t-223 50.5zM307 344q-58 0 -89.5 -33.5t-31.5 -86.5q0 -59 35 -92t91 -33q55 0 87 32.5t32 90.5
q0 55 -34.5 88.5t-89.5 33.5z" />
    <glyph glyph-name="emptyset" unicode="&#x2205;" horiz-adv-x="900" 
d="M756 715l-65 -88q59 -51 92 -123t33 -155q0 -153 -106 -259t-259 -106q-108 0 -197 56l-41 -56h-86l73 98q-116 106 -116 267q0 153 107 260t260 107q97 0 183 -48l35 47h87zM196 349q0 -104 70 -177l302 406q-53 29 -117 29q-107 0 -181 -75.5t-74 -182.5zM451 93
q106 0 179 74.5t73 181.5q0 112 -79 188l-304 -409q60 -35 131 -35z" />
    <glyph glyph-name="Delta" unicode="&#x2206;" horiz-adv-x="648" 
d="M420 700l227 -700h-646l227 700h192zM190 121h261l-130 461z" />
    <glyph glyph-name="product" unicode="&#x220f;" horiz-adv-x="638" 
d="M606 700v-115h-73v-585h-146v585h-137v-585h-146v585h-73v115h575z" />
    <glyph glyph-name="summation" unicode="&#x2211;" 
d="M551 700v-115h-330l178 -177v-97l-179 -194h331v-117h-502v106l233 253l-233 233v108h502z" />
    <glyph glyph-name="minus" unicode="&#x2212;" 
d="M515 353v-123h-430v123h430z" />
    <glyph glyph-name="uni2215" unicode="&#x2215;" 
d="M571 712l-433 -724h-109l433 724h109z" />
    <glyph glyph-name="uni2219" unicode="&#x2219;" 
d="M300 415q50 0 86.5 -36t36.5 -87q0 -49 -36.5 -85t-86.5 -36t-87 36.5t-37 85.5q0 50 37 86t87 36z" />
    <glyph glyph-name="radical" unicode="&#x221a;" 
d="M725 867v-115h-189l-209 -752h-156l-188 522h146l112 -368l191 713h293z" />
    <glyph glyph-name="infinity" unicode="&#x221e;" horiz-adv-x="913" 
d="M648 481q103 0 161 -61.5t58 -154.5q0 -92 -60.5 -153.5t-163.5 -61.5q-118 0 -186 116q-37 -56 -81 -86t-111 -30q-103 0 -160.5 61.5t-57.5 154.5t60 154t164 61q117 0 185 -117q36 57 80.5 87t111.5 30zM280 368q-39 0 -64.5 -26.5t-25.5 -75.5t23.5 -75.5t62.5 -26.5
q43 0 69.5 30.5t46.5 81.5q-13 28 -25 45.5t-34.5 32t-52.5 14.5zM637 367q-43 0 -70 -30.5t-46 -81.5q20 -43 44.5 -67.5t67.5 -24.5q39 0 64.5 26.5t25.5 75.5t-23.5 75.5t-62.5 26.5z" />
    <glyph glyph-name="integral" unicode="&#x222b;" horiz-adv-x="300" 
d="M271 852q52 0 106 -16v-113q-48 16 -85 16q-69 0 -69 -55v-742q0 -69 -49.5 -112t-141.5 -43q-56 0 -110 16v112q55 -15 85 -15q70 0 70 60v741q0 67 50 109t144 42z" />
    <glyph glyph-name="congruent" unicode="&#x2245;" 
d="M521 433v-123h-430v123h430zM521 211v-123h-430v123h430zM215 701q50 0 104 -29t72 -29q48 0 81 56l75 -65q-24 -45 -65 -75.5t-97 -30.5q-48 0 -103 29t-73 29q-49 0 -81 -57l-75 65q59 107 162 107z" />
    <glyph glyph-name="approxequal" unicode="&#x2248;" 
d="M215 498q50 0 104 -29t72 -29q48 0 81 56l75 -65q-24 -45 -65 -75.5t-97 -30.5q-48 0 -103 29t-73 29q-49 0 -81 -57l-75 65q59 107 162 107zM215 298q50 0 104 -29t72 -29q48 0 81 56l75 -65q-24 -45 -65 -75.5t-97 -30.5q-48 0 -103 29t-73 29q-49 0 -81 -57l-75 65
q59 107 162 107z" />
    <glyph glyph-name="uni2259" unicode="&#x2259;" 
d="M356 700l127 -169h-126l-59 80l-60 -80h-126l130 169h114zM515 475v-123h-430v123h430zM515 253v-123h-430v123h430z" />
    <glyph glyph-name="notequal" unicode="&#x2260;" 
d="M515 352h-136l-58 -99h194v-123h-266l-66 -113h-96l67 113h-69v123h141l58 99h-199v123h272l62 106h94l-62 -106h64v-123z" />
    <glyph glyph-name="lessequal" unicode="&#x2264;" 
d="M515 618v-143l-305 -88l305 -89v-143l-430 152v159zM515 123v-123h-430v123h430z" />
    <glyph glyph-name="greaterequal" unicode="&#x2265;" 
d="M85 618l430 -152v-159l-430 -152v143l304 89l-304 88v143zM515 123v-123h-430v123h430z" />
    <glyph glyph-name="dotmath" unicode="&#x22c5;" 
d="M300 395q38 0 66 -27.5t28 -66.5q0 -38 -28 -65.5t-66 -27.5t-66.5 28t-28.5 66t28.5 65.5t66.5 27.5z" />
    <glyph glyph-name="uni2460" unicode="&#x2460;" horiz-adv-x="900" 
d="M319 159v81h97v164h-99v67h9q56 0 80 18t29 52h81v-301h76v-81h-273zM451 717q159 0 265.5 -106.5t106.5 -261.5t-106 -260.5t-266 -105.5q-159 0 -266 105.5t-107 260.5t107 261.5t266 106.5zM451 647q-128 0 -211 -87.5t-83 -210.5t83 -209.5t211 -86.5t210 86t82 210
t-82 211t-210 87z" />
    <glyph glyph-name="uni2461" unicode="&#x2461;" horiz-adv-x="900" 
d="M451 553q67 0 106.5 -33t39.5 -85q0 -58 -39 -103t-126 -92h170v-81h-306v78q112 75 152.5 115.5t40.5 80.5q0 41 -42 41q-47 0 -47 -64h-103q0 63 39.5 103t114.5 40zM451 717q159 0 265.5 -106.5t106.5 -261.5t-106 -260.5t-266 -105.5q-159 0 -266 105.5t-107 260.5
t107 261.5t266 106.5zM451 647q-128 0 -211 -87.5t-83 -210.5t83 -209.5t211 -86.5t210 86t82 210t-82 211t-210 87z" />
    <glyph glyph-name="uni2462" unicode="&#x2462;" horiz-adv-x="900" 
d="M453 552q69 0 108 -29.5t39 -75.5q0 -66 -76 -84q39 -6 63.5 -29t24.5 -62q0 -57 -43.5 -90t-117.5 -33q-65 0 -108 28.5t-56 82.5l95 22q12 -53 68 -53q25 0 40.5 12t15.5 35q0 22 -15.5 34t-42.5 12h-41v72h34q55 0 55 41q0 38 -46 38q-47 0 -61 -44l-95 15
q12 48 54.5 78t104.5 30zM451 717q159 0 265.5 -106.5t106.5 -261.5t-106 -260.5t-266 -105.5q-159 0 -266 105.5t-107 260.5t107 261.5t266 106.5zM451 647q-128 0 -211 -87.5t-83 -210.5t83 -209.5t211 -86.5t210 86t82 210t-82 211t-210 87z" />
    <glyph glyph-name="uni2463" unicode="&#x2463;" horiz-adv-x="900" 
d="M558 541v-239h50v-80h-50v-63h-98v63h-191v82l159 237h130zM459 440l-94 -138h94v138zM451 717q159 0 265.5 -106.5t106.5 -261.5t-106 -260.5t-266 -105.5q-159 0 -266 105.5t-107 260.5t107 261.5t266 106.5zM451 647q-128 0 -211 -87.5t-83 -210.5t83 -209.5
t211 -86.5t210 86t82 210t-82 211t-210 87z" />
    <glyph glyph-name="uni2464" unicode="&#x2464;" horiz-adv-x="900" 
d="M589 541l-12 -78h-167l-11 -69q35 28 83 28q53 0 91 -35t38 -93q0 -65 -44 -105t-125 -40q-62 0 -102.5 27t-55.5 68l90 29q17 -46 70 -46q31 0 47.5 17t16.5 42q0 26 -16 40.5t-45 14.5q-39 0 -61 -27l-88 12l31 215h260zM451 717q159 0 265.5 -106.5t106.5 -261.5
t-106 -260.5t-266 -105.5q-159 0 -266 105.5t-107 260.5t107 261.5t266 106.5zM451 647q-128 0 -211 -87.5t-83 -210.5t83 -209.5t211 -86.5t210 86t82 210t-82 211t-210 87z" />
    <glyph glyph-name="uni2465" unicode="&#x2465;" horiz-adv-x="900" 
d="M456 553q103 0 140 -82l-86 -29q-13 33 -54 33q-67 0 -78 -106q31 45 99 45q54 0 92 -33t38 -92q0 -66 -44.5 -103t-114.5 -37q-74 0 -120 44.5t-46 145.5q0 100 47.5 157t126.5 57zM450 336q-24 0 -39 -14t-15 -39t15 -40.5t37 -15.5q23 0 38 15t15 42q0 23 -13 37.5
t-38 14.5zM451 717q159 0 265.5 -106.5t106.5 -261.5t-106 -260.5t-266 -105.5q-159 0 -266 105.5t-107 260.5t107 261.5t266 106.5zM451 647q-128 0 -211 -87.5t-83 -210.5t83 -209.5t211 -86.5t210 86t82 210t-82 211t-210 87z" />
    <glyph glyph-name="uni2466" unicode="&#x2466;" horiz-adv-x="900" 
d="M608 541v-81q-62 -72 -91 -136.5t-41 -164.5h-109q14 112 49 176.5t95 123.5h-123v-44h-86v126h306zM451 717q159 0 265.5 -106.5t106.5 -261.5t-106 -260.5t-266 -105.5q-159 0 -266 105.5t-107 260.5t107 261.5t266 106.5zM451 647q-128 0 -211 -87.5t-83 -210.5
t83 -209.5t211 -86.5t210 86t82 210t-82 211t-210 87z" />
    <glyph glyph-name="uni2467" unicode="&#x2467;" horiz-adv-x="900" 
d="M448 149q-85 0 -127.5 34.5t-42.5 78.5q0 69 74 96q-52 32 -52 87q0 45 38.5 76.5t109.5 31.5q73 0 112 -30.5t39 -70.5q0 -24 -15 -47t-43 -36q45 -18 62.5 -40t17.5 -58q0 -50 -41 -86t-132 -36zM449 400l20 -6q31 23 31 50q0 17 -13.5 26.5t-36.5 9.5t-36.5 -10
t-13.5 -26q0 -17 11 -27t38 -17zM449 228q34 0 50.5 12.5t16.5 29.5q0 19 -15 29.5t-55 21.5l-30 8q-33 -24 -33 -56q0 -45 66 -45zM451 717q159 0 265.5 -106.5t106.5 -261.5t-106 -260.5t-266 -105.5q-159 0 -266 105.5t-107 260.5t107 261.5t266 106.5zM451 647
q-128 0 -211 -87.5t-83 -210.5t83 -209.5t211 -86.5t210 86t82 210t-82 211t-210 87z" />
    <glyph glyph-name="uni2468" unicode="&#x2468;" horiz-adv-x="900" 
d="M436 148q-51 0 -88.5 21.5t-54.5 57.5l83 34q18 -37 62 -37q72 0 76 109q-30 -45 -97 -45q-53 0 -91 34t-38 94q0 63 45 100t113 37q75 0 121 -44.5t46 -144.5q0 -104 -45 -160t-132 -56zM445 367q25 0 40 14.5t15 40.5q0 25 -14.5 38.5t-36.5 13.5q-24 0 -39.5 -14
t-15.5 -41q0 -23 13 -37.5t38 -14.5zM451 717q159 0 265.5 -106.5t106.5 -261.5t-106 -260.5t-266 -105.5q-159 0 -266 105.5t-107 260.5t107 261.5t266 106.5zM451 647q-128 0 -211 -87.5t-83 -210.5t83 -209.5t211 -86.5t210 86t82 210t-82 211t-210 87z" />
    <glyph glyph-name="uni24EA" unicode="&#x24ea;" horiz-adv-x="900" 
d="M450 553q76 0 119 -51.5t43 -149.5q0 -100 -42.5 -151.5t-119.5 -51.5t-119.5 51.5t-42.5 151.5q0 98 42.5 149.5t119.5 51.5zM450 473q-33 0 -46 -29t-13 -91q0 -63 13.5 -93.5t45.5 -30.5q59 0 59 124q0 61 -13.5 90.5t-45.5 29.5zM451 717q159 0 265.5 -106.5
t106.5 -261.5t-106 -260.5t-266 -105.5q-159 0 -266 105.5t-107 260.5t107 261.5t266 106.5zM451 647q-128 0 -211 -87.5t-83 -210.5t83 -209.5t211 -86.5t210 86t82 210t-82 211t-210 87z" />
    <glyph glyph-name="uni24FF" unicode="&#x24ff;" horiz-adv-x="900" 
d="M451 -17q-159 0 -266 105.5t-107 260.5t107 261.5t266 106.5t265.5 -106.5t106.5 -261.5t-106 -260.5t-266 -105.5zM450 149q77 0 119.5 51.5t42.5 151.5q0 98 -43 149.5t-119 51.5q-77 0 -119 -51.5t-42 -149.5q0 -100 42.5 -151.5t118.5 -51.5zM450 229q-32 0 -45.5 31
t-13.5 93t13.5 91t45.5 29t45.5 -29.5t13.5 -90.5q0 -124 -59 -124z" />
    <glyph glyph-name="filledbox" unicode="&#x25a0;" 
d="M110 454h379v-379h-379v379z" />
    <glyph glyph-name="uni25A1" unicode="&#x25a1;" 
d="M110 454h379v-379h-379v379zM216 348v-167h167v167h-167z" />
    <glyph glyph-name="uni25B3" unicode="&#x25b3;" horiz-adv-x="900" 
d="M100 0l352 709l348 -709h-700zM293 112h313l-155 327z" />
    <glyph glyph-name="uni25B4" unicode="&#x25b4;" 
d="M299 454l190 -379h-379z" />
    <glyph glyph-name="uni25B8" unicode="&#x25b8;" 
d="M489 264l-379 -189v379z" />
    <glyph glyph-name="uni25BD" unicode="&#x25bd;" horiz-adv-x="900" 
d="M452 -9l-352 709h700zM606 588h-313l158 -327z" />
    <glyph glyph-name="uni25BE" unicode="&#x25be;" 
d="M299 75l-189 379h379z" />
    <glyph glyph-name="uni25C2" unicode="&#x25c2;" 
d="M110 264l379 190v-379z" />
    <glyph glyph-name="uni25C6" unicode="&#x25c6;" 
d="M300 539l260 -273l-260 -278l-260 278z" />
    <glyph glyph-name="uni25C7" unicode="&#x25c7;" 
d="M300 539l260 -273l-260 -278l-260 278zM300 392l-119 -125l119 -132l120 132z" />
    <glyph glyph-name="lozenge" unicode="&#x25ca;" 
d="M383 700l195 -339l-195 -361h-167l-195 359l195 341h167zM299 607l-132 -247l134 -265l132 265z" />
    <glyph glyph-name="circle" unicode="&#x25cb;" 
d="M301 27q-101 0 -171.5 70.5t-70.5 171.5q0 100 71 170.5t171 70.5t170.5 -70.5t70.5 -170.5t-70.5 -171t-170.5 -71zM301 140q49 0 83.5 36.5t34.5 92.5q0 55 -34.5 91.5t-83.5 36.5q-50 0 -84.5 -36.5t-34.5 -91.5q0 -56 34.5 -92.5t84.5 -36.5z" />
    <glyph glyph-name="uni25CF" unicode="&#x25cf;" 
d="M301 27q-101 0 -171.5 70.5t-70.5 171.5q0 100 71 170.5t171 70.5t170.5 -70.5t70.5 -170.5t-70.5 -171t-170.5 -71z" />
    <glyph glyph-name="uni2605" unicode="&#x2605;" horiz-adv-x="900" 
d="M611 267l79 -277l-242 177l-242 -177l80 280l-201 195l266 -29l94 277l96 -278l273 29z" />
    <glyph glyph-name="uni2610" unicode="&#x2610;" horiz-adv-x="900" 
d="M100 0v700h700v-700h-700zM219 119h461v462h-461v-462z" />
    <glyph glyph-name="uni2611" unicode="&#x2611;" horiz-adv-x="900" 
d="M100 0v700h700v-700h-700zM219 119h461v462h-461v-462zM544 533h85l-173 -358h-91l-83 175h89l40 -92z" />
    <glyph glyph-name="uni2612" unicode="&#x2612;" horiz-adv-x="900" 
d="M100 0v700h700v-700h-700zM219 119h461v462h-461v-462zM658 548l-148 -207l84 -169h-104l-46 93l-86 -121h-105l147 211l-83 168h102l48 -96l86 121h105z" />
    <glyph glyph-name="uni2620" unicode="&#x2620;" 
d="M300 129q-41 0 -72 10l-33 65q-17 10 -23.5 17t-9.5 21v42q-31 35 -31 102q0 66 48.5 109.5t120.5 43.5t120.5 -43.5t48.5 -109.5q0 -67 -31 -102v-42q-3 -14 -9.5 -21t-23.5 -17l-33 -65q-31 -10 -72 -10zM138 231l-57 28q-30 -19 -49 -19q-11 0 -19 7t-8 20q0 31 36 35
l3 7q-13 11 -13 29q0 13 8.5 21t23.5 8q36 0 41 -58l34 -20v-58zM462 231v58l34 20q5 58 41 58q15 0 23.5 -8t8.5 -21q0 -18 -13 -29l3 -7q36 -4 36 -35q0 -13 -8 -20t-19 -7q-19 0 -49 19zM219 285q17 0 28.5 10.5t11.5 26.5q0 17 -11.5 28t-28.5 11q-16 0 -27.5 -11
t-11.5 -28q0 -16 11.5 -26.5t27.5 -10.5zM381 285q16 0 27.5 10.5t11.5 26.5q0 17 -11.5 28t-27.5 11q-17 0 -28.5 -11t-11.5 -28q0 -16 11.5 -26.5t28.5 -10.5zM265 235v-29q7 0 18 3.5t17 3.5t17 -3.5t18 -3.5v29q-16 45 -35 45t-35 -45zM90 32q-15 0 -23.5 8t-8.5 21
q0 18 13 29l-3 7q-36 4 -36 35q0 13 8 20t19 7q19 0 49 -19l71 38l25 -47l-73 -41q-5 -58 -41 -58zM510 32q-36 0 -41 58l-73 41l25 47l71 -38q30 19 49 19q11 0 19 -7t8 -20q0 -31 -36 -35l-3 -7q13 -11 13 -29q0 -13 -8.5 -21t-23.5 -8z" />
    <glyph glyph-name="smileface" unicode="&#x263a;" 
d="M301 -16q-118 0 -198.5 80.5t-80.5 198.5t80.5 198.5t198.5 80.5t198.5 -80.5t80.5 -198.5t-80.5 -198.5t-198.5 -80.5zM301 60q81 0 135.5 55.5t54.5 147.5q0 91 -55 147t-135 56q-82 0 -137 -55.5t-55 -147.5t55 -147.5t137 -55.5zM218 295q-23 0 -37.5 14.5
t-14.5 36.5q0 21 14.5 35t37.5 14t37.5 -14t14.5 -35q0 -22 -14.5 -36.5t-37.5 -14.5zM378 295q-23 0 -37.5 14.5t-14.5 36.5q0 21 14.5 35t37.5 14t37.5 -14t14.5 -35q0 -22 -14.5 -36.5t-37.5 -14.5zM300 100q-63 0 -105.5 41.5t-49.5 99.5h60q22 -81 95 -81t95 81h60
q-7 -58 -49.5 -99.5t-105.5 -41.5z" />
    <glyph glyph-name="invsmileface" unicode="&#x263b;" 
d="M301 -16q-118 0 -198.5 80.5t-80.5 198.5t80.5 198.5t198.5 80.5t198.5 -80.5t80.5 -198.5t-80.5 -198.5t-198.5 -80.5zM211 295q23 0 37.5 14.5t14.5 36.5q0 21 -14.5 35t-37.5 14t-37.5 -14t-14.5 -35q0 -22 14.5 -36.5t37.5 -14.5zM386 295q23 0 37.5 14.5t14.5 36.5
q0 21 -14.5 35t-37.5 14t-37.5 -14t-14.5 -35q0 -22 14.5 -36.5t37.5 -14.5zM300 80q63 0 105.5 41.5t49.5 99.5h-60q-22 -81 -95 -81t-95 81h-60q7 -58 49.5 -99.5t105.5 -41.5z" />
    <glyph glyph-name="sun" unicode="&#x263c;" 
d="M336 539v-114q28 -5 54 -21l86 88l53 -53l-88 -87q16 -22 22 -51h118v-72h-116q-6 -29 -22 -51l86 -85l-53 -52l-82 84q-25 -17 -58 -23v-111h-72v111q-33 6 -57 22l-82 -83l-52 52l84 84q-17 25 -21 52h-116v72h117q6 31 22 52l-86 86l52 53l86 -87q23 15 53 20v114h72z
M300 350q-36 0 -60 -24t-24 -63t23.5 -63t60.5 -24t60.5 24t23.5 63t-24 63t-60 24z" />
    <glyph glyph-name="female" unicode="&#x2640;" 
d="M340 222v-59h95v-73h-95v-90h-76v90h-94v73h94v57q-58 11 -95.5 55.5t-37.5 104.5q0 69 49 117t120 48q70 0 119 -48t49 -117q0 -59 -35.5 -102t-92.5 -56zM220 380q0 -35 22.5 -58.5t56.5 -23.5t57 23.5t23 58.5q0 36 -22.5 59t-57.5 23t-57 -23t-22 -59z" />
    <glyph glyph-name="male" unicode="&#x2642;" 
d="M526 531l35 -252l-69 -10l-19 150l-128 -155q34 -44 34 -100q0 -71 -49.5 -117.5t-120.5 -46.5q-70 0 -118.5 47.5t-48.5 116.5t49 116.5t120 47.5q42 0 76 -17l131 155l-161 -11v67zM210 82q35 0 57.5 23t22.5 59q0 35 -23 58.5t-57 23.5t-56.5 -23.5t-22.5 -58.5
q0 -36 22 -59t57 -23z" />
    <glyph glyph-name="spade" unicode="&#x2660;" 
d="M80 0l20 45q97 0 139.5 29.5t42.5 125.5q-39 -64 -114 -64q-45 0 -71.5 26t-26.5 72q0 34 13.5 66t50.5 74.5t67.5 72t98.5 92.5q68 -63 98.5 -92.5t67.5 -72t50.5 -74.5t13.5 -66q0 -46 -26.5 -72t-71.5 -26q-75 0 -114 64q0 -96 42.5 -125.5t139.5 -29.5l20 -45h-440z
" />
    <glyph glyph-name="club" unicode="&#x2663;" 
d="M80 0l20 45q97 0 139.5 29.5t42.5 125.5q-40 -66 -108 -66q-49 0 -81.5 32t-32.5 82q0 48 30 78t77 30q34 0 67 -14q-54 44 -54 99q0 48 33 77t87 29t87 -29t33 -77q0 -55 -54 -99q33 14 67 14q47 0 77 -30t30 -78q0 -50 -32.5 -82t-81.5 -32q-69 0 -108 66
q0 -96 42.5 -125.5t139.5 -29.5l20 -45h-440z" />
    <glyph glyph-name="heart" unicode="&#x2665;" 
d="M434 539q56 0 91 -33.5t35 -90.5q0 -29 -6.5 -55t-27 -57t-34.5 -51t-55 -60t-60.5 -58t-76.5 -70q-140 128 -181 175q-79 92 -79 176q0 57 35 90.5t91 33.5q49 0 79 -23t55 -69q25 46 55 69t79 23z" />
    <glyph glyph-name="diamond" unicode="&#x2666;" 
d="M300 539l220 -273l-220 -278l-220 278z" />
    <glyph glyph-name="musicalnote" unicode="&#x266a;" 
d="M366 531l43 -24q93 -50 93 -137q0 -37 -26 -89l-40 17q3 17 3 35q0 72 -53 104l-20 13v-334q0 -62 -42.5 -96t-99.5 -34q-50 0 -79.5 21t-29.5 57q0 39 33 63.5t79 24.5q42 0 68 -13v392h71z" />
    <glyph glyph-name="musicalnotedbl" unicode="&#x266b;" 
d="M566 584v-417q0 -57 -40 -95.5t-102 -38.5q-51 0 -79 19t-28 55q0 38 34 63.5t84 25.5q35 0 61 -12v258l-213 -53v-269q0 -62 -38 -98t-106 -36q-48 0 -77.5 20.5t-29.5 57.5q0 38 33.5 62.5t81.5 24.5q43 0 65 -12v352z" />
    <glyph glyph-name="uni2713" unicode="&#x2713;" 
d="M433 580h130l-264 -547h-138l-127 268h136l61 -141z" />
    <glyph glyph-name="uni2717" unicode="&#x2717;" 
d="M600 580l-209 -291l119 -238h-147l-64 131l-122 -171h-147l206 298l-116 236h143l68 -135l121 170h148z" />
    <glyph glyph-name="uni2776" unicode="&#x2776;" horiz-adv-x="900" 
d="M451 -17q-159 0 -266 105.5t-107 260.5t107 261.5t266 106.5t265.5 -106.5t106.5 -261.5t-106 -260.5t-266 -105.5zM319 159h273v81h-77v301h-80q-12 -36 -37 -53t-81 -17v-76q65 0 98 25v-180h-96v-81z" />
    <glyph glyph-name="uni2777" unicode="&#x2777;" horiz-adv-x="900" 
d="M451 -17q-159 0 -266 105.5t-107 260.5t107 261.5t266 106.5t265.5 -106.5t106.5 -261.5t-106 -260.5t-266 -105.5zM297 159h306v81h-171q87 47 126.5 92t39.5 104q0 51 -40 84t-106 33q-76 0 -115 -39.5t-40 -103.5h103q1 64 47 64q43 0 43 -41q0 -40 -40.5 -79.5
t-152.5 -116.5v-78z" />
    <glyph glyph-name="uni2778" unicode="&#x2778;" horiz-adv-x="900" 
d="M451 -17q-159 0 -266 105.5t-107 260.5t107 261.5t266 106.5t265.5 -106.5t106.5 -261.5t-106 -260.5t-266 -105.5zM451 149q74 0 118 33t44 90q0 39 -24.5 62t-62.5 29q74 19 74 84q0 46 -38.5 75.5t-107.5 29.5q-62 0 -104.5 -29.5t-54.5 -78.5l95 -15q14 44 61 44
q46 0 46 -38q0 -40 -55 -40h-34v-73h41q58 0 58 -46t-56 -46q-55 0 -69 52l-94 -22q13 -53 56 -82t107 -29z" />
    <glyph glyph-name="uni2779" unicode="&#x2779;" horiz-adv-x="900" 
d="M451 -17q-159 0 -266 105.5t-107 260.5t107 261.5t266 106.5t265.5 -106.5t106.5 -261.5t-106 -260.5t-266 -105.5zM460 159h98v63h50v80h-50v239h-130l-159 -236v-83h191v-63zM365 302l95 141v-141h-95z" />
    <glyph glyph-name="uni277A" unicode="&#x277a;" horiz-adv-x="900" 
d="M451 -17q-159 0 -266 105.5t-107 260.5t107 261.5t266 106.5t265.5 -106.5t106.5 -261.5t-106 -260.5t-266 -105.5zM443 149q81 0 125 40t44 105q0 57 -38 92.5t-91 35.5q-50 0 -83 -29l10 70h168l11 78h-259l-31 -214l87 -13q23 27 61 27q29 0 45 -14t16 -40
q0 -25 -16.5 -42.5t-46.5 -17.5q-53 0 -70 46l-90 -29q15 -42 55.5 -68.5t102.5 -26.5z" />
    <glyph glyph-name="uni277B" unicode="&#x277b;" horiz-adv-x="900" 
d="M451 -17q-159 0 -266 105.5t-107 260.5t107 261.5t266 106.5t265.5 -106.5t106.5 -261.5t-106 -260.5t-266 -105.5zM449 149q68 0 112.5 37.5t44.5 102.5q0 59 -38 92.5t-92 33.5q-67 0 -98 -46q11 107 78 107q41 0 54 -34l86 29q-39 82 -140 82q-79 0 -126.5 -57
t-47.5 -157q0 -101 46 -145.5t121 -44.5zM448 228q-21 0 -36.5 15t-15.5 40t15 39.5t39 14.5q25 0 38.5 -15t13.5 -38q0 -27 -15.5 -41.5t-38.5 -14.5z" />
    <glyph glyph-name="uni277C" unicode="&#x277c;" horiz-adv-x="900" 
d="M451 -17q-159 0 -266 105.5t-107 260.5t107 261.5t266 106.5t265.5 -106.5t106.5 -261.5t-106 -260.5t-266 -105.5zM367 159h109q12 101 41 165.5t91 135.5v81h-306v-125h86v43h123q-60 -59 -95 -123.5t-49 -176.5z" />
    <glyph glyph-name="uni277D" unicode="&#x277d;" horiz-adv-x="900" 
d="M451 -17q-159 0 -266 105.5t-107 260.5t107 261.5t266 106.5t265.5 -106.5t106.5 -261.5t-106 -260.5t-266 -105.5zM448 149q90 0 131.5 36.5t41.5 85.5q0 37 -17 59t-63 39q28 13 43 36t15 47q0 41 -39 71t-112 30q-72 0 -110 -31t-38 -76q0 -56 51 -88q-73 -28 -73 -96
q0 -44 42.5 -78.5t127.5 -34.5zM469 395l-19 5q-28 7 -39 17t-11 27q0 36 50 36t50 -37q0 -26 -31 -48zM449 228q-31 0 -48.5 12t-17.5 33q0 32 34 56l30 -8q40 -11 54.5 -21t14.5 -30q0 -17 -16 -29.5t-51 -12.5z" />
    <glyph glyph-name="uni277E" unicode="&#x277e;" horiz-adv-x="900" 
d="M451 -17q-159 0 -266 105.5t-107 260.5t107 261.5t266 106.5t265.5 -106.5t106.5 -261.5t-106 -260.5t-266 -105.5zM438 148q86 0 130.5 56.5t44.5 159.5q0 100 -46 144.5t-120 44.5q-68 0 -113 -37t-45 -100q0 -60 38 -94t91 -34q67 0 97 45q-4 -108 -76 -108
q-45 0 -61 36l-85 -34q41 -79 145 -79zM446 367q-25 0 -38.5 14.5t-13.5 38.5q0 26 15.5 40t39.5 14q23 0 37.5 -13.5t14.5 -38.5q0 -26 -15 -40.5t-40 -14.5z" />
    <glyph glyph-name="fi" unicode="&#xfb01;" horiz-adv-x="602" 
d="M283 714q79 0 144 -24v-107q-52 22 -115 22q-44 0 -62.5 -11t-18.5 -40v-32h308v-522h-146v418h-162v-418h-146v418h-72v104h72v52q0 65 48.5 102.5t149.5 37.5z" />
    <glyph glyph-name="fl" unicode="&#xfb02;" horiz-adv-x="621" 
d="M269 714q55 0 119 -18l144 7v-539q0 -37 7 -47t38 -10q10 0 20 1v-107q-29 -8 -74 -8q-137 0 -137 150v450q-42 12 -85 12q-37 0 -53.5 -11t-16.5 -40v-32h89v-104h-89v-418h-146v418h-72v104h72v52q0 64 46 102t138 38z" />
    <glyph glyph-name="uniFEFF" unicode="&#xfeff;" horiz-adv-x="0" 
 />
    <glyph glyph-name="u1F310" unicode="&#x1f310;" horiz-adv-x="900" 
d="M450 713q152 0 259.5 -106.5t107.5 -257.5t-107.5 -257.5t-259.5 -106.5t-259.5 106.5t-107.5 257.5t107.5 257.5t259.5 106.5zM365 645q-78 -24 -133 -84q25 -17 55 -30q30 63 78 114zM669 561q-56 60 -133 84q48 -51 78 -114q30 13 55 30zM416 501v117
q-43 -48 -68 -108q41 -8 68 -9zM485 618v-117q24 1 68 9q-28 63 -68 108zM153 379h94q3 43 18 94q-40 16 -71 37q-34 -59 -41 -131zM654 379h94q-7 72 -41 131q-31 -21 -71 -37q15 -51 18 -94zM416 379v62q-46 3 -88 12q-10 -42 -13 -74h101zM485 441v-62h100q-3 41 -13 74
q-43 -9 -87 -12zM247 319h-94q8 -74 42 -131q36 22 70 36q-15 51 -18 95zM416 319h-101q3 -34 13 -75q42 9 88 12v63zM485 319v-63q45 -3 87 -12q10 41 13 75h-100zM748 319h-94q-3 -44 -18 -95q34 -14 70 -36q34 57 42 131zM416 80v117q-27 -1 -68 -9q25 -60 68 -108z
M485 197v-117q40 45 68 108q-44 8 -68 9zM232 137q56 -60 133 -84q-47 48 -78 114q-27 -11 -55 -30zM536 54q77 22 133 83q-25 17 -55 30q-32 -67 -78 -113z" />
    <glyph glyph-name="f_f.alt001" horiz-adv-x="677" 
d="M604 605q-33 0 -47 -11t-14 -40v-32h131v-104h-131v-418h-146v418h-166v-418h-146v418h-72v104h72v44q0 65 48.5 106.5t140.5 41.5q87 0 167 -40q46 40 134 40q45 0 102 -15v-104q-38 10 -73 10zM397 522v47q0 14 1 20q-50 21 -103 21q-64 0 -64 -56v-32h166z" />
    <glyph glyph-name="f.alt001" horiz-adv-x="365" 
d="M263 714q45 0 102 -15v-104q-38 10 -73 10q-33 0 -47 -11t-14 -40v-32h131v-104h-131v-418h-146v418h-72v104h72v47q0 65 44 105t134 40z" />
    <glyph glyph-name="j.alt001" horiz-adv-x="273" 
d="M54 -188q-32 0 -56 7v107q7 -1 16 -1q26 0 38 14t12 56v536h146v-544q0 -89 -43.5 -132t-112.5 -43zM135 749q36 0 61.5 -24t25.5 -59q0 -34 -25.5 -58t-61.5 -24q-35 0 -60.5 24t-25.5 58q0 35 25.5 59t60.5 24z" />
    <glyph glyph-name="caron.alt001" horiz-adv-x="214" 
d="M258 744l-91 -155h-87l36 155h142z" />
    <glyph glyph-name="j.ss01.alt001" horiz-adv-x="273" 
d="M54 -188q-32 0 -56 7v107q7 -1 16 -1q26 0 38 14t12 56v536h146v-544q0 -89 -43.5 -132t-112.5 -43zM216 743v-141h-158v141h158z" />
    <glyph glyph-name="parenleft.numr" horiz-adv-x="300" 
d="M162 755h78q-40 -73 -54.5 -126t-14.5 -123q0 -69 14.5 -122t54.5 -126h-79q-91 118 -91 248q0 131 92 249z" />
    <glyph glyph-name="parenright.numr" horiz-adv-x="300" 
d="M70 755h78q92 -118 92 -249q0 -132 -91 -248h-79q40 73 54.5 126t14.5 122q0 70 -14.5 123t-54.5 126z" />
    <glyph glyph-name="plus.numr" horiz-adv-x="384" 
d="M242 635v-97h97v-85h-97v-97h-98v97h-98v85h98v97h98z" />
    <glyph glyph-name="zero.numr" horiz-adv-x="400" 
d="M200 713q84 0 131 -56.5t47 -164.5q0 -110 -47 -166.5t-131 -56.5q-85 0 -131.5 56.5t-46.5 166.5q0 108 46.5 164.5t131.5 56.5zM200 625q-36 0 -50.5 -32t-14.5 -100q0 -69 15 -102.5t50 -33.5q65 0 65 136q0 67 -15 99.5t-50 32.5z" />
    <glyph glyph-name="one.numr" horiz-adv-x="400" 
d="M64 280v89h106v180h-108v74h10q61 0 87.5 20t31.5 57h89v-331h84v-89h-300z" />
    <glyph glyph-name="two.numr" horiz-adv-x="400" 
d="M201 713q74 0 117.5 -36t43.5 -93q0 -64 -43 -113.5t-139 -101.5h187v-89h-336v86q123 83 167.5 127t44.5 88q0 45 -46 45q-52 0 -52 -70h-113q0 70 43 113.5t126 43.5z" />
    <glyph glyph-name="three.numr" horiz-adv-x="400" 
d="M203 712q76 0 119 -32t43 -83q0 -73 -83 -93q43 -6 69.5 -31.5t26.5 -68.5q0 -62 -48 -98.5t-129 -36.5q-71 0 -118.5 31.5t-61.5 90.5l104 24q14 -58 75 -58q28 0 45 13.5t17 38.5q0 24 -17.5 37t-46.5 13h-45v80h37q61 0 61 45q0 41 -51 41q-52 0 -67 -48l-104 16
q13 53 59.5 86t114.5 33z" />
    <glyph glyph-name="four.numr" horiz-adv-x="400" 
d="M331 700v-263h55v-88h-55v-69h-108v69h-210v91l175 260h143zM222 589l-103 -152h103v152z" />
    <glyph glyph-name="five.numr" horiz-adv-x="400" 
d="M355 700l-13 -86h-184l-12 -76q38 31 92 31q58 0 100 -39t42 -102q0 -71 -48.5 -115t-137.5 -44q-69 0 -113.5 29.5t-60.5 75.5l99 31q19 -50 77 -50q34 0 52 18.5t18 46.5t-17.5 44t-49.5 16q-44 0 -67 -30l-97 14l34 236h286z" />
    <glyph glyph-name="six.numr" horiz-adv-x="400" 
d="M212 713q114 0 154 -90l-94 -32q-14 37 -60 37q-74 0 -85 -117q33 50 108 50q59 0 101 -37t42 -101q0 -72 -49 -113t-125 -41q-82 0 -132.5 49t-50.5 160q0 110 52 172.5t139 62.5zM206 475q-26 0 -43 -15.5t-17 -43.5t17 -44.5t40 -16.5q25 0 42 16.5t17 45.5
q0 26 -14.5 42t-41.5 16z" />
    <glyph glyph-name="seven.numr" horiz-adv-x="400" 
d="M368 700v-89q-68 -80 -100 -150.5t-45 -180.5h-120q15 122 53.5 193.5t105.5 136.5h-135v-48h-95v138h336z" />
    <glyph glyph-name="eight.numr" horiz-adv-x="400" 
d="M198 269q-94 0 -140.5 37.5t-46.5 86.5q0 75 81 106q-57 36 -57 96q0 49 42 83.5t121 34.5q80 0 123 -33.5t43 -77.5q0 -26 -16.5 -51.5t-47.5 -39.5q50 -19 69 -43.5t19 -64.5q0 -54 -45 -94t-145 -40zM199 545l22 -6q34 24 34 54q0 19 -14.5 29.5t-40.5 10.5
q-25 0 -40 -10.5t-15 -29.5q0 -18 12 -29t42 -19zM199 356q37 0 55.5 13.5t18.5 32.5q0 22 -16.5 33t-60.5 23l-33 9q-37 -27 -37 -62q0 -23 19.5 -36t53.5 -13z" />
    <glyph glyph-name="nine.numr" horiz-adv-x="400" 
d="M184 267q-56 0 -97.5 23.5t-60.5 63.5l92 37q20 -40 68 -40q78 0 84 119q-34 -49 -107 -49q-59 0 -100.5 37.5t-41.5 103.5q0 69 49.5 109.5t124.5 40.5q82 0 132.5 -49t50.5 -159q0 -113 -49.5 -175t-144.5 -62zM194 508q27 0 43.5 16t16.5 44q0 27 -16 42.5t-40 15.5
q-26 0 -43.5 -16t-17.5 -45q0 -25 15 -41t42 -16z" />
    <glyph glyph-name="equal.numr" horiz-adv-x="384" 
d="M339 610v-86h-293v86h293zM339 467v-86h-293v86h293z" />
    <glyph glyph-name="minus.numr" horiz-adv-x="384" 
d="M339 538v-85h-293v85h293z" />
    <glyph glyph-name="parenleft.dnom" horiz-adv-x="300" 
d="M162 456h78q-40 -73 -54.5 -126t-14.5 -123q0 -69 14.5 -122t54.5 -126h-79q-91 118 -91 248q0 131 92 249z" />
    <glyph glyph-name="parenright.dnom" horiz-adv-x="300" 
d="M59 456h78q92 -118 92 -249q0 -132 -91 -248h-79q40 73 54.5 126t14.5 122q0 70 -14.5 123t-54.5 126z" />
    <glyph glyph-name="plus.dnom" horiz-adv-x="384" 
d="M242 335v-97h97v-85h-97v-97h-98v97h-98v85h98v97h98z" />
    <glyph glyph-name="zero.dnom" horiz-adv-x="400" 
d="M200 433q84 0 131 -56.5t47 -164.5q0 -110 -47 -166.5t-131 -56.5q-85 0 -131.5 56.5t-46.5 166.5q0 108 46.5 164.5t131.5 56.5zM200 345q-36 0 -50.5 -32t-14.5 -100q0 -69 15 -102.5t50 -33.5q65 0 65 136q0 67 -15 99.5t-50 32.5z" />
    <glyph glyph-name="one.dnom" horiz-adv-x="400" 
d="M64 0v89h106v180h-108v74h10q61 0 87.5 20t31.5 57h89v-331h84v-89h-300z" />
    <glyph glyph-name="two.dnom" horiz-adv-x="400" 
d="M201 433q74 0 117.5 -36t43.5 -93q0 -64 -43 -113.5t-139 -101.5h187v-89h-336v86q123 83 167.5 127t44.5 88q0 45 -46 45q-52 0 -52 -70h-113q0 70 43 113.5t126 43.5z" />
    <glyph glyph-name="three.dnom" horiz-adv-x="400" 
d="M203 432q76 0 119 -32t43 -83q0 -73 -83 -93q43 -6 69.5 -31.5t26.5 -68.5q0 -62 -48 -98.5t-129 -36.5q-71 0 -118.5 31.5t-61.5 90.5l104 24q14 -58 75 -58q28 0 45 13.5t17 38.5q0 24 -17.5 37t-46.5 13h-45v80h37q61 0 61 45q0 41 -51 41q-52 0 -67 -48l-104 16
q13 53 59.5 86t114.5 33z" />
    <glyph glyph-name="four.dnom" horiz-adv-x="400" 
d="M331 420v-263h55v-88h-55v-69h-108v69h-210v91l175 260h143zM222 309l-103 -152h103v152z" />
    <glyph glyph-name="five.dnom" horiz-adv-x="400" 
d="M355 420l-13 -86h-184l-12 -76q38 31 92 31q58 0 100 -39t42 -102q0 -71 -48.5 -115t-137.5 -44q-69 0 -113.5 29.5t-60.5 75.5l99 31q19 -50 77 -50q34 0 52 18.5t18 46.5t-17.5 44t-49.5 16q-44 0 -67 -30l-97 14l34 236h286z" />
    <glyph glyph-name="six.dnom" horiz-adv-x="400" 
d="M212 433q114 0 154 -90l-94 -32q-14 37 -60 37q-74 0 -85 -117q33 50 108 50q59 0 101 -37t42 -101q0 -72 -49 -113t-125 -41q-82 0 -132.5 49t-50.5 160q0 110 52 172.5t139 62.5zM206 195q-26 0 -43 -15.5t-17 -43.5t17 -44.5t40 -16.5q25 0 42 16.5t17 45.5
q0 26 -14.5 42t-41.5 16z" />
    <glyph glyph-name="seven.dnom" horiz-adv-x="400" 
d="M368 420v-89q-68 -80 -100 -150.5t-45 -180.5h-120q15 122 53.5 193.5t105.5 136.5h-135v-48h-95v138h336z" />
    <glyph glyph-name="eight.dnom" horiz-adv-x="400" 
d="M198 -11q-94 0 -140.5 37.5t-46.5 86.5q0 75 81 106q-57 36 -57 96q0 49 42 83.5t121 34.5q80 0 123 -33.5t43 -77.5q0 -26 -16.5 -51.5t-47.5 -39.5q50 -19 69 -43.5t19 -64.5q0 -54 -45 -94t-145 -40zM199 265l22 -6q34 24 34 54q0 19 -14.5 29.5t-40.5 10.5
q-25 0 -40 -10.5t-15 -29.5q0 -18 12 -29t42 -19zM199 76q37 0 55.5 13.5t18.5 32.5q0 22 -16.5 33t-60.5 23l-33 9q-37 -27 -37 -62q0 -23 19.5 -36t53.5 -13z" />
    <glyph glyph-name="nine.dnom" horiz-adv-x="400" 
d="M184 -12q-56 0 -97.5 23.5t-60.5 63.5l92 37q20 -40 68 -40q78 0 84 119q-34 -49 -107 -49q-59 0 -100.5 37.5t-41.5 103.5q0 69 49.5 109.5t124.5 40.5q82 0 132.5 -49t50.5 -159q0 -113 -49.5 -175t-144.5 -62zM194 229q27 0 43.5 16t16.5 44q0 27 -16 42.5t-40 15.5
q-26 0 -43.5 -16t-17.5 -45q0 -25 15 -41t42 -16z" />
    <glyph glyph-name="equal.dnom" horiz-adv-x="384" 
d="M339 310v-86h-293v86h293zM339 167v-86h-293v86h293z" />
    <glyph glyph-name="minus.dnom" horiz-adv-x="384" 
d="M339 238v-85h-293v85h293z" />
    <glyph glyph-name="space.frac" horiz-adv-x="47" 
 />
    <glyph glyph-name="uni0394.osf" horiz-adv-x="628" 
d="M410 700l227 -700h-646l227 700h192zM180 121h261l-130 462z" />
    <glyph glyph-name="numbersign.tf" 
d="M560 437h-85l-26 -183h72v-93h-85l-23 -161h-110l23 161h-91l-23 -161h-109l23 161h-72v93h86l26 183h-73v94h87l24 169h109l-24 -169h91l24 169h109l-24 -169h71v-94zM340 254l26 183h-91l-26 -183h91z" />
    <glyph glyph-name="dollar.tf" 
d="M356 834v-118q118 -19 195 -117l-91 -73q-50 63 -114 78v-193q113 -27 162.5 -74t49.5 -133q0 -92 -56 -150.5t-146 -69.5v-133h-91v133q-143 14 -226 127l100 79q45 -74 132 -94v209q-104 27 -153.5 77.5t-49.5 131.5q0 87 52.5 140.5t144.5 62.5v117h91zM271 431v176
q-32 -7 -50.5 -30.5t-18.5 -57.5q0 -32 15 -53t54 -35zM346 286v-191q39 7 58.5 33t19.5 64q0 68 -78 94z" />
    <glyph glyph-name="zero.tf" 
d="M299 718q125 0 195 -93.5t70 -274.5t-70 -274.5t-195 -93.5t-194 93.5t-69 274.5t69 274.5t194 93.5zM299 601q-59 0 -86.5 -60.5t-27.5 -187.5q0 -128 27.5 -191t86.5 -63q116 0 116 254q0 127 -28 187.5t-88 60.5z" />
    <glyph glyph-name="one.tf" 
d="M102 0v117h161v354h-162v99h21q87 0 123 32.5t47 97.5h117v-583h132v-117h-439z" />
    <glyph glyph-name="two.tf" 
d="M302 715q109 0 173 -58.5t64 -151.5q0 -108 -71.5 -200.5t-220.5 -187.5h302v-117h-499v114q185 139 258.5 222t73.5 164q0 48 -22 73.5t-64 25.5q-94 0 -94 -129h-150q0 106 64.5 175.5t185.5 69.5z" />
    <glyph glyph-name="three.tf" 
d="M301 717q112 0 175 -52.5t63 -135.5q0 -63 -34.5 -103.5t-93.5 -53.5q64 -8 106.5 -52t42.5 -117q0 -102 -72 -161.5t-191 -59.5q-105 0 -174.5 51.5t-91.5 144.5l137 32q28 -110 128 -110q50 0 80.5 27.5t30.5 81.5q0 49 -29.5 76t-79.5 27h-74v108h62q103 0 103 95
q0 44 -26 65.5t-66 21.5q-91 0 -115 -97l-138 23q17 84 86 136.5t171 52.5z" />
    <glyph glyph-name="four.tf" 
d="M491 700v-450h89v-118h-89v-132h-143v132h-326v122l280 446h189zM348 553l-184 -303h184v303z" />
    <glyph glyph-name="five.tf" 
d="M526 700l-18 -117h-285l-20 -152q58 54 144 54q88 0 152.5 -64.5t64.5 -169.5q0 -120 -73 -195t-202 -75q-101 0 -167.5 49.5t-91.5 121.5l134 39q12 -44 45.5 -68.5t81.5 -24.5q57 0 88.5 40t31.5 102q0 60 -31 92.5t-85 32.5q-73 0 -113 -62l-128 19l50 378h422z" />
    <glyph glyph-name="six.tf" 
d="M325 717q164 0 224 -144l-127 -42q-13 33 -38.5 52.5t-59.5 19.5q-124 0 -139 -224q58 87 166 87q90 0 153 -62t63 -169q0 -117 -72 -184.5t-184 -67.5q-121 0 -196 81t-75 253q0 191 76.5 295.5t208.5 104.5zM313 351q-48 0 -79 -34.5t-31 -91.5q0 -56 31 -91.5
t75 -35.5q46 0 75.5 35t29.5 94q0 57 -26.5 90.5t-74.5 33.5z" />
    <glyph glyph-name="seven.tf" 
d="M551 700v-118q-106 -138 -157.5 -266t-72.5 -316h-158q16 140 53.5 250t81.5 180t113 151h-232v-81h-126v200h498z" />
    <glyph glyph-name="eight.tf" 
d="M298 717q113 0 176.5 -56.5t63.5 -131.5q0 -96 -99 -144q133 -56 133 -188q0 -39 -14 -74.5t-44 -68t-86 -52t-130 -19.5q-137 0 -203.5 62.5t-66.5 148.5q0 127 119 176q-82 56 -82 157q0 77 60 133.5t173 56.5zM298 605q-40 0 -63.5 -22.5t-23.5 -60.5q0 -39 21 -61
t70 -32l32 -7q56 44 56 100q0 34 -24.5 58.5t-67.5 24.5zM293 312l-43 10q-70 -44 -70 -117q0 -48 32 -77.5t86 -29.5q62 0 91.5 31t29.5 74q0 49 -31 71.5t-95 37.5z" />
    <glyph glyph-name="nine.tf" 
d="M299 717q122 0 194.5 -81t72.5 -253q0 -198 -72.5 -299.5t-211.5 -101.5q-84 0 -144 37.5t-91 103.5l126 50q37 -76 111 -76q123 0 131 217q-54 -78 -159 -78q-89 0 -152 63t-63 172q0 112 73.5 179t184.5 67zM302 602q-48 0 -78 -33.5t-30 -93.5q0 -55 27 -89t77 -34
q48 0 77 34t29 90q0 61 -27.5 93.5t-74.5 32.5z" />
    <glyph glyph-name="cent.tf" 
d="M439 181l112 -41q-56 -134 -202 -152v-137h-86v138q-102 14 -158.5 88.5t-56.5 187.5t57 187t158 89v127h86v-126q143 -17 195 -141l-110 -45q-15 38 -37 58t-58 26v-349q70 13 100 90zM181 267q0 -155 92 -174v345q-92 -20 -92 -171z" />
    <glyph glyph-name="sterling.tf" 
d="M338 717q78 0 132.5 -40.5t78.5 -110.5l-132 -36q-9 41 -27 59.5t-51 18.5q-35 0 -55.5 -25t-20.5 -70v-136h175v-78h-175v-56q0 -46 -9.5 -73.5t-35.5 -49.5h306v-120h-444l-16 111q35 14 47.5 41.5t12.5 87.5v59h-75v78h75v144q0 84 55.5 140t158.5 56z" />
    <glyph glyph-name="yen.tf" 
d="M580 700l-187 -362h115v-78h-143v-51h143v-78h-143v-131h-131v131h-142v78h142v51h-142v78h114l-186 362h165l116 -299l119 299h160z" />
    <glyph glyph-name="uni0394.tf" 
d="M397 700l194 -700h-580l193 700h193zM190 121h215l-108 458z" />
    <glyph glyph-name="uni2007.tf" 
 />
    <glyph glyph-name="figuredash.tf" 
d="M562 374v-122h-524v122h524z" />
    <glyph glyph-name="Euro.tf" horiz-adv-x="588" 
d="M378 717q121 0 199 -77l-44 -112q-65 76 -144 76q-114 0 -145 -149h267l-27 -79h-249v-17.5v-20.5v-17h235l-26 -78h-202q23 -146 144 -146q75 0 149 64v-126q-75 -52 -169 -52q-224 0 -264 260h-93l26 78h61v55h-80l26 79h62q24 130 97 196t177 66z" />
    <glyph glyph-name="dollar.lf" horiz-adv-x="679" 
d="M396 826v-119q147 -16 238 -121l-103 -81q-56 70 -143 83v-173q141 -27 198.5 -74.5t57.5 -136.5q0 -94 -66 -152t-182 -68v-133h-91v133q-176 14 -275 131l107 86q78 -85 176 -96v188q-129 26 -187 78t-58 139q0 84 64 137.5t173 61.5v117h91zM312 432v158
q-89 -11 -89 -75q0 -32 17.5 -50.5t71.5 -32.5zM388 277v-173q48 6 73.5 29t25.5 59q0 30 -19 50t-80 35z" />
    <glyph glyph-name="zero.lf" horiz-adv-x="628" 
d="M314 -15q-133 0 -212 93.5t-79 265.5q0 170 78.5 261.5t212.5 91.5q133 0 212 -91.5t79 -261.5q0 -172 -79 -265.5t-212 -93.5zM313 107q68 0 103.5 62t35.5 175q0 236 -139 236t-139 -236q0 -113 35.5 -175t103.5 -62z" />
    <glyph glyph-name="one.lf" horiz-adv-x="485" 
d="M56 0v117h161v338h-162v99h21q87 0 123 32.5t47 97.5h117v-567h132v-117h-439z" />
    <glyph glyph-name="two.lf" horiz-adv-x="609" 
d="M312 697q109 0 173 -58t64 -153q0 -100 -71.5 -183.5t-225.5 -185.5h307v-117h-506v114q197 143 269.5 218t72.5 154q0 45 -23 69.5t-66 24.5q-102 0 -104 -126h-150q1 105 67.5 174t192.5 69z" />
    <glyph glyph-name="three.lf" horiz-adv-x="606" 
d="M304 697q114 0 176.5 -50.5t62.5 -131.5q0 -57 -34.5 -97t-94.5 -54q63 -8 107.5 -52t44.5 -113q0 -97 -74.5 -155.5t-191.5 -58.5q-106 0 -178 52t-94 143l140 30q10 -49 43.5 -78.5t85.5 -29.5q51 0 83 26.5t32 75.5q0 47 -31 73t-82 26h-71v106h59q44 0 75 19.5
t31 67.5q0 44 -28 65t-69 21q-91 0 -113 -90l-141 22q18 80 87.5 131.5t174.5 51.5z" />
    <glyph glyph-name="four.lf" horiz-adv-x="645" 
d="M518 684v-434h96v-118h-96v-132h-145v132h-343v120l298 432h190zM373 533l-189 -283h189v283z" />
    <glyph glyph-name="five.lf" horiz-adv-x="612" 
d="M296 -15q-100 0 -166.5 49t-91.5 120l134 39q12 -42 45.5 -66.5t81.5 -24.5q56 0 88 38.5t32 92.5q0 61 -31 94.5t-85 33.5q-72 0 -113 -62l-128 19l50 366h421l-17 -117h-287l-18 -146q57 54 144 54q88 0 152.5 -63.5t64.5 -165.5q0 -113 -73.5 -187t-202.5 -74z" />
    <glyph glyph-name="six.lf" horiz-adv-x="586" 
d="M313 697q164 0 233 -146l-133 -41q-30 76 -100 76q-57 0 -91.5 -55t-41.5 -160q61 83 164 83q92 0 156 -62t64 -167q0 -108 -72.5 -174t-185.5 -66q-122 0 -197.5 82t-75.5 243q0 183 75.5 285t204.5 102zM303 340q-49 0 -79 -33t-30 -87q0 -53 30.5 -87t78.5 -34
q50 0 80 33.5t30 89.5q0 52 -28.5 85t-81.5 33z" />
    <glyph glyph-name="seven.lf" horiz-adv-x="531" 
d="M514 684v-111q-112 -137 -165.5 -264.5t-70.5 -308.5h-158q19 198 82 325t175 245h-230v-78h-123v192h490z" />
    <glyph glyph-name="eight.lf" horiz-adv-x="601" 
d="M298 697q117 0 182 -55.5t65 -128.5q0 -92 -104 -138q61 -23 100 -69t39 -112q0 -37 -14.5 -72t-45 -66.5t-88 -51t-134.5 -19.5q-139 0 -208 62t-69 144q0 118 125 171q-49 30 -69 66.5t-20 85.5q0 73 62.5 128t178.5 55zM298 587q-42 0 -68 -22t-26 -58q0 -33 22 -52.5
t73 -34.5l34 -10q65 43 65 97q0 32 -27 56t-73 24zM292 304l-41 14q-78 -46 -78 -116q0 -45 34.5 -74t91.5 -29q65 0 97 30.5t32 70.5q0 29 -19 49t-38.5 28t-66.5 23q-8 3 -12 4z" />
    <glyph glyph-name="nine.lf" horiz-adv-x="618" 
d="M304 718q124 0 199 -79.5t75 -250.5q0 -200 -74.5 -303.5t-215.5 -103.5q-88 0 -149.5 37t-94.5 103l120 54q39 -79 123 -79q66 0 100.5 59t38.5 164q-57 -78 -161 -78q-91 0 -155.5 64t-64.5 171q0 111 73.5 176.5t185.5 65.5zM309 603q-50 0 -81 -32.5t-31 -91.5
q0 -52 28.5 -87t80.5 -35q48 0 78.5 35t30.5 89q0 58 -29 90t-77 32z" />
    <glyph glyph-name="cent.lf" horiz-adv-x="619" 
d="M449 181l112 -41q-56 -134 -202 -152v-137h-86v138q-102 14 -158.5 88.5t-56.5 187.5t57 187t158 89v127h86v-126q143 -17 195 -141l-110 -45q-15 38 -37 58t-58 26v-349q70 13 100 90zM191 267q0 -155 92 -174v345q-92 -20 -92 -171z" />
    <glyph glyph-name="sterling.lf" horiz-adv-x="679" 
d="M382 717q84 0 141 -40t82 -110l-133 -41q-11 41 -32 59.5t-57 18.5q-40 0 -64 -25t-24 -69v-133h194v-78h-194v-56q0 -45 -9.5 -72t-38.5 -49h330v-122h-473l-16 111q38 15 51 42.5t13 88.5v57h-81v78h81v144q0 83 60.5 139.5t169.5 56.5z" />
    <glyph glyph-name="yen.lf" horiz-adv-x="679" 
d="M655 700l-210 -362h120v-78h-150v-51h150v-78h-150v-131h-152v131h-150v78h150v51h-150v78h119l-209 362h174l144 -299l146 299h168z" />
    <glyph glyph-name="uni0394.lf" horiz-adv-x="648" 
d="M404 681l227 -681h-646l227 681h192zM175 121h259l-129 450z" />
    <glyph glyph-name="figuredash.lf" 
d="M562 374v-122h-524v122h524z" />
    <glyph glyph-name="Euro.lf" horiz-adv-x="679" 
d="M430 717q126 0 210 -77l-45 -120q-71 76 -156 76q-123 0 -155 -141h284l-26 -79h-269v-55h250l-27 -78h-214q12 -69 48 -103.5t106 -34.5q81 0 161 65v-135q-80 -52 -179 -52q-115 0 -191.5 62.5t-98.5 197.5h-100l27 78h68q-2 27 0 55h-88l27 79h69q24 130 105.5 196
t193.5 66z" />
    <glyph glyph-name="dollar.tosf" 
d="M356 834v-118q118 -19 195 -117l-91 -73q-50 63 -114 78v-193q113 -27 162.5 -74t49.5 -133q0 -92 -56 -150.5t-146 -69.5v-133h-91v133q-143 14 -226 127l100 79q45 -74 132 -94v209q-104 27 -153.5 77.5t-49.5 131.5q0 87 52.5 140.5t144.5 62.5v117h91zM271 431v176
q-32 -7 -50.5 -30.5t-18.5 -57.5q0 -32 15 -53t54 -35zM346 286v-191q39 7 58.5 33t19.5 64q0 68 -78 94z" />
    <glyph glyph-name="zero.tosf" 
d="M300 598q125 0 200 -83.5t75 -225.5q0 -140 -74.5 -221.5t-200.5 -81.5t-200 81.5t-74 221.5q0 142 74.5 225.5t199.5 83.5zM300 481q-60 0 -92.5 -50.5t-32.5 -141.5q0 -88 32.5 -137t92.5 -49q61 0 93.5 48t32.5 138t-33 141t-93 51z" />
    <glyph glyph-name="one.tosf" 
d="M102 0v117h161v234h-162v100h21q87 0 123 32t47 97h117v-463h132v-117h-439z" />
    <glyph glyph-name="two.tosf" 
d="M305 595q104 0 169.5 -53.5t65.5 -137.5q0 -89 -59 -149.5t-205 -137.5h269v-117h-490v114q203 118 266 171t63 112q0 38 -23 60t-61 22q-48 0 -74 -30.5t-26 -79.5h-147q3 94 69.5 160t182.5 66z" />
    <glyph glyph-name="three.tosf" 
d="M309 598q111 0 172.5 -53.5t61.5 -136.5q0 -62 -34.5 -104t-92.5 -55q63 -9 106 -54t43 -119q0 -102 -73 -163t-187 -61q-103 0 -174.5 52t-93.5 144l133 32q11 -54 44.5 -82.5t85.5 -28.5q51 0 83 29t32 84q0 51 -30 79.5t-81 28.5h-74v104h61q44 0 74.5 22.5t30.5 76.5
q0 46 -27.5 68t-68.5 22q-93 0 -117 -97l-133 23q18 85 87 137t172 52z" />
    <glyph glyph-name="four.tosf" 
d="M487 580v-463h93v-117h-93v-130h-143v130h-323v119l279 461h187zM344 428l-182 -311h182v311z" />
    <glyph glyph-name="five.tosf" 
d="M531 580l-18 -117h-285l-19 -154q57 54 143 54q88 0 152.5 -64.5t64.5 -171.5q0 -124 -73 -199.5t-203 -75.5q-101 0 -167 49.5t-91 121.5l134 39q12 -44 45 -68.5t81 -24.5q58 0 89.5 40.5t31.5 105.5q0 62 -30.5 95.5t-85.5 33.5q-72 0 -113 -62l-128 19l50 379h422z
" />
    <glyph glyph-name="six.tosf" 
d="M314 697q164 0 233 -146l-133 -41q-30 76 -100 76q-57 0 -91.5 -55t-41.5 -160q61 83 164 83q92 0 156 -62t64 -167q0 -108 -72.5 -174t-185.5 -66q-122 0 -197.5 82t-75.5 243q0 183 75.5 285t204.5 102zM304 340q-49 0 -79 -33t-30 -87q0 -53 30.5 -87t78.5 -34
q50 0 80 33.5t30 89.5q0 52 -28.5 85t-81.5 33z" />
    <glyph glyph-name="seven.tosf" 
d="M555 580v-118q-113 -143 -174 -276t-80 -316h-158q10 106 36 195.5t67.5 161.5t81.5 123.5t97 111.5h-246v-80h-125v198h501z" />
    <glyph glyph-name="eight.tosf" 
d="M299 697q108 0 168.5 -54t60.5 -126q0 -99 -103 -146q136 -44 136 -179q0 -83 -63.5 -145t-199.5 -62q-130 0 -195 60.5t-65 139.5q0 65 34.5 110.5t93.5 69.5q-51 31 -72 67t-21 83q0 73 58 127.5t168 54.5zM300 587q-38 0 -61.5 -21.5t-23.5 -56.5q0 -34 19.5 -55.5
t61.5 -34.5l33 -10q58 45 58 102q0 31 -23 53.5t-64 22.5zM297 303l-39 13q-72 -43 -72 -121q0 -41 31 -68.5t82 -27.5q56 0 84.5 28.5t28.5 66.5q0 46 -27 67.5t-88 41.5z" />
    <glyph glyph-name="nine.tosf" 
d="M295 598q123 0 197.5 -81t74.5 -254q0 -204 -74.5 -307.5t-215.5 -103.5q-176 0 -244 143l124 52q38 -80 122 -80q64 0 99.5 60t41.5 168q-62 -81 -166 -81q-91 0 -155.5 64.5t-64.5 173.5q0 113 74 179.5t187 66.5zM298 482q-50 0 -81 -33t-31 -93q0 -54 28.5 -89.5
t80.5 -35.5q49 0 79 35t30 91q0 61 -29 93t-77 32z" />
    <glyph glyph-name="cent.tosf" 
d="M439 181l112 -41q-56 -134 -202 -152v-137h-86v138q-102 14 -158.5 88.5t-56.5 187.5t57 187t158 89v127h86v-126q143 -17 195 -141l-110 -45q-15 38 -37 58t-58 26v-349q70 13 100 90zM181 267q0 -155 92 -174v345q-92 -20 -92 -171z" />
    <glyph glyph-name="sterling.tosf" 
d="M338 717q78 0 132.5 -40.5t78.5 -110.5l-132 -36q-9 41 -27 59.5t-51 18.5q-35 0 -55.5 -25t-20.5 -70v-136h175v-78h-175v-56q0 -46 -9.5 -73.5t-35.5 -49.5h306v-120h-444l-16 111q35 14 47.5 41.5t12.5 87.5v59h-75v78h75v144q0 84 55.5 140t158.5 56z" />
    <glyph glyph-name="yen.tosf" 
d="M580 700l-187 -362h115v-78h-143v-51h143v-78h-143v-131h-131v131h-142v78h142v51h-142v78h114l-186 362h165l116 -299l119 299h160z" />
    <glyph glyph-name="uni0394.tosf" 
d="M396 682l194 -682h-579l193 682h192zM190 121h214l-107 445z" />
    <glyph glyph-name="uni2007.tosf" 
 />
    <glyph glyph-name="figuredash.tosf" 
d="M562 334v-122h-524v122h524z" />
    <glyph glyph-name="Euro.tosf" 
d="M384 717q121 0 199 -77l-44 -112q-65 76 -144 76q-114 0 -145 -149h267l-27 -79h-249v-55h235l-26 -78h-202q23 -146 144 -146q75 0 149 64v-126q-75 -52 -169 -52q-224 0 -264 260h-93l26 78h61v55h-80l26 79h62q24 130 97 196t177 66z" />
    <glyph glyph-name="numbersign.sc" 
d="M549 346h-86l-17 -112h71v-93h-84l-20 -141h-110l20 141h-91l-20 -141h-109l20 141h-73v93h87l16 112h-71v93h85l20 141h109l-20 -141h91l20 141h109l-20 -141h73v-93zM337 234l16 112h-91l-16 -112h91z" />
    <glyph glyph-name="dollar.sc" 
d="M353 700v-108q131 -16 211 -115l-102 -70q-51 66 -118 75v-133q125 -27 175.5 -65.5t50.5 -112.5q0 -77 -58 -127t-159 -59v-133h-86v133q-154 11 -239 119l90 79q70 -81 159 -90v146q-119 25 -169.5 66t-50.5 116q0 73 56.5 119t153.5 53v107h86zM276 364v121
q-80 -5 -80 -56q0 -22 15.5 -37t64.5 -28zM344 225v-131q43 2 64 20t21 43q0 26 -16.5 41t-68.5 27z" />
    <glyph glyph-name="percent.sc" horiz-adv-x="1006" 
d="M220 595q79 0 132.5 -55.5t53.5 -145.5q0 -93 -53 -147t-133 -54t-133 54t-53 147q0 90 53.5 145.5t132.5 55.5zM736 587l-355 -598h-110l357 598h108zM220 511q-41 0 -61 -31.5t-20 -85.5q0 -117 81 -117q40 0 60.5 31t20.5 86q0 54 -20.5 85.5t-60.5 31.5zM786 387
q79 0 132.5 -55.5t53.5 -145.5q0 -93 -53 -147t-133 -54q-79 0 -132.5 54.5t-53.5 146.5q0 90 53.5 145.5t132.5 55.5zM786 303q-41 0 -61 -31.5t-20 -85.5q0 -117 81 -117q40 0 60.5 31t20.5 86q0 54 -20.5 85.5t-60.5 31.5z" />
    <glyph glyph-name="a.sc" horiz-adv-x="578" 
d="M422 0l-28 91h-215l-28 -91h-150l196 580h185l196 -580h-156zM364 197l-78 279l-77 -279h155z" />
    <glyph glyph-name="b.sc" horiz-adv-x="601" 
d="M450 314q129 -28 129 -144q0 -78 -61 -124t-189 -46h-258v580h224q132 0 191.5 -38.5t59.5 -112.5q0 -87 -96 -115zM308 468h-91v-116h104q75 0 75 59q0 31 -21.5 44t-66.5 13zM217 113h120q89 0 89 65q0 73 -90 73h-119v-138z" />
    <glyph glyph-name="c.sc" horiz-adv-x="659" 
d="M338 595q203 0 272 -170l-139 -41q-19 48 -50 70t-81 22q-70 0 -108.5 -47.5t-38.5 -136.5q0 -90 38 -139t112 -49q103 0 142 106l140 -43q-37 -89 -112.5 -135.5t-175.5 -46.5q-57 0 -108 17.5t-94 52.5t-68.5 96t-25.5 140q0 77 24.5 137t67 95.5t94.5 53.5t111 18z
" />
    <glyph glyph-name="d.sc" horiz-adv-x="641" 
d="M71 580h205q143 0 234 -68.5t91 -215.5q0 -80 -26 -140t-70 -92.5t-94.5 -48t-108.5 -15.5h-231v580zM280 463h-64v-346h86q148 0 148 180q0 82 -40 124t-130 42z" />
    <glyph glyph-name="e.sc" horiz-adv-x="536" 
d="M486 580v-116h-270v-112h252v-112h-252v-123h278v-117h-423v580h415z" />
    <glyph glyph-name="f.sc" horiz-adv-x="508" 
d="M477 580v-116h-261v-128h241v-112h-241v-224h-145v580h406z" />
    <glyph glyph-name="g.sc" horiz-adv-x="667" 
d="M338 595q200 0 266 -148l-132 -53q-38 85 -131 85q-71 0 -110 -49.5t-39 -139.5q0 -189 150 -189q58 0 93 29t35 80v11h-127v106h273v-327h-133v53q-63 -68 -165 -68q-115 0 -196 75.5t-81 228.5q0 151 85.5 228.5t211.5 77.5z" />
    <glyph glyph-name="h.sc" horiz-adv-x="664" 
d="M594 580v-580h-146v243h-232v-243h-145v580h145v-220h232v220h146z" />
    <glyph glyph-name="i.sc" horiz-adv-x="342" 
d="M306 580v-114h-63v-352h63v-114h-272v114h64v352h-64v114h272z" />
    <glyph glyph-name="j.sc" horiz-adv-x="375" 
d="M315 580v-385q0 -97 -47 -148.5t-159 -51.5q-38 0 -88 5v118q32 -2 48 -2q59 0 80 18.5t21 67.5v378h145z" />
    <glyph glyph-name="k.sc" horiz-adv-x="629" 
d="M456 0l-167 241l-73 -76v-165h-145v580h145v-238l215 238h180l-223 -237l245 -343h-177z" />
    <glyph glyph-name="l.sc" horiz-adv-x="495" 
d="M216 580v-456h261v-124h-406v580h145z" />
    <glyph glyph-name="m.sc" horiz-adv-x="760" 
d="M675 580l38 -580h-136l-25 427l-96 -427h-155l-96 426l-25 -426h-134l39 580h207l88 -424l88 424h207z" />
    <glyph glyph-name="n.sc" horiz-adv-x="655" 
d="M585 580v-580h-168l-214 371v-371h-132v580h168l214 -385v385h132z" />
    <glyph glyph-name="o.sc" horiz-adv-x="695" 
d="M349 595q58 0 110 -16.5t97 -51t72 -96t27 -142.5q0 -148 -88.5 -226t-217.5 -78q-45 0 -88 10t-83.5 33.5t-70.5 58t-48 87t-18 117.5q0 77 25.5 137t69 95.5t97.5 53.5t116 18zM349 478q-71 0 -113.5 -48.5t-42.5 -137.5q0 -91 40 -140.5t116 -49.5q69 0 112 48.5
t43 137.5q0 90 -39.5 140t-115.5 50z" />
    <glyph glyph-name="p.sc" horiz-adv-x="585" 
d="M71 580h236q127 0 189 -52.5t62 -144.5q0 -96 -63 -147.5t-187 -51.5h-92v-184h-145v580zM216 297h97q93 0 93 86q0 81 -89 81h-101v-167z" />
    <glyph glyph-name="q.sc" horiz-adv-x="706" 
d="M348 595q58 0 110 -16.5t97.5 -50.5t72.5 -95.5t27 -143.5q0 -146 -100 -228q50 -24 128 -34l-49 -129q-109 29 -176 107q-54 -20 -110 -20q-45 0 -88 10t-83 33.5t-70 58t-48 87t-18 117.5q0 77 25.5 137t69 95.5t97 53.5t115.5 18zM349 478q-71 0 -113.5 -48.5
t-42.5 -137.5q0 -91 40 -140.5t116 -49.5q69 0 112 48.5t43 137.5q0 90 -39.5 140t-115.5 50z" />
    <glyph glyph-name="r.sc" horiz-adv-x="597" 
d="M71 580h237q123 0 185.5 -47.5t62.5 -131.5q0 -122 -126 -164l164 -237h-174l-131 210h-73v-210h-145v580zM316 467h-100v-147h96q91 0 91 76q0 71 -87 71z" />
    <glyph glyph-name="s.sc" horiz-adv-x="595" 
d="M296 595q165 0 265 -104l-102 -76q-67 65 -161 65q-44 0 -69 -14t-25 -40t27.5 -41t111.5 -29q117 -19 170 -61.5t53 -121.5q0 -88 -71 -138t-193 -50q-181 0 -284 112l104 81q80 -78 183 -78q49 0 79 16.5t30 45.5t-27.5 44t-116.5 31q-113 21 -165 63.5t-52 120.5
q0 79 66.5 126.5t176.5 47.5z" />
    <glyph glyph-name="t.sc" horiz-adv-x="517" 
d="M502 580v-119h-170v-461h-145v461h-170v119h485z" />
    <glyph glyph-name="u.sc" horiz-adv-x="636" 
d="M574 580v-359q0 -104 -64.5 -170t-192.5 -66q-130 0 -192.5 66t-62.5 170v359h145v-361q0 -116 111 -116q112 0 112 116v361h144z" />
    <glyph glyph-name="v.sc" horiz-adv-x="548" 
d="M548 580l-185 -580h-176l-186 580h158l119 -453l117 453h153z" />
    <glyph glyph-name="w.sc" horiz-adv-x="764" 
d="M759 580l-130 -580h-161l-81 411l-73 -411h-165l-143 580h150l77 -427l77 427h158l79 -422l67 422h145z" />
    <glyph glyph-name="x.sc" horiz-adv-x="597" 
d="M378 316l219 -316h-180l-125 209l-118 -209h-173l207 308l1 1l-189 271h167l106 -172l103 172h162z" />
    <glyph glyph-name="y.sc" horiz-adv-x="554" 
d="M558 580l-211 -352v-228h-144v226l-211 354h167l118 -236l119 236h162z" />
    <glyph glyph-name="z.sc" horiz-adv-x="542" 
d="M500 580v-113l-292 -345h302v-122h-489v112l295 349h-276v119h460z" />
    <glyph glyph-name="cent.sc" 
d="M444 209l128 -40q-30 -78 -87.5 -123.5t-135.5 -56.5v-138h-93v137q-101 13 -165.5 88t-64.5 215q0 137 64 212.5t166 88.5v126h93v-127q155 -23 212 -171l-131 -36q-30 80 -91 95v-378q74 15 105 108zM167 292q0 -169 99 -191v378q-99 -24 -99 -187z" />
    <glyph glyph-name="sterling.sc" 
d="M344 595q80 0 135.5 -39.5t79.5 -106.5l-134 -42q-11 40 -30.5 58t-54.5 18q-36 0 -58 -23.5t-22 -66.5v-62h185v-76h-185v-33q0 -69 -45 -104h318v-118h-460l-15 107q35 15 47 38t12 72v38h-76v76h76v70q0 81 61 137.5t166 56.5z" />
    <glyph glyph-name="yen.sc" 
d="M576 580l-174 -298h122v-76h-151v-39h151v-76h-151v-91h-146v91h-147v76h147v39h-147v76h118l-174 298h163l115 -261l116 261h158z" />
    <glyph glyph-name="section.sc" horiz-adv-x="601" 
d="M318 595q123 0 206 -73l-71 -75q-59 49 -132 49q-76 0 -76 -39q0 -22 22 -33.5t94 -24.5q96 -18 142 -55.5t46 -100.5q0 -40 -21.5 -68.5t-68.5 -58.5q60 -38 60 -108q0 -71 -60.5 -111t-155.5 -40q-133 0 -220 76l73 75q61 -51 143 -51q81 0 81 39q0 22 -21.5 33.5
t-88.5 24.5q-98 19 -145.5 58t-47.5 104q0 39 21 68t68 59q-61 39 -61 104q0 70 59 109t154 39zM252 307q-25 -24 -34 -39t-9 -33q0 -29 26.5 -46t96.5 -30q13 -2 41 -8q42 42 42 74q0 28 -26.5 44t-96.5 30q-6 1 -19.5 3.5t-20.5 4.5z" />
    <glyph glyph-name="degree.sc" horiz-adv-x="525" 
d="M263 658q79 0 137.5 -51t58.5 -135t-58.5 -134.5t-137.5 -50.5t-138 51t-59 135t59 134.5t138 50.5zM264 565q-34 0 -57.5 -23.5t-23.5 -68.5q0 -46 23.5 -69.5t57.5 -23.5q33 0 56.5 23.5t23.5 68.5q0 44 -23.5 68.5t-56.5 24.5z" />
    <glyph glyph-name="germandbls.sc" horiz-adv-x="1202" 
d="M296 595q165 0 265 -104l-102 -76q-67 65 -161 65q-44 0 -69 -14t-25 -40t27.5 -41t111.5 -29q117 -19 170 -61.5t53 -121.5q0 -88 -71 -138t-193 -50q-181 0 -284 112l104 81q80 -78 183 -78q49 0 79 16.5t30 45.5t-27.5 44t-116.5 31q-113 21 -165 63.5t-52 120.5
q0 79 66.5 126.5t176.5 47.5zM903 595q165 0 265 -104l-102 -76q-67 65 -161 65q-44 0 -69 -14t-25 -40t27.5 -41t111.5 -29q117 -19 170 -61.5t53 -121.5q0 -88 -71 -138t-193 -50q-181 0 -284 112l104 81q80 -78 183 -78q49 0 79 16.5t30 45.5t-27.5 44t-116.5 31
q-113 21 -165 63.5t-52 120.5q0 79 66.5 126.5t176.5 47.5z" />
    <glyph glyph-name="agrave.sc" horiz-adv-x="578" 
d="M422 0l-28 91h-215l-28 -91h-150l196 580h185l196 -580h-156zM364 197l-78 279l-77 -279h155zM259 793l97 -151h-111l-164 151h178z" />
    <glyph glyph-name="aacute.sc" horiz-adv-x="578" 
d="M422 0l-28 91h-215l-28 -91h-150l196 580h185l196 -580h-156zM364 197l-78 279l-77 -279h155zM496 793l-164 -151h-111l97 151h178z" />
    <glyph glyph-name="acircumflex.sc" horiz-adv-x="578" 
d="M422 0l-28 91h-215l-28 -91h-150l196 580h185l196 -580h-156zM364 197l-78 279l-77 -279h155zM363 793l138 -151h-133l-79 73l-79 -73h-133l138 151h148z" />
    <glyph glyph-name="atilde.sc" horiz-adv-x="578" 
d="M422 0l-28 91h-215l-28 -91h-150l196 580h185l196 -580h-156zM364 197l-78 279l-77 -279h155zM225 785q32 0 58.5 -12t44.5 -24t29 -12q28 0 44 36h79q-7 -60 -42.5 -96t-85.5 -36q-32 0 -59 12t-45 24t-29 12q-28 0 -44 -35h-78q9 61 42.5 96t85.5 35z" />
    <glyph glyph-name="adieresis.sc" horiz-adv-x="578" 
d="M422 0l-28 91h-215l-28 -91h-150l196 580h185l196 -580h-156zM364 197l-78 279l-77 -279h155zM171 802q33 0 57 -23.5t24 -56.5q0 -32 -24.5 -55.5t-56.5 -23.5t-56.5 23.5t-24.5 55.5q0 33 24 56.5t57 23.5zM408 802q33 0 57 -23.5t24 -56.5q0 -32 -24.5 -55.5
t-56.5 -23.5t-56.5 23.5t-24.5 55.5q0 33 24 56.5t57 23.5z" />
    <glyph glyph-name="aring.sc" horiz-adv-x="578" 
d="M422 0l-28 91h-215l-28 -91h-150l196 580h185l196 -580h-156zM364 197l-78 279l-77 -279h155zM289 891q56 0 96 -36t40 -92q0 -57 -40 -93t-96 -36t-96 36t-40 93q0 56 40 92t96 36zM289 813q-20 0 -33 -13.5t-13 -36.5t13.5 -37t32.5 -14t32.5 14t13.5 37t-13 36.5
t-33 13.5z" />
    <glyph glyph-name="ae.sc" horiz-adv-x="843" 
d="M777 580v-116h-282l18 -113h248v-110h-229l20 -124h268v-117h-392l-13 85h-229l-39 -85h-156l286 580h500zM359 466l-128 -266h167z" />
    <glyph glyph-name="ccedilla.sc" horiz-adv-x="659" 
d="M338 595q203 0 272 -170l-139 -41q-19 48 -50 70t-81 22q-70 0 -108.5 -47.5t-38.5 -136.5q0 -90 38 -139t112 -49q103 0 142 106l140 -43q-34 -82 -101 -128t-157 -53v-30q52 -5 81.5 -30t29.5 -62q0 -51 -41 -79t-107 -28q-71 0 -125 28l34 70q39 -17 76 -17
q49 0 49 30q0 21 -25 29t-79 8l14 86q-101 17 -167 92t-66 208q0 77 24.5 137t67 95.5t94.5 53.5t111 18z" />
    <glyph glyph-name="egrave.sc" horiz-adv-x="536" 
d="M486 580v-116h-270v-112h252v-112h-252v-123h278v-117h-423v580h415zM248 793l97 -151h-111l-164 151h178z" />
    <glyph glyph-name="eacute.sc" horiz-adv-x="536" 
d="M486 580v-116h-270v-112h252v-112h-252v-123h278v-117h-423v580h415zM485 793l-164 -151h-111l97 151h178z" />
    <glyph glyph-name="ecircumflex.sc" horiz-adv-x="536" 
d="M486 580v-116h-270v-112h252v-112h-252v-123h278v-117h-423v580h415zM352 793l138 -151h-133l-79 73l-79 -73h-133l138 151h148z" />
    <glyph glyph-name="edieresis.sc" horiz-adv-x="536" 
d="M486 580v-116h-270v-112h252v-112h-252v-123h278v-117h-423v580h415zM160 802q33 0 57 -23.5t24 -56.5q0 -32 -24.5 -55.5t-56.5 -23.5t-56.5 23.5t-24.5 55.5q0 33 24 56.5t57 23.5zM397 802q33 0 57 -23.5t24 -56.5q0 -32 -24.5 -55.5t-56.5 -23.5t-56.5 23.5
t-24.5 55.5q0 33 24 56.5t57 23.5z" />
    <glyph glyph-name="igrave.sc" horiz-adv-x="342" 
d="M306 580v-114h-63v-352h63v-114h-272v114h64v352h-64v114h272zM140 793l97 -151h-111l-164 151h178z" />
    <glyph glyph-name="iacute.sc" horiz-adv-x="342" 
d="M306 580v-114h-63v-352h63v-114h-272v114h64v352h-64v114h272zM377 793l-164 -151h-111l97 151h178z" />
    <glyph glyph-name="icircumflex.sc" horiz-adv-x="342" 
d="M306 580v-114h-63v-352h63v-114h-272v114h64v352h-64v114h272zM244 793l138 -151h-133l-79 73l-79 -73h-133l138 151h148z" />
    <glyph glyph-name="idieresis.sc" horiz-adv-x="342" 
d="M306 580v-114h-63v-352h63v-114h-272v114h64v352h-64v114h272zM52 802q33 0 57 -23.5t24 -56.5q0 -32 -24.5 -55.5t-56.5 -23.5t-56.5 23.5t-24.5 55.5q0 33 24 56.5t57 23.5zM289 802q33 0 57 -23.5t24 -56.5q0 -32 -24.5 -55.5t-56.5 -23.5t-56.5 23.5t-24.5 55.5
q0 33 24 56.5t57 23.5z" />
    <glyph glyph-name="eth.sc" horiz-adv-x="647" 
d="M77 580h205q143 0 234 -68.5t91 -215.5q0 -80 -26 -140t-70 -92.5t-94.5 -48t-108.5 -15.5h-231v255h-67v95h67v230zM222 117h86q148 0 148 180q0 82 -40 124t-130 42h-64v-113h144v-95h-144v-138z" />
    <glyph glyph-name="ntilde.sc" horiz-adv-x="655" 
d="M585 580v-580h-168l-214 371v-371h-132v580h168l214 -385v385h132zM264 785q32 0 58.5 -12t44.5 -24t29 -12q28 0 44 36h79q-7 -60 -42.5 -96t-85.5 -36q-32 0 -59 12t-45 24t-29 12q-28 0 -44 -35h-78q9 61 42.5 96t85.5 35z" />
    <glyph glyph-name="ograve.sc" horiz-adv-x="695" 
d="M349 595q58 0 110 -16.5t97 -51t72 -96t27 -142.5q0 -148 -88.5 -226t-217.5 -78q-45 0 -88 10t-83.5 33.5t-70.5 58t-48 87t-18 117.5q0 77 25.5 137t69 95.5t97.5 53.5t116 18zM349 478q-71 0 -113.5 -48.5t-42.5 -137.5q0 -91 40 -140.5t116 -49.5q69 0 112 48.5
t43 137.5q0 90 -39.5 140t-115.5 50zM318 793l97 -151h-111l-164 151h178z" />
    <glyph glyph-name="oacute.sc" horiz-adv-x="695" 
d="M349 595q58 0 110 -16.5t97 -51t72 -96t27 -142.5q0 -148 -88.5 -226t-217.5 -78q-45 0 -88 10t-83.5 33.5t-70.5 58t-48 87t-18 117.5q0 77 25.5 137t69 95.5t97.5 53.5t116 18zM349 478q-71 0 -113.5 -48.5t-42.5 -137.5q0 -91 40 -140.5t116 -49.5q69 0 112 48.5
t43 137.5q0 90 -39.5 140t-115.5 50zM555 793l-164 -151h-111l97 151h178z" />
    <glyph glyph-name="ocircumflex.sc" horiz-adv-x="695" 
d="M349 595q58 0 110 -16.5t97 -51t72 -96t27 -142.5q0 -148 -88.5 -226t-217.5 -78q-45 0 -88 10t-83.5 33.5t-70.5 58t-48 87t-18 117.5q0 77 25.5 137t69 95.5t97.5 53.5t116 18zM349 478q-71 0 -113.5 -48.5t-42.5 -137.5q0 -91 40 -140.5t116 -49.5q69 0 112 48.5
t43 137.5q0 90 -39.5 140t-115.5 50zM422 793l138 -151h-133l-79 73l-79 -73h-133l138 151h148z" />
    <glyph glyph-name="otilde.sc" horiz-adv-x="695" 
d="M349 595q58 0 110 -16.5t97 -51t72 -96t27 -142.5q0 -148 -88.5 -226t-217.5 -78q-45 0 -88 10t-83.5 33.5t-70.5 58t-48 87t-18 117.5q0 77 25.5 137t69 95.5t97.5 53.5t116 18zM349 478q-71 0 -113.5 -48.5t-42.5 -137.5q0 -91 40 -140.5t116 -49.5q69 0 112 48.5
t43 137.5q0 90 -39.5 140t-115.5 50zM284 785q32 0 58.5 -12t44.5 -24t29 -12q28 0 44 36h79q-7 -60 -42.5 -96t-85.5 -36q-32 0 -59 12t-45 24t-29 12q-28 0 -44 -35h-78q9 61 42.5 96t85.5 35z" />
    <glyph glyph-name="odieresis.sc" horiz-adv-x="695" 
d="M349 595q58 0 110 -16.5t97 -51t72 -96t27 -142.5q0 -148 -88.5 -226t-217.5 -78q-45 0 -88 10t-83.5 33.5t-70.5 58t-48 87t-18 117.5q0 77 25.5 137t69 95.5t97.5 53.5t116 18zM349 478q-71 0 -113.5 -48.5t-42.5 -137.5q0 -91 40 -140.5t116 -49.5q69 0 112 48.5
t43 137.5q0 90 -39.5 140t-115.5 50zM230 802q33 0 57 -23.5t24 -56.5q0 -32 -24.5 -55.5t-56.5 -23.5t-56.5 23.5t-24.5 55.5q0 33 24 56.5t57 23.5zM467 802q33 0 57 -23.5t24 -56.5q0 -32 -24.5 -55.5t-56.5 -23.5t-56.5 23.5t-24.5 55.5q0 33 24 56.5t57 23.5z" />
    <glyph glyph-name="oslash.sc" horiz-adv-x="695" 
d="M643 656l-84 -133q96 -81 96 -234q0 -148 -88.5 -226t-217.5 -78q-64 0 -121 22l-56 -91h-118l89 139q-102 83 -102 236q0 77 25.5 137t69 95.5t97.5 53.5t116 18q66 0 125 -23l52 84h117zM349 480q-73 0 -115.5 -49t-42.5 -139q0 -88 31 -134l198 309q-29 13 -71 13z
M477 413l-194 -302q27 -10 65 -10q72 0 115 48t43 139q0 81 -29 125z" />
    <glyph glyph-name="ugrave.sc" horiz-adv-x="636" 
d="M574 580v-359q0 -104 -64.5 -170t-192.5 -66q-130 0 -192.5 66t-62.5 170v359h145v-361q0 -116 111 -116q112 0 112 116v361h144zM288 793l97 -151h-111l-164 151h178z" />
    <glyph glyph-name="uacute.sc" horiz-adv-x="636" 
d="M574 580v-359q0 -104 -64.5 -170t-192.5 -66q-130 0 -192.5 66t-62.5 170v359h145v-361q0 -116 111 -116q112 0 112 116v361h144zM525 793l-164 -151h-111l97 151h178z" />
    <glyph glyph-name="ucircumflex.sc" horiz-adv-x="636" 
d="M574 580v-359q0 -104 -64.5 -170t-192.5 -66q-130 0 -192.5 66t-62.5 170v359h145v-361q0 -116 111 -116q112 0 112 116v361h144zM392 793l138 -151h-133l-79 73l-79 -73h-133l138 151h148z" />
    <glyph glyph-name="udieresis.sc" horiz-adv-x="636" 
d="M574 580v-359q0 -104 -64.5 -170t-192.5 -66q-130 0 -192.5 66t-62.5 170v359h145v-361q0 -116 111 -116q112 0 112 116v361h144zM200 802q33 0 57 -23.5t24 -56.5q0 -32 -24.5 -55.5t-56.5 -23.5t-56.5 23.5t-24.5 55.5q0 33 24 56.5t57 23.5zM437 802q33 0 57 -23.5
t24 -56.5q0 -32 -24.5 -55.5t-56.5 -23.5t-56.5 23.5t-24.5 55.5q0 33 24 56.5t57 23.5z" />
    <glyph glyph-name="yacute.sc" horiz-adv-x="554" 
d="M558 580l-211 -352v-228h-144v226l-211 354h167l118 -236l119 236h162zM483 793l-164 -151h-111l97 151h178z" />
    <glyph glyph-name="thorn.sc" horiz-adv-x="585" 
d="M216 580v-88h91q126 0 188.5 -53.5t62.5 -147.5q0 -96 -62.5 -149t-187.5 -53h-92v-89h-145v580h145zM316 375h-100v-171h97q93 0 93 88q0 83 -90 83z" />
    <glyph glyph-name="ydieresis.sc" horiz-adv-x="554" 
d="M558 580l-211 -352v-228h-144v226l-211 354h167l118 -236l119 236h162zM158 802q33 0 57 -23.5t24 -56.5q0 -32 -24.5 -55.5t-56.5 -23.5t-56.5 23.5t-24.5 55.5q0 33 24 56.5t57 23.5zM395 802q33 0 57 -23.5t24 -56.5q0 -32 -24.5 -55.5t-56.5 -23.5t-56.5 23.5
t-24.5 55.5q0 33 24 56.5t57 23.5z" />
    <glyph glyph-name="dotlessi.sc" horiz-adv-x="342" 
d="M306 580v-114h-63v-352h63v-114h-272v114h64v352h-64v114h272z" />
    <glyph glyph-name="ij.sc" horiz-adv-x="729" 
d="M306 580v-114h-63v-352h63v-114h-272v114h64v352h-64v114h272zM669 580v-385q0 -97 -47 -148.5t-159 -51.5q-38 0 -88 5v118q32 -2 48 -2q59 0 80 18.5t21 67.5v378h145z" />
    <glyph glyph-name="lslash.sc" horiz-adv-x="499" 
d="M220 124h261v-124h-406v211l-65 -34v98l65 34v271h145v-195l126 66v-99l-126 -66v-162z" />
    <glyph glyph-name="oe.sc" horiz-adv-x="877" 
d="M351 595q58 0 112 -15h364v-116h-261v-113h243v-110h-243v-124h269v-117h-379q-58 -15 -109 -15q-44 0 -86 10t-82.5 33.5t-70.5 58t-48.5 87.5t-18.5 117q0 77 26 137t70 95.5t98 53.5t116 18zM351 478q-71 0 -114.5 -48.5t-43.5 -137.5q0 -91 41 -140.5t117 -49.5
q40 0 70 11v355q-32 10 -70 10z" />
    <glyph glyph-name="scaron.sc" horiz-adv-x="595" 
d="M296 595q165 0 265 -104l-102 -76q-67 65 -161 65q-44 0 -69 -14t-25 -40t27.5 -41t111.5 -29q117 -19 170 -61.5t53 -121.5q0 -88 -71 -138t-193 -50q-181 0 -284 112l104 81q80 -78 183 -78q49 0 79 16.5t30 45.5t-27.5 44t-116.5 31q-113 21 -165 63.5t-52 120.5
q0 79 66.5 126.5t176.5 47.5zM515 803l-138 -151h-148l-138 151h133l79 -72l79 72h133z" />
    <glyph glyph-name="zcaron.sc" horiz-adv-x="542" 
d="M500 580v-113l-292 -345h302v-122h-489v112l295 349h-276v119h460zM478 803l-138 -151h-148l-138 151h133l79 -72l79 72h133z" />
    <glyph glyph-name="longs.sc" horiz-adv-x="595" 
d="M296 595q165 0 265 -104l-102 -76q-67 65 -161 65q-44 0 -69 -14t-25 -40t27.5 -41t111.5 -29q117 -19 170 -61.5t53 -121.5q0 -88 -71 -138t-193 -50q-181 0 -284 112l104 81q80 -78 183 -78q49 0 79 16.5t30 45.5t-27.5 44t-116.5 31q-113 21 -165 63.5t-52 120.5
q0 79 66.5 126.5t176.5 47.5z" />
    <glyph glyph-name="florin.sc" horiz-adv-x="341" 
d="M226 595q61 0 121 -20v-105q-50 16 -92 16q-33 0 -47 -11t-14 -40v-32h130v-105h-130v-307q0 -88 -48 -131.5t-120 -43.5q-40 0 -74 8v106q11 -1 20 -1q44 0 60 20t16 81v268h-72v105h72v51q0 65 43.5 103t134.5 38z" />
    <glyph glyph-name="uni0394.sc" horiz-adv-x="578" 
d="M382 580l196 -580h-577l196 580h185zM287 472l-107 -366h213z" />
    <glyph glyph-name="uni03A9.sc" horiz-adv-x="702" 
d="M352 595q128 0 217.5 -74t89.5 -210q0 -70 -31.5 -120t-81.5 -78h106v-113h-251v113q49 20 77.5 71t28.5 120q0 83 -42.5 129t-112.5 46t-113 -47.5t-43 -127.5q0 -69 28.5 -120t77.5 -71v-113h-251v113h107q-114 64 -114 197q0 70 25.5 125.5t69 89.5t98 52t115.5 18z
" />
    <glyph glyph-name="uni1E9E.sc" horiz-adv-x="634" 
d="M398 -15q-86 0 -148 31l38 96q41 -19 86 -19q36 0 62 20t26 57q0 39 -32.5 59.5t-111.5 35.5v79l106 111q-38 26 -105 26q-111 0 -111 -114v-367h-146v374q0 103 68 162t189 59q159 0 264 -114l-128 -140q69 -19 113 -63t44 -109q0 -81 -58 -132.5t-156 -51.5z" />
    <glyph glyph-name="figuredash.sc" 
d="M562 334v-122h-524v122h524z" />
    <glyph glyph-name="dagger.sc" horiz-adv-x="638" 
d="M390 580v-149h162v-118h-162v-313h-144v313h-162v118h162v149h144z" />
    <glyph glyph-name="daggerdbl.sc" horiz-adv-x="638" 
d="M390 580v-110h162v-113h-162v-126h162v-113h-162v-118h-144v118h-162v113h162v126h-162v113h162v110h144z" />
    <glyph glyph-name="perthousand.sc" horiz-adv-x="1416" 
d="M220 595q79 0 132.5 -55.5t53.5 -145.5q0 -93 -53 -147t-133 -54t-133 54t-53 147q0 90 53.5 145.5t132.5 55.5zM736 587l-355 -598h-110l357 598h108zM220 511q-41 0 -61 -31.5t-20 -85.5q0 -117 81 -117q40 0 60.5 31t20.5 86q0 54 -20.5 85.5t-60.5 31.5zM786 387
q79 0 132.5 -55.5t53.5 -145.5q0 -93 -53 -147t-133 -54q-79 0 -132.5 54.5t-53.5 146.5q0 90 53.5 145.5t132.5 55.5zM1194 387q79 0 132.5 -55.5t53.5 -145.5q0 -93 -53 -147t-133 -54q-79 0 -132.5 54.5t-53.5 146.5q0 90 53.5 145.5t132.5 55.5zM786 303
q-41 0 -61 -31.5t-20 -85.5q0 -117 81 -117q40 0 60.5 31t20.5 86q0 54 -20.5 85.5t-60.5 31.5zM1194 303q-41 0 -61 -31.5t-20 -85.5q0 -117 81 -117q40 0 60.5 31t20.5 86q0 54 -20.5 85.5t-60.5 31.5z" />
    <glyph glyph-name="Euro.sc" 
d="M380 595q108 0 183 -69l-39 -102q-55 63 -135 63q-49 0 -82 -27t-47 -74h247l-25 -71h-232q-2 -25 0 -51h219l-26 -71h-183q27 -100 127 -100q77 0 150 60v-119q-73 -50 -168 -50t-161.5 53t-88.5 156h-82l26 71h50q-1 26 0 51h-73l25 71h55q25 99 94 154t166 55z" />
    <glyph glyph-name="partialdiff.sc" 
d="M124 485v110q432 0 432 -332q0 -141 -74.5 -210t-188.5 -69q-109 0 -179 56t-70 149q0 94 63.5 146t154.5 52q94 0 146 -60q-10 90 -81 124t-203 34zM295 279q-50 0 -77 -25.5t-27 -66.5q0 -43 29 -67.5t76 -24.5q45 0 74 24.5t29 65.5q0 43 -28.5 68.5t-75.5 25.5z" />
    <glyph glyph-name="product.sc" 
d="M553 580v-114h-47v-535h-137v535h-137v-535h-137v535h-48v114h506z" />
    <glyph glyph-name="summation.sc" 
d="M552 580v-109h-325l155 -134v-88l-157 -137h327v-112h-493v101l208 192l-208 185v102h493z" />
    <glyph glyph-name="radical.sc" 
d="M705 700v-115h-193l-201 -585h-155l-173 422h146l102 -292l183 570h291z" />
    <glyph glyph-name="integral.sc" horiz-adv-x="300" 
d="M271 732q52 0 106 -16v-113q-48 16 -85 16q-69 0 -69 -55v-622q0 -69 -49.5 -112t-141.5 -43q-56 0 -110 16v112q55 -15 85 -15q70 0 70 60v621q0 67 50 109t144 42z" />
    <glyph glyph-name="lozenge.sc" 
d="M383 580l195 -281l-195 -299h-167l-195 297l195 283h167zM299 498l-132 -200l134 -213l132 212z" />
    <glyph glyph-name="fi.sc" horiz-adv-x="862" 
d="M477 580v-116h-261v-128h241v-112h-241v-224h-145v580h406zM826 580v-114h-63v-352h63v-114h-272v114h64v352h-64v114h272z" />
    <glyph glyph-name="fl.sc" horiz-adv-x="1015" 
d="M477 580v-116h-261v-128h241v-112h-241v-224h-145v580h406zM736 580v-456h261v-124h-406v580h145z" />
    <glyph glyph-name="dollar.tf.sc" 
d="M353 700v-108q131 -16 211 -115l-102 -70q-51 66 -118 75v-133q125 -27 175.5 -65.5t50.5 -112.5q0 -77 -58 -127t-159 -59v-133h-86v133q-154 11 -239 119l90 79q70 -81 159 -90v146q-119 25 -169.5 66t-50.5 116q0 73 56.5 119t153.5 53v107h86zM276 364v121
q-80 -5 -80 -56q0 -22 15.5 -37t64.5 -28zM344 225v-131q43 2 64 20t21 43q0 26 -16.5 41t-68.5 27z" />
    <glyph glyph-name="zero.tf.sc" 
d="M300 598q125 0 200 -83.5t75 -225.5q0 -140 -74.5 -221.5t-200.5 -81.5t-200 81.5t-74 221.5q0 142 74.5 225.5t199.5 83.5zM300 481q-60 0 -92.5 -50.5t-32.5 -141.5q0 -88 32.5 -137t92.5 -49q61 0 93.5 48t32.5 138t-33 141t-93 51z" />
    <glyph glyph-name="one.tf.sc" 
d="M102 0v117h161v234h-162v100h21q87 0 123 32t47 97h117v-463h132v-117h-439z" />
    <glyph glyph-name="two.tf.sc" 
d="M305 595q104 0 169.5 -53.5t65.5 -137.5q0 -89 -59 -149.5t-205 -137.5h269v-117h-490v114q203 118 266 171t63 112q0 38 -23 60t-61 22q-48 0 -74 -30.5t-26 -79.5h-147q3 94 69.5 160t182.5 66z" />
    <glyph glyph-name="three.tf.sc" 
d="M324 596q108 0 167 -45t59 -114q0 -49 -28.5 -84t-77.5 -46q56 -8 92 -43t36 -93q0 -85 -70 -135t-184 -50q-103 0 -172 48t-87 129l138 27q21 -90 120 -90q47 0 74.5 21t27.5 58q0 75 -89 75h-63v92h53q39 0 63.5 17.5t24.5 54.5q0 31 -23.5 48t-65.5 17q-89 0 -110 -83
l-138 22q18 74 83.5 124t169.5 50z" />
    <glyph glyph-name="four.tf.sc" 
d="M502 580v-361h85v-115h-85v-104h-142v104h-305v116l255 360h192zM363 458l-164 -239h164v239z" />
    <glyph glyph-name="five.tf.sc" 
d="M535 580l-17 -115h-259l-16 -107q53 46 131 46q79 0 138 -55t59 -142q0 -100 -68.5 -160.5t-186.5 -60.5q-101 0 -164.5 43t-83.5 111l141 31q28 -70 107 -70q45 0 74.5 27.5t29.5 72.5q0 44 -26 69t-71 25q-55 0 -101 -49l-130 16l49 318h394z" />
    <glyph glyph-name="six.tf.sc" 
d="M334 598q155 0 213 -126l-133 -37q-21 52 -81 52q-100 0 -114 -156q48 66 145 66q82 0 144.5 -54.5t62.5 -145.5q0 -97 -70 -154t-176 -57q-113 0 -186 68.5t-73 212.5q0 158 71.5 244.5t196.5 86.5zM324 287q-43 0 -69 -25.5t-26 -68.5t26.5 -68t67.5 -25q43 0 70 25
t27 69q0 42 -25.5 67.5t-70.5 25.5z" />
    <glyph glyph-name="seven.tf.sc" 
d="M569 580v-114q-90 -114 -138.5 -220.5t-70.5 -245.5h-171q31 157 88 260.5t151 203.5h-205v-61h-123v177h469z" />
    <glyph glyph-name="eight.tf.sc" horiz-adv-x="609" 
d="M312 595q106 0 167.5 -48t61.5 -111q0 -80 -89 -117q123 -43 123 -155q0 -77 -63 -127.5t-198 -50.5q-129 0 -193 50t-64 126q0 56 27.5 88.5t82.5 53.5q-74 43 -74 127q0 68 57.5 116t161.5 48zM314 485q-35 0 -56 -15t-21 -44q0 -26 19 -41.5t62 -25.5l35 -8
q44 32 44 73q0 26 -21.5 43.5t-61.5 17.5zM306 248l-42 9q-57 -29 -57 -84q0 -35 29.5 -54.5t79.5 -19.5q109 0 109 71q0 34 -25 48.5t-94 29.5z" />
    <glyph glyph-name="nine.tf.sc" 
d="M294 -14q-162 0 -221 126l132 39q24 -54 91 -54q101 0 115 157q-48 -66 -146 -66q-82 0 -144 54t-62 145q0 97 70.5 154t176.5 57q114 0 186 -68.5t72 -212.5q0 -158 -72 -244.5t-198 -86.5zM306 297q43 0 69 25.5t26 68.5q0 42 -27 67.5t-67 25.5q-43 0 -70 -25t-27 -69
q0 -42 25 -67.5t71 -25.5z" />
    <glyph glyph-name="cent.tf.sc" 
d="M444 209l128 -40q-30 -78 -87.5 -123.5t-135.5 -56.5v-138h-93v137q-101 13 -165.5 88t-64.5 215q0 137 64 212.5t166 88.5v126h93v-127q155 -23 212 -171l-131 -36q-30 80 -91 95v-378q74 15 105 108zM167 292q0 -169 99 -191v378q-99 -24 -99 -187z" />
    <glyph glyph-name="sterling.tf.sc" 
d="M344 595q80 0 135.5 -39.5t79.5 -106.5l-134 -42q-11 40 -30.5 58t-54.5 18q-36 0 -58 -23.5t-22 -66.5v-62h185v-76h-185v-33q0 -69 -45 -104h318v-118h-460l-15 107q35 15 47 38t12 72v38h-76v76h76v70q0 81 61 137.5t166 56.5z" />
    <glyph glyph-name="yen.tf.sc" 
d="M576 580l-174 -298h122v-76h-151v-39h151v-76h-151v-91h-146v91h-147v76h147v39h-147v76h118l-174 298h163l115 -261l116 261h158z" />
    <glyph glyph-name="figuredash.tf.sc" 
d="M562 334v-122h-524v122h524z" />
    <glyph glyph-name="Euro.tf.sc" 
d="M380 595q108 0 183 -69l-39 -102q-55 63 -135 63q-49 0 -82 -27t-47 -74h247l-25 -71h-232q-2 -25 0 -51h219l-26 -71h-183q27 -100 127 -100q77 0 150 60v-119q-73 -50 -168 -50t-161.5 53t-88.5 156h-82l26 71h50q-1 26 0 51h-73l25 71h55q25 99 94 154t166 55z" />
    <glyph glyph-name="dollar.lf.sc" horiz-adv-x="619" 
d="M363 700v-108q131 -16 211 -115l-102 -70q-51 66 -118 75v-133q125 -27 175.5 -65.5t50.5 -112.5q0 -77 -58 -127t-159 -59v-133h-86v133q-154 11 -239 119l90 79q70 -81 159 -90v146q-119 25 -169.5 66t-50.5 116q0 73 56.5 119t153.5 53v107h86zM286 364v121
q-80 -5 -80 -56q0 -22 15.5 -37t64.5 -28zM354 225v-131q43 2 64 20t21 43q0 26 -16.5 41t-68.5 27z" />
    <glyph glyph-name="zero.lf.sc" horiz-adv-x="626" 
d="M313 598q133 0 211.5 -84t78.5 -225t-78.5 -222t-211.5 -81t-211 81t-78 222t78.5 225t210.5 84zM313 481q-66 0 -102 -51t-36 -141q0 -89 36 -137.5t102 -48.5t102 48t36 138q0 89 -36.5 140.5t-101.5 51.5z" />
    <glyph glyph-name="one.lf.sc" horiz-adv-x="485" 
d="M57 0v117h161v234h-162v100h21q87 0 123 32t47 97h117v-463h132v-117h-439z" />
    <glyph glyph-name="two.lf.sc" horiz-adv-x="560" 
d="M287 595q104 0 169.5 -53.5t65.5 -137.5q0 -89 -59 -149.5t-205 -137.5h269v-117h-490v114q203 118 266 171t63 112q0 38 -23 60t-61 22q-48 0 -74 -30.5t-26 -79.5h-147q3 94 69.5 160t182.5 66z" />
    <glyph glyph-name="three.lf.sc" horiz-adv-x="587" 
d="M298 596q108 0 167 -45t59 -114q0 -49 -28.5 -84t-77.5 -46q56 -8 92 -43t36 -93q0 -85 -70 -135t-184 -50q-103 0 -172 48t-87 129l138 27q21 -90 120 -90q47 0 74.5 21t27.5 58q0 75 -89 75h-63v92h53q39 0 63.5 17.5t24.5 54.5q0 31 -23.5 48t-65.5 17q-89 0 -110 -83
l-138 22q18 74 83.5 124t169.5 50z" />
    <glyph glyph-name="four.lf.sc" horiz-adv-x="599" 
d="M482 580v-361h85v-115h-85v-104h-142v104h-305v116l255 360h192zM343 458l-164 -239h164v239z" />
    <glyph glyph-name="five.lf.sc" horiz-adv-x="587" 
d="M507 580l-17 -115h-259l-16 -107q53 46 131 46q79 0 138 -55t59 -142q0 -100 -68.5 -160.5t-186.5 -60.5q-101 0 -164.5 43t-83.5 111l141 31q28 -70 107 -70q45 0 74.5 27.5t29.5 72.5q0 44 -26 69t-71 25q-55 0 -101 -49l-130 16l49 318h394z" />
    <glyph glyph-name="six.lf.sc" horiz-adv-x="595" 
d="M316 598q155 0 213 -126l-133 -37q-21 52 -81 52q-100 0 -114 -156q48 66 145 66q82 0 144.5 -54.5t62.5 -145.5q0 -97 -70 -154t-176 -57q-113 0 -186 68.5t-73 212.5q0 158 71.5 244.5t196.5 86.5zM306 287q-43 0 -69 -25.5t-26 -68.5t26.5 -68t67.5 -25q43 0 70 25
t27 69q0 42 -25.5 67.5t-70.5 25.5z" />
    <glyph glyph-name="seven.lf.sc" horiz-adv-x="524" 
d="M500 580v-114q-90 -114 -138.5 -220.5t-70.5 -245.5h-171q31 157 88 260.5t151 203.5h-205v-61h-123v177h469z" />
    <glyph glyph-name="eight.lf.sc" 
d="M297 595q106 0 167.5 -48t61.5 -111q0 -80 -89 -117q123 -43 123 -155q0 -77 -63 -127.5t-198 -50.5q-129 0 -193 50t-64 126q0 56 27.5 88.5t82.5 53.5q-74 43 -74 127q0 68 57.5 116t161.5 48zM299 485q-35 0 -56 -15t-21 -44q0 -26 19 -41.5t62 -25.5l35 -8
q44 32 44 73q0 26 -21.5 43.5t-61.5 17.5zM291 248l-42 9q-57 -29 -57 -84q0 -35 29.5 -54.5t79.5 -19.5q109 0 109 71q0 34 -25 48.5t-94 29.5z" />
    <glyph glyph-name="nine.lf.sc" horiz-adv-x="603" 
d="M279 -14q-162 0 -221 126l132 39q24 -54 91 -54q101 0 115 157q-48 -66 -146 -66q-82 0 -144 54t-62 145q0 97 70.5 154t176.5 57q114 0 186 -68.5t72 -212.5q0 -158 -72 -244.5t-198 -86.5zM291 297q43 0 69 25.5t26 68.5q0 42 -27 67.5t-67 25.5q-43 0 -70 -25t-27 -69
q0 -42 25 -67.5t71 -25.5z" />
    <glyph glyph-name="cent.lf.sc" horiz-adv-x="619" 
d="M454 209l128 -40q-30 -78 -87.5 -123.5t-135.5 -56.5v-138h-93v137q-101 13 -165.5 88t-64.5 215q0 137 64 212.5t166 88.5v126h93v-127q155 -23 212 -171l-131 -36q-30 80 -91 95v-378q74 15 105 108zM177 292q0 -169 99 -191v378q-99 -24 -99 -187z" />
    <glyph glyph-name="sterling.lf.sc" horiz-adv-x="619" 
d="M354 595q80 0 135.5 -39.5t79.5 -106.5l-134 -42q-11 40 -30.5 58t-54.5 18q-36 0 -58 -23.5t-22 -66.5v-62h185v-76h-185v-33q0 -69 -45 -104h318v-118h-460l-15 107q35 15 47 38t12 72v38h-76v76h76v70q0 81 61 137.5t166 56.5z" />
    <glyph glyph-name="yen.lf.sc" horiz-adv-x="619" 
d="M586 580l-174 -298h122v-76h-151v-39h151v-76h-151v-91h-146v91h-147v76h147v39h-147v76h118l-174 298h163l115 -261l116 261h158z" />
    <glyph glyph-name="figuredash.lf.sc" 
d="M562 334v-122h-524v122h524z" />
    <glyph glyph-name="Euro.lf.sc" horiz-adv-x="619" 
d="M390 595q108 0 183 -69l-39 -102q-55 63 -135 63q-49 0 -82 -27t-47 -74h247l-25 -71h-232q-2 -25 0 -51h219l-26 -71h-183q27 -100 127 -100q77 0 150 60v-119q-73 -50 -168 -50t-161.5 53t-88.5 156h-82l26 71h50q-1 26 0 51h-73l25 71h55q25 99 94 154t166 55z" />
    <glyph glyph-name="parenleft.case" horiz-adv-x="318" 
d="M183 826h114q-54 -135 -78 -237.5t-24 -239.5t24 -238.5t78 -237.5h-114q-143 233 -143 476q0 244 143 477z" />
    <glyph glyph-name="parenright.case" horiz-adv-x="318" 
d="M21 826h114q143 -233 143 -477q0 -243 -143 -476h-114q54 136 78 237.5t24 238.5t-24 239.5t-78 237.5z" />
    <glyph glyph-name="hyphen.case" horiz-adv-x="376" 
d="M335 411v-123h-294v123h294z" />
    <glyph glyph-name="at.case" horiz-adv-x="1051" 
d="M554 817q196 0 312 -108t116 -274q0 -53 -12.5 -105t-38 -100.5t-72.5 -78.5t-109 -30q-59 0 -88.5 28t-34.5 68q-24 -45 -69 -70t-102 -25q-82 0 -133 57t-51 148q0 127 74.5 209.5t177.5 82.5q43 0 77 -17.5t50 -49.5l7 41h104l-52 -310q-12 -70 44 -70q52 0 82.5 66
t30.5 162q0 125 -84.5 205.5t-230.5 80.5q-166 0 -268.5 -106t-102.5 -270q0 -150 89.5 -246.5t232.5 -96.5q106 0 201 32l31 -89q-117 -39 -231 -39q-196 0 -317 122t-121 315q0 206 136 337t352 131zM536 514q-63 0 -97 -56.5t-34 -136.5q0 -95 79 -95q52 0 90.5 49.5
t38.5 144.5q0 94 -77 94z" />
    <glyph glyph-name="bracketleft.case" horiz-adv-x="323" 
d="M292 836v-117h-105v-728h105v-118h-251v963h251z" />
    <glyph glyph-name="bracketright.case" horiz-adv-x="323" 
d="M31 719v117h251v-963h-251v118h105v728h-105z" />
    <glyph glyph-name="braceleft.case" horiz-adv-x="331" 
d="M313 836v-113h-16q-37 0 -49.5 -17t-12.5 -52v-181q0 -55 -29.5 -84t-65.5 -34q36 -5 65.5 -34.5t29.5 -84.5v-179q0 -35 12.5 -52t49.5 -17h16v-113h-56q-80 0 -124.5 42t-44.5 110v190q0 48 -13.5 67.5t-46.5 26.5v88q34 7 47 26t13 67v192q0 68 44.5 110t124.5 42h56z
" />
    <glyph glyph-name="braceright.case" horiz-adv-x="331" 
d="M18 723v113h56q80 0 124.5 -42t44.5 -110v-192q0 -48 13 -67t47 -26v-88q-33 -7 -46.5 -26.5t-13.5 -67.5v-190q0 -68 -44.5 -110t-124.5 -42h-56v113h16q37 0 49.5 17t12.5 52v179q0 55 29.5 84.5t65.5 34.5q-36 5 -65.5 34t-29.5 84v181q0 35 -12.5 52t-49.5 17h-16z
" />
    <glyph glyph-name="exclamdown.case" horiz-adv-x="279" 
d="M139 717q36 0 62.5 -26t26.5 -62t-26.5 -62t-62.5 -26t-62.5 25.5t-26.5 61.5q0 37 26.5 63t62.5 26zM197 475l22 -267v-208h-160v208l21 267h117z" />
    <glyph glyph-name="guillemotleft.case" horiz-adv-x="535" 
d="M181 583l84 -59l-98 -174l98 -174l-84 -59l-150 168v130zM420 583l84 -59l-98 -174l98 -174l-84 -59l-150 168v130z" />
    <glyph glyph-name="uni00AD.case" horiz-adv-x="376" 
d="M335 411v-123h-294v123h294z" />
    <glyph glyph-name="guillemotright.case" horiz-adv-x="535" 
d="M354 583l150 -168v-130l-150 -168l-84 59l98 174l-98 174zM115 583l150 -168v-130l-150 -168l-84 59l98 174l-98 174z" />
    <glyph glyph-name="questiondown.case" horiz-adv-x="534" 
d="M277 717q36 0 62.5 -26t26.5 -62t-26.5 -62t-62.5 -26t-62.5 25.5t-26.5 61.5t26.5 62.5t62.5 26.5zM347 466v-38q0 -40 -17 -71.5t-41.5 -51.5t-49.5 -37.5t-42 -39.5t-17 -48q0 -37 23 -57t63 -20q83 0 117 93l133 -35q-21 -73 -85.5 -126t-169.5 -53
q-115 0 -176.5 56.5t-61.5 133.5q0 43 14 76.5t35 52t46 36.5t46 30.5t35 32.5t14 45v21h134z" />
    <glyph glyph-name="gravecomb.case" horiz-adv-x="1" 
d="M-133 902l99 -149h-114l-169 149h184z" />
    <glyph glyph-name="acutecomb.case" horiz-adv-x="1" 
d="M-26 902l-168 -149h-115l99 149h184z" />
    <glyph glyph-name="uni0302.case" horiz-adv-x="1" 
d="M-168 900l138 -147h-133l-79 66l-79 -66h-133l138 147h148z" />
    <glyph glyph-name="tildecomb.case" horiz-adv-x="1" 
d="M-285 896q32 0 58.5 -12t44.5 -24t29 -12q28 0 44 36h79q-7 -60 -42.5 -96t-85.5 -36q-32 0 -59 12t-45 24t-29 12q-28 0 -44 -35h-78q9 61 42.5 96t85.5 35z" />
    <glyph glyph-name="uni0304.case" horiz-adv-x="1" 
d="M-30 877v-99h-357v99h357z" />
    <glyph glyph-name="uni0306.case" horiz-adv-x="1" 
d="M-115 909h85q-24 -154 -175 -154q-74 0 -119 40.5t-56 113.5h85q11 -57 90 -57q77 0 90 57z" />
    <glyph glyph-name="uni0307.case" horiz-adv-x="1" 
d="M-119 909q36 0 61.5 -24t25.5 -59q0 -34 -25.5 -58t-61.5 -24q-35 0 -60.5 24t-25.5 58q0 35 25.5 59t60.5 24z" />
    <glyph glyph-name="uni0308.case" horiz-adv-x="1" 
d="M-345 913q33 0 57 -23.5t24 -56.5q0 -32 -24.5 -55.5t-56.5 -23.5t-56.5 23.5t-24.5 55.5q0 33 24 56.5t57 23.5zM-108 913q33 0 57 -23.5t24 -56.5q0 -32 -24.5 -55.5t-56.5 -23.5t-56.5 23.5t-24.5 55.5q0 33 24 56.5t57 23.5z" />
    <glyph glyph-name="uni030A.case" horiz-adv-x="1" 
d="M-166 995q56 0 96 -36t40 -93t-40 -93t-96 -36t-96 36t-40 93t40 93t96 36zM-166 916q-20 0 -33 -13.5t-13 -36.5t13 -36.5t33 -13.5t33 13.5t13 36.5t-13 36.5t-33 13.5z" />
    <glyph glyph-name="uni030B.case" horiz-adv-x="1" 
d="M-233 912l-145 -160h-101l88 160h158zM-30 912l-152 -160h-101l96 160h157z" />
    <glyph glyph-name="uni030C.case" horiz-adv-x="1" 
d="M-30 910l-138 -147h-148l-138 147h133l79 -65l79 65h133z" />
    <glyph glyph-name="endash.case" horiz-adv-x="551" 
d="M510 411v-123h-469v123h469z" />
    <glyph glyph-name="emdash.case" horiz-adv-x="669" 
d="M628 411v-123h-587v123h587z" />
    <glyph glyph-name="guilsinglleft.case" horiz-adv-x="296" 
d="M181 583l84 -59l-98 -174l98 -174l-84 -59l-150 168v130z" />
    <glyph glyph-name="guilsinglright.case" horiz-adv-x="296" 
d="M115 583l150 -168v-130l-150 -168l-84 59l98 174l-98 174z" />
    <glyph glyph-name="zero.zero" horiz-adv-x="642" 
d="M321 598q133 0 212.5 -84t79.5 -225t-79 -222t-213 -81q-133 0 -212 81t-79 222t79.5 225t211.5 84zM321 481q-66 0 -103.5 -51.5t-37.5 -140.5q0 -73 21 -117l205 282q-31 27 -85 27zM321 103q66 0 103 48t37 138q0 66 -17 109l-198 -277q32 -18 75 -18z" />
    <glyph glyph-name="zero.tf.zero" 
d="M299 718q126 0 198.5 -94t72.5 -274t-72.5 -274t-198.5 -94t-198 94t-72 274t72 274t198 94zM300 603q-126 0 -126 -250q0 -81 9 -132l203 349q-27 33 -86 33zM299 97q62 0 94.5 65.5t32.5 190.5q0 82 -9 133l-205 -351q27 -38 87 -38z" />
    <glyph glyph-name="zero.lf.zero" horiz-adv-x="628" 
d="M314 697q133 0 212 -91.5t79 -261.5q0 -172 -79 -265.5t-212 -93.5t-212 93.5t-79 265.5q0 170 78.5 261.5t212.5 91.5zM316 588q-146 0 -146 -241q0 -85 18 -142l208 355q-32 28 -80 28zM311 107q69 0 107.5 62.5t38.5 177.5q0 93 -21 151l-210 -359q32 -32 85 -32z" />
    <glyph glyph-name="zero.tosf.zero" 
d="M300 598q125 0 200 -83.5t75 -225.5q0 -140 -74.5 -221.5t-200.5 -81.5t-200 81.5t-74 221.5q0 142 74.5 225.5t199.5 83.5zM300 487q-59 0 -94 -53.5t-35 -144.5q0 -77 18 -121l176 304q-26 15 -65 15zM300 97q60 0 94.5 50.5t34.5 141.5q0 85 -21 132l-177 -307
q27 -17 69 -17z" />
    <glyph glyph-name="zero.tf.sc.zero" 
d="M300 598q125 0 200 -83.5t75 -225.5q0 -140 -74.5 -221.5t-200.5 -81.5t-200 81.5t-74 221.5q0 142 74.5 225.5t199.5 83.5zM300 487q-59 0 -94 -53.5t-35 -144.5q0 -77 18 -121l176 304q-26 15 -65 15zM300 97q60 0 94.5 50.5t34.5 141.5q0 85 -21 132l-177 -307
q27 -17 69 -17z" />
    <glyph glyph-name="zero.lf.sc.zero" horiz-adv-x="642" 
d="M321 598q133 0 212.5 -84t79.5 -225t-79 -222t-213 -81q-133 0 -212 81t-79 222t79.5 225t211.5 84zM321 481q-66 0 -103.5 -51.5t-37.5 -140.5q0 -73 21 -117l205 282q-31 27 -85 27zM321 103q66 0 103 48t37 138q0 66 -17 109l-198 -277q32 -18 75 -18z" />
    <glyph glyph-name="exclam.ss01" horiz-adv-x="279" 
d="M220 703v-208l-22 -256h-117l-21 256v208h160zM218 156v-156h-157v156h157z" />
    <glyph glyph-name="comma.ss01" horiz-adv-x="293" 
d="M227 159v-159l-78 -165h-88l45 165h-40v159h161z" />
    <glyph glyph-name="period.ss01" horiz-adv-x="293" 
d="M227 159v-159h-161v159h161z" />
    <glyph glyph-name="colon.ss01" horiz-adv-x="293" 
d="M227 159v-159h-161v159h161zM227 514v-159h-161v159h161z" />
    <glyph glyph-name="semicolon.ss01" horiz-adv-x="300" 
d="M227 159v-159l-78 -165h-88l45 165h-40v159h161zM227 516v-159h-161v159h161z" />
    <glyph glyph-name="question.ss01" horiz-adv-x="534" 
d="M273 714q115 0 176.5 -56.5t61.5 -133.5q0 -43 -14 -76.5t-34.5 -52t-44.5 -36t-44.5 -30.5t-34.5 -32.5t-14 -44.5v-25h-142v41q0 40 17.5 71.5t42.5 51.5t50.5 37.5t43 39.5t17.5 48q0 38 -23 58t-63 20q-83 0 -118 -94l-132 36q21 73 85.5 125.5t169.5 52.5zM335 156
v-156h-157v156h157z" />
    <glyph glyph-name="i.ss01" horiz-adv-x="273" 
d="M210 531v-531h-146v531h146zM216 743v-141h-158v141h158z" />
    <glyph glyph-name="j.ss01" horiz-adv-x="273" 
d="M210 531v-544q0 -89 -48 -132t-120 -43q-45 0 -74 7v107q11 -1 20 -1q44 0 60 20t16 80v506h146zM216 743v-141h-158v141h158z" />
    <glyph glyph-name="exclamdown.ss01" horiz-adv-x="279" 
d="M218 531v-155h-157v155h157zM197 283l22 -240v-208h-160v208l21 240h117z" />
    <glyph glyph-name="periodcentered.ss01" horiz-adv-x="293" 
d="M227 380v-159h-161v159h161z" />
    <glyph glyph-name="questiondown.ss01" horiz-adv-x="534" 
d="M357 531v-155h-156v155h156zM351 300v-38q0 -40 -17.5 -71.5t-42.5 -51.5t-50.5 -37.5t-43 -39.5t-17.5 -48q0 -37 23 -57t63 -20q83 0 117 94l133 -36q-21 -73 -85.5 -126t-169.5 -53q-114 0 -176 57t-62 133q0 43 14 76.5t34.5 52t44.5 36.5t44.5 30.5t34.5 32.5t14 45
v21h142z" />
    <glyph glyph-name="Adieresis.ss01" horiz-adv-x="648" 
d="M485 0l-32 110h-264l-32 -110h-156l227 700h192l227 -700h-162zM321 583l-98 -351h196zM279 903v-132h-136v132h136zM505 903v-132h-136v132h136z" />
    <glyph glyph-name="Edieresis.ss01" horiz-adv-x="590" 
d="M538 700v-126h-315v-156h294v-122h-294v-170h324v-126h-476v700h467zM259 903v-132h-136v132h136zM485 903v-132h-136v132h136z" />
    <glyph glyph-name="Idieresis.ss01" horiz-adv-x="399" 
d="M363 700v-121h-88v-458h88v-121h-329v121h88v458h-88v121h329zM153 903v-132h-136v132h136zM379 903v-132h-136v132h136z" />
    <glyph glyph-name="Odieresis.ss01" horiz-adv-x="776" 
d="M388 717q65 0 124 -19.5t111 -60.5t82.5 -115t30.5 -173q0 -92 -28.5 -164t-78 -115t-111 -65t-130.5 -22q-64 0 -123 20t-110.5 61.5t-82.5 115.5t-31 171q0 94 29 166.5t78.5 115t110 63.5t129.5 21zM388 590q-86 0 -138 -63t-52 -175q0 -114 49 -178t141 -64
q85 0 137.5 63t52.5 175q0 113 -49 177.5t-141 64.5zM343 903v-132h-136v132h136zM569 903v-132h-136v132h136z" />
    <glyph glyph-name="Udieresis.ss01" horiz-adv-x="698" 
d="M638 700v-442q0 -121 -71.5 -198t-217.5 -77q-148 0 -217.5 77t-69.5 198v442h152v-440q0 -78 33 -114t103 -36q135 0 135 150v440h153zM304 903v-132h-136v132h136zM530 903v-132h-136v132h136z" />
    <glyph glyph-name="adieresis.ss01" horiz-adv-x="568" 
d="M286 545q224 0 224 -168v-261q0 -74 18 -116h-145q-12 25 -17 54q-52 -67 -155 -67q-83 0 -130.5 45t-47.5 117q0 77 51.5 121.5t168.5 59.5l111 14v23q0 43 -17 59t-64 16q-44 0 -64 -16.5t-21 -53.5h-144q2 86 63 129.5t169 43.5zM364 251l-75 -10q-57 -7 -82 -25.5
t-25 -52.5q0 -29 18 -46t53 -17q46 0 78.5 28t32.5 71v52zM246 743v-132h-136v132h136zM472 743v-132h-136v132h136z" />
    <glyph glyph-name="edieresis.ss01" horiz-adv-x="589" 
d="M298 544q120 0 189 -78t69 -208v-28h-370q4 -65 37.5 -97.5t91.5 -32.5q80 0 120 69l117 -57q-80 -126 -246 -126q-125 0 -197.5 78t-72.5 201q0 125 69.5 202t192.5 77zM298 438q-49 0 -78.5 -29t-33.5 -86h220q-7 115 -108 115zM252 743v-132h-136v132h136zM478 743
v-132h-136v132h136z" />
    <glyph glyph-name="idieresis.ss01" horiz-adv-x="273" 
d="M210 531v-531h-146v531h146zM91 743v-132h-136v132h136zM317 743v-132h-136v132h136z" />
    <glyph glyph-name="odieresis.ss01" horiz-adv-x="626" 
d="M313 544q126 0 202 -79t76 -200q0 -126 -75 -202.5t-203 -76.5t-202.5 77.5t-74.5 201.5t75 201.5t202 77.5zM313 428q-58 0 -91 -41t-33 -120q0 -80 32.5 -122.5t91.5 -42.5t91.5 42.5t32.5 122.5q0 79 -33 120t-91 41zM268 743v-132h-136v132h136zM494 743v-132h-136
v132h136z" />
    <glyph glyph-name="divide.ss01" 
d="M378 177v-152h-155v152h155zM378 574v-152h-155v152h155zM515 361v-123h-430v123h430z" />
    <glyph glyph-name="udieresis.ss01" horiz-adv-x="598" 
d="M535 531v-531h-141v63q-60 -77 -158 -77q-80 0 -128.5 46.5t-48.5 138.5v360h146v-326q0 -50 18.5 -71.5t59.5 -21.5q48 0 77 33t29 87v299h146zM252 743v-132h-136v132h136zM478 743v-132h-136v132h136z" />
    <glyph glyph-name="ydieresis.ss01" horiz-adv-x="526" 
d="M525 531l-164 -550q-26 -86 -71 -127.5t-139 -41.5q-41 0 -74 7v102q24 -2 47 -2q54 0 74 16t31 65h-56l-174 531h163l107 -428l99 428h157zM219 743v-132h-136v132h136zM445 743v-132h-136v132h136z" />
    <glyph glyph-name="ij.ss01" horiz-adv-x="558" 
d="M495 531v-544q0 -89 -48 -132t-120 -43q-45 0 -74 7v107q11 -1 20 -1q44 0 60 20t16 80v506h146zM501 743v-141h-158v141h158zM210 531v-531h-146v531h146zM216 743v-141h-158v141h158z" />
    <glyph glyph-name="Ydieresis.ss01" horiz-adv-x="620" 
d="M624 700l-240 -422v-278h-152v276l-240 424h173l145 -299l147 299h167zM264 903v-132h-136v132h136zM490 903v-132h-136v132h136z" />
    <glyph glyph-name="uni02BB.ss01" horiz-adv-x="292" 
d="M72 475v151l74 157h84l-43 -157h38v-151h-153z" />
    <glyph glyph-name="uni02BC.ss01" horiz-adv-x="292" 
d="M219 749v-151l-74 -157h-84l43 157h-38v151h153z" />
    <glyph glyph-name="uni0307.ss01" horiz-adv-x="1" 
d="M-24 743v-141h-158v141h158z" />
    <glyph glyph-name="uni0308.ss01" horiz-adv-x="1" 
d="M-264 743v-132h-136v132h136zM-38 743v-132h-136v132h136z" />
    <glyph glyph-name="uni0326.ss01" horiz-adv-x="1" 
d="M-30 -71v-117l-66 -126h-67l35 126h-32v117h130z" />
    <glyph glyph-name="quoteleft.ss01" horiz-adv-x="292" 
d="M72 475v151l74 157h84l-43 -157h38v-151h-153z" />
    <glyph glyph-name="quoteright.ss01" horiz-adv-x="292" 
d="M219 749v-151l-74 -157h-84l43 157h-38v151h153z" />
    <glyph glyph-name="quotesinglbase.ss01" horiz-adv-x="292" 
d="M219 151v-151l-74 -157h-84l43 157h-38v151h153z" />
    <glyph glyph-name="quotedblleft.ss01" horiz-adv-x="504" 
d="M284 475v151l74 157h84l-43 -157h38v-151h-153zM72 475v151l74 157h84l-43 -157h38v-151h-153z" />
    <glyph glyph-name="quotedblright.ss01" horiz-adv-x="504" 
d="M219 749v-151l-74 -157h-84l43 157h-38v151h153zM430 749v-151l-74 -157h-84l43 157h-38v151h153z" />
    <glyph glyph-name="quotedblbase.ss01" horiz-adv-x="504" 
d="M219 151v-151l-74 -157h-84l43 157h-38v151h153zM430 151v-151l-74 -157h-84l43 157h-38v151h153z" />
    <glyph glyph-name="bullet.ss01" horiz-adv-x="347" 
d="M282 399v-214h-217v214h217z" />
    <glyph glyph-name="ellipsis.ss01" horiz-adv-x="854" 
d="M220 152v-152h-155v152h155zM505 152v-152h-155v152h155zM790 152v-152h-155v152h155z" />
    <glyph glyph-name="uni203D.ss01" horiz-adv-x="534" 
d="M269 714q117 0 179.5 -56.5t62.5 -133.5q0 -48 -18.5 -84t-45.5 -57t-54 -39t-45.5 -40.5t-18.5 -51.5v-25h-120l-18 268v84q-34 -22 -54 -80l-119 37q24 73 88 125.5t163 52.5zM317 495l-10 -93q5 6 18 20t18.5 21.5t14 20t11.5 25t3 27.5q0 58 -55 75v-96zM191 0v156
h157v-156h-157z" />
    <glyph glyph-name="uni2219.ss01" 
d="M408 399v-214h-217v214h217z" />
    <glyph glyph-name="dotmath.ss01" 
d="M380 380v-159h-161v159h161z" />
    <glyph glyph-name="adieresis.sc.ss01" horiz-adv-x="578" 
d="M422 0l-28 91h-215l-28 -91h-150l196 580h185l196 -580h-156zM364 197l-78 279l-77 -279h155zM244 792v-132h-136v132h136zM470 792v-132h-136v132h136z" />
    <glyph glyph-name="edieresis.sc.ss01" horiz-adv-x="536" 
d="M486 580v-116h-270v-112h252v-112h-252v-123h278v-117h-423v580h415zM233 792v-132h-136v132h136zM459 792v-132h-136v132h136z" />
    <glyph glyph-name="idieresis.sc.ss01" horiz-adv-x="342" 
d="M306 580v-114h-63v-352h63v-114h-272v114h64v352h-64v114h272zM125 792v-132h-136v132h136zM351 792v-132h-136v132h136z" />
    <glyph glyph-name="odieresis.sc.ss01" horiz-adv-x="695" 
d="M349 595q58 0 110 -16.5t97 -51t72 -96t27 -142.5q0 -148 -88.5 -226t-217.5 -78q-45 0 -88 10t-83.5 33.5t-70.5 58t-48 87t-18 117.5q0 77 25.5 137t69 95.5t97.5 53.5t116 18zM349 478q-71 0 -113.5 -48.5t-42.5 -137.5q0 -91 40 -140.5t116 -49.5q69 0 112 48.5
t43 137.5q0 90 -39.5 140t-115.5 50zM303 792v-132h-136v132h136zM529 792v-132h-136v132h136z" />
    <glyph glyph-name="udieresis.sc.ss01" horiz-adv-x="636" 
d="M574 580v-359q0 -104 -64.5 -170t-192.5 -66q-130 0 -192.5 66t-62.5 170v359h145v-361q0 -116 111 -116q112 0 112 116v361h144zM273 792v-132h-136v132h136zM499 792v-132h-136v132h136z" />
    <glyph glyph-name="ydieresis.sc.ss01" horiz-adv-x="554" 
d="M558 580l-211 -352v-228h-144v226l-211 354h167l118 -236l119 236h162zM231 792v-132h-136v132h136zM457 792v-132h-136v132h136z" />
    <glyph glyph-name="exclamdown.case.ss01" horiz-adv-x="279" 
d="M217 700v-155h-156v155h156zM197 464l22 -256v-208h-160v208l21 256h117z" />
    <glyph glyph-name="questiondown.case.ss01" horiz-adv-x="534" 
d="M359 700v-155h-157v155h157zM351 461v-33q0 -40 -17.5 -71.5t-42.5 -51.5t-50.5 -37.5t-43 -39.5t-17.5 -48q0 -37 23 -57t63 -20q83 0 117 93l133 -35q-21 -73 -85.5 -126t-169.5 -53q-115 0 -176.5 56.5t-61.5 133.5q0 43 14 76.5t34.5 52t44.5 36.5t44.5 30.5
t34.5 32.5t14 45v16h142z" />
    <glyph glyph-name="uni0307.case.ss01" horiz-adv-x="1" 
d="M-23 916v-141h-160v141h160z" />
    <glyph glyph-name="uni0308.case.ss01" horiz-adv-x="1" 
d="M-264 903v-132h-136v132h136zM-38 903v-132h-136v132h136z" />
    <glyph glyph-name="one.ss02" horiz-adv-x="497" 
d="M223 0v350h-162v101h25q88 0 121.5 32t41.5 97h120v-580h-146z" />
    <glyph glyph-name="onesuperior.ss02" horiz-adv-x="400" 
d="M184 330v269h-108v74h10q61 0 87.5 20t31.5 57h89v-420h-110z" />
    <glyph glyph-name="onequarter.ss02" horiz-adv-x="912" 
d="M752 712l-433 -724h-109l433 724h109zM843 420v-263h55v-88h-55v-69h-108v69h-210v91l175 260h143zM734 309l-103 -152h103v152zM184 280v269h-108v74h10q61 0 87.5 20t31.5 57h89v-420h-110z" />
    <glyph glyph-name="onehalf.ss02" horiz-adv-x="962" 
d="M752 712l-433 -724h-109l433 724h109zM763 433q74 0 117.5 -36t43.5 -93q0 -64 -43 -113.5t-139 -101.5h187v-89h-336v86q123 83 167.5 127t44.5 88q0 45 -46 45q-52 0 -52 -70h-113q0 70 43 113.5t126 43.5zM184 280v269h-108v74h10q61 0 87.5 20t31.5 57h89v-420h-110z
" />
    <glyph glyph-name="uni2081.ss02" horiz-adv-x="400" 
d="M184 -167v269h-108v74h10q61 0 87.5 20t31.5 57h89v-420h-110z" />
    <glyph glyph-name="uni2150.ss02" horiz-adv-x="992" 
d="M752 712l-433 -724h-109l433 724h109zM960 420v-89q-68 -80 -100 -150.5t-45 -180.5h-120q15 122 53.5 193.5t105.5 136.5h-135v-48h-95v138h336zM184 280v269h-108v74h10q61 0 87.5 20t31.5 57h89v-420h-110z" />
    <glyph glyph-name="uni2151.ss02" horiz-adv-x="962" 
d="M752 712l-433 -724h-109l433 724h109zM746 -12q-56 0 -97.5 23.5t-60.5 63.5l92 37q20 -40 68 -40q78 0 84 119q-34 -49 -107 -49q-59 0 -100.5 37.5t-41.5 103.5q0 69 49.5 109.5t124.5 40.5q82 0 132.5 -49t50.5 -159q0 -113 -49.5 -175t-144.5 -62zM756 229
q27 0 43.5 16t16.5 44q0 27 -16 42.5t-40 15.5q-26 0 -43.5 -16t-17.5 -45q0 -25 15 -41t42 -16zM184 280v269h-108v74h10q61 0 87.5 20t31.5 57h89v-420h-110z" />
    <glyph glyph-name="uni2152.ss02" horiz-adv-x="1332" 
d="M747 712l-433 -724h-109l433 724h109zM742 0v269h-108v74h10q61 0 87.5 20t31.5 57h89v-420h-110zM1118 433q84 0 131 -56.5t47 -164.5q0 -110 -47 -166.5t-131 -56.5q-85 0 -131.5 56.5t-46.5 166.5q0 108 46.5 164.5t131.5 56.5zM1118 345q-36 0 -50.5 -32t-14.5 -100
q0 -69 15 -102.5t50 -33.5q65 0 65 136q0 67 -15 99.5t-50 32.5zM169 280v269h-108v74h10q61 0 87.5 20t31.5 57h89v-420h-110z" />
    <glyph glyph-name="onethird.ss02" horiz-adv-x="962" 
d="M752 712l-433 -724h-109l433 724h109zM765 432q76 0 119 -32t43 -83q0 -73 -83 -93q43 -6 69.5 -31.5t26.5 -68.5q0 -62 -48 -98.5t-129 -36.5q-71 0 -118.5 31.5t-61.5 90.5l104 24q14 -58 75 -58q28 0 45 13.5t17 38.5q0 24 -17.5 37t-46.5 13h-45v80h37q61 0 61 45
q0 41 -51 41q-52 0 -67 -48l-104 16q13 53 59.5 86t114.5 33zM184 280v269h-108v74h10q61 0 87.5 20t31.5 57h89v-420h-110z" />
    <glyph glyph-name="uni2155.ss02" horiz-adv-x="972" 
d="M752 712l-433 -724h-109l433 724h109zM927 420l-13 -86h-184l-12 -76q38 31 92 31q58 0 100 -39t42 -102q0 -71 -48.5 -115t-137.5 -44q-69 0 -113.5 29.5t-60.5 75.5l99 31q19 -50 77 -50q34 0 52 18.5t18 46.5t-17.5 44t-49.5 16q-44 0 -67 -30l-97 14l34 236h286z
M184 280v269h-108v74h10q61 0 87.5 20t31.5 57h89v-420h-110z" />
    <glyph glyph-name="uni2159.ss02" horiz-adv-x="952" 
d="M752 712l-433 -724h-109l433 724h109zM764 433q114 0 154 -90l-94 -32q-14 37 -60 37q-74 0 -85 -117q33 50 108 50q59 0 101 -37t42 -101q0 -72 -49 -113t-125 -41q-82 0 -132.5 49t-50.5 160q0 110 52 172.5t139 62.5zM758 195q-26 0 -43 -15.5t-17 -43.5t17 -44.5
t40 -16.5q25 0 42 16.5t17 45.5q0 26 -14.5 42t-41.5 16zM184 280v269h-108v74h10q61 0 87.5 20t31.5 57h89v-420h-110z" />
    <glyph glyph-name="oneeighth.ss02" horiz-adv-x="962" 
d="M752 712l-433 -724h-109l433 724h109zM760 -11q-94 0 -140.5 37.5t-46.5 86.5q0 75 81 106q-57 36 -57 96q0 49 42 83.5t121 34.5q80 0 123 -33.5t43 -77.5q0 -26 -16.5 -51.5t-47.5 -39.5q50 -19 69 -43.5t19 -64.5q0 -54 -45 -94t-145 -40zM761 265l22 -6q34 24 34 54
q0 19 -14.5 29.5t-40.5 10.5q-25 0 -40 -10.5t-15 -29.5q0 -18 12 -29t42 -19zM761 76q37 0 55.5 13.5t18.5 32.5q0 22 -16.5 33t-60.5 23l-33 9q-37 -27 -37 -62q0 -23 19.5 -36t53.5 -13zM184 280v269h-108v74h10q61 0 87.5 20t31.5 57h89v-420h-110z" />
    <glyph glyph-name="uni215F.ss02" horiz-adv-x="612" 
d="M752 712l-433 -724h-109l433 724h109zM184 280v269h-108v74h10q61 0 87.5 20t31.5 57h89v-420h-110z" />
    <glyph glyph-name="uni2460.ss02" horiz-adv-x="900" 
d="M416 159v245h-98v67h9q56 0 80 18t28 52h81v-382h-100zM451 717q159 0 265.5 -106.5t106.5 -261.5t-106 -260.5t-266 -105.5q-159 0 -266 105.5t-107 260.5t107 261.5t266 106.5zM451 647q-128 0 -211 -87.5t-83 -210.5t83 -209.5t211 -86.5t210 86t82 210t-82 211
t-210 87z" />
    <glyph glyph-name="uni2776.ss02" horiz-adv-x="900" 
d="M451 -17q-159 0 -266 105.5t-107 260.5t107 261.5t266 106.5t265.5 -106.5t106.5 -261.5t-106 -260.5t-266 -105.5zM416 159h100v382h-80q-12 -36 -37 -53t-81 -17v-76q65 0 98 25v-261z" />
    <glyph glyph-name="one.numr.ss02" horiz-adv-x="400" 
d="M184 280v269h-108v74h10q61 0 87.5 20t31.5 57h89v-420h-110z" />
    <glyph glyph-name="one.dnom.ss02" horiz-adv-x="400" 
d="M184 0v269h-108v74h10q61 0 87.5 20t31.5 57h89v-420h-110z" />
    <glyph glyph-name="one.tf.ss02" 
d="M282 0v470h-162v100h25q88 0 121.5 32t41.5 98h120v-700h-146z" />
    <glyph glyph-name="one.lf.ss02" horiz-adv-x="485" 
d="M232 0v454h-162v100h25q88 0 121.5 32t41.5 98h120v-684h-146z" />
    <glyph glyph-name="one.tosf.ss02" 
d="M282 0v350h-162v101h25q88 0 121.5 32t41.5 97h120v-580h-146z" />
    <glyph glyph-name="one.tf.sc.ss02" 
d="M282 0v350h-162v101h25q88 0 121.5 32t41.5 97h120v-580h-146z" />
    <glyph glyph-name="one.lf.sc.ss02" horiz-adv-x="497" 
d="M239 0v350h-162v101h25q88 0 121.5 32t41.5 97h120v-580h-146z" />
    <glyph glyph-name="circle.comp" horiz-adv-x="900" 
d="M451 717q159 0 265.5 -106.5t106.5 -261.5t-106 -260.5t-266 -105.5q-159 0 -266 105.5t-107 260.5t107 261.5t266 106.5zM451 647q-128 0 -211 -87.5t-83 -210.5t83 -209.5t211 -86.5t210 86t82 210t-82 211t-210 87z" />
    </font>
</defs>
</svg>
