<?xml version="1.0" encoding="UTF-8" standalone="no"?>
<svg width="40px" height="49px" viewBox="0 0 40 49" version="1.1" xmlns="http://www.w3.org/2000/svg" xmlns:xlink="http://www.w3.org/1999/xlink" xmlns:sketch="http://www.bohemiancoding.com/sketch/ns">
    <!-- Generator: Sketch 3.5.2 (25235) - http://www.bohemiancoding.com/sketch -->
    <title>menu-icon</title>
    <desc>Created with Sketch.</desc>
    <defs></defs>
    <g id="business" stroke="none" stroke-width="1" fill="none" fill-rule="evenodd" sketch:type="MSPage">
        <g sketch:type="MSArtboardGroup" transform="translate(-755.000000, -1997.000000)" id="//why">
            <g sketch:type="MSLayerGroup" transform="translate(0.000000, 1592.000000)">
                <g id="/menu" transform="translate(756.000000, 400.000000)" sketch:type="MSShapeGroup">
                    <g id="::icon" transform="translate(0.000000, 6.000000)">
                        <g id="menu-icon">
                            <path d="M37.9994633,0 L3.55271368e-15,0 L3.55271368e-15,47 L38,47 L38,0 L37.9994633,0 L37.9994633,0 Z" id="Shape" stroke="#A5B3CB" stroke-width="2"></path>
                            <g id="Group" transform="translate(8.666667, 9.888889)" fill="#A5B3CB">
                                <g>
                                    <path d="M4.00075,7.49318889 L0.132166667,3.60531111 L1.834625,1.89412222 L4.00075,4.07081111 L7.77020833,0.282022222 L9.472125,1.99266667 L4.00075,7.49318889 Z" id="Shape"></path>
                                    <rect id="Rectangle-path" x="11.0716667" y="3.52854444" width="10.46175" height="2.42005556"></rect>
                                </g>
                                <g transform="translate(0.000000, 9.800000)">
                                    <path d="M4.00075,7.41642222 L0.132166667,3.52854444 L1.834625,1.81735556 L4.00075,3.99404444 L7.77020833,0.205255556 L9.472125,1.91644444 L4.00075,7.41642222 Z" id="Shape"></path>
                                    <rect id="Rectangle-path" x="11.0716667" y="3.45232222" width="10.46175" height="2.42005556"></rect>
                                </g>
                                <g transform="translate(0.000000, 19.600000)">
                                    <path d="M4.00075,7.33965556 L0.132166667,3.45177778 L1.834625,1.74058889 L4.00075,3.91727778 L7.77020833,0.128488889 L9.472125,1.83967778 L4.00075,7.33965556 Z" id="Shape"></path>
                                    <rect id="Rectangle-path" x="11.0716667" y="3.37555556" width="10.46175" height="2.42005556"></rect>
                                </g>
                            </g>
                        </g>
                    </g>
                </g>
            </g>
        </g>
    </g>
</svg>