<?xml version="1.0" encoding="UTF-8" standalone="no"?>
<svg width="38px" height="48px" viewBox="0 0 38 48" version="1.1" xmlns="http://www.w3.org/2000/svg" xmlns:xlink="http://www.w3.org/1999/xlink" xmlns:sketch="http://www.bohemiancoding.com/sketch/ns">
    <!-- Generator: Sketch 3.5.2 (25235) - http://www.bohemiancoding.com/sketch -->
    <title>money-icon</title>
    <desc>Created with Sketch.</desc>
    <defs></defs>
    <g id="business" stroke="none" stroke-width="1" fill="none" fill-rule="evenodd" sketch:type="MSPage">
        <g sketch:type="MSArtboardGroup" transform="translate(-756.000000, -2188.000000)" id="//why" fill="#A5B3CB">
            <g sketch:type="MSLayerGroup" transform="translate(0.000000, 1592.000000)">
                <g id="/sales" transform="translate(756.000000, 590.000000)" sketch:type="MSShapeGroup">
                    <g id="::icon" transform="translate(0.000000, 6.000000)">
                        <g id="money-icon">
                            <path d="M19,48 C8.524,48 0,41.272 0,33 C0,27.268 12.818,13.82 14.28,12.306 C14.468,12.11 14.728,12 15,12 L23,12 C23.272,12 23.532,12.11 23.72,12.306 C25.182,13.82 38,27.268 38,33 C38,41.272 29.476,48 19,48 L19,48 Z M15.426,14 C11.42,18.196 2,28.928 2,33 C2,40.168 9.626,46 19,46 C28.374,46 36,40.168 36,33 C36,28.928 26.58,18.196 22.574,14 L15.426,14 L15.426,14 Z" id="Shape"></path>
                            <path d="M27,14 L11,14 C10.448,14 10,13.552 10,13 C10,12.448 10.448,12 11,12 L27,12 C27.552,12 28,12.448 28,13 C28,13.552 27.552,14 27,14 L27,14 Z" id="Shape"></path>
                            <path d="M23,14 L15,14 C14.774,14 14.552,13.922 14.376,13.782 C13.518,13.096 5.978,6.974 5.656,3.272 C5.59,2.52 5.796,1.852 6.25,1.338 C6.532,1.018 7.062,0.636 7.984,0.636 C9.994,0.636 13.19,2.58 14.734,3.604 C15.874,1.984 17.564,0 19,0 C20.436,0 22.126,1.984 23.266,3.604 C24.81,2.58 28.006,0.636 30.016,0.636 C30.936,0.636 31.468,1.018 31.75,1.338 C32.204,1.852 32.41,2.52 32.344,3.27 C32.022,6.974 24.482,13.096 23.624,13.78 C23.448,13.922 23.226,14 23,14 L23,14 Z M15.352,12 L22.646,12 C25.642,9.562 30.168,5.184 30.35,3.098 C30.376,2.806 30.286,2.706 30.248,2.662 L30.248,2.662 C30.242,2.662 30.164,2.636 30.014,2.636 C28.556,2.636 25.294,4.584 23.58,5.812 C23.356,5.972 23.082,6.03 22.81,5.982 C22.542,5.932 22.306,5.772 22.156,5.542 C21.02,3.786 19.5,2.096 18.97,1.998 C18.49,2.096 16.97,3.786 15.836,5.542 C15.688,5.772 15.452,5.93 15.182,5.982 C14.916,6.032 14.64,5.972 14.416,5.812 C12.704,4.584 9.442,2.636 7.984,2.636 C7.83,2.636 7.754,2.662 7.738,2.672 C7.712,2.706 7.624,2.806 7.648,3.098 C7.83,5.184 12.358,9.562 15.352,12 L15.352,12 Z" id="Shape"></path>
                            <path d="M18.998,40 C16.33,40 14.182,38.398 14.004,36.276 C13.958,35.726 14.366,35.242 14.916,35.196 C15.474,35.142 15.95,35.558 15.996,36.108 C16.084,37.152 17.43,38 18.996,38 C20.624,38 21.998,37.084 21.998,36 C21.998,35.024 21.05,34.396 19.016,34.02 L18.8,33.98 C15.554,33.382 14,32.054 14,30 C14,27.794 16.244,26 19.002,26 C21.67,26 23.816,27.6 23.996,29.724 C24.042,30.274 23.634,30.758 23.084,30.804 C22.55,30.874 22.05,30.442 22.004,29.892 C21.916,28.848 20.57,28 19.002,28 C17.374,28 16,28.916 16,30 C16,30.976 16.95,31.604 18.986,31.98 L19.206,32.022 C22.446,32.62 24,33.946 24,36 C24,38.206 21.756,40 18.998,40 L18.998,40 Z" id="Shape"></path>
                            <path d="M19,42 C18.448,42 18,41.552 18,41 L18,25 C18,24.448 18.448,24 19,24 C19.552,24 20,24.448 20,25 L20,41 C20,41.552 19.552,42 19,42 L19,42 Z" id="Shape"></path>
                        </g>
                    </g>
                </g>
            </g>
        </g>
    </g>
</svg>