<?xml version="1.0" encoding="UTF-8" standalone="no"?>
<svg width="42px" height="48px" viewBox="0 0 42 48" version="1.1" xmlns="http://www.w3.org/2000/svg" xmlns:xlink="http://www.w3.org/1999/xlink" xmlns:sketch="http://www.bohemiancoding.com/sketch/ns">
    <!-- Generator: Sketch 3.5.2 (25235) - http://www.bohemiancoding.com/sketch -->
    <title>search-icon</title>
    <desc>Created with Sketch.</desc>
    <defs></defs>
    <g id="business" stroke="none" stroke-width="1" fill="none" fill-rule="evenodd" sketch:type="MSPage">
        <g sketch:type="MSArtboardGroup" transform="translate(-231.000000, -1998.000000)" id="//why" fill="#A5B3CB">
            <g sketch:type="MSLayerGroup" transform="translate(0.000000, 1592.000000)">
                <g id="/search" transform="translate(231.000000, 400.000000)" sketch:type="MSShapeGroup">
                    <g id="::icon" transform="translate(0.000000, 6.000000)">
                        <path d="M31.3545706,44.7922438 L20.9418283,47.700831 L10.4709141,44.7922438 L0,47.700831 L5.81717452,29.0858726 L9.59833795,28.2132964 L10.8199446,29.7839335 L7.03878116,30.8310249 L2.38504155,45.3739612 L10.5290859,43.0470914 L21,45.9556787 L31.4709141,43.0470914 L39.6149584,45.3739612 L34.9612188,30.8310249 L31.1800554,29.7839335 L32.401662,28.2132964 L36.1828255,29.0858726 L42,47.700831 L31.3545706,44.7922438 L31.3545706,44.7922438 Z M33.7396122,23.2686981 L20.9418283,40.7202216 L8.14404432,23.2686981 L8.20221607,23.2686981 C6.68975069,20.9418283 5.81717452,18.1495845 5.81717452,15.1246537 C5.81717452,6.74792244 12.565097,0 20.9418283,0 C29.3185596,0 36.066482,6.74792244 36.066482,15.1246537 C36.066482,18.1495845 35.1939058,20.9418283 33.6814404,23.2686981 L33.7396122,23.2686981 L33.7396122,23.2686981 Z M34.3213296,15.3573407 C34.3213296,7.8531856 28.3296399,1.74515235 20.9418283,1.74515235 C13.5540166,1.74515235 7.56232687,7.8531856 7.56232687,15.3573407 C7.56232687,18.033241 8.31855956,20.5927978 9.6565097,22.6869806 L9.59833795,22.6869806 L20.9418283,38.3933518 L32.2853186,22.6869806 L32.2271468,22.6869806 C33.565097,20.5927978 34.3213296,18.033241 34.3213296,15.3573407 L34.3213296,15.3573407 Z M20.9418283,20.9418283 C17.7423823,20.9418283 15.1246537,18.3240997 15.1246537,15.1246537 C15.1246537,11.9252078 17.7423823,9.30747922 20.9418283,9.30747922 C24.1412742,9.30747922 26.7590028,11.9252078 26.7590028,15.1246537 C26.7590028,18.3240997 24.1412742,20.9418283 20.9418283,20.9418283 L20.9418283,20.9418283 Z M20.9418283,11.0526316 C18.6731302,11.0526316 16.8698061,12.8559557 16.8698061,15.1246537 C16.8698061,17.3933518 18.6731302,19.1966759 20.9418283,19.1966759 C23.2105263,19.1966759 25.0138504,17.3933518 25.0138504,15.1246537 C25.0138504,12.8559557 23.2105263,11.0526316 20.9418283,11.0526316 L20.9418283,11.0526316 Z" id="search-icon"></path>
                    </g>
                </g>
            </g>
        </g>
    </g>
</svg>