<?xml version="1.0" encoding="UTF-8" standalone="no"?>
<svg width="49px" height="48px" viewBox="0 0 49 48" version="1.1" xmlns="http://www.w3.org/2000/svg" xmlns:xlink="http://www.w3.org/1999/xlink" xmlns:sketch="http://www.bohemiancoding.com/sketch/ns">
    <!-- Generator: Sketch 3.5.2 (25235) - http://www.bohemiancoding.com/sketch -->
    <title>talk-icon</title>
    <desc>Created with Sketch.</desc>
    <defs></defs>
    <g id="business" stroke="none" stroke-width="1" fill="none" fill-rule="evenodd" sketch:type="MSPage">
        <g sketch:type="MSArtboardGroup" transform="translate(-231.000000, -2188.000000)" id="//why" fill="#A5B3CB">
            <g sketch:type="MSLayerGroup" transform="translate(0.000000, 1592.000000)">
                <g id="/staff" transform="translate(231.000000, 590.000000)" sketch:type="MSShapeGroup">
                    <g id="::icon" transform="translate(0.000000, 6.000000)">
                        <path d="M44.2796667,0.936969697 L21.1952222,0.936969697 C18.5368485,0.936969697 16.3333333,3.01278788 16.3333333,5.37369697 L16.3333333,13.3107071 L4.82278788,13.3107071 C2.16342424,13.3107071 0,15.6617172 0,18.0231212 L0,37.8107071 C0,40.1721111 2.16342424,42.0177778 4.82278788,42.0177778 L6.28585859,42.0177778 L6.99710101,47.0340909 C7.05946465,47.4711313 7.38959596,47.8398687 7.82218182,47.9289596 C7.89147475,47.9433131 7.96225253,47.9596465 8.03154545,47.9596465 C8.39186869,47.9596465 8.73239394,47.7403838 8.92443434,47.4236162 L12.181697,42.0177778 L27.9062424,42.0177778 C30.5651111,42.0177778 32.6666667,40.1721111 32.6666667,37.8107071 L32.6666667,29.6440404 L36.9445152,29.6440404 L40.1780202,34.8766465 C40.3695657,35.1929192 40.7105859,35.3295253 41.071404,35.3295253 C41.140697,35.3295253 41.2104848,35.2973535 41.2802727,35.283 C41.7128586,35.1939091 42.0429899,34.9315859 42.1053535,34.4945455 L42.8096667,29.6440404 L44.2796667,29.6440404 C46.9380404,29.6440404 49,27.5221919 49,25.159798 L49,5.37369697 C49,3.01278788 46.9380404,0.936969697 44.2796667,0.936969697 L44.2796667,0.936969697 Z M30.6868687,37.8107071 C30.6868687,39.0193737 29.4128687,40.0379798 27.9062424,40.0379798 L11.593202,40.0379798 C11.2279293,40.0379798 10.8893838,40.212202 10.6998182,40.5240202 L8.65171717,43.8936364 L8.22556566,40.9214646 C8.15181818,40.4067172 7.71081818,40.0379798 7.19161616,40.0379798 L4.82278788,40.0379798 C3.31566667,40.0379798 1.97979798,39.0193737 1.97979798,37.8107071 L1.97979798,18.0231212 C1.97979798,16.8134646 3.31566667,15.7854545 4.82278788,15.7854545 L17.4187576,15.7854545 L27.9062424,15.7854545 C29.4128687,15.7854545 30.6868687,16.8134646 30.6868687,18.0231212 L30.6868687,28.3992424 L30.6868687,37.8107071 L30.6868687,37.8107071 Z M47.020202,25.159798 C47.020202,26.3699495 45.7862929,27.6642424 44.2796667,27.6642424 L41.9039091,27.6642424 C41.3842121,27.6642424 40.9437071,27.8914242 40.8699596,28.4066667 L40.4492525,31.2724242 L38.4249091,28.050798 C38.2363333,27.7384848 37.8972929,27.6642424 37.5320202,27.6642424 L32.6666667,27.6642424 L32.6666667,18.0231212 C32.6666667,15.6617172 30.5651111,13.3107071 27.9062424,13.3107071 L18.3131313,13.3107071 L18.3131313,5.37369697 C18.3131313,4.16453535 19.688596,2.91676768 21.1952222,2.91676768 L44.2796667,2.91676768 C45.7862929,2.91676768 47.020202,4.16453535 47.020202,5.37369697 L47.020202,25.159798 L47.020202,25.159798 Z" id="talk-icon"></path>
                    </g>
                </g>
            </g>
        </g>
    </g>
</svg>