<?xml version="1.0" encoding="UTF-8" standalone="no"?>
<svg width="165px" height="50px" viewBox="0 0 165 50" version="1.1" xmlns="http://www.w3.org/2000/svg" xmlns:xlink="http://www.w3.org/1999/xlink">
    <!-- Generator: Sketch 3.6.1 (26313) - http://www.bohemiancoding.com/sketch -->
    <title>/logo</title>
    <desc>Created with Sketch.</desc>
    <defs></defs>
    <g id="Portfolio" stroke="none" stroke-width="1" fill="none" fill-rule="evenodd">
        <g id="work-client-list" transform="translate(-150.000000, -14.000000)">
            <g id="//nav" transform="translate(150.000000, 15.000000)">
                <g id="/logo">
                    <g id="::Word-Mark" transform="translate(0.000000, 12.032222)" fill="#FFFFFF">
                        <path d="M25.9397493,35.5712207 L25.9397493,21.4456254 C25.9397493,19.5681315 25.2610745,18.2719224 23.2711461,18.2719224 C21.5977436,18.2719224 20.0146418,19.3447761 18.4317765,20.953823 L18.4317765,35.5712207 L13.0042693,35.5712207 L13.0042693,21.4456254 C13.0042693,19.5681315 12.2806805,18.2719224 10.2905158,18.2719224 C8.61711318,18.2719224 7.03401146,19.3447761 5.45114613,20.953823 L5.45114613,35.5712207 L0.0236389685,35.5712207 L0.0236389685,13.9805077 L4.63702006,13.9805077 L5.13438395,17.0203376 C7.16969914,15.0977521 9.38608883,13.5333296 12.3258309,13.5333296 C15.4466476,13.5333296 17.1200501,14.9192546 17.9341762,17.0203376 C19.8789542,15.0977521 22.2761819,13.5333296 25.2161605,13.5333296 C29.3319413,13.5333296 31.3672564,15.9921083 31.3672564,20.015076 L31.3672564,35.5712207 L25.9397493,35.5712207" id="Fill-1"></path>
                        <path d="M45.8863109,36.0186324 C39.9614398,36.0186324 35.6648209,31.8164665 35.6648209,24.7980595 C35.6648209,17.7803535 40.0065903,13.5333296 45.9316977,13.5333296 C51.9017192,13.5333296 56.2437249,17.7803535 56.2437249,24.7980595 C56.2437249,31.8164665 51.8568052,36.0186324 45.8863109,36.0186324 L45.8863109,36.0186324 Z M45.8863109,17.958851 C42.6751934,17.958851 40.9566404,20.7750919 40.9566404,24.7980595 C40.9566404,28.7320121 42.7203438,31.6375017 45.8863109,31.6375017 C49.2333524,31.6375017 50.9519054,28.8214945 50.9519054,24.7980595 C50.9519054,20.8197162 49.1428152,17.958851 45.8863109,17.958851 L45.8863109,17.958851 Z" id="Fill-2"></path>
                        <path d="M69.5869771,35.5714543 C66.1947851,35.5714543 63.3039756,35.5712207 60.6315903,35.5712207 L60.6315903,0.668430831 L66.0590974,6.04484826 L66.0590974,16.3941948 C67.4611246,14.963879 69.4964398,13.5333296 72.2553438,13.5333296 C76.8687249,13.5333296 80.4869054,16.9306217 80.4869054,24.1726176 C80.4869054,32.1293042 76.0997493,35.5714543 69.5869771,35.5714543 L69.5869771,35.5714543 Z M70.8533166,18.2719224 C69.0442264,18.2719224 67.4159742,19.4788828 66.0590974,21.0881633 L66.0590974,31.4737233 C66.0590974,31.4737233 67.9587249,31.473957 69.4964398,31.473957 C72.9337822,31.473957 75.0142479,29.4025457 75.0142479,24.4854554 C75.0142479,20.3281474 73.2956948,18.2719224 70.8533166,18.2719224 L70.8533166,18.2719224 Z" id="Fill-3"></path>
                        <path d="M94.0107593,36.0186324 C88.0858883,36.0186324 83.789033,31.8164665 83.789033,24.7980595 C83.789033,17.7803535 88.1310387,13.5333296 94.0559097,13.5333296 C100.026404,13.5333296 104.368173,17.7803535 104.368173,24.7980595 C104.368173,31.8164665 99.9810172,36.0186324 94.0107593,36.0186324 L94.0107593,36.0186324 Z M94.0107593,17.958851 C90.7994054,17.958851 89.0808524,20.7750919 89.0808524,24.7980595 C89.0808524,28.7320121 90.8447923,31.6375017 94.0107593,31.6375017 C97.3578009,31.6375017 99.0763539,28.8214945 99.0763539,24.7980595 C99.0763539,20.8197162 97.2672636,17.958851 94.0107593,17.958851 L94.0107593,17.958851 Z" id="Fill-4"></path>
                        <path d="M134.672149,35.5712207 L134.672149,21.4456254 C134.672149,19.5681315 133.993711,18.2719224 132.003546,18.2719224 C130.330143,18.2719224 128.747042,19.3447761 127.16394,20.953823 L127.16394,35.5712207 L121.736905,35.5712207 L121.736905,21.4456254 C121.736905,19.5681315 121.01308,18.2719224 119.022915,18.2719224 C117.349513,18.2719224 115.766411,19.3447761 114.183309,20.953823 L114.183309,35.5712207 L108.755802,35.5712207 L108.755802,13.9805077 L113.36942,13.9805077 L113.866784,17.0203376 C115.902335,15.0977521 118.118489,13.5333296 121.057994,13.5333296 C124.179047,13.5333296 125.85245,14.9192546 126.666576,17.0203376 C128.611117,15.0977521 131.008582,13.5333296 133.94856,13.5333296 C138.064105,13.5333296 140.099656,15.9921083 140.099656,20.015076 L140.099656,35.5712207 L134.672149,35.5712207" id="Fill-5"></path>
                        <path d="M154.618711,36.0186324 C148.694076,36.0186324 144.396984,31.8164665 144.396984,24.7980595 C144.396984,17.7803535 148.73899,13.5333296 154.664097,13.5333296 C160.634355,13.5333296 164.976361,17.7803535 164.976361,24.7980595 C164.976361,31.8164665 160.588968,36.0186324 154.618711,36.0186324 L154.618711,36.0186324 Z M154.618711,17.958851 C151.407593,17.958851 149.68904,20.7750919 149.68904,24.7980595 C149.68904,28.7320121 151.452744,31.6375017 154.618711,31.6375017 C157.965752,31.6375017 159.684305,28.8214945 159.684305,24.7980595 C159.684305,20.8197162 157.875215,17.958851 154.618711,17.958851 L154.618711,17.958851 Z" id="Fill-6"></path>
                    </g>
                    <g id="::bird" transform="translate(51.000000, 0.000000)">
                        <path d="M19.4697,4.5987525 L23.6634692,17.8874775 L38.9519308,4.5987525 L19.4697,4.5987525 Z" id="Fill-1"></path>
                        <path d="M19.4697,4.5988425 L38.9519308,4.5988425 L23.6634692,17.8875675 L19.4697,4.5988425 L19.4697,4.5988425 Z" id="Stroke-2" stroke="#FFFFFF" stroke-linecap="round" stroke-linejoin="round"></path>
                        <path d="M23.6634231,17.88741 L33.9508846,17.88741 L27.2089615,14.80581 L23.6634231,17.88741 Z" id="Fill-4"></path>
                        <path d="M33.9509308,17.8875 L23.6634692,17.8875 L27.2090077,14.805675 L33.9509308,17.8875 L33.9509308,17.8875 Z" id="Stroke-5" stroke="#FFFFFF" stroke-linecap="round" stroke-linejoin="round"></path>
                        <path d="M9.64086923,4.5987525 L23.6633308,17.8874775 L19.4697923,4.5987525 L9.64086923,4.5987525 Z" id="Fill-7"></path>
                        <path d="M23.6633538,17.8875 L9.64089231,4.598775 L19.4695846,4.598775 L23.6633538,17.8875 L23.6633538,17.8875 Z" id="Stroke-8" stroke="#FFFFFF" stroke-linecap="round" stroke-linejoin="round"></path>
                        <path d="M14.7294,0.106605 L19.4696308,4.59873 L9.64070769,4.59873 L14.7294,0.106605 Z" id="Fill-10"></path>
                        <path d="M14.7294,0.106605 L19.4696308,4.59873 L9.64070769,4.59873 L14.7294,0.106605 L14.7294,0.106605 Z" id="Stroke-11" stroke="#FFFFFF" stroke-linecap="round" stroke-linejoin="round"></path>
                        <path d="M0.115476923,4.5987525 L9.64093846,4.5987525 L14.7294,0.1066275 L0.115476923,4.5987525 Z" id="Fill-13"></path>
                        <path d="M9.64082308,4.5988425 L0.115361538,4.5988425 L14.7295154,0.1067175 L9.64082308,4.5988425 L9.64082308,4.5988425 Z" id="Stroke-14" stroke="#FFFFFF" stroke-linecap="round" stroke-linejoin="round"></path>
                    </g>
                </g>
            </g>
        </g>
    </g>
</svg>